<svg width="152" height="115" viewBox="0 0 152 115" fill="none" xmlns="http://www.w3.org/2000/svg">
<ellipse cx="103.622" cy="42.4694" rx="40.5936" ry="8.86053" transform="rotate(45 103.622 42.4694)" fill="url(#paint0_linear_2642_40588)"/>
<path d="M121.719 29.0063L115.253 34.1537L117.237 35.7334L123.703 30.5859L121.719 29.0063Z" fill="#FE8C01"/>
<path d="M117.31 29.7979L112.229 33.8423L115.781 36.6694L120.861 32.625L117.31 29.7979Z" fill="#7FD04F"/>
<path d="M118.346 30.8234L116.187 32.5424L116.15 31.1409L118.31 29.4219L118.346 30.8234Z" fill="#3497FD"/>
<path d="M119.674 29.054L115.055 32.7307L119.384 36.1767L124.003 32.5L119.674 29.054Z" fill="#3497FD"/>
<path d="M130.703 21.6541C130.703 21.6541 116.448 32.3664 123.737 32.2862C131.026 32.2059 123.657 23.7662 114.244 35.3921" stroke="#FEC456" stroke-width="6.54686" stroke-linecap="round"/>
<path d="M127.298 23.8146L116.213 32.6388L113.149 30.1992L124.233 21.375L127.298 23.8146Z" fill="#BD75EE"/>
<path d="M123.055 24.3335L116.82 29.2971L117.461 29.8073L123.696 24.8438L123.055 24.3335Z" fill="url(#paint1_linear_2642_40588)"/>
<path d="M133.31 29.4717C130.625 32.2979 130.153 35.2314 133.124 36.3096C128.029 37.2173 124.715 38.5674 125.92 33.4853C126.586 30.6758 127.981 30.2542 127.981 30.2542C127.981 30.2542 135.995 26.6456 133.31 29.4717Z" fill="url(#paint2_linear_2642_40588)"/>
<path d="M118.124 30.4053L125.025 25.6295L122.732 23.5289L115.83 28.3047L118.124 30.4053Z" fill="#FE8C01"/>
<path d="M112.508 25.6933L117.931 21.9408L118.368 22.3413L112.945 26.0938L112.508 25.6933Z" fill="#7FD04F"/>
<path d="M110.01 31.0776L118.267 25.3637L118.976 26.0126L110.719 31.7266L110.01 31.0776Z" fill="#3497FD"/>
<path d="M106.637 29.2703L111.567 25.859L114.514 28.5575L109.584 31.9688L106.637 29.2703Z" fill="#3497FD"/>
<path d="M102.434 38.1779C102.434 38.1779 117.523 28.2184 110.882 28.4775C104.241 28.7366 109.259 36.1054 120.128 25.4522" stroke="#FEC456" stroke-width="5.88787" stroke-linecap="round"/>
<path d="M100.336 32.4214L112.167 24.2343L115.06 26.8832L103.229 35.0703L100.336 32.4214Z" fill="#BD75EE"/>
<path d="M108.302 38.7454L114.957 34.1402L110.065 29.6604L103.41 34.2656L108.302 38.7454Z" fill="url(#paint3_linear_2642_40588)"/>
<path d="M104.022 35.0856L118.767 37.817L118.972 30.9937L104.89 28.8604L104.022 35.0856Z" fill="url(#paint4_linear_2642_40588)"/>
<path d="M114.064 31.7404L111.465 33.81L109.596 30.8118L112.195 28.7422L114.064 31.7404Z" fill="#FE8C01"/>
<path d="M117.5 33.6367L113.606 36.7362L109.911 33.7948L113.805 30.6953L117.5 33.6367Z" fill="#7FD04F"/>
<path d="M110.638 36.1752L115.559 32.2582L114.289 31.2471L109.368 35.1641L110.638 36.1752Z" fill="#3497FD"/>
<path d="M121.92 30.1221L119.038 32.4162L114.42 28.7395L117.302 26.4453L121.92 30.1221Z" fill="#3497FD"/>
<path d="M126.76 28.6639C126.76 28.6639 129.349 27.338 124.625 24.4805C119.901 21.6231 130.045 30.0933 128.887 26.2357" stroke="#FEC456" stroke-width="2.75881" stroke-linecap="round"/>
<path d="M118.714 29.7631L129.603 21.095L126.485 18.6132L115.597 27.2813L118.714 29.7631Z" fill="#BD75EE"/>
<path d="M121.727 28.3454L123.863 26.6453L118.552 22.417L116.416 24.1172L121.727 28.3454Z" fill="url(#paint5_linear_2642_40588)"/>
<path d="M121.493 27.6384L114.027 21.0812L116.867 22.5246C116.867 22.5246 124.253 29.0719 123.774 28.8205C123.086 28.4598 121.493 27.6384 121.493 27.6384Z" fill="#BD75EE"/>
<path d="M110.562 28.3528L115.857 24.6887L119.285 27.8281L113.99 31.4922L110.562 28.3528Z" fill="#7FD04F"/>
<path d="M109.175 28.1708L115.966 23.4717L117.144 24.5508L110.354 29.25L109.175 28.1708Z" fill="#3497FD"/>
<path d="M107.5 28.2789L111.929 25.2142L116.214 29.1385L111.785 32.2031L107.5 28.2789Z" fill="#3497FD"/>
<path d="M100.941 31.3973C100.941 31.3973 110 24.4392 111.327 29.7218C112.653 35.0045 101.905 26.9409 112.913 23.8015" stroke="#FEC456" stroke-width="5.6394" stroke-linecap="round"/>
<path d="M95.4691 28.3029L95.8773 32.9504L97.669 32.8507L97.2607 28.2031L95.4691 28.3029Z" fill="#FE8C01"/>
<path d="M96.5317 22.6473L96.8525 26.2989L100.059 26.1204L99.7383 22.4688L96.5317 22.6473Z" fill="#7FD04F"/>
<path d="M97.399 21.0744L97.5353 22.6264L96.6695 22.0521L96.5332 20.5L97.399 21.0744Z" fill="#3497FD"/>
<path d="M98.2849 18.991L98.5765 22.3107L102.485 22.0931L102.193 18.7734L98.2849 18.991Z" fill="#3497FD"/>
<path d="M95.5841 11.0476C95.5841 11.0476 96.0983 21.0268 99.1102 18.1904C102.122 15.354 93.9071 14.6437 97.009 23.1444" stroke="#FEC456" stroke-width="4.18999" stroke-linecap="round"/>
<path d="M95.9094 11.4714L96.6093 19.4386L93.8493 19.5923L93.1494 11.625L95.9094 11.4714Z" fill="#BD75EE"/>
<path d="M94.0316 14.5635L94.4253 19.0451L95.004 19.0128L94.6104 14.5313L94.0316 14.5635Z" fill="url(#paint6_linear_2642_40588)"/>
<path d="M102.18 13.5389C102.767 15.7579 104.349 17.171 106.251 16.4814C104.662 18.8216 104.09 20.6628 101.512 18.0656C100.087 16.6298 100.417 15.9165 100.417 15.9165C100.417 15.9165 101.593 11.3198 102.18 13.5389Z" fill="url(#paint7_linear_2642_40588)"/>
<path d="M95.35 21.125L95.35 16.4661L93.1123 16.4661L93.1123 21.125L95.35 21.125Z" fill="#FE8C01"/>
<path d="M89.1749 20.7422L89.1749 17.0816L89.6016 17.0816L89.6016 20.7422L89.1749 20.7422Z" fill="#7FD04F"/>
<path d="M91.6564 24.5469L91.6564 18.9728L92.3477 18.9728L92.3477 24.5469L91.6564 24.5469Z" fill="#3497FD"/>
<path d="M87.4692 25.9141L87.4692 22.5863L90.3438 22.5863L90.3438 25.9141L87.4692 25.9141Z" fill="#3497FD"/>
<path d="M87.308 39.8438C87.308 39.8438 87.6004 29.8604 84.9692 32.5226C82.3381 35.1848 88.9159 36.3496 87.0157 27.6973" stroke="#FEC456" stroke-width="3.76823" stroke-linecap="round"/>
<path d="M92.0134 30.3672L92.0134 22.3805L90.8125 22.3805L90.8125 30.3672L92.0134 30.3672Z" fill="#BD75EE"/>
<path d="M95.9929 29.5156L95.9929 25.0231L91.2207 25.0231L91.2207 29.5156L95.9929 29.5156Z" fill="url(#paint8_linear_2642_40588)"/>
<path d="M92.7093 30.0625L100.558 25.5399L96.5035 22.5962L89.2963 27.1152L92.7093 30.0625Z" fill="url(#paint9_linear_2642_40588)"/>
<path d="M94.6411 26.6028L94.8052 28.4714L92.2013 27.9311L92.0371 26.0625L94.6411 26.6028Z" fill="#FE8C01"/>
<path d="M97.5393 23.5096L97.7851 26.3081L94.449 26.4938L94.2031 23.6953L97.5393 23.5096Z" fill="#7FD04F"/>
<path d="M97.1585 29.6315L96.8479 26.0949L95.7011 26.1587L96.0117 29.6953L97.1585 29.6315Z" fill="#3497FD"/>
<path d="M107.575 17.6038L107.757 19.6752L103.587 19.9074L103.405 17.8359L107.575 17.6038Z" fill="#3497FD"/>
<path d="M97.3027 16.2408C97.3027 16.2408 97.5854 14.6885 93.8681 15.3052C90.1507 15.9219 99.5493 15.5779 96.7223 14.4036" stroke="#FEC456" stroke-width="1.76564" stroke-linecap="round"/>
<path d="M94.8119 18.2964L94.1245 10.4701L91.3096 10.6268L91.9971 18.4531L94.8119 18.2964Z" fill="#BD75EE"/>
<path d="M96.4939 15.6471L96.3591 14.1121L91.5634 14.379L91.6982 15.9141L96.4939 15.6471Z" fill="url(#paint10_linear_2642_40588)"/>
<path d="M93.2526 13.4231L86.4378 16.9395L88.9801 21.8491C88.9801 21.8491 95.7249 18.012 95.2953 17.2289C94.6789 16.1051 93.2526 13.4231 93.2526 13.4231Z" fill="url(#paint11_linear_2642_40588)"/>
<path d="M91.5906 21.1434L91.5906 17.1914L93.8955 17.798L93.8955 21.75L91.5906 21.1434Z" fill="#FE8C01"/>
<path d="M89.7573 22.5625L89.7573 18.9881L93.1016 18.9881L93.1016 22.5625L89.7573 22.5625Z" fill="#7FD04F"/>
<path d="M90.7586 24.1172L90.7586 19.533L91.9082 19.533L91.9082 24.1172L90.7586 24.1172Z" fill="#3497FD"/>
<path d="M88.5677 24.625L88.5677 21.6354L92.7481 21.6354L92.7481 24.625L88.5677 24.625Z" fill="#3497FD"/>
<path d="M86.8266 29.375C86.8266 29.375 86.4086 22.9701 90.1709 24.678C93.9332 26.386 84.5274 27.1333 87.2446 21.5823" stroke="#FEC456" stroke-width="3.60922" stroke-linecap="round"/>
<path d="M87.5494 32.1797L87.5494 24.3614L90.3711 24.3614L90.3711 32.1797L87.5494 32.1797Z" fill="#BD75EE"/>
<path d="M90.0071 30.6797L90.0071 27.3916L94.8145 27.3916L94.8145 30.6797L90.0071 30.6797Z" fill="url(#paint12_linear_2642_40588)"/>
<path d="M92.6971 35.4578C93.4287 36.9319 96.1459 37.9147 99.8037 37.5325C96.4594 39.0067 95.091 40.1912 90.7115 38.397C88.2903 37.4051 89.0219 36.9501 89.0219 36.9501C89.0219 36.9501 91.9656 33.9836 92.6971 35.4578Z" fill="url(#paint13_linear_2642_40588)"/>
<path d="M113.616 44.3699L109.055 45.1418L109.352 46.2563L113.914 45.4844L113.616 44.3699Z" fill="#FE8C01"/>
<path d="M117.769 48.1383L114.185 48.7448L114.718 50.7393L118.302 50.1328L117.769 48.1383Z" fill="#7FD04F"/>
<path d="M123.117 44.4435L121.593 44.7013L122.066 44.0937L123.59 43.8359L123.117 44.4435Z" fill="#3497FD"/>
<path d="M124.814 51.4517L121.555 52.003L122.204 54.4342L125.463 53.8828L124.814 51.4517Z" fill="#3497FD"/>
<path d="M132.947 41.6831C132.947 41.6831 123.112 43.1129 126.258 44.6903C129.404 46.2677 129.197 41.0285 121.114 43.9198" stroke="#FEC456" stroke-width="3.3389" stroke-linecap="round"/>
<path d="M130.972 40.5058L123.152 41.8291L122.693 40.1123L130.514 38.7891L130.972 40.5058Z" fill="#BD75EE"/>
<path d="M128.541 35.351L124.142 36.0953L124.238 36.4553L128.637 35.7109L128.541 35.351Z" fill="url(#paint14_linear_2642_40588)"/>
<path d="M134.35 49.4079C132.215 50.023 130.99 51.1734 131.884 52.2916C129.388 51.5532 127.5 51.3978 129.788 49.4906C131.054 48.4362 131.797 48.5643 131.797 48.5643C131.797 48.5643 136.484 48.7928 134.35 49.4079Z" fill="url(#paint15_linear_2642_40588)"/>
<path d="M129.451 42.226L134.07 41.7093L133.821 40.3036L129.203 40.8203L129.451 42.226Z" fill="#FE8C01"/>
<path d="M121.645 38.9039L125.274 38.4979L125.321 38.7659L121.692 39.1719L121.645 38.9039Z" fill="#7FD04F"/>
<path d="M119.982 39.3939L125.507 38.7757L125.584 39.2099L120.059 39.8281L119.982 39.3939Z" fill="#3497FD"/>
<path d="M117.472 39.788L120.771 39.4189L121.09 41.2247L117.791 41.5938L117.472 39.788Z" fill="#3497FD"/>
<path d="M109.839 40.7011C109.839 40.7011 119.768 39.7776 116.837 38.42C113.906 37.0624 113.481 41.3237 121.847 39.1704" stroke="#FEC456" stroke-width="3.00281" stroke-linecap="round"/>
<path d="M112.319 41.7075L120.236 40.8218L120.103 40.0674L112.186 40.9531L112.319 41.7075Z" fill="#BD75EE"/>
<path d="M111.272 44.2244L115.726 43.7261L115.197 40.7283L110.743 41.2266L111.272 44.2244Z" fill="url(#paint16_linear_2642_40588)"/>
<path d="M113.245 42.3745L118.598 46.8031L121.067 43.9299L115.788 39.9036L113.245 42.3745Z" fill="url(#paint17_linear_2642_40588)"/>
<path d="M118.898 40.641L117.064 40.9513L117.31 39.2557L119.145 38.9453L118.898 40.641Z" fill="#FE8C01"/>
<path d="M114.992 48.0986L112.245 48.5633L111.691 46.4882L114.438 46.0234L114.992 48.0986Z" fill="#7FD04F"/>
<path d="M111.846 46.1196L115.317 45.5322L115.127 44.8189L111.655 45.4063L111.846 46.1196Z" fill="#3497FD"/>
<path d="M126.414 44.5861L124.381 44.9301L123.689 42.3362L125.722 41.9922L126.414 44.5861Z" fill="#3497FD"/>
<path d="M128.673 43.3063C128.673 43.3063 130.243 43.3117 129.22 41.045C128.196 38.7782 129.579 44.6441 130.43 42.7379" stroke="#FEC456" stroke-width="1.40699" stroke-linecap="round"/>
<path d="M127.957 41.8056L135.639 40.5057L135.171 38.7549L127.489 40.0547L127.957 41.8056Z" fill="#BD75EE"/>
<path d="M107.544 32.9595L109.05 32.7046L108.254 29.7216L106.747 29.9766L107.544 32.9595Z" fill="url(#paint18_linear_2642_40588)"/>
<path d="M128.141 38.5588L123.899 34.6678L119.315 36.8093C119.315 36.8093 123.866 40.6208 124.595 40.264C125.641 39.7522 128.141 38.5588 128.141 38.5588Z" fill="url(#paint19_linear_2642_40588)"/>
<path d="M125.547 38.2348L129.464 37.7965L129.119 39.3117L125.201 39.75L125.547 38.2348Z" fill="#FE8C01"/>
<path d="M121.995 38.0711L125.539 37.6746L125.909 39.7755L122.366 40.1719L121.995 38.0711Z" fill="#7FD04F"/>
<path d="M120.137 38.7857L124.681 38.2773L124.809 38.9994L120.265 39.5078L120.137 38.7857Z" fill="#3497FD"/>
<path d="M118.657 34.4599L121.62 34.1284L122.084 36.7544L119.12 37.0859L118.657 34.4599Z" fill="#3497FD"/>
<path d="M112.188 36.9736C112.188 36.9736 118.491 36.0006 117.215 38.5535C115.939 41.1063 114.156 35.2806 119.959 36.3719" stroke="#FEC456" stroke-width="2.87609" stroke-linecap="round"/>
<path d="M109.032 38.0087L116.782 37.1416L117.095 38.9142L109.345 39.7813L109.032 38.0087Z" fill="#BD75EE"/>
<path d="M112.044 46.8394L115.303 46.4748L115.837 49.4947L112.577 49.8594L112.044 46.8394Z" fill="url(#paint20_linear_2642_40588)"/>
<path d="M108.397 53.8004C107.007 54.4244 106.328 56.241 107.115 58.4962C105.274 56.5598 103.941 55.8324 105.245 52.881C105.966 51.2494 106.5 51.6582 106.5 51.6582C106.5 51.6582 109.786 53.1763 108.397 53.8004Z" fill="url(#paint21_linear_2642_40588)"/>
<path d="M95.5264 34.0699L107.188 25.9997L110.081 28.6486L98.419 36.7188L95.5264 34.0699Z" fill="#BD75EE"/>
<path d="M103.648 33.0262L108.519 29.6556L113.447 34.1685L108.576 37.5391L103.648 33.0262Z" fill="url(#paint22_linear_2642_40588)"/>
<path d="M104.402 35.4531C102.969 37.651 104.298 41.2092 108.614 44.2511C103.002 42.6229 99.8444 42.5525 98.0129 36.602C97.0003 33.3124 98.4242 33.5328 98.4242 33.5328C98.4242 33.5328 105.836 33.2552 104.402 35.4531Z" fill="url(#paint23_linear_2642_40588)"/>
<path d="M97.0679 46.7759C78.2089 27.9169 74.7666 13.9219 74.7666 13.9219L35.9036 106.382C35.1322 108.217 36.9665 110.068 38.8087 109.313L131.982 71.1377C131.982 71.1377 115.927 65.6348 97.0679 46.7759Z" fill="url(#paint24_linear_2642_40588)"/>
<g style="mix-blend-mode:screen" opacity="0.2">
<path d="M74.3999 14.7817C74.5958 14.7654 74.8029 14.762 75.0211 14.7719C76.0912 18.0808 80.9454 30.6485 97.0666 46.7697C112.74 62.4431 126.478 68.8889 130.672 70.6201C130.675 71.0318 130.629 71.4004 130.532 71.7251L126.854 73.2313C120.691 72.1524 107.982 63.1352 95.1435 50.2968C82.9124 38.0657 74.1513 25.9517 72.4168 19.5037L74.3999 14.7817Z" fill="url(#paint25_linear_2642_40588)"/>
</g>
<defs>
<linearGradient id="paint0_linear_2642_40588" x1="103.622" y1="33.6088" x2="103.622" y2="51.3299" gradientUnits="userSpaceOnUse">
<stop stop-color="#5460D0"/>
<stop offset="1" stop-color="#050E5E"/>
</linearGradient>
<linearGradient id="paint1_linear_2642_40588" x1="120.941" y1="27.614" x2="119.676" y2="26.0251" gradientUnits="userSpaceOnUse">
<stop stop-color="#F72E67"/>
<stop offset="0.5" stop-color="#F75851"/>
<stop offset="1" stop-color="#F8833B"/>
</linearGradient>
<linearGradient id="paint2_linear_2642_40588" x1="101.156" y1="62.1516" x2="96.3622" y2="56.1296" gradientUnits="userSpaceOnUse">
<stop stop-color="#5861AB"/>
<stop offset="0.5" stop-color="#7D449F"/>
<stop offset="1" stop-color="#A32693"/>
</linearGradient>
<linearGradient id="paint3_linear_2642_40588" x1="103.973" y1="29.4309" x2="113.333" y2="42.9578" gradientUnits="userSpaceOnUse">
<stop stop-color="#F72E67"/>
<stop offset="0.5" stop-color="#F75851"/>
<stop offset="1" stop-color="#F8833B"/>
</linearGradient>
<linearGradient id="paint4_linear_2642_40588" x1="153.55" y1="14.3885" x2="146.046" y2="3.54478" gradientUnits="userSpaceOnUse">
<stop stop-color="#5861AB"/>
<stop offset="0.5" stop-color="#7D449F"/>
<stop offset="1" stop-color="#A32693"/>
</linearGradient>
<linearGradient id="paint5_linear_2642_40588" x1="114.482" y1="20.8772" x2="124.962" y2="34.0429" gradientUnits="userSpaceOnUse">
<stop stop-color="#F72E67"/>
<stop offset="0.5" stop-color="#F75851"/>
<stop offset="1" stop-color="#F8833B"/>
</linearGradient>
<linearGradient id="paint6_linear_2642_40588" x1="95.1343" y1="16.7538" x2="93.6664" y2="16.8828" gradientUnits="userSpaceOnUse">
<stop stop-color="#F72E67"/>
<stop offset="0.5" stop-color="#F75851"/>
<stop offset="1" stop-color="#F8833B"/>
</linearGradient>
<linearGradient id="paint7_linear_2642_40588" x1="108.508" y1="39.6238" x2="102.944" y2="40.1126" gradientUnits="userSpaceOnUse">
<stop stop-color="#5861AB"/>
<stop offset="0.5" stop-color="#7D449F"/>
<stop offset="1" stop-color="#A32693"/>
</linearGradient>
<linearGradient id="paint8_linear_2642_40588" x1="88.5234" y1="27.2694" x2="100.661" y2="27.2694" gradientUnits="userSpaceOnUse">
<stop stop-color="#F72E67"/>
<stop offset="0.5" stop-color="#F75851"/>
<stop offset="1" stop-color="#F8833B"/>
</linearGradient>
<linearGradient id="paint9_linear_2642_40588" x1="100.947" y1="2.32846" x2="91.2166" y2="2.32846" gradientUnits="userSpaceOnUse">
<stop stop-color="#5861AB"/>
<stop offset="0.5" stop-color="#7D449F"/>
<stop offset="1" stop-color="#A32693"/>
</linearGradient>
<linearGradient id="paint10_linear_2642_40588" x1="88.9202" y1="15.2974" x2="101.084" y2="14.229" gradientUnits="userSpaceOnUse">
<stop stop-color="#F72E67"/>
<stop offset="0.5" stop-color="#F75851"/>
<stop offset="1" stop-color="#F8833B"/>
</linearGradient>
<linearGradient id="paint11_linear_2642_40588" x1="88.0375" y1="39.9213" x2="98.4334" y2="39.0081" gradientUnits="userSpaceOnUse">
<stop stop-color="#AB5858"/>
<stop offset="0.5" stop-color="#A73F76"/>
<stop offset="1" stop-color="#A32693"/>
</linearGradient>
<linearGradient id="paint12_linear_2642_40588" x1="97.5317" y1="29.0356" x2="85.3042" y2="29.0356" gradientUnits="userSpaceOnUse">
<stop stop-color="#F72E67"/>
<stop offset="0.5" stop-color="#F75851"/>
<stop offset="1" stop-color="#F8833B"/>
</linearGradient>
<linearGradient id="paint13_linear_2642_40588" x1="100.222" y1="52.7656" x2="89.7709" y2="52.7656" gradientUnits="userSpaceOnUse">
<stop stop-color="#5861AB"/>
<stop offset="0.5" stop-color="#7D449F"/>
<stop offset="1" stop-color="#A32693"/>
</linearGradient>
<linearGradient id="paint14_linear_2642_40588" x1="126.492" y1="36.2866" x2="126.334" y2="35.3562" gradientUnits="userSpaceOnUse">
<stop stop-color="#F72E67"/>
<stop offset="0.5" stop-color="#F75851"/>
<stop offset="1" stop-color="#F8833B"/>
</linearGradient>
<linearGradient id="paint15_linear_2642_40588" x1="109.194" y1="56.2761" x2="108.597" y2="52.7498" gradientUnits="userSpaceOnUse">
<stop stop-color="#5861AB"/>
<stop offset="0.5" stop-color="#7D449F"/>
<stop offset="1" stop-color="#A32693"/>
</linearGradient>
<linearGradient id="paint16_linear_2642_40588" x1="112.671" y1="39.283" x2="113.53" y2="46.9623" gradientUnits="userSpaceOnUse">
<stop stop-color="#F72E67"/>
<stop offset="0.5" stop-color="#F75851"/>
<stop offset="1" stop-color="#F8833B"/>
</linearGradient>
<linearGradient id="paint17_linear_2642_40588" x1="141.651" y1="44.4734" x2="140.962" y2="38.3173" gradientUnits="userSpaceOnUse">
<stop stop-color="#5861AB"/>
<stop offset="0.5" stop-color="#7D449F"/>
<stop offset="1" stop-color="#A32693"/>
</linearGradient>
<linearGradient id="paint18_linear_2642_40588" x1="107.05" y1="28.1631" x2="108.355" y2="35.8723" gradientUnits="userSpaceOnUse">
<stop stop-color="#F72E67"/>
<stop offset="0.5" stop-color="#F75851"/>
<stop offset="1" stop-color="#F8833B"/>
</linearGradient>
<linearGradient id="paint19_linear_2642_40588" x1="101.295" y1="38.2215" x2="102.41" y2="44.8104" gradientUnits="userSpaceOnUse">
<stop stop-color="#5861AB"/>
<stop offset="0.5" stop-color="#7D449F"/>
<stop offset="1" stop-color="#A32693"/>
</linearGradient>
<linearGradient id="paint20_linear_2642_40588" x1="114.508" y1="51.384" x2="113.643" y2="43.6479" gradientUnits="userSpaceOnUse">
<stop stop-color="#F72E67"/>
<stop offset="0.5" stop-color="#F75851"/>
<stop offset="1" stop-color="#F8833B"/>
</linearGradient>
<linearGradient id="paint21_linear_2642_40588" x1="91.9665" y1="60.4588" x2="91.2268" y2="53.8468" gradientUnits="userSpaceOnUse">
<stop stop-color="#5861AB"/>
<stop offset="0.5" stop-color="#7D449F"/>
<stop offset="1" stop-color="#A32693"/>
</linearGradient>
<linearGradient id="paint22_linear_2642_40588" x1="113.797" y1="38.4045" x2="104.367" y2="24.7777" gradientUnits="userSpaceOnUse">
<stop stop-color="#F72E67"/>
<stop offset="0.5" stop-color="#F75851"/>
<stop offset="1" stop-color="#F8833B"/>
</linearGradient>
<linearGradient id="paint23_linear_2642_40588" x1="86.477" y1="60.2588" x2="78.4174" y2="48.612" gradientUnits="userSpaceOnUse">
<stop stop-color="#5861AB"/>
<stop offset="0.5" stop-color="#7D449F"/>
<stop offset="1" stop-color="#A32693"/>
</linearGradient>
<linearGradient id="paint24_linear_2642_40588" x1="64.3109" y1="49.9359" x2="94.2258" y2="80.1412" gradientUnits="userSpaceOnUse">
<stop stop-color="#0C1CAE"/>
<stop offset="0.472975" stop-color="#626ED7"/>
<stop offset="1" stop-color="#0C1CAF"/>
</linearGradient>
<linearGradient id="paint25_linear_2642_40588" x1="84.0999" y1="31.704" x2="127.497" y2="71.3993" gradientUnits="userSpaceOnUse">
<stop stop-color="white"/>
<stop offset="1" stop-color="#C7C7C7"/>
</linearGradient>
</defs>
</svg>
