<svg width="178" height="189" viewBox="0 0 178 189" fill="none" xmlns="http://www.w3.org/2000/svg">
<path fill-rule="evenodd" clip-rule="evenodd" d="M87.9927 151.355C87.9927 151.355 92.6771 140.519 95.5814 130.027C98.2288 120.46 99.1189 111.668 93.1363 109.733C85.6243 107.303 82.5529 120.87 80.4761 127.597C78.9819 132.439 76.8034 142.831 76.081 148.347C74.9283 157.147 86.0335 158.789 87.9927 151.355Z" fill="#FFC999"/>
<path fill-rule="evenodd" clip-rule="evenodd" d="M79.6388 130.312C81.715 123.585 83.8106 106.715 93.168 109.633C99.7695 111.691 98.6169 120.917 94.5122 133.491L79.6388 130.312Z" fill="white"/>
<path fill-rule="evenodd" clip-rule="evenodd" d="M110.123 243.56C112.044 219.236 108.523 199.073 108.523 199.073C108.523 199.073 100.521 180.189 91.24 193.311C86.7448 199.667 88.0396 215.876 92.2005 242.76C92.2005 242.76 93.0002 255.402 102.282 254.762C110.051 254.226 110.123 243.56 110.123 243.56Z" fill="#FFC999"/>
<path fill-rule="evenodd" clip-rule="evenodd" d="M111.079 226.949C101.162 230.751 89.7235 227.536 89.7235 227.536C88.9994 220.189 87.7194 211.228 87.7194 185.304C100.176 176.061 110.144 192.566 110.144 192.566L111.079 226.949Z" fill="#598FFA"/>
<path fill-rule="evenodd" clip-rule="evenodd" d="M98.741 107.181C98.741 107.181 100.249 114.785 108.638 115.063C118.376 115.387 120.012 107.625 120.012 107.625L117.703 106.799C117.225 106.628 116.897 106.188 116.876 105.681C116.799 103.87 116.636 99.2539 116.642 93.173C108.369 90.1476 102.523 92.4665 102.523 92.4665C102.523 92.4665 102.433 99.683 102.272 104.999C102.256 105.515 101.926 105.968 101.44 106.139C100.6 106.434 99.3253 106.895 98.741 107.181Z" fill="#FFC999"/>
<path fill-rule="evenodd" clip-rule="evenodd" d="M120.096 88.197C120.096 88.197 121.711 76.5803 112.944 75.4152C102.354 74.0073 101.27 79.9689 100.342 82.7146C99.3566 85.6314 97.4305 98.1007 103.591 101.33C106.225 102.506 107.861 103.179 112.755 100.9C119.877 97.584 120.096 88.197 120.096 88.197Z" fill="#FFC999"/>
<path fill-rule="evenodd" clip-rule="evenodd" d="M116.763 96.6291L117.453 90.1026C117.453 90.1026 122.794 87.4216 123.096 90.8005C123.403 94.2459 120.869 96.3994 118.657 97.0235C117.236 97.4248 116.763 96.6291 116.763 96.6291Z" fill="#FFC999"/>
<path fill-rule="evenodd" clip-rule="evenodd" d="M117.569 73.8134C117.569 73.8134 112.395 69.6473 109.804 69.919C107.213 70.1907 109.074 72.3214 109.074 72.3214C109.074 72.3214 102.097 70.5788 101.33 72.1219C100.563 73.6656 103.054 74.6165 103.054 74.6165C103.054 74.6165 95.9833 76.0232 95.4956 78.071C95.0091 80.1188 98.2908 79.9034 98.2908 79.9034C98.2908 79.9034 95.6042 82.6821 96.2589 84.5014C96.9143 86.3207 98.5261 86.2371 98.5261 86.2371L99.4588 88.6675L100.226 83.7529C100.226 83.7529 102.792 82.8634 107.545 81.0009C104.548 83.6477 106.266 83.7858 108.628 83.4971C111.396 83.1589 114.654 82.4593 114.499 82.3678C114.499 82.3678 114.323 85.5909 116.353 87.2278C118.842 89.2341 116.673 92.7932 117.351 93.0086C118.654 93.4354 118.761 89.8047 121.365 89.3734C123.371 89.3756 123.889 86.9561 123.398 86.0865C126.059 85.928 126.173 83.2078 122.96 80.5922C125.943 80.4325 124.329 77.5725 120.033 76.1005C121.783 71.3456 117.569 73.8134 117.569 73.8134Z" fill="#1C64F2"/>
<path d="M113.141 86.3791C111.852 86.0991 110.545 85.9594 109.32 86.0367C109.182 86.0455 109.045 86.0571 108.91 86.0715C108.778 86.0856 108.682 86.2041 108.696 86.3361C108.711 86.4682 108.829 86.5637 108.961 86.5496C109.089 86.5359 109.219 86.5249 109.351 86.5166C110.525 86.4425 111.79 86.5777 113.039 86.8489C113.335 86.9132 113.612 86.9813 113.864 87.0499L114.012 87.0911C114.186 87.1403 114.308 87.1783 114.371 87.1995C114.497 87.2417 114.633 87.1738 114.675 87.0479C114.718 86.922 114.65 86.7858 114.524 86.7436L114.423 86.7113L114.22 86.6505L114.143 86.6285C113.843 86.5434 113.507 86.4584 113.141 86.3791Z" fill="#1C64F2"/>
<path d="M104.79 85.5885C103.661 85.2037 102.397 85.1274 101.09 85.5543C100.964 85.5955 100.895 85.7312 100.936 85.8574C100.977 85.9837 101.113 86.0526 101.239 86.0114C102.438 85.6201 103.598 85.6901 104.634 86.0436C104.822 86.1075 104.989 86.1758 105.132 86.2438L105.22 86.2867C105.257 86.3055 105.284 86.3201 105.3 86.3295C105.414 86.3967 105.562 86.3583 105.629 86.2438C105.696 86.1293 105.658 85.982 105.543 85.9148C105.505 85.8922 105.435 85.8554 105.338 85.8092C105.178 85.7337 104.995 85.6585 104.79 85.5885Z" fill="#1C64F2"/>
<path d="M105.584 86.3597L105.55 86.3644C105.448 86.387 105.379 86.4805 105.385 86.5818L105.39 86.6158L105.695 87.9943L104.974 92.8973C104.96 92.9886 105.008 93.0766 105.088 93.1166L105.12 93.1293L107.008 93.7159C107.12 93.7504 107.238 93.6883 107.272 93.577C107.303 93.4769 107.256 93.3712 107.165 93.3259L107.134 93.3131L105.417 92.7799L106.117 88.0173L106.115 87.9411L105.801 86.5248C105.779 86.4224 105.685 86.354 105.584 86.3597Z" fill="#DD936F"/>
<path d="M112.766 89.5741C111.956 89.0851 110.98 89.0151 109.918 89.6255C109.782 89.7037 109.735 89.8774 109.813 90.0135C109.891 90.1496 110.065 90.1965 110.201 90.1183C111.072 89.618 111.829 89.6724 112.473 90.0608C112.582 90.1266 112.677 90.1969 112.758 90.2667L112.806 90.3092C112.826 90.3276 112.839 90.3413 112.847 90.3492C112.952 90.4652 113.132 90.4736 113.248 90.3678C113.364 90.2621 113.372 90.0824 113.267 89.9664C113.172 89.8624 113.004 89.7173 112.766 89.5741Z" fill="#1C64F2"/>
<path d="M103.882 88.6915C103.298 88.3798 102.688 88.2587 102.1 88.4535C101.875 88.5281 101.663 88.6481 101.466 88.8155C101.346 88.9171 101.332 89.0965 101.434 89.216C101.535 89.3356 101.715 89.3502 101.834 89.2485C101.976 89.1282 102.124 89.0444 102.279 88.993C102.693 88.8559 103.155 88.9476 103.615 89.193C103.688 89.2323 103.758 89.2735 103.822 89.3153L103.915 89.3782C103.967 89.415 104.003 89.4425 104.019 89.456C104.139 89.5573 104.318 89.5421 104.419 89.4222C104.52 89.3022 104.505 89.1229 104.385 89.0217C104.283 88.9356 104.11 88.8132 103.882 88.6915Z" fill="#1C64F2"/>
<path fill-rule="evenodd" clip-rule="evenodd" d="M109.976 94.8364C109.976 94.8364 106.912 95.2832 104.075 94.625C104.075 94.625 104.709 96.425 106.734 96.5711C109.29 96.7558 109.976 94.8364 109.976 94.8364Z" fill="white"/>
<path d="M104.129 94.3893C104.318 94.433 104.511 94.4725 104.707 94.5079C106.201 94.7765 107.796 94.7966 109.271 94.6694L109.583 94.6397C109.648 94.6329 109.709 94.6261 109.767 94.6193L109.941 94.597C110.12 94.5708 110.263 94.745 110.202 94.9157C110.113 95.1654 109.907 95.5233 109.548 95.8792C108.884 96.5373 107.949 96.8984 106.717 96.8093C105.799 96.7431 105.072 96.3595 104.522 95.7643C104.31 95.5349 104.14 95.2895 104.006 95.0437C103.925 94.8944 103.874 94.7759 103.848 94.7034C103.785 94.5244 103.944 94.3464 104.129 94.3893ZM104.514 94.9606L104.555 95.0264C104.647 95.1671 104.753 95.3058 104.875 95.4381C105.346 95.9477 105.962 96.2728 106.751 96.3297C107.843 96.4086 108.643 96.0997 109.21 95.5377L109.295 95.4492C109.377 95.3598 109.451 95.2677 109.516 95.1748L109.548 95.1266L109.313 95.1485C107.799 95.279 106.164 95.2584 104.622 94.9812L104.514 94.9606Z" fill="#FF7A46"/>
<path d="M102.832 100.728C102.755 100.64 102.621 100.632 102.534 100.709C102.447 100.786 102.438 100.919 102.515 101.007L102.569 101.064C102.632 101.13 102.726 101.218 102.848 101.322C103.117 101.552 103.439 101.781 103.813 101.994C105.713 103.077 108.143 103.357 111.083 102.351C111.193 102.313 111.252 102.193 111.214 102.083C111.176 101.973 111.057 101.914 110.946 101.952C108.124 102.918 105.82 102.652 104.022 101.627C103.672 101.428 103.371 101.214 103.122 101.002C102.974 100.876 102.877 100.779 102.832 100.728Z" fill="#DD936F"/>
<path d="M106.188 97.7972C106.072 97.7912 105.973 97.8807 105.967 97.997C105.962 98.1017 106.034 98.1924 106.133 98.2138L106.167 98.2183L107.609 98.2916C107.726 98.2976 107.825 98.2081 107.831 98.0918C107.836 97.9871 107.764 97.8964 107.665 97.875L107.631 97.8705L106.188 97.7972Z" fill="#DD936F"/>
<path d="M121.736 90.8046C121.165 90.5043 120.476 90.6873 119.798 91.6247L119.689 91.7774C119.191 92.4818 119.136 92.7111 119.536 92.8282L119.682 92.8671C119.73 92.8806 119.745 92.8879 119.777 92.906C119.861 92.9538 119.926 93.038 119.976 93.1943C120.182 93.8375 119.461 94.3054 118.562 94.2328C118.446 94.2234 118.345 94.3099 118.335 94.426C118.326 94.5421 118.412 94.6438 118.528 94.6531C119.679 94.7461 120.703 94.0813 120.378 93.0659C120.297 92.8114 120.164 92.6412 119.986 92.5396C119.924 92.5045 119.893 92.4894 119.829 92.4702L119.752 92.4492L119.757 92.4391C119.801 92.3609 119.874 92.2478 119.984 92.0906L120.139 91.872C120.698 91.1004 121.159 90.9778 121.539 91.1777C121.593 91.206 121.628 91.2327 121.642 91.2454C121.726 91.3259 121.859 91.323 121.94 91.2388C122.02 91.1546 122.017 91.0212 121.933 90.9407C121.893 90.9025 121.827 90.8527 121.736 90.8046Z" fill="#DD936F"/>
<path d="M116.859 96.4373C116.756 96.3842 116.629 96.4251 116.575 96.5287L116.51 96.6531L116.377 96.8966C116.361 96.9256 116.344 96.9551 116.327 96.9852C116.133 97.3289 115.924 97.6725 115.709 97.9925C115.47 98.3499 115.238 98.6548 115.021 98.89C114.845 99.0816 114.683 99.2217 114.541 99.3036C114.441 99.362 114.406 99.491 114.465 99.5918C114.523 99.6926 114.652 99.7269 114.753 99.6685C114.936 99.5622 115.129 99.3959 115.332 99.1757C115.565 98.9225 115.809 98.6013 116.06 98.2273C116.281 97.8976 116.495 97.5451 116.694 97.1928L116.793 97.0148L116.951 96.7212C117.004 96.6176 116.963 96.4905 116.859 96.4373Z" fill="#DD936F"/>
<path fill-rule="evenodd" clip-rule="evenodd" d="M92.1161 158.905C89.696 162.267 92.2496 165.385 92.2496 165.385C101.61 166.224 125.048 166.032 125.048 166.032C128.911 164.785 126.784 156.986 126.784 156.986C126.784 156.986 129.028 139.533 130.749 125.804C131.489 119.893 132.882 111.615 132.481 111.435C127.97 109.417 125.185 108.146 118.202 106.822C117.997 107.254 114.687 110.571 108.126 110.51C100.944 110.443 99.4695 107.188 99.2217 106.617C95.7212 107.497 93.0152 108.045 88.9196 109.458C87.6743 109.888 86.9281 111.166 87.1588 112.463L87.5271 117.722C87.5271 117.722 86.9701 130.302 92.1161 158.905Z" fill="white"/>
<path d="M118.417 109.909C118.352 109.811 118.22 109.783 118.122 109.847C112.919 113.236 107.478 113.426 102.474 111.714C101.891 111.514 101.362 111.302 100.894 111.089L100.721 111.009C100.578 110.942 100.45 110.879 100.338 110.82L100.256 110.778C100.177 110.737 100.125 110.708 100.1 110.693C99.9977 110.634 99.8673 110.668 99.8082 110.77C99.7492 110.872 99.7839 111.002 99.8857 111.061L99.9693 111.108L100.057 111.155C100.194 111.227 100.355 111.308 100.539 111.394C101.063 111.641 101.665 111.887 102.337 112.117C107.454 113.868 113.028 113.674 118.354 110.204C118.453 110.14 118.481 110.008 118.417 109.909Z" fill="#A3B5D6"/>
<path d="M87.7341 117.938C87.6164 117.936 87.5197 118.03 87.5181 118.148L87.5163 118.696C87.5177 119.504 87.5354 120.607 87.5793 121.985L87.6057 122.756C87.6868 124.968 87.8213 127.415 88.0199 130.077L88.0556 130.549C88.7116 139.103 89.9047 148.399 91.7626 158.188L91.8946 158.876L91.8533 158.969C90.4928 162.096 90.7654 164.016 92.1017 164.964L92.1683 165.01C92.4306 165.185 92.7106 165.306 92.9906 165.384C93.1601 165.43 93.2942 165.453 93.3923 165.46L97.6077 165.487L100.758 165.515C103.587 165.542 106.4 165.576 109.112 165.616L111.524 165.655C117.308 165.754 121.984 165.879 125.154 166.034C125.271 166.04 125.371 165.949 125.377 165.832C125.383 165.714 125.292 165.614 125.174 165.608L124.016 165.556C120.904 165.424 116.651 165.316 111.531 165.229L109.93 165.203C106.968 165.156 103.875 165.119 100.762 165.089L95.5845 165.046L93.5305 165.034L93.4104 165.034C93.3539 165.03 93.246 165.012 93.1043 164.973C92.8656 164.907 92.6269 164.803 92.4051 164.655C91.1851 163.84 90.927 162.086 92.3107 158.988C92.3286 158.949 92.3337 158.904 92.3254 158.861C90.388 148.812 89.1523 139.275 88.4806 130.517C88.2507 127.519 88.1014 124.789 88.018 122.353L88.0054 121.971C87.9551 120.392 87.9393 119.177 87.9429 118.354L87.9444 118.154C87.9459 118.036 87.8518 117.939 87.7341 117.938Z" fill="#A3B5D6"/>
<path fill-rule="evenodd" clip-rule="evenodd" d="M131.146 192.385L111.612 199.961C111.612 199.961 106.652 201.301 103 199.751C97.6933 197.499 91.7494 193.843 87.6819 189.736C87.6396 176.292 92.0211 168.719 92.0211 168.719L125.621 169.406C125.621 169.406 131.875 174.888 131.146 192.385Z" fill="#598FFA"/>
<path fill-rule="evenodd" clip-rule="evenodd" d="M91.702 169.03L92.151 164.883L125.446 165.452L125.827 169.416C125.827 169.416 95.0962 169.153 91.702 169.03Z" fill="#598FFA"/>
<path d="M109.905 169.556C109.788 169.543 109.683 169.627 109.669 169.744L109.466 171.581L109.417 172.029C109.266 173.422 109.115 174.853 108.97 176.271L108.817 177.795L108.616 179.867C108.312 183.077 108.118 185.556 108.068 187.043C108.024 188.336 107.122 189.352 105.624 190.12C105.077 190.4 104.488 190.626 103.899 190.802L103.659 190.871C103.582 190.892 103.507 190.912 103.436 190.93L103.201 190.985C103.165 190.993 103.138 190.999 103.12 191.002C103.004 191.024 102.928 191.136 102.95 191.252C102.973 191.367 103.084 191.443 103.2 191.421L103.331 191.393C103.36 191.386 103.393 191.379 103.429 191.37C103.608 191.328 103.807 191.275 104.021 191.211C104.633 191.028 105.246 190.793 105.819 190.499C107.44 189.668 108.444 188.537 108.494 187.058L108.513 186.597C108.588 184.969 108.797 182.419 109.108 179.192L109.241 177.837L109.287 177.374C109.428 175.966 109.577 174.534 109.728 173.125L110.093 169.792C110.106 169.675 110.022 169.569 109.905 169.556Z" fill="#4E5C93"/>
<path d="M91.4888 169.03C91.487 169.148 91.5808 169.245 91.6985 169.247L105.01 169.458L122.206 169.708C123.457 169.725 124.59 169.739 125.596 169.751C125.714 169.752 125.81 169.658 125.812 169.54C125.813 169.422 125.719 169.326 125.601 169.324L115.347 169.187L107.67 169.072L91.7055 168.82C91.5878 168.818 91.4908 168.912 91.4888 169.03Z" fill="#4E5C93"/>
<path d="M121.135 170.212C121.018 170.226 120.934 170.331 120.947 170.448L120.961 170.556C120.97 170.62 120.98 170.691 120.992 170.77L121.005 170.852C121.055 171.169 121.121 171.522 121.203 171.903C121.439 172.99 121.762 174.077 122.187 175.094C123.142 177.374 124.467 178.97 126.235 179.564C126.346 179.602 126.467 179.542 126.505 179.43C126.542 179.319 126.482 179.198 126.371 179.16C124.742 178.613 123.492 177.107 122.581 174.929C122.166 173.939 121.85 172.876 121.62 171.812C121.553 171.502 121.497 171.21 121.452 170.943L121.406 170.656C121.388 170.538 121.377 170.451 121.371 170.399C121.359 170.294 121.272 170.216 121.169 170.211L121.135 170.212Z" fill="#4E5C93"/>
<path d="M123.716 170.03C123.615 170.09 123.581 170.22 123.641 170.322L123.701 170.427C123.751 170.517 123.809 170.627 123.874 170.756C124.062 171.125 124.272 171.572 124.499 172.098C125.147 173.605 125.796 175.442 126.402 177.619C127.387 181.153 128.159 185.232 128.639 189.872C128.652 189.99 128.756 190.075 128.873 190.063C128.99 190.05 129.076 189.946 129.063 189.829C128.581 185.164 127.804 181.062 126.813 177.505C126.202 175.309 125.546 173.454 124.89 171.93C124.686 171.454 124.494 171.042 124.319 170.691L124.254 170.562C124.2 170.456 124.151 170.362 124.106 170.28L124.008 170.105C123.948 170.003 123.818 169.97 123.716 170.03Z" fill="#4E5C93"/>
<path d="M93.9464 169.011C93.8305 168.991 93.72 169.068 93.6995 169.184L93.6631 169.375C93.6529 169.427 93.641 169.486 93.6272 169.552L93.5613 169.858C93.5144 170.069 93.4614 170.293 93.4023 170.53C93.1491 171.541 92.8363 172.553 92.4612 173.495C91.5724 175.729 90.4802 177.214 89.2051 177.609C89.0927 177.644 89.0298 177.763 89.0646 177.876C89.0994 177.988 89.2188 178.051 89.3312 178.016C90.7665 177.572 91.9245 175.997 92.8573 173.653C93.2401 172.691 93.5584 171.662 93.8159 170.633C93.8909 170.333 93.9563 170.051 94.0121 169.791L94.075 169.489L94.1193 169.258C94.1398 169.142 94.0624 169.032 93.9464 169.011Z" fill="#4E5C93"/>
<path fill-rule="evenodd" clip-rule="evenodd" d="M108.759 167.086C108.746 167.498 108.32 167.817 107.809 167.799C107.297 167.78 106.894 167.431 106.908 167.019C106.922 166.606 107.348 166.287 107.859 166.305C108.37 166.324 108.773 166.674 108.759 167.086Z" fill="#4E5C93"/>
<path fill-rule="evenodd" clip-rule="evenodd" d="M57.4473 159.186L95.3085 159.542C96.7482 159.555 97.7889 158.171 97.3768 156.791L89.3942 130.107C89.1254 129.209 88.3035 128.591 87.3669 128.583L49.505 128.227C48.0659 128.213 47.0247 129.598 47.4373 130.977L55.4199 157.661C55.6882 158.558 56.5106 159.177 57.4473 159.186Z" fill="#A3B5D6"/>
<path fill-rule="evenodd" clip-rule="evenodd" d="M55.8471 159.186L93.7083 159.542C95.148 159.555 96.1886 158.171 95.7766 156.791L87.794 130.107C87.5251 129.209 86.7033 128.591 85.7666 128.583L47.9048 128.227C46.4652 128.213 45.4245 129.598 45.8371 130.977L53.8197 157.661C54.088 158.558 54.9104 159.177 55.8471 159.186Z" fill="#1C64F2"/>
<path fill-rule="evenodd" clip-rule="evenodd" d="M54.278 147.515C54.278 147.515 49.3998 145.441 48.2568 146.026C46.4858 146.933 49.1258 150.026 49.1258 150.026C49.1258 150.026 47.9522 151.677 49.6976 153.093C49.7203 155.115 51.0247 155.584 51.0247 155.584C51.0247 155.584 50.5166 157.324 52.4013 157.845C54.2865 158.366 57.4875 156.76 56.0968 154.645C56.9322 152.847 55.3391 152.001 55.3391 152.001C55.3391 152.001 55.833 150.407 54.2649 149.622C55.022 148.695 54.785 147.737 54.278 147.515Z" fill="#FFC999"/>
<path d="M49.9683 148.737C49.8532 148.719 49.7453 148.797 49.7272 148.912C49.7109 149.016 49.7729 149.114 49.8694 149.146L49.9027 149.154L54.2319 149.834C54.347 149.853 54.4549 149.774 54.473 149.659C54.4893 149.555 54.4272 149.458 54.3308 149.426L54.2974 149.418L49.9683 148.737Z" fill="#DD936F"/>
<path d="M55.3188 151.797L51.5398 152.161C51.4239 152.172 51.3389 152.275 51.3501 152.391C51.3601 152.496 51.4446 152.575 51.5459 152.581L51.5802 152.581L55.3592 152.217C55.4751 152.206 55.5601 152.103 55.5489 151.987C55.5389 151.883 55.4544 151.804 55.3531 151.797L55.3188 151.797Z" fill="#DD936F"/>
<path d="M56.057 154.441L52.5423 155.121C52.428 155.143 52.3532 155.254 52.3753 155.368C52.3952 155.471 52.4868 155.542 52.5883 155.539L52.6224 155.535L56.1371 154.855C56.2514 154.833 56.3262 154.723 56.3041 154.608C56.2842 154.505 56.1926 154.435 56.0911 154.438L56.057 154.441Z" fill="#DD936F"/>
<path fill-rule="evenodd" clip-rule="evenodd" d="M147.463 148.963C147.463 148.963 145.345 137.349 141.937 127.01C138.829 117.583 134.69 109.776 128.639 111.487C121.042 113.635 126.018 126.624 128.024 133.374C129.469 138.23 133.426 148.083 135.886 153.073C139.811 161.033 149.96 156.234 147.463 148.963Z" fill="#FFC999"/>
<path fill-rule="evenodd" clip-rule="evenodd" d="M128.834 136.096C126.827 129.347 119.206 114.152 128.609 111.385C135.243 109.433 139.405 117.747 142.97 130.484L128.834 136.096Z" fill="white"/>
<path fill-rule="evenodd" clip-rule="evenodd" d="M102.212 161.46C102.212 161.46 132.519 162.036 143.113 158.677C149.036 156.8 149.903 148.329 142.772 146.519C136.919 145.032 101.299 153.511 101.299 153.511C101.299 153.511 97.7836 153.754 98.0996 157.906C98.427 162.214 102.212 161.46 102.212 161.46Z" fill="#FFC999"/>
<path fill-rule="evenodd" clip-rule="evenodd" d="M92.8576 162.511C92.8576 162.511 100.968 162.839 102.744 159.465C104.353 156.408 100.732 153.827 100.732 153.827C100.732 153.827 97.6705 152.131 93.8784 151.202C91.3935 150.593 86.8427 148.731 86.189 149.919C85.3376 151.469 90.3011 152.613 90.5097 153.882C90.9331 156.454 82.934 155.476 81.5518 156.013C78.8504 157.065 83.1267 162.192 92.8576 162.511Z" fill="#FFC999"/>
<path d="M81.682 157.18C81.5703 157.148 81.4531 157.212 81.4203 157.323C81.3874 157.435 81.4514 157.552 81.5631 157.585C81.8371 157.666 82.1175 157.737 82.4038 157.799C84.3317 158.219 86.3819 158.219 88.3045 157.968C88.5288 157.939 88.7352 157.908 88.9219 157.876L89.0582 157.853C89.1914 157.829 89.2851 157.811 89.3351 157.8C89.4489 157.775 89.5211 157.663 89.4964 157.549C89.4716 157.435 89.3593 157.363 89.2455 157.388L89.0989 157.417C89.0652 157.423 89.0269 157.43 88.9843 157.438L88.712 157.483C88.5685 157.506 88.4142 157.528 88.2499 157.55C86.3714 157.795 84.3669 157.795 82.4935 157.387C82.2168 157.327 81.9462 157.258 81.682 157.18Z" fill="#DD936F"/>
<path d="M82.5811 158.996C82.4709 158.958 82.351 159.017 82.3133 159.127C82.2755 159.237 82.3343 159.357 82.4444 159.395L82.5119 159.417C82.5659 159.434 82.6379 159.455 82.7276 159.48L82.7981 159.499C83.0825 159.575 83.4157 159.651 83.7951 159.722C85.6235 160.063 87.7934 160.166 90.2353 159.885C90.351 159.872 90.434 159.767 90.4207 159.651C90.4074 159.536 90.3028 159.453 90.1871 159.466C87.7889 159.742 85.661 159.641 83.8726 159.307C83.5039 159.238 83.1814 159.165 82.9073 159.091L82.7275 159.041C82.6608 159.022 82.6118 159.006 82.5811 158.996Z" fill="#DD936F"/>
<path d="M85.9041 160.916C85.7887 160.9 85.6821 160.98 85.666 161.096C85.6498 161.211 85.7302 161.318 85.8455 161.334C88.0455 161.642 89.8182 161.679 91.14 161.555L91.3868 161.529L91.5269 161.511C91.5932 161.502 91.6386 161.495 91.6629 161.49C91.7774 161.469 91.8533 161.36 91.8323 161.245C91.8113 161.13 91.7014 161.055 91.5869 161.076L91.5026 161.089L91.469 161.094C91.3666 161.108 91.2438 161.122 91.1007 161.135C89.8112 161.256 88.0713 161.22 85.9041 160.916Z" fill="#DD936F"/>
<path d="M124.807 122.33C124.773 122.218 124.653 122.155 124.541 122.189C124.44 122.22 124.379 122.32 124.393 122.422L124.4 122.456L128.63 136.161C128.663 136.267 128.772 136.329 128.878 136.306L128.913 136.296L143.048 130.684C143.158 130.64 143.211 130.517 143.168 130.407C143.129 130.309 143.025 130.255 142.924 130.278L142.891 130.288L128.97 135.814L124.807 122.33Z" fill="#A3B5D6"/>
<path fill-rule="evenodd" clip-rule="evenodd" d="M120.871 240.031C125.639 218.758 125.46 221.304 126.737 203.691C126.737 203.691 118.373 182.752 107.321 201.557C105.318 204.965 104.599 213.174 101.488 235.25C101.488 235.25 100.612 247.759 106.68 249.458C118.682 252.82 120.871 240.031 120.871 240.031Z" fill="#FFC999"/>
<path fill-rule="evenodd" clip-rule="evenodd" d="M130.876 192.523C130.876 192.523 117.562 184.704 105.677 196.302C104.281 209.64 101.831 226.613 101.831 226.613C101.831 226.613 112.041 232.509 123.913 230.586C130.024 198.744 130.876 192.523 130.876 192.523Z" fill="#598FFA"/>
<path d="M104.997 165.072C104.892 165.06 104.796 165.127 104.768 165.226L104.762 165.26L104.281 169.604L104.138 170.997L104.005 172.363C103.917 173.294 103.83 174.263 103.746 175.257L103.704 175.756C103.533 177.827 103.39 179.848 103.283 181.768L103.252 182.341C102.943 188.222 103.016 192.482 103.596 194.468C103.629 194.581 103.747 194.646 103.86 194.613C103.973 194.58 104.038 194.462 104.005 194.349C103.453 192.456 103.374 188.321 103.664 182.631L103.678 182.363C103.787 180.279 103.941 178.065 104.129 175.791L104.213 174.798C104.312 173.651 104.415 172.54 104.518 171.487L104.636 170.302L104.759 169.147L105.185 165.307C105.198 165.19 105.114 165.085 104.997 165.072Z" fill="#4E5C93"/>
</svg>
