<svg width="24" height="24" viewBox="0 0 24 24" fill="none" xmlns="http://www.w3.org/2000/svg">
<path d="M4.64844 16.1523V16.9904C4.64844 17.306 4.90428 17.5619 5.21987 17.5619C5.53547 17.5619 5.79131 17.306 5.79131 16.9904V16.1523H4.64844Z" fill="#008BFF"/>
<path d="M18.209 16.1523V16.9904C18.209 17.306 18.4648 17.5619 18.7804 17.5619C19.096 17.5619 19.3519 17.306 19.3519 16.9904V16.1523H18.209Z" fill="#008BFF"/>
<path d="M20 11.6172H4V15.7315H20V11.6172Z" fill="#008BFF"/>
<path d="M17.1512 6.4375H6.84781C6.37378 6.4375 5.98047 6.78794 5.98047 7.26191V8.80037L6.72931 8.79938C6.72119 8.76128 6.71691 8.7275 6.71691 8.68509C6.71691 8.34319 6.99409 8.07556 7.33597 8.07556H16.6632C17.0051 8.07556 17.2822 8.34319 17.2822 8.68509C17.2822 8.7275 17.2779 8.76128 17.2698 8.79938H18.0186V7.26188C18.0186 6.78794 17.6252 6.4375 17.1512 6.4375Z" fill="#008BFF"/>
<path d="M18.2682 9.75H5.72464L5.02148 10.7814H18.9769L18.2682 9.75Z" fill="#008BFF"/>
</svg>
