<svg width="25" height="24" viewBox="0 0 25 24" fill="none" xmlns="http://www.w3.org/2000/svg">
<g clip-path="url(#clip0_5619_119737)">
<path d="M20.3074 9.63709L13.227 6.37791C12.9974 6.27213 12.7528 6.21875 12.5 6.21875C12.2473 6.21875 12.0027 6.27213 11.773 6.37791L4.69259 9.63709C4.57556 9.69119 4.5 9.80909 4.5 9.93794C4.5 10.0668 4.57556 10.1847 4.69259 10.2388L11.773 13.498C12.0026 13.6037 12.2473 13.6574 12.5 13.6574C12.7528 13.6574 12.9974 13.6037 13.2271 13.498L18.815 10.9259V13.5159C18.5932 13.5409 18.4203 13.7297 18.4203 13.9577C18.4203 14.1565 18.5518 14.3285 18.7392 14.3833L18.3613 16.8768H20.1012L19.7234 14.3833C19.9108 14.3285 20.0423 14.1565 20.0423 13.9577C20.0423 13.7297 19.8693 13.5409 19.6476 13.5159V10.5426L20.3075 10.2388C20.4245 10.1847 20.5001 10.0668 20.5001 9.93794C20.5001 9.80909 20.4244 9.69119 20.3074 9.63709Z" fill="#00E117"/>
<path d="M12.5006 14.8358C12.1492 14.8358 11.8086 14.7611 11.4885 14.6138L8.02539 13.0195V16.1957C8.02539 16.893 10.1325 17.7776 12.5006 17.7776C14.8688 17.7776 16.9759 16.893 16.9759 16.1957V13.0195L13.5125 14.6138C13.1926 14.7611 12.8522 14.8358 12.5006 14.8358Z" fill="#00E117"/>
</g>
<defs>
<clipPath id="clip0_5619_119737">
<rect width="16" height="16" fill="white" transform="translate(4.5 4)"/>
</clipPath>
</defs>
</svg>
