<svg width="25" height="24" viewBox="0 0 25 24" fill="none" xmlns="http://www.w3.org/2000/svg">
<g clip-path="url(#clip0_5619_120652)">
<path d="M17.1015 7.64062C17.0587 7.64062 17.0162 7.64162 16.974 7.64337V7.64112H8.15625V13.4524C8.15625 13.8698 8.32205 14.2701 8.61718 14.5653C8.9123 14.8604 9.31259 15.0263 9.73 15.0264H15.3998C15.8172 15.0262 16.2174 14.8604 16.5126 14.5652C16.8077 14.2701 16.9736 13.8698 16.9737 13.4524V13.0384C17.0157 13.0401 17.0582 13.0416 17.101 13.0416C18.6508 13.0416 19.907 11.8754 19.907 10.3261C19.9072 8.77662 18.651 7.64062 17.1015 7.64062ZM17.1015 11.9721C17.0587 11.9721 17.0162 11.9699 16.974 11.9669V8.70312C17.0157 8.70062 17.0587 8.69862 17.1015 8.69862C18.0405 8.69862 18.8018 9.38712 18.8018 10.3264C18.8018 11.2656 18.0407 11.9721 17.1015 11.9721Z" fill="#FF9600"/>
<path d="M20.2182 15.3672V15.4217C20.2182 15.8391 20.0523 16.2394 19.7572 16.5345C19.4621 16.8297 19.0619 16.9956 18.6445 16.9957H6.39797C5.98056 16.9956 5.58027 16.8298 5.28514 16.5346C4.99002 16.2394 4.82422 15.8391 4.82422 15.4217V15.3672H20.2185H20.2182Z" fill="#FF9600"/>
</g>
<defs>
<clipPath id="clip0_5619_120652">
<rect width="16" height="16" fill="white" transform="translate(4.5 4)"/>
</clipPath>
</defs>
</svg>
