<svg width="25" height="24" viewBox="0 0 25 24" fill="none" xmlns="http://www.w3.org/2000/svg">
<path d="M5.65374 14.6031C5.55262 14.5265 5.56713 14.3995 5.56713 14.3995L6.12734 7.73505C6.12734 7.73505 6.13609 7.66166 6.16873 7.62412C6.18931 7.60065 6.21534 7.56652 6.26441 7.54646C6.82782 7.31606 9.89033 5.65708 11.433 7.20172C11.6887 7.49793 11.9663 7.93516 11.9663 8.26838V13.9088C11.9663 13.9088 11.9729 14.0285 11.8646 14.1009C11.8391 14.118 11.7324 14.1666 11.6065 14.1037C9.23283 12.9161 6.58142 14.2686 5.91251 14.6233C5.77833 14.6944 5.67369 14.6184 5.65374 14.6031ZM19.0868 14.6233C18.4179 14.2686 15.7665 12.9161 13.3928 14.1037C13.267 14.1666 13.1602 14.118 13.1347 14.1009C13.0265 14.0285 13.0332 13.9088 13.0332 13.9088V8.26838C13.0332 7.93516 13.3107 7.49793 13.5664 7.20172C15.1091 5.65708 18.1521 7.31596 18.7155 7.54646C18.7646 7.56652 18.7906 7.60065 18.8112 7.62412C18.8438 7.66166 18.8526 7.73505 18.8526 7.73505L19.4323 14.3995C19.4323 14.3995 19.4468 14.5265 19.3457 14.6031C19.3257 14.6184 19.2211 14.6944 19.0868 14.6233ZM13.9554 17.5338C13.9929 17.5247 14.0582 17.4865 14.0812 17.4511C14.1063 17.4123 14.1215 17.3853 14.1263 17.335C14.1791 16.3346 15.8591 15.4024 19.0838 17.3033C19.1665 17.3503 19.2615 17.3455 19.3425 17.2867C19.4345 17.2198 19.433 17.1067 19.433 17.1067V16.5155C19.433 16.5155 19.4334 16.434 19.404 16.3892C19.3822 16.356 19.3533 16.3206 19.3053 16.2977C17.1448 14.8956 14.4137 14.274 13.0275 16.1279C13.0082 16.173 12.9898 16.1933 12.9498 16.2244C12.8895 16.2714 12.8159 16.2684 12.8159 16.2684H12.1913C12.1913 16.2684 12.1177 16.2714 12.0574 16.2244C12.0174 16.1933 11.999 16.173 11.9797 16.1279C10.5935 14.274 7.86238 14.8662 5.70195 16.2684C5.65395 16.2913 5.62505 16.3266 5.60318 16.3599C5.57385 16.4047 5.57417 16.4862 5.57417 16.4862V17.0773C5.57417 17.0773 5.57267 17.1905 5.66473 17.2574C5.74569 17.3162 5.84073 17.321 5.92339 17.2739C9.14814 15.373 10.8281 16.3346 10.8809 17.335C10.8857 17.3853 10.9009 17.4123 10.9261 17.4511C10.949 17.4865 11.0143 17.5247 11.0518 17.5338C11.8218 17.725 12.9383 17.8004 13.9554 17.5338Z" fill="#FF86A3"/>
</svg>
