<svg width="25" height="24" viewBox="0 0 25 24" fill="none" xmlns="http://www.w3.org/2000/svg">
<path d="M7.54494 9.77938C7.73419 9.77938 7.92158 9.81667 8.09641 9.88912C8.27124 9.96157 8.43009 10.0678 8.56386 10.2016C8.69764 10.3355 8.80373 10.4944 8.87607 10.6693C8.94841 10.8441 8.98558 11.0316 8.98547 11.2208V13.4183H16.0154V11.2199C16.0156 10.9496 16.0918 10.6847 16.2354 10.4557C16.379 10.2266 16.5842 10.0426 16.8274 9.92462C17.0707 9.80667 17.3422 9.75955 17.611 9.78865C17.8798 9.81776 18.135 9.92191 18.3473 10.0892C18.5597 10.2565 18.7207 10.4802 18.812 10.7347C18.9032 10.9891 18.921 11.2642 18.8633 11.5283C18.8056 11.7924 18.6747 12.035 18.4856 12.2282C18.2966 12.4215 18.0569 12.5576 17.7942 12.6211V16.7673C17.7939 16.8799 17.7491 16.9879 17.6694 17.0675C17.5898 17.1472 17.4818 17.192 17.3692 17.1923H7.63262C7.51998 17.192 7.41202 17.1472 7.33237 17.0675C7.25271 16.9879 7.20786 16.8799 7.20762 16.7673V12.6211C6.86421 12.5391 6.56286 12.3339 6.3608 12.0443C6.15875 11.7548 6.07005 11.4012 6.11156 11.0505C6.15306 10.6999 6.32189 10.3768 6.58597 10.1424C6.85004 9.9081 7.19188 9.7789 7.54494 9.77938ZM8.49247 8.97949C8.42593 8.95139 8.35816 8.92631 8.28936 8.90433V7.67586C8.28983 7.41315 8.39428 7.16131 8.57988 6.97537C8.76547 6.78944 9.01713 6.68454 9.27983 6.68359H15.7201C15.983 6.6843 16.2349 6.7891 16.4207 6.97506C16.6065 7.16102 16.711 7.41299 16.7115 7.67586V8.90433C16.6427 8.92631 16.5749 8.95139 16.5084 8.97949C16.0678 9.16555 15.6919 9.47744 15.4277 9.87611C15.1635 10.2748 15.0228 10.7425 15.0232 11.2208V12.426H9.97773V11.2208C9.97774 10.7426 9.83687 10.275 9.57272 9.87641C9.30857 9.4778 8.93285 9.16584 8.49247 8.97949Z" fill="#FF4900"/>
</svg>
