<svg width="25" height="24" viewBox="0 0 25 24" fill="none" xmlns="http://www.w3.org/2000/svg">
<path d="M6.77251 17.8673C6.52982 17.8501 6.30038 17.7587 6.10602 17.6013C6.03518 17.5442 5.9184 17.4192 5.86458 17.3437C5.77089 17.2133 5.69925 17.042 5.66645 16.874L5.6516 16.7952V14.8858V12.9764H8.22078H10.79V13.6259C10.79 14.3408 10.7904 14.3034 10.8368 14.4027C10.8939 14.5253 11.0188 14.6319 11.1525 14.6729C11.1925 14.6855 11.2531 14.6855 12.508 14.6855H13.8211L13.8794 14.666C14.0235 14.6169 14.152 14.4865 14.201 14.3388L14.2182 14.2897V13.6332V12.9767H16.7876H19.3569V14.9002V16.8237L19.3409 16.8946C19.3032 17.0587 19.2472 17.192 19.1632 17.317C19.0661 17.4607 18.9534 17.5737 18.8094 17.6705C18.6282 17.7925 18.454 17.8511 18.2226 17.8677C18.1058 17.8792 6.89934 17.8792 6.77548 17.8673H6.77251ZM11.5221 13.465V12.9767H12.5024H13.4828V13.465V13.9535H12.5024H11.5221V13.465ZM5.64909 10.6956C5.64909 9.01929 5.64909 9.1346 5.68908 8.97734C5.74964 8.73814 5.91669 8.49266 6.12819 8.32969C6.27867 8.21391 6.4295 8.14386 6.6194 8.10146L6.70509 8.08203H8.13657H9.56793V7.40089V6.71974L9.58392 6.6626C9.65819 6.40043 9.87666 6.19369 10.1374 6.13757C10.1945 6.125 10.2967 6.125 12.5086 6.125H14.8197L14.8883 6.14443C15.1861 6.22671 15.3955 6.46626 15.4322 6.76603C15.4322 6.80374 15.4436 7.06431 15.4436 7.45449V8.08283H16.8272C17.7828 8.08283 18.2333 8.08283 18.2836 8.09426C18.5378 8.12169 18.7793 8.23551 18.9708 8.41883C19.1698 8.60946 19.2834 8.81003 19.338 9.06706L19.354 9.14477V10.6967V12.2485H12.4983H5.64258V10.7037L5.64909 10.6956ZM14.4596 7.58649V7.09449H12.5024H10.5453V7.58649V8.07837H12.5024H14.4596V7.58649Z" fill="#00B7FF"/>
</svg>
