<svg width="24" height="24" viewBox="0 0 24 24" fill="none" xmlns="http://www.w3.org/2000/svg">
<g clip-path="url(#clip0_7077_115669)">
<path d="M20 18.1562H4V19.6241H20V18.1562Z" fill="#6FBF73"/>
<path d="M9.5943 8.1705C9.5943 8.1705 11.0527 8.46237 12.9484 6.56644C13.8234 7.73331 14.4068 8.31644 14.4068 8.31644V10.067C14.9925 9.46319 15.3546 8.64097 15.3546 7.73328C15.3546 5.88063 13.8529 4.37891 12.0005 4.37891C10.1482 4.37891 8.64648 5.88063 8.64648 7.73328C8.64648 8.64097 9.00858 9.46319 9.5943 10.067V8.1705Z" fill="#6FBF73"/>
<path d="M14.2502 12.0391C14.0147 12.1678 12.0007 16.5895 12.0007 16.5895C12.0007 16.5895 9.98678 12.1678 9.75122 12.0391C7.48403 12.857 7.38281 14.6893 7.38281 17.5663H16.6188C16.6188 14.6892 16.5176 12.857 14.2502 12.0391Z" fill="#6FBF73"/>
<path d="M10.9961 11.8438V13.1826L12.0002 12.8412L13.0044 13.1826V11.8438L12.0002 12.1852L10.9961 11.8438Z" fill="#6FBF73"/>
</g>
<defs>
<clipPath id="clip0_7077_115669">
<rect width="16" height="16" fill="white" transform="translate(4 4)"/>
</clipPath>
</defs>
</svg>
