<svg width="25" height="24" viewBox="0 0 25 24" fill="none" xmlns="http://www.w3.org/2000/svg">
<g clip-path="url(#clip0_7077_116054)">
<path d="M8.23334 4L7.16667 9.86667C7.01051 10.7253 9.06694 11.1264 9.03334 12L8.76667 18.9333C8.72571 19.9993 9.83334 20 9.83334 20C9.83334 20 10.941 19.9993 10.9 18.9333L10.6333 12C10.5998 11.1279 12.4823 10.7405 12.5 9.86667L11.4333 4H10.9L11.1667 8.26667L10.3667 8.8L10.1 4H9.56667L9.3 8.8L8.5 8.26667L8.76667 4H8.23334ZM17.3 4C16.5145 4 15.2049 4.69856 14.6812 5.74581C14.2449 6.53131 14.1 8.28608 14.1 9.33333V12C14.1 12.8727 15.2636 13.0667 15.7 13.0667L15.1667 18.9333C15.0701 19.9956 16.2333 20 16.2333 20C16.2333 20 17.3 20 17.3 18.9333V4Z" fill="#D35400"/>
</g>
<defs>
<clipPath id="clip0_7077_116054">
<rect width="16" height="16" fill="white" transform="translate(4.5 4)"/>
</clipPath>
</defs>
</svg>
