<svg width="56" height="56" viewBox="0 0 56 56" fill="none" xmlns="http://www.w3.org/2000/svg">
<rect width="56" height="56" rx="28" fill="#3897F0"/>
<rect width="56" height="56" rx="28" fill="url(#paint0_linear_2170_26209)"/>
<g clip-path="url(#clip0_2170_26209)">
<path fill-rule="evenodd" clip-rule="evenodd" d="M41.3332 30.197V23.9681C41.3332 22.2972 41.2454 20.8636 40.9792 19.6656C40.7096 18.4525 40.2396 17.4009 39.4193 16.5807C38.599 15.7604 37.5474 15.2904 36.3342 15.0208C35.1364 14.7545 33.7026 14.6667 32.0318 14.6667H23.9678C22.297 14.6667 20.8633 14.7545 19.6654 15.0208C18.4523 15.2904 17.4007 15.7604 16.5804 16.5807C15.7601 17.4009 15.2901 18.4525 15.0205 19.6656C14.7543 20.8636 14.6665 22.2972 14.6665 23.9681V32.0321C14.6665 33.7029 14.7543 35.1366 15.0205 36.3345C15.2901 37.5477 15.7601 38.5993 16.5804 39.4195C17.4007 40.2398 18.4523 40.7098 19.6654 40.9794C20.8633 41.2457 22.297 41.3334 23.9678 41.3334H32.0318C33.7026 41.3334 35.1364 41.2457 36.3342 40.9794C37.5474 40.7098 38.599 40.2398 39.4193 39.4195C40.2396 38.5993 40.7096 37.5477 40.9792 36.3345C41.2454 35.1366 41.3332 33.7029 41.3332 32.0321V30.259C41.3337 30.2383 41.3337 30.2177 41.3332 30.197ZM17.6237 20.2441C17.4212 21.1553 17.3332 22.3581 17.3332 23.9681V26.7947C18.293 25.8718 19.1865 25.1167 20.0518 24.5661C21.1002 23.899 22.1761 23.4877 23.3362 23.4877C24.4962 23.4877 25.5721 23.899 26.6206 24.5661C27.656 25.2249 28.7317 26.1766 29.9132 27.3581L32.0802 29.5251C33.3913 28.4443 34.6769 27.6981 36.0606 27.5257C36.9721 27.4121 37.8317 27.5565 38.6665 27.8931V23.9681C38.6665 22.3581 38.5785 21.1553 38.376 20.2441C38.1769 19.3481 37.8852 18.8178 37.5337 18.4663C37.1821 18.1148 36.6518 17.8231 35.7557 17.6239C34.8446 17.4214 33.6418 17.3334 32.0318 17.3334H23.9678C22.3579 17.3334 21.1551 17.4214 20.2439 17.6239C19.3479 17.8231 18.8175 18.1148 18.466 18.4663C18.1145 18.8178 17.8228 19.3481 17.6237 20.2441Z" fill="white"/>
<path fill-rule="evenodd" clip-rule="evenodd" d="M30.6665 22.6667C30.6665 21.1939 31.8604 20 33.3332 20C34.806 20 35.9998 21.1939 35.9998 22.6667C35.9998 24.1394 34.806 25.3333 33.3332 25.3333C31.8604 25.3333 30.6665 24.1394 30.6665 22.6667Z" fill="white"/>
</g>
<defs>
<linearGradient id="paint0_linear_2170_26209" x1="28" y1="0" x2="28" y2="56" gradientUnits="userSpaceOnUse">
<stop stop-color="#0184FF"/>
<stop offset="0.932692" stop-color="#7400FF"/>
</linearGradient>
<clipPath id="clip0_2170_26209">
<rect width="32" height="32" fill="white" transform="translate(12 12)"/>
</clipPath>
</defs>
</svg>
