<svg width="24" height="24" viewBox="0 0 24 24" fill="none" xmlns="http://www.w3.org/2000/svg">
<path fill-rule="evenodd" clip-rule="evenodd" d="M14.795 2H9.205C8.09 2 7.686 2.116 7.279 2.334C6.87638 2.54714 6.54714 2.87638 6.334 3.279C6.116 3.686 6 4.09 6 5.205V18.795C6 19.909 6.116 20.314 6.334 20.721C6.552 21.128 6.872 21.448 7.279 21.666C7.686 21.884 8.09 22 9.205 22H14.795C15.909 22 16.314 21.884 16.721 21.666C17.128 21.448 17.448 21.128 17.666 20.721C17.884 20.314 18 19.91 18 18.795V5.205C18 4.09 17.884 3.686 17.666 3.279C17.4529 2.87638 17.1236 2.54714 16.721 2.334C16.314 2.116 15.91 2 14.795 2ZM8.356 4.049C8.511 4.019 8.778 4 9.205 4H14.795C15.222 4 15.489 4.019 15.644 4.049C15.704 4.061 15.718 4.066 15.778 4.098C15.8318 4.12469 15.8753 4.16824 15.902 4.222C15.934 4.282 15.939 4.295 15.951 4.356C15.981 4.511 16 4.778 16 5.205V18.795C16 19.222 15.981 19.489 15.951 19.644C15.944 19.6915 15.9273 19.7371 15.902 19.778C15.8755 19.8321 15.8319 19.876 15.778 19.903C15.7371 19.9279 15.6915 19.9443 15.644 19.951C15.489 19.981 15.222 20 14.795 20H9.205C8.778 20 8.511 19.981 8.356 19.951C8.30846 19.944 8.26287 19.9273 8.222 19.902C8.16824 19.8753 8.12469 19.8318 8.098 19.778C8.07271 19.7371 8.05604 19.6915 8.049 19.644C8.019 19.489 8 19.222 8 18.795V5.205C8 4.778 8.019 4.511 8.049 4.356C8.05604 4.30846 8.07271 4.26287 8.098 4.222C8.12469 4.16824 8.16824 4.12469 8.222 4.098C8.26287 4.07272 8.30846 4.05604 8.356 4.049ZM20 6C20 5.73478 20.1054 5.48043 20.2929 5.29289C20.4804 5.10536 20.7348 5 21 5C21.2652 5 21.5196 5.10536 21.7071 5.29289C21.8946 5.48043 22 5.73478 22 6V18C22 18.2652 21.8946 18.5196 21.7071 18.7071C21.5196 18.8946 21.2652 19 21 19C20.7348 19 20.4804 18.8946 20.2929 18.7071C20.1054 18.5196 20 18.2652 20 18V6ZM3 5C2.73478 5 2.48043 5.10536 2.29289 5.29289C2.10536 5.48043 2 5.73478 2 6V18C2 18.2652 2.10536 18.5196 2.29289 18.7071C2.48043 18.8946 2.73478 19 3 19C3.26522 19 3.51957 18.8946 3.70711 18.7071C3.89464 18.5196 4 18.2652 4 18V6C4 5.73478 3.89464 5.48043 3.70711 5.29289C3.51957 5.10536 3.26522 5 3 5Z" fill="white"/>
</svg>
