<svg width="26" height="26" viewBox="0 0 26 26" fill="none" xmlns="http://www.w3.org/2000/svg">
<rect x="1.5" y="1.5" width="23" height="23" rx="11.5" fill="#F43F5E"/>
<rect x="1.5" y="1.5" width="23" height="23" rx="11.5" stroke="white" stroke-width="3"/>
<path d="M13 8.5C15.4853 8.5 17.5 10.5147 17.5 13C17.5 15.4853 15.4853 17.5 13 17.5C10.5147 17.5 8.5 15.4853 8.5 13C8.5 10.5147 10.5147 8.5 13 8.5ZM13 9.75C12.7239 9.75 12.5 9.97386 12.5 10.25V12.75C12.5 13.1642 12.8358 13.5 13.25 13.5H14.75C15.0261 13.5 15.25 13.2761 15.25 13C15.25 12.7239 15.0261 12.5 14.75 12.5H13.5V10.25C13.5 9.97386 13.2761 9.75 13 9.75Z" fill="white"/>
</svg>
