<svg width="20" height="20" viewBox="0 0 20 20" fill="none" xmlns="http://www.w3.org/2000/svg">
<rect width="20" height="20" rx="10" fill="#FDA629"/>
<path d="M10.9763 6.18249C11.3003 5.96644 11.4624 5.85841 11.6309 5.81644C11.8549 5.76066 12.0912 5.78406 12.2999 5.88268C12.4569 5.95689 12.5946 6.09459 12.87 6.37L13.63 7.13C13.9054 7.40541 14.0431 7.54311 14.1173 7.70013C14.2159 7.90879 14.2393 8.14515 14.1836 8.3691C14.1416 8.53762 14.0336 8.69965 13.8175 9.02373L13.2209 9.91861C12.7449 10.6326 12.4134 11.433 12.2451 12.2744L12.1496 12.7519C12.0789 13.1055 11.6692 13.271 11.3727 13.0657C9.63846 11.8651 8.13491 10.3615 6.93425 8.62726C6.72901 8.33079 6.89452 7.9211 7.24809 7.85038L7.72557 7.75489C8.56704 7.58659 9.36738 7.25508 10.0814 6.77907L10.9763 6.18249Z" fill="white" stroke="white"/>
<path d="M6.5 13.5L8.75 11.25" stroke="white" stroke-linecap="round"/>
</svg>
