<svg width="20" height="20" viewBox="0 0 20 20" fill="none" xmlns="http://www.w3.org/2000/svg">
<rect width="20" height="20" rx="10" fill="#F43F5E"/>
<path d="M10 5.5C12.4853 5.5 14.5 7.51472 14.5 10C14.5 12.4853 12.4853 14.5 10 14.5C7.51472 14.5 5.5 12.4853 5.5 10C5.5 7.51472 7.51472 5.5 10 5.5ZM10 6.75C9.72386 6.75 9.5 6.97386 9.5 7.25V9.75C9.5 10.1642 9.83579 10.5 10.25 10.5H11.75C12.0261 10.5 12.25 10.2761 12.25 10C12.25 9.72386 12.0261 9.5 11.75 9.5H10.5V7.25C10.5 6.97386 10.2761 6.75 10 6.75Z" fill="white"/>
</svg>
