<svg width="634" height="960" viewBox="0 0 634 960" fill="none" xmlns="http://www.w3.org/2000/svg">
<g filter="url(#filter0_dd_2170_35631)">
<rect x="14.5" y="2" width="605" height="932" rx="12" fill="#5542FF"/>
<rect x="13.5" y="1" width="607" height="934" rx="13" stroke="#212A37" stroke-width="2"/>
<g filter="url(#filter1_dd_2170_35631)">
<path d="M147.347 485V450.091H154.727V464.494H169.71V450.091H177.074V485H169.71V470.58H154.727V485H147.347ZM194.955 485.511C192.261 485.511 189.943 484.966 188 483.875C186.068 482.773 184.58 481.216 183.534 479.205C182.489 477.182 181.966 474.79 181.966 472.028C181.966 469.335 182.489 466.972 183.534 464.938C184.58 462.903 186.051 461.318 187.949 460.182C189.858 459.045 192.097 458.477 194.665 458.477C196.392 458.477 198 458.756 199.489 459.312C200.989 459.858 202.295 460.682 203.409 461.784C204.534 462.886 205.409 464.273 206.034 465.943C206.659 467.602 206.972 469.545 206.972 471.773V473.767H184.864V469.267H200.136C200.136 468.222 199.909 467.295 199.455 466.489C199 465.682 198.369 465.051 197.562 464.597C196.767 464.131 195.841 463.898 194.784 463.898C193.682 463.898 192.705 464.153 191.852 464.665C191.011 465.165 190.352 465.841 189.875 466.693C189.398 467.534 189.153 468.472 189.142 469.506V473.784C189.142 475.08 189.381 476.199 189.858 477.142C190.347 478.085 191.034 478.812 191.92 479.324C192.807 479.835 193.858 480.091 195.074 480.091C195.881 480.091 196.619 479.977 197.29 479.75C197.96 479.523 198.534 479.182 199.011 478.727C199.489 478.273 199.852 477.716 200.102 477.057L206.818 477.5C206.477 479.114 205.778 480.523 204.722 481.727C203.676 482.92 202.324 483.852 200.665 484.523C199.017 485.182 197.114 485.511 194.955 485.511ZM218.972 450.091V485H211.71V450.091H218.972ZM232.05 450.091V485H224.788V450.091H232.05ZM245.128 450.091V485H237.866V450.091H245.128ZM262.774 485.511C260.126 485.511 257.837 484.949 255.905 483.824C253.984 482.687 252.501 481.108 251.456 479.085C250.411 477.051 249.888 474.693 249.888 472.011C249.888 469.307 250.411 466.943 251.456 464.92C252.501 462.886 253.984 461.307 255.905 460.182C257.837 459.045 260.126 458.477 262.774 458.477C265.422 458.477 267.706 459.045 269.626 460.182C271.558 461.307 273.047 462.886 274.092 464.92C275.138 466.943 275.661 469.307 275.661 472.011C275.661 474.693 275.138 477.051 274.092 479.085C273.047 481.108 271.558 482.687 269.626 483.824C267.706 484.949 265.422 485.511 262.774 485.511ZM262.808 479.886C264.013 479.886 265.018 479.545 265.825 478.864C266.632 478.17 267.24 477.227 267.649 476.034C268.07 474.841 268.28 473.483 268.28 471.96C268.28 470.438 268.07 469.08 267.649 467.886C267.24 466.693 266.632 465.75 265.825 465.057C265.018 464.364 264.013 464.017 262.808 464.017C261.592 464.017 260.57 464.364 259.74 465.057C258.922 465.75 258.303 466.693 257.882 467.886C257.473 469.08 257.268 470.438 257.268 471.96C257.268 473.483 257.473 474.841 257.882 476.034C258.303 477.227 258.922 478.17 259.74 478.864C260.57 479.545 261.592 479.886 262.808 479.886ZM303.287 495.364C300.935 495.364 298.918 495.04 297.236 494.392C295.565 493.756 294.236 492.886 293.247 491.784C292.259 490.682 291.616 489.443 291.321 488.068L298.037 487.165C298.241 487.688 298.565 488.176 299.009 488.631C299.452 489.085 300.037 489.449 300.764 489.722C301.503 490.006 302.401 490.148 303.457 490.148C305.037 490.148 306.338 489.761 307.361 488.989C308.395 488.227 308.912 486.949 308.912 485.153V480.364H308.605C308.287 481.091 307.81 481.778 307.173 482.426C306.537 483.074 305.719 483.602 304.719 484.011C303.719 484.42 302.526 484.625 301.139 484.625C299.173 484.625 297.384 484.17 295.77 483.261C294.168 482.341 292.889 480.937 291.935 479.051C290.991 477.153 290.52 474.756 290.52 471.858C290.52 468.892 291.003 466.415 291.969 464.426C292.935 462.437 294.219 460.949 295.821 459.96C297.435 458.972 299.202 458.477 301.122 458.477C302.588 458.477 303.815 458.727 304.804 459.227C305.793 459.716 306.588 460.33 307.19 461.068C307.804 461.795 308.276 462.511 308.605 463.216H308.878V458.818H316.088V485.256C316.088 487.483 315.543 489.347 314.452 490.847C313.361 492.347 311.849 493.472 309.918 494.222C307.997 494.983 305.787 495.364 303.287 495.364ZM303.44 479.17C304.611 479.17 305.599 478.881 306.406 478.301C307.224 477.71 307.849 476.869 308.281 475.778C308.724 474.676 308.946 473.358 308.946 471.824C308.946 470.29 308.73 468.96 308.298 467.835C307.866 466.699 307.241 465.818 306.423 465.193C305.605 464.568 304.611 464.256 303.44 464.256C302.247 464.256 301.241 464.58 300.423 465.227C299.605 465.864 298.986 466.75 298.565 467.886C298.145 469.023 297.935 470.335 297.935 471.824C297.935 473.335 298.145 474.642 298.565 475.744C298.997 476.835 299.616 477.682 300.423 478.284C301.241 478.875 302.247 479.17 303.44 479.17ZM338.656 473.852V458.818H345.918V485H338.946V480.244H338.673C338.082 481.778 337.099 483.011 335.724 483.943C334.361 484.875 332.696 485.341 330.73 485.341C328.98 485.341 327.44 484.943 326.111 484.148C324.781 483.352 323.741 482.222 322.991 480.756C322.253 479.29 321.878 477.534 321.866 475.489V458.818H329.128V474.193C329.139 475.739 329.554 476.96 330.372 477.858C331.19 478.756 332.287 479.205 333.662 479.205C334.537 479.205 335.355 479.006 336.116 478.608C336.878 478.199 337.491 477.597 337.957 476.801C338.435 476.006 338.668 475.023 338.656 473.852ZM356.209 494.818C355.288 494.818 354.425 494.744 353.618 494.597C352.822 494.46 352.163 494.284 351.641 494.068L353.277 488.648C354.129 488.909 354.896 489.051 355.578 489.074C356.271 489.097 356.868 488.938 357.368 488.597C357.879 488.256 358.294 487.676 358.612 486.858L359.038 485.75L349.646 458.818H357.283L362.703 478.045H362.976L368.447 458.818H376.135L365.959 487.83C365.47 489.239 364.805 490.466 363.964 491.511C363.135 492.568 362.084 493.381 360.811 493.949C359.538 494.528 358.004 494.818 356.209 494.818ZM401.635 466.284L394.987 466.693C394.874 466.125 394.629 465.614 394.254 465.159C393.879 464.693 393.385 464.324 392.771 464.051C392.169 463.767 391.447 463.625 390.607 463.625C389.482 463.625 388.533 463.864 387.76 464.341C386.987 464.807 386.601 465.432 386.601 466.216C386.601 466.841 386.851 467.369 387.351 467.801C387.851 468.233 388.709 468.58 389.925 468.841L394.663 469.795C397.209 470.318 399.107 471.159 400.357 472.318C401.607 473.477 402.232 475 402.232 476.886C402.232 478.602 401.726 480.108 400.714 481.403C399.714 482.699 398.339 483.71 396.589 484.438C394.851 485.153 392.845 485.511 390.572 485.511C387.107 485.511 384.345 484.79 382.288 483.347C380.243 481.892 379.044 479.915 378.692 477.415L385.834 477.04C386.05 478.097 386.572 478.903 387.402 479.46C388.232 480.006 389.294 480.278 390.589 480.278C391.862 480.278 392.885 480.034 393.658 479.545C394.442 479.045 394.839 478.403 394.851 477.619C394.839 476.96 394.561 476.42 394.016 476C393.47 475.568 392.629 475.239 391.493 475.011L386.959 474.108C384.402 473.597 382.499 472.71 381.249 471.449C380.01 470.187 379.391 468.58 379.391 466.625C379.391 464.943 379.845 463.494 380.754 462.278C381.675 461.062 382.964 460.125 384.624 459.466C386.294 458.807 388.249 458.477 390.487 458.477C393.794 458.477 396.396 459.176 398.294 460.574C400.203 461.972 401.317 463.875 401.635 466.284ZM426.589 450.091L425.925 474.534H419.686L419.004 450.091H426.589ZM422.805 485.443C421.68 485.443 420.714 485.045 419.908 484.25C419.101 483.443 418.703 482.477 418.714 481.352C418.703 480.239 419.101 479.284 419.908 478.489C420.714 477.693 421.68 477.295 422.805 477.295C423.885 477.295 424.834 477.693 425.652 478.489C426.47 479.284 426.885 480.239 426.896 481.352C426.885 482.102 426.686 482.79 426.3 483.415C425.925 484.028 425.43 484.523 424.817 484.898C424.203 485.261 423.533 485.443 422.805 485.443ZM441.688 488.36H489.688V440.36H441.688V488.36Z" fill="white"/>
</g>
</g>
<defs>
<filter id="filter0_dd_2170_35631" x="0.5" y="0" width="633" height="960" filterUnits="userSpaceOnUse" color-interpolation-filters="sRGB">
<feFlood flood-opacity="0" result="BackgroundImageFix"/>
<feColorMatrix in="SourceAlpha" type="matrix" values="0 0 0 0 0 0 0 0 0 0 0 0 0 0 0 0 0 0 127 0" result="hardAlpha"/>
<feMorphology radius="2" operator="erode" in="SourceAlpha" result="effect1_dropShadow_2170_35631"/>
<feOffset dy="4"/>
<feGaussianBlur stdDeviation="3"/>
<feComposite in2="hardAlpha" operator="out"/>
<feColorMatrix type="matrix" values="0 0 0 0 0 0 0 0 0 0 0 0 0 0 0 0 0 0 0.03 0"/>
<feBlend mode="normal" in2="BackgroundImageFix" result="effect1_dropShadow_2170_35631"/>
<feColorMatrix in="SourceAlpha" type="matrix" values="0 0 0 0 0 0 0 0 0 0 0 0 0 0 0 0 0 0 127 0" result="hardAlpha"/>
<feMorphology radius="4" operator="erode" in="SourceAlpha" result="effect2_dropShadow_2170_35631"/>
<feOffset dy="12"/>
<feGaussianBlur stdDeviation="8"/>
<feComposite in2="hardAlpha" operator="out"/>
<feColorMatrix type="matrix" values="0 0 0 0 0 0 0 0 0 0 0 0 0 0 0 0 0 0 0.08 0"/>
<feBlend mode="normal" in2="effect1_dropShadow_2170_35631" result="effect2_dropShadow_2170_35631"/>
<feBlend mode="normal" in="SourceGraphic" in2="effect2_dropShadow_2170_35631" result="shape"/>
</filter>
<filter id="filter1_dd_2170_35631" x="144.346" y="438.36" width="348.342" height="61.0039" filterUnits="userSpaceOnUse" color-interpolation-filters="sRGB">
<feFlood flood-opacity="0" result="BackgroundImageFix"/>
<feColorMatrix in="SourceAlpha" type="matrix" values="0 0 0 0 0 0 0 0 0 0 0 0 0 0 0 0 0 0 127 0" result="hardAlpha"/>
<feOffset dy="1"/>
<feGaussianBlur stdDeviation="1"/>
<feComposite in2="hardAlpha" operator="out"/>
<feColorMatrix type="matrix" values="0 0 0 0 0 0 0 0 0 0 0 0 0 0 0 0 0 0 0.06 0"/>
<feBlend mode="normal" in2="BackgroundImageFix" result="effect1_dropShadow_2170_35631"/>
<feColorMatrix in="SourceAlpha" type="matrix" values="0 0 0 0 0 0 0 0 0 0 0 0 0 0 0 0 0 0 127 0" result="hardAlpha"/>
<feOffset dy="1"/>
<feGaussianBlur stdDeviation="1.5"/>
<feComposite in2="hardAlpha" operator="out"/>
<feColorMatrix type="matrix" values="0 0 0 0 0 0 0 0 0 0 0 0 0 0 0 0 0 0 0.1 0"/>
<feBlend mode="normal" in2="effect1_dropShadow_2170_35631" result="effect2_dropShadow_2170_35631"/>
<feBlend mode="normal" in="SourceGraphic" in2="effect2_dropShadow_2170_35631" result="shape"/>
</filter>
</defs>
</svg>
