<svg width="24" height="25" viewBox="0 0 24 25" fill="none" xmlns="http://www.w3.org/2000/svg">
<g clip-path="url(#clip0_7511_118264)">
<path d="M6.47165 14.8821L4.55957 12.97L6.86929 10.6603C8.95809 8.57153 12.3567 8.57158 14.4455 10.6603L12.5334 12.5724C11.499 11.538 9.81576 11.5379 8.78132 12.5724L6.47165 14.8821Z" fill="#8B8D8E"/>
<path d="M13.4835 16.975C12.0526 16.975 10.7073 16.4177 9.69549 15.4058C7.60674 13.3171 7.60669 9.91845 9.69549 7.82966L14.2842 3.24097C15.2961 2.22912 16.6413 1.67188 18.0723 1.67188C19.5032 1.67188 20.8485 2.22912 21.8604 3.24097C22.8722 4.25281 23.4295 5.59817 23.4295 7.02908C23.4295 8.45998 22.8722 9.80534 21.8604 10.8172L17.2717 15.4059C16.2599 16.4177 14.9146 16.975 13.4835 16.975ZM18.0723 4.37591C17.3636 4.37591 16.6973 4.65191 16.1962 5.153L11.6075 9.74169C10.5731 10.7762 10.5731 12.4594 11.6075 13.4938C12.1086 13.9949 12.7749 14.2709 13.4835 14.2709C14.1923 14.2709 14.8585 13.9949 15.3596 13.4938L19.9483 8.90511C20.4494 8.40402 20.7254 7.73773 20.7254 7.02908C20.7254 6.32037 20.4494 5.65414 19.9483 5.153C19.4472 4.65191 18.7809 4.37591 18.0723 4.37591Z" fill="#BABABA"/>
<path d="M16.1219 4.28512C15.8591 4.28512 15.6045 4.14562 15.4692 3.89901C15.2717 3.53897 15.4035 3.08695 15.7635 2.88942C17.2344 2.08266 19.0034 2.07825 20.3804 2.87798C20.7355 3.08423 20.8562 3.53934 20.6499 3.89451C20.4437 4.24964 19.9886 4.3703 19.6334 4.16405C18.7184 3.63258 17.4801 3.64401 16.4788 4.19334C16.3694 4.25352 16.2467 4.28509 16.1219 4.28512ZM6.06854 24.3881C4.69665 24.3881 3.32481 23.8659 2.28043 22.8216C0.19168 20.7328 0.19168 17.3341 2.28043 15.2453L5.58348 11.9423L7.49551 13.8544L4.19246 17.1574C3.15802 18.1919 3.15802 19.8751 4.19246 20.9095C4.70963 21.4267 5.38918 21.6853 6.06849 21.6854C6.74799 21.6855 7.42726 21.4268 7.94457 20.9095L12.5333 16.3208C13.0344 15.8197 13.3104 15.1534 13.3104 14.4448C13.3104 13.7361 13.0344 13.0698 12.5333 12.5687L14.4453 10.6567C16.5341 12.7455 16.5341 16.1441 14.4453 18.2329L9.85665 22.8216C8.81227 23.8659 7.44043 24.3881 6.06854 24.3881Z" fill="#8B8D8E"/>
</g>
<defs>
<clipPath id="clip0_7511_118264">
<rect width="24" height="24" fill="white" transform="translate(0 0.984375)"/>
</clipPath>
</defs>
</svg>
