<svg width="24" height="24" viewBox="0 0 24 24" fill="none" xmlns="http://www.w3.org/2000/svg">
<g clip-path="url(#clip0_4203_56458)">
<path d="M12 24C18.6274 24 24 18.6274 24 12C24 5.37258 18.6274 0 12 0C5.37258 0 0 5.37258 0 12C0 18.6274 5.37258 24 12 24Z" fill="#D80027"/>
<path d="M6.56719 7.30078L7.60313 10.4883H10.9547L8.24531 12.4617L9.28125 15.6492L6.56719 13.6805L3.85313 15.6492L4.89375 12.4617L2.17969 10.4883H5.53125L6.56719 7.30078Z" fill="#FFDA44"/>
<path d="M14.227 18.5848L13.4348 17.6098L12.2629 18.0645L12.9426 17.0098L12.1504 16.0301L13.3645 16.3535L14.0488 15.2988L14.1145 16.5551L15.3332 16.8785L14.1566 17.3285L14.227 18.5848Z" fill="#FFDA44"/>
<path d="M15.802 15.7254L16.177 14.5254L15.1504 13.7988L16.4066 13.7801L16.777 12.5801L17.1848 13.7707L18.441 13.7566L17.4332 14.5066L17.8363 15.6973L16.8098 14.9707L15.802 15.7254Z" fill="#FFDA44"/>
<path d="M17.9246 8.80625L17.3715 9.93594L18.2715 10.8125L17.0293 10.6344L16.4762 11.7594L16.2605 10.5219L15.0137 10.3438L16.1293 9.75781L15.9137 8.51562L16.8137 9.39219L17.9246 8.80625Z" fill="#FFDA44"/>
<path d="M14.2582 5.38477L14.1645 6.63633L15.3316 7.10977L14.1082 7.40977L14.0191 8.66602L13.3582 7.59727L12.1348 7.89727L12.9457 6.93633L12.2801 5.87227L13.4473 6.3457L14.2582 5.38477Z" fill="#FFDA44"/>
</g>
<defs>
<clipPath id="clip0_4203_56458">
<rect width="24" height="24" fill="white"/>
</clipPath>
</defs>
</svg>
