<svg width="24" height="24" viewBox="0 0 24 24" fill="none" xmlns="http://www.w3.org/2000/svg">
<g clip-path="url(#clip0_4203_56492)">
<path d="M0.746094 16.1753C2.44161 20.7448 6.84012 24.0014 11.9997 24.0014C17.1593 24.0014 21.5578 20.7448 23.2533 16.1753L11.9997 15.1318L0.746094 16.1753Z" fill="#FFDA44"/>
<path d="M11.9997 0.000976562C6.84012 0.000976562 2.44161 3.25748 0.746094 7.82709L11.9997 8.87052L23.2533 7.82704C21.5578 3.25748 17.1593 0.000976562 11.9997 0.000976562Z" fill="black"/>
<path d="M0.746391 7.82617C0.264047 9.12616 0 10.5322 0 12.0001C0 13.4679 0.264047 14.874 0.746391 16.174H23.2537C23.736 14.874 24 13.4679 24 12.0001C24 10.5322 23.736 9.12616 23.2536 7.82617H0.746391Z" fill="#D80027"/>
</g>
<defs>
<clipPath id="clip0_4203_56492">
<rect width="24" height="24" fill="white"/>
</clipPath>
</defs>
</svg>
