<svg width="24" height="24" viewBox="0 0 24 24" fill="none" xmlns="http://www.w3.org/2000/svg">
<g clip-path="url(#clip0_4203_56586)">
<path d="M12 24C18.6274 24 24 18.6274 24 12C24 5.37258 18.6274 0 12 0C5.37258 0 0 5.37258 0 12C0 18.6274 5.37258 24 12 24Z" fill="#F0F0F0"/>
<path d="M23.2536 16.173C23.736 14.873 24 13.4669 24 11.9991C24 10.5312 23.736 9.12518 23.2536 7.8252H0.746391C0.264047 9.12518 0 10.5312 0 11.9991C0 13.4669 0.264047 14.873 0.746391 16.173L12 17.2165L23.2536 16.173Z" fill="#0052B4"/>
<path d="M11.9997 23.9999C17.1593 23.9999 21.5578 20.7434 23.2533 16.1738H0.746094C2.44161 20.7434 6.84012 23.9999 11.9997 23.9999Z" fill="#D80027"/>
</g>
<defs>
<clipPath id="clip0_4203_56586">
<rect width="24" height="24" fill="white"/>
</clipPath>
</defs>
</svg>
