<svg width="24" height="24" viewBox="0 0 24 24" fill="none" xmlns="http://www.w3.org/2000/svg">
<g clip-path="url(#clip0_4203_56530)">
<path d="M12 24C18.6274 24 24 18.6274 24 12C24 5.37258 18.6274 0 12 0C5.37258 0 0 5.37258 0 12C0 18.6274 5.37258 24 12 24Z" fill="#F0F0F0"/>
<path d="M2.74219 4.36344H21.2563C20.5725 3.53539 19.7794 2.80109 18.8996 2.18164H5.09892C4.21913 2.801 3.42605 3.53534 2.74219 4.36344Z" fill="#F0F0F0"/>
<path d="M0 12.0001C0 12.3679 0.0174844 12.7315 0.049875 13.091H23.9501C23.9825 12.7315 24 12.3679 24 12.0001C24 11.6322 23.9825 11.2686 23.9501 10.9092H0.049875C0.0174844 11.2686 0 11.6322 0 12.0001Z" fill="#F0F0F0"/>
<path d="M1.30981 17.4542H22.6927C23.046 16.763 23.3342 16.0331 23.5494 15.2725H0.453125C0.668234 16.0331 0.956516 16.763 1.30981 17.4542Z" fill="#F0F0F0"/>
<path d="M5.09892 21.8185H18.8995C19.7793 21.1991 20.5725 20.4648 21.2563 19.6367H2.74219C3.42605 20.4647 4.21913 21.1991 5.09892 21.8185Z" fill="#F0F0F0"/>
<path d="M0.451172 8.7277H23.5475C23.3324 7.96701 23.0441 7.23707 22.6908 6.5459H1.30791C0.954609 7.23707 0.666328 7.96701 0.451172 8.7277Z" fill="#F0F0F0"/>
<path d="M5.73828 2.1818H18.8995C16.9476 0.807516 14.5677 0 11.9991 0C10.4339 0 7.69016 0.807516 5.73828 2.1818Z" fill="#D80027"/>
<path d="M11.4785 6.54508H22.6917C22.2926 5.76447 21.8107 5.03327 21.2573 4.36328H11.4785V6.54508Z" fill="#D80027"/>
<path d="M11.4785 10.9084H23.9504C23.8829 10.1592 23.7472 9.42964 23.5484 8.72656H11.4785V10.9084Z" fill="#D80027"/>
<path d="M0.450828 15.2736H23.5471C23.7459 14.5706 23.8816 13.841 23.9491 13.0918H0.0488281C0.116328 13.841 0.251984 14.5705 0.450828 15.2736Z" fill="#D80027"/>
<path d="M2.74297 19.6369H21.2571C21.8105 18.9668 22.2924 18.2356 22.6915 17.4551H1.30859C1.70764 18.2357 2.18961 18.9669 2.74297 19.6369Z" fill="#D80027"/>
<path d="M11.998 24.0002C14.5666 24.0002 16.9464 23.1926 18.8983 21.8184H5.09766C7.04953 23.1926 9.42938 24.0002 11.998 24.0002Z" fill="#D80027"/>
<path d="M0.452734 8.72728C0.25389 9.43041 0.118281 10.1599 0.0507812 10.9091H12.0009V0C6.50809 0 1.87736 3.69056 0.452734 8.72728Z" fill="#0052B4"/>
<path d="M7.14308 3.13086L7.92003 5.52219H10.4347L8.40041 7.00025L9.17731 9.39172L7.14308 7.91375L5.10875 9.39172L5.88584 7.00025L3.85156 5.52219H6.36608L7.14308 3.13086Z" fill="#F0F0F0"/>
</g>
<defs>
<clipPath id="clip0_4203_56530">
<rect width="24" height="24" fill="white"/>
</clipPath>
</defs>
</svg>
