<svg width="204" height="203" viewBox="0 0 204 203" fill="none" xmlns="http://www.w3.org/2000/svg">
<path d="M111.181 38.8517C111.181 38.8517 97.5882 69.3608 61.6408 62.3717C25.6935 55.3826 4.0353 104.554 38.0204 122.483C72.0056 140.411 48.453 161.007 71.1188 171.528C96.8801 183.485 106.486 143.502 125.465 147.216C167.351 155.412 193.261 141.356 181.805 122.441C161.694 89.2374 147.092 90.4598 153.026 69.018C158.96 47.5763 125.448 14.6595 111.181 38.8517Z" fill="#F1E5FF"/>
<path d="M104.621 108.484C101.463 114.538 100.666 117.755 91.0846 123.761C91.0102 123.81 90.9544 123.882 90.9263 123.966C89.3956 128.712 86.8045 133.046 83.3495 136.641C83.3029 136.689 83.2702 136.749 83.2547 136.814C83.2393 136.879 83.2416 136.947 83.2616 137.01C84.3339 140.579 85.4946 147.014 82.2653 152.287C77.5188 160.052 74.0032 155.364 74.7354 153.606C75.3623 152.1 80.7184 148.865 79.4819 140.784C79.4715 140.72 79.4446 140.659 79.4039 140.608C79.3632 140.556 79.3099 140.516 79.2493 140.492C79.1886 140.467 79.1227 140.458 79.0577 140.466C78.9927 140.475 78.9309 140.499 78.8783 140.538C74.9961 143.356 70.5402 145.283 65.8282 146.182C65.7759 146.19 65.726 146.21 65.6818 146.239C65.6377 146.268 65.6002 146.307 65.5719 146.352C65.5437 146.397 65.5253 146.447 65.5179 146.499C65.5106 146.552 65.5145 146.605 65.5293 146.656C66.7307 150.958 67.2991 157.679 62.2829 163.861C59.605 167.084 56.0538 162.373 59.605 159.162C61.8082 157.175 61.6383 151.462 60.607 147.061C60.5873 146.976 60.5385 146.9 60.469 146.846C60.3995 146.793 60.3136 146.765 60.226 146.768C60.021 146.774 59.8099 146.774 59.605 146.774C52.3568 146.785 45.31 144.389 39.5698 139.964C39.5173 139.923 39.455 139.896 39.389 139.887C39.3231 139.877 39.2558 139.885 39.1937 139.909C39.1316 139.933 39.0769 139.973 39.035 140.025C38.993 140.077 38.9653 140.138 38.9545 140.204C37.5773 149.299 43.0449 152.446 43.8241 154.778C44.6914 157.386 42.6989 159.706 40.2436 159.05C40.1904 159.034 40.1407 159.008 40.0972 158.974C32.0925 152.961 32.7898 140.362 33.6688 134.297C33.6768 134.248 33.6742 134.197 33.661 134.149C33.6479 134.1 33.6245 134.055 33.5925 134.016C29.1162 128.256 26.6927 121.165 26.7071 113.87C26.7071 100.491 34.6942 88.9764 46.1622 83.8373C46.163 83.8373 46.1637 83.8372 46.1645 83.8369C46.1652 83.8366 46.1658 83.8362 46.1664 83.8357C46.1669 83.8351 46.1674 83.8345 46.1677 83.8337C46.168 83.833 46.1681 83.8323 46.1681 83.8315C47.9319 81.5985 50.0825 78.4403 50.4108 76.2253C50.4216 76.1502 50.4546 76.0801 50.5054 76.0239C50.5563 75.9677 50.6228 75.9279 50.6964 75.9096C50.77 75.8914 50.8473 75.8955 50.9186 75.9214C50.9898 75.9474 51.0517 75.994 51.0963 76.0553C51.9402 77.1921 53.247 79.3603 52.9599 81.6457C52.9481 81.7218 52.9423 81.7979 52.9305 81.8742C52.9071 82.0032 52.8778 82.1262 52.8485 82.2551C52.8192 82.3548 52.7957 82.4543 52.7606 82.554C53.1704 82.212 53.5615 81.8482 53.932 81.464C54.7934 80.5792 55.8834 79.249 56.3522 77.825C56.3744 77.7491 56.4195 77.6818 56.4815 77.6326C56.5435 77.5834 56.6192 77.5545 56.6982 77.5501C56.7772 77.5456 56.8556 77.5658 56.9227 77.6077C56.9898 77.6497 57.0423 77.7114 57.0728 77.7844C57.3773 78.5345 57.735 79.5834 57.8581 80.6558C57.8687 80.7519 57.9148 80.8407 57.9874 80.9046C58.06 80.9686 58.1539 81.0031 58.2507 81.0015C58.7019 80.9839 59.1531 80.9722 59.6044 80.9722C77.776 80.9722 92.508 95.7042 92.508 113.87C92.508 114.286 92.5021 114.696 92.4845 115.106C92.4819 115.169 92.4946 115.231 92.5215 115.288C92.5485 115.345 92.5888 115.394 92.639 115.431C92.6892 115.469 92.7478 115.493 92.8097 115.503C92.8716 115.513 92.935 115.508 92.9943 115.487C94.9515 114.802 97.4186 113.149 98.907 109.217C101.691 101.892 101.984 99.8413 101.105 94.1278C100.226 88.4142 104.474 88.7077 105.353 90.6118C106.232 92.5159 108.137 101.745 104.621 108.484Z" fill="#8837E9"/>
<path d="M46.7516 116.756C46.6396 116.756 46.5307 116.719 46.442 116.65C46.3533 116.582 46.2897 116.486 46.2613 116.377C46.0403 115.412 45.9928 114.416 46.1211 113.434C46.4097 111.3 47.5708 109.732 49.4791 108.898C50.7262 108.354 51.905 108.322 52.9827 108.805C55.1916 109.795 56.132 112.602 56.171 112.721C56.2088 112.848 56.1956 112.985 56.1343 113.102C56.0729 113.219 55.9683 113.307 55.8426 113.349C55.7169 113.39 55.5802 113.38 55.4614 113.322C55.3426 113.264 55.2513 113.162 55.2068 113.037C55.1988 113.013 54.3623 110.533 52.5645 109.73C51.7596 109.37 50.8584 109.404 49.8857 109.828C48.3067 110.519 47.38 111.767 47.1315 113.54C47.018 114.4 47.056 115.274 47.2438 116.121C47.2776 116.251 47.2583 116.39 47.1902 116.506C47.122 116.622 47.0106 116.706 46.8804 116.74C46.8383 116.751 46.7951 116.756 46.7516 116.756Z" fill="white"/>
<path d="M62.0521 112.107C61.9458 112.106 61.8422 112.073 61.7559 112.011C61.6696 111.949 61.605 111.861 61.5712 111.76C61.288 110.816 61.1759 109.828 61.2403 108.844C61.39 106.705 62.4473 105.071 64.2977 104.118C65.5092 103.495 66.6852 103.388 67.7937 103.801C70.0571 104.643 71.1759 107.366 71.2224 107.481C71.2712 107.606 71.2688 107.744 71.2158 107.867C71.1629 107.99 71.0636 108.087 70.9395 108.137C70.8154 108.187 70.6766 108.186 70.5533 108.134C70.43 108.082 70.3321 107.984 70.2809 107.86C70.2708 107.837 69.2782 105.434 67.4358 104.751C66.6071 104.443 65.7079 104.534 64.7623 105.021C63.2316 105.809 62.3881 107.108 62.2552 108.884C62.1979 109.746 62.2923 110.61 62.5343 111.439C62.5594 111.515 62.5662 111.597 62.5539 111.676C62.5416 111.755 62.5107 111.831 62.4637 111.896C62.4166 111.961 62.3548 112.014 62.2833 112.051C62.2118 112.087 62.1327 112.106 62.0523 112.107H62.0521Z" fill="white"/>
<path d="M60.7614 122.723C57.3072 122.723 54.6735 120.424 54.5416 120.307C54.4918 120.263 54.4512 120.209 54.4221 120.149C54.3929 120.09 54.3759 120.024 54.372 119.958C54.368 119.891 54.3772 119.825 54.399 119.762C54.4209 119.699 54.4549 119.641 54.4991 119.591C54.5434 119.541 54.597 119.5 54.657 119.471C54.7169 119.442 54.782 119.425 54.8485 119.421C54.9151 119.417 54.9817 119.426 55.0447 119.448C55.1077 119.47 55.1658 119.504 55.2156 119.548C55.2502 119.579 58.7282 122.602 62.6441 121.434C66.5417 120.273 67.6106 115.324 67.621 115.274C67.6495 115.144 67.7282 115.03 67.8402 114.957C67.9522 114.884 68.0884 114.858 68.2192 114.885C68.3501 114.912 68.465 114.99 68.5391 115.101C68.6133 115.212 68.6406 115.348 68.6151 115.479C68.3738 116.504 67.9959 117.492 67.4914 118.417C66.3772 120.471 64.8017 121.851 62.9341 122.407C62.229 122.617 61.4971 122.724 60.7614 122.723Z" fill="white"/>
<path d="M170.16 100.135C170.117 101.237 170.005 102.335 169.825 103.423C167.378 118.39 153.268 128.535 138.302 126.088C123.34 123.642 113.19 109.532 115.637 94.5647C115.793 93.6106 115.999 92.6768 116.243 91.7661C105.142 84.2277 105.791 69.6912 107.918 68.0796C110.067 66.4477 112.414 67.8228 112.169 72.337C111.916 78.8926 115.952 84.314 118.191 86.6754C123.432 76.2267 135.015 69.9142 147.16 71.8995C158.946 73.8261 167.738 82.9884 169.752 94.1004C171.949 93.3017 175.829 90.9968 178.972 84.4447C179.411 83.1389 179.532 82.1791 179.556 81.6009C179.571 81.0608 179.782 80.5448 180.149 80.1482C180.837 79.4293 182.054 78.6663 183.626 79.8379C183.984 80.1052 184.272 80.4543 184.467 80.856C184.661 81.2577 184.757 81.7002 184.745 82.1465C184.647 85.6875 181.813 94.303 170.16 100.135Z" fill="#AA75E9"/>
<path d="M153.834 104.989C153.141 109.228 147.311 111.802 140.816 110.74C134.316 109.678 129.609 105.381 130.302 101.142C130.434 100.353 130.742 99.6032 131.204 98.9497C131.331 98.7727 131.52 98.6509 131.733 98.6094C131.947 98.5679 132.168 98.6097 132.351 98.7264C134.678 100.183 138.361 101.468 142.611 102.163C146.521 102.802 150.14 102.812 152.774 102.312C152.989 102.271 153.211 102.314 153.394 102.432C153.578 102.55 153.709 102.734 153.761 102.946C153.919 103.616 153.944 104.31 153.834 104.989Z" fill="white"/>
<path d="M141.509 96.5796C141.435 96.5797 141.362 96.5637 141.295 96.5329C141.229 96.502 141.169 96.457 141.122 96.4009C141.074 96.3449 141.039 96.2791 141.019 96.2081C140.999 96.1372 140.995 96.0628 141.007 95.9901C141.178 94.9481 140.927 93.881 140.311 93.0237C139.694 92.1664 138.762 91.5891 137.72 91.4188C136.678 91.2484 135.611 91.4991 134.754 92.1155C133.897 92.7319 133.319 93.6636 133.149 94.7057C133.127 94.8385 133.054 94.9573 132.944 95.0358C132.835 95.1144 132.699 95.1463 132.566 95.1246C132.433 95.1029 132.315 95.0293 132.236 94.92C132.157 94.8107 132.126 94.6747 132.147 94.5418C132.361 93.2341 133.086 92.0649 134.161 91.2913C135.237 90.5177 136.576 90.2033 137.884 90.417C139.192 90.6308 140.361 91.3553 141.135 92.4312C141.908 93.507 142.223 94.8461 142.009 96.1539C141.989 96.2726 141.929 96.3806 141.837 96.4585C141.745 96.5365 141.629 96.5794 141.509 96.5796Z" fill="white"/>
<path d="M153.685 98.5681C153.611 98.568 153.538 98.552 153.472 98.5211C153.405 98.4902 153.345 98.4451 153.298 98.3891C153.25 98.333 153.215 98.2673 153.195 98.1964C153.176 98.1255 153.171 98.0512 153.183 97.9786C153.349 96.9384 153.096 95.8748 152.48 95.0207C151.863 94.1666 150.934 93.5916 149.894 93.4217C148.854 93.2518 147.79 93.5007 146.934 94.1141C146.077 94.7274 145.499 95.6552 145.325 96.6941C145.314 96.76 145.291 96.8233 145.256 96.8801C145.221 96.937 145.175 96.9864 145.121 97.0254C145.067 97.0645 145.005 97.0925 144.94 97.1078C144.875 97.1232 144.808 97.1255 144.742 97.1147C144.676 97.104 144.613 97.0803 144.556 97.0451C144.5 97.0098 144.45 96.9638 144.411 96.9095C144.372 96.8552 144.345 96.7938 144.33 96.7287C144.314 96.6636 144.312 96.5963 144.323 96.5304C144.541 95.226 145.266 94.061 146.341 93.2907C147.416 92.5204 148.753 92.2076 150.058 92.4209C151.363 92.6343 152.53 93.3563 153.304 94.4288C154.077 95.5012 154.394 96.8367 154.185 98.1424C154.165 98.2611 154.105 98.3691 154.013 98.4471C153.921 98.5251 153.805 98.568 153.685 98.5681Z" fill="white"/>
</svg>
