<svg width="179" height="153" viewBox="0 0 179 153" fill="none" xmlns="http://www.w3.org/2000/svg">
<path d="M120.715 6.97813C120.715 6.97813 96.3479 37.8435 57.3602 19.4322C18.3725 1.0209 -20.6147 50.8393 12.9575 81.1631C46.5297 111.487 13.6768 128.15 36.4852 146.734C62.4083 167.856 84.9768 125.024 105.554 134.771C150.968 156.283 184.612 147.767 177.031 122.858C163.724 79.1342 146.707 76.2902 159.703 53.5469C172.699 30.8035 144.017 -16.484 120.715 6.97813Z" fill="#F1E5FF"/>
<path d="M118.252 63.4044C118.252 63.4044 143.052 61.794 144.984 37.3165C142.729 35.7061 139.509 26.044 144.984 25.0779C150.459 24.1117 154.324 25.0779 154.324 25.0779C154.324 25.0779 164.308 32.8075 151.747 38.6048C151.425 41.8256 151.103 70.4899 125.338 83.0507C99.572 95.6115 118.252 63.4044 118.252 63.4044Z" fill="#AA75E9"/>
<path d="M159.205 9.35694L149.262 7.54524C148.711 7.44475 148.182 7.81035 148.082 8.36184L144.499 28.0223C144.399 28.5738 144.764 29.1024 145.316 29.2029L155.258 31.0146C155.81 31.1151 156.338 30.7494 156.439 30.198L160.021 10.5375C160.122 9.98597 159.756 9.45743 159.205 9.35694Z" fill="#8837E9"/>
<path d="M130.724 81.1716C130.724 94.8145 124.682 107.053 115.123 115.363C106.895 122.504 96.3616 126.43 85.4664 126.416C69.3757 126.416 55.2561 118.029 47.2301 105.378C42.9001 98.5334 40.4861 90.6521 40.2397 82.5564C39.9933 74.4607 41.9237 66.4472 45.8294 59.3517C49.7351 52.2562 55.4731 46.3386 62.4449 42.2161C69.4167 38.0936 77.3669 35.9173 85.4664 35.9141C106.453 35.9141 124.115 50.2012 129.217 69.5898C130.224 73.3677 130.731 77.2616 130.724 81.1716V81.1716Z" fill="#AA75E9"/>
<path d="M115.123 115.359C106.895 122.501 96.362 126.426 85.4667 126.412C69.376 126.412 55.2565 118.026 47.2305 105.375C54.2903 99.5903 58.271 100.208 60.925 101.201C63.8236 102.296 65.4339 107.204 73.8078 102.373C82.1818 97.5419 88.9451 109.137 92.1658 111.069C105.049 110.142 111.761 112.885 115.123 115.359Z" fill="#8837E9"/>
<path d="M129.216 69.5897C110.085 74.1245 111.438 63.2385 109.557 56.6425C107.624 49.879 106.336 52.1334 94.4195 61.4739C82.5028 70.8143 81.2144 55.6766 80.9956 53.1001C80.7637 50.5235 80.2484 49.5578 74.129 50.3174C68.0097 51.077 66.3993 46.3366 61.2461 49.5573C59.1076 50.8971 56.1961 50.2916 53.5293 49.1193C57.7211 44.9241 62.7002 41.598 68.1807 39.3319C73.6613 37.0658 79.5354 35.9043 85.4659 35.9141C106.452 35.9139 124.115 50.2011 129.216 69.5897Z" fill="#8837E9"/>
</svg>
