<svg width="204" height="203" viewBox="0 0 204 203" fill="none" xmlns="http://www.w3.org/2000/svg">
<path d="M30.5895 153.988C36.1111 167.462 45.1142 170.266 51.444 167.462C63.6858 162.038 95.4854 155.978 128.145 170.222C171.4 189.089 180.604 160.624 166.799 131.831C152.994 103.038 148.315 73.9204 164.229 57.8782C180.144 41.836 159.318 16.7403 122.334 42.8632C98.433 59.7448 80.8926 55.9857 71.4735 51.2134C62.5964 46.7156 52.7239 42.0135 43.4743 45.6849C32.2509 50.14 27.8285 59.799 44.9044 81.3772C69.1023 111.955 18.2121 123.786 30.5895 153.988Z" fill="#F1E6FF"/>
<path d="M53.0742 88.3516H139.007V154.439C139.007 154.574 138.954 154.703 138.859 154.798C138.763 154.893 138.634 154.947 138.5 154.947H53.5817C53.4471 154.947 53.318 154.893 53.2229 154.798C53.1277 154.703 53.0742 154.574 53.0742 154.439V88.3516Z" fill="#AA75E9"/>
<path d="M117.449 62.4531H77.4924L53.0742 88.3512H139.007L117.449 62.4531Z" fill="#8837E9"/>
<path d="M61.2123 52.0938L77.491 62.453L53.0729 88.3511L34.5742 74.2921L61.2123 52.0938Z" fill="#9D5DE9"/>
<path d="M133.728 52.0938L117.449 62.453L139.007 88.3511L160.366 74.2921L133.728 52.0938Z" fill="#9D5DE9"/>
<path d="M87.99 52.6244C88.4494 52.4066 88.8068 52.0197 88.9875 51.5445C89.1683 51.0693 89.1584 50.5427 88.9599 50.0746L81.6368 32.8066C81.5331 32.562 81.381 32.3409 81.1896 32.1566C80.9983 31.9724 80.7716 31.8287 80.5233 31.7342C80.275 31.6397 80.0101 31.5965 79.7446 31.607C79.4792 31.6175 79.2186 31.6817 78.9785 31.7955L77.5677 32.4645C77.3276 32.5783 77.1131 32.7395 76.9369 32.9384C76.7607 33.1372 76.6266 33.3697 76.5426 33.6217C76.4585 33.8737 76.4263 34.1401 76.4479 34.4049C76.4695 34.6697 76.5444 34.9274 76.6681 35.1625L85.402 51.7615C85.6387 52.2114 86.0402 52.5524 86.5225 52.7132C87.0048 52.874 87.5306 52.8422 87.99 52.6244Z" fill="#8837E9"/>
<path d="M97.173 50.9481C97.5055 50.9245 97.8159 50.7732 98.0395 50.526C98.2631 50.2788 98.3825 49.9548 98.3729 49.6216L98.0111 37.3284C98.006 37.1542 97.9657 36.9829 97.8927 36.8248C97.8196 36.6666 97.7154 36.5248 97.5862 36.408C97.457 36.2911 97.3055 36.2016 97.1408 36.1448C96.9761 36.088 96.8016 36.0651 96.6279 36.0775L95.6065 36.1502C95.4328 36.1626 95.2634 36.21 95.1084 36.2895C94.9535 36.369 94.8162 36.479 94.7049 36.6129C94.5935 36.7468 94.5104 36.9018 94.4605 37.0686C94.4106 37.2355 94.3949 37.4107 94.4144 37.5837L95.7975 49.8043C95.8349 50.1356 95.9989 50.4397 96.2553 50.6528C96.5116 50.866 96.8405 50.9718 97.173 50.9481V50.9481Z" fill="#8837E9"/>
<path d="M104.26 55.4929C105.175 56.0216 106.458 55.5364 107.17 54.3928L119.814 34.0875C120.569 32.8745 120.39 31.396 119.42 30.8352L118.068 30.0537C117.098 29.4928 115.728 30.0752 115.053 31.3349L103.762 52.4217C103.126 53.6094 103.346 54.9641 104.26 55.4929Z" fill="#8837E9"/>
</svg>
