<svg width="54" height="54" viewBox="0 0 54 54" fill="none" xmlns="http://www.w3.org/2000/svg">
<rect width="54" height="54" rx="27" fill="url(#paint0_linear_1116_9837)"/>
<path d="M13.2139 34.7856V36.3571C13.2139 36.9488 13.6936 37.4285 14.2853 37.4285C14.8771 37.4285 15.3568 36.9488 15.3568 36.3571V34.7856H13.2139Z" fill="#008BFF"/>
<path d="M38.6426 34.7856V36.3571C38.6426 36.9488 39.1223 37.4285 39.714 37.4285C40.3058 37.4285 40.7855 36.9488 40.7855 36.3571V34.7856H38.6426Z" fill="#008BFF"/>
<path d="M42 26.2856H12V33.9999H42V26.2856Z" fill="#008BFF"/>
<path d="M36.659 16.5715H17.3401C16.4513 16.5715 15.7139 17.2286 15.7139 18.1173V21.0019L17.1179 21C17.1027 20.9286 17.0947 20.8653 17.0947 20.7858C17.0947 20.1447 17.6144 19.6429 18.2554 19.6429H35.7439C36.385 19.6429 36.9046 20.1447 36.9046 20.7858C36.9046 20.8653 36.8966 20.9286 36.8814 21H38.2854V18.1172C38.2853 17.2286 37.5478 16.5715 36.659 16.5715Z" fill="#008BFF"/>
<path d="M38.7546 22.7803H15.2354L13.917 24.7142H40.0834L38.7546 22.7803Z" fill="#008BFF"/>
<defs>
<linearGradient id="paint0_linear_1116_9837" x1="9.03475e-07" y1="44.01" x2="54" y2="13.77" gradientUnits="userSpaceOnUse">
<stop stop-color="#DBDBDB"/>
<stop offset="1" stop-color="#F1F1F1"/>
</linearGradient>
</defs>
</svg>
