<svg width="25" height="35" viewBox="0 0 25 35" fill="none" xmlns="http://www.w3.org/2000/svg">
<g clip-path="url(#clip0_1116_7986)">
<path d="M41.2145 -12.0911C46.234 -7.97536 46.9516 -0.544819 42.8149 4.47219L19.6589 32.5543C18.609 33.8277 16.7261 34.0122 15.452 32.9675C14.1779 31.9229 13.9972 30.0449 15.0472 28.7714L38.2031 0.689378C40.2444 -1.78576 39.8902 -5.45131 37.4138 -7.48227C34.9374 -9.51324 31.2624 -9.15161 29.2211 -6.67647C28.1712 -5.40303 26.2883 -5.21856 25.0147 -6.26179C23.7407 -7.3064 23.56 -9.18446 24.6085 -10.4573C28.7466 -15.4749 36.1949 -16.2069 41.2145 -12.0911Z" fill="url(#paint0_radial_1116_7986)"/>
<path d="M23.9063 27.4012L21.274 30.5926L14.4427 29.9988C14.543 29.5625 14.7409 29.1404 15.0454 28.7706L16.693 26.7734L23.9063 27.4012ZM21.3088 21.1766L18.6765 24.368L25.8898 24.9959L28.5221 21.8045L21.3088 21.1766ZM25.9246 15.5799L23.2923 18.7713L30.5056 19.3991L33.1379 16.2078L25.9246 15.5799ZM30.5398 9.9818L27.9076 13.1732L35.1209 13.801L37.7531 10.6097L30.5398 9.9818ZM35.1542 4.38563L32.522 7.577L39.7353 8.20486L42.3675 5.01348L35.1542 4.38563ZM39.6926 -6.09539C39.4445 -5.88345 39.2012 -5.6879 38.9624 -5.50541C39.3845 -4.61937 39.5736 -3.64169 39.5181 -2.66932C41.3811 -2.73792 43.5947 -3.09331 45.4466 -4.15922C45.3283 -5.37617 45.0179 -6.57263 44.5264 -7.70473C43.3001 -6.57335 41.3805 -6.18576 39.6926 -6.09539ZM38.209 -9.35278C38.0663 -8.55811 37.8675 -7.87145 37.641 -7.28643C38.2076 -6.77058 38.6488 -6.16431 38.9618 -5.5068C39.1993 -5.68873 39.444 -5.88483 39.6921 -6.09678C40.843 -7.07724 42.0712 -8.38975 43.1286 -10.101C42.5815 -10.8227 41.9446 -11.4941 41.2136 -12.0939C41.0166 -12.2551 40.8135 -12.4075 40.6093 -12.5545C39.8948 -11.23 39.044 -10.1779 38.209 -9.35278ZM34.9004 -10.3294C35.1096 -9.72544 35.2434 -9.13635 35.3185 -8.57693C36.0637 -8.36601 36.7772 -8.00394 37.4134 -7.48372C37.4908 -7.41962 37.5673 -7.35359 37.641 -7.28643C37.867 -7.87284 38.0663 -8.55811 38.209 -9.35278C38.4271 -10.569 38.513 -12.0431 38.3625 -13.8173C37.2239 -14.3009 36.0286 -14.5991 34.8233 -14.7081C35.0836 -12.8732 35.0588 -11.4364 34.9004 -10.3294ZM31.8641 -8.49195C32.9742 -8.86341 34.1822 -8.89717 35.3191 -8.57554C35.244 -9.13496 35.1102 -9.72405 34.901 -10.3281C34.4143 -11.7391 33.52 -13.2319 32.0202 -14.6308C30.6678 -14.433 29.3493 -14.0007 28.1269 -13.3444C30.6954 -11.6852 31.5945 -9.86097 31.8641 -8.49195ZM23.9556 -8.95129C25.7127 -8.31888 27.4373 -7.22251 28.7599 -6.22628C28.9257 -6.35702 29.081 -6.50609 29.2218 -6.67514C29.8646 -7.4556 30.6712 -8.02455 31.5501 -8.37605C30.2226 -9.44923 28.2197 -10.874 25.95 -11.8345C25.4748 -11.4189 25.0248 -10.9604 24.6101 -10.4579C24.2398 -10.0103 24.0272 -9.48725 23.9556 -8.95129ZM41.1276 -1.09694C40.4677 -1.12293 39.8424 -1.19173 39.2694 -1.28309C39.0519 -0.582517 38.6997 0.088193 38.2033 0.689322L37.287 1.79983C38.2866 2.03298 39.508 2.23868 40.8565 2.30173C42.0583 2.35743 43.217 2.29344 44.3277 2.11338C44.9089 0.916276 45.2708 -0.352557 45.4213 -1.63673C44.1081 -1.21949 42.6775 -1.03549 41.1276 -1.09694Z" fill="url(#paint1_linear_1116_7986)"/>
</g>
<defs>
<radialGradient id="paint0_radial_1116_7986" cx="0" cy="0" r="1" gradientUnits="userSpaceOnUse" gradientTransform="translate(24.9424 7.63862) rotate(-140.647) scale(19.8884 19.923)">
<stop offset="0.025" stop-color="white"/>
<stop offset="0.5712" stop-color="#EEF4F7"/>
<stop offset="1" stop-color="#E6EFF4"/>
</radialGradient>
<linearGradient id="paint1_linear_1116_7986" x1="46.6059" y1="-4.15707" x2="7.75802" y2="18.5652" gradientUnits="userSpaceOnUse">
<stop stop-color="#FF3333"/>
<stop offset="0.1817" stop-color="#FC3232"/>
<stop offset="0.3143" stop-color="#F33131"/>
<stop offset="0.4315" stop-color="#E32D2D"/>
<stop offset="0.5396" stop-color="#CC2929"/>
<stop offset="0.6415" stop-color="#AF2323"/>
<stop offset="0.7389" stop-color="#8C1C1C"/>
<stop offset="0.8326" stop-color="#611313"/>
<stop offset="0.9211" stop-color="#310A0A"/>
<stop offset="1"/>
</linearGradient>
<clipPath id="clip0_1116_7986">
<rect width="39.9171" height="42.4758" fill="white" transform="translate(40.3008 -18.295) rotate(68.2033)"/>
</clipPath>
</defs>
</svg>
