<svg width="54" height="30" viewBox="0 0 54 30" fill="none" xmlns="http://www.w3.org/2000/svg">
<g clip-path="url(#clip0_1116_7985)">
<path d="M41.0517 6.4822C45.8939 10.8052 46.2987 18.2593 41.9549 23.0981L17.6396 50.1826C16.5371 51.4108 14.6481 51.516 13.419 50.4188C12.19 49.3216 12.0883 47.4376 13.1908 46.2094L37.5061 19.1249C39.6496 16.7377 39.4496 13.0605 37.0607 10.9273C34.6718 8.7941 30.9849 9.00102 28.8414 11.3882C27.7389 12.6164 25.8499 12.7216 24.6214 11.6258C23.3923 10.5286 23.2907 8.64463 24.3917 7.41692C28.737 2.57763 36.2094 2.15921 41.0517 6.4822Z" fill="url(#paint0_radial_1116_7985)"/>
<path d="M22.0998 45.2126L19.3358 48.2905L12.5355 47.4103C12.6539 46.9786 12.8694 46.5651 13.1892 46.2084L14.9192 44.2822L22.0998 45.2126ZM19.7661 38.8844L17.0021 41.9623L24.1827 42.8927L26.9466 39.8147L19.7661 38.8844ZM24.6129 33.4865L21.8489 36.5645L29.0295 37.4948L31.7935 34.4168L24.6129 33.4865ZM29.4593 28.0872L26.6953 31.1652L33.8758 32.0955L36.6398 29.0175L29.4593 28.0872ZM34.3047 22.6898L31.5407 25.7678L38.7213 26.6981L41.4852 23.6201L34.3047 22.6898ZM39.2794 12.4087C39.0226 12.61 38.7713 12.7952 38.525 12.9675C38.9096 13.8705 39.0574 14.8552 38.9611 15.8244C40.8253 15.8341 43.0519 15.5721 44.947 14.5849C44.8799 13.364 44.62 12.1556 44.1765 11.0038C42.9038 12.0827 40.9696 12.3893 39.2794 12.4087ZM37.9339 9.09186C37.758 9.87983 37.5305 10.5575 37.2796 11.1325C37.824 11.6717 38.2394 12.296 38.5245 12.9661C38.7694 12.7943 39.0221 12.6086 39.2789 12.4073C40.47 11.476 41.7523 10.2163 42.8806 8.55096C42.3643 7.80688 41.7562 7.10937 41.051 6.47933C40.861 6.31 40.6645 6.1493 40.4666 5.99383C39.6971 7.28712 38.8029 8.30255 37.9339 9.09186ZM34.6693 7.97706C34.853 8.58933 34.9619 9.18351 35.0134 9.7456C35.7491 9.98763 36.4468 10.3794 37.0605 10.9259C37.1351 10.9931 37.2088 11.0623 37.2796 11.1325C37.53 10.5561 37.758 9.87983 37.9339 9.09186C38.2029 7.88591 38.3507 6.4167 38.2749 4.63776C37.1576 4.10677 35.9758 3.75858 34.7762 3.599C34.9592 5.44323 34.874 6.87775 34.6693 7.97706ZM31.5585 9.68538C32.6832 9.36088 33.8916 9.3779 35.0139 9.74701C34.9624 9.18492 34.8535 8.59074 34.6698 7.97847C34.2428 6.54825 33.412 5.01917 31.9723 3.55854C30.6128 3.69936 29.2773 4.07583 28.0284 4.68023C30.5249 6.44584 31.3467 8.30625 31.5585 9.68538ZM23.6762 8.89421C25.4053 9.59988 27.0822 10.7677 28.3618 11.8186C28.533 11.695 28.6944 11.5526 28.8422 11.3896C29.5172 10.6368 30.347 10.1023 31.2399 9.78798C29.9587 8.65999 28.0174 7.15238 25.79 6.09736C25.2977 6.49256 24.8289 6.93182 24.3935 7.41638C24.0046 7.84808 23.7703 8.36174 23.6762 8.89421ZM40.5032 17.463C39.8449 17.4093 39.223 17.3143 38.6544 17.199C38.4077 17.8898 38.0276 18.5451 37.5064 19.1249L36.5442 20.1959C37.5332 20.4708 38.7448 20.7277 40.0895 20.8473C41.2879 20.9534 42.4483 20.9382 43.5656 20.8049C44.1965 19.6333 44.6114 18.3808 44.8157 17.1041C43.4862 17.4658 42.049 17.5895 40.5032 17.463Z" fill="url(#paint1_linear_1116_7985)"/>
</g>
<defs>
<radialGradient id="paint0_radial_1116_7985" cx="0" cy="0" r="1" gradientUnits="userSpaceOnUse" gradientTransform="translate(23.9651 25.5109) rotate(-138.24) scale(19.8884 19.923)">
<stop offset="0.025" stop-color="white"/>
<stop offset="0.5712" stop-color="#EEF4F7"/>
<stop offset="1" stop-color="#E6EFF4"/>
</radialGradient>
<linearGradient id="paint1_linear_1116_7985" x1="46.1051" y1="14.6357" x2="6.33699" y2="35.706" gradientUnits="userSpaceOnUse">
<stop stop-color="#FF3333"/>
<stop offset="0.1817" stop-color="#FC3232"/>
<stop offset="0.3143" stop-color="#F33131"/>
<stop offset="0.4315" stop-color="#E32D2D"/>
<stop offset="0.5396" stop-color="#CC2929"/>
<stop offset="0.6415" stop-color="#AF2323"/>
<stop offset="0.7389" stop-color="#8C1C1C"/>
<stop offset="0.8326" stop-color="#611313"/>
<stop offset="0.9211" stop-color="#310A0A"/>
<stop offset="1"/>
</linearGradient>
<clipPath id="clip0_1116_7985">
<rect width="39.9171" height="42.4758" fill="white" transform="translate(40.3994 0.245361) rotate(70.611)"/>
</clipPath>
</defs>
</svg>
