<svg width="54" height="54" viewBox="0 0 54 54" fill="none" xmlns="http://www.w3.org/2000/svg">
<rect width="54" height="54" rx="27" fill="url(#paint0_linear_1116_9771)"/>
<g clip-path="url(#clip0_1116_9771)">
<path d="M41.6389 22.5714L28.3632 16.4604C27.9326 16.2621 27.4739 16.162 27 16.162C26.5261 16.162 26.0675 16.2621 25.6368 16.4604L12.3611 22.5714C12.1417 22.6728 12 22.8939 12 23.1355C12 23.377 12.1417 23.5981 12.3611 23.6995L25.6368 29.8105C26.0674 30.0089 26.5261 30.1094 27 30.1094C27.4739 30.1094 27.9326 30.0089 28.3633 29.8105L38.8406 24.9879V29.8442C38.4248 29.8911 38.1005 30.245 38.1005 30.6726C38.1005 31.0452 38.3471 31.3678 38.6985 31.4705L37.99 36.1458H41.2523L40.5439 31.4705C40.8952 31.3678 41.1418 31.0452 41.1418 30.6726C41.1418 30.245 40.8175 29.8911 40.4017 29.8442V24.2691L41.639 23.6995C41.8584 23.5981 42.0001 23.377 42.0001 23.1355C42.0001 22.8939 41.8583 22.6728 41.6389 22.5714Z" fill="#00E117"/>
<path d="M27.0004 32.3222C26.3415 32.3222 25.703 32.1821 25.1028 31.9059L18.6094 28.9166V34.872C18.6094 36.1794 22.5601 37.8381 27.0004 37.8381C31.4408 37.8381 35.3916 36.1794 35.3916 34.872V28.9166L28.8978 31.9059C28.298 32.1821 27.6596 32.3222 27.0004 32.3222Z" fill="#00E117"/>
</g>
<defs>
<linearGradient id="paint0_linear_1116_9771" x1="9.03475e-07" y1="44.01" x2="54" y2="13.77" gradientUnits="userSpaceOnUse">
<stop stop-color="#DBDBDB"/>
<stop offset="1" stop-color="#F1F1F1"/>
</linearGradient>
<clipPath id="clip0_1116_9771">
<rect width="30" height="30" fill="white" transform="translate(12 12)"/>
</clipPath>
</defs>
</svg>
