<svg width="40" height="40" viewBox="0 0 40 40" fill="none" xmlns="http://www.w3.org/2000/svg">
<path fill-rule="evenodd" clip-rule="evenodd" d="M31.1787 11.1784C31.8295 10.5276 31.8295 9.47228 31.1787 8.82141C30.5278 8.17053 29.4725 8.17053 28.8217 8.82141L20.0002 17.6429L11.1787 8.82141C10.5278 8.17053 9.47253 8.17053 8.82165 8.82141C8.17078 9.47228 8.17078 10.5276 8.82165 11.1784L17.6431 19.9999L8.82165 28.8214C8.17078 29.4723 8.17078 30.5276 8.82165 31.1784C9.47253 31.8293 10.5278 31.8293 11.1787 31.1784L20.0002 22.3569L28.8217 31.1784C29.4725 31.8293 30.5278 31.8293 31.1787 31.1784C31.8295 30.5276 31.8295 29.4723 31.1787 28.8214L22.3572 19.9999L31.1787 11.1784Z" fill="#C5C6D0"/>
</svg>
