<svg width="40" height="40" viewBox="0 0 40 40" fill="none" xmlns="http://www.w3.org/2000/svg">
<rect x="0.5" y="0.5" width="39" height="39" rx="19.5" fill="white"/>
<rect x="0.5" y="0.5" width="39" height="39" rx="19.5" stroke="#E9E9E9"/>
<path d="M26.3007 13.7107C25.9107 13.3207 25.2807 13.3207 24.8907 13.7107L20.0007 18.5907L15.1107 13.7007C14.7207 13.3107 14.0907 13.3107 13.7007 13.7007C13.3107 14.0907 13.3107 14.7207 13.7007 15.1107L18.5907 20.0007L13.7007 24.8907C13.3107 25.2807 13.3107 25.9107 13.7007 26.3007C14.0907 26.6907 14.7207 26.6907 15.1107 26.3007L20.0007 21.4107L24.8907 26.3007C25.2807 26.6907 25.9107 26.6907 26.3007 26.3007C26.6907 25.9107 26.6907 25.2807 26.3007 24.8907L21.4107 20.0007L26.3007 15.1107C26.6807 14.7307 26.6807 14.0907 26.3007 13.7107Z" fill="black"/>
</svg>
