<svg width="54" height="54" viewBox="0 0 54 54" fill="none" xmlns="http://www.w3.org/2000/svg">
<rect width="54" height="54" rx="27" fill="url(#paint0_linear_1116_9806)"/>
<path d="M35.6288 18.8269C35.5486 18.8269 35.4689 18.8288 35.3897 18.8321V18.8278H18.8564V29.7239C18.8564 30.5066 19.1673 31.2572 19.7207 31.8106C20.274 32.3641 21.0246 32.6751 21.8072 32.6752H32.438C33.2207 32.6749 33.9712 32.3639 34.5246 31.8105C35.078 31.2571 35.389 30.5066 35.3893 29.7239V28.9477C35.468 28.951 35.5477 28.9538 35.6279 28.9538C38.5336 28.9538 40.8891 26.7671 40.8891 23.8622C40.8896 20.9569 38.5341 18.8269 35.6288 18.8269ZM35.6288 26.9485C35.5486 26.9485 35.4689 26.9442 35.3897 26.9386V20.8191C35.468 20.8144 35.5486 20.8107 35.6288 20.8107C37.3894 20.8107 38.8168 22.1016 38.8168 23.8627C38.8168 25.6238 37.3899 26.9485 35.6288 26.9485Z" fill="#FF9600"/>
<path d="M41.4712 33.3118V33.414C41.471 34.1966 41.1601 34.9471 40.6068 35.5005C40.0535 36.0539 39.303 36.365 38.5204 36.3652H15.5582C14.7756 36.3651 14.025 36.0541 13.4717 35.5006C12.9183 34.9472 12.6074 34.1966 12.6074 33.414V33.3118H41.4716H41.4712Z" fill="#FF9600"/>
<defs>
<linearGradient id="paint0_linear_1116_9806" x1="9.03475e-07" y1="44.01" x2="54" y2="13.77" gradientUnits="userSpaceOnUse">
<stop stop-color="#DBDBDB"/>
<stop offset="1" stop-color="#F1F1F1"/>
</linearGradient>
</defs>
</svg>
