<svg width="54" height="54" viewBox="0 0 54 54" fill="none" xmlns="http://www.w3.org/2000/svg">
<rect width="54" height="54" rx="4" fill="url(#paint0_linear_337_1385)"/>
<path fill-rule="evenodd" clip-rule="evenodd" d="M35 28V31C35 33.2091 31.4183 35 27 35C22.6799 35 19.1596 33.2878 19.0053 31.1466L19 31V28L19.0053 28.1466C19.1596 30.2878 22.6799 32 27 32C31.4183 32 35 30.2091 35 28ZM19.0053 23.1466C19.1596 25.2878 22.6799 27 27 27C31.4183 27 35 25.2091 35 23V26L34.9989 26.0661C34.9283 28.2448 31.3741 30 27 30C22.6799 30 19.1596 28.2878 19.0053 26.1466L19 26V23L19.0053 23.1466ZM27 17C31.3201 17 34.8404 18.7122 34.9947 20.8534L35 21L34.9989 21.0661C34.9283 23.2448 31.3741 25 27 25C22.6799 25 19.1596 23.2878 19.0053 21.1466L19 21C19 18.7909 22.5817 17 27 17Z" fill="white"/>
<defs>
<linearGradient id="paint0_linear_337_1385" x1="14.2196" y1="11.2645" x2="42.1875" y2="47.4404" gradientUnits="userSpaceOnUse">
<stop stop-color="#FFA800"/>
<stop offset="0.938927" stop-color="#FFC838"/>
</linearGradient>
</defs>
</svg>
