<svg width="20" height="22" viewBox="0 0 20 22" fill="none" xmlns="http://www.w3.org/2000/svg">
<path d="M16.75 11.4961C15.7577 11.4961 14.884 11.9843 14.338 12.7268L10.7733 10.7461L14.338 8.76534C14.884 9.50784 15.757 9.99609 16.75 9.99609C18.4067 9.99609 19.75 8.65284 19.75 6.99609C19.75 5.33934 18.4067 3.99609 16.75 3.99609C15.0933 3.99609 13.75 5.33934 13.75 6.99609C13.75 7.39059 13.831 7.76559 13.969 8.11134L10.375 10.1086V6.20859C11.8525 6.02184 13 4.77459 13 3.24609C13 1.58934 11.6567 0.246094 10 0.246094C8.34325 0.246094 7 1.58934 7 3.24609C7 4.77459 8.1475 6.02184 9.625 6.20859V10.1086L6.03025 8.11134C6.169 7.76559 6.25 7.39059 6.25 6.99609C6.25 5.33934 4.90675 3.99609 3.25 3.99609C1.59325 3.99609 0.25 5.33934 0.25 6.99609C0.25 8.65284 1.59325 9.99609 3.25 9.99609C4.243 9.99609 5.116 9.50784 5.662 8.76534L9.22675 10.7461L5.66125 12.7268C5.116 11.9843 4.243 11.4961 3.25 11.4961C1.59325 11.4961 0.25 12.8393 0.25 14.4961C0.25 16.1528 1.59325 17.4961 3.25 17.4961C4.90675 17.4961 6.25 16.1528 6.25 14.4961C6.25 14.1016 6.169 13.7266 6.03025 13.3808L9.625 11.3836V15.2836C8.1475 15.4703 7 16.7176 7 18.2461C7 19.9028 8.34325 21.2461 10 21.2461C11.6567 21.2461 13 19.9028 13 18.2461C13 16.7176 11.8525 15.4703 10.375 15.2836V11.3836L13.9697 13.3808C13.831 13.7258 13.75 14.1008 13.75 14.4961C13.75 16.1528 15.0933 17.4961 16.75 17.4961C18.4067 17.4961 19.75 16.1528 19.75 14.4961C19.75 12.8393 18.4067 11.4961 16.75 11.4961Z" fill="#8837E9"/>
</svg>
