<svg width="54" height="54" viewBox="0 0 54 54" fill="none" xmlns="http://www.w3.org/2000/svg">
<rect width="54" height="54" rx="27" fill="url(#paint0_linear_337_1361)"/>
<path fill-rule="evenodd" clip-rule="evenodd" d="M15.75 25C15.75 22.1997 15.75 20.7996 16.295 19.73C16.7743 18.7892 17.5392 18.0243 18.4801 17.545C19.5496 17 20.9497 17 23.75 17H30.25C33.0503 17 34.4504 17 35.52 17.545C36.4608 18.0243 37.2256 18.7892 37.705 19.73C38.25 20.7996 38.25 22.1997 38.25 25V26.5C38.25 29.3002 38.25 30.7004 37.705 31.77C37.2256 32.7107 36.4608 33.4756 35.52 33.955C34.4504 34.5 33.0503 34.5 30.25 34.5H21.2678C20.9362 34.5 20.6183 34.6317 20.3839 34.8661L17.8839 37.3661C17.0964 38.1536 15.75 37.5959 15.75 36.4822V34.5V28.25V25ZM23.25 22C22.5596 22 22 22.5596 22 23.25C22 23.9403 22.5596 24.5 23.25 24.5H30.75C31.4404 24.5 32 23.9403 32 23.25C32 22.5596 31.4404 22 30.75 22H23.25ZM23.25 27C22.5596 27 22 27.5596 22 28.25C22 28.9404 22.5596 29.5 23.25 29.5H27C27.6904 29.5 28.25 28.9404 28.25 28.25C28.25 27.5596 27.6904 27 27 27H23.25Z" fill="url(#paint1_linear_337_1361)"/>
<defs>
<linearGradient id="paint0_linear_337_1361" x1="9.03475e-07" y1="44.01" x2="54" y2="13.77" gradientUnits="userSpaceOnUse">
<stop stop-color="#DBDBDB"/>
<stop offset="1" stop-color="#F1F1F1"/>
</linearGradient>
<linearGradient id="paint1_linear_337_1361" x1="15.75" y1="33.8988" x2="37.3352" y2="20.782" gradientUnits="userSpaceOnUse">
<stop stop-color="#37B6F2"/>
<stop offset="1" stop-color="#31C6FE"/>
</linearGradient>
</defs>
</svg>
