<svg width="44" height="36" viewBox="0 0 44 36" fill="none" xmlns="http://www.w3.org/2000/svg">
<rect x="5.5" y="1.5" width="33" height="33" rx="16.5" fill="white"/>
<rect x="5.5" y="1.5" width="33" height="33" rx="16.5" stroke="#EAECF0"/>
<path d="M20.334 20.5L20.334 18" stroke="#B42318" stroke-width="1.6" stroke-linecap="round"/>
<path d="M23.666 20.5L23.666 18" stroke="#B42318" stroke-width="1.6" stroke-linecap="round"/>
<path d="M14.5 13.833H29.5V13.833C29.0353 13.833 28.803 13.833 28.6098 13.8714C27.8164 14.0293 27.1962 14.6494 27.0384 15.4428C27 15.636 27 15.8684 27 16.333V20.6663C27 22.552 27 23.4948 26.4142 24.0806C25.8284 24.6663 24.8856 24.6663 23 24.6663H21C19.1144 24.6663 18.1716 24.6663 17.5858 24.0806C17 23.4948 17 22.552 17 20.6663V16.333C17 15.8684 17 15.636 16.9616 15.4428C16.8038 14.6494 16.1836 14.0293 15.3902 13.8714C15.197 13.833 14.9647 13.833 14.5 13.833V13.833Z" stroke="#B42318" stroke-width="1.6" stroke-linecap="round"/>
<path d="M20.3895 10.8088C20.4844 10.7202 20.6937 10.6419 20.9847 10.5861C21.2758 10.5303 21.6325 10.5 21.9993 10.5C22.3662 10.5 22.7229 10.5303 23.014 10.5861C23.305 10.6419 23.5143 10.7202 23.6092 10.8088" stroke="#B42318" stroke-width="1.6" stroke-linecap="round"/>
</svg>
