<svg width="18" height="18" viewBox="0 0 18 18" fill="none" xmlns="http://www.w3.org/2000/svg">
<rect width="18" height="18" rx="9" fill="url(#paint0_linear_296_1711)"/>
<ellipse cx="8.16671" cy="7.33333" rx="2.08333" ry="2.08333" fill="#1C64F2"/>
<path d="M11.9166 8.16675L11.9166 10.6667" stroke="#1C64F2" stroke-linecap="round"/>
<path d="M13.1666 9.41675L10.6666 9.41675" stroke="#1C64F2" stroke-linecap="round"/>
<path d="M11.1426 12.4927C11.3349 12.4492 11.4503 12.2492 11.3651 12.0714C11.1351 11.5918 10.7573 11.1704 10.2675 10.8527C9.66481 10.4619 8.92637 10.25 8.16671 10.25C7.40704 10.25 6.6686 10.4619 6.06592 10.8527C5.57615 11.1704 5.19828 11.5918 4.96836 12.0714C4.8831 12.2492 4.99847 12.4492 5.19082 12.4927C7.14994 12.9364 9.18348 12.9364 11.1426 12.4927Z" fill="#1C64F2"/>
<defs>
<linearGradient id="paint0_linear_296_1711" x1="3.01158e-07" y1="14.67" x2="18" y2="4.59" gradientUnits="userSpaceOnUse">
<stop stop-color="#DBDBDB"/>
<stop offset="1" stop-color="#F1F1F1"/>
</linearGradient>
</defs>
</svg>
