<svg width="54" height="54" viewBox="0 0 54 54" fill="none" xmlns="http://www.w3.org/2000/svg">
<rect width="54" height="54" rx="4" fill="url(#paint0_linear_337_1421)"/>
<path fill-rule="evenodd" clip-rule="evenodd" d="M26 22H20C19.0572 22 18.5858 22 18.2929 22.2929C18 22.5858 18 23.0572 18 24V25C18 25.9428 18 26.4142 18.2929 26.7071C18.5858 27 19.0572 27 20 27H21H26V22ZM21 29V33C21 33.9428 21 34.4142 21.2929 34.7071C21.5858 35 22.0572 35 23 35H26V29H21ZM28 35H31C31.9428 35 32.4142 35 32.7071 34.7071C33 34.4142 33 33.9428 33 33V29H28V35ZM33 27H34C34.9428 27 35.4142 27 35.7071 26.7071C36 26.4142 36 25.9428 36 25V24C36 23.0572 36 22.5858 35.7071 22.2929C35.4142 22 34.9428 22 34 22H28V27H33Z" fill="white"/>
<path d="M34 18.6325V18.4503C34 17.2449 32.819 16.3937 31.6754 16.7749C30.2448 17.2517 28.9449 18.0551 27.8786 19.1214L27 20V21H30.6754C30.8904 21 31.104 20.9653 31.3079 20.8974L32.7026 20.4325C33.4774 20.1742 34 19.4491 34 18.6325Z" fill="white"/>
<path d="M20 18.6325V18.4503C20 17.2449 21.181 16.3937 22.3246 16.7749C23.7552 17.2517 25.0551 18.0551 26.1214 19.1214L27 20V21H23.3246C23.1096 21 22.896 20.9653 22.6921 20.8974L21.2974 20.4325C20.5226 20.1742 20 19.4491 20 18.6325Z" fill="white"/>
<defs>
<linearGradient id="paint0_linear_337_1421" x1="27" y1="0" x2="27" y2="54" gradientUnits="userSpaceOnUse">
<stop stop-color="#FF2D6C"/>
<stop offset="1" stop-color="#991B41"/>
</linearGradient>
</defs>
</svg>
