<svg width="24" height="25" viewBox="0 0 24 25" fill="none" xmlns="http://www.w3.org/2000/svg">
<path d="M3 11.5V11.5C3 12.4319 3 12.8978 3.15224 13.2654C3.35523 13.7554 3.74458 14.1448 4.23463 14.3478C4.60218 14.5 5.06812 14.5 6 14.5H6.67544C7.25646 14.5 7.54696 14.5 7.77888 14.6338C7.83745 14.6675 7.89245 14.7072 7.94303 14.7521C8.14326 14.9298 8.23513 15.2054 8.41886 15.7566L8.54415 16.1325C8.76416 16.7925 8.87416 17.1225 9.13605 17.3112C9.39794 17.5 9.7458 17.5 10.4415 17.5H13.5585C14.2542 17.5 14.6021 17.5 14.864 17.3112C15.1258 17.1225 15.2358 16.7925 15.4558 16.1325L15.5811 15.7566C15.7649 15.2054 15.8567 14.9298 16.057 14.7521C16.1075 14.7072 16.1625 14.6675 16.2211 14.6338C16.453 14.5 16.7435 14.5 17.3246 14.5H18C18.9319 14.5 19.3978 14.5 19.7654 14.3478C20.2554 14.1448 20.6448 13.7554 20.8478 13.2654C21 12.8978 21 12.4319 21 11.5V11.5" stroke="white" stroke-width="2"/>
<path d="M8.5 10L12 12.5M12 12.5L15.5 10M12 12.5L12 6.5" stroke="white" stroke-width="2"/>
<path d="M21 19.5V5.5C21 4.39543 20.1046 3.5 19 3.5H5C3.89543 3.5 3 4.39543 3 5.5V19.5C3 20.6046 3.89543 21.5 5 21.5H19C20.1046 21.5 21 20.6046 21 19.5Z" stroke="white" stroke-width="2"/>
</svg>
