<svg width="54" height="54" viewBox="0 0 54 54" fill="none" xmlns="http://www.w3.org/2000/svg">
<rect width="54" height="54" rx="27" fill="url(#paint0_linear_1116_9756)"/>
<path d="M14.1638 31.8776C13.9742 31.734 14.0014 31.4958 14.0014 31.4958L15.0518 19C15.0518 19 15.0682 18.8624 15.1294 18.792C15.168 18.748 15.2168 18.684 15.3088 18.6464C16.3652 18.2144 22.1074 15.1038 25 18C25.4794 18.5554 25.9998 19.3752 25.9998 20V30.5758C25.9998 30.5758 26.0122 30.8002 25.8092 30.936C25.7614 30.968 25.5612 31.0592 25.3252 30.9412C20.8746 28.7144 15.9032 31.2504 14.649 31.9154C14.3974 32.0488 14.2012 31.9062 14.1638 31.8776ZM39.3507 31.9154C38.0965 31.2504 33.1252 28.7144 28.6746 30.9412C28.4386 31.0592 28.2384 30.968 28.1906 30.936C27.9878 30.8002 28.0002 30.5758 28.0002 30.5758V20C28.0002 19.3752 28.5206 18.5554 29 18C31.8926 15.1038 37.5982 18.2142 38.6546 18.6464C38.7466 18.684 38.7954 18.748 38.834 18.792C38.8952 18.8624 38.9116 19 38.9116 19L39.9986 31.4958C39.9986 31.4958 40.0258 31.734 39.8362 31.8776C39.7988 31.9062 39.6026 32.0488 39.3507 31.9154ZM29.7294 37.3726C29.7998 37.3556 29.9222 37.284 29.9652 37.2176C30.0124 37.1448 30.0408 37.0942 30.0498 37C30.1488 35.1242 33.2987 33.3762 39.3451 36.9404C39.5002 37.0286 39.6784 37.0196 39.8302 36.9094C40.0028 36.784 40 36.5718 40 36.5718V35.4634C40 35.4634 40.0006 35.3106 39.9456 35.2266C39.9046 35.1642 39.8504 35.098 39.7604 35.055C35.7096 32.426 30.5888 31.2606 27.9896 34.7366C27.9534 34.8212 27.919 34.8592 27.844 34.9176C27.7308 35.0056 27.5928 35 27.5928 35H26.4218C26.4218 35 26.2838 35.0056 26.1706 34.9176C26.0956 34.8592 26.0612 34.8212 26.025 34.7366C23.4258 31.2606 18.305 32.371 14.2542 35C14.1642 35.043 14.11 35.1092 14.069 35.1716C14.014 35.2556 14.0146 35.4084 14.0146 35.4084V36.5168C14.0146 36.5168 14.0118 36.729 14.1844 36.8544C14.3362 36.9646 14.5144 36.9736 14.6694 36.8854C20.7158 33.3212 23.8658 35.1242 23.9648 37C23.9738 37.0942 24.0022 37.1448 24.0494 37.2176C24.0924 37.284 24.2148 37.3556 24.2852 37.3726C25.729 37.7312 27.8224 37.8726 29.7294 37.3726Z" fill="#FF86A3"/>
<defs>
<linearGradient id="paint0_linear_1116_9756" x1="9.03475e-07" y1="44.01" x2="54" y2="13.77" gradientUnits="userSpaceOnUse">
<stop stop-color="#DBDBDB"/>
<stop offset="1" stop-color="#F1F1F1"/>
</linearGradient>
</defs>
</svg>
