<svg width="54" height="54" viewBox="0 0 54 54" fill="none" xmlns="http://www.w3.org/2000/svg">
<rect width="54" height="54" rx="27" fill="url(#paint0_linear_1116_9822)"/>
<path d="M15.9217 22.0401C16.3447 22.0401 16.7636 22.1235 17.1544 22.2854C17.5452 22.4474 17.9002 22.6847 18.1993 22.9839C18.4983 23.2832 18.7355 23.6384 18.8972 24.0293C19.0589 24.4202 19.1419 24.8391 19.1417 25.2621V30.1741H34.8557V25.2601C34.8561 24.6558 35.0265 24.0638 35.3475 23.5518C35.6685 23.0398 36.127 22.6284 36.6708 22.3648C37.2146 22.1011 37.8215 21.9958 38.4223 22.0608C39.0231 22.1259 39.5935 22.3587 40.0682 22.7327C40.5429 23.1066 40.9028 23.6066 41.1068 24.1754C41.3107 24.7443 41.3505 25.3591 41.2215 25.9494C41.0925 26.5398 40.8 27.082 40.3774 27.514C39.9547 27.9459 39.4191 28.2502 38.8317 28.3921V37.6601C38.8312 37.9119 38.7309 38.1532 38.5529 38.3313C38.3748 38.5093 38.1335 38.6096 37.8817 38.6101H16.1177C15.8659 38.6096 15.6246 38.5093 15.4465 38.3313C15.2685 38.1532 15.1682 37.9119 15.1677 37.6601V28.3921C14.4001 28.2089 13.7265 27.7501 13.2748 27.1029C12.8231 26.4558 12.6249 25.6653 12.7177 24.8815C12.8104 24.0978 13.1878 23.3755 13.7781 22.8517C14.3684 22.3278 15.1325 22.039 15.9217 22.0401ZM18.0397 20.2521C17.891 20.1893 17.7395 20.1333 17.5857 20.0841V17.3381C17.5867 16.7509 17.8202 16.1879 18.2351 15.7723C18.6499 15.3567 19.2125 15.1222 19.7997 15.1201H34.1957C34.7833 15.1217 35.3463 15.356 35.7616 15.7716C36.1769 16.1873 36.4106 16.7505 36.4117 17.3381V20.0841C36.2579 20.1332 36.1064 20.1893 35.9577 20.2521C34.9728 20.668 34.1325 21.3652 33.542 22.2563C32.9515 23.1475 32.6369 24.1931 32.6377 25.2621V27.9561H21.3597V25.2621C21.3597 24.1932 21.0448 23.148 20.4544 22.257C19.8639 21.366 19.0241 20.6687 18.0397 20.2521Z" fill="#FF4900"/>
<defs>
<linearGradient id="paint0_linear_1116_9822" x1="9.03475e-07" y1="44.01" x2="54" y2="13.77" gradientUnits="userSpaceOnUse">
<stop stop-color="#DBDBDB"/>
<stop offset="1" stop-color="#F1F1F1"/>
</linearGradient>
</defs>
</svg>
