<svg width="54" height="54" viewBox="0 0 54 54" fill="none" xmlns="http://www.w3.org/2000/svg">
<rect width="54" height="54" rx="27" fill="url(#paint0_linear_337_3405)"/>
<g clip-path="url(#clip0_337_3405)">
<path d="M36.4082 16.125H30.4082C30.1683 15.4121 29.7108 14.7925 29.1 14.3536C28.4893 13.9147 27.7561 13.6786 27.004 13.6786C26.2519 13.6786 25.5188 13.9147 24.908 14.3536C24.2972 14.7925 23.8397 15.4121 23.5998 16.125H17.8332C17.6291 16.0954 17.4211 16.1095 17.2228 16.1663C17.0246 16.2231 16.8407 16.3213 16.6832 16.4544C16.5257 16.5875 16.3982 16.7524 16.3091 16.9384C16.2201 17.1244 16.1715 17.3271 16.1665 17.5333V38.8833C16.1676 39.0693 16.2053 39.2533 16.2775 39.4248C16.3497 39.5963 16.455 39.7518 16.5873 39.8826C16.7196 40.0134 16.8764 40.1168 17.0487 40.187C17.221 40.2572 17.4055 40.2927 17.5915 40.2916H36.4082C36.5942 40.2927 36.7786 40.2572 36.9509 40.187C37.1232 40.1168 37.28 40.0134 37.4124 39.8826C37.5447 39.7518 37.6499 39.5963 37.7222 39.4248C37.7944 39.2533 37.8321 39.0693 37.8332 38.8833V17.5333C37.8321 17.3472 37.7944 17.1632 37.7222 16.9918C37.6499 16.8203 37.5447 16.6648 37.4124 16.534C37.28 16.4032 37.1232 16.2998 36.9509 16.2296C36.7786 16.1594 36.5942 16.1239 36.4082 16.125ZM21.4082 18.625C21.4082 18.4039 21.496 18.192 21.6522 18.0357C21.8085 17.8794 22.0205 17.7916 22.2415 17.7916H25.1082V17.2666C25.1082 16.755 25.3114 16.2643 25.6732 15.9025C26.035 15.5407 26.5257 15.3375 27.0373 15.3375C27.549 15.3375 28.0397 15.5407 28.4015 15.9025C28.7633 16.2643 28.9665 16.755 28.9665 17.2666V17.8333H31.8332C32.0542 17.8333 32.2661 17.9211 32.4224 18.0774C32.5787 18.2336 32.6665 18.4456 32.6665 18.6666V20.1666H21.3748L21.4082 18.625ZM33.5082 26.3166L25.9082 33.9166L21.5415 29.55C21.3205 29.3289 21.1963 29.0292 21.1963 28.7166C21.1963 28.4041 21.3205 28.1043 21.5415 27.8833C21.7625 27.6623 22.0623 27.5381 22.3748 27.5381C22.6874 27.5381 22.9872 27.6623 23.2082 27.8833L25.9248 30.6L31.8748 24.65C32.0959 24.4289 32.3956 24.3048 32.7082 24.3048C33.0207 24.3048 33.3205 24.4289 33.5415 24.65C33.7625 24.871 33.8867 25.1707 33.8867 25.4833C33.8867 25.7958 33.7625 26.0956 33.5415 26.3166H33.5082Z" fill="#8837E9"/>
</g>
<defs>
<linearGradient id="paint0_linear_337_3405" x1="9.03475e-07" y1="44.01" x2="54" y2="13.77" gradientUnits="userSpaceOnUse">
<stop stop-color="#DBDBDB"/>
<stop offset="1" stop-color="#F1F1F1"/>
</linearGradient>
<clipPath id="clip0_337_3405">
<rect width="30" height="30" fill="white" transform="translate(12 12)"/>
</clipPath>
</defs>
</svg>
