<svg width="54" height="54" viewBox="0 0 54 54" fill="none" xmlns="http://www.w3.org/2000/svg">
<rect width="54" height="54" rx="4" fill="#FDA629"/>
<path fill-rule="evenodd" clip-rule="evenodd" d="M22.0044 21H24C24.5523 21 25 21.4477 25 22C25 22.5523 24.5523 23 24 23H22V26H24C24.5523 26 25 26.4477 25 27C25 27.5523 24.5523 28 24 28H22V31H24C24.5523 31 25 31.4477 25 32C25 32.5523 24.5523 33 24 33H22.0508C22.1147 33.6501 22.2592 34.0876 22.5858 34.4142C23.1716 35 24.1144 35 26 35H31C32.8857 35 33.8285 35 34.4143 34.4142C35 33.8284 35 32.8856 35 31V22C35 20.1144 35 19.1716 34.4143 18.5858C33.8285 18 32.8857 18 31 18H26C24.1144 18 23.1716 18 22.5858 18.5858C22.1143 19.0573 22.0223 19.7602 22.0044 21ZM31 25C30.4477 25 30 24.5523 30 24V22C30 21.4477 30.4477 21 31 21C31.5523 21 32 21.4477 32 22V24C32 24.5523 31.5523 25 31 25ZM20 21.5C19.7239 21.5 19.5 21.7239 19.5 22C19.5 22.2761 19.7239 22.5 20 22.5H24C24.2761 22.5 24.5 22.2761 24.5 22C24.5 21.7239 24.2761 21.5 24 21.5H20ZM20 26.5C19.7239 26.5 19.5 26.7239 19.5 27C19.5 27.2761 19.7239 27.5 20 27.5H24C24.2761 27.5 24.5 27.2761 24.5 27C24.5 26.7239 24.2761 26.5 24 26.5H20ZM20 31.5C19.7239 31.5 19.5 31.7239 19.5 32C19.5 32.2761 19.7239 32.5 20 32.5H24C24.2761 32.5 24.5 32.2761 24.5 32C24.5 31.7239 24.2761 31.5 24 31.5H20Z" fill="white"/>
</svg>
