<svg width="18" height="18" viewBox="0 0 18 18" fill="none" xmlns="http://www.w3.org/2000/svg">
<rect width="18" height="18" rx="9" fill="url(#paint0_linear_296_1539)"/>
<path fill-rule="evenodd" clip-rule="evenodd" d="M7.00048 6.33341H7.75006C8.30235 6.33341 8.75006 6.78113 8.75006 7.33341C8.75006 7.8857 8.30235 8.33341 7.75006 8.33341H6.91673V8.41675H7.75006C8.30235 8.41675 8.75006 8.86446 8.75006 9.41675C8.75006 9.96903 8.30235 10.4167 7.75006 10.4167H6.91673V10.5001H7.75006C8.30235 10.5001 8.75006 10.9478 8.75006 11.5001C8.75006 12.0524 8.30235 12.5001 7.75006 12.5001H7.25625C7.55223 12.7501 8.02239 12.7501 8.91673 12.7501H10.3334C11.2762 12.7501 11.7476 12.7501 12.0405 12.4572C12.3334 12.1643 12.3334 11.6929 12.3334 10.7501V7.66675C12.3334 6.72394 12.3334 6.25253 12.0405 5.95964C11.7476 5.66675 11.2762 5.66675 10.3334 5.66675H8.91673C7.97392 5.66675 7.50251 5.66675 7.20962 5.95964C7.10969 6.05957 7.04385 6.18029 7.00048 6.33341ZM10.6667 8.66675C10.3906 8.66675 10.1667 8.44289 10.1667 8.16675V7.33341C10.1667 7.05727 10.3906 6.83341 10.6667 6.83341C10.9428 6.83341 11.1667 7.05727 11.1667 7.33341V8.16675C11.1667 8.44289 10.9428 8.66675 10.6667 8.66675ZM6.08337 6.83341C5.80723 6.83341 5.58337 7.05727 5.58337 7.33341C5.58337 7.60956 5.80723 7.83341 6.08337 7.83341H7.75004C8.02618 7.83341 8.25004 7.60956 8.25004 7.33341C8.25004 7.05727 8.02618 6.83341 7.75004 6.83341H6.08337ZM6.08337 8.91675C5.80723 8.91675 5.58337 9.14061 5.58337 9.41675C5.58337 9.69289 5.80723 9.91675 6.08337 9.91675H7.75004C8.02618 9.91675 8.25004 9.69289 8.25004 9.41675C8.25004 9.14061 8.02618 8.91675 7.75004 8.91675H6.08337ZM6.08337 11.0001C5.80723 11.0001 5.58337 11.2239 5.58337 11.5001C5.58337 11.7762 5.80723 12.0001 6.08337 12.0001H7.75004C8.02618 12.0001 8.25004 11.7762 8.25004 11.5001C8.25004 11.2239 8.02618 11.0001 7.75004 11.0001H6.08337Z" fill="#FDA629"/>
<defs>
<linearGradient id="paint0_linear_296_1539" x1="3.01158e-07" y1="14.67" x2="18" y2="4.59" gradientUnits="userSpaceOnUse">
<stop stop-color="#DBDBDB"/>
<stop offset="1" stop-color="#F1F1F1"/>
</linearGradient>
</defs>
</svg>
