<svg width="54" height="54" viewBox="0 0 54 54" fill="none" xmlns="http://www.w3.org/2000/svg">
<rect width="54" height="54" rx="27" fill="url(#paint0_linear_1116_9791)"/>
<path d="M16.2612 37.9999C15.8062 37.9678 15.376 37.7964 15.0115 37.5013C14.8787 37.3942 14.6597 37.1597 14.5588 37.0183C14.3832 36.7738 14.2488 36.4526 14.1873 36.1376L14.1595 35.9897V32.4097V28.8296H18.9767H23.7939V30.0474C23.7939 31.3877 23.7948 31.3177 23.8818 31.5039C23.9889 31.7338 24.223 31.9335 24.4737 32.0104C24.5487 32.034 24.6622 32.034 27.0152 32.034H29.4773L29.5866 31.9976C29.8567 31.9054 30.0977 31.6609 30.1897 31.3841L30.2218 31.2919V30.0611V28.83H35.0394H39.8569V32.4367V36.0433L39.8269 36.1762C39.7562 36.4839 39.6512 36.7337 39.4937 36.9682C39.3116 37.2375 39.1004 37.4494 38.8304 37.6309C38.4906 37.8598 38.1639 37.9695 37.7301 38.0008C37.5111 38.0222 16.499 38.0222 16.2668 37.9999H16.2612ZM25.1668 29.7457V28.83H27.0047H28.8429V29.7457V30.6615H27.0047H25.1668V29.7457ZM14.1548 24.5531C14.1548 21.4099 14.1548 21.6262 14.2298 21.3313C14.3433 20.8828 14.6565 20.4225 15.0531 20.1169C15.3352 19.8999 15.618 19.7685 15.9741 19.689L16.1348 19.6526H18.8188H21.5026V18.3754V17.0983L21.5326 16.9912C21.6719 16.4996 22.0815 16.1119 22.5704 16.0067C22.6775 15.9832 22.869 15.9832 27.0163 15.9832H31.3498L31.4783 16.0196C32.0366 16.1739 32.4293 16.623 32.4981 17.1851C32.4981 17.2558 32.5195 17.7444 32.5195 18.4759V19.6541H35.1138C36.9055 19.6541 37.7502 19.6541 37.8445 19.6755C38.3212 19.7269 38.7739 19.9404 39.1329 20.2841C39.5061 20.6415 39.7191 21.0176 39.8215 21.4995L39.8515 21.6452V24.555V27.4648H26.997H14.1426V24.5683L14.1548 24.5531ZM30.6745 18.7234V17.8009H27.0047H23.3352V18.7234V19.6457H27.0047H30.6745V18.7234Z" fill="#00B7FF"/>
<defs>
<linearGradient id="paint0_linear_1116_9791" x1="9.03475e-07" y1="44.01" x2="54" y2="13.77" gradientUnits="userSpaceOnUse">
<stop stop-color="#DBDBDB"/>
<stop offset="1" stop-color="#F1F1F1"/>
</linearGradient>
</defs>
</svg>
