<svg width="16" height="17" viewBox="0 0 16 17" fill="none" xmlns="http://www.w3.org/2000/svg">
<path d="M5.52727 16.873L4.14545 14.435L1.52727 13.8254L1.78182 11.0064L0 8.87305L1.78182 6.73971L1.52727 3.92067L4.14545 3.31114L5.52727 0.873047L8 1.97781L10.4727 0.873047L11.8545 3.31114L14.4727 3.92067L14.2182 6.73971L16 8.87305L14.2182 11.0064L14.4727 13.8254L11.8545 14.435L10.4727 16.873L8 15.7683L5.52727 16.873ZM7.23636 11.5778L11.3455 7.27305L10.3273 6.16828L7.23636 9.40638L5.67273 7.80638L4.65455 8.87305L7.23636 11.5778Z" fill="#3897F0"/>
<path d="M5.52727 16.873L4.14545 14.435L1.52727 13.8254L1.78182 11.0064L0 8.87305L1.78182 6.73971L1.52727 3.92067L4.14545 3.31114L5.52727 0.873047L8 1.97781L10.4727 0.873047L11.8545 3.31114L14.4727 3.92067L14.2182 6.73971L16 8.87305L14.2182 11.0064L14.4727 13.8254L11.8545 14.435L10.4727 16.873L8 15.7683L5.52727 16.873ZM7.23636 11.5778L11.3455 7.27305L10.3273 6.16828L7.23636 9.40638L5.67273 7.80638L4.65455 8.87305L7.23636 11.5778Z" fill="url(#paint0_linear_1116_7757)"/>
<defs>
<linearGradient id="paint0_linear_1116_7757" x1="8" y1="0.873047" x2="8" y2="16.873" gradientUnits="userSpaceOnUse">
<stop offset="0.245" stop-color="#3897F0"/>
<stop offset="1" stop-color="#8837E9" stop-opacity="0.8"/>
</linearGradient>
</defs>
</svg>
