<svg width="49" height="49" viewBox="0 0 49 49" fill="none" xmlns="http://www.w3.org/2000/svg">
<path fill-rule="evenodd" clip-rule="evenodd" d="M42.5898 6.19971C41.7445 17.7117 38.7445 26.0451 33.5898 31.1997C32.6757 32.1139 31.6747 32.9496 30.587 33.7068L30.587 38.1905L24.587 44.1905L20.9256 37.7832L11.0141 27.8707L4.58984 24.1997L10.5898 18.1997L15.0973 18.1997C15.8477 17.111 16.6786 16.111 17.5898 15.1997C22.7445 10.0451 31.0778 7.04505 42.5898 6.19971ZM17.3708 37.1098L20.1992 39.9382L15.9566 44.1809L13.1281 41.3525L17.3708 37.1098ZM13.1281 32.8672L15.9566 35.6956L8.88549 42.7667L6.05706 39.9382L13.1281 32.8672ZM8.88549 28.6245L11.7139 31.453L7.47128 35.6956L4.64285 32.8672L8.88549 28.6245ZM27.5898 18.1997C25.933 18.1997 24.5898 19.5429 24.5898 21.1997C24.5898 22.8566 25.933 24.1997 27.5898 24.1997C29.2467 24.1997 30.5898 22.8566 30.5898 21.1997C30.5898 19.5429 29.2467 18.1997 27.5898 18.1997Z" fill="#FD2945"/>
</svg>
