<svg width="49" height="49" viewBox="0 0 49 49" fill="none" xmlns="http://www.w3.org/2000/svg">
<path d="M12.4525 41.5485C14.2113 43.0219 16.2942 44.0575 18.5305 44.5705C18.7445 44.6405 18.8885 44.3605 18.7445 44.2205C13.9545 39.6505 16.5865 34.7045 18.5305 32.4745C19.9165 30.8825 21.8905 28.2605 21.7465 24.7445C21.7465 24.3925 22.1065 24.1105 22.3905 24.3225C25.1085 25.7285 26.9665 28.8225 27.4665 31.3525C28.2545 30.5805 28.5405 29.3845 28.5405 28.3305C28.5405 27.9785 28.9685 27.6965 29.3265 27.9785C31.9005 30.2985 36.3325 38.1725 29.1825 44.3585C29.0405 44.5005 29.1825 44.7825 29.3265 44.7125C31.4945 44.1441 33.5334 43.1651 35.3325 41.8285C46.9865 32.8285 39.4065 16.8685 34.4725 11.5965C33.8305 10.9625 32.6865 11.3845 32.6865 12.2985C32.6145 14.1985 32.0425 16.3065 30.5425 17.7125C29.3985 12.9325 25.5865 7.50248 20.1525 4.83048C19.4385 4.47848 18.5805 5.04048 18.6525 5.81448C18.7925 12.3545 14.5265 16.5185 10.8085 21.9325C7.51848 26.7825 5.37448 35.7125 12.4525 41.5485Z" fill="#FF6A00"/>
</svg>
