<svg width="64" height="64" viewBox="0 0 64 64" fill="none" xmlns="http://www.w3.org/2000/svg">
<g clip-path="url(#clip0_2731_42680)">
<rect width="64" height="64" rx="16" fill="url(#paint0_linear_2731_42680)" fill-opacity="0.9"/>
<g filter="url(#filter0_dd_2731_42680)">
<path d="M17.0698 33.7011L18.9979 33.6777C19.2479 33.6281 19.4973 33.578 19.7464 33.5279C22.7874 32.9169 25.66 32.3402 28.6773 32.5633C29.0034 32.5959 29.2561 32.7334 29.4288 32.972C29.7945 33.4776 29.8162 34.4257 29.4947 35.8724C29.1108 39.098 28.2716 42.1491 27.3717 45.2534L26.2001 55.4285C26.1656 55.7283 26.3613 55.9076 26.5394 55.9698C26.5928 55.9887 26.6539 56 26.7178 56C26.8668 56 27.0303 55.9374 27.1425 55.7581L39.6237 35.7764C39.6242 35.7757 39.6244 35.775 39.6249 35.7743C40.641 33.4202 41.6898 31.3243 42.8314 29.3676C43.2784 28.6225 43.6132 27.7119 43.7269 26.9318C43.8232 26.2701 43.8129 25.3719 43.2151 24.8512C42.4602 24.1936 41.0089 24.1882 39.3281 24.1821C37.9143 24.1769 36.3118 24.1712 35.0007 23.7247C34.3272 23.4953 34.0857 22.6937 34.2482 22.0826C34.6596 20.5371 36.3333 18.3803 36.6645 17.9636L36.6697 17.9571C36.6709 17.9556 36.6718 17.954 36.6723 17.9523L39.8056 8.67543C39.8623 8.50785 39.8295 8.32593 39.7177 8.18873C39.6062 8.05153 39.434 7.98261 39.2591 8.00376L20.1299 10.3307C19.8999 10.3587 19.717 10.5384 19.6849 10.7677L16.557 33.1185C16.5363 33.2664 16.581 33.4155 16.6797 33.5274C16.7784 33.6397 16.9207 33.7023 17.0698 33.7011Z" fill="#FBC3A7"/>
<path d="M18.9948 33.6802H18.995L28.1733 33.5711C28.2069 33.5713 28.2442 33.5742 28.2784 33.5812C28.522 33.6325 28.6841 33.8579 28.6556 34.1057L27.3717 45.2554C27.3707 45.2637 27.3763 45.2713 27.3844 45.2729C27.3854 45.2732 27.3865 45.2732 27.3876 45.2732C27.3945 45.2732 27.4009 45.2687 27.4029 45.2618C28.3027 42.1587 29.1422 39.1062 29.5262 35.8798C29.8495 34.4254 29.826 33.4688 29.4546 32.9554C29.2765 32.709 29.016 32.5672 28.68 32.5337C25.6578 32.3097 22.7832 32.8871 19.74 33.4988C19.4909 33.5486 19.2416 33.599 18.9917 33.6486C18.9835 33.6502 18.9781 33.6578 18.9789 33.6658C18.9798 33.6741 18.9867 33.6802 18.9948 33.6802Z" fill="#FDAC84"/>
<path d="M34.9903 23.7534C36.3063 24.2016 37.9115 24.2074 39.3279 24.2126C41.0023 24.2187 42.4484 24.2239 43.1943 24.8738C43.7809 25.3851 43.7904 26.2719 43.6952 26.9258C43.5822 27.7019 43.2489 28.608 42.8038 29.3498C41.6617 31.3079 40.6122 33.4048 39.5953 35.7603C39.5922 35.7679 39.5953 35.7768 39.6029 35.7806C39.605 35.7818 39.6076 35.7825 39.6102 35.7825C39.6154 35.7825 39.6206 35.7797 39.6237 35.775L47.37 23.3737C47.4626 23.2252 47.4735 23.0424 47.3991 22.8846C47.3237 22.7257 47.1763 22.6175 47.0043 22.5953C46.9802 22.5922 46.9539 22.5911 46.9305 22.591L35.7386 22.71H35.7331C35.5777 22.71 35.4366 22.6381 35.3452 22.5121C35.2528 22.3846 35.2285 22.226 35.2788 22.0767L36.6723 17.9508C36.6749 17.9434 36.6718 17.9354 36.665 17.9317C36.6581 17.9279 36.6496 17.9297 36.6449 17.9358L36.6397 17.9423C36.3075 18.3599 34.6303 20.5213 34.2173 22.0729C34.0512 22.6979 34.2995 23.5181 34.9903 23.7534Z" fill="#FDAC84"/>
</g>
</g>
<defs>
<filter id="filter0_dd_2731_42680" x="10.552" y="6" width="42.8961" height="60" filterUnits="userSpaceOnUse" color-interpolation-filters="sRGB">
<feFlood flood-opacity="0" result="BackgroundImageFix"/>
<feColorMatrix in="SourceAlpha" type="matrix" values="0 0 0 0 0 0 0 0 0 0 0 0 0 0 0 0 0 0 127 0" result="hardAlpha"/>
<feMorphology radius="2" operator="erode" in="SourceAlpha" result="effect1_dropShadow_2731_42680"/>
<feOffset dy="2"/>
<feGaussianBlur stdDeviation="2"/>
<feColorMatrix type="matrix" values="0 0 0 0 0.0627451 0 0 0 0 0.0941176 0 0 0 0 0.156863 0 0 0 0.06 0"/>
<feBlend mode="normal" in2="BackgroundImageFix" result="effect1_dropShadow_2731_42680"/>
<feColorMatrix in="SourceAlpha" type="matrix" values="0 0 0 0 0 0 0 0 0 0 0 0 0 0 0 0 0 0 127 0" result="hardAlpha"/>
<feMorphology radius="2" operator="erode" in="SourceAlpha" result="effect2_dropShadow_2731_42680"/>
<feOffset dy="4"/>
<feGaussianBlur stdDeviation="4"/>
<feColorMatrix type="matrix" values="0 0 0 0 0.0627451 0 0 0 0 0.0941176 0 0 0 0 0.156863 0 0 0 0.1 0"/>
<feBlend mode="normal" in2="effect1_dropShadow_2731_42680" result="effect2_dropShadow_2731_42680"/>
<feBlend mode="normal" in="SourceGraphic" in2="effect2_dropShadow_2731_42680" result="shape"/>
</filter>
<linearGradient id="paint0_linear_2731_42680" x1="32" y1="0" x2="32" y2="64" gradientUnits="userSpaceOnUse">
<stop stop-color="#FD4848"/>
<stop offset="0.527778" stop-color="#FF8244"/>
<stop offset="1" stop-color="#FFBA4A"/>
</linearGradient>
<clipPath id="clip0_2731_42680">
<rect width="64" height="64" rx="16" fill="white"/>
</clipPath>
</defs>
</svg>
