<svg width="40" height="40" viewBox="0 0 41 40" fill="none" xmlns="http://www.w3.org/2000/svg"><circle cx="15.4997" cy="14.9987" r="5.66667" stroke="#33363F" stroke-width="2" stroke-linecap="round"/><path d="M20.3689 14.668C20.8993 13.7492 21.773 13.0788 22.7977 12.8043C23.8224 12.5297 24.9143 12.6734 25.833 13.2039C26.7517 13.7343 27.4221 14.608 27.6967 15.6327C27.9713 16.6574 27.8275 17.7492 27.2971 18.668C26.7667 19.5867 25.893 20.2571 24.8683 20.5317C23.8436 20.8062 22.7517 20.6625 21.833 20.1321C20.9143 19.6016 20.2439 18.728 19.9693 17.7032C19.6947 16.6785 19.8385 15.5867 20.3689 14.668L20.3689 14.668Z" stroke="#33363F" stroke-width="2"/><path d="M23.834 25L23.834 24H23.834V25ZM30.2617 30.5625L31.2254 30.2956L31.2253 30.2952L30.2617 30.5625ZM23.6338 31.667L22.6535 31.8644L22.8151 32.667H23.6338V31.667ZM20.1338 26.1865L19.5286 25.3904L18.3729 26.269L19.6057 27.0357L20.1338 26.1865ZM23.834 25L23.834 26C25.6699 26 26.8813 26.7613 27.7177 27.7259C28.5811 28.7217 29.0548 29.9527 29.2981 30.8298L30.2617 30.5625L31.2253 30.2952C30.9431 29.2778 30.3662 27.7275 29.2288 26.4157C28.0643 25.0728 26.3246 24.0001 23.834 24L23.834 25ZM30.2617 30.5625L29.298 30.8294C29.2945 30.8169 29.2916 30.7914 29.2985 30.7604C29.3051 30.7313 29.3177 30.7091 29.3297 30.6946C29.3533 30.666 29.3733 30.667 29.3672 30.667V31.667V32.667C30.5381 32.667 31.5861 31.5976 31.2254 30.2956L30.2617 30.5625ZM29.3672 31.667V30.667H23.6338V31.667V32.667H29.3672V31.667ZM23.6338 31.667L24.6141 31.4695C24.2654 29.7384 23.3128 26.9861 20.6619 25.3374L20.1338 26.1865L19.6057 27.0357C21.5672 28.2557 22.3485 30.3503 22.6535 31.8644L23.6338 31.667ZM20.1338 26.1865L20.739 26.9826C21.4945 26.4082 22.4889 26 23.834 26V25V24C22.0437 24 20.6257 24.5564 19.5286 25.3904L20.1338 26.1865Z" fill="#33363F"/><path d="M15.5003 25C22.0375 25 23.4465 30.1281 23.7502 32.3387C23.8254 32.8859 23.3859 33.3333 22.8337 33.3333H8.16699C7.61471 33.3333 7.17527 32.8859 7.25044 32.3387C7.55415 30.1281 8.9632 25 15.5003 25Z" stroke="#33363F" stroke-width="2" stroke-linecap="round"/></svg>