<svg width="40" height="40" viewBox="0 0 41 40" fill="none" xmlns="http://www.w3.org/2000/svg">
<path d="M20.5 7.66797C23.6295 7.66814 26.166 10.2055 26.166 13.335C26.1658 16.4643 23.6294 19.0008 20.5 19.001C17.3705 19.001 14.8332 16.4644 14.833 13.335C14.833 10.2053 17.3704 7.66797 20.5 7.66797Z" stroke="black" stroke-width="2" stroke-linecap="round"/>
<path d="M25.3689 13C25.8993 12.0813 26.773 11.4109 27.7977 11.1363C28.8224 10.8617 29.9143 11.0055 30.833 11.5359C31.7517 12.0663 32.4221 12.94 32.6967 13.9647C32.9713 14.9894 32.8275 16.0813 32.2971 17C31.7667 17.9187 30.893 18.5891 29.8683 18.8637C28.8436 19.1383 27.7517 18.9945 26.833 18.4641C25.9143 17.9337 25.2439 17.06 24.9693 16.0353C24.6947 15.0106 24.8385 13.9187 25.3689 13L25.3689 13Z" stroke="black" stroke-width="2"/>
<path d="M8.70289 13C9.23332 12.0813 10.107 11.4109 11.1317 11.1363C12.1564 10.8617 13.2483 11.0055 14.167 11.5359C15.0857 12.0663 15.7561 12.94 16.0307 13.9647C16.3053 14.9894 16.1615 16.0813 15.6311 17C15.1007 17.9187 14.227 18.5891 13.2023 18.8637C12.1776 19.1383 11.0857 18.9945 10.167 18.4641C9.24826 17.9337 8.57786 17.06 8.30329 16.0353C8.02872 15.0106 8.17246 13.9187 8.70289 13L8.70289 13Z" stroke="black" stroke-width="2"/>
<path d="M28.834 23.332L28.834 22.332H28.834V23.332ZM35.2617 28.8945L36.2253 28.6273V28.6273L35.2617 28.8945ZM28.6338 29.999L27.6535 30.1965L27.8152 30.999H28.6338V29.999ZM25.1338 24.5186L24.5286 23.7225L23.3729 24.601L24.6057 25.3677L25.1338 24.5186ZM28.834 23.332L28.834 24.332C30.6699 24.3321 31.8813 25.0933 32.7177 26.058C33.5811 27.0538 34.0548 28.2847 34.2981 29.1618L35.2617 28.8945L36.2253 28.6273C35.9431 27.6098 35.3662 26.0596 34.2288 24.7478C33.0643 23.4048 31.3246 22.3321 28.834 22.332L28.834 23.332ZM35.2617 28.8945L34.2981 29.1618C34.2946 29.1493 34.2916 29.1238 34.2986 29.0927C34.3052 29.0634 34.3178 29.0411 34.3299 29.0266C34.3536 28.998 34.3735 28.999 34.3672 28.999V29.999V30.999C35.5378 30.999 36.5866 29.93 36.2253 28.6273L35.2617 28.8945ZM34.3672 29.999V28.999H28.6338V29.999V30.999H34.3672V29.999ZM28.6338 29.999L29.6141 29.8015C29.2654 28.0704 28.3128 25.318 25.6619 23.6694L25.1338 24.5186L24.6057 25.3677C26.5671 26.5876 27.3484 28.6822 27.6535 30.1965L28.6338 29.999ZM25.1338 24.5186L25.739 25.3147C26.4945 24.7403 27.489 24.332 28.834 24.332V23.332V22.332C27.0437 22.332 25.6257 22.8885 24.5286 23.7225L25.1338 24.5186Z" fill="black"/>
<path d="M12.166 23.332V22.332H12.166L12.166 23.332ZM15.8652 24.5186L16.3934 25.3677L17.6262 24.6008L16.4703 23.7224L15.8652 24.5186ZM12.3662 29.999V30.999H13.1848L13.3465 30.1965L12.3662 29.999ZM5.73828 28.8945L4.77466 28.6273L4.77466 28.6273L5.73828 28.8945ZM12.166 23.332V24.332C13.5104 24.332 14.5045 24.7404 15.2602 25.3147L15.8652 24.5186L16.4703 23.7224C15.3736 22.8889 13.9561 22.332 12.166 22.332V23.332ZM15.8652 24.5186L15.337 23.6694C12.6866 25.3182 11.7346 28.0707 11.3859 29.8015L12.3662 29.999L13.3465 30.1965C13.6516 28.6822 14.4325 26.5875 16.3934 25.3677L15.8652 24.5186ZM12.3662 29.999V28.999H6.63281V29.999V30.999H12.3662V29.999ZM6.63281 29.999V28.999C6.6265 28.999 6.64644 28.998 6.67012 29.0266C6.68216 29.0411 6.69481 29.0634 6.70138 29.0927C6.70836 29.1238 6.70537 29.1493 6.70191 29.1618L5.73828 28.8945L4.77466 28.6273C4.41335 29.93 5.46224 30.999 6.63281 30.999V29.999ZM5.73828 28.8945L6.7019 29.1618C6.94516 28.2847 7.41888 27.0538 8.2823 26.058C9.11875 25.0933 10.3301 24.3321 12.166 24.332L12.166 23.332L12.166 22.332C9.67546 22.3321 7.93568 23.4048 6.77124 24.7478C5.63379 26.0596 5.05686 27.6098 4.77466 28.6273L5.73828 28.8945Z" fill="black"/><path d="M20.5003 23.332C27.0375 23.332 28.4465 28.4601 28.7502 30.6708C28.8254 31.2179 28.3859 31.6654 27.8337 31.6654H13.167C12.6147 31.6654 12.1753 31.2179 12.2504 30.6708C12.5542 28.4601 13.9632 23.332 20.5003 23.332Z" stroke="black" stroke-width="2" stroke-linecap="round"/></svg>