<svg width="40" height="40" viewBox="0 0 40 40" fill="none" xmlns="http://www.w3.org/2000/svg"><path d="M13.3337 33.332L12.6266 34.0391L13.3337 34.7462L14.0408 34.0391L13.3337 33.332ZM16.667 7.66537C17.2193 7.66537 17.667 7.21765 17.667 6.66537C17.667 6.11308 17.2193 5.66537 16.667 5.66537L16.667 6.66537L16.667 7.66537ZM6.66699 26.6654L5.95989 27.3725L12.6266 34.0391L13.3337 33.332L14.0408 32.6249L7.3741 25.9583L6.66699 26.6654ZM13.3337 33.332L14.0408 34.0391L20.7074 27.3725L20.0003 26.6654L19.2932 25.9583L12.6266 32.6249L13.3337 33.332ZM13.3337 33.332L14.3337 33.332L14.3337 8.66536L13.3337 8.66536L12.3337 8.66536L12.3337 33.332L13.3337 33.332ZM15.3337 6.66537L15.3337 7.66537L16.667 7.66537L16.667 6.66537L16.667 5.66537L15.3337 5.66537L15.3337 6.66537ZM13.3337 8.66536L14.3337 8.66536C14.3337 8.11308 14.7814 7.66537 15.3337 7.66537L15.3337 6.66537L15.3337 5.66537C13.6768 5.66537 12.3337 7.00851 12.3337 8.66536L13.3337 8.66536Z" fill="white"/><path d="M26.6667 6.66797L25.9596 5.96086L26.6667 5.25375L27.3738 5.96086L26.6667 6.66797ZM26.6667 33.0013L25.6667 33.0013L25.6667 33.0013L26.6667 33.0013ZM23.3333 36.0013C22.781 36.0013 22.3333 35.5536 22.3333 35.0013C22.3333 34.449 22.781 34.0013 23.3333 34.0013L23.3333 35.0013L23.3333 36.0013ZM20 13.3346L19.2929 12.6275L25.9596 5.96086L26.6667 6.66797L27.3738 7.37507L20.7071 14.0417L20 13.3346ZM26.6667 6.66797L27.3738 5.96086L34.0404 12.6275L33.3333 13.3346L32.6262 14.0417L25.9596 7.37507L26.6667 6.66797ZM26.6667 6.66797L27.6667 6.66797L27.6667 33.0013L26.6667 33.0013L25.6667 33.0013L25.6667 6.66797L26.6667 6.66797ZM24.6667 35.0013L24.6667 36.0013L23.3333 36.0013L23.3333 35.0013L23.3333 34.0013L24.6667 34.0013L24.6667 35.0013ZM26.6667 33.0013L27.6667 33.0013C27.6667 34.6582 26.3235 36.0013 24.6667 36.0013L24.6667 35.0013L24.6667 34.0013C25.219 34.0013 25.6667 33.5536 25.6667 33.0013L26.6667 33.0013Z" fill="white"/></svg>