<svg width="59" height="76" viewBox="0 0 59 76" fill="none" xmlns="http://www.w3.org/2000/svg">
<path d="M15.6298 6.70783C15.4493 5.26573 14.2866 4.12934 12.832 3.99063C14.2866 3.85192 15.4493 2.71553 15.6298 1.27344C15.8103 2.71553 16.973 3.85192 18.4276 3.99063C16.973 4.12934 15.8103 5.26573 15.6298 6.70783Z" fill="#FCEA10"/>
<path d="M1.84296 10.5368C1.74386 9.74495 1.10533 9.12086 0.306641 9.04477C1.10533 8.96849 1.74386 8.3446 1.84296 7.55273C1.94207 8.3446 2.58059 8.96869 3.37929 9.04477C2.58059 9.12105 1.94207 9.74495 1.84296 10.5368Z" fill="#FCEA10"/>
<path d="M58.0304 7.93262C57.6238 8.61933 57.7465 9.50367 58.3316 10.053C57.6535 9.62423 56.7666 9.72665 56.2034 10.2922C56.6099 9.6055 56.487 8.72117 55.9023 8.1718C56.5803 8.6006 57.4671 8.49818 58.0304 7.93262Z" fill="#FCEA10"/>
<path d="M42.5212 2.48255C41.6548 2.64721 41.0114 3.39479 40.9831 4.28088C40.8433 3.40532 40.1105 2.74495 39.2305 2.69091C40.0969 2.52645 40.7403 1.77867 40.7685 0.892578C40.9084 1.76814 41.6412 2.42871 42.5212 2.48255Z" fill="#FCEA10"/>
<path d="M30.1331 76.0049C42.2005 76.0049 51.9831 73.7974 51.9831 71.0742C51.9831 68.3511 42.2005 66.1436 30.1331 66.1436C18.0658 66.1436 8.2832 68.3511 8.2832 71.0742C8.2832 73.7974 18.0658 76.0049 30.1331 76.0049Z" fill="#EDECEC"/>
<path d="M30.1344 74.4197C38.3224 74.4197 44.9601 72.9218 44.9601 71.0741C44.9601 69.2264 38.3224 67.7285 30.1344 67.7285C21.9463 67.7285 15.3086 69.2264 15.3086 71.0741C15.3086 72.9218 21.9463 74.4197 30.1344 74.4197Z" fill="#C6C6C6"/>
<path d="M8.28174 40.7391C8.15435 40.7391 8.02539 40.7079 7.906 40.6421C7.5285 40.4342 7.39097 39.9595 7.59893 39.582C11.1841 33.0731 15.8539 30.4796 19.1402 29.4501C22.7292 28.3256 25.4554 28.763 25.5695 28.7823C25.9946 28.8535 26.2814 29.256 26.21 29.6809C26.1388 30.1052 25.7365 30.3912 25.3132 30.3217C25.2882 30.3178 22.7794 29.9273 19.5304 30.9634C15.1814 32.3503 11.6271 35.5033 8.96592 40.3349C8.82389 40.5932 8.55701 40.7391 8.28174 40.7391Z" fill="#926C41"/>
<path d="M28.1481 31.8521C27.9312 31.8521 27.7156 31.7623 27.5613 31.5865C27.541 31.5637 25.8484 29.6741 22.6819 28.4173C18.4393 26.7333 13.6914 26.919 8.57056 28.9692C8.16985 29.1298 7.71627 28.9349 7.5561 28.5348C7.39593 28.1346 7.59044 27.6805 7.99056 27.5203C14.8895 24.7584 20.1452 25.7126 23.3394 26.9992C26.8281 28.4046 28.6592 30.4708 28.7355 30.5582C29.0192 30.8829 28.9858 31.3758 28.6614 31.6593C28.5131 31.7887 28.3303 31.8521 28.1481 31.8521Z" fill="#926C41"/>
<path d="M10.7464 35.0596C9.64962 36.3046 8.58326 37.7947 7.59885 39.5819C7.39108 39.9594 7.52842 40.4341 7.90591 40.642C8.02531 40.7078 8.15446 40.739 8.28166 40.739C8.55693 40.739 8.82361 40.5931 8.96583 40.335C9.7813 38.8544 10.6814 37.5333 11.6618 36.3706C11.2733 36.0059 10.9596 35.5606 10.7464 35.0596Z" fill="#AA7F53"/>
<path d="M8.57446 27.2949C8.38093 27.3675 8.18663 27.4422 7.99056 27.5206C7.59044 27.6808 7.39593 28.135 7.5561 28.5351C7.71627 28.9352 8.16985 29.1299 8.57056 28.9696C9.14958 28.7378 9.72314 28.5331 10.2924 28.349C9.71476 28.0058 9.14139 27.6554 8.57446 27.2949Z" fill="#AA7F53"/>
<path d="M34.3101 30.9497C31.8276 27.591 41.6115 23.7942 45.9924 22.334C50.3733 20.8737 54.6081 12.8419 54.6081 12.8419C52.1256 13.134 47.8908 8.16899 46.1383 10.5054C44.386 12.8419 39.7131 16.6386 37.6685 13.134C35.9925 10.2607 31.8908 9.44916 30.4663 9.24978C30.3539 9.23398 30.2421 9.22656 30.1288 9.22656C30.0156 9.22656 29.9042 9.23398 29.792 9.24978C28.3675 9.44916 24.2659 10.2607 22.5899 13.134C20.5456 16.6388 15.8726 12.8419 14.1202 10.5054C12.3679 8.16899 8.13289 13.134 5.65039 12.8419C5.65039 12.8419 9.88518 20.8736 14.2661 22.334C18.647 23.7942 28.4309 27.591 25.9484 30.9497C23.4659 34.3083 5.65039 32.9942 5.65039 57.9652C5.65039 57.9652 6.54936 73.116 29.2343 73.4367V73.4443C29.3582 73.4443 29.4779 73.4414 29.6005 73.4404C29.723 73.4412 29.8426 73.4443 29.9664 73.4443V73.4367C52.6736 73.116 54.6079 57.9652 54.6079 57.9652C54.6083 32.994 36.7926 34.3083 34.3101 30.9497Z" fill="#C99D67"/>
<path d="M45.9951 22.3342C49.3153 21.2275 52.5509 16.3473 53.9235 14.0484C53.3938 14.3486 52.8513 14.6219 52.2996 14.8639C51.1696 15.3594 50.0488 15.7074 48.8178 15.8338C47.4489 15.9745 46.037 15.8235 44.6993 16.2014C42.5118 16.8192 40.5552 17.704 38.2126 17.352C36.2524 17.0576 35.3776 15.5145 34.155 14.1695C33.1259 13.0372 31.4663 12.6791 29.9949 12.5696C28.4367 12.4537 26.7041 12.5351 25.2562 13.1845C23.6777 13.8927 23.1732 15.6313 21.9855 16.7724C20.4119 18.2842 18.0455 18.363 16.0515 17.7514C13.7659 17.0504 11.7941 15.5991 9.58258 14.7314C8.46472 14.2928 7.24171 14.1469 6.14258 13.7136C7.37885 15.8333 10.7775 21.1705 14.2686 22.3342C18.6495 23.7944 28.4334 27.5913 25.9509 30.9499C24.5035 32.9082 17.8442 33.28 12.5421 38.1974C15.3355 40.2714 20.3526 42.2194 29.3609 42.3068V42.3113C29.4676 42.3113 29.5706 42.3095 29.6763 42.3091C29.7819 42.3097 29.8849 42.3113 29.9916 42.3113V42.3068C39.2983 42.2167 44.551 40.1446 47.5027 37.9975C42.2379 33.2691 35.7399 32.8815 34.3122 30.9501C31.8303 27.5912 41.6144 23.7944 45.9951 22.3342Z" fill="#C1894D"/>
<path d="M41.071 22.7205C41.2313 22.7312 41.4231 22.7607 41.5089 22.7607C41.5938 22.7607 41.745 22.7379 41.8847 22.7262C41.9352 22.7191 41.9871 22.7154 42.0361 22.717C42.4994 22.5943 42.9462 22.4476 43.4017 22.2942C43.423 22.287 43.4378 22.2823 43.4555 22.2765C43.7144 22.1503 43.9782 22.0344 44.2357 21.905C45.2718 21.3847 46.2713 20.7868 47.2225 20.1241C47.3755 20.0175 47.6769 19.8527 47.8464 19.6976C47.9004 19.6342 47.9627 19.5677 48.0212 19.5179C48.3685 19.2222 48.7091 18.9135 49.0202 18.5795C49.0597 18.5374 49.2276 18.3445 49.3462 18.2061C49.3636 18.1798 49.381 18.1533 49.4024 18.1205C49.6923 17.6769 49.9785 17.2385 50.2325 16.7724C50.3632 16.5325 50.4875 16.2896 50.6051 16.043C50.6947 15.8551 50.7546 15.7664 50.7751 15.7523C50.8225 15.64 50.8636 15.5182 50.9003 15.3926C50.2277 15.6054 49.5413 15.7586 48.8166 15.8329C47.4476 15.9736 46.0358 15.8226 44.6981 16.2004C43.7374 16.4718 42.8215 16.7943 41.8978 17.0413C41.5201 18.6898 41.1209 20.3324 40.623 21.9493C40.8068 22.1862 40.9592 22.4446 41.071 22.7205Z" fill="#B47432"/>
<path d="M24.0579 18.7996C24.2926 19.5419 24.5267 20.285 24.7934 21.0168C24.8365 21.1354 24.882 21.253 24.9268 21.3708C25.0277 21.4805 25.303 22.1902 25.3671 22.311C25.5515 22.6567 25.7575 22.9829 25.9688 23.312C25.9895 23.3442 26.0158 23.3943 26.0406 23.4446C26.0351 23.4323 26.0304 23.422 26.0242 23.4082C25.8069 22.9206 26.0611 23.4372 26.1871 23.5748C26.4138 23.8219 26.6738 24.0311 26.9107 24.2648C26.915 24.2671 26.9175 24.2685 26.922 24.271C27.111 24.3797 27.2897 24.5065 27.4798 24.6146C27.6376 24.7043 27.7979 24.7888 27.9607 24.8692C28.0036 24.8904 28.0426 24.909 28.0781 24.9254C28.1395 24.9486 28.1858 24.9671 28.2191 24.981C28.3637 25.0377 28.5085 25.0941 28.6587 25.1386C28.6805 25.145 28.907 25.18 29.0824 25.2114C29.2361 25.1835 30.0227 25.0399 30.4595 24.9291C30.5245 24.8803 30.6386 24.8091 30.7044 24.8001C30.8228 24.7277 30.9465 24.6577 31.0622 24.589C31.0657 24.5869 31.0702 24.584 31.0745 24.5812C31.1345 24.525 31.1989 24.4653 31.229 24.4367C31.3819 24.2911 31.5216 24.1362 31.6662 23.9825C31.7621 23.8354 31.9886 23.5082 32.0353 23.4314C32.1993 23.1618 32.3505 22.8845 32.4929 22.6028C32.5751 22.4405 32.6457 22.2716 32.73 22.1108C32.9319 21.7251 32.6057 22.3599 32.6299 22.3677C32.7924 22.4196 34.0258 18.0221 34.1075 17.7042C34.3475 16.7724 34.5673 15.836 34.7811 14.898C34.5777 14.6543 34.3713 14.4089 34.1537 14.1695C33.1246 13.0372 31.465 12.6791 29.9937 12.5696C28.4355 12.4537 26.7029 12.5351 25.255 13.1845C24.166 13.673 23.5872 14.6516 22.9434 15.5863C23.3527 16.6423 23.7147 17.7139 24.0579 18.7996Z" fill="#B47432"/>
<path d="M14.2686 22.3339C14.7649 22.4993 15.3309 22.695 15.9401 22.9162C15.9419 22.8506 15.944 22.7849 15.9423 22.7195C15.9397 22.6228 15.8828 22.2954 15.8908 22.2974C15.812 21.9306 15.7123 21.5697 15.6065 21.2098C15.3389 20.2985 15.1783 19.3757 15.0484 18.4356C14.9975 18.0671 14.9491 17.6982 14.9005 17.3292C13.0827 16.5678 11.4147 15.4496 9.58258 14.7307C8.46472 14.2921 7.24171 14.1462 6.14258 13.7129C7.37885 15.8327 10.7773 21.17 14.2686 22.3339Z" fill="#B47432"/>
<path d="M35.3076 31.9473C35.3578 31.9115 35.4023 31.8696 35.445 31.8259C34.9436 31.559 34.554 31.2767 34.3123 30.9498C34.1188 30.688 34 30.4236 33.9471 30.1577C29.1081 33.4007 26.5534 30.32 26.4323 30.1676C26.4011 30.1273 26.3656 30.0945 26.3308 30.0605C26.2895 30.359 26.1681 30.6562 25.951 30.9498C25.7304 31.2484 25.387 31.5099 24.9473 31.7565C25.1285 31.9847 26.061 33.0754 27.7322 33.6455C28.2956 33.8377 28.984 33.9805 29.7872 33.9805C31.2648 33.9807 33.1291 33.497 35.3076 31.9473Z" fill="#B47432"/>
<path d="M16.1523 37.8398C14.4595 39.8715 12.8779 42.6258 11.8227 46.3496C11.7053 46.7642 11.9462 47.1957 12.3608 47.3132C12.4919 47.3502 12.6247 47.3516 12.7488 47.3229C13.0168 47.2609 13.2439 47.0586 13.3243 46.7751C14.2541 43.4935 15.6656 40.7656 17.5329 38.6071C17.0645 38.3685 16.6041 38.1128 16.1523 37.8398Z" fill="#C1894D"/>
<path d="M21.5057 35.2639C24.4374 33.5221 26.9697 33.3372 26.9951 33.3354C27.4233 33.3077 27.7506 32.9384 27.7243 32.509C27.698 32.0789 27.3279 31.7515 26.8977 31.7779C26.782 31.7847 24.0274 31.9729 20.7842 33.8774C18.9562 34.9508 16.7513 36.7214 14.8535 39.5904C15.2985 39.8091 15.7759 40.0215 16.2915 40.224C17.6975 38.1541 19.4369 36.4926 21.5057 35.2639Z" fill="#B47432"/>
<path d="M14.6699 16.0338C16.7472 18.129 20.4496 18.1392 22.515 14.5987C24.2082 11.6962 27.0382 12.0592 28.4773 11.8579C28.5907 11.8421 28.703 11.8345 28.8174 11.8345C28.9321 11.8345 29.0448 11.8419 29.1584 11.8579C30.5974 12.0592 34.5891 11.9533 36.2824 14.856C38.3476 18.3965 42.6741 15.1543 45.6192 14.9776C48.3573 14.8133 49.1786 15.4704 54.61 12.8419C52.1275 13.134 47.8927 8.16899 46.1403 10.5054C44.388 12.8419 39.715 16.6386 37.6705 13.134C35.9945 10.2607 31.8927 9.44916 30.4682 9.24978C30.3558 9.23398 30.2441 9.22656 30.1307 9.22656C30.0176 9.22656 29.9062 9.23398 29.794 9.24978C28.3694 9.44916 24.2679 10.2607 22.5919 13.134C20.5476 16.6388 15.8746 12.8419 14.1221 10.5054C12.3698 8.16899 8.13485 13.134 5.65234 12.8419C8.64539 13.0686 13.8008 15.1571 14.6699 16.0338Z" fill="#926C41"/>
<path d="M14.1221 11.2172C15.8744 13.5538 20.5474 17.3504 22.5919 13.8459C24.2679 10.9726 28.3694 10.161 29.794 9.96166C29.9062 9.94585 30.0176 9.93844 30.1307 9.93844C30.2442 9.93844 30.3558 9.94585 30.4682 9.96166C31.8925 10.161 35.9943 10.9726 37.6705 13.8459C39.7148 17.3506 44.3878 13.5538 46.1403 11.2172C47.6405 9.21681 50.9597 12.5661 53.4417 13.3884C53.8069 13.2235 54.1933 13.0435 54.61 12.8419C52.1275 13.134 47.8927 8.16899 46.1403 10.5054C44.388 12.8419 39.715 16.6386 37.6705 13.134C35.9945 10.2607 31.8927 9.44916 30.4682 9.24978C30.3558 9.23398 30.2441 9.22656 30.1307 9.22656C30.0176 9.22656 29.9062 9.23398 29.794 9.24978C28.3694 9.44916 24.2679 10.2607 22.5919 13.134C20.5476 16.6388 15.8746 12.8419 14.1221 10.5054C12.3698 8.16899 8.13485 13.134 5.65234 12.8419C6.19742 12.8833 6.81449 12.9869 7.46413 13.133C9.84909 12.0407 12.7485 9.38537 14.1221 11.2172Z" fill="#DCAF7E"/>
<path d="M29.9682 70.396V70.4036C29.8443 70.4036 29.7249 70.4007 29.6022 70.3997C29.4795 70.4007 29.3597 70.4036 29.236 70.4036V70.396C9.11458 70.1114 6.13402 58.1606 5.71731 55.4631C5.67575 56.2673 5.65234 57.0987 5.65234 57.9651C5.65234 57.9651 6.55131 73.1159 29.2362 73.4366V73.4443C29.3601 73.4443 29.4799 73.4413 29.6024 73.4404C29.7249 73.4411 29.8445 73.4443 29.9684 73.4443V73.4366C52.6755 73.1159 54.6098 57.9651 54.6098 57.9651C54.6098 57.0504 54.5831 56.1748 54.5371 55.3291C54.0357 57.7349 50.4652 70.1067 29.9682 70.396Z" fill="#C1894D"/>
<path d="M29.7861 33.0511C28.9829 33.0511 28.2945 32.9083 27.731 32.7161C25.9655 32.1139 25.023 30.9287 24.9214 30.7955C24.5517 30.3111 24.5911 29.5713 25.0096 29.1433C25.4259 28.717 26.0609 28.7605 26.4312 29.2385C26.5548 29.3937 29.2123 32.6049 34.2482 29.0231C34.724 28.6844 35.3465 28.8569 35.6388 29.4078C35.931 29.9587 35.7822 30.6796 35.3065 31.0179C33.1278 32.5674 31.2635 33.0511 29.7861 33.0511Z" fill="#926C41"/>
</svg>
