<svg width="22" height="29" viewBox="0 0 22 29" fill="none" xmlns="http://www.w3.org/2000/svg">
<g filter="url(#filter0_dddd_845_39676)">
<path d="M10.1429 1.40918C10.6733 1.10295 11.3268 1.10295 11.8572 1.40918L18.0113 4.96229C18.5417 5.26852 18.8685 5.83445 18.8685 6.44691V13.5531C18.8685 14.1656 18.5417 14.7315 18.0113 15.0377L11.8572 18.5909C11.3268 18.8971 10.6733 18.8971 10.1429 18.5909L3.9887 15.0377C3.4583 14.7315 3.13156 14.1656 3.13156 13.5531V6.44691C3.13156 5.83445 3.4583 5.26852 3.9887 4.96229L10.1429 1.40918Z" fill="white"/>
</g>
<mask id="mask0_845_39676" style="mask-type:alpha" maskUnits="userSpaceOnUse" x="3" y="1" width="16" height="18">
<path d="M10.1429 1.40918C10.6733 1.10295 11.3268 1.10295 11.8572 1.40918L18.0113 4.96229C18.5417 5.26852 18.8685 5.83445 18.8685 6.44691V13.5531C18.8685 14.1656 18.5417 14.7315 18.0113 15.0377L11.8572 18.5909C11.3268 18.8971 10.6733 18.8971 10.1429 18.5909L3.9887 15.0377C3.4583 14.7315 3.13156 14.1656 3.13156 13.5531V6.44691C3.13156 5.83445 3.4583 5.26852 3.9887 4.96229L10.1429 1.40918Z" fill="black"/>
</mask>
<g mask="url(#mask0_845_39676)">
<mask id="mask1_845_39676" style="mask-type:alpha" maskUnits="userSpaceOnUse" x="3" y="1" width="16" height="18">
<path d="M10.1429 1.40918C10.6733 1.10295 11.3268 1.10295 11.8572 1.40918L18.0113 4.96229C18.5417 5.26852 18.8685 5.83445 18.8685 6.44691V13.5531C18.8685 14.1656 18.5417 14.7315 18.0113 15.0377L11.8572 18.5909C11.3268 18.8971 10.6733 18.8971 10.1429 18.5909L3.9887 15.0377C3.4583 14.7315 3.13156 14.1656 3.13156 13.5531V6.44691C3.13156 5.83445 3.4583 5.26852 3.9887 4.96229L10.1429 1.40918Z" fill="url(#paint0_linear_845_39676)"/>
</mask>
<g mask="url(#mask1_845_39676)">
<rect x="-1" y="-2" width="24" height="24" fill="#F8D260"/>
<rect x="-1" y="-2" width="24" height="24" fill="url(#paint1_linear_845_39676)" fill-opacity="0.6" style="mix-blend-mode:overlay"/>
<rect x="-1" y="-2" width="24" height="24" fill="url(#paint2_radial_845_39676)" fill-opacity="0.6" style="mix-blend-mode:overlay"/>
<rect x="-1" y="-2" width="24" height="24" fill="black" fill-opacity="0.16" style="mix-blend-mode:overlay"/>
<rect x="-1" y="-2" width="24" height="24" fill="black" fill-opacity="0.12" style="mix-blend-mode:darken"/>
</g>
<g filter="url(#filter1_d_845_39676)">
<mask id="mask2_845_39676" style="mask-type:alpha" maskUnits="userSpaceOnUse" x="3" y="1" width="16" height="18">
<path d="M10.6433 1.21658C10.8781 1.16671 11.1214 1.16676 11.3562 1.21658C11.6216 1.27305 11.8718 1.41769 12.3708 1.70584L17.4968 4.66483C17.9959 4.95299 18.2459 5.09809 18.4275 5.29959C18.5881 5.47798 18.7097 5.68852 18.7839 5.91678C18.8678 6.17487 18.8679 6.46354 18.8679 7.03983V12.9588C18.8679 13.5355 18.8678 13.8246 18.7839 14.0828L18.7195 14.2498C18.6465 14.4138 18.5481 14.566 18.4275 14.7L18.3562 14.7732C18.1799 14.9399 17.9338 15.0815 17.4968 15.3338L12.3708 18.2937L12.0388 18.4832C11.7454 18.648 11.5553 18.7406 11.3562 18.783L11.1785 18.8103C11.0598 18.8228 10.9397 18.8228 10.821 18.8103L10.6433 18.783C10.4442 18.7406 10.2532 18.6481 9.95972 18.4832L9.62769 18.2937L4.50269 15.3338C4.06604 15.0817 3.81958 14.9398 3.64331 14.7732L3.57104 14.7C3.45059 14.5661 3.35198 14.4137 3.27905 14.2498L3.2146 14.0828C3.13087 13.8247 3.13062 13.5353 3.13062 12.9588V7.03983C3.13062 6.53557 3.13107 6.25137 3.18726 6.01541L3.2146 5.91678C3.27028 5.7455 3.35333 5.58436 3.45874 5.43924L3.57104 5.29959C3.70727 5.1483 3.88221 5.02886 4.17163 4.85721L4.50269 4.66483L9.62769 1.70584C10.0646 1.45358 10.3112 1.31138 10.5437 1.24198L10.6433 1.21658ZM13.863 16.6043L8.13745 16.6033C8.11458 16.6033 8.09246 16.6023 8.07104 16.6023L9.97144 17.7C10.51 18.0109 10.652 18.0835 10.7859 18.1121C10.9267 18.142 11.0728 18.142 11.2136 18.1121C11.3477 18.0836 11.4889 18.0113 12.0281 17.7L13.9265 16.6023L13.863 16.6043ZM11.9705 15.9178H13.8621C14.2533 15.9178 14.2978 15.9099 14.325 15.9012C14.3705 15.8863 14.4134 15.8619 14.449 15.8299C14.4701 15.8107 14.4994 15.7754 14.6941 15.4383L15.6404 13.7976L11.9705 15.9178ZM7.30542 15.4383C7.50086 15.7768 7.53035 15.8108 7.55151 15.8299C7.58713 15.8619 7.62899 15.8873 7.67456 15.9021C7.70168 15.9109 7.74509 15.9178 8.13745 15.9178H10.03L6.35718 13.7967L7.30542 15.4383ZM3.81714 12.9588C3.81714 13.5811 3.82472 13.7406 3.86694 13.8709C3.91142 14.0076 3.98465 14.1341 4.08081 14.241C4.17253 14.3429 4.3063 14.4287 4.84546 14.74L6.74585 15.8377L6.71265 15.781L3.84937 10.823C3.83804 10.8034 3.82773 10.7838 3.81714 10.7654V12.9588ZM18.1501 10.823L15.2878 15.781L15.2537 15.8367L17.1541 14.74C17.693 14.4289 17.826 14.3428 17.9177 14.241C18.0141 14.134 18.087 14.0078 18.1316 13.8709C18.1739 13.7405 18.1824 13.5815 18.1824 12.9588V10.7644C18.1716 10.7831 18.1616 10.8031 18.1501 10.823ZM4.44409 9.5203C4.24816 9.85966 4.23227 9.9006 4.22632 9.9285C4.21633 9.97549 4.21633 10.0251 4.22632 10.0721C4.23234 10.0999 4.24847 10.1431 4.44312 10.4803L5.39038 12.1209V7.88065L4.44409 9.5203ZM16.6091 12.1209L17.5564 10.4803C17.7526 10.1404 17.7682 10.099 17.7742 10.0711C17.7841 10.0242 17.7831 9.97534 17.7732 9.9285C17.7672 9.90062 17.7526 9.85846 17.5574 9.5203L16.6091 7.87772V12.1209ZM4.84546 5.25858C4.30593 5.57007 4.17256 5.65669 4.08081 5.75858C3.98455 5.86557 3.91145 5.99183 3.86694 6.12869C3.82463 6.25902 3.81715 6.41763 3.81714 7.03983V9.23612L3.85034 9.17752L6.71167 4.21854C6.72294 4.19902 6.7343 4.18017 6.74487 4.1619L4.84546 5.25858ZM15.2878 4.21854L18.1501 9.17752L18.1824 9.23514V7.03983C18.1824 6.41742 18.1739 6.25905 18.1316 6.12869C18.087 5.99183 18.014 5.86555 17.9177 5.75858C17.826 5.65689 17.6927 5.56959 17.1541 5.25858L15.2537 4.16092C15.2645 4.17961 15.2763 4.19855 15.2878 4.21854ZM15.6414 6.20194L14.6941 4.56131C14.4989 4.22317 14.4701 4.18883 14.449 4.16971C14.4133 4.13756 14.3706 4.11327 14.325 4.09842C14.2978 4.08961 14.2544 4.08182 13.8621 4.08182H11.9685L15.6414 6.20194ZM8.13745 4.08182C7.74755 4.08182 7.70269 4.08967 7.67554 4.09842C7.63011 4.1132 7.58806 4.13782 7.55249 4.16971C7.5313 4.18879 7.5026 4.22246 7.3064 4.56229L6.36011 6.20096L10.032 4.08182H8.13745ZM11.2136 1.88748C11.0728 1.85764 10.9267 1.85758 10.7859 1.88748C10.6519 1.91604 10.5104 1.98844 9.97144 2.29959L8.07104 3.39627C8.09234 3.39625 8.11471 3.3953 8.13745 3.3953L13.8621 3.39627C13.8851 3.39627 13.9079 3.39723 13.9294 3.39725L12.0281 2.29959C11.4892 1.98849 11.3476 1.91602 11.2136 1.88748Z" fill="black"/>
</mask>
<g mask="url(#mask2_845_39676)">
<rect x="-1" y="-2" width="24" height="24" fill="#F8D260"/>
<rect x="-1" y="-2" width="24" height="24" fill="url(#paint3_linear_845_39676)" fill-opacity="0.6" style="mix-blend-mode:overlay"/>
<rect x="-1" y="-2" width="24" height="24" fill="url(#paint4_radial_845_39676)" fill-opacity="0.6" style="mix-blend-mode:overlay"/>
<g style="mix-blend-mode:soft-light">
<path fill-rule="evenodd" clip-rule="evenodd" d="M-1 -2H13.4L8.80426 22H-1V-2Z" fill="url(#paint5_linear_845_39676)" style="mix-blend-mode:lighten"/>
</g>
<g style="mix-blend-mode:soft-light">
<mask id="path-11-inside-1_845_39676" fill="white">
<path d="M10.6433 1.21658C10.8781 1.16671 11.1214 1.16676 11.3562 1.21658C11.6216 1.27305 11.8718 1.41769 12.3708 1.70584L17.4968 4.66483C17.9959 4.95299 18.2459 5.09809 18.4275 5.29959C18.5881 5.47798 18.7097 5.68852 18.7839 5.91678C18.8678 6.17487 18.8679 6.46354 18.8679 7.03983V12.9588C18.8679 13.5355 18.8678 13.8246 18.7839 14.0828L18.7195 14.2498C18.6465 14.4138 18.5481 14.566 18.4275 14.7L18.3562 14.7732C18.1799 14.9399 17.9338 15.0815 17.4968 15.3338L12.3708 18.2937L12.0388 18.4832C11.7454 18.648 11.5553 18.7406 11.3562 18.783L11.1785 18.8103C11.0598 18.8228 10.9397 18.8228 10.821 18.8103L10.6433 18.783C10.4442 18.7406 10.2532 18.6481 9.95972 18.4832L9.62769 18.2937L4.50269 15.3338C4.06604 15.0817 3.81958 14.9398 3.64331 14.7732L3.57104 14.7C3.45059 14.5661 3.35198 14.4137 3.27905 14.2498L3.2146 14.0828C3.13087 13.8247 3.13062 13.5353 3.13062 12.9588V7.03983C3.13062 6.53557 3.13107 6.25137 3.18726 6.01541L3.2146 5.91678C3.27028 5.7455 3.35333 5.58436 3.45874 5.43924L3.57104 5.29959C3.70727 5.1483 3.88221 5.02886 4.17163 4.85721L4.50269 4.66483L9.62769 1.70584C10.0646 1.45358 10.3112 1.31138 10.5437 1.24198L10.6433 1.21658ZM13.863 16.6043L8.13745 16.6033C8.11458 16.6033 8.09246 16.6023 8.07104 16.6023L9.97144 17.7C10.51 18.0109 10.652 18.0835 10.7859 18.1121C10.9267 18.142 11.0728 18.142 11.2136 18.1121C11.3477 18.0836 11.4889 18.0113 12.0281 17.7L13.9265 16.6023L13.863 16.6043ZM11.9705 15.9178H13.8621C14.2533 15.9178 14.2978 15.9099 14.325 15.9012C14.3705 15.8863 14.4134 15.8619 14.449 15.8299C14.4701 15.8107 14.4994 15.7754 14.6941 15.4383L15.6404 13.7976L11.9705 15.9178ZM7.30542 15.4383C7.50086 15.7768 7.53035 15.8108 7.55151 15.8299C7.58713 15.8619 7.62899 15.8873 7.67456 15.9021C7.70168 15.9109 7.74509 15.9178 8.13745 15.9178H10.03L6.35718 13.7967L7.30542 15.4383ZM3.81714 12.9588C3.81714 13.5811 3.82472 13.7406 3.86694 13.8709C3.91142 14.0076 3.98465 14.1341 4.08081 14.241C4.17253 14.3429 4.3063 14.4287 4.84546 14.74L6.74585 15.8377L6.71265 15.781L3.84937 10.823C3.83804 10.8034 3.82773 10.7838 3.81714 10.7654V12.9588ZM18.1501 10.823L15.2878 15.781L15.2537 15.8367L17.1541 14.74C17.693 14.4289 17.826 14.3428 17.9177 14.241C18.0141 14.134 18.087 14.0078 18.1316 13.8709C18.1739 13.7405 18.1824 13.5815 18.1824 12.9588V10.7644C18.1716 10.7831 18.1616 10.8031 18.1501 10.823ZM4.44409 9.5203C4.24816 9.85966 4.23227 9.9006 4.22632 9.9285C4.21633 9.97549 4.21633 10.0251 4.22632 10.0721C4.23234 10.0999 4.24847 10.1431 4.44312 10.4803L5.39038 12.1209V7.88065L4.44409 9.5203ZM16.6091 12.1209L17.5564 10.4803C17.7526 10.1404 17.7682 10.099 17.7742 10.0711C17.7841 10.0242 17.7831 9.97534 17.7732 9.9285C17.7672 9.90062 17.7526 9.85846 17.5574 9.5203L16.6091 7.87772V12.1209ZM4.84546 5.25858C4.30593 5.57007 4.17256 5.65669 4.08081 5.75858C3.98455 5.86557 3.91145 5.99183 3.86694 6.12869C3.82463 6.25902 3.81715 6.41763 3.81714 7.03983V9.23612L3.85034 9.17752L6.71167 4.21854C6.72294 4.19902 6.7343 4.18017 6.74487 4.1619L4.84546 5.25858ZM15.2878 4.21854L18.1501 9.17752L18.1824 9.23514V7.03983C18.1824 6.41742 18.1739 6.25905 18.1316 6.12869C18.087 5.99183 18.014 5.86555 17.9177 5.75858C17.826 5.65689 17.6927 5.56959 17.1541 5.25858L15.2537 4.16092C15.2645 4.17961 15.2763 4.19855 15.2878 4.21854ZM15.6414 6.20194L14.6941 4.56131C14.4989 4.22317 14.4701 4.18883 14.449 4.16971C14.4133 4.13756 14.3706 4.11327 14.325 4.09842C14.2978 4.08961 14.2544 4.08182 13.8621 4.08182H11.9685L15.6414 6.20194ZM8.13745 4.08182C7.74755 4.08182 7.70269 4.08967 7.67554 4.09842C7.63011 4.1132 7.58806 4.13782 7.55249 4.16971C7.5313 4.18879 7.5026 4.22246 7.3064 4.56229L6.36011 6.20096L10.032 4.08182H8.13745ZM11.2136 1.88748C11.0728 1.85764 10.9267 1.85758 10.7859 1.88748C10.6519 1.91604 10.5104 1.98844 9.97144 2.29959L8.07104 3.39627C8.09234 3.39625 8.11471 3.3953 8.13745 3.3953L13.8621 3.39627C13.8851 3.39627 13.9079 3.39723 13.9294 3.39725L12.0281 2.29959C11.4892 1.98849 11.3476 1.91602 11.2136 1.88748Z"/>
</mask>
<path d="M10.6433 1.21658L10.6344 1.17463L10.6327 1.17506L10.6433 1.21658ZM11.3562 1.21658L11.3651 1.17467L11.3651 1.17466L11.3562 1.21658ZM12.3708 1.70584L12.3494 1.74296L12.3494 1.74296L12.3708 1.70584ZM17.4968 4.66483L17.5183 4.62771L17.5183 4.62771L17.4968 4.66483ZM18.4275 5.29959L18.4593 5.27092L18.4593 5.2709L18.4275 5.29959ZM18.7839 5.91678L18.8247 5.90354L18.8247 5.90352L18.7839 5.91678ZM18.8679 7.03983L18.9108 7.03983V7.03983L18.8679 7.03983ZM18.8679 12.9588H18.9108H18.8679ZM18.7839 14.0828L18.824 14.0983L18.8247 14.096L18.7839 14.0828ZM18.7195 14.2498L18.7587 14.2672L18.7595 14.2652L18.7195 14.2498ZM18.4275 14.7L18.4582 14.7299L18.4593 14.7287L18.4275 14.7ZM18.3562 14.7732L18.3857 14.8044L18.3869 14.8031L18.3562 14.7732ZM17.4968 15.3338L17.4754 15.2967L17.4754 15.2967L17.4968 15.3338ZM12.3708 18.2937L12.3921 18.331L12.3923 18.3308L12.3708 18.2937ZM12.0388 18.4832L12.0598 18.5206L12.0601 18.5204L12.0388 18.4832ZM11.3562 18.783L11.3627 18.8254L11.3651 18.8249L11.3562 18.783ZM11.1785 18.8103L11.1829 18.853L11.185 18.8527L11.1785 18.8103ZM10.821 18.8103L10.8145 18.8527L10.8166 18.853L10.821 18.8103ZM10.6433 18.783L10.6344 18.825L10.6368 18.8254L10.6433 18.783ZM9.95972 18.4832L9.93848 18.5204L9.93872 18.5205L9.95972 18.4832ZM9.62769 18.2937L9.60625 18.3308L9.60645 18.331L9.62769 18.2937ZM4.50269 15.3338L4.52412 15.2967L4.52411 15.2967L4.50269 15.3338ZM3.64331 14.7732L3.61278 14.8033L3.61387 14.8044L3.64331 14.7732ZM3.57104 14.7L3.53915 14.7287L3.54054 14.7301L3.57104 14.7ZM3.27905 14.2498L3.23902 14.2652L3.2399 14.2672L3.27905 14.2498ZM3.2146 14.0828L3.17377 14.096L3.17462 14.0982L3.2146 14.0828ZM3.13062 12.9588H3.08776H3.13062ZM3.13062 7.03983L3.08776 7.03983V7.03983H3.13062ZM3.18726 6.01541L3.14593 6.00396L3.14556 6.00549L3.18726 6.01541ZM3.2146 5.91678L3.1738 5.90352L3.1733 5.90533L3.2146 5.91678ZM3.45874 5.43924L3.4253 5.41235L3.42407 5.41405L3.45874 5.43924ZM3.57104 5.29959L3.53915 5.27087L3.53765 5.27273L3.57104 5.29959ZM4.17163 4.85721L4.1501 4.82015L4.14977 4.82035L4.17163 4.85721ZM4.50269 4.66483L4.48126 4.62771L4.48115 4.62777L4.50269 4.66483ZM9.62769 1.70584L9.60626 1.66873L9.60626 1.66873L9.62769 1.70584ZM10.5437 1.24198L10.5331 1.20041L10.5314 1.20091L10.5437 1.24198ZM13.863 16.6043L13.863 16.6472L13.8644 16.6471L13.863 16.6043ZM8.13745 16.6033L8.13746 16.5604L8.13745 16.5604L8.13745 16.6033ZM8.07104 16.6023L8.07106 16.5595C8.05166 16.5595 8.03468 16.5725 8.02965 16.5912C8.02463 16.61 8.03281 16.6297 8.04961 16.6394L8.07104 16.6023ZM9.97144 17.7L9.95 17.7371L9.95001 17.7371L9.97144 17.7ZM10.7859 18.1121L10.7769 18.154L10.777 18.154L10.7859 18.1121ZM11.2136 18.1121L11.2225 18.154L11.2225 18.154L11.2136 18.1121ZM12.0281 17.7L12.0495 17.7371L12.0495 17.7371L12.0281 17.7ZM13.9265 16.6023L13.948 16.6394C13.965 16.6296 13.9731 16.6095 13.9677 16.5906C13.9624 16.5717 13.9448 16.5589 13.9252 16.5595L13.9265 16.6023ZM11.9705 15.9178L11.949 15.8806C11.9322 15.8903 11.924 15.9101 11.9291 15.9289C11.9341 15.9476 11.9511 15.9606 11.9705 15.9606V15.9178ZM13.8621 15.9178L13.8621 15.8749H13.8621V15.9178ZM14.325 15.9012L14.3381 15.9419L14.3382 15.9419L14.325 15.9012ZM14.449 15.8299L14.4777 15.8617L14.4778 15.8616L14.449 15.8299ZM14.6941 15.4383L14.7312 15.4597L14.7312 15.4597L14.6941 15.4383ZM15.6404 13.7976L15.6775 13.8191C15.6872 13.8023 15.6844 13.781 15.6707 13.7673C15.657 13.7536 15.6357 13.7508 15.6189 13.7605L15.6404 13.7976ZM7.30542 15.4383L7.34254 15.4168L7.34253 15.4168L7.30542 15.4383ZM7.55151 15.8299L7.52279 15.8617L7.52284 15.8617L7.55151 15.8299ZM7.67456 15.9021L7.66127 15.9429L7.66132 15.9429L7.67456 15.9021ZM8.13745 15.9178L8.13745 15.9606H8.13745V15.9178ZM10.03 15.9178V15.9606C10.0494 15.9606 10.0664 15.9476 10.0714 15.9289C10.0764 15.9101 10.0683 15.8903 10.0515 15.8806L10.03 15.9178ZM6.35718 13.7967L6.37861 13.7596C6.36181 13.7498 6.34059 13.7526 6.32687 13.7664C6.31315 13.7801 6.31036 13.8013 6.32007 13.8181L6.35718 13.7967ZM3.81714 12.9588L3.77428 12.9588L3.81714 12.9588ZM3.86694 13.8709L3.82617 13.8841L3.82619 13.8841L3.86694 13.8709ZM4.08081 14.241L4.04894 14.2697L4.04896 14.2697L4.08081 14.241ZM4.84546 14.74L4.86689 14.7029L4.86689 14.7029L4.84546 14.74ZM6.74585 15.8377L6.72441 15.8748C6.74126 15.8845 6.76254 15.8817 6.77625 15.8679C6.78996 15.8541 6.79266 15.8328 6.78282 15.816L6.74585 15.8377ZM6.71265 15.781L6.67553 15.8025L6.67567 15.8027L6.71265 15.781ZM3.84937 10.823L3.81225 10.8445L3.81225 10.8445L3.84937 10.823ZM3.81714 10.7654L3.85427 10.744C3.84458 10.7272 3.82481 10.719 3.80606 10.724C3.78732 10.729 3.77428 10.746 3.77428 10.7654H3.81714ZM18.1501 10.823L18.113 10.8016L18.113 10.8016L18.1501 10.823ZM15.2878 15.781L15.3244 15.8035L15.325 15.8025L15.2878 15.781ZM15.2537 15.8367L15.2171 15.8143C15.2069 15.831 15.2093 15.8525 15.2229 15.8666C15.2366 15.8806 15.2581 15.8836 15.2751 15.8738L15.2537 15.8367ZM17.1541 14.74L17.1755 14.7771L17.1755 14.7771L17.1541 14.74ZM17.9177 14.241L17.9496 14.2697L17.9496 14.2697L17.9177 14.241ZM18.1316 13.8709L18.1723 13.8841L18.1724 13.8841L18.1316 13.8709ZM18.1824 12.9588H18.2252H18.1824ZM18.1824 10.7644H18.2252C18.2252 10.745 18.2122 10.7281 18.1934 10.723C18.1747 10.718 18.1549 10.7262 18.1452 10.743L18.1824 10.7644ZM4.44409 9.5203L4.48121 9.54172L4.48121 9.54172L4.44409 9.5203ZM4.22632 9.9285L4.1844 9.91956L4.1844 9.91959L4.22632 9.9285ZM4.22632 10.0721L4.1844 10.081L4.18443 10.0811L4.22632 10.0721ZM4.44312 10.4803L4.406 10.5017L4.406 10.5017L4.44312 10.4803ZM5.39038 12.1209L5.35327 12.1423C5.36296 12.1591 5.38274 12.1673 5.40147 12.1623C5.42021 12.1573 5.43324 12.1403 5.43324 12.1209H5.39038ZM5.39038 7.88065H5.43324C5.43324 7.86125 5.42021 7.84427 5.40147 7.83925C5.38273 7.83423 5.36296 7.84242 5.35326 7.85923L5.39038 7.88065ZM16.6091 12.1209H16.5663C16.5663 12.1403 16.5793 12.1573 16.598 12.1623C16.6168 12.1673 16.6365 12.1591 16.6462 12.1423L16.6091 12.1209ZM17.5564 10.4803L17.5935 10.5017L17.5935 10.5017L17.5564 10.4803ZM17.7742 10.0711L17.8161 10.08L17.8161 10.0799L17.7742 10.0711ZM17.7732 9.9285L17.8151 9.9196L17.8151 9.91953L17.7732 9.9285ZM17.5574 9.5203L17.5203 9.54172L17.5203 9.54172L17.5574 9.5203ZM16.6091 7.87772L16.6462 7.85629C16.6365 7.83949 16.6168 7.8313 16.598 7.83632C16.5793 7.84134 16.5663 7.85832 16.5663 7.87772H16.6091ZM4.84546 5.25858L4.86689 5.29569L4.86689 5.29569L4.84546 5.25858ZM4.08081 5.75858L4.04896 5.7299L4.04895 5.72991L4.08081 5.75858ZM3.86694 6.12869L3.82619 6.11544L3.82618 6.11546L3.86694 6.12869ZM3.81714 7.03983L3.77428 7.03983V7.03983H3.81714ZM3.81714 9.23612H3.77428C3.77428 9.25558 3.78739 9.2726 3.80621 9.27756C3.82503 9.28252 3.84483 9.27418 3.85443 9.25725L3.81714 9.23612ZM3.85034 9.17752L3.81322 9.1561L3.81306 9.15639L3.85034 9.17752ZM6.71167 4.21854L6.67455 4.19711L6.67455 4.19712L6.71167 4.21854ZM6.74487 4.1619L6.78197 4.18336C6.79169 4.16657 6.78891 4.14534 6.77519 4.13161C6.76148 4.11788 6.74025 4.11508 6.72344 4.12478L6.74487 4.1619ZM15.2878 4.21854L15.325 4.19711L15.325 4.19711L15.2878 4.21854ZM18.1501 9.17752L18.1876 9.1566L18.1873 9.1561L18.1501 9.17752ZM18.1824 9.23514L18.145 9.25606C18.1545 9.27308 18.1743 9.28153 18.1932 9.27661C18.2121 9.27169 18.2252 9.25465 18.2252 9.23514H18.1824ZM18.1824 7.03983L18.2252 7.03983L18.2252 7.03983L18.1824 7.03983ZM18.1316 6.12869L18.1724 6.11545L18.1723 6.11543L18.1316 6.12869ZM17.9177 5.75858L17.9496 5.7299L17.9495 5.72987L17.9177 5.75858ZM17.1541 5.25858L17.1326 5.29569L17.1326 5.29569L17.1541 5.25858ZM15.2537 4.16092L15.2751 4.12381C15.2583 4.1141 15.2371 4.1169 15.2233 4.13063C15.2096 4.14435 15.2068 4.16558 15.2166 4.18238L15.2537 4.16092ZM15.6414 6.20194L15.6199 6.23905C15.6367 6.24875 15.6579 6.24596 15.6717 6.23224C15.6854 6.21852 15.6882 6.19731 15.6785 6.18051L15.6414 6.20194ZM14.6941 4.56131L14.657 4.58274L14.657 4.58274L14.6941 4.56131ZM14.449 4.16971L14.4777 4.13791L14.4777 4.13786L14.449 4.16971ZM14.325 4.09842L14.3382 4.05766L14.3382 4.05766L14.325 4.09842ZM13.8621 4.08182L13.8621 4.03896H13.8621V4.08182ZM11.9685 4.08182V4.03896C11.9491 4.03896 11.9321 4.05199 11.9271 4.07073C11.9221 4.08947 11.9303 4.10924 11.9471 4.11894L11.9685 4.08182ZM8.13745 4.08182L8.13745 4.03896L8.13745 4.03896L8.13745 4.08182ZM7.67554 4.09842L7.6624 4.05763L7.66228 4.05767L7.67554 4.09842ZM7.55249 4.16971L7.52388 4.1378L7.52381 4.13786L7.55249 4.16971ZM7.3064 4.56229L7.34351 4.58372L7.34351 4.58372L7.3064 4.56229ZM6.36011 6.20096L6.32299 6.17953C6.31329 6.19633 6.31609 6.21754 6.3298 6.23126C6.34351 6.24498 6.36473 6.24777 6.38153 6.23808L6.36011 6.20096ZM10.032 4.08182L10.0534 4.11894C10.0702 4.10924 10.0784 4.08947 10.0734 4.07073C10.0684 4.05199 10.0514 4.03896 10.032 4.03896V4.08182ZM11.2136 1.88748L11.2226 1.84557L11.2225 1.84556L11.2136 1.88748ZM10.7859 1.88748L10.777 1.84556L10.777 1.84557L10.7859 1.88748ZM9.97144 2.29959L9.99286 2.33671L9.99286 2.33671L9.97144 2.29959ZM8.07104 3.39627L8.04962 3.35915C8.03282 3.36885 8.02462 3.38864 8.02965 3.40738C8.03468 3.42612 8.05168 3.43915 8.07108 3.43913L8.07104 3.39627ZM8.13745 3.3953L8.13746 3.35244L8.13745 3.35244L8.13745 3.3953ZM13.8621 3.39627L13.8621 3.43913L13.8621 3.43913L13.8621 3.39627ZM13.9294 3.39725L13.9294 3.44011C13.9488 3.44012 13.9658 3.4271 13.9708 3.40836C13.9759 3.38962 13.9677 3.36983 13.9509 3.36013L13.9294 3.39725ZM12.0281 2.29959L12.0066 2.33671L12.0066 2.33671L12.0281 2.29959ZM10.6433 1.21658L10.6522 1.25851C10.8811 1.20988 11.1184 1.20993 11.3473 1.25851L11.3562 1.21658L11.3651 1.17466C11.1245 1.1236 10.875 1.12354 10.6344 1.17466L10.6433 1.21658ZM11.3562 1.21658L11.3473 1.2585C11.6045 1.31322 11.8478 1.45334 12.3494 1.74296L12.3708 1.70584L12.3923 1.66873C11.8957 1.38203 11.6387 1.23288 11.3651 1.17467L11.3562 1.21658ZM12.3708 1.70584L12.3494 1.74296L17.4754 4.70194L17.4968 4.66483L17.5183 4.62771L12.3923 1.66873L12.3708 1.70584ZM17.4968 4.66483L17.4754 4.70194C17.9769 4.99151 18.2196 5.13299 18.3957 5.32829L18.4275 5.29959L18.4593 5.2709C18.2721 5.06318 18.0149 4.91448 17.5183 4.62771L17.4968 4.66483ZM18.4275 5.29959L18.3956 5.32827C18.5522 5.50219 18.6708 5.70748 18.7432 5.93004L18.7839 5.91678L18.8247 5.90352C18.7486 5.66956 18.624 5.45376 18.4593 5.27092L18.4275 5.29959ZM18.7839 5.91678L18.7432 5.93002C18.8244 6.18013 18.8251 6.46066 18.8251 7.03983L18.8679 7.03983L18.9108 7.03983C18.9108 6.46641 18.9111 6.16961 18.8247 5.90354L18.7839 5.91678ZM18.8679 7.03983H18.8251V12.9588H18.8679H18.9108V7.03983H18.8679ZM18.8679 12.9588H18.8251C18.8251 13.5384 18.8244 13.8194 18.7432 14.0696L18.7839 14.0828L18.8247 14.096C18.9111 13.8299 18.9108 13.5326 18.9108 12.9588H18.8679ZM18.7839 14.0828L18.744 14.0674L18.6795 14.2344L18.7195 14.2498L18.7595 14.2652L18.8239 14.0982L18.7839 14.0828ZM18.7195 14.2498L18.6803 14.2324C18.6091 14.3923 18.5132 14.5407 18.3956 14.6713L18.4275 14.7L18.4593 14.7287C18.583 14.5913 18.6838 14.4353 18.7586 14.2672L18.7195 14.2498ZM18.4275 14.7L18.3968 14.6701L18.3255 14.7433L18.3562 14.7732L18.3869 14.8031L18.4582 14.7299L18.4275 14.7ZM18.3562 14.7732L18.3268 14.7421C18.155 14.9045 17.9143 15.0432 17.4754 15.2967L17.4968 15.3338L17.5183 15.3709C17.9532 15.1198 18.2048 14.9754 18.3856 14.8044L18.3562 14.7732ZM17.4968 15.3338L17.4754 15.2967L12.3494 18.2566L12.3708 18.2937L12.3923 18.3308L17.5183 15.3709L17.4968 15.3338ZM12.3708 18.2937L12.3496 18.2565L12.0176 18.446L12.0388 18.4832L12.0601 18.5204L12.3921 18.331L12.3708 18.2937ZM12.0388 18.4832L12.0178 18.4458C11.7245 18.6106 11.5394 18.7002 11.3473 18.7411L11.3562 18.783L11.3651 18.8249C11.5712 18.7811 11.7664 18.6854 12.0598 18.5205L12.0388 18.4832ZM11.3562 18.783L11.3497 18.7406L11.172 18.768L11.1785 18.8103L11.185 18.8527L11.3627 18.8254L11.3562 18.783ZM11.1785 18.8103L11.174 18.7677C11.0583 18.7798 10.9412 18.7798 10.8255 18.7677L10.821 18.8103L10.8166 18.853C10.9383 18.8657 11.0613 18.8657 11.1829 18.853L11.1785 18.8103ZM10.821 18.8103L10.8276 18.768L10.6498 18.7406L10.6433 18.783L10.6368 18.8254L10.8145 18.8527L10.821 18.8103ZM10.6433 18.783L10.6522 18.7411C10.4601 18.7001 10.2741 18.6107 9.98071 18.4458L9.95972 18.4832L9.93872 18.5205C10.2323 18.6855 10.4283 18.781 10.6344 18.8249L10.6433 18.783ZM9.95972 18.4832L9.98096 18.446L9.64893 18.2565L9.62769 18.2937L9.60645 18.331L9.93848 18.5204L9.95972 18.4832ZM9.62769 18.2937L9.64912 18.2566L4.52412 15.2967L4.50269 15.3338L4.48125 15.3709L9.60625 18.3308L9.62769 18.2937ZM4.50269 15.3338L4.52411 15.2967C4.08547 15.0434 3.84446 14.9044 3.67275 14.7421L3.64331 14.7732L3.61387 14.8044C3.79469 14.9753 4.0466 15.1199 4.48126 15.3709L4.50269 15.3338ZM3.64331 14.7732L3.67382 14.7431L3.60155 14.6699L3.57104 14.7L3.54054 14.7301L3.6128 14.8033L3.64331 14.7732ZM3.57104 14.7L3.60291 14.6713C3.48548 14.5408 3.38933 14.3922 3.31821 14.2324L3.27905 14.2498L3.2399 14.2672C3.31464 14.4352 3.4157 14.5914 3.53918 14.7286L3.57104 14.7ZM3.27905 14.2498L3.31904 14.2344L3.25458 14.0674L3.2146 14.0828L3.17462 14.0982L3.23907 14.2652L3.27905 14.2498ZM3.2146 14.0828L3.25537 14.0696C3.17422 13.8195 3.17347 13.5381 3.17347 12.9588H3.13062H3.08776C3.08776 13.5324 3.08752 13.83 3.17383 14.096L3.2146 14.0828ZM3.13062 12.9588H3.17347V7.03983H3.13062H3.08776V12.9588H3.13062ZM3.13062 7.03983L3.17347 7.03983C3.17347 6.53338 3.17421 6.25523 3.22895 6.02534L3.18726 6.01541L3.14556 6.00549C3.08793 6.24752 3.08776 6.53775 3.08776 7.03983L3.13062 7.03983ZM3.18726 6.01541L3.22856 6.02686L3.2559 5.92823L3.2146 5.91678L3.1733 5.90533L3.14596 6.00396L3.18726 6.01541ZM3.2146 5.91678L3.25536 5.93003C3.30961 5.76314 3.39057 5.60602 3.49342 5.46443L3.45874 5.43924L3.42407 5.41405C3.31609 5.56271 3.23095 5.72786 3.17384 5.90353L3.2146 5.91678ZM3.45874 5.43924L3.49214 5.4661L3.60444 5.32645L3.57104 5.29959L3.53765 5.27273L3.42534 5.41238L3.45874 5.43924ZM3.57104 5.29959L3.60289 5.32827C3.73437 5.18225 3.90425 5.06561 4.19349 4.89407L4.17163 4.85721L4.14977 4.82035C3.86016 4.9921 3.68017 5.11435 3.5392 5.27092L3.57104 5.29959ZM4.17163 4.85721L4.19316 4.89426L4.52422 4.70188L4.50269 4.66483L4.48115 4.62777L4.1501 4.82016L4.17163 4.85721ZM4.50269 4.66483L4.52411 4.70194L9.64911 1.74296L9.62769 1.70584L9.60626 1.66873L4.48126 4.62771L4.50269 4.66483ZM9.62769 1.70584L9.64911 1.74296C10.088 1.48958 10.3295 1.35066 10.556 1.28304L10.5437 1.24198L10.5314 1.20091C10.293 1.2721 10.0413 1.41757 9.60626 1.66873L9.62769 1.70584ZM10.5437 1.24198L10.5543 1.2835L10.6539 1.25811L10.6433 1.21658L10.6327 1.17506L10.5331 1.20045L10.5437 1.24198ZM13.863 16.6043L13.863 16.5614L8.13746 16.5604L8.13745 16.6033L8.13744 16.6462L13.863 16.6471L13.863 16.6043ZM8.13745 16.6033L8.13745 16.5604C8.12655 16.5604 8.11576 16.5602 8.10464 16.56C8.09368 16.5597 8.08231 16.5595 8.07106 16.5595L8.07104 16.6023L8.07103 16.6452C8.08119 16.6452 8.09159 16.6454 8.10276 16.6457C8.11377 16.6459 8.12547 16.6462 8.13745 16.6462L8.13745 16.6033ZM8.07104 16.6023L8.04961 16.6394L9.95 17.7371L9.97144 17.7L9.99287 17.6629L8.09248 16.5652L8.07104 16.6023ZM9.97144 17.7L9.95001 17.7371C10.4857 18.0464 10.6347 18.1237 10.7769 18.154L10.7859 18.1121L10.7948 18.0702C10.6692 18.0434 10.5343 17.9754 9.99286 17.6629L9.97144 17.7ZM10.7859 18.1121L10.777 18.154C10.9237 18.1852 11.0759 18.1851 11.2225 18.154L11.2136 18.1121L11.2047 18.0702C11.0698 18.0988 10.9297 18.0988 10.7948 18.0702L10.7859 18.1121ZM11.2136 18.1121L11.2225 18.154C11.3649 18.1237 11.5132 18.0467 12.0495 17.7371L12.0281 17.7L12.0066 17.6629C11.4646 17.9758 11.3304 18.0434 11.2047 18.0702L11.2136 18.1121ZM12.0281 17.7L12.0495 17.7371L13.948 16.6394L13.9265 16.6023L13.9051 16.5652L12.0066 17.6629L12.0281 17.7ZM13.9265 16.6023L13.9252 16.5595L13.8617 16.5614L13.863 16.6043L13.8644 16.6471L13.9278 16.6452L13.9265 16.6023ZM11.9705 15.9178V15.9606H13.8621V15.9178V15.8749H11.9705V15.9178ZM13.8621 15.9178L13.8621 15.9606C14.0577 15.9606 14.1675 15.9587 14.2321 15.9556C14.2965 15.9525 14.319 15.9481 14.3381 15.9419L14.325 15.9012L14.3118 15.8604C14.3037 15.863 14.2904 15.8669 14.228 15.8699C14.1657 15.8729 14.0576 15.8749 13.8621 15.8749L13.8621 15.9178ZM14.325 15.9012L14.3382 15.9419C14.3893 15.9253 14.4374 15.8979 14.4777 15.8617L14.449 15.8299L14.4203 15.798C14.3893 15.8259 14.3517 15.8473 14.3117 15.8604L14.325 15.9012ZM14.449 15.8299L14.4778 15.8616C14.4926 15.8481 14.5077 15.8307 14.5425 15.7765C14.5774 15.7222 14.6339 15.6283 14.7312 15.4597L14.6941 15.4383L14.657 15.4168C14.5597 15.5854 14.5041 15.6777 14.4704 15.7301C14.4366 15.7827 14.4265 15.7924 14.4202 15.7981L14.449 15.8299ZM14.6941 15.4383L14.7312 15.4597L15.6775 13.8191L15.6404 13.7976L15.6033 13.7762L14.657 15.4169L14.6941 15.4383ZM15.6404 13.7976L15.6189 13.7605L11.949 15.8806L11.9705 15.9178L11.9919 15.9549L15.6618 13.8347L15.6404 13.7976ZM7.30542 15.4383L7.2683 15.4597C7.36606 15.629 7.42275 15.7229 7.45784 15.7771C7.49296 15.8314 7.50803 15.8483 7.52279 15.8617L7.55151 15.8299L7.58024 15.7981C7.57383 15.7923 7.56357 15.7827 7.52979 15.7305C7.49598 15.6783 7.44022 15.586 7.34254 15.4168L7.30542 15.4383ZM7.55151 15.8299L7.52284 15.8617C7.56245 15.8974 7.60945 15.926 7.66127 15.9429L7.67456 15.9021L7.68785 15.8614C7.64853 15.8486 7.61182 15.8265 7.58019 15.798L7.55151 15.8299ZM7.67456 15.9021L7.66132 15.9429C7.68065 15.9492 7.7031 15.9532 7.76714 15.9561C7.83148 15.9589 7.94127 15.9606 8.13745 15.9606L8.13745 15.9178L8.13745 15.8749C7.94127 15.8749 7.83318 15.8732 7.77094 15.8704C7.70841 15.8677 7.6956 15.8639 7.6878 15.8614L7.67456 15.9021ZM8.13745 15.9178V15.9606H10.03V15.9178V15.8749H8.13745V15.9178ZM10.03 15.9178L10.0515 15.8806L6.37861 13.7596L6.35718 13.7967L6.33574 13.8338L10.0086 15.9549L10.03 15.9178ZM6.35718 13.7967L6.32007 13.8181L7.26831 15.4597L7.30542 15.4383L7.34253 15.4168L6.39429 13.7752L6.35718 13.7967ZM3.81714 12.9588L3.77428 12.9588C3.77428 13.5777 3.78133 13.7457 3.82617 13.8841L3.86694 13.8709L3.90771 13.8577C3.86811 13.7354 3.86 13.5845 3.86 12.9588L3.81714 12.9588ZM3.86694 13.8709L3.82619 13.8841C3.87253 14.0266 3.94881 14.1583 4.04894 14.2697L4.08081 14.241L4.11268 14.2123C4.0205 14.1098 3.95031 13.9886 3.9077 13.8576L3.86694 13.8709ZM4.08081 14.241L4.04896 14.2697C4.14638 14.3779 4.28785 14.4676 4.82403 14.7771L4.84546 14.74L4.86689 14.7029C4.32474 14.3899 4.19868 14.3079 4.11266 14.2123L4.08081 14.241ZM4.84546 14.74L4.82402 14.7771L6.72441 15.8748L6.74585 15.8377L6.76728 15.8006L4.86689 14.7029L4.84546 14.74ZM6.74585 15.8377L6.78282 15.816L6.74962 15.7594L6.71265 15.781L6.67567 15.8027L6.70888 15.8594L6.74585 15.8377ZM6.71265 15.781L6.74976 15.7596L3.88648 10.8016L3.84937 10.823L3.81225 10.8445L6.67553 15.8025L6.71265 15.781ZM3.84937 10.823L3.88648 10.8016C3.88107 10.7922 3.87586 10.7828 3.87052 10.7731C3.86525 10.7635 3.85981 10.7536 3.85427 10.744L3.81714 10.7654L3.78001 10.7868C3.78505 10.7956 3.79007 10.8047 3.79544 10.8144C3.80073 10.824 3.80634 10.8342 3.81225 10.8445L3.84937 10.823ZM3.81714 10.7654H3.77428V12.9588H3.81714H3.86V10.7654H3.81714ZM18.1501 10.823L18.113 10.8016L15.2507 15.7596L15.2878 15.781L15.325 15.8025L18.1873 10.8445L18.1501 10.823ZM15.2878 15.781L15.2513 15.7586L15.2171 15.8143L15.2537 15.8367L15.2902 15.8591L15.3244 15.8035L15.2878 15.781ZM15.2537 15.8367L15.2751 15.8738L17.1755 14.7771L17.1541 14.74L17.1326 14.7029L15.2322 15.7996L15.2537 15.8367ZM17.1541 14.74L17.1755 14.7771C17.7115 14.4676 17.8522 14.3778 17.9496 14.2697L17.9177 14.241L17.8859 14.2123C17.7998 14.3078 17.6745 14.3901 17.1326 14.7029L17.1541 14.74ZM17.9177 14.241L17.9496 14.2697C18.0499 14.1582 18.1259 14.0268 18.1723 13.8841L18.1316 13.8709L18.0908 13.8576C18.0481 13.9888 17.9782 14.1098 17.8859 14.2123L17.9177 14.241ZM18.1316 13.8709L18.1724 13.8841C18.2173 13.7457 18.2252 13.5783 18.2252 12.9588L18.1824 12.9588L18.1395 12.9588C18.1395 13.5848 18.1305 13.7353 18.0908 13.8577L18.1316 13.8709ZM18.1824 12.9588H18.2252V10.7644H18.1824H18.1395V12.9588H18.1824ZM18.1824 10.7644L18.1452 10.743C18.1395 10.753 18.134 10.7633 18.1288 10.773C18.1235 10.7829 18.1184 10.7923 18.113 10.8016L18.1501 10.823L18.1873 10.8445C18.1934 10.8339 18.1991 10.8233 18.2043 10.8135C18.2097 10.8036 18.2145 10.7945 18.2195 10.7858L18.1824 10.7644ZM4.44409 9.5203L4.40698 9.49887C4.30901 9.66855 4.25563 9.76436 4.22594 9.82142C4.19639 9.87822 4.18864 9.89968 4.1844 9.91956L4.22632 9.9285L4.26823 9.93744C4.26994 9.92943 4.27311 9.91647 4.30198 9.86098C4.33071 9.80576 4.38324 9.71141 4.48121 9.54172L4.44409 9.5203ZM4.22632 9.9285L4.1844 9.91959C4.17316 9.97246 4.17316 10.0281 4.1844 10.081L4.22632 10.0721L4.26824 10.0631C4.2595 10.022 4.2595 9.97853 4.26824 9.93741L4.22632 9.9285ZM4.22632 10.0721L4.18443 10.0811C4.18867 10.1008 4.19637 10.1226 4.2259 10.1798C4.25552 10.2372 4.30866 10.3331 4.406 10.5017L4.44312 10.4803L4.48023 10.4588C4.38293 10.2903 4.33068 10.196 4.30207 10.1405C4.27337 10.0849 4.26999 10.0712 4.26821 10.063L4.22632 10.0721ZM4.44312 10.4803L4.406 10.5017L5.35327 12.1423L5.39038 12.1209L5.4275 12.0995L4.48023 10.4588L4.44312 10.4803ZM5.39038 12.1209H5.43324V7.88065H5.39038H5.34752V12.1209H5.39038ZM5.39038 7.88065L5.35326 7.85923L4.40697 9.49887L4.44409 9.5203L4.48121 9.54172L5.4275 7.90207L5.39038 7.88065ZM16.6091 12.1209L16.6462 12.1423L17.5935 10.5017L17.5564 10.4803L17.5193 10.4588L16.572 12.0995L16.6091 12.1209ZM17.5564 10.4803L17.5935 10.5017C17.6916 10.3318 17.745 10.2357 17.7747 10.1784C17.8043 10.1213 17.8119 10.0998 17.8161 10.08L17.7742 10.0711L17.7322 10.0622C17.7305 10.0703 17.7274 10.0834 17.6986 10.139C17.6699 10.1944 17.6174 10.2889 17.5193 10.4588L17.5564 10.4803ZM17.7742 10.0711L17.8161 10.0799C17.8273 10.0267 17.8262 9.97174 17.8151 9.9196L17.7732 9.9285L17.7313 9.9374C17.7401 9.97894 17.7408 10.0218 17.7322 10.0622L17.7742 10.0711ZM17.7732 9.9285L17.8151 9.91953C17.8109 9.90007 17.8038 9.8786 17.7744 9.82123C17.7451 9.76389 17.6921 9.668 17.5945 9.49887L17.5574 9.5203L17.5203 9.54172C17.6178 9.71075 17.6698 9.80503 17.6981 9.86028C17.7264 9.9155 17.7295 9.92905 17.7313 9.93747L17.7732 9.9285ZM17.5574 9.5203L17.5945 9.49887L16.6462 7.85629L16.6091 7.87772L16.572 7.89914L17.5203 9.54172L17.5574 9.5203ZM16.6091 7.87772H16.5663V12.1209H16.6091H16.652V7.87772H16.6091ZM4.84546 5.25858L4.82403 5.22146C4.28736 5.53131 4.14639 5.6217 4.04896 5.7299L4.08081 5.75858L4.11266 5.78725C4.19872 5.69167 4.32451 5.60884 4.86689 5.29569L4.84546 5.25858ZM4.08081 5.75858L4.04895 5.72991C3.9487 5.84133 3.87256 5.97284 3.82619 6.11544L3.86694 6.12869L3.9077 6.14195C3.95034 6.01082 4.0204 5.8898 4.11267 5.78724L4.08081 5.75858ZM3.86694 6.12869L3.82618 6.11546C3.78124 6.25388 3.77429 6.42107 3.77428 7.03983L3.81714 7.03983L3.86 7.03983C3.86 6.41419 3.86802 6.26416 3.90771 6.14193L3.86694 6.12869ZM3.81714 7.03983H3.77428V9.23612H3.81714H3.86V7.03983H3.81714ZM3.81714 9.23612L3.85443 9.25725L3.88763 9.19865L3.85034 9.17752L3.81306 9.15639L3.77985 9.21499L3.81714 9.23612ZM3.85034 9.17752L3.88746 9.19894L6.74879 4.23996L6.71167 4.21854L6.67455 4.19712L3.81322 9.1561L3.85034 9.17752ZM6.71167 4.21854L6.74879 4.23997C6.7543 4.23041 6.75986 4.22099 6.76544 4.21154C6.77098 4.20215 6.77657 4.1927 6.78197 4.18336L6.74487 4.1619L6.70778 4.14043C6.7026 4.14938 6.69722 4.15848 6.69163 4.16796C6.68606 4.17739 6.68031 4.18715 6.67455 4.19711L6.71167 4.21854ZM6.74487 4.1619L6.72344 4.12478L4.82403 5.22146L4.84546 5.25858L4.86689 5.29569L6.7663 4.19901L6.74487 4.1619ZM15.2878 4.21854L15.2507 4.23996L18.113 9.19895L18.1501 9.17752L18.1873 9.1561L15.325 4.19711L15.2878 4.21854ZM18.1501 9.17752L18.1127 9.19844L18.145 9.25606L18.1824 9.23514L18.2198 9.21422L18.1876 9.1566L18.1501 9.17752ZM18.1824 9.23514H18.2252V7.03983H18.1824H18.1395V9.23514H18.1824ZM18.1824 7.03983L18.2252 7.03983C18.2252 6.42069 18.2173 6.25387 18.1724 6.11545L18.1316 6.12869L18.0908 6.14194C18.1306 6.26422 18.1395 6.41414 18.1395 7.03983L18.1824 7.03983ZM18.1316 6.12869L18.1723 6.11543C18.1259 5.97285 18.0499 5.84132 17.9496 5.7299L17.9177 5.75858L17.8859 5.78725C17.9782 5.88977 18.0481 6.01081 18.0908 6.14196L18.1316 6.12869ZM17.9177 5.75858L17.9495 5.72987C17.8522 5.62192 17.7114 5.53089 17.1755 5.22146L17.1541 5.25858L17.1326 5.29569C17.6741 5.60829 17.7998 5.69186 17.8859 5.78728L17.9177 5.75858ZM17.1541 5.25858L17.1755 5.22147L15.2751 4.12381L15.2537 4.16092L15.2322 4.19803L17.1326 5.29569L17.1541 5.25858ZM15.2537 4.16092L15.2166 4.18238C15.2222 4.19209 15.228 4.20182 15.2337 4.21132C15.2395 4.22092 15.2452 4.23034 15.2507 4.23997L15.2878 4.21854L15.325 4.19711C15.319 4.18674 15.3129 4.1767 15.3072 4.16716C15.3014 4.15752 15.296 4.14844 15.2908 4.13946L15.2537 4.16092ZM15.6414 6.20194L15.6785 6.18051L14.7312 4.53988L14.6941 4.56131L14.657 4.58274L15.6042 6.22337L15.6414 6.20194ZM14.6941 4.56131L14.7312 4.53988C14.6336 4.37078 14.5771 4.27688 14.5423 4.2227C14.5075 4.16862 14.4926 4.15137 14.4777 4.13791L14.449 4.16971L14.4202 4.20151C14.4265 4.20717 14.4365 4.21665 14.4702 4.26905C14.5038 4.32136 14.5594 4.4137 14.657 4.58274L14.6941 4.56131ZM14.449 4.16971L14.4777 4.13786C14.4374 4.10159 14.3894 4.07431 14.3382 4.05766L14.325 4.09842L14.3117 4.13918C14.3518 4.15222 14.3892 4.17354 14.4203 4.20156L14.449 4.16971ZM14.325 4.09842L14.3382 4.05766C14.3191 4.05145 14.2969 4.04711 14.2325 4.04401C14.1681 4.04091 14.0583 4.03896 13.8621 4.03896L13.8621 4.08182L13.8621 4.12468C14.0582 4.12468 14.1663 4.12663 14.2284 4.12962C14.2907 4.13262 14.3037 4.13658 14.3117 4.13918L14.325 4.09842ZM13.8621 4.08182V4.03896H11.9685V4.08182V4.12468H13.8621V4.08182ZM11.9685 4.08182L11.9471 4.11894L15.6199 6.23905L15.6414 6.20194L15.6628 6.16482L11.9899 4.0447L11.9685 4.08182ZM8.13745 4.08182L8.13745 4.03896C7.94246 4.03896 7.83287 4.04092 7.7684 4.04403C7.70405 4.04714 7.68148 4.05148 7.6624 4.05763L7.67554 4.09842L7.68868 4.13921C7.69675 4.13661 7.71018 4.13266 7.77253 4.12965C7.83476 4.12665 7.94255 4.12468 8.13745 4.12468L8.13745 4.08182ZM7.67554 4.09842L7.66228 4.05767C7.61097 4.07435 7.56374 4.10207 7.52388 4.1378L7.55249 4.16971L7.5811 4.20162C7.61238 4.17357 7.64924 4.15204 7.68879 4.13918L7.67554 4.09842ZM7.55249 4.16971L7.52381 4.13786C7.50892 4.15127 7.494 4.16829 7.45905 4.2225C7.42408 4.27674 7.3674 4.37091 7.26928 4.54086L7.3064 4.56229L7.34351 4.58372C7.44159 4.41384 7.49736 4.32126 7.53109 4.26894C7.56484 4.21659 7.57486 4.20724 7.58117 4.20156L7.55249 4.16971ZM7.3064 4.56229L7.26928 4.54086L6.32299 6.17953L6.36011 6.20096L6.39722 6.22239L7.34351 4.58372L7.3064 4.56229ZM6.36011 6.20096L6.38153 6.23808L10.0534 4.11894L10.032 4.08182L10.0106 4.0447L6.33869 6.16384L6.36011 6.20096ZM10.032 4.08182V4.03896H8.13745V4.08182V4.12468H10.032V4.08182ZM11.2136 1.88748L11.2225 1.84556C11.0759 1.81447 10.9236 1.81441 10.777 1.84556L10.7859 1.88748L10.7948 1.92941C10.9297 1.90076 11.0698 1.9008 11.2047 1.92941L11.2136 1.88748ZM10.7859 1.88748L10.777 1.84557C10.6347 1.87589 10.4861 1.95299 9.95001 2.26248L9.97144 2.29959L9.99286 2.33671C10.5347 2.02389 10.6691 1.95619 10.7948 1.9294L10.7859 1.88748ZM9.97144 2.29959L9.95001 2.26247L8.04962 3.35915L8.07104 3.39627L8.09247 3.43339L9.99286 2.33671L9.97144 2.29959ZM8.07104 3.39627L8.07108 3.43913C8.08227 3.43912 8.09365 3.43886 8.10464 3.43862C8.11578 3.43838 8.12661 3.43815 8.13745 3.43815L8.13745 3.3953L8.13745 3.35244C8.12554 3.35244 8.11382 3.35269 8.10277 3.35293C8.09157 3.35317 8.08112 3.35341 8.07101 3.35342L8.07104 3.39627ZM8.13745 3.3953L8.13744 3.43815L13.8621 3.43913L13.8621 3.39627L13.8621 3.35342L8.13746 3.35244L8.13745 3.3953ZM13.8621 3.39627L13.8621 3.43913C13.8731 3.43913 13.8841 3.43936 13.8954 3.4396C13.9065 3.43984 13.9181 3.4401 13.9294 3.44011L13.9294 3.39725L13.9295 3.35439C13.9192 3.35438 13.9086 3.35415 13.8972 3.35391C13.886 3.35367 13.8741 3.35342 13.8621 3.35342L13.8621 3.39627ZM13.9294 3.39725L13.9509 3.36013L12.0495 2.26248L12.0281 2.29959L12.0066 2.33671L13.908 3.43437L13.9294 3.39725ZM12.0281 2.29959L12.0495 2.26248C11.5135 1.95304 11.3649 1.87588 11.2226 1.84557L11.2136 1.88748L11.2047 1.9294C11.3304 1.95617 11.4649 2.02394 12.0066 2.33671L12.0281 2.29959Z" fill="url(#paint6_linear_845_39676)" mask="url(#path-11-inside-1_845_39676)"/>
</g>
</g>
</g>
<g filter="url(#filter2_d_845_39676)">
<path fill-rule="evenodd" clip-rule="evenodd" d="M11 13.1715C12.7516 13.1715 14.1715 11.7516 14.1715 10C14.1715 8.24851 12.7516 6.82861 11 6.82861C9.24851 6.82861 7.82861 8.24851 7.82861 10C7.82861 11.7516 9.24851 13.1715 11 13.1715ZM11.3102 11.8613V11.5511H11.6205C12.1344 11.5511 12.5511 11.1344 12.5511 10.6205C12.5511 10.1065 12.1344 9.68984 11.6205 9.68984H10.3796C10.2083 9.68984 10.0694 9.55095 10.0694 9.37963C10.0694 9.20831 10.2083 9.06943 10.3796 9.06943H11.9307C12.102 9.06943 12.2409 8.93055 12.2409 8.75923C12.2409 8.5879 12.102 8.44902 11.9307 8.44902H11.3102V8.13882C11.3102 7.9675 11.1714 7.82861 11 7.82861C10.8287 7.82861 10.6898 7.9675 10.6898 8.13882V8.44902H10.3796C9.86567 8.44902 9.44902 8.86567 9.44902 9.37963C9.44902 9.8936 9.86567 10.3102 10.3796 10.3102H11.6205C11.7918 10.3102 11.9307 10.4491 11.9307 10.6205C11.9307 10.7918 11.7918 10.9307 11.6205 10.9307H10.0694C9.89811 10.9307 9.75923 11.0695 9.75923 11.2409C9.75923 11.4122 9.89811 11.5511 10.0694 11.5511H10.6898V11.8613C10.6898 12.0326 10.8287 12.1715 11 12.1715C11.1714 12.1715 11.3102 12.0326 11.3102 11.8613Z" fill="white"/>
<path d="M11.0005 6.80713C12.7636 6.80737 14.1929 8.23727 14.1929 10.0005C14.1926 11.7635 12.7635 13.1926 11.0005 13.1929C9.23727 13.1929 7.80737 11.7636 7.80713 10.0005C7.80713 8.23712 9.23712 6.80713 11.0005 6.80713ZM11.0005 7.8501C10.841 7.8501 10.7114 7.97967 10.7114 8.13916V8.47021H10.3794C9.87746 8.47034 9.47034 8.87746 9.47021 9.37939C9.47021 9.88144 9.87738 10.2884 10.3794 10.2886H11.6206C11.8037 10.2887 11.9517 10.4375 11.9517 10.6206C11.9516 10.8036 11.8036 10.9516 11.6206 10.9517H10.0698C9.91038 10.9517 9.78084 11.0813 9.78076 11.2407C9.78076 11.4002 9.91034 11.5298 10.0698 11.5298H10.7114V11.8608C10.7114 12.0203 10.841 12.1499 11.0005 12.1499C11.1598 12.1497 11.2886 12.0202 11.2886 11.8608V11.5298H11.6206C12.1226 11.5297 12.5297 11.1226 12.5298 10.6206C12.5298 10.1185 12.1227 9.71151 11.6206 9.71143H10.3794C10.1963 9.7113 10.0483 9.56247 10.0483 9.37939C10.0485 9.19643 10.1964 9.04847 10.3794 9.04834H11.9302C12.0896 9.04834 12.2192 8.91874 12.2192 8.75928C12.2192 8.59979 12.0897 8.47021 11.9302 8.47021H11.2886V8.13916C11.2886 7.97982 11.1598 7.85034 11.0005 7.8501Z" stroke="url(#paint7_linear_845_39676)" stroke-width="0.0428571" stroke-linecap="round" style="mix-blend-mode:color-burn"/>
</g>
</g>
<defs>
<filter id="filter0_dddd_845_39676" x="0.30302" y="0.66528" width="21.394" height="28.0124" filterUnits="userSpaceOnUse" color-interpolation-filters="sRGB">
<feFlood flood-opacity="0" result="BackgroundImageFix"/>
<feColorMatrix in="SourceAlpha" type="matrix" values="0 0 0 0 0 0 0 0 0 0 0 0 0 0 0 0 0 0 127 0" result="hardAlpha"/>
<feOffset dy="0.428571"/>
<feGaussianBlur stdDeviation="0.471429"/>
<feColorMatrix type="matrix" values="0 0 0 0 0 0 0 0 0 0 0 0 0 0 0 0 0 0 0.24 0"/>
<feBlend mode="normal" in2="BackgroundImageFix" result="effect1_dropShadow_845_39676"/>
<feColorMatrix in="SourceAlpha" type="matrix" values="0 0 0 0 0 0 0 0 0 0 0 0 0 0 0 0 0 0 127 0" result="hardAlpha"/>
<feOffset dy="1.8"/>
<feGaussianBlur stdDeviation="0.9"/>
<feColorMatrix type="matrix" values="0 0 0 0 0 0 0 0 0 0 0 0 0 0 0 0 0 0 0.21 0"/>
<feBlend mode="normal" in2="effect1_dropShadow_845_39676" result="effect2_dropShadow_845_39676"/>
<feColorMatrix in="SourceAlpha" type="matrix" values="0 0 0 0 0 0 0 0 0 0 0 0 0 0 0 0 0 0 127 0" result="hardAlpha"/>
<feOffset dy="3.94286"/>
<feGaussianBlur stdDeviation="1.2"/>
<feColorMatrix type="matrix" values="0 0 0 0 0 0 0 0 0 0 0 0 0 0 0 0 0 0 0.12 0"/>
<feBlend mode="normal" in2="effect2_dropShadow_845_39676" result="effect3_dropShadow_845_39676"/>
<feColorMatrix in="SourceAlpha" type="matrix" values="0 0 0 0 0 0 0 0 0 0 0 0 0 0 0 0 0 0 127 0" result="hardAlpha"/>
<feOffset dy="7.02857"/>
<feGaussianBlur stdDeviation="1.41429"/>
<feColorMatrix type="matrix" values="0 0 0 0 0 0 0 0 0 0 0 0 0 0 0 0 0 0 0.04 0"/>
<feBlend mode="normal" in2="effect3_dropShadow_845_39676" result="effect4_dropShadow_845_39676"/>
<feBlend mode="normal" in="SourceGraphic" in2="effect4_dropShadow_845_39676" result="shape"/>
</filter>
<filter id="filter1_d_845_39676" x="2.4449" y="0.664913" width="17.1087" height="19.0119" filterUnits="userSpaceOnUse" color-interpolation-filters="sRGB">
<feFlood flood-opacity="0" result="BackgroundImageFix"/>
<feColorMatrix in="SourceAlpha" type="matrix" values="0 0 0 0 0 0 0 0 0 0 0 0 0 0 0 0 0 0 127 0" result="hardAlpha"/>
<feOffset dy="0.171429"/>
<feGaussianBlur stdDeviation="0.342857"/>
<feColorMatrix type="matrix" values="0 0 0 0 0 0 0 0 0 0 0 0 0 0 0 0 0 0 0.16 0"/>
<feBlend mode="color-burn" in2="BackgroundImageFix" result="effect1_dropShadow_845_39676"/>
<feBlend mode="normal" in="SourceGraphic" in2="effect1_dropShadow_845_39676" result="shape"/>
</filter>
<filter id="filter2_d_845_39676" x="6.75707" y="5.92862" width="8.48585" height="8.48573" filterUnits="userSpaceOnUse" color-interpolation-filters="sRGB">
<feFlood flood-opacity="0" result="BackgroundImageFix"/>
<feColorMatrix in="SourceAlpha" type="matrix" values="0 0 0 0 0 0 0 0 0 0 0 0 0 0 0 0 0 0 127 0" result="hardAlpha"/>
<feOffset dy="0.171429"/>
<feGaussianBlur stdDeviation="0.514286"/>
<feColorMatrix type="matrix" values="0 0 0 0 0 0 0 0 0 0 0 0 0 0 0 0 0 0 0.12 0"/>
<feBlend mode="plus-darker" in2="BackgroundImageFix" result="effect1_dropShadow_845_39676"/>
<feBlend mode="normal" in="SourceGraphic" in2="effect1_dropShadow_845_39676" result="shape"/>
</filter>
<linearGradient id="paint0_linear_845_39676" x1="1.91431" y1="0.914307" x2="1.91431" y2="19.0857" gradientUnits="userSpaceOnUse">
<stop stop-color="#FFEDAF"/>
<stop offset="1" stop-color="#F2BE2F"/>
</linearGradient>
<linearGradient id="paint1_linear_845_39676" x1="11" y1="0.71958" x2="11" y2="19.156" gradientUnits="userSpaceOnUse">
<stop stop-color="white"/>
<stop offset="1" stop-color="white" stop-opacity="0"/>
</linearGradient>
<radialGradient id="paint2_radial_845_39676" cx="0" cy="0" r="1" gradientUnits="userSpaceOnUse" gradientTransform="translate(11 6.01515) rotate(90) scale(12.1602 9.22618)">
<stop stop-color="white"/>
<stop offset="1" stop-color="white" stop-opacity="0"/>
</radialGradient>
<linearGradient id="paint3_linear_845_39676" x1="11" y1="0.71958" x2="11" y2="19.156" gradientUnits="userSpaceOnUse">
<stop stop-color="white"/>
<stop offset="1" stop-color="white" stop-opacity="0"/>
</linearGradient>
<radialGradient id="paint4_radial_845_39676" cx="0" cy="0" r="1" gradientUnits="userSpaceOnUse" gradientTransform="translate(11 6.01515) rotate(90) scale(12.1602 9.22618)">
<stop stop-color="white"/>
<stop offset="1" stop-color="white" stop-opacity="0"/>
</radialGradient>
<linearGradient id="paint5_linear_845_39676" x1="-1" y1="-2" x2="-1" y2="22" gradientUnits="userSpaceOnUse">
<stop offset="0.135095" stop-color="white"/>
<stop offset="0.877908" stop-color="white" stop-opacity="0.01"/>
</linearGradient>
<linearGradient id="paint6_linear_845_39676" x1="10.9993" y1="1.1792" x2="10.9993" y2="18.8197" gradientUnits="userSpaceOnUse">
<stop stop-color="white"/>
<stop offset="1" stop-color="#999999"/>
</linearGradient>
<linearGradient id="paint7_linear_845_39676" x1="11" y1="6.82861" x2="11" y2="13.1715" gradientUnits="userSpaceOnUse">
<stop stop-color="#DFDFDF"/>
<stop offset="1" stop-color="#A9A9A9"/>
</linearGradient>
</defs>
</svg>
