<svg width="30" height="38" viewBox="0 0 30 38" fill="none" xmlns="http://www.w3.org/2000/svg">
<g filter="url(#filter0_dddd_10_29034)">
<circle cx="15.5552" cy="15.4668" r="10.0571" fill="white"/>
</g>
<mask id="mask0_10_29034" style="mask-type:alpha" maskUnits="userSpaceOnUse" x="5" y="5" width="21" height="21">
<circle cx="15.5552" cy="15.4668" r="10.0571" fill="white"/>
</mask>
<g mask="url(#mask0_10_29034)">
<mask id="mask1_10_29034" style="mask-type:alpha" maskUnits="userSpaceOnUse" x="5" y="5" width="21" height="21">
<circle cx="15.5552" cy="15.4668" r="10.0571" fill="white"/>
</mask>
<g mask="url(#mask1_10_29034)">
<rect x="0.888672" y="0.800049" width="29.3333" height="29.3333" fill="url(#paint0_linear_10_29034)"/>
<rect x="0.888672" y="0.800049" width="29.3333" height="29.3333" fill="url(#paint1_linear_10_29034)" fill-opacity="0.6" style="mix-blend-mode:overlay"/>
<rect x="0.888672" y="0.800049" width="29.3333" height="29.3333" fill="url(#paint2_radial_10_29034)" fill-opacity="0.6" style="mix-blend-mode:overlay"/>
<rect x="0.888672" y="0.800049" width="29.3333" height="29.3333" fill="black" fill-opacity="0.16" style="mix-blend-mode:overlay"/>
<rect x="0.888672" y="0.800049" width="29.3333" height="29.3333" fill="black" fill-opacity="0.12" style="mix-blend-mode:darken"/>
</g>
<g filter="url(#filter1_d_10_29034)">
<mask id="mask2_10_29034" style="mask-type:alpha" maskUnits="userSpaceOnUse" x="5" y="5" width="21" height="21">
<path d="M16.0703 5.42212C21.3844 5.69124 25.6102 10.0862 25.6104 15.467L25.5977 15.9836C25.3285 21.2976 20.9345 25.5234 15.5537 25.5237L15.0361 25.511C9.8935 25.2503 5.76923 21.1263 5.50879 15.9836L5.49609 15.467C5.49622 9.9129 9.99959 5.40967 15.5537 5.40942L16.0703 5.42212ZM15.5537 6.24731C10.4625 6.24756 6.33411 10.3758 6.33398 15.467C6.33424 20.5582 10.4625 24.6855 15.5537 24.6858C20.6449 24.6855 24.7722 20.5582 24.7725 15.467C24.7723 10.3758 20.645 6.24757 15.5537 6.24731ZM15.5537 7.81958C19.7774 7.81959 23.2012 11.2434 23.2012 15.467C23.201 19.6906 19.7773 23.1145 15.5537 23.1145C11.3301 23.1145 7.90638 19.6906 7.90625 15.467C7.90625 11.2434 11.33 7.81958 15.5537 7.81958Z" fill="white"/>
</mask>
<g mask="url(#mask2_10_29034)">
<rect x="0.886719" y="0.800049" width="29.3333" height="29.3333" fill="url(#paint3_linear_10_29034)"/>
<rect x="0.886719" y="0.800049" width="29.3333" height="29.3333" fill="url(#paint4_linear_10_29034)" fill-opacity="0.6" style="mix-blend-mode:overlay"/>
<rect x="0.886719" y="0.800049" width="29.3333" height="29.3333" fill="url(#paint5_radial_10_29034)" fill-opacity="0.6" style="mix-blend-mode:overlay"/>
<g style="mix-blend-mode:soft-light">
<path fill-rule="evenodd" clip-rule="evenodd" d="M0.886719 0.800049H18.4867L12.8697 30.1334H0.886719V0.800049Z" fill="url(#paint6_linear_10_29034)" style="mix-blend-mode:lighten"/>
</g>
<g style="mix-blend-mode:soft-light">
<mask id="path-11-inside-1_10_29034" fill="white">
<path d="M16.0703 5.42212C21.3844 5.69124 25.6102 10.0862 25.6104 15.467L25.5977 15.9836C25.3285 21.2976 20.9345 25.5234 15.5537 25.5237L15.0361 25.511C9.8935 25.2503 5.76923 21.1263 5.50879 15.9836L5.49609 15.467C5.49622 9.9129 9.99959 5.40967 15.5537 5.40942L16.0703 5.42212ZM15.5537 6.24731C10.4625 6.24756 6.33411 10.3758 6.33398 15.467C6.33424 20.5582 10.4625 24.6855 15.5537 24.6858C20.6449 24.6855 24.7722 20.5582 24.7725 15.467C24.7723 10.3758 20.645 6.24757 15.5537 6.24731ZM15.5537 7.81958C19.7774 7.81959 23.2012 11.2434 23.2012 15.467C23.201 19.6906 19.7773 23.1145 15.5537 23.1145C11.3301 23.1145 7.90638 19.6906 7.90625 15.467C7.90625 11.2434 11.33 7.81958 15.5537 7.81958Z"/>
</mask>
<path d="M16.0703 5.42212L16.073 5.36979L16.0716 5.36975L16.0703 5.42212ZM25.6104 15.467L25.6627 15.4683L25.6627 15.467L25.6104 15.467ZM25.5977 15.9836L25.65 15.9863L25.65 15.9849L25.5977 15.9836ZM15.5537 25.5237L15.5524 25.5761L15.5537 25.5761L15.5537 25.5237ZM15.0361 25.511L15.0335 25.5633L15.0348 25.5634L15.0361 25.511ZM5.50879 15.9836L5.45641 15.9849L5.45648 15.9863L5.50879 15.9836ZM5.49609 15.467L5.4437 15.467L5.44373 15.4683L5.49609 15.467ZM15.5537 5.40942L15.555 5.35704L15.5537 5.35704L15.5537 5.40942ZM15.5537 6.24731L15.5537 6.19493L15.5537 6.19493L15.5537 6.24731ZM6.33398 15.467L6.2816 15.467L6.2816 15.467L6.33398 15.467ZM15.5537 24.6858L15.5537 24.7382L15.5537 24.7382L15.5537 24.6858ZM24.7725 15.467L24.8248 15.467L24.8248 15.467L24.7725 15.467ZM15.5537 7.81958L15.5537 7.7672H15.5537V7.81958ZM23.2012 15.467L23.2536 15.467V15.467H23.2012ZM15.5537 23.1145L15.5537 23.1669L15.5537 23.1669L15.5537 23.1145ZM7.90625 15.467L7.85387 15.467L7.85387 15.467L7.90625 15.467ZM16.0703 5.42212L16.0677 5.47443C21.354 5.74215 25.5578 10.1142 25.558 15.467L25.6104 15.467L25.6627 15.467C25.6626 10.0581 21.4147 5.64033 16.073 5.36981L16.0703 5.42212ZM25.6104 15.467L25.558 15.4658L25.5453 15.9824L25.5977 15.9836L25.65 15.9849L25.6627 15.4683L25.6104 15.467ZM25.5977 15.9836L25.5453 15.981C25.2776 21.2672 20.9064 25.4711 15.5537 25.4713L15.5537 25.5237L15.5537 25.5761C20.9625 25.5758 25.3795 21.328 25.65 15.9863L25.5977 15.9836ZM15.5537 25.5237L15.555 25.4713L15.0374 25.4586L15.0361 25.511L15.0348 25.5634L15.5524 25.576L15.5537 25.5237ZM15.0361 25.511L15.0388 25.4587C9.923 25.1993 5.82018 21.0968 5.5611 15.981L5.50879 15.9836L5.45648 15.9863C5.71827 21.1558 9.86401 25.3013 15.0335 25.5633L15.0361 25.511ZM5.50879 15.9836L5.56115 15.9824L5.54846 15.4658L5.49609 15.467L5.44373 15.4683L5.45642 15.9849L5.50879 15.9836ZM5.49609 15.467L5.54847 15.467C5.5486 9.94183 10.0285 5.46205 15.5537 5.4618L15.5537 5.40942L15.5537 5.35704C9.97066 5.35729 5.44384 9.88396 5.44371 15.467L5.49609 15.467ZM15.5537 5.40942L15.5524 5.46179L16.069 5.47448L16.0703 5.42212L16.0716 5.36975L15.555 5.35706L15.5537 5.40942ZM15.5537 6.24731L15.5537 6.19493C10.4335 6.19518 6.28173 10.3468 6.2816 15.467L6.33398 15.467L6.38637 15.467C6.38649 10.4047 10.4914 6.29994 15.5537 6.2997L15.5537 6.24731ZM6.33398 15.467L6.2816 15.467C6.28186 20.5871 10.4336 24.7379 15.5537 24.7382L15.5537 24.6858L15.5537 24.6334C10.4915 24.6332 6.38662 20.5293 6.38637 15.467L6.33398 15.467ZM15.5537 24.6858L15.5537 24.7382C20.6738 24.7379 24.8246 20.5871 24.8248 15.467L24.7725 15.467L24.7201 15.467C24.7198 20.5293 20.6159 24.6332 15.5537 24.6334L15.5537 24.6858ZM24.7725 15.467L24.8248 15.467C24.8247 10.3468 20.6739 6.19519 15.5537 6.19493L15.5537 6.24731L15.5537 6.2997C20.616 6.29995 24.72 10.4047 24.7201 15.467L24.7725 15.467ZM15.5537 7.81958L15.5537 7.87196C19.7484 7.87197 23.1488 11.2723 23.1488 15.467H23.2012H23.2536C23.2536 11.2145 19.8063 7.76721 15.5537 7.7672L15.5537 7.81958ZM23.2012 15.467L23.1488 15.467C23.1487 19.6617 19.7484 23.0621 15.5537 23.0621L15.5537 23.1145L15.5537 23.1669C19.8062 23.1669 23.2534 19.7195 23.2536 15.467L23.2012 15.467ZM15.5537 23.1145V23.0621C11.3591 23.0621 7.95876 19.6617 7.95863 15.467L7.90625 15.467L7.85387 15.467C7.854 19.7195 11.3012 23.1669 15.5537 23.1669V23.1145ZM7.90625 15.467H7.95863C7.95863 11.2723 11.359 7.87196 15.5537 7.87196V7.81958V7.7672C11.3011 7.7672 7.85387 11.2144 7.85387 15.467H7.90625Z" fill="url(#paint7_linear_10_29034)" mask="url(#path-11-inside-1_10_29034)"/>
</g>
</g>
</g>
<g filter="url(#filter2_dd_10_29034)">
<rect x="5.16406" y="19.4287" width="20.1143" height="3.77143" fill="#FFA00F"/>
<rect x="5.19025" y="19.4549" width="20.0619" height="3.71905" stroke="url(#paint8_linear_10_29034)" stroke-width="0.052381" stroke-linecap="round" style="mix-blend-mode:darken"/>
</g>
<rect x="5.16406" y="19.4287" width="20.1143" height="3.77143" fill="url(#paint9_linear_10_29034)" fill-opacity="0.3" style="mix-blend-mode:overlay"/>
<rect x="5.16406" y="19.4287" width="20.1143" height="3.77143" fill="url(#paint10_radial_10_29034)" fill-opacity="0.6" style="mix-blend-mode:overlay"/>
<g filter="url(#filter3_i_10_29034)">
<path fill-rule="evenodd" clip-rule="evenodd" d="M20.2498 21.9431L20.1121 22.0155C19.9189 22.117 19.8224 22.1678 19.7509 22.1546C19.6888 22.143 19.6352 22.1041 19.605 22.0486C19.5704 21.9847 19.5888 21.8772 19.6257 21.6621L19.652 21.5088L19.5406 21.4002C19.3843 21.2478 19.3062 21.1717 19.2967 21.0997C19.2885 21.037 19.309 20.974 19.3524 20.9281C19.4024 20.8754 19.5104 20.8598 19.7264 20.8284L19.8803 20.806L19.9492 20.6665C20.0458 20.4708 20.0941 20.373 20.1596 20.3417C20.2167 20.3145 20.2829 20.3145 20.34 20.3417C20.4055 20.373 20.4538 20.4708 20.5504 20.6665L20.6193 20.806L20.7732 20.8284C20.9892 20.8598 21.0972 20.8754 21.1472 20.9281C21.1907 20.974 21.2111 21.037 21.2029 21.0997C21.1934 21.1717 21.1153 21.2478 20.959 21.4002L20.8476 21.5088L20.8739 21.6621C20.9108 21.8772 20.9292 21.9847 20.8946 22.0486C20.8644 22.1041 20.8108 22.143 20.7487 22.1546C20.6772 22.1678 20.5807 22.117 20.3875 22.0155L20.2498 21.9431Z" fill="black" fill-opacity="0.24" style="mix-blend-mode:color-burn"/>
<path fill-rule="evenodd" clip-rule="evenodd" d="M20.2498 21.9431L20.1121 22.0155C19.9189 22.117 19.8224 22.1678 19.7509 22.1546C19.6888 22.143 19.6352 22.1041 19.605 22.0486C19.5704 21.9847 19.5888 21.8772 19.6257 21.6621L19.652 21.5088L19.5406 21.4002C19.3843 21.2478 19.3062 21.1717 19.2967 21.0997C19.2885 21.037 19.309 20.974 19.3524 20.9281C19.4024 20.8754 19.5104 20.8598 19.7264 20.8284L19.8803 20.806L19.9492 20.6665C20.0458 20.4708 20.0941 20.373 20.1596 20.3417C20.2167 20.3145 20.2829 20.3145 20.34 20.3417C20.4055 20.373 20.4538 20.4708 20.5504 20.6665L20.6193 20.806L20.7732 20.8284C20.9892 20.8598 21.0972 20.8754 21.1472 20.9281C21.1907 20.974 21.2111 21.037 21.2029 21.0997C21.1934 21.1717 21.1153 21.2478 20.959 21.4002L20.8476 21.5088L20.8739 21.6621C20.9108 21.8772 20.9292 21.9847 20.8946 22.0486C20.8644 22.1041 20.8108 22.143 20.7487 22.1546C20.6772 22.1678 20.5807 22.117 20.3875 22.0155L20.2498 21.9431Z" fill="black" fill-opacity="0.32" style="mix-blend-mode:darken"/>
</g>
<g filter="url(#filter4_i_10_29034)">
<path fill-rule="evenodd" clip-rule="evenodd" d="M17.7361 21.9431L17.5984 22.0155C17.4053 22.117 17.3087 22.1678 17.2373 22.1546C17.1751 22.143 17.1215 22.1041 17.0914 22.0486C17.0567 21.9847 17.0751 21.8772 17.112 21.6621L17.1383 21.5088L17.0269 21.4002C16.8707 21.2478 16.7925 21.1717 16.783 21.0997C16.7748 21.037 16.7953 20.974 16.8388 20.9281C16.8888 20.8754 16.9968 20.8598 17.2127 20.8284L17.3667 20.806L17.4355 20.6665C17.5321 20.4708 17.5804 20.373 17.646 20.3417C17.703 20.3145 17.7693 20.3145 17.8263 20.3417C17.8919 20.373 17.9402 20.4708 18.0368 20.6665L18.1056 20.806L18.2595 20.8284C18.4755 20.8598 18.5835 20.8754 18.6335 20.9281C18.677 20.974 18.6975 21.037 18.6892 21.0997C18.6797 21.1717 18.6016 21.2478 18.4453 21.4002L18.3339 21.5088L18.3602 21.6621C18.3971 21.8772 18.4156 21.9847 18.3809 22.0486C18.3507 22.1041 18.2971 22.143 18.235 22.1546C18.1636 22.1678 18.067 22.117 17.8738 22.0155L17.7361 21.9431Z" fill="black" fill-opacity="0.24" style="mix-blend-mode:color-burn"/>
<path fill-rule="evenodd" clip-rule="evenodd" d="M17.7361 21.9431L17.5984 22.0155C17.4053 22.117 17.3087 22.1678 17.2373 22.1546C17.1751 22.143 17.1215 22.1041 17.0914 22.0486C17.0567 21.9847 17.0751 21.8772 17.112 21.6621L17.1383 21.5088L17.0269 21.4002C16.8707 21.2478 16.7925 21.1717 16.783 21.0997C16.7748 21.037 16.7953 20.974 16.8388 20.9281C16.8888 20.8754 16.9968 20.8598 17.2127 20.8284L17.3667 20.806L17.4355 20.6665C17.5321 20.4708 17.5804 20.373 17.646 20.3417C17.703 20.3145 17.7693 20.3145 17.8263 20.3417C17.8919 20.373 17.9402 20.4708 18.0368 20.6665L18.1056 20.806L18.2595 20.8284C18.4755 20.8598 18.5835 20.8754 18.6335 20.9281C18.677 20.974 18.6975 21.037 18.6892 21.0997C18.6797 21.1717 18.6016 21.2478 18.4453 21.4002L18.3339 21.5088L18.3602 21.6621C18.3971 21.8772 18.4156 21.9847 18.3809 22.0486C18.3507 22.1041 18.2971 22.143 18.235 22.1546C18.1636 22.1678 18.067 22.117 17.8738 22.0155L17.7361 21.9431Z" fill="black" fill-opacity="0.32" style="mix-blend-mode:darken"/>
</g>
<g filter="url(#filter5_i_10_29034)">
<path fill-rule="evenodd" clip-rule="evenodd" d="M15.2205 21.9431L15.0828 22.0155C14.8896 22.117 14.7931 22.1678 14.7216 22.1546C14.6595 22.143 14.6059 22.1041 14.5757 22.0486C14.5411 21.9847 14.5595 21.8772 14.5964 21.6621L14.6227 21.5088L14.5113 21.4002C14.355 21.2478 14.2769 21.1717 14.2674 21.0997C14.2592 21.037 14.2797 20.974 14.3231 20.9281C14.3731 20.8754 14.4811 20.8598 14.6971 20.8284L14.851 20.806L14.9199 20.6665C15.0165 20.4708 15.0648 20.373 15.1303 20.3417C15.1874 20.3145 15.2536 20.3145 15.3107 20.3417C15.3762 20.373 15.4245 20.4708 15.5211 20.6665L15.59 20.806L15.7439 20.8284C15.9599 20.8598 16.0679 20.8754 16.1179 20.9281C16.1614 20.974 16.1818 21.037 16.1736 21.0997C16.1641 21.1717 16.086 21.2478 15.9297 21.4002L15.8183 21.5088L15.8446 21.6621C15.8815 21.8772 15.8999 21.9847 15.8653 22.0486C15.8351 22.1041 15.7815 22.143 15.7194 22.1546C15.648 22.1678 15.5514 22.117 15.3582 22.0155L15.2205 21.9431Z" fill="black" fill-opacity="0.24" style="mix-blend-mode:color-burn"/>
<path fill-rule="evenodd" clip-rule="evenodd" d="M15.2205 21.9431L15.0828 22.0155C14.8896 22.117 14.7931 22.1678 14.7216 22.1546C14.6595 22.143 14.6059 22.1041 14.5757 22.0486C14.5411 21.9847 14.5595 21.8772 14.5964 21.6621L14.6227 21.5088L14.5113 21.4002C14.355 21.2478 14.2769 21.1717 14.2674 21.0997C14.2592 21.037 14.2797 20.974 14.3231 20.9281C14.3731 20.8754 14.4811 20.8598 14.6971 20.8284L14.851 20.806L14.9199 20.6665C15.0165 20.4708 15.0648 20.373 15.1303 20.3417C15.1874 20.3145 15.2536 20.3145 15.3107 20.3417C15.3762 20.373 15.4245 20.4708 15.5211 20.6665L15.59 20.806L15.7439 20.8284C15.9599 20.8598 16.0679 20.8754 16.1179 20.9281C16.1614 20.974 16.1818 21.037 16.1736 21.0997C16.1641 21.1717 16.086 21.2478 15.9297 21.4002L15.8183 21.5088L15.8446 21.6621C15.8815 21.8772 15.8999 21.9847 15.8653 22.0486C15.8351 22.1041 15.7815 22.143 15.7194 22.1546C15.648 22.1678 15.5514 22.117 15.3582 22.0155L15.2205 21.9431Z" fill="black" fill-opacity="0.32" style="mix-blend-mode:darken"/>
</g>
<g filter="url(#filter6_i_10_29034)">
<path fill-rule="evenodd" clip-rule="evenodd" d="M12.7068 21.9431L12.5691 22.0155C12.376 22.117 12.2794 22.1678 12.208 22.1546C12.1458 22.143 12.0922 22.1041 12.0621 22.0486C12.0274 21.9847 12.0458 21.8772 12.0827 21.6621L12.109 21.5088L11.9976 21.4002C11.8414 21.2478 11.7632 21.1717 11.7537 21.0997C11.7455 21.037 11.766 20.974 11.8095 20.9281C11.8595 20.8754 11.9675 20.8598 12.1834 20.8284L12.3374 20.806L12.4062 20.6665C12.5028 20.4708 12.5511 20.373 12.6167 20.3417C12.6737 20.3145 12.74 20.3145 12.797 20.3417C12.8626 20.373 12.9109 20.4708 13.0075 20.6665L13.0763 20.806L13.2302 20.8284C13.4462 20.8598 13.5542 20.8754 13.6042 20.9281C13.6477 20.974 13.6682 21.037 13.6599 21.0997C13.6505 21.1717 13.5723 21.2478 13.416 21.4002L13.3046 21.5088L13.3309 21.6621C13.3678 21.8772 13.3863 21.9847 13.3516 22.0486C13.3214 22.1041 13.2678 22.143 13.2057 22.1546C13.1343 22.1678 13.0377 22.117 12.8445 22.0155L12.7068 21.9431Z" fill="black" fill-opacity="0.24" style="mix-blend-mode:color-burn"/>
<path fill-rule="evenodd" clip-rule="evenodd" d="M12.7068 21.9431L12.5691 22.0155C12.376 22.117 12.2794 22.1678 12.208 22.1546C12.1458 22.143 12.0922 22.1041 12.0621 22.0486C12.0274 21.9847 12.0458 21.8772 12.0827 21.6621L12.109 21.5088L11.9976 21.4002C11.8414 21.2478 11.7632 21.1717 11.7537 21.0997C11.7455 21.037 11.766 20.974 11.8095 20.9281C11.8595 20.8754 11.9675 20.8598 12.1834 20.8284L12.3374 20.806L12.4062 20.6665C12.5028 20.4708 12.5511 20.373 12.6167 20.3417C12.6737 20.3145 12.74 20.3145 12.797 20.3417C12.8626 20.373 12.9109 20.4708 13.0075 20.6665L13.0763 20.806L13.2302 20.8284C13.4462 20.8598 13.5542 20.8754 13.6042 20.9281C13.6477 20.974 13.6682 21.037 13.6599 21.0997C13.6505 21.1717 13.5723 21.2478 13.416 21.4002L13.3046 21.5088L13.3309 21.6621C13.3678 21.8772 13.3863 21.9847 13.3516 22.0486C13.3214 22.1041 13.2678 22.143 13.2057 22.1546C13.1343 22.1678 13.0377 22.117 12.8445 22.0155L12.7068 21.9431Z" fill="black" fill-opacity="0.32" style="mix-blend-mode:darken"/>
</g>
<g filter="url(#filter7_d_10_29034)">
<path fill-rule="evenodd" clip-rule="evenodd" d="M10.1932 21.9431L10.0555 22.0155C9.8623 22.117 9.76572 22.1678 9.6943 22.1546C9.63216 22.143 9.57855 22.1041 9.54839 22.0486C9.51372 21.9847 9.53217 21.8772 9.56906 21.6621L9.59536 21.5088L9.48396 21.4002C9.32768 21.2478 9.24954 21.1717 9.24007 21.0997C9.23183 21.037 9.25231 20.974 9.29581 20.9281C9.3458 20.8754 9.45378 20.8598 9.66976 20.8284L9.8237 20.806L9.89254 20.6665C9.98913 20.4708 10.0374 20.373 10.103 20.3417C10.16 20.3145 10.2263 20.3145 10.2833 20.3417C10.3489 20.373 10.3972 20.4708 10.4938 20.6665L10.5626 20.806L10.7166 20.8284C10.9325 20.8598 11.0405 20.8754 11.0905 20.9281C11.134 20.974 11.1545 21.037 11.1463 21.0997C11.1368 21.1717 11.0586 21.2478 10.9024 21.4002L10.791 21.5088L10.8173 21.6621C10.8542 21.8772 10.8726 21.9847 10.8379 22.0486C10.8078 22.1041 10.7542 22.143 10.692 22.1546C10.6206 22.1678 10.524 22.117 10.3309 22.0155L10.1932 21.9431Z" fill="white"/>
<path d="M10.0918 20.3184C10.156 20.2878 10.2307 20.2878 10.2949 20.3184C10.3347 20.3375 10.3666 20.3751 10.3994 20.4287C10.4325 20.4828 10.4695 20.5579 10.5176 20.6553L10.5801 20.7822L10.7207 20.8027C10.8279 20.8183 10.9101 20.83 10.9717 20.8447C11.0329 20.8594 11.0789 20.8781 11.1094 20.9102C11.1583 20.9617 11.1811 21.033 11.1719 21.1035C11.166 21.1473 11.1404 21.1896 11.0996 21.2373C11.0584 21.2855 10.9985 21.3433 10.9209 21.4189L10.8184 21.5176L10.8428 21.6572C10.8611 21.7643 10.8759 21.8469 10.8809 21.9102C10.8858 21.9729 10.8824 22.0226 10.8613 22.0615C10.8274 22.1238 10.7669 22.1676 10.6973 22.1807C10.6537 22.1887 10.6051 22.1765 10.5469 22.1523C10.4883 22.128 10.4144 22.0896 10.3184 22.0391L10.1924 21.9717L10.0674 22.0391C9.97145 22.0895 9.89738 22.1281 9.83887 22.1523C9.78084 22.1764 9.73291 22.1887 9.68945 22.1807C9.61969 22.1677 9.55936 22.1238 9.52539 22.0615C9.50427 22.0226 9.50091 21.9729 9.50586 21.9102C9.51087 21.8469 9.52461 21.7643 9.54297 21.6572L9.56641 21.5166L9.46582 21.4189C9.38822 21.3433 9.32831 21.2855 9.28711 21.2373C9.24629 21.1896 9.21975 21.1473 9.21387 21.1035C9.20461 21.0331 9.22759 20.9617 9.27637 20.9102C9.3068 20.8781 9.35297 20.8594 9.41406 20.8447C9.47574 20.83 9.55855 20.8183 9.66602 20.8027L9.80469 20.7822L9.86914 20.6553C9.9172 20.5579 9.95419 20.4828 9.9873 20.4287C10.0202 20.3751 10.0519 20.3374 10.0918 20.3184Z" stroke="url(#paint11_linear_10_29034)" stroke-width="0.052381" stroke-linecap="round" style="mix-blend-mode:color-burn"/>
</g>
</g>
<g filter="url(#filter8_d_10_29034)">
<mask id="path-22-outside-2_10_29034" maskUnits="userSpaceOnUse" x="9.17383" y="11.543" width="13" height="7" fill="black">
<rect fill="white" x="9.17383" y="11.543" width="13" height="7"/>
<path d="M11.8378 16.2607H10.589V13.6374L9.70065 13.9559C9.61684 13.9056 9.53583 13.8358 9.4576 13.7464C9.38497 13.657 9.34865 13.5341 9.34865 13.3776C9.34865 13.0815 9.52745 12.8748 9.88503 12.7574L10.8824 12.3887H11.1589C11.3657 12.3887 11.5305 12.4501 11.6534 12.5731C11.7763 12.696 11.8378 12.8608 11.8378 13.0675V16.2607ZM10.589 15.3304H11.8378V17.5346C11.7819 17.5513 11.7037 17.5681 11.6031 17.5849C11.5026 17.6016 11.3936 17.61 11.2763 17.61C11.0416 17.61 10.8684 17.5681 10.7567 17.4843C10.6449 17.4005 10.589 17.2468 10.589 17.0233V15.3304ZM15.5823 14.9952C15.5823 14.6264 15.5432 14.3191 15.465 14.0733C15.3868 13.8218 15.2778 13.6347 15.1381 13.5117C14.9984 13.3888 14.8336 13.3273 14.6436 13.3273C14.4593 13.3273 14.2972 13.3916 14.1576 13.5201C14.0179 13.643 13.9089 13.8274 13.8307 14.0733C13.7581 14.3191 13.7217 14.6264 13.7217 14.9952C13.7217 15.5539 13.8028 15.9729 13.9648 16.2523C14.1268 16.5317 14.3531 16.6713 14.6436 16.6713C14.9454 16.6713 15.1772 16.5317 15.3393 16.2523C15.5013 15.9729 15.5823 15.5539 15.5823 14.9952ZM14.652 17.6687C14.2218 17.6687 13.8419 17.5709 13.5122 17.3753C13.1882 17.1742 12.9339 16.8753 12.7496 16.4786C12.5652 16.0819 12.473 15.5874 12.473 14.9952C12.473 14.4029 12.568 13.9112 12.7579 13.5201C12.9479 13.1234 13.2049 12.8273 13.529 12.6317C13.8586 12.4306 14.233 12.33 14.652 12.33C15.0655 12.33 15.437 12.4306 15.7667 12.6317C16.0963 12.8273 16.3562 13.1234 16.5461 13.5201C16.7417 13.9168 16.8395 14.4085 16.8395 14.9952C16.8395 15.5874 16.7445 16.0819 16.5545 16.4786C16.3701 16.8753 16.1131 17.1742 15.7835 17.3753C15.4538 17.5709 15.0767 17.6687 14.652 17.6687ZM20.2724 14.9952C20.2724 14.6264 20.2333 14.3191 20.155 14.0733C20.0768 13.8218 19.9679 13.6347 19.8282 13.5117C19.6885 13.3888 19.5237 13.3273 19.3337 13.3273C19.1493 13.3273 18.9873 13.3916 18.8476 13.5201C18.7079 13.643 18.599 13.8274 18.5208 14.0733C18.4481 14.3191 18.4118 14.6264 18.4118 14.9952C18.4118 15.5539 18.4928 15.9729 18.6548 16.2523C18.8169 16.5317 19.0432 16.6713 19.3337 16.6713C19.6354 16.6713 19.8673 16.5317 20.0293 16.2523C20.1914 15.9729 20.2724 15.5539 20.2724 14.9952ZM19.3421 17.6687C18.9119 17.6687 18.5319 17.5709 18.2023 17.3753C17.8782 17.1742 17.624 16.8753 17.4396 16.4786C17.2552 16.0819 17.163 15.5874 17.163 14.9952C17.163 14.4029 17.258 13.9112 17.448 13.5201C17.638 13.1234 17.895 12.8273 18.219 12.6317C18.5487 12.4306 18.923 12.33 19.3421 12.33C19.7555 12.33 20.1271 12.4306 20.4568 12.6317C20.7864 12.8273 21.0462 13.1234 21.2362 13.5201C21.4317 13.9168 21.5295 14.4085 21.5295 14.9952C21.5295 15.5874 21.4345 16.0819 21.2446 16.4786C21.0602 16.8753 20.8032 17.1742 20.4735 17.3753C20.1439 17.5709 19.7667 17.6687 19.3421 17.6687Z"/>
</mask>
<path d="M11.8378 16.2607H10.589V13.6374L9.70065 13.9559C9.61684 13.9056 9.53583 13.8358 9.4576 13.7464C9.38497 13.657 9.34865 13.5341 9.34865 13.3776C9.34865 13.0815 9.52745 12.8748 9.88503 12.7574L10.8824 12.3887H11.1589C11.3657 12.3887 11.5305 12.4501 11.6534 12.5731C11.7763 12.696 11.8378 12.8608 11.8378 13.0675V16.2607ZM10.589 15.3304H11.8378V17.5346C11.7819 17.5513 11.7037 17.5681 11.6031 17.5849C11.5026 17.6016 11.3936 17.61 11.2763 17.61C11.0416 17.61 10.8684 17.5681 10.7567 17.4843C10.6449 17.4005 10.589 17.2468 10.589 17.0233V15.3304ZM15.5823 14.9952C15.5823 14.6264 15.5432 14.3191 15.465 14.0733C15.3868 13.8218 15.2778 13.6347 15.1381 13.5117C14.9984 13.3888 14.8336 13.3273 14.6436 13.3273C14.4593 13.3273 14.2972 13.3916 14.1576 13.5201C14.0179 13.643 13.9089 13.8274 13.8307 14.0733C13.7581 14.3191 13.7217 14.6264 13.7217 14.9952C13.7217 15.5539 13.8028 15.9729 13.9648 16.2523C14.1268 16.5317 14.3531 16.6713 14.6436 16.6713C14.9454 16.6713 15.1772 16.5317 15.3393 16.2523C15.5013 15.9729 15.5823 15.5539 15.5823 14.9952ZM14.652 17.6687C14.2218 17.6687 13.8419 17.5709 13.5122 17.3753C13.1882 17.1742 12.9339 16.8753 12.7496 16.4786C12.5652 16.0819 12.473 15.5874 12.473 14.9952C12.473 14.4029 12.568 13.9112 12.7579 13.5201C12.9479 13.1234 13.2049 12.8273 13.529 12.6317C13.8586 12.4306 14.233 12.33 14.652 12.33C15.0655 12.33 15.437 12.4306 15.7667 12.6317C16.0963 12.8273 16.3562 13.1234 16.5461 13.5201C16.7417 13.9168 16.8395 14.4085 16.8395 14.9952C16.8395 15.5874 16.7445 16.0819 16.5545 16.4786C16.3701 16.8753 16.1131 17.1742 15.7835 17.3753C15.4538 17.5709 15.0767 17.6687 14.652 17.6687ZM20.2724 14.9952C20.2724 14.6264 20.2333 14.3191 20.155 14.0733C20.0768 13.8218 19.9679 13.6347 19.8282 13.5117C19.6885 13.3888 19.5237 13.3273 19.3337 13.3273C19.1493 13.3273 18.9873 13.3916 18.8476 13.5201C18.7079 13.643 18.599 13.8274 18.5208 14.0733C18.4481 14.3191 18.4118 14.6264 18.4118 14.9952C18.4118 15.5539 18.4928 15.9729 18.6548 16.2523C18.8169 16.5317 19.0432 16.6713 19.3337 16.6713C19.6354 16.6713 19.8673 16.5317 20.0293 16.2523C20.1914 15.9729 20.2724 15.5539 20.2724 14.9952ZM19.3421 17.6687C18.9119 17.6687 18.5319 17.5709 18.2023 17.3753C17.8782 17.1742 17.624 16.8753 17.4396 16.4786C17.2552 16.0819 17.163 15.5874 17.163 14.9952C17.163 14.4029 17.258 13.9112 17.448 13.5201C17.638 13.1234 17.895 12.8273 18.219 12.6317C18.5487 12.4306 18.923 12.33 19.3421 12.33C19.7555 12.33 20.1271 12.4306 20.4568 12.6317C20.7864 12.8273 21.0462 13.1234 21.2362 13.5201C21.4317 13.9168 21.5295 14.4085 21.5295 14.9952C21.5295 15.5874 21.4345 16.0819 21.2446 16.4786C21.0602 16.8753 20.8032 17.1742 20.4735 17.3753C20.1439 17.5709 19.7667 17.6687 19.3421 17.6687Z" fill="white"/>
<path d="M11.8378 16.2607V16.3131H11.8902V16.2607H11.8378ZM10.589 16.2607H10.5367V16.3131H10.589V16.2607ZM10.589 13.6374H10.6414V13.563L10.5714 13.5881L10.589 13.6374ZM9.70065 13.9559L9.6737 14.0008L9.69498 14.0136L9.71833 14.0052L9.70065 13.9559ZM9.4576 13.7464L9.41692 13.7795L9.41818 13.7809L9.4576 13.7464ZM9.88503 12.7574L9.90138 12.8072L9.9032 12.8066L9.88503 12.7574ZM10.8824 12.3887V12.3363H10.873L10.8642 12.3396L10.8824 12.3887ZM11.6534 12.5731L11.6905 12.536L11.6905 12.536L11.6534 12.5731ZM10.589 15.3304V15.278H10.5367V15.3304H10.589ZM11.8378 15.3304H11.8902V15.278H11.8378V15.3304ZM11.8378 17.5346L11.8528 17.5848L11.8902 17.5736V17.5346H11.8378ZM11.6031 17.5849L11.5945 17.5332L11.5945 17.5332L11.6031 17.5849ZM10.7567 17.4843L10.7252 17.5262L10.7252 17.5262L10.7567 17.4843ZM11.8378 16.2607V16.2083H10.589V16.2607V16.3131H11.8378V16.2607ZM10.589 16.2607H10.6414V13.6374H10.589H10.5367V16.2607H10.589ZM10.589 13.6374L10.5714 13.5881L9.68298 13.9066L9.70065 13.9559L9.71833 14.0052L10.6067 13.6868L10.589 13.6374ZM9.70065 13.9559L9.7276 13.911C9.64935 13.8641 9.5724 13.7981 9.49703 13.7119L9.4576 13.7464L9.41818 13.7809C9.49925 13.8735 9.58434 13.9472 9.6737 14.0008L9.70065 13.9559ZM9.4576 13.7464L9.49826 13.7134C9.43554 13.6362 9.40103 13.5263 9.40103 13.3776H9.34865H9.29627C9.29627 13.5418 9.3344 13.6778 9.41695 13.7794L9.4576 13.7464ZM9.34865 13.3776H9.40103C9.40103 13.241 9.44191 13.1278 9.52237 13.0348C9.60363 12.9408 9.72833 12.864 9.90136 12.8072L9.88503 12.7574L9.8687 12.7077C9.68415 12.7682 9.54066 12.8535 9.44313 12.9662C9.34479 13.0799 9.29627 13.2181 9.29627 13.3776H9.34865ZM9.88503 12.7574L9.9032 12.8066L10.9005 12.4378L10.8824 12.3887L10.8642 12.3396L9.86687 12.7083L9.88503 12.7574ZM10.8824 12.3887V12.4411H11.1589V12.3887V12.3363H10.8824V12.3887ZM11.1589 12.3887V12.4411C11.3546 12.4411 11.5051 12.4988 11.6164 12.6101L11.6534 12.5731L11.6905 12.536C11.5559 12.4015 11.3767 12.3363 11.1589 12.3363V12.3887ZM11.6534 12.5731L11.6164 12.6101C11.7276 12.7214 11.7854 12.8719 11.7854 13.0675H11.8378H11.8902C11.8902 12.8497 11.825 12.6706 11.6905 12.536L11.6534 12.5731ZM11.8378 13.0675H11.7854V16.2607H11.8378H11.8902V13.0675H11.8378ZM10.589 15.3304V15.3828H11.8378V15.3304V15.278H10.589V15.3304ZM11.8378 15.3304H11.7854V17.5346H11.8378H11.8902V15.3304H11.8378ZM11.8378 17.5346L11.8227 17.4844C11.77 17.5002 11.6943 17.5166 11.5945 17.5332L11.6031 17.5849L11.6117 17.6365C11.7131 17.6196 11.7939 17.6025 11.8528 17.5848L11.8378 17.5346ZM11.6031 17.5849L11.5945 17.5332C11.4972 17.5494 11.3911 17.5576 11.2763 17.5576V17.61V17.6624C11.3961 17.6624 11.5079 17.6538 11.6117 17.6365L11.6031 17.5849ZM11.2763 17.61V17.5576C11.0459 17.5576 10.8864 17.5162 10.7881 17.4424L10.7567 17.4843L10.7252 17.5262C10.8504 17.6201 11.0373 17.6624 11.2763 17.6624V17.61ZM10.7567 17.4843L10.7881 17.4424C10.6959 17.3732 10.6414 17.2403 10.6414 17.0233H10.589H10.5367C10.5367 17.2533 10.594 17.4278 10.7252 17.5262L10.7567 17.4843ZM10.589 17.0233H10.6414V15.3304H10.589H10.5367V17.0233H10.589ZM15.465 14.0733L15.415 14.0888L15.4151 14.0891L15.465 14.0733ZM15.1381 13.5117L15.1727 13.4724L15.1727 13.4724L15.1381 13.5117ZM14.1576 13.5201L14.1922 13.5594L14.193 13.5587L14.1576 13.5201ZM13.8307 14.0733L13.7808 14.0574L13.7805 14.0584L13.8307 14.0733ZM13.9648 16.2523L14.0101 16.226L14.0101 16.226L13.9648 16.2523ZM15.3393 16.2523L15.3846 16.2786L15.3846 16.2786L15.3393 16.2523ZM13.5122 17.3753L13.4846 17.4199L13.4855 17.4204L13.5122 17.3753ZM12.7496 16.4786L12.7971 16.4565L12.7496 16.4786ZM12.7579 13.5201L12.8051 13.543L12.8052 13.5427L12.7579 13.5201ZM13.529 12.6317L13.556 12.6766L13.5563 12.6764L13.529 12.6317ZM15.7667 12.6317L15.7394 12.6764L15.74 12.6768L15.7667 12.6317ZM16.5461 13.5201L16.4989 13.5427L16.4991 13.5433L16.5461 13.5201ZM16.5545 16.4786L16.5073 16.456L16.507 16.4565L16.5545 16.4786ZM15.7835 17.3753L15.8102 17.4204L15.8107 17.4201L15.7835 17.3753ZM15.5823 14.9952H15.6347C15.6347 14.6231 15.5953 14.31 15.5149 14.0574L15.465 14.0733L15.4151 14.0891C15.4911 14.3282 15.5299 14.6297 15.5299 14.9952H15.5823ZM15.465 14.0733L15.515 14.0577C15.435 13.8007 15.322 13.6038 15.1727 13.4724L15.1381 13.5117L15.1035 13.5511C15.2336 13.6655 15.3385 13.8429 15.415 14.0888L15.465 14.0733ZM15.1381 13.5117L15.1727 13.4724C15.0233 13.3409 14.8461 13.275 14.6436 13.275V13.3273V13.3797C14.8212 13.3797 14.9736 13.4367 15.1035 13.5511L15.1381 13.5117ZM14.6436 13.3273V13.275C14.4457 13.275 14.2711 13.3444 14.1221 13.4816L14.1576 13.5201L14.193 13.5587C14.3233 13.4388 14.4728 13.3797 14.6436 13.3797V13.3273ZM14.1576 13.5201L14.1229 13.4808C13.9739 13.612 13.8608 13.8058 13.7808 14.0574L13.8307 14.0733L13.8806 14.0891C13.957 13.849 14.0619 13.6741 14.1922 13.5594L14.1576 13.5201ZM13.8307 14.0733L13.7805 14.0584C13.7059 14.3107 13.6694 14.6234 13.6694 14.9952H13.7217H13.7741C13.7741 14.6294 13.8102 14.3275 13.8809 14.0881L13.8307 14.0733ZM13.7217 14.9952H13.6694C13.6694 15.5572 13.7506 15.9873 13.9195 16.2786L13.9648 16.2523L14.0101 16.226C13.855 15.9585 13.7741 15.5505 13.7741 14.9952H13.7217ZM13.9648 16.2523L13.9195 16.2786C14.0896 16.5719 14.332 16.7237 14.6436 16.7237V16.6713V16.619C14.3742 16.619 14.164 16.4914 14.0101 16.226L13.9648 16.2523ZM14.6436 16.6713V16.7237C14.9656 16.7237 15.214 16.5727 15.3846 16.2786L15.3393 16.2523L15.294 16.226C15.1405 16.4906 14.9251 16.619 14.6436 16.619V16.6713ZM15.3393 16.2523L15.3846 16.2786C15.5535 15.9873 15.6347 15.5572 15.6347 14.9952H15.5823H15.5299C15.5299 15.5505 15.4491 15.9585 15.294 16.226L15.3393 16.2523ZM14.652 17.6687V17.6163C14.23 17.6163 13.8595 17.5205 13.5389 17.3303L13.5122 17.3753L13.4855 17.4204C13.8242 17.6213 14.2136 17.7211 14.652 17.7211V17.6687ZM13.5122 17.3753L13.5398 17.3308C13.2257 17.1358 12.9778 16.8454 12.7971 16.4565L12.7496 16.4786L12.7021 16.5007C12.8901 16.9052 13.1506 17.2126 13.4846 17.4199L13.5122 17.3753ZM12.7496 16.4786L12.7971 16.4565C12.6168 16.0687 12.5254 15.5823 12.5254 14.9952H12.473H12.4206C12.4206 15.5925 12.5135 16.0951 12.7021 16.5007L12.7496 16.4786ZM12.473 14.9952H12.5254C12.5254 14.4081 12.6196 13.9249 12.805 13.543L12.7579 13.5201L12.7108 13.4972C12.5164 13.8976 12.4206 14.3977 12.4206 14.9952H12.473ZM12.7579 13.5201L12.8052 13.5427C12.9915 13.1537 13.2421 12.866 13.556 12.6766L13.529 12.6317L13.5019 12.5869C13.1678 12.7885 12.9043 13.0931 12.7107 13.4975L12.7579 13.5201ZM13.529 12.6317L13.5563 12.6764C13.877 12.4807 14.2418 12.3824 14.652 12.3824V12.33V12.2776C14.2242 12.2776 13.8403 12.3804 13.5017 12.587L13.529 12.6317ZM14.652 12.33V12.3824C15.0566 12.3824 15.4186 12.4807 15.7394 12.6764L15.7667 12.6317L15.794 12.587C15.4555 12.3805 15.0744 12.2776 14.652 12.2776V12.33ZM15.7667 12.6317L15.74 12.6768C16.0595 12.8663 16.3127 13.154 16.4989 13.5427L16.5461 13.5201L16.5934 13.4975C16.3996 13.0929 16.1332 12.7883 15.7934 12.5867L15.7667 12.6317ZM16.5461 13.5201L16.4991 13.5433C16.6902 13.9308 16.7871 14.414 16.7871 14.9952H16.8395H16.8918C16.8918 14.403 16.7932 13.9028 16.5931 13.497L16.5461 13.5201ZM16.8395 14.9952H16.7871C16.7871 15.5822 16.6929 16.0683 16.5073 16.456L16.5545 16.4786L16.6017 16.5012C16.7961 16.0954 16.8918 15.5927 16.8918 14.9952H16.8395ZM16.5545 16.4786L16.507 16.4565C16.3264 16.8451 16.0759 17.1356 15.7562 17.3306L15.7835 17.3753L15.8107 17.4201C16.1504 17.2128 16.4139 16.9055 16.602 16.5007L16.5545 16.4786ZM15.7835 17.3753L15.7567 17.3303C15.436 17.5206 15.0683 17.6163 14.652 17.6163V17.6687V17.7211C15.085 17.7211 15.4716 17.6213 15.8102 17.4204L15.7835 17.3753ZM20.155 14.0733L20.105 14.0888L20.1051 14.0891L20.155 14.0733ZM19.8282 13.5117L19.8628 13.4724L19.8628 13.4724L19.8282 13.5117ZM18.8476 13.5201L18.8822 13.5594L18.8831 13.5587L18.8476 13.5201ZM18.5208 14.0733L18.4708 14.0574L18.4705 14.0584L18.5208 14.0733ZM18.6548 16.2523L18.7002 16.226L18.7002 16.226L18.6548 16.2523ZM20.0293 16.2523L20.0746 16.2786L20.0746 16.2786L20.0293 16.2523ZM18.2023 17.3753L18.1746 17.4199L18.1756 17.4204L18.2023 17.3753ZM17.4396 16.4786L17.4871 16.4565L17.4396 16.4786ZM17.448 13.5201L17.4951 13.543L17.4952 13.5427L17.448 13.5201ZM18.219 12.6317L18.2461 12.6766L18.2463 12.6764L18.219 12.6317ZM20.4568 12.6317L20.4295 12.6764L20.43 12.6768L20.4568 12.6317ZM21.2362 13.5201L21.1889 13.5427L21.1892 13.5433L21.2362 13.5201ZM21.2446 16.4786L21.1973 16.456L21.1971 16.4565L21.2446 16.4786ZM20.4735 17.3753L20.5002 17.4204L20.5008 17.4201L20.4735 17.3753ZM20.2724 14.9952H20.3248C20.3248 14.6231 20.2853 14.31 20.205 14.0574L20.155 14.0733L20.1051 14.0891C20.1812 14.3282 20.22 14.6297 20.22 14.9952H20.2724ZM20.155 14.0733L20.2051 14.0577C20.1251 13.8007 20.0121 13.6038 19.8628 13.4724L19.8282 13.5117L19.7936 13.5511C19.9236 13.6655 20.0285 13.8429 20.105 14.0888L20.155 14.0733ZM19.8282 13.5117L19.8628 13.4724C19.7133 13.3409 19.5361 13.275 19.3337 13.275V13.3273V13.3797C19.5112 13.3797 19.6637 13.4367 19.7936 13.5511L19.8282 13.5117ZM19.3337 13.3273V13.275C19.1358 13.275 18.9612 13.3444 18.8121 13.4816L18.8476 13.5201L18.8831 13.5587C19.0134 13.4388 19.1629 13.3797 19.3337 13.3797V13.3273ZM18.8476 13.5201L18.813 13.4808C18.6639 13.612 18.5509 13.8058 18.4708 14.0574L18.5208 14.0733L18.5707 14.0891C18.6471 13.849 18.7519 13.6741 18.8822 13.5594L18.8476 13.5201ZM18.5208 14.0733L18.4705 14.0584C18.396 14.3107 18.3594 14.6234 18.3594 14.9952H18.4118H18.4642C18.4642 14.6294 18.5003 14.3275 18.571 14.0881L18.5208 14.0733ZM18.4118 14.9952H18.3594C18.3594 15.5572 18.4406 15.9873 18.6095 16.2786L18.6548 16.2523L18.7002 16.226C18.545 15.9585 18.4642 15.5505 18.4642 14.9952H18.4118ZM18.6548 16.2523L18.6095 16.2786C18.7797 16.5719 19.0221 16.7237 19.3337 16.7237V16.6713V16.619C19.0642 16.619 18.8541 16.4914 18.7002 16.226L18.6548 16.2523ZM19.3337 16.6713V16.7237C19.6556 16.7237 19.904 16.5727 20.0746 16.2786L20.0293 16.2523L19.984 16.226C19.8305 16.4906 19.6152 16.619 19.3337 16.619V16.6713ZM20.0293 16.2523L20.0746 16.2786C20.2436 15.9873 20.3248 15.5572 20.3248 14.9952H20.2724H20.22C20.22 15.5505 20.1392 15.9585 19.984 16.226L20.0293 16.2523ZM19.3421 17.6687V17.6163C18.9201 17.6163 18.5496 17.5205 18.229 17.3303L18.2023 17.3753L18.1756 17.4204C18.5142 17.6213 18.9036 17.7211 19.3421 17.7211V17.6687ZM18.2023 17.3753L18.2299 17.3308C17.9157 17.1358 17.6678 16.8454 17.4871 16.4565L17.4396 16.4786L17.3921 16.5007C17.5801 16.9052 17.8407 17.2126 18.1747 17.4199L18.2023 17.3753ZM17.4396 16.4786L17.4871 16.4565C17.3069 16.0687 17.2154 15.5823 17.2154 14.9952H17.163H17.1107C17.1107 15.5925 17.2036 16.0951 17.3921 16.5007L17.4396 16.4786ZM17.163 14.9952H17.2154C17.2154 14.4081 17.3096 13.9249 17.4951 13.543L17.448 13.5201L17.4009 13.4972C17.2064 13.8976 17.1107 14.3977 17.1107 14.9952H17.163ZM17.448 13.5201L17.4952 13.5427C17.6815 13.1537 17.9321 12.866 18.2461 12.6766L18.219 12.6317L18.192 12.5869C17.8578 12.7885 17.5944 13.0931 17.4007 13.4975L17.448 13.5201ZM18.219 12.6317L18.2463 12.6764C18.5671 12.4807 18.9318 12.3824 19.3421 12.3824V12.33V12.2776C18.9143 12.2776 18.5303 12.3804 18.1918 12.587L18.219 12.6317ZM19.3421 12.33V12.3824C19.7466 12.3824 20.1086 12.4807 20.4295 12.6764L20.4568 12.6317L20.484 12.587C20.1456 12.3805 19.7645 12.2776 19.3421 12.2776V12.33ZM20.4568 12.6317L20.43 12.6768C20.7495 12.8663 21.0028 13.154 21.1889 13.5427L21.2362 13.5201L21.2834 13.4975C21.0897 13.0929 20.8233 12.7883 20.4835 12.5867L20.4568 12.6317ZM21.2362 13.5201L21.1892 13.5433C21.3802 13.9308 21.4771 14.414 21.4771 14.9952H21.5295H21.5819C21.5819 14.403 21.4832 13.9028 21.2832 13.497L21.2362 13.5201ZM21.5295 14.9952H21.4771C21.4771 15.5822 21.3829 16.0683 21.1973 16.456L21.2446 16.4786L21.2918 16.5012C21.4861 16.0954 21.5819 15.5927 21.5819 14.9952H21.5295ZM21.2446 16.4786L21.1971 16.4565C21.0164 16.8451 20.7659 17.1356 20.4462 17.3306L20.4735 17.3753L20.5008 17.4201C20.8404 17.2128 21.1039 16.9055 21.2921 16.5007L21.2446 16.4786ZM20.4735 17.3753L20.4468 17.3303C20.1261 17.5206 19.7584 17.6163 19.3421 17.6163V17.6687V17.7211C19.7751 17.7211 20.1616 17.6213 20.5002 17.4204L20.4735 17.3753Z" fill="url(#paint12_linear_10_29034)" style="mix-blend-mode:color-burn" mask="url(#path-22-outside-2_10_29034)"/>
</g>
<g filter="url(#filter9_d_10_29034)">
<mask id="path-24-outside-3_10_29034" maskUnits="userSpaceOnUse" x="11.1738" y="8.76196" width="8" height="3" fill="black">
<rect fill="white" x="11.1738" y="8.76196" width="8" height="3"/>
<path d="M13.1535 9.66406C13.1535 9.69618 13.1451 9.72412 13.1284 9.74787C13.1116 9.77161 13.0928 9.79047 13.0718 9.80444C13.0369 9.78069 12.9971 9.75974 12.9524 9.74158C12.9091 9.72342 12.8574 9.71434 12.7973 9.71434C12.7233 9.71434 12.659 9.73041 12.6046 9.76253C12.5501 9.79466 12.5082 9.84145 12.4788 9.90292C12.4509 9.96438 12.4369 10.0391 12.4369 10.1271C12.4369 10.2612 12.4705 10.3632 12.5375 10.433C12.6046 10.5029 12.6968 10.5378 12.8141 10.5378C12.8742 10.5378 12.9258 10.5294 12.9691 10.5126C13.0124 10.4959 13.0522 10.477 13.0886 10.4561C13.1095 10.4714 13.1263 10.4917 13.1388 10.5168C13.1528 10.5406 13.1598 10.5685 13.1598 10.6006C13.1598 10.6286 13.1521 10.6544 13.1368 10.6782C13.1228 10.7019 13.0983 10.7222 13.0634 10.7389C13.0369 10.7529 12.9992 10.7662 12.9503 10.7787C12.9014 10.7913 12.842 10.7976 12.7722 10.7976C12.6493 10.7976 12.5368 10.7738 12.4348 10.7263C12.3343 10.6775 12.2547 10.6041 12.196 10.5063C12.1373 10.4072 12.108 10.2808 12.108 10.1271C12.108 9.98184 12.1366 9.85961 12.1939 9.76044C12.2526 9.65987 12.3308 9.58374 12.4286 9.53206C12.5263 9.48038 12.6346 9.45453 12.7533 9.45453C12.8357 9.45453 12.907 9.46431 12.967 9.48387C13.0271 9.50203 13.0732 9.52717 13.1053 9.5593C13.1375 9.59003 13.1535 9.62495 13.1535 9.66406ZM14.5917 10.125C14.5917 10.2703 14.5631 10.3932 14.5058 10.4938C14.45 10.5929 14.3724 10.6684 14.2733 10.7201C14.1755 10.7717 14.0644 10.7976 13.9401 10.7976C13.8158 10.7976 13.7048 10.7717 13.607 10.7201C13.5092 10.6684 13.4324 10.5929 13.3765 10.4938C13.3206 10.3932 13.2927 10.2703 13.2927 10.125C13.2927 9.97974 13.3213 9.85752 13.3786 9.75834C13.4359 9.65777 13.5134 9.58234 13.6112 9.53206C13.709 9.48038 13.8186 9.45453 13.9401 9.45453C14.0631 9.45453 14.1734 9.48038 14.2712 9.53206C14.3704 9.58234 14.4486 9.65777 14.5058 9.75834C14.5631 9.85752 14.5917 9.97974 14.5917 10.125ZM14.2628 10.125C14.2628 9.99092 14.2335 9.88895 14.1748 9.81911C14.1175 9.74926 14.0393 9.71434 13.9401 9.71434C13.8451 9.71434 13.7683 9.74926 13.7097 9.81911C13.651 9.88755 13.6217 9.98952 13.6217 10.125C13.6217 10.2619 13.6503 10.3653 13.7076 10.4351C13.7662 10.5036 13.8444 10.5378 13.9422 10.5378C14.04 10.5378 14.1175 10.5036 14.1748 10.4351C14.2335 10.3653 14.2628 10.2619 14.2628 10.125ZM15.6588 10.4456C15.6434 10.4582 15.6225 10.4686 15.5959 10.477C15.5708 10.4854 15.5414 10.4896 15.5079 10.4896C15.4646 10.4896 15.4283 10.484 15.399 10.4728C15.3696 10.4616 15.3508 10.4428 15.3424 10.4162C15.2949 10.2836 15.2544 10.1732 15.2209 10.0852C15.1888 9.9972 15.1636 9.92107 15.1454 9.85682H15.135C15.1308 9.94482 15.1273 10.0251 15.1245 10.0978C15.1217 10.1704 15.1196 10.2416 15.1182 10.3115C15.1168 10.3799 15.1147 10.4498 15.1119 10.521C15.1091 10.5922 15.1049 10.6705 15.0994 10.7557C15.084 10.7599 15.063 10.7648 15.0365 10.7703C15.0114 10.7759 14.9862 10.7787 14.9611 10.7787C14.908 10.7787 14.8661 10.7696 14.8354 10.7515C14.806 10.7333 14.7914 10.7019 14.7914 10.6572C14.7914 10.6265 14.7928 10.5811 14.7955 10.521C14.7997 10.4596 14.8039 10.3897 14.8081 10.3115C14.8137 10.2319 14.8186 10.1481 14.8228 10.0601C14.8284 9.97206 14.834 9.88545 14.8395 9.80025C14.8465 9.71365 14.8528 9.63403 14.8584 9.56139C14.8696 9.54463 14.8919 9.52787 14.9254 9.51111C14.959 9.49295 15.0051 9.48387 15.0637 9.48387C15.1266 9.48387 15.1769 9.49434 15.2146 9.5153C15.2537 9.53485 15.2816 9.56768 15.2984 9.61377C15.3194 9.66406 15.3417 9.72272 15.3654 9.78977C15.3892 9.85542 15.4122 9.92247 15.4346 9.99092C15.4583 10.058 15.48 10.1187 15.4995 10.1732H15.51C15.5491 10.0503 15.5889 9.93015 15.6294 9.81282C15.6714 9.69549 15.707 9.59771 15.7363 9.51949C15.7559 9.50831 15.7803 9.49993 15.8096 9.49434C15.8404 9.48736 15.8725 9.48387 15.906 9.48387C15.9661 9.48387 16.0143 9.49295 16.0506 9.51111C16.0883 9.52787 16.1107 9.55371 16.1176 9.58863C16.1232 9.61517 16.1288 9.65707 16.1344 9.71434C16.1414 9.77161 16.1484 9.83796 16.1554 9.91339C16.1623 9.98742 16.1693 10.0656 16.1763 10.1481C16.1833 10.2291 16.1896 10.3087 16.1952 10.3869C16.2021 10.4637 16.2077 10.5329 16.2119 10.5943C16.2161 10.6558 16.2189 10.7047 16.2203 10.741C16.1994 10.7536 16.177 10.7627 16.1533 10.7682C16.1309 10.7752 16.1023 10.7787 16.0674 10.7787C16.0227 10.7787 15.9842 10.7703 15.9521 10.7536C15.9214 10.7368 15.9046 10.7047 15.9018 10.6572C15.8948 10.5482 15.8893 10.4449 15.8851 10.3471C15.8809 10.2479 15.8774 10.1578 15.8746 10.0768C15.8732 9.99441 15.8711 9.92387 15.8683 9.8652H15.8578C15.8397 9.92526 15.8138 10.0014 15.7803 10.0936C15.7482 10.1844 15.7077 10.3017 15.6588 10.4456ZM17.1463 9.9993V10.2256H16.6791V9.9993H17.1463ZM16.9892 10.2256L17.0143 10.0517C17.1303 10.0517 17.2267 10.0656 17.3035 10.0936C17.3803 10.1215 17.4376 10.1606 17.4753 10.2109C17.5144 10.2612 17.534 10.322 17.534 10.3932C17.534 10.5287 17.4837 10.6293 17.3831 10.6949C17.2825 10.7606 17.1394 10.7934 16.9536 10.7934C16.92 10.7934 16.8816 10.792 16.8383 10.7892C16.7964 10.7864 16.7531 10.7815 16.7084 10.7745C16.6651 10.7676 16.6253 10.7578 16.589 10.7452C16.5164 10.7187 16.48 10.6719 16.48 10.6048V9.6033C16.48 9.57676 16.4877 9.5558 16.5031 9.54044C16.5185 9.52507 16.5387 9.5132 16.5639 9.50482C16.6114 9.48806 16.6686 9.47618 16.7357 9.4692C16.8041 9.46222 16.874 9.45872 16.9452 9.45872C17.1184 9.45872 17.2518 9.48876 17.3454 9.54882C17.4404 9.60888 17.4879 9.69968 17.4879 9.8212C17.4879 9.88825 17.4683 9.94552 17.4292 9.99301C17.3901 10.0405 17.3328 10.0768 17.2574 10.102C17.1834 10.1271 17.0933 10.1397 16.9871 10.1397L16.9724 9.9993C17.0395 9.9993 17.0891 9.98603 17.1212 9.95949C17.1533 9.93295 17.1694 9.89523 17.1694 9.84634C17.1694 9.80025 17.1505 9.76463 17.1128 9.73949C17.0765 9.71434 17.0213 9.70177 16.9473 9.70177C16.9207 9.70177 16.8928 9.70317 16.8635 9.70596C16.8341 9.70736 16.8097 9.71015 16.7901 9.71434V10.5294C16.8139 10.535 16.8425 10.5392 16.876 10.542C16.911 10.5448 16.9438 10.5462 16.9745 10.5462C17.0444 10.5462 17.1002 10.5329 17.1421 10.5063C17.1854 10.4784 17.2071 10.4365 17.2071 10.3806C17.2071 10.3276 17.1889 10.2884 17.1526 10.2633C17.1163 10.2382 17.0618 10.2256 16.9892 10.2256ZM19.0012 10.125C19.0012 10.2703 18.9725 10.3932 18.9153 10.4938C18.8594 10.5929 18.7819 10.6684 18.6827 10.7201C18.5849 10.7717 18.4739 10.7976 18.3495 10.7976C18.2252 10.7976 18.1142 10.7717 18.0164 10.7201C17.9186 10.6684 17.8418 10.5929 17.7859 10.4938C17.7301 10.3932 17.7021 10.2703 17.7021 10.125C17.7021 9.97974 17.7307 9.85752 17.788 9.75834C17.8453 9.65777 17.9228 9.58234 18.0206 9.53206C18.1184 9.48038 18.228 9.45453 18.3495 9.45453C18.4725 9.45453 18.5828 9.48038 18.6806 9.53206C18.7798 9.58234 18.858 9.65777 18.9153 9.75834C18.9725 9.85752 19.0012 9.97974 19.0012 10.125ZM18.6722 10.125C18.6722 9.99092 18.6429 9.88895 18.5842 9.81911C18.5269 9.74926 18.4487 9.71434 18.3495 9.71434C18.2546 9.71434 18.1777 9.74926 18.1191 9.81911C18.0604 9.88755 18.0311 9.98952 18.0311 10.125C18.0311 10.2619 18.0597 10.3653 18.117 10.4351C18.1756 10.5036 18.2539 10.5378 18.3516 10.5378C18.4494 10.5378 18.5269 10.5036 18.5842 10.4351C18.6429 10.3653 18.6722 10.2619 18.6722 10.125Z"/>
</mask>
<path d="M13.1535 9.66406C13.1535 9.69618 13.1451 9.72412 13.1284 9.74787C13.1116 9.77161 13.0928 9.79047 13.0718 9.80444C13.0369 9.78069 12.9971 9.75974 12.9524 9.74158C12.9091 9.72342 12.8574 9.71434 12.7973 9.71434C12.7233 9.71434 12.659 9.73041 12.6046 9.76253C12.5501 9.79466 12.5082 9.84145 12.4788 9.90292C12.4509 9.96438 12.4369 10.0391 12.4369 10.1271C12.4369 10.2612 12.4705 10.3632 12.5375 10.433C12.6046 10.5029 12.6968 10.5378 12.8141 10.5378C12.8742 10.5378 12.9258 10.5294 12.9691 10.5126C13.0124 10.4959 13.0522 10.477 13.0886 10.4561C13.1095 10.4714 13.1263 10.4917 13.1388 10.5168C13.1528 10.5406 13.1598 10.5685 13.1598 10.6006C13.1598 10.6286 13.1521 10.6544 13.1368 10.6782C13.1228 10.7019 13.0983 10.7222 13.0634 10.7389C13.0369 10.7529 12.9992 10.7662 12.9503 10.7787C12.9014 10.7913 12.842 10.7976 12.7722 10.7976C12.6493 10.7976 12.5368 10.7738 12.4348 10.7263C12.3343 10.6775 12.2547 10.6041 12.196 10.5063C12.1373 10.4072 12.108 10.2808 12.108 10.1271C12.108 9.98184 12.1366 9.85961 12.1939 9.76044C12.2526 9.65987 12.3308 9.58374 12.4286 9.53206C12.5263 9.48038 12.6346 9.45453 12.7533 9.45453C12.8357 9.45453 12.907 9.46431 12.967 9.48387C13.0271 9.50203 13.0732 9.52717 13.1053 9.5593C13.1375 9.59003 13.1535 9.62495 13.1535 9.66406ZM14.5917 10.125C14.5917 10.2703 14.5631 10.3932 14.5058 10.4938C14.45 10.5929 14.3724 10.6684 14.2733 10.7201C14.1755 10.7717 14.0644 10.7976 13.9401 10.7976C13.8158 10.7976 13.7048 10.7717 13.607 10.7201C13.5092 10.6684 13.4324 10.5929 13.3765 10.4938C13.3206 10.3932 13.2927 10.2703 13.2927 10.125C13.2927 9.97974 13.3213 9.85752 13.3786 9.75834C13.4359 9.65777 13.5134 9.58234 13.6112 9.53206C13.709 9.48038 13.8186 9.45453 13.9401 9.45453C14.0631 9.45453 14.1734 9.48038 14.2712 9.53206C14.3704 9.58234 14.4486 9.65777 14.5058 9.75834C14.5631 9.85752 14.5917 9.97974 14.5917 10.125ZM14.2628 10.125C14.2628 9.99092 14.2335 9.88895 14.1748 9.81911C14.1175 9.74926 14.0393 9.71434 13.9401 9.71434C13.8451 9.71434 13.7683 9.74926 13.7097 9.81911C13.651 9.88755 13.6217 9.98952 13.6217 10.125C13.6217 10.2619 13.6503 10.3653 13.7076 10.4351C13.7662 10.5036 13.8444 10.5378 13.9422 10.5378C14.04 10.5378 14.1175 10.5036 14.1748 10.4351C14.2335 10.3653 14.2628 10.2619 14.2628 10.125ZM15.6588 10.4456C15.6434 10.4582 15.6225 10.4686 15.5959 10.477C15.5708 10.4854 15.5414 10.4896 15.5079 10.4896C15.4646 10.4896 15.4283 10.484 15.399 10.4728C15.3696 10.4616 15.3508 10.4428 15.3424 10.4162C15.2949 10.2836 15.2544 10.1732 15.2209 10.0852C15.1888 9.9972 15.1636 9.92107 15.1454 9.85682H15.135C15.1308 9.94482 15.1273 10.0251 15.1245 10.0978C15.1217 10.1704 15.1196 10.2416 15.1182 10.3115C15.1168 10.3799 15.1147 10.4498 15.1119 10.521C15.1091 10.5922 15.1049 10.6705 15.0994 10.7557C15.084 10.7599 15.063 10.7648 15.0365 10.7703C15.0114 10.7759 14.9862 10.7787 14.9611 10.7787C14.908 10.7787 14.8661 10.7696 14.8354 10.7515C14.806 10.7333 14.7914 10.7019 14.7914 10.6572C14.7914 10.6265 14.7928 10.5811 14.7955 10.521C14.7997 10.4596 14.8039 10.3897 14.8081 10.3115C14.8137 10.2319 14.8186 10.1481 14.8228 10.0601C14.8284 9.97206 14.834 9.88545 14.8395 9.80025C14.8465 9.71365 14.8528 9.63403 14.8584 9.56139C14.8696 9.54463 14.8919 9.52787 14.9254 9.51111C14.959 9.49295 15.0051 9.48387 15.0637 9.48387C15.1266 9.48387 15.1769 9.49434 15.2146 9.5153C15.2537 9.53485 15.2816 9.56768 15.2984 9.61377C15.3194 9.66406 15.3417 9.72272 15.3654 9.78977C15.3892 9.85542 15.4122 9.92247 15.4346 9.99092C15.4583 10.058 15.48 10.1187 15.4995 10.1732H15.51C15.5491 10.0503 15.5889 9.93015 15.6294 9.81282C15.6714 9.69549 15.707 9.59771 15.7363 9.51949C15.7559 9.50831 15.7803 9.49993 15.8096 9.49434C15.8404 9.48736 15.8725 9.48387 15.906 9.48387C15.9661 9.48387 16.0143 9.49295 16.0506 9.51111C16.0883 9.52787 16.1107 9.55371 16.1176 9.58863C16.1232 9.61517 16.1288 9.65707 16.1344 9.71434C16.1414 9.77161 16.1484 9.83796 16.1554 9.91339C16.1623 9.98742 16.1693 10.0656 16.1763 10.1481C16.1833 10.2291 16.1896 10.3087 16.1952 10.3869C16.2021 10.4637 16.2077 10.5329 16.2119 10.5943C16.2161 10.6558 16.2189 10.7047 16.2203 10.741C16.1994 10.7536 16.177 10.7627 16.1533 10.7682C16.1309 10.7752 16.1023 10.7787 16.0674 10.7787C16.0227 10.7787 15.9842 10.7703 15.9521 10.7536C15.9214 10.7368 15.9046 10.7047 15.9018 10.6572C15.8948 10.5482 15.8893 10.4449 15.8851 10.3471C15.8809 10.2479 15.8774 10.1578 15.8746 10.0768C15.8732 9.99441 15.8711 9.92387 15.8683 9.8652H15.8578C15.8397 9.92526 15.8138 10.0014 15.7803 10.0936C15.7482 10.1844 15.7077 10.3017 15.6588 10.4456ZM17.1463 9.9993V10.2256H16.6791V9.9993H17.1463ZM16.9892 10.2256L17.0143 10.0517C17.1303 10.0517 17.2267 10.0656 17.3035 10.0936C17.3803 10.1215 17.4376 10.1606 17.4753 10.2109C17.5144 10.2612 17.534 10.322 17.534 10.3932C17.534 10.5287 17.4837 10.6293 17.3831 10.6949C17.2825 10.7606 17.1394 10.7934 16.9536 10.7934C16.92 10.7934 16.8816 10.792 16.8383 10.7892C16.7964 10.7864 16.7531 10.7815 16.7084 10.7745C16.6651 10.7676 16.6253 10.7578 16.589 10.7452C16.5164 10.7187 16.48 10.6719 16.48 10.6048V9.6033C16.48 9.57676 16.4877 9.5558 16.5031 9.54044C16.5185 9.52507 16.5387 9.5132 16.5639 9.50482C16.6114 9.48806 16.6686 9.47618 16.7357 9.4692C16.8041 9.46222 16.874 9.45872 16.9452 9.45872C17.1184 9.45872 17.2518 9.48876 17.3454 9.54882C17.4404 9.60888 17.4879 9.69968 17.4879 9.8212C17.4879 9.88825 17.4683 9.94552 17.4292 9.99301C17.3901 10.0405 17.3328 10.0768 17.2574 10.102C17.1834 10.1271 17.0933 10.1397 16.9871 10.1397L16.9724 9.9993C17.0395 9.9993 17.0891 9.98603 17.1212 9.95949C17.1533 9.93295 17.1694 9.89523 17.1694 9.84634C17.1694 9.80025 17.1505 9.76463 17.1128 9.73949C17.0765 9.71434 17.0213 9.70177 16.9473 9.70177C16.9207 9.70177 16.8928 9.70317 16.8635 9.70596C16.8341 9.70736 16.8097 9.71015 16.7901 9.71434V10.5294C16.8139 10.535 16.8425 10.5392 16.876 10.542C16.911 10.5448 16.9438 10.5462 16.9745 10.5462C17.0444 10.5462 17.1002 10.5329 17.1421 10.5063C17.1854 10.4784 17.2071 10.4365 17.2071 10.3806C17.2071 10.3276 17.1889 10.2884 17.1526 10.2633C17.1163 10.2382 17.0618 10.2256 16.9892 10.2256ZM19.0012 10.125C19.0012 10.2703 18.9725 10.3932 18.9153 10.4938C18.8594 10.5929 18.7819 10.6684 18.6827 10.7201C18.5849 10.7717 18.4739 10.7976 18.3495 10.7976C18.2252 10.7976 18.1142 10.7717 18.0164 10.7201C17.9186 10.6684 17.8418 10.5929 17.7859 10.4938C17.7301 10.3932 17.7021 10.2703 17.7021 10.125C17.7021 9.97974 17.7307 9.85752 17.788 9.75834C17.8453 9.65777 17.9228 9.58234 18.0206 9.53206C18.1184 9.48038 18.228 9.45453 18.3495 9.45453C18.4725 9.45453 18.5828 9.48038 18.6806 9.53206C18.7798 9.58234 18.858 9.65777 18.9153 9.75834C18.9725 9.85752 19.0012 9.97974 19.0012 10.125ZM18.6722 10.125C18.6722 9.99092 18.6429 9.88895 18.5842 9.81911C18.5269 9.74926 18.4487 9.71434 18.3495 9.71434C18.2546 9.71434 18.1777 9.74926 18.1191 9.81911C18.0604 9.88755 18.0311 9.98952 18.0311 10.125C18.0311 10.2619 18.0597 10.3653 18.117 10.4351C18.1756 10.5036 18.2539 10.5378 18.3516 10.5378C18.4494 10.5378 18.5269 10.5036 18.5842 10.4351C18.6429 10.3653 18.6722 10.2619 18.6722 10.125Z" fill="white"/>
<path d="M13.1284 9.74787L13.0856 9.71766L13.0856 9.71766L13.1284 9.74787ZM13.0718 9.80444L13.0423 9.84775L13.0715 9.86759L13.1009 9.84802L13.0718 9.80444ZM12.9524 9.74158L12.9321 9.78989L12.9327 9.79011L12.9524 9.74158ZM12.6046 9.76253L12.578 9.71742L12.578 9.71742L12.6046 9.76253ZM12.4788 9.90292L12.4316 9.88035L12.4312 9.88124L12.4788 9.90292ZM12.5375 10.433L12.4997 10.4693L12.4997 10.4693L12.5375 10.433ZM12.9691 10.5126L12.988 10.5615L12.988 10.5615L12.9691 10.5126ZM13.0886 10.4561L13.1195 10.4138L13.092 10.3936L13.0624 10.4107L13.0886 10.4561ZM13.1388 10.5168L13.0919 10.5403L13.0937 10.5434L13.1388 10.5168ZM13.1368 10.6782L13.0927 10.6497L13.0916 10.6516L13.1368 10.6782ZM13.0634 10.7389L13.0407 10.6917L13.039 10.6926L13.0634 10.7389ZM12.9503 10.7787L12.9633 10.8295L12.9633 10.8295L12.9503 10.7787ZM12.4348 10.7263L12.4119 10.7735L12.4127 10.7738L12.4348 10.7263ZM12.196 10.5063L12.1509 10.533L12.1511 10.5333L12.196 10.5063ZM12.1939 9.76044L12.1487 9.73405L12.1485 9.73424L12.1939 9.76044ZM12.4286 9.53206L12.4041 9.48575L12.4041 9.48575L12.4286 9.53206ZM12.967 9.48387L12.9508 9.53369L12.9519 9.53401L12.967 9.48387ZM13.1053 9.5593L13.0683 9.59634L13.0691 9.59715L13.1053 9.5593ZM13.1535 9.66406H13.1011C13.1011 9.68656 13.0954 9.70368 13.0856 9.71766L13.1284 9.74787L13.1712 9.77807C13.1948 9.74456 13.2059 9.70581 13.2059 9.66406H13.1535ZM13.1284 9.74787L13.0856 9.71766C13.072 9.73694 13.0576 9.75097 13.0427 9.76086L13.0718 9.80444L13.1009 9.84802C13.1279 9.82997 13.1513 9.80629 13.1712 9.77807L13.1284 9.74787ZM13.0718 9.80444L13.1013 9.76112C13.0629 9.73503 13.0197 9.71241 12.9721 9.69305L12.9524 9.74158L12.9327 9.79011C12.9744 9.80707 13.0109 9.82635 13.0423 9.84775L13.0718 9.80444ZM12.9524 9.74158L12.9726 9.69328C12.9214 9.67179 12.8625 9.66196 12.7973 9.66196V9.71434V9.76672C12.8523 9.76672 12.8967 9.77506 12.9321 9.78989L12.9524 9.74158ZM12.7973 9.71434V9.66196C12.7155 9.66196 12.6418 9.67978 12.578 9.71742L12.6046 9.76253L12.6312 9.80765C12.6763 9.78104 12.731 9.76672 12.7973 9.76672V9.71434ZM12.6046 9.76253L12.578 9.71742C12.5138 9.75525 12.465 9.81024 12.4316 9.88035L12.4788 9.90292L12.5261 9.92548C12.5513 9.87267 12.5864 9.83407 12.6312 9.80765L12.6046 9.76253ZM12.4788 9.90292L12.4312 9.88124C12.3993 9.95124 12.3846 10.0338 12.3846 10.1271H12.4369H12.4893C12.4893 10.0444 12.5025 9.97751 12.5265 9.92459L12.4788 9.90292ZM12.4369 10.1271H12.3846C12.3846 10.2695 12.4202 10.3865 12.4997 10.4693L12.5375 10.433L12.5753 10.3967C12.5207 10.3399 12.4893 10.253 12.4893 10.1271H12.4369ZM12.5375 10.433L12.4997 10.4693C12.5787 10.5515 12.6857 10.5902 12.8141 10.5902V10.5378V10.4854C12.7078 10.4854 12.6304 10.4542 12.5753 10.3967L12.5375 10.433ZM12.8141 10.5378V10.5902C12.8788 10.5902 12.9372 10.5811 12.988 10.5615L12.9691 10.5126L12.9502 10.4638C12.9144 10.4776 12.8695 10.4854 12.8141 10.4854V10.5378ZM12.9691 10.5126L12.988 10.5615C13.0336 10.5438 13.0759 10.5239 13.1147 10.5014L13.0886 10.4561L13.0624 10.4107C13.0286 10.4302 12.9913 10.4479 12.9502 10.4638L12.9691 10.5126ZM13.0886 10.4561L13.0576 10.4983C13.0713 10.5083 13.0828 10.5219 13.092 10.5402L13.1388 10.5168L13.1857 10.4934C13.1697 10.4614 13.1477 10.4345 13.1195 10.4138L13.0886 10.4561ZM13.1388 10.5168L13.0937 10.5434C13.1022 10.5578 13.1074 10.5763 13.1074 10.6006H13.1598H13.2122C13.2122 10.5607 13.2034 10.5233 13.184 10.4903L13.1388 10.5168ZM13.1598 10.6006H13.1074C13.1074 10.6183 13.1027 10.6343 13.0928 10.6497L13.1368 10.6782L13.1807 10.7066C13.2015 10.6745 13.2122 10.6388 13.2122 10.6006H13.1598ZM13.1368 10.6782L13.0916 10.6516C13.0847 10.6634 13.07 10.6777 13.0408 10.6917L13.0634 10.7389L13.0861 10.7861C13.1267 10.7666 13.1609 10.7404 13.1819 10.7047L13.1368 10.6782ZM13.0634 10.7389L13.039 10.6926C13.0177 10.7038 12.9845 10.7158 12.9372 10.728L12.9503 10.7787L12.9633 10.8295C13.0139 10.8165 13.0561 10.802 13.0878 10.7853L13.0634 10.7389ZM12.9503 10.7787L12.9372 10.728C12.8939 10.7391 12.8392 10.7452 12.7722 10.7452V10.7976V10.85C12.8449 10.85 12.9089 10.8435 12.9633 10.8295L12.9503 10.7787ZM12.7722 10.7976V10.7452C12.6562 10.7452 12.5514 10.7228 12.457 10.6789L12.4348 10.7263L12.4127 10.7738C12.5223 10.8248 12.6423 10.85 12.7722 10.85V10.7976ZM12.4348 10.7263L12.4577 10.6792C12.3665 10.6349 12.2945 10.5686 12.2409 10.4794L12.196 10.5063L12.1511 10.5333C12.2149 10.6396 12.302 10.72 12.4119 10.7735L12.4348 10.7263ZM12.196 10.5063L12.2411 10.4797C12.1885 10.3908 12.1604 10.2744 12.1604 10.1271H12.108H12.0556C12.0556 10.2871 12.0861 10.4235 12.1509 10.533L12.196 10.5063ZM12.108 10.1271H12.1604C12.1604 9.9886 12.1877 9.87598 12.2393 9.78663L12.1939 9.76044L12.1485 9.73424C12.0856 9.84325 12.0556 9.97507 12.0556 10.1271H12.108ZM12.1939 9.76044L12.2391 9.78683C12.2932 9.69424 12.3644 9.62523 12.453 9.57837L12.4286 9.53206L12.4041 9.48575C12.2972 9.54225 12.212 9.62549 12.1487 9.73405L12.1939 9.76044ZM12.4286 9.53206L12.453 9.57837C12.5427 9.53096 12.6425 9.50692 12.7533 9.50692V9.45453V9.40215C12.6267 9.40215 12.51 9.42979 12.4041 9.48575L12.4286 9.53206ZM12.7533 9.45453V9.50692C12.8318 9.50692 12.8973 9.51625 12.9508 9.53368L12.967 9.48387L12.9833 9.43406C12.9166 9.41237 12.8397 9.40215 12.7533 9.40215V9.45453ZM12.967 9.48387L12.9519 9.53401C13.0067 9.55057 13.0441 9.57219 13.0683 9.59634L13.1053 9.5593L13.1424 9.52226C13.1023 9.48215 13.0475 9.45348 12.9822 9.43373L12.967 9.48387ZM13.1053 9.5593L13.0691 9.59715C13.0925 9.61948 13.1011 9.64125 13.1011 9.66406H13.1535H13.2059C13.2059 9.60864 13.1824 9.56057 13.1415 9.52144L13.1053 9.5593ZM14.5058 10.4938L14.4603 10.4679L14.4602 10.4681L14.5058 10.4938ZM14.2733 10.7201L14.2491 10.6736L14.2488 10.6737L14.2733 10.7201ZM13.3765 10.4938L13.3307 10.5192L13.3309 10.5195L13.3765 10.4938ZM13.3786 9.75834L13.424 9.78454L13.4241 9.78426L13.3786 9.75834ZM13.6112 9.53206L13.6351 9.57864L13.6357 9.57837L13.6112 9.53206ZM14.2712 9.53206L14.2467 9.57837L14.2475 9.57878L14.2712 9.53206ZM14.5058 9.75834L14.4603 9.78426L14.4605 9.78454L14.5058 9.75834ZM14.1748 9.81911L14.1343 9.85232L14.1347 9.8528L14.1748 9.81911ZM13.7097 9.81911L13.7494 9.8532L13.7498 9.8528L13.7097 9.81911ZM13.7076 10.4351L13.667 10.4683L13.6678 10.4692L13.7076 10.4351ZM14.1748 10.4351L14.1347 10.4014L14.1346 10.4015L14.1748 10.4351ZM14.5917 10.125H14.5394C14.5394 10.2635 14.5121 10.377 14.4603 10.4679L14.5058 10.4938L14.5514 10.5197C14.6141 10.4094 14.6441 10.2771 14.6441 10.125H14.5917ZM14.5058 10.4938L14.4602 10.4681C14.4092 10.5586 14.3391 10.6267 14.2491 10.6736L14.2733 10.7201L14.2975 10.7665C14.4058 10.71 14.4907 10.6273 14.5515 10.5195L14.5058 10.4938ZM14.2733 10.7201L14.2488 10.6737C14.1595 10.721 14.057 10.7452 13.9401 10.7452V10.7976V10.85C14.0719 10.85 14.1915 10.8225 14.2978 10.7664L14.2733 10.7201ZM13.9401 10.7976V10.7452C13.8233 10.7452 13.7208 10.721 13.6315 10.6737L13.607 10.7201L13.5825 10.7664C13.6887 10.8225 13.8084 10.85 13.9401 10.85V10.7976ZM13.607 10.7201L13.6315 10.6737C13.5428 10.6269 13.4732 10.5588 13.4221 10.4681L13.3765 10.4938L13.3309 10.5195C13.3915 10.6271 13.4756 10.7098 13.5825 10.7664L13.607 10.7201ZM13.3765 10.4938L13.4223 10.4683C13.3717 10.3773 13.3451 10.2637 13.3451 10.125H13.2927H13.2403C13.2403 10.2769 13.2695 10.4091 13.3307 10.5192L13.3765 10.4938ZM13.2927 10.125H13.3451C13.3451 9.98651 13.3724 9.87388 13.424 9.78454L13.3786 9.75834L13.3332 9.73215C13.2703 9.84116 13.2403 9.97297 13.2403 10.125H13.2927ZM13.3786 9.75834L13.4241 9.78426C13.4766 9.69204 13.5469 9.62403 13.6351 9.57864L13.6112 9.53206L13.5872 9.48548C13.4799 9.54066 13.3951 9.62351 13.3331 9.73242L13.3786 9.75834ZM13.6112 9.53206L13.6357 9.57837C13.7252 9.53106 13.8263 9.50692 13.9401 9.50692V9.45453V9.40215C13.8109 9.40215 13.6927 9.4297 13.5867 9.48575L13.6112 9.53206ZM13.9401 9.45453V9.50692C14.0555 9.50692 14.1573 9.5311 14.2467 9.57837L14.2712 9.53206L14.2957 9.48575C14.1895 9.42965 14.0706 9.40215 13.9401 9.40215V9.45453ZM14.2712 9.53206L14.2475 9.57878C14.3371 9.62422 14.4079 9.69223 14.4603 9.78426L14.5058 9.75834L14.5514 9.73242C14.4892 9.62331 14.4036 9.54046 14.2949 9.48534L14.2712 9.53206ZM14.5058 9.75834L14.4605 9.78454C14.5121 9.87388 14.5394 9.98651 14.5394 10.125H14.5917H14.6441C14.6441 9.97297 14.6142 9.84116 14.5512 9.73215L14.5058 9.75834ZM14.2628 10.125H14.3152C14.3152 9.98422 14.2845 9.86826 14.2149 9.78541L14.1748 9.81911L14.1347 9.8528C14.1824 9.90964 14.2104 9.99761 14.2104 10.125H14.2628ZM14.1748 9.81911L14.2153 9.78589C14.147 9.70263 14.0532 9.66196 13.9401 9.66196V9.71434V9.76672C14.0254 9.76672 14.088 9.7959 14.1343 9.85232L14.1748 9.81911ZM13.9401 9.71434V9.66196C13.8304 9.66196 13.7386 9.70317 13.6695 9.78541L13.7097 9.81911L13.7498 9.8528C13.798 9.79536 13.8599 9.76672 13.9401 9.76672V9.71434ZM13.7097 9.81911L13.6699 9.78502C13.5998 9.86673 13.5693 9.98309 13.5693 10.125H13.6217H13.674C13.674 9.99595 13.7021 9.90837 13.7494 9.85319L13.7097 9.81911ZM13.6217 10.125H13.5693C13.5693 10.268 13.599 10.3853 13.6671 10.4683L13.7076 10.4351L13.7481 10.4019C13.7016 10.3452 13.674 10.2558 13.674 10.125H13.6217ZM13.7076 10.4351L13.6678 10.4692C13.7373 10.5503 13.8306 10.5902 13.9422 10.5902V10.5378V10.4854C13.8583 10.4854 13.7951 10.4568 13.7473 10.401L13.7076 10.4351ZM13.9422 10.5378V10.5902C14.0538 10.5902 14.1467 10.5503 14.215 10.4687L14.1748 10.4351L14.1346 10.4015C14.0883 10.4568 14.0262 10.4854 13.9422 10.4854V10.5378ZM14.1748 10.4351L14.2149 10.4688C14.2846 10.3858 14.3152 10.2683 14.3152 10.125H14.2628H14.2104C14.2104 10.2555 14.1823 10.3447 14.1347 10.4014L14.1748 10.4351ZM15.6588 10.4456L15.692 10.4861L15.7036 10.4766L15.7084 10.4624L15.6588 10.4456ZM15.5959 10.477L15.5801 10.4271L15.5794 10.4273L15.5959 10.477ZM15.3424 10.4162L15.3924 10.4005L15.3917 10.3986L15.3424 10.4162ZM15.2209 10.0852L15.1717 10.1032L15.1719 10.1038L15.2209 10.0852ZM15.1454 9.85682L15.1959 9.84257L15.1851 9.80444H15.1454V9.85682ZM15.135 9.85682V9.80444H15.085L15.0827 9.85433L15.135 9.85682ZM15.1245 10.0978L15.1768 10.0998L15.1768 10.0998L15.1245 10.0978ZM15.1182 10.3115L15.1706 10.3126L15.1706 10.3125L15.1182 10.3115ZM15.1119 10.521L15.1643 10.5231L15.1119 10.521ZM15.0994 10.7557L15.1131 10.8062L15.1492 10.7964L15.1516 10.7591L15.0994 10.7557ZM15.0365 10.7703L15.0257 10.7191L15.0251 10.7192L15.0365 10.7703ZM14.8354 10.7515L14.8078 10.796L14.8087 10.7966L14.8354 10.7515ZM14.7955 10.521L14.7433 10.5174L14.7432 10.5186L14.7955 10.521ZM14.8081 10.3115L14.7559 10.3078L14.7558 10.3087L14.8081 10.3115ZM14.8228 10.0601L14.7705 10.0567L14.7705 10.0576L14.8228 10.0601ZM14.8395 9.80025L14.7873 9.79604L14.7873 9.79682L14.8395 9.80025ZM14.8584 9.56139L14.8148 9.53234L14.8072 9.54373L14.8062 9.55737L14.8584 9.56139ZM14.9254 9.51111L14.9489 9.55798L14.9504 9.55716L14.9254 9.51111ZM15.2146 9.5153L15.1891 9.56113L15.1912 9.56215L15.2146 9.5153ZM15.2984 9.61377L15.2491 9.63169L15.25 9.63392L15.2984 9.61377ZM15.3654 9.78977L15.3161 9.80726L15.3162 9.80759L15.3654 9.78977ZM15.4346 9.99092L15.3848 10.0072L15.3852 10.0084L15.4346 9.99092ZM15.4995 10.1732L15.4502 10.1909L15.4627 10.2256H15.4995V10.1732ZM15.51 10.1732V10.2256H15.5483L15.5599 10.1891L15.51 10.1732ZM15.6294 9.81282L15.5801 9.7952L15.5799 9.79573L15.6294 9.81282ZM15.7363 9.51949L15.7103 9.47401L15.6939 9.48339L15.6873 9.50109L15.7363 9.51949ZM15.8096 9.49434L15.8194 9.54583L15.8212 9.54542L15.8096 9.49434ZM16.0506 9.51111L16.0271 9.55801L16.0293 9.55897L16.0506 9.51111ZM16.1176 9.58863L16.0663 9.5989L16.0664 9.59942L16.1176 9.58863ZM16.1344 9.71434L16.0823 9.71943L16.0824 9.72068L16.1344 9.71434ZM16.1554 9.91339L16.1032 9.91822L16.1032 9.91831L16.1554 9.91339ZM16.1763 10.1481L16.1241 10.1525L16.1241 10.1526L16.1763 10.1481ZM16.1952 10.3869L16.1429 10.3906L16.143 10.3917L16.1952 10.3869ZM16.2119 10.5943L16.2642 10.5908L16.2642 10.5908L16.2119 10.5943ZM16.2203 10.741L16.2473 10.7859L16.2738 10.77L16.2726 10.739L16.2203 10.741ZM16.1533 10.7682L16.1412 10.7171L16.1376 10.7183L16.1533 10.7682ZM15.9521 10.7536L15.927 10.7996L15.9279 10.8L15.9521 10.7536ZM15.9018 10.6572L15.9541 10.6541L15.9541 10.6539L15.9018 10.6572ZM15.8851 10.3471L15.8327 10.3493L15.8327 10.3493L15.8851 10.3471ZM15.8746 10.0768L15.8222 10.0777L15.8222 10.0786L15.8746 10.0768ZM15.8683 9.8652L15.9206 9.86271L15.9183 9.81282H15.8683V9.8652ZM15.8578 9.8652V9.81282H15.8189L15.8077 9.85004L15.8578 9.8652ZM15.7803 10.0936L15.7311 10.0757L15.7309 10.0761L15.7803 10.0936ZM15.6588 10.4456L15.6256 10.405C15.617 10.4121 15.6027 10.4199 15.5802 10.4271L15.5959 10.477L15.6117 10.527C15.6422 10.5173 15.6698 10.5042 15.692 10.4861L15.6588 10.4456ZM15.5959 10.477L15.5794 10.4273C15.5608 10.4335 15.5372 10.4372 15.5079 10.4372V10.4896V10.542C15.5457 10.542 15.5808 10.5373 15.6125 10.5267L15.5959 10.477ZM15.5079 10.4896V10.4372C15.4687 10.4372 15.4392 10.4321 15.4176 10.4239L15.399 10.4728L15.3803 10.5218C15.4174 10.5359 15.4605 10.542 15.5079 10.542V10.4896ZM15.399 10.4728L15.4176 10.4239C15.4011 10.4176 15.3953 10.4097 15.3924 10.4005L15.3424 10.4162L15.2925 10.432C15.3063 10.4759 15.3382 10.5057 15.3803 10.5218L15.399 10.4728ZM15.3424 10.4162L15.3917 10.3986C15.3442 10.2657 15.3035 10.155 15.2698 10.0666L15.2209 10.0852L15.1719 10.1038C15.2053 10.1914 15.2457 10.3014 15.2931 10.4339L15.3424 10.4162ZM15.2209 10.0852L15.2701 10.0672C15.2382 9.98002 15.2136 9.90519 15.1959 9.84257L15.1454 9.85682L15.095 9.87107C15.1137 9.93696 15.1393 10.0144 15.1717 10.1032L15.2209 10.0852ZM15.1454 9.85682V9.80444H15.135V9.85682V9.9092H15.1454V9.85682ZM15.135 9.85682L15.0827 9.85433C15.0785 9.94246 15.075 10.0229 15.0722 10.0958L15.1245 10.0978L15.1768 10.0998C15.1796 10.0273 15.1831 9.94718 15.1873 9.85931L15.135 9.85682ZM15.1245 10.0978L15.0722 10.0958C15.0693 10.1687 15.0672 10.2403 15.0658 10.3104L15.1182 10.3115L15.1706 10.3125C15.172 10.243 15.1741 10.1721 15.1768 10.0998L15.1245 10.0978ZM15.1182 10.3115L15.0658 10.3104C15.0645 10.3785 15.0624 10.448 15.0596 10.519L15.1119 10.521L15.1643 10.5231C15.1671 10.4515 15.1692 10.3813 15.1706 10.3126L15.1182 10.3115ZM15.1119 10.521L15.0596 10.519C15.0568 10.5897 15.0526 10.6674 15.0471 10.7522L15.0994 10.7557L15.1516 10.7591C15.1572 10.6735 15.1615 10.5948 15.1643 10.5231L15.1119 10.521ZM15.0994 10.7557L15.0856 10.7051C15.0716 10.7089 15.0518 10.7136 15.0257 10.7191L15.0365 10.7703L15.0473 10.8216C15.0742 10.8159 15.0963 10.8108 15.1131 10.8062L15.0994 10.7557ZM15.0365 10.7703L15.0251 10.7192C15.0036 10.724 14.9823 10.7263 14.9611 10.7263V10.7787V10.8311C14.9901 10.8311 15.0191 10.8279 15.0479 10.8215L15.0365 10.7703ZM14.9611 10.7787V10.7263C14.9131 10.7263 14.8817 10.718 14.862 10.7064L14.8354 10.7515L14.8087 10.7966C14.8505 10.8213 14.9029 10.8311 14.9611 10.8311V10.7787ZM14.8354 10.7515L14.8629 10.7069C14.8536 10.7012 14.8437 10.6898 14.8437 10.6572H14.7914H14.739C14.739 10.714 14.7585 10.7655 14.8078 10.796L14.8354 10.7515ZM14.7914 10.6572H14.8437C14.8437 10.6277 14.8451 10.5833 14.8479 10.5234L14.7955 10.521L14.7432 10.5186C14.7404 10.5788 14.739 10.6252 14.739 10.6572H14.7914ZM14.7955 10.521L14.8478 10.5246C14.852 10.4628 14.8562 10.3927 14.8604 10.3143L14.8081 10.3115L14.7558 10.3087C14.7516 10.3867 14.7475 10.4563 14.7433 10.5174L14.7955 10.521ZM14.8081 10.3115L14.8604 10.3152C14.866 10.2351 14.8709 10.1509 14.8751 10.0625L14.8228 10.0601L14.7705 10.0576C14.7663 10.1452 14.7614 10.2286 14.7559 10.3078L14.8081 10.3115ZM14.8228 10.0601L14.8751 10.0634C14.8806 9.97541 14.8862 9.88885 14.8918 9.80368L14.8395 9.80025L14.7873 9.79682C14.7817 9.88206 14.7761 9.9687 14.7705 10.0567L14.8228 10.0601ZM14.8395 9.80025L14.8918 9.80446C14.8987 9.7178 14.905 9.63812 14.9106 9.56541L14.8584 9.56139L14.8062 9.55737C14.8006 9.62993 14.7943 9.70949 14.7873 9.79604L14.8395 9.80025ZM14.8584 9.56139L14.902 9.59045C14.9054 9.58534 14.9176 9.5736 14.9489 9.55796L14.9254 9.51111L14.902 9.46425C14.8663 9.48213 14.8338 9.50392 14.8148 9.53234L14.8584 9.56139ZM14.9254 9.51111L14.9504 9.55716C14.9732 9.5448 15.0095 9.53625 15.0637 9.53625V9.48387V9.43149C15.0006 9.43149 14.9447 9.44109 14.9005 9.46505L14.9254 9.51111ZM15.0637 9.48387V9.53625C15.1215 9.53625 15.162 9.54599 15.1892 9.56109L15.2146 9.5153L15.24 9.46951C15.1918 9.4427 15.1317 9.43149 15.0637 9.43149V9.48387ZM15.2146 9.5153L15.1912 9.56215C15.2168 9.57496 15.2364 9.59651 15.2492 9.63167L15.2984 9.61377L15.3476 9.59587C15.3269 9.53884 15.2906 9.49474 15.238 9.46845L15.2146 9.5153ZM15.2984 9.61377L15.25 9.63392C15.2705 9.68311 15.2926 9.74085 15.3161 9.80726L15.3654 9.78977L15.4148 9.77229C15.3909 9.7046 15.3682 9.64501 15.3468 9.59363L15.2984 9.61377ZM15.3654 9.78977L15.3162 9.80759C15.3397 9.87271 15.3626 9.93924 15.3848 10.0072L15.4346 9.99092L15.4844 9.97466C15.4619 9.90571 15.4386 9.83814 15.4147 9.77196L15.3654 9.78977ZM15.4346 9.99092L15.3852 10.0084C15.409 10.0755 15.4307 10.1363 15.4502 10.1909L15.4995 10.1732L15.5488 10.1555C15.5293 10.1011 15.5077 10.0404 15.484 9.97343L15.4346 9.99092ZM15.4995 10.1732V10.2256H15.51V10.1732V10.1208H15.4995V10.1732ZM15.51 10.1732L15.5599 10.1891C15.5989 10.0666 15.6386 9.94683 15.679 9.82991L15.6294 9.81282L15.5799 9.79573C15.5393 9.91348 15.4993 10.034 15.4601 10.1573L15.51 10.1732ZM15.6294 9.81282L15.6788 9.83044C15.7206 9.71325 15.7561 9.61575 15.7854 9.53788L15.7363 9.51949L15.6873 9.50109C15.6578 9.57967 15.6221 9.67772 15.5801 9.7952L15.6294 9.81282ZM15.7363 9.51949L15.7623 9.56497C15.7755 9.55743 15.7941 9.55063 15.8194 9.5458L15.8096 9.49434L15.7998 9.44289C15.7666 9.44923 15.7362 9.4592 15.7103 9.47401L15.7363 9.51949ZM15.8096 9.49434L15.8212 9.54542C15.8479 9.53936 15.8762 9.53625 15.906 9.53625V9.48387V9.43149C15.8688 9.43149 15.8328 9.43536 15.798 9.44327L15.8096 9.49434ZM15.906 9.48387V9.53625C15.9615 9.53625 16.0008 9.54476 16.0272 9.55796L16.0506 9.51111L16.074 9.46425C16.0278 9.44114 15.9706 9.43149 15.906 9.43149V9.48387ZM16.0506 9.51111L16.0293 9.55897C16.0543 9.57009 16.0632 9.58348 16.0663 9.5989L16.1176 9.58863L16.169 9.57836C16.1581 9.52394 16.1223 9.48565 16.0719 9.46324L16.0506 9.51111ZM16.1176 9.58863L16.0664 9.59942C16.0713 9.62296 16.0767 9.66245 16.0823 9.71943L16.1344 9.71434L16.1865 9.70926C16.1809 9.6517 16.1751 9.60738 16.1689 9.57784L16.1176 9.58863ZM16.1344 9.71434L16.0824 9.72068C16.0893 9.77732 16.0962 9.84315 16.1032 9.91822L16.1554 9.91339L16.2075 9.90856C16.2005 9.83277 16.1935 9.7659 16.1864 9.708L16.1344 9.71434ZM16.1554 9.91339L16.1032 9.91831C16.1102 9.99216 16.1171 10.0702 16.1241 10.1525L16.1763 10.1481L16.2285 10.1436C16.2215 10.0611 16.2145 9.98269 16.2075 9.90847L16.1554 9.91339ZM16.1763 10.1481L16.1241 10.1526C16.1311 10.2333 16.1373 10.3127 16.1429 10.3906L16.1952 10.3869L16.2474 10.3832C16.2418 10.3047 16.2355 10.2248 16.2285 10.1436L16.1763 10.1481ZM16.1952 10.3869L16.143 10.3917C16.15 10.4682 16.1555 10.5369 16.1597 10.5979L16.2119 10.5943L16.2642 10.5908C16.26 10.5288 16.2543 10.4593 16.2473 10.3822L16.1952 10.3869ZM16.2119 10.5943L16.1597 10.5979C16.1638 10.6592 16.1666 10.7075 16.168 10.743L16.2203 10.741L16.2726 10.739C16.2712 10.7019 16.2684 10.6525 16.2642 10.5908L16.2119 10.5943ZM16.2203 10.741L16.1934 10.6961C16.177 10.7059 16.1597 10.7129 16.1413 10.7173L16.1533 10.7682L16.1653 10.8192C16.1943 10.8124 16.2217 10.8013 16.2473 10.7859L16.2203 10.741ZM16.1533 10.7682L16.1376 10.7183C16.1222 10.7231 16.0993 10.7263 16.0674 10.7263V10.7787V10.8311C16.1052 10.8311 16.1396 10.8274 16.1689 10.8182L16.1533 10.7682ZM16.0674 10.7787V10.7263C16.0292 10.7263 15.9994 10.7192 15.9763 10.7071L15.9521 10.7536L15.9279 10.8C15.969 10.8215 16.0162 10.8311 16.0674 10.8311V10.7787ZM15.9521 10.7536L15.9772 10.7076C15.9678 10.7025 15.9563 10.6908 15.9541 10.6541L15.9018 10.6572L15.8495 10.6603C15.853 10.7186 15.875 10.7712 15.927 10.7996L15.9521 10.7536ZM15.9018 10.6572L15.9541 10.6539C15.9471 10.5452 15.9416 10.4422 15.9374 10.3449L15.8851 10.3471L15.8327 10.3493C15.8369 10.4475 15.8426 10.5513 15.8496 10.6606L15.9018 10.6572ZM15.8851 10.3471L15.9374 10.3449C15.9332 10.2458 15.9297 10.1559 15.9269 10.075L15.8746 10.0768L15.8222 10.0786C15.825 10.1598 15.8285 10.25 15.8327 10.3493L15.8851 10.3471ZM15.8746 10.0768L15.927 10.0759C15.9256 9.99318 15.9235 9.92207 15.9206 9.86271L15.8683 9.8652L15.816 9.86769C15.8187 9.92566 15.8208 9.99564 15.8222 10.0777L15.8746 10.0768ZM15.8683 9.8652V9.81282H15.8578V9.8652V9.91758H15.8683V9.8652ZM15.8578 9.8652L15.8077 9.85004C15.7899 9.90882 15.7644 9.98395 15.7311 10.0757L15.7803 10.0936L15.8295 10.1115C15.8632 10.0188 15.8894 9.94171 15.908 9.88036L15.8578 9.8652ZM15.7803 10.0936L15.7309 10.0761C15.6987 10.1672 15.6581 10.2848 15.6092 10.4287L15.6588 10.4456L15.7084 10.4624C15.7572 10.3187 15.7977 10.2016 15.8297 10.1111L15.7803 10.0936ZM17.1463 9.9993H17.1987V9.94692H17.1463V9.9993ZM17.1463 10.2256V10.278H17.1987V10.2256H17.1463ZM16.6791 10.2256H16.6267V10.278H16.6791V10.2256ZM16.6791 9.9993V9.94692H16.6267V9.9993H16.6791ZM16.9892 10.2256L16.9374 10.2181L16.9287 10.278H16.9892V10.2256ZM17.0143 10.0517V9.9993H16.969L16.9625 10.0442L17.0143 10.0517ZM17.3035 10.0936L17.2856 10.1428L17.2856 10.1428L17.3035 10.0936ZM17.4753 10.2109L17.4334 10.2423L17.4339 10.2431L17.4753 10.2109ZM17.3831 10.6949L17.4117 10.7388L17.4117 10.7388L17.3831 10.6949ZM16.8383 10.7892L16.8349 10.8415L16.835 10.8415L16.8383 10.7892ZM16.7084 10.7745L16.7001 10.8262L16.7003 10.8263L16.7084 10.7745ZM16.589 10.7452L16.571 10.7944L16.5719 10.7947L16.589 10.7452ZM16.5031 9.54044L16.5401 9.57748L16.5401 9.57748L16.5031 9.54044ZM16.5639 9.50482L16.5804 9.55452L16.5813 9.55421L16.5639 9.50482ZM16.7357 9.4692L16.7304 9.41709L16.7302 9.4171L16.7357 9.4692ZM17.3454 9.54882L17.3171 9.5929L17.3174 9.59309L17.3454 9.54882ZM17.4292 9.99301L17.4696 10.0263L17.4696 10.0263L17.4292 9.99301ZM17.2574 10.102L17.2408 10.0523L17.2405 10.0524L17.2574 10.102ZM16.9871 10.1397L16.935 10.1451L16.9399 10.1921H16.9871V10.1397ZM16.9724 9.9993V9.94692H16.9143L16.9203 10.0047L16.9724 9.9993ZM17.1128 9.73949L17.083 9.78256L17.0838 9.78307L17.1128 9.73949ZM16.8635 9.70596L16.866 9.75834L16.8684 9.75811L16.8635 9.70596ZM16.7901 9.71434L16.7792 9.66313L16.7378 9.672V9.71434H16.7901ZM16.7901 10.5294H16.7378V10.5709L16.7781 10.5804L16.7901 10.5294ZM16.876 10.542L16.8717 10.5942L16.8719 10.5942L16.876 10.542ZM17.1421 10.5063L17.1702 10.5506L17.1705 10.5504L17.1421 10.5063ZM17.1526 10.2633L17.1228 10.3064L17.1228 10.3064L17.1526 10.2633ZM17.1463 9.9993H17.094V10.2256H17.1463H17.1987V9.9993H17.1463ZM17.1463 10.2256V10.1732H16.6791V10.2256V10.278H17.1463V10.2256ZM16.6791 10.2256H16.7315V9.9993H16.6791H16.6267V10.2256H16.6791ZM16.6791 9.9993V10.0517H17.1463V9.9993V9.94692H16.6791V9.9993ZM16.9892 10.2256L17.041 10.2331L17.0662 10.0592L17.0143 10.0517L16.9625 10.0442L16.9374 10.2181L16.9892 10.2256ZM17.0143 10.0517V10.1041C17.1265 10.1041 17.2163 10.1176 17.2856 10.1428L17.3035 10.0936L17.3214 10.0444C17.237 10.0137 17.134 9.9993 17.0143 9.9993V10.0517ZM17.3035 10.0936L17.2856 10.1428C17.3557 10.1683 17.4034 10.2023 17.4334 10.2423L17.4753 10.2109L17.5172 10.1795C17.4718 10.1189 17.4049 10.0747 17.3214 10.0444L17.3035 10.0936ZM17.4753 10.2109L17.4339 10.2431C17.4651 10.2831 17.4816 10.3322 17.4816 10.3932H17.534H17.5863C17.5863 10.3118 17.5637 10.2393 17.5166 10.1788L17.4753 10.2109ZM17.534 10.3932H17.4816C17.4816 10.5137 17.4381 10.5964 17.3545 10.6511L17.3831 10.6949L17.4117 10.7388C17.5292 10.6621 17.5863 10.5437 17.5863 10.3932H17.534ZM17.3831 10.6949L17.3545 10.6511C17.2659 10.7089 17.1343 10.741 16.9536 10.741V10.7934V10.8458C17.1444 10.8458 17.2992 10.8123 17.4117 10.7388L17.3831 10.6949ZM16.9536 10.7934V10.741C16.9214 10.741 16.8842 10.7397 16.8417 10.7369L16.8383 10.7892L16.835 10.8415C16.8791 10.8443 16.9187 10.8458 16.9536 10.8458V10.7934ZM16.8383 10.7892L16.8418 10.7369C16.8016 10.7343 16.7598 10.7295 16.7165 10.7228L16.7084 10.7745L16.7003 10.8263C16.7465 10.8335 16.7913 10.8386 16.8349 10.8415L16.8383 10.7892ZM16.7084 10.7745L16.7168 10.7228C16.676 10.7163 16.6392 10.7072 16.6061 10.6957L16.589 10.7452L16.5719 10.7947C16.6114 10.8084 16.6542 10.8188 16.7001 10.8262L16.7084 10.7745ZM16.589 10.7452L16.607 10.696C16.5771 10.6851 16.5592 10.6717 16.5487 10.6581C16.5386 10.6451 16.5324 10.6283 16.5324 10.6048H16.48H16.4277C16.4277 10.6484 16.4397 10.6885 16.4659 10.7223C16.4917 10.7555 16.5282 10.7788 16.571 10.7944L16.589 10.7452ZM16.48 10.6048H16.5324V9.6033H16.48H16.4277V10.6048H16.48ZM16.48 9.6033H16.5324C16.5324 9.58738 16.5367 9.58092 16.5401 9.57748L16.5031 9.54044L16.4661 9.5034C16.4388 9.53068 16.4277 9.56614 16.4277 9.6033H16.48ZM16.5031 9.54044L16.5401 9.57748C16.5486 9.56899 16.5613 9.56088 16.5804 9.55451L16.5639 9.50482L16.5473 9.45513C16.5161 9.46552 16.4883 9.48116 16.4661 9.5034L16.5031 9.54044ZM16.5639 9.50482L16.5813 9.55421C16.6238 9.53919 16.6769 9.52799 16.7411 9.5213L16.7357 9.4692L16.7302 9.4171C16.6604 9.42438 16.5989 9.43692 16.5464 9.45543L16.5639 9.50482ZM16.7357 9.4692L16.741 9.52131C16.8076 9.51451 16.8757 9.51111 16.9452 9.51111V9.45872V9.40634C16.8722 9.40634 16.8006 9.40992 16.7304 9.41709L16.7357 9.4692ZM16.9452 9.45872V9.51111C17.1135 9.51111 17.2354 9.54049 17.3171 9.5929L17.3454 9.54882L17.3737 9.50474C17.2682 9.43702 17.1233 9.40634 16.9452 9.40634V9.45872ZM17.3454 9.54882L17.3174 9.59309C17.3958 9.64266 17.4355 9.71589 17.4355 9.8212H17.4879H17.5402C17.5402 9.68346 17.485 9.57511 17.3734 9.50455L17.3454 9.54882ZM17.4879 9.8212H17.4355C17.4355 9.87727 17.4194 9.92246 17.3888 9.95971L17.4292 9.99301L17.4696 10.0263C17.5172 9.96858 17.5402 9.89923 17.5402 9.8212H17.4879ZM17.4292 9.99301L17.3888 9.95971C17.3575 9.99768 17.3096 10.0293 17.2408 10.0523L17.2574 10.102L17.2739 10.1517C17.356 10.1243 17.4227 10.0833 17.4696 10.0263L17.4292 9.99301ZM17.2574 10.102L17.2405 10.0524C17.1735 10.0751 17.0894 10.0873 16.9871 10.0873V10.1397V10.1921C17.0971 10.1921 17.1932 10.1791 17.2742 10.1516L17.2574 10.102ZM16.9871 10.1397L17.0392 10.1342L17.0245 9.99385L16.9724 9.9993L16.9203 10.0047L16.935 10.1451L16.9871 10.1397ZM16.9724 9.9993V10.0517C17.0447 10.0517 17.1088 10.0377 17.1546 9.99987L17.1212 9.95949L17.0878 9.9191C17.0693 9.93439 17.0342 9.94692 16.9724 9.94692V9.9993ZM17.1212 9.95949L17.1546 9.99987C17.2009 9.96161 17.2218 9.90785 17.2218 9.84634H17.1694H17.117C17.117 9.88262 17.1058 9.90428 17.0878 9.9191L17.1212 9.95949ZM17.1694 9.84634H17.2218C17.2218 9.78309 17.1944 9.73096 17.1419 9.6959L17.1128 9.73949L17.0838 9.78307C17.1066 9.7983 17.117 9.8174 17.117 9.84634H17.1694ZM17.1128 9.73949L17.1426 9.69642C17.0934 9.66235 17.0255 9.64939 16.9473 9.64939V9.70177V9.75415C17.0171 9.75415 17.0596 9.76634 17.083 9.78255L17.1128 9.73949ZM16.9473 9.70177V9.64939C16.9189 9.64939 16.8893 9.65088 16.8585 9.65382L16.8635 9.70596L16.8684 9.75811C16.8963 9.75545 16.9226 9.75415 16.9473 9.75415V9.70177ZM16.8635 9.70596L16.861 9.65364C16.83 9.65512 16.8025 9.65813 16.7792 9.66313L16.7901 9.71434L16.8011 9.76556C16.8169 9.76218 16.8383 9.7596 16.866 9.75828L16.8635 9.70596ZM16.7901 9.71434H16.7378V10.5294H16.7901H16.8425V9.71434H16.7901ZM16.7901 10.5294L16.7781 10.5804C16.8051 10.5867 16.8365 10.5912 16.8717 10.5942L16.876 10.542L16.8804 10.4898C16.8486 10.4871 16.8226 10.4832 16.8021 10.4784L16.7901 10.5294ZM16.876 10.542L16.8719 10.5942C16.908 10.5971 16.9422 10.5985 16.9745 10.5985V10.5462V10.4938C16.9454 10.4938 16.9139 10.4924 16.8802 10.4897L16.876 10.542ZM16.9745 10.5462V10.5985C17.0504 10.5985 17.1171 10.5842 17.1702 10.5506L17.1421 10.5063L17.1141 10.4621C17.0834 10.4816 17.0383 10.4938 16.9745 10.4938V10.5462ZM17.1421 10.5063L17.1705 10.5504C17.2302 10.5118 17.2595 10.4525 17.2595 10.3806H17.2071H17.1547C17.1547 10.4205 17.1407 10.445 17.1137 10.4623L17.1421 10.5063ZM17.2071 10.3806H17.2595C17.2595 10.3143 17.2359 10.2572 17.1824 10.2202L17.1526 10.2633L17.1228 10.3064C17.142 10.3197 17.1547 10.3408 17.1547 10.3806H17.2071ZM17.1526 10.2633L17.1824 10.2202C17.1333 10.1862 17.0663 10.1732 16.9892 10.1732V10.2256V10.278C17.0574 10.278 17.0993 10.2901 17.1228 10.3064L17.1526 10.2633ZM18.9153 10.4938L18.8697 10.4679L18.8696 10.4681L18.9153 10.4938ZM18.6827 10.7201L18.6585 10.6736L18.6582 10.6737L18.6827 10.7201ZM17.7859 10.4938L17.7401 10.5192L17.7403 10.5195L17.7859 10.4938ZM17.788 9.75834L17.8334 9.78454L17.8335 9.78426L17.788 9.75834ZM18.0206 9.53206L18.0445 9.57864L18.0451 9.57837L18.0206 9.53206ZM18.6806 9.53206L18.6561 9.57837L18.6569 9.57878L18.6806 9.53206ZM18.9153 9.75834L18.8697 9.78426L18.8699 9.78454L18.9153 9.75834ZM18.5842 9.81911L18.5437 9.85232L18.5441 9.8528L18.5842 9.81911ZM18.1191 9.81911L18.1588 9.8532L18.1592 9.8528L18.1191 9.81911ZM18.117 10.4351L18.0765 10.4683L18.0772 10.4692L18.117 10.4351ZM18.5842 10.4351L18.5441 10.4014L18.544 10.4015L18.5842 10.4351ZM19.0012 10.125H18.9488C18.9488 10.2635 18.9215 10.377 18.8697 10.4679L18.9153 10.4938L18.9608 10.5197C19.0236 10.4094 19.0535 10.2771 19.0535 10.125H19.0012ZM18.9153 10.4938L18.8696 10.4681C18.8186 10.5586 18.7485 10.6267 18.6585 10.6736L18.6827 10.7201L18.7069 10.7665C18.8152 10.71 18.9001 10.6273 18.9609 10.5195L18.9153 10.4938ZM18.6827 10.7201L18.6582 10.6737C18.5689 10.721 18.4664 10.7452 18.3495 10.7452V10.7976V10.85C18.4813 10.85 18.6009 10.8225 18.7072 10.7664L18.6827 10.7201ZM18.3495 10.7976V10.7452C18.2327 10.7452 18.1302 10.721 18.0409 10.6737L18.0164 10.7201L17.9919 10.7664C18.0981 10.8225 18.2178 10.85 18.3495 10.85V10.7976ZM18.0164 10.7201L18.0409 10.6737C17.9523 10.6269 17.8827 10.5588 17.8316 10.4681L17.7859 10.4938L17.7403 10.5195C17.8009 10.6271 17.885 10.7098 17.9919 10.7664L18.0164 10.7201ZM17.7859 10.4938L17.8317 10.4683C17.7812 10.3773 17.7545 10.2637 17.7545 10.125H17.7021H17.6497C17.6497 10.2769 17.6789 10.4091 17.7401 10.5192L17.7859 10.4938ZM17.7021 10.125H17.7545C17.7545 9.98651 17.7818 9.87388 17.8334 9.78454L17.788 9.75834L17.7427 9.73215C17.6797 9.84116 17.6497 9.97297 17.6497 10.125H17.7021ZM17.788 9.75834L17.8335 9.78426C17.8861 9.69204 17.9563 9.62403 18.0445 9.57864L18.0206 9.53206L17.9966 9.48548C17.8893 9.54066 17.8045 9.62351 17.7425 9.73242L17.788 9.75834ZM18.0206 9.53206L18.0451 9.57837C18.1346 9.53106 18.2357 9.50692 18.3495 9.50692V9.45453V9.40215C18.2203 9.40215 18.1022 9.4297 17.9961 9.48575L18.0206 9.53206ZM18.3495 9.45453V9.50692C18.4649 9.50692 18.5667 9.5311 18.6561 9.57837L18.6806 9.53206L18.7051 9.48575C18.5989 9.42965 18.48 9.40215 18.3495 9.40215V9.45453ZM18.6806 9.53206L18.6569 9.57878C18.7465 9.62422 18.8173 9.69223 18.8697 9.78426L18.9153 9.75834L18.9608 9.73242C18.8986 9.62331 18.813 9.54046 18.7043 9.48534L18.6806 9.53206ZM18.9153 9.75834L18.8699 9.78454C18.9215 9.87388 18.9488 9.98651 18.9488 10.125H19.0012H19.0535C19.0535 9.97297 19.0236 9.84116 18.9606 9.73215L18.9153 9.75834ZM18.6722 10.125H18.7246C18.7246 9.98422 18.6939 9.86826 18.6243 9.78541L18.5842 9.81911L18.5441 9.8528C18.5918 9.90964 18.6198 9.99761 18.6198 10.125H18.6722ZM18.5842 9.81911L18.6247 9.78589C18.5564 9.70263 18.4627 9.66196 18.3495 9.66196V9.71434V9.76672C18.4348 9.76672 18.4974 9.7959 18.5437 9.85232L18.5842 9.81911ZM18.3495 9.71434V9.66196C18.2398 9.66196 18.148 9.70317 18.079 9.78541L18.1191 9.81911L18.1592 9.8528C18.2074 9.79536 18.2693 9.76672 18.3495 9.76672V9.71434ZM18.1191 9.81911L18.0793 9.78502C18.0093 9.86673 17.9787 9.98309 17.9787 10.125H18.0311H18.0834C18.0834 9.99595 18.1115 9.90837 18.1588 9.85319L18.1191 9.81911ZM18.0311 10.125H17.9787C17.9787 10.268 18.0084 10.3853 18.0765 10.4683L18.117 10.4351L18.1575 10.4019C18.111 10.3452 18.0834 10.2558 18.0834 10.125H18.0311ZM18.117 10.4351L18.0772 10.4692C18.1467 10.5503 18.24 10.5902 18.3516 10.5902V10.5378V10.4854C18.2677 10.4854 18.2045 10.4568 18.1567 10.401L18.117 10.4351ZM18.3516 10.5378V10.5902C18.4632 10.5902 18.5561 10.5503 18.6244 10.4687L18.5842 10.4351L18.544 10.4015C18.4977 10.4568 18.4356 10.4854 18.3516 10.4854V10.5378ZM18.5842 10.4351L18.6243 10.4688C18.694 10.3858 18.7246 10.2683 18.7246 10.125H18.6722H18.6198C18.6198 10.2555 18.5917 10.3447 18.5441 10.4014L18.5842 10.4351Z" fill="url(#paint13_linear_10_29034)" style="mix-blend-mode:color-burn" mask="url(#path-24-outside-3_10_29034)"/>
</g>
<defs>
<filter id="filter0_dddd_10_29034" x="2.0409" y="4.7811" width="27.0295" height="32.7904" filterUnits="userSpaceOnUse" color-interpolation-filters="sRGB">
<feFlood flood-opacity="0" result="BackgroundImageFix"/>
<feColorMatrix in="SourceAlpha" type="matrix" values="0 0 0 0 0 0 0 0 0 0 0 0 0 0 0 0 0 0 127 0" result="hardAlpha"/>
<feOffset dy="0.52381"/>
<feGaussianBlur stdDeviation="0.57619"/>
<feColorMatrix type="matrix" values="0 0 0 0 0 0 0 0 0 0 0 0 0 0 0 0 0 0 0.24 0"/>
<feBlend mode="normal" in2="BackgroundImageFix" result="effect1_dropShadow_10_29034"/>
<feColorMatrix in="SourceAlpha" type="matrix" values="0 0 0 0 0 0 0 0 0 0 0 0 0 0 0 0 0 0 127 0" result="hardAlpha"/>
<feOffset dy="2.2"/>
<feGaussianBlur stdDeviation="1.1"/>
<feColorMatrix type="matrix" values="0 0 0 0 0 0 0 0 0 0 0 0 0 0 0 0 0 0 0.21 0"/>
<feBlend mode="normal" in2="effect1_dropShadow_10_29034" result="effect2_dropShadow_10_29034"/>
<feColorMatrix in="SourceAlpha" type="matrix" values="0 0 0 0 0 0 0 0 0 0 0 0 0 0 0 0 0 0 127 0" result="hardAlpha"/>
<feOffset dy="4.81905"/>
<feGaussianBlur stdDeviation="1.46667"/>
<feColorMatrix type="matrix" values="0 0 0 0 0 0 0 0 0 0 0 0 0 0 0 0 0 0 0.12 0"/>
<feBlend mode="normal" in2="effect2_dropShadow_10_29034" result="effect3_dropShadow_10_29034"/>
<feColorMatrix in="SourceAlpha" type="matrix" values="0 0 0 0 0 0 0 0 0 0 0 0 0 0 0 0 0 0 127 0" result="hardAlpha"/>
<feOffset dy="8.59048"/>
<feGaussianBlur stdDeviation="1.72857"/>
<feColorMatrix type="matrix" values="0 0 0 0 0 0 0 0 0 0 0 0 0 0 0 0 0 0 0.04 0"/>
<feBlend mode="normal" in2="effect3_dropShadow_10_29034" result="effect4_dropShadow_10_29034"/>
<feBlend mode="normal" in="SourceGraphic" in2="effect4_dropShadow_10_29034" result="shape"/>
</filter>
<filter id="filter1_d_10_29034" x="4.658" y="4.78085" width="21.7895" height="21.7904" filterUnits="userSpaceOnUse" color-interpolation-filters="sRGB">
<feFlood flood-opacity="0" result="BackgroundImageFix"/>
<feColorMatrix in="SourceAlpha" type="matrix" values="0 0 0 0 0 0 0 0 0 0 0 0 0 0 0 0 0 0 127 0" result="hardAlpha"/>
<feOffset dy="0.209524"/>
<feGaussianBlur stdDeviation="0.419048"/>
<feColorMatrix type="matrix" values="0 0 0 0 0 0 0 0 0 0 0 0 0 0 0 0 0 0 0.16 0"/>
<feBlend mode="color-burn" in2="BackgroundImageFix" result="effect1_dropShadow_10_29034"/>
<feBlend mode="normal" in="SourceGraphic" in2="effect1_dropShadow_10_29034" result="shape"/>
</filter>
<filter id="filter2_dd_10_29034" x="3.90692" y="18.5906" width="22.6295" height="6.28577" filterUnits="userSpaceOnUse" color-interpolation-filters="sRGB">
<feFlood flood-opacity="0" result="BackgroundImageFix"/>
<feColorMatrix in="SourceAlpha" type="matrix" values="0 0 0 0 0 0 0 0 0 0 0 0 0 0 0 0 0 0 127 0" result="hardAlpha"/>
<feOffset dy="0.419048"/>
<feGaussianBlur stdDeviation="0.628571"/>
<feColorMatrix type="matrix" values="0 0 0 0 0 0 0 0 0 0 0 0 0 0 0 0 0 0 0.16 0"/>
<feBlend mode="normal" in2="BackgroundImageFix" result="effect1_dropShadow_10_29034"/>
<feColorMatrix in="SourceAlpha" type="matrix" values="0 0 0 0 0 0 0 0 0 0 0 0 0 0 0 0 0 0 127 0" result="hardAlpha"/>
<feOffset dy="0.209524"/>
<feGaussianBlur stdDeviation="0.209524"/>
<feColorMatrix type="matrix" values="0 0 0 0 0 0 0 0 0 0 0 0 0 0 0 0 0 0 0.24 0"/>
<feBlend mode="normal" in2="effect1_dropShadow_10_29034" result="effect2_dropShadow_10_29034"/>
<feBlend mode="normal" in="SourceGraphic" in2="effect2_dropShadow_10_29034" result="shape"/>
</filter>
<filter id="filter3_i_10_29034" x="19.2949" y="20.3213" width="1.91016" height="1.94021" filterUnits="userSpaceOnUse" color-interpolation-filters="sRGB">
<feFlood flood-opacity="0" result="BackgroundImageFix"/>
<feBlend mode="normal" in="SourceGraphic" in2="BackgroundImageFix" result="shape"/>
<feColorMatrix in="SourceAlpha" type="matrix" values="0 0 0 0 0 0 0 0 0 0 0 0 0 0 0 0 0 0 127 0" result="hardAlpha"/>
<feOffset dy="0.104762"/>
<feGaussianBlur stdDeviation="0.104762"/>
<feComposite in2="hardAlpha" operator="arithmetic" k2="-1" k3="1"/>
<feColorMatrix type="matrix" values="0 0 0 0 0 0 0 0 0 0 0 0 0 0 0 0 0 0 0.24 0"/>
<feBlend mode="darken" in2="shape" result="effect1_innerShadow_10_29034"/>
</filter>
<filter id="filter4_i_10_29034" x="16.7812" y="20.3213" width="1.91016" height="1.94021" filterUnits="userSpaceOnUse" color-interpolation-filters="sRGB">
<feFlood flood-opacity="0" result="BackgroundImageFix"/>
<feBlend mode="normal" in="SourceGraphic" in2="BackgroundImageFix" result="shape"/>
<feColorMatrix in="SourceAlpha" type="matrix" values="0 0 0 0 0 0 0 0 0 0 0 0 0 0 0 0 0 0 127 0" result="hardAlpha"/>
<feOffset dy="0.104762"/>
<feGaussianBlur stdDeviation="0.104762"/>
<feComposite in2="hardAlpha" operator="arithmetic" k2="-1" k3="1"/>
<feColorMatrix type="matrix" values="0 0 0 0 0 0 0 0 0 0 0 0 0 0 0 0 0 0 0.24 0"/>
<feBlend mode="darken" in2="shape" result="effect1_innerShadow_10_29034"/>
</filter>
<filter id="filter5_i_10_29034" x="14.2656" y="20.3213" width="1.91016" height="1.94021" filterUnits="userSpaceOnUse" color-interpolation-filters="sRGB">
<feFlood flood-opacity="0" result="BackgroundImageFix"/>
<feBlend mode="normal" in="SourceGraphic" in2="BackgroundImageFix" result="shape"/>
<feColorMatrix in="SourceAlpha" type="matrix" values="0 0 0 0 0 0 0 0 0 0 0 0 0 0 0 0 0 0 127 0" result="hardAlpha"/>
<feOffset dy="0.104762"/>
<feGaussianBlur stdDeviation="0.104762"/>
<feComposite in2="hardAlpha" operator="arithmetic" k2="-1" k3="1"/>
<feColorMatrix type="matrix" values="0 0 0 0 0 0 0 0 0 0 0 0 0 0 0 0 0 0 0.24 0"/>
<feBlend mode="darken" in2="shape" result="effect1_innerShadow_10_29034"/>
</filter>
<filter id="filter6_i_10_29034" x="11.752" y="20.3213" width="1.91016" height="1.94021" filterUnits="userSpaceOnUse" color-interpolation-filters="sRGB">
<feFlood flood-opacity="0" result="BackgroundImageFix"/>
<feBlend mode="normal" in="SourceGraphic" in2="BackgroundImageFix" result="shape"/>
<feColorMatrix in="SourceAlpha" type="matrix" values="0 0 0 0 0 0 0 0 0 0 0 0 0 0 0 0 0 0 127 0" result="hardAlpha"/>
<feOffset dy="0.104762"/>
<feGaussianBlur stdDeviation="0.104762"/>
<feComposite in2="hardAlpha" operator="arithmetic" k2="-1" k3="1"/>
<feColorMatrix type="matrix" values="0 0 0 0 0 0 0 0 0 0 0 0 0 0 0 0 0 0 0.24 0"/>
<feBlend mode="darken" in2="shape" result="effect1_innerShadow_10_29034"/>
</filter>
<filter id="filter7_d_10_29034" x="7.9284" y="19.2212" width="4.52991" height="4.45447" filterUnits="userSpaceOnUse" color-interpolation-filters="sRGB">
<feFlood flood-opacity="0" result="BackgroundImageFix"/>
<feColorMatrix in="SourceAlpha" type="matrix" values="0 0 0 0 0 0 0 0 0 0 0 0 0 0 0 0 0 0 127 0" result="hardAlpha"/>
<feOffset dy="0.209524"/>
<feGaussianBlur stdDeviation="0.628571"/>
<feColorMatrix type="matrix" values="0 0 0 0 0 0 0 0 0 0 0 0 0 0 0 0 0 0 0.12 0"/>
<feBlend mode="plus-darker" in2="BackgroundImageFix" result="effect1_dropShadow_10_29034"/>
<feBlend mode="normal" in="SourceGraphic" in2="effect1_dropShadow_10_29034" result="shape"/>
</filter>
<filter id="filter8_d_10_29034" x="8.03973" y="11.23" width="14.7994" height="7.95765" filterUnits="userSpaceOnUse" color-interpolation-filters="sRGB">
<feFlood flood-opacity="0" result="BackgroundImageFix"/>
<feColorMatrix in="SourceAlpha" type="matrix" values="0 0 0 0 0 0 0 0 0 0 0 0 0 0 0 0 0 0 127 0" result="hardAlpha"/>
<feOffset dy="0.209524"/>
<feGaussianBlur stdDeviation="0.628571"/>
<feColorMatrix type="matrix" values="0 0 0 0 0 0 0 0 0 0 0 0 0 0 0 0 0 0 0.12 0"/>
<feBlend mode="plus-darker" in2="BackgroundImageFix" result="effect1_dropShadow_10_29034"/>
<feBlend mode="normal" in="SourceGraphic" in2="effect1_dropShadow_10_29034" result="shape"/>
</filter>
<filter id="filter9_d_10_29034" x="10.7975" y="8.35448" width="9.51233" height="3.96204" filterUnits="userSpaceOnUse" color-interpolation-filters="sRGB">
<feFlood flood-opacity="0" result="BackgroundImageFix"/>
<feColorMatrix in="SourceAlpha" type="matrix" values="0 0 0 0 0 0 0 0 0 0 0 0 0 0 0 0 0 0 127 0" result="hardAlpha"/>
<feOffset dy="0.209524"/>
<feGaussianBlur stdDeviation="0.628571"/>
<feColorMatrix type="matrix" values="0 0 0 0 0 0 0 0 0 0 0 0 0 0 0 0 0 0 0.12 0"/>
<feBlend mode="plus-darker" in2="BackgroundImageFix" result="effect1_dropShadow_10_29034"/>
<feBlend mode="normal" in="SourceGraphic" in2="effect1_dropShadow_10_29034" result="shape"/>
</filter>
<linearGradient id="paint0_linear_10_29034" x1="0.888672" y1="0.800049" x2="0.888672" y2="30.1334" gradientUnits="userSpaceOnUse">
<stop stop-color="#016EE4"/>
<stop offset="1" stop-color="#003FE0"/>
</linearGradient>
<linearGradient id="paint1_linear_10_29034" x1="15.5553" y1="4.12398" x2="15.5553" y2="26.6574" gradientUnits="userSpaceOnUse">
<stop stop-color="white"/>
<stop offset="1" stop-color="white" stop-opacity="0"/>
</linearGradient>
<radialGradient id="paint2_radial_10_29034" cx="0" cy="0" r="1" gradientUnits="userSpaceOnUse" gradientTransform="translate(15.5553 10.5963) rotate(90) scale(14.8625 11.2764)">
<stop stop-color="white"/>
<stop offset="1" stop-color="white" stop-opacity="0"/>
</radialGradient>
<linearGradient id="paint3_linear_10_29034" x1="0.886719" y1="0.800049" x2="0.886719" y2="30.1334" gradientUnits="userSpaceOnUse">
<stop stop-color="#016EE4"/>
<stop offset="1" stop-color="#003FE0"/>
</linearGradient>
<linearGradient id="paint4_linear_10_29034" x1="15.5534" y1="4.12398" x2="15.5534" y2="26.6574" gradientUnits="userSpaceOnUse">
<stop stop-color="white"/>
<stop offset="1" stop-color="white" stop-opacity="0"/>
</linearGradient>
<radialGradient id="paint5_radial_10_29034" cx="0" cy="0" r="1" gradientUnits="userSpaceOnUse" gradientTransform="translate(15.5534 10.5963) rotate(90) scale(14.8625 11.2764)">
<stop stop-color="white"/>
<stop offset="1" stop-color="white" stop-opacity="0"/>
</radialGradient>
<linearGradient id="paint6_linear_10_29034" x1="0.886719" y1="0.800049" x2="0.886719" y2="30.1334" gradientUnits="userSpaceOnUse">
<stop offset="0.135095" stop-color="white"/>
<stop offset="0.877908" stop-color="white" stop-opacity="0.01"/>
</linearGradient>
<linearGradient id="paint7_linear_10_29034" x1="15.5532" y1="5.40942" x2="15.5532" y2="25.5237" gradientUnits="userSpaceOnUse">
<stop stop-color="white"/>
<stop offset="1" stop-color="#999999"/>
</linearGradient>
<linearGradient id="paint8_linear_10_29034" x1="15.2212" y1="19.4287" x2="15.2212" y2="23.2001" gradientUnits="userSpaceOnUse">
<stop stop-opacity="0"/>
<stop offset="1" stop-opacity="0.16"/>
</linearGradient>
<linearGradient id="paint9_linear_10_29034" x1="15.2212" y1="19.4287" x2="15.2212" y2="23.2001" gradientUnits="userSpaceOnUse">
<stop stop-color="white"/>
<stop offset="1" stop-color="white" stop-opacity="0"/>
</linearGradient>
<radialGradient id="paint10_radial_10_29034" cx="0" cy="0" r="1" gradientUnits="userSpaceOnUse" gradientTransform="translate(15.2212 20.0868) rotate(90) scale(3.1133 10.0571)">
<stop stop-color="white"/>
<stop offset="1" stop-color="white" stop-opacity="0"/>
</radialGradient>
<linearGradient id="paint11_linear_10_29034" x1="10.1932" y1="20.3213" x2="10.1932" y2="22.1566" gradientUnits="userSpaceOnUse">
<stop stop-color="#DFDFDF"/>
<stop offset="1" stop-color="#A9A9A9"/>
</linearGradient>
<linearGradient id="paint12_linear_10_29034" x1="15.5548" y1="11.543" x2="15.5548" y2="19.543" gradientUnits="userSpaceOnUse">
<stop stop-color="#DFDFDF"/>
<stop offset="1" stop-color="#A9A9A9"/>
</linearGradient>
<linearGradient id="paint13_linear_10_29034" x1="15.5548" y1="8.76196" x2="15.5548" y2="11.762" gradientUnits="userSpaceOnUse">
<stop stop-color="#DFDFDF"/>
<stop offset="1" stop-color="#A9A9A9"/>
</linearGradient>
</defs>
</svg>
