<svg width="30" height="38" viewBox="0 0 30 38" fill="none" xmlns="http://www.w3.org/2000/svg">
<g filter="url(#filter0_dddd_10_28990)">
<path d="M14.5064 4.56676C15.1546 4.19248 15.9533 4.19248 16.6016 4.56676L24.1234 8.90945C24.7716 9.28373 25.171 9.97542 25.171 10.724V19.4094C25.171 20.1579 24.7716 20.8496 24.1234 21.2239L16.6016 25.5666C15.9533 25.9409 15.1546 25.9409 14.5064 25.5666L6.98459 21.2239C6.33632 20.8496 5.93697 20.1579 5.93697 19.4094V10.724C5.93697 9.97542 6.33632 9.28373 6.98459 8.90945L14.5064 4.56676Z" fill="white"/>
</g>
<mask id="mask0_10_28990" style="mask-type:alpha" maskUnits="userSpaceOnUse" x="5" y="4" width="21" height="22">
<path d="M14.5064 4.56676C15.1546 4.19248 15.9533 4.19248 16.6016 4.56676L24.1234 8.90945C24.7716 9.28373 25.171 9.97542 25.171 10.724V19.4094C25.171 20.1579 24.7716 20.8496 24.1234 21.2239L16.6016 25.5666C15.9533 25.9409 15.1546 25.9409 14.5064 25.5666L6.98459 21.2239C6.33632 20.8496 5.93697 20.1579 5.93697 19.4094V10.724C5.93697 9.97542 6.33632 9.28373 6.98459 8.90945L14.5064 4.56676Z" fill="black"/>
</mask>
<g mask="url(#mask0_10_28990)">
<mask id="mask1_10_28990" style="mask-type:alpha" maskUnits="userSpaceOnUse" x="5" y="4" width="21" height="22">
<path d="M14.5064 4.56676C15.1546 4.19248 15.9533 4.19248 16.6016 4.56676L24.1234 8.90945C24.7716 9.28373 25.171 9.97542 25.171 10.724V19.4094C25.171 20.1579 24.7716 20.8496 24.1234 21.2239L16.6016 25.5666C15.9533 25.9409 15.1546 25.9409 14.5064 25.5666L6.98459 21.2239C6.33632 20.8496 5.93697 20.1579 5.93697 19.4094V10.724C5.93697 9.97542 6.33632 9.28373 6.98459 8.90945L14.5064 4.56676Z" fill="url(#paint0_linear_10_28990)"/>
</mask>
<g mask="url(#mask1_10_28990)">
<rect x="0.888672" y="0.399902" width="29.3333" height="29.3333" fill="#F8D260"/>
<rect x="0.888672" y="0.399902" width="29.3333" height="29.3333" fill="url(#paint1_linear_10_28990)" fill-opacity="0.6" style="mix-blend-mode:overlay"/>
<rect x="0.888672" y="0.399902" width="29.3333" height="29.3333" fill="url(#paint2_radial_10_28990)" fill-opacity="0.6" style="mix-blend-mode:overlay"/>
<rect x="0.888672" y="0.399902" width="29.3333" height="29.3333" fill="black" fill-opacity="0.16" style="mix-blend-mode:overlay"/>
<rect x="0.888672" y="0.399902" width="29.3333" height="29.3333" fill="black" fill-opacity="0.12" style="mix-blend-mode:darken"/>
</g>
<g filter="url(#filter1_d_10_28990)">
<mask id="mask2_10_28990" style="mask-type:alpha" maskUnits="userSpaceOnUse" x="5" y="4" width="21" height="22">
<path d="M15.1211 4.33159C15.408 4.27067 15.7052 4.27064 15.9922 4.33159C16.3167 4.40063 16.623 4.5768 17.2334 4.92924L23.498 8.54643C24.1083 8.89875 24.4138 9.07533 24.6357 9.32182C24.832 9.53981 24.9806 9.79681 25.0713 10.0757C25.1738 10.3913 25.1738 10.745 25.1738 11.4498V18.6831L25.1719 19.1509C25.1671 19.5618 25.148 19.8197 25.0713 20.0562C24.9806 20.3352 24.832 20.593 24.6357 20.8111L24.5479 20.9009C24.3324 21.1045 24.0316 21.2784 23.498 21.5865L17.2334 25.2037L16.8271 25.4361C16.4689 25.6374 16.2354 25.7495 15.9922 25.8013L15.7754 25.8355C15.6301 25.8507 15.4832 25.8507 15.3379 25.8355L15.1211 25.8013C14.8777 25.7496 14.6448 25.6376 14.2861 25.4361L13.8809 25.2037L7.61621 21.5865C7.08197 21.278 6.78097 21.1047 6.56543 20.9009L6.47852 20.8111C6.28209 20.5929 6.13271 20.3354 6.04199 20.0562C5.96527 19.8197 5.94621 19.5619 5.94141 19.1509L5.93945 18.6831V11.4498C5.93945 10.745 5.93947 10.3913 6.04199 10.0757C6.11008 9.86646 6.21102 9.66905 6.33984 9.49174L6.47852 9.32182C6.64495 9.13717 6.8585 8.99138 7.21191 8.78178L7.61621 8.54643L13.8809 4.92924C14.4148 4.62098 14.7159 4.44758 15 4.36284L15.1211 4.33159ZM19.0557 23.1382H12.0576C12.0305 23.1382 12.0039 23.1373 11.9785 23.1373L14.2998 24.4771C14.9593 24.8579 15.132 24.9462 15.2959 24.981C15.468 25.0175 15.6462 25.0176 15.8184 24.981C15.9821 24.9461 16.1557 24.8574 16.8145 24.4771L19.1357 23.1363L19.0557 23.1382ZM16.7393 22.2994L19.0557 22.3003C19.5348 22.3003 19.588 22.2906 19.6211 22.2798C19.6766 22.2617 19.7281 22.232 19.7715 22.1929C19.7974 22.1696 19.8321 22.1276 20.0713 21.7134L21.2285 19.7076L16.7393 22.2994ZM11.042 21.7124C11.2806 22.1258 11.3159 22.1686 11.3418 22.1919C11.3852 22.231 11.4367 22.2607 11.4922 22.2789C11.5253 22.2896 11.5796 22.2994 12.0586 22.2994H14.3701L9.88574 19.7095L11.042 21.7124ZM6.77832 18.6831C6.77832 19.4442 6.78815 19.6381 6.83984 19.7974C6.89427 19.9649 6.98277 20.1197 7.10059 20.2505C7.21273 20.375 7.37574 20.4802 8.03516 20.8609L10.3584 22.2017L10.3164 22.1314L6.81738 16.0718C6.80369 16.0481 6.79115 16.0247 6.77832 16.0025V18.6831ZM24.2959 16.0718L20.7979 22.1324L20.7559 22.2007L23.0791 20.8609C23.7375 20.4808 23.9006 20.3749 24.0127 20.2505C24.1304 20.1197 24.22 19.9647 24.2744 19.7974C24.326 19.6381 24.3359 19.4438 24.3359 18.6831V16.0005C24.3228 16.0233 24.31 16.0475 24.2959 16.0718ZM22.4121 17.6587L23.5703 15.6529C23.809 15.2394 23.8267 15.1879 23.834 15.1539C23.8462 15.0965 23.8472 15.0364 23.835 14.979C23.8276 14.945 23.8089 14.8923 23.5703 14.479L22.4121 12.4732V17.6587ZM7.54395 14.48C7.30439 14.8949 7.28558 14.9459 7.27832 14.98C7.26627 15.037 7.26634 15.0959 7.27832 15.1529C7.28557 15.187 7.30337 15.2379 7.54297 15.6529L8.69922 17.6548V12.4781L7.54395 14.48ZM20.7979 8.00053L24.2959 14.0601L24.3359 14.1314V11.4498C24.3359 10.6892 24.3261 10.4948 24.2744 10.3355C24.22 10.1681 24.1305 10.0132 24.0127 9.88237C23.9006 9.75793 23.738 9.65241 23.0791 9.27202L20.7559 7.93022C20.7691 7.95306 20.7837 7.9761 20.7979 8.00053ZM8.03516 9.27202C7.37648 9.6523 7.21272 9.75804 7.10059 9.88237C6.98292 10.0131 6.89428 10.1682 6.83984 10.3355C6.78815 10.4948 6.77832 10.689 6.77832 11.4498V14.1294C6.79091 14.1076 6.80297 14.0843 6.81641 14.0611L10.3164 8.00151C10.3306 7.97689 10.3451 7.95323 10.3584 7.93022L8.03516 9.27202ZM21.2295 10.4253L20.0713 8.41948C19.8319 8.00486 19.7974 7.96331 19.7715 7.93999C19.728 7.90091 19.6757 7.87215 19.6201 7.85405C19.587 7.84331 19.5336 7.83355 19.0557 7.83354H16.7412L21.2295 10.4253ZM12.0576 7.83354C11.58 7.83354 11.5263 7.84332 11.4932 7.85405C11.4376 7.87212 11.3863 7.90192 11.3428 7.94096C11.3169 7.96428 11.2817 8.00523 11.042 8.42045L9.88477 10.4234L14.3701 7.83354H12.0576ZM15.8184 5.15092C15.6463 5.11436 15.4679 5.11449 15.2959 5.15092C15.132 5.18576 14.9589 5.27434 14.2998 5.65483L11.9746 6.99663C12.0016 6.9966 12.0297 6.99565 12.0586 6.99565L19.0557 6.99467C19.0835 6.99468 19.1106 6.99563 19.1367 6.99565L16.8145 5.65483C16.1553 5.27427 15.9822 5.18582 15.8184 5.15092Z" fill="black"/>
</mask>
<g mask="url(#mask2_10_28990)">
<rect x="0.888672" y="0.399902" width="29.3333" height="29.3333" fill="#F8D260"/>
<rect x="0.888672" y="0.399902" width="29.3333" height="29.3333" fill="url(#paint3_linear_10_28990)" fill-opacity="0.6" style="mix-blend-mode:overlay"/>
<rect x="0.888672" y="0.399902" width="29.3333" height="29.3333" fill="url(#paint4_radial_10_28990)" fill-opacity="0.6" style="mix-blend-mode:overlay"/>
<g style="mix-blend-mode:soft-light">
<path fill-rule="evenodd" clip-rule="evenodd" d="M0.888672 0.399902H18.4887L12.8717 29.7332H0.888672V0.399902Z" fill="url(#paint5_linear_10_28990)" style="mix-blend-mode:lighten"/>
</g>
<g style="mix-blend-mode:soft-light">
<mask id="path-11-inside-1_10_28990" fill="white">
<path d="M15.1211 4.33159C15.408 4.27067 15.7052 4.27064 15.9922 4.33159C16.3167 4.40063 16.623 4.5768 17.2334 4.92924L23.498 8.54643C24.1083 8.89875 24.4138 9.07533 24.6357 9.32182C24.832 9.53981 24.9806 9.79681 25.0713 10.0757C25.1738 10.3913 25.1738 10.745 25.1738 11.4498V18.6831L25.1719 19.1509C25.1671 19.5618 25.148 19.8197 25.0713 20.0562C24.9806 20.3352 24.832 20.593 24.6357 20.8111L24.5479 20.9009C24.3324 21.1045 24.0316 21.2784 23.498 21.5865L17.2334 25.2037L16.8271 25.4361C16.4689 25.6374 16.2354 25.7495 15.9922 25.8013L15.7754 25.8355C15.6301 25.8507 15.4832 25.8507 15.3379 25.8355L15.1211 25.8013C14.8777 25.7496 14.6448 25.6376 14.2861 25.4361L13.8809 25.2037L7.61621 21.5865C7.08197 21.278 6.78097 21.1047 6.56543 20.9009L6.47852 20.8111C6.28209 20.5929 6.13271 20.3354 6.04199 20.0562C5.96527 19.8197 5.94621 19.5619 5.94141 19.1509L5.93945 18.6831V11.4498C5.93945 10.745 5.93947 10.3913 6.04199 10.0757C6.11008 9.86646 6.21102 9.66905 6.33984 9.49174L6.47852 9.32182C6.64495 9.13717 6.8585 8.99138 7.21191 8.78178L7.61621 8.54643L13.8809 4.92924C14.4148 4.62098 14.7159 4.44758 15 4.36284L15.1211 4.33159ZM19.0557 23.1382H12.0576C12.0305 23.1382 12.0039 23.1373 11.9785 23.1373L14.2998 24.4771C14.9593 24.8579 15.132 24.9462 15.2959 24.981C15.468 25.0175 15.6462 25.0176 15.8184 24.981C15.9821 24.9461 16.1557 24.8574 16.8145 24.4771L19.1357 23.1363L19.0557 23.1382ZM16.7393 22.2994L19.0557 22.3003C19.5348 22.3003 19.588 22.2906 19.6211 22.2798C19.6766 22.2617 19.7281 22.232 19.7715 22.1929C19.7974 22.1696 19.8321 22.1276 20.0713 21.7134L21.2285 19.7076L16.7393 22.2994ZM11.042 21.7124C11.2806 22.1258 11.3159 22.1686 11.3418 22.1919C11.3852 22.231 11.4367 22.2607 11.4922 22.2789C11.5253 22.2896 11.5796 22.2994 12.0586 22.2994H14.3701L9.88574 19.7095L11.042 21.7124ZM6.77832 18.6831C6.77832 19.4442 6.78815 19.6381 6.83984 19.7974C6.89427 19.9649 6.98277 20.1197 7.10059 20.2505C7.21273 20.375 7.37574 20.4802 8.03516 20.8609L10.3584 22.2017L10.3164 22.1314L6.81738 16.0718C6.80369 16.0481 6.79115 16.0247 6.77832 16.0025V18.6831ZM24.2959 16.0718L20.7979 22.1324L20.7559 22.2007L23.0791 20.8609C23.7375 20.4808 23.9006 20.3749 24.0127 20.2505C24.1304 20.1197 24.22 19.9647 24.2744 19.7974C24.326 19.6381 24.3359 19.4438 24.3359 18.6831V16.0005C24.3228 16.0233 24.31 16.0475 24.2959 16.0718ZM22.4121 17.6587L23.5703 15.6529C23.809 15.2394 23.8267 15.1879 23.834 15.1539C23.8462 15.0965 23.8472 15.0364 23.835 14.979C23.8276 14.945 23.8089 14.8923 23.5703 14.479L22.4121 12.4732V17.6587ZM7.54395 14.48C7.30439 14.8949 7.28558 14.9459 7.27832 14.98C7.26627 15.037 7.26634 15.0959 7.27832 15.1529C7.28557 15.187 7.30337 15.2379 7.54297 15.6529L8.69922 17.6548V12.4781L7.54395 14.48ZM20.7979 8.00053L24.2959 14.0601L24.3359 14.1314V11.4498C24.3359 10.6892 24.3261 10.4948 24.2744 10.3355C24.22 10.1681 24.1305 10.0132 24.0127 9.88237C23.9006 9.75793 23.738 9.65241 23.0791 9.27202L20.7559 7.93022C20.7691 7.95306 20.7837 7.9761 20.7979 8.00053ZM8.03516 9.27202C7.37648 9.6523 7.21272 9.75804 7.10059 9.88237C6.98292 10.0131 6.89428 10.1682 6.83984 10.3355C6.78815 10.4948 6.77832 10.689 6.77832 11.4498V14.1294C6.79091 14.1076 6.80297 14.0843 6.81641 14.0611L10.3164 8.00151C10.3306 7.97689 10.3451 7.95323 10.3584 7.93022L8.03516 9.27202ZM21.2295 10.4253L20.0713 8.41948C19.8319 8.00486 19.7974 7.96331 19.7715 7.93999C19.728 7.90091 19.6757 7.87215 19.6201 7.85405C19.587 7.84331 19.5336 7.83355 19.0557 7.83354H16.7412L21.2295 10.4253ZM12.0576 7.83354C11.58 7.83354 11.5263 7.84332 11.4932 7.85405C11.4376 7.87212 11.3863 7.90192 11.3428 7.94096C11.3169 7.96428 11.2817 8.00523 11.042 8.42045L9.88477 10.4234L14.3701 7.83354H12.0576ZM15.8184 5.15092C15.6463 5.11436 15.4679 5.11449 15.2959 5.15092C15.132 5.18576 14.9589 5.27434 14.2998 5.65483L11.9746 6.99663C12.0016 6.9966 12.0297 6.99565 12.0586 6.99565L19.0557 6.99467C19.0835 6.99468 19.1106 6.99563 19.1367 6.99565L16.8145 5.65483C16.1553 5.27427 15.9822 5.18582 15.8184 5.15092Z"/>
</mask>
<path d="M15.1211 4.33159L15.1102 4.2803L15.108 4.28087L15.1211 4.33159ZM15.9922 4.33159L16.0031 4.28035L16.0031 4.28035L15.9922 4.33159ZM17.2334 4.92924L17.2596 4.88388L17.2596 4.88388L17.2334 4.92924ZM23.498 8.54643L23.4719 8.59179L23.4719 8.59179L23.498 8.54643ZM24.6357 9.32182L24.6747 9.28678L24.6747 9.28677L24.6357 9.32182ZM25.0713 10.0757L25.1211 10.0595L25.1211 10.0595L25.0713 10.0757ZM25.1738 11.4498L25.2262 11.4498L25.1738 11.4498ZM25.1738 18.6831L25.2262 18.6834V18.6831H25.1738ZM25.1719 19.1509L25.2243 19.1515L25.2243 19.1511L25.1719 19.1509ZM25.0713 20.0562L25.1211 20.0724L25.1211 20.0724L25.0713 20.0562ZM24.6357 20.8111L24.6732 20.8477L24.6747 20.8461L24.6357 20.8111ZM24.5479 20.9009L24.5839 20.939L24.5853 20.9376L24.5479 20.9009ZM23.498 21.5865L23.4719 21.5411L23.4719 21.5411L23.498 21.5865ZM17.2334 25.2037L17.2594 25.2491L17.2596 25.249L17.2334 25.2037ZM16.8271 25.4361L16.8528 25.4817L16.8532 25.4815L16.8271 25.4361ZM15.9922 25.8013L16.0004 25.8531L16.0031 25.8525L15.9922 25.8013ZM15.7754 25.8355L15.7809 25.8877L15.7835 25.8872L15.7754 25.8355ZM15.3379 25.8355L15.3297 25.8873L15.3324 25.8876L15.3379 25.8355ZM15.1211 25.8013L15.1102 25.8526L15.1129 25.8531L15.1211 25.8013ZM14.2861 25.4361L14.2601 25.4815L14.2605 25.4817L14.2861 25.4361ZM13.8809 25.2037L13.8547 25.249L13.8548 25.2491L13.8809 25.2037ZM7.61621 21.5865L7.6424 21.5411L7.6424 21.5411L7.61621 21.5865ZM6.56543 20.9009L6.52774 20.9374L6.52945 20.939L6.56543 20.9009ZM6.47852 20.8111L6.43956 20.8461L6.44087 20.8475L6.47852 20.8111ZM6.04199 20.0562L5.99217 20.0724L5.99217 20.0724L6.04199 20.0562ZM5.94141 19.1509L5.88902 19.1511L5.88903 19.1515L5.94141 19.1509ZM5.93945 18.6831H5.88707L5.88707 18.6834L5.93945 18.6831ZM5.93945 11.4498H5.88707H5.93945ZM6.04199 10.0757L5.99218 10.0595L5.99217 10.0595L6.04199 10.0757ZM6.33984 9.49174L6.2992 9.45857L6.29747 9.46095L6.33984 9.49174ZM6.47852 9.32182L6.43956 9.28671L6.43793 9.2887L6.47852 9.32182ZM7.21191 8.78178L7.18556 8.73651L7.18519 8.73673L7.21191 8.78178ZM7.61621 8.54643L7.59002 8.50107L7.58986 8.50116L7.61621 8.54643ZM13.8809 4.92924L13.8547 4.88388L13.8547 4.88388L13.8809 4.92924ZM15 4.36284L14.9869 4.31208L14.985 4.31264L15 4.36284ZM19.0557 23.1382V23.1906L19.0569 23.1906L19.0557 23.1382ZM12.0576 23.1382L12.0576 23.0858L12.0576 23.1382ZM11.9785 23.1373L11.9785 23.0849C11.9548 23.0849 11.9341 23.1008 11.9279 23.1237C11.9218 23.1466 11.9318 23.1708 11.9523 23.1826L11.9785 23.1373ZM14.2998 24.4771L14.326 24.4317L14.326 24.4317L14.2998 24.4771ZM15.2959 24.981L15.285 25.0322L15.285 25.0322L15.2959 24.981ZM15.8184 24.981L15.8292 25.0322L15.8293 25.0322L15.8184 24.981ZM16.8145 24.4771L16.8406 24.5225L16.8407 24.5225L16.8145 24.4771ZM19.1357 23.1363L19.1619 23.1816C19.1827 23.1697 19.1926 23.1451 19.1862 23.1221C19.1797 23.099 19.1584 23.0833 19.1345 23.0839L19.1357 23.1363ZM16.7393 22.2994L16.7131 22.254C16.6925 22.2658 16.6825 22.29 16.6887 22.3129C16.6948 22.3358 16.7155 22.3517 16.7392 22.3517L16.7393 22.2994ZM19.0557 22.3003L19.0556 22.3527L19.0557 22.3527L19.0557 22.3003ZM19.6211 22.2798L19.6373 22.3296L19.6374 22.3296L19.6211 22.2798ZM19.7715 22.1929L19.8065 22.2319L19.8066 22.2318L19.7715 22.1929ZM20.0713 21.7134L20.1167 21.7396L20.1167 21.7396L20.0713 21.7134ZM21.2285 19.7076L21.2739 19.7337C21.2857 19.7132 21.2823 19.6873 21.2655 19.6705C21.2488 19.6538 21.2229 19.6503 21.2023 19.6622L21.2285 19.7076ZM11.042 21.7124L10.9966 21.7386L10.9966 21.7386L11.042 21.7124ZM11.3418 22.1919L11.3067 22.2308L11.3068 22.2309L11.3418 22.1919ZM11.4922 22.2789L11.4759 22.3286L11.476 22.3287L11.4922 22.2789ZM12.0586 22.2994L12.0586 22.247H12.0586L12.0586 22.2994ZM14.3701 22.2994V22.3517C14.3938 22.3517 14.4146 22.3358 14.4207 22.3129C14.4268 22.29 14.4168 22.2659 14.3963 22.254L14.3701 22.2994ZM9.88574 19.7095L9.91194 19.6642C9.89141 19.6523 9.86547 19.6557 9.84871 19.6725C9.83194 19.6892 9.82852 19.7152 9.84038 19.7357L9.88574 19.7095ZM6.77832 18.6831L6.72594 18.6831L6.72594 18.6831L6.77832 18.6831ZM6.83984 19.7974L6.79002 19.8136L6.79003 19.8136L6.83984 19.7974ZM7.10059 20.2505L7.06166 20.2856L7.06167 20.2856L7.10059 20.2505ZM8.03516 20.8609L8.00897 20.9062L8.00897 20.9063L8.03516 20.8609ZM10.3584 22.2017L10.3322 22.2471C10.3529 22.259 10.379 22.2555 10.3957 22.2385C10.4125 22.2215 10.4156 22.1953 10.4034 22.1748L10.3584 22.2017ZM10.3164 22.1314L10.271 22.1576L10.2714 22.1582L10.3164 22.1314ZM6.81738 16.0718L6.77202 16.098L6.77202 16.098L6.81738 16.0718ZM6.77832 16.0025L6.82369 15.9763C6.81184 15.9558 6.78768 15.9458 6.76477 15.9519C6.74187 15.958 6.72594 15.9788 6.72594 16.0025H6.77832ZM24.2959 16.0718L24.2505 16.0456L24.2505 16.0456L24.2959 16.0718ZM20.7979 22.1324L20.8425 22.1598L20.8432 22.1586L20.7979 22.1324ZM20.7559 22.2007L20.7112 22.1733C20.6987 22.1937 20.7016 22.2201 20.7183 22.2372C20.735 22.2544 20.7613 22.2581 20.782 22.2461L20.7559 22.2007ZM23.0791 20.8609L23.1053 20.9063L23.1053 20.9062L23.0791 20.8609ZM24.0127 20.2505L24.0516 20.2856L24.0516 20.2856L24.0127 20.2505ZM24.2744 19.7974L24.3242 19.8136L24.3242 19.8136L24.2744 19.7974ZM24.3359 18.6831L24.3883 18.6831V18.6831H24.3359ZM24.3359 16.0005H24.3883C24.3883 15.9768 24.3724 15.9561 24.3495 15.9499C24.3266 15.9438 24.3024 15.9538 24.2906 15.9744L24.3359 16.0005ZM22.4121 17.6587H22.3597C22.3597 17.6824 22.3757 17.7032 22.3986 17.7093C22.4215 17.7155 22.4456 17.7055 22.4575 17.6849L22.4121 17.6587ZM23.5703 15.6529L23.6157 15.6791L23.6157 15.6791L23.5703 15.6529ZM23.834 15.1539L23.8852 15.1648L23.8852 15.1647L23.834 15.1539ZM23.835 14.979L23.8862 14.9682L23.8862 14.9681L23.835 14.979ZM23.5703 14.479L23.6157 14.4529L23.6157 14.4529L23.5703 14.479ZM22.4121 12.4732L22.4575 12.447C22.4456 12.4265 22.4215 12.4165 22.3986 12.4226C22.3757 12.4287 22.3597 12.4495 22.3597 12.4732H22.4121ZM7.54395 14.48L7.58931 14.5062L7.58931 14.5062L7.54395 14.48ZM7.27832 14.98L7.22709 14.9691L7.22707 14.9692L7.27832 14.98ZM7.27832 15.1529L7.22706 15.1637L7.22708 15.1638L7.27832 15.1529ZM7.54297 15.6529L7.49761 15.6791L7.49761 15.6791L7.54297 15.6529ZM8.69922 17.6548L8.65386 17.681C8.66572 17.7016 8.68988 17.7116 8.71278 17.7054C8.73568 17.6993 8.7516 17.6785 8.7516 17.6548H8.69922ZM8.69922 12.4781H8.7516C8.7516 12.4544 8.73567 12.4336 8.71277 12.4275C8.68987 12.4213 8.6657 12.4314 8.65385 12.4519L8.69922 12.4781ZM20.7979 8.00053L20.8432 7.97434L20.8432 7.97434L20.7979 8.00053ZM24.2959 14.0601L24.3416 14.0345L24.3413 14.0339L24.2959 14.0601ZM24.3359 14.1314L24.2903 14.157C24.3019 14.1778 24.3261 14.1881 24.3492 14.1821C24.3722 14.176 24.3883 14.1552 24.3883 14.1314H24.3359ZM24.3359 11.4498L24.3883 11.4498L24.3883 11.4498L24.3359 11.4498ZM24.2744 10.3355L24.3242 10.3193L24.3242 10.3193L24.2744 10.3355ZM24.0127 9.88237L24.0516 9.84732L24.0516 9.84731L24.0127 9.88237ZM23.0791 9.27202L23.0529 9.31738L23.0529 9.31738L23.0791 9.27202ZM20.7559 7.93022L20.7821 7.88486C20.7615 7.873 20.7356 7.87642 20.7188 7.89319C20.702 7.90997 20.6986 7.93591 20.7105 7.95644L20.7559 7.93022ZM8.03516 9.27202L8.06135 9.31738L8.06135 9.31738L8.03516 9.27202ZM7.10059 9.88237L7.06169 9.84729L7.06165 9.84733L7.10059 9.88237ZM6.83984 10.3355L6.79003 10.3193L6.79002 10.3193L6.83984 10.3355ZM6.77832 11.4498L6.72594 11.4498V11.4498H6.77832ZM6.77832 14.1294H6.72594C6.72594 14.1532 6.74188 14.1739 6.76479 14.18C6.7877 14.1862 6.81187 14.1761 6.82371 14.1556L6.77832 14.1294ZM6.81641 14.0611L6.77105 14.0349L6.77104 14.0349L6.81641 14.0611ZM10.3164 8.00151L10.3618 8.02771L10.3618 8.0277L10.3164 8.00151ZM10.3584 7.93022L10.4037 7.95643C10.4156 7.9359 10.4122 7.90996 10.3954 7.89319C10.3787 7.87642 10.3527 7.873 10.3322 7.88486L10.3584 7.93022ZM21.2295 10.4253L21.2033 10.4707C21.2238 10.4826 21.2498 10.4791 21.2665 10.4624C21.2833 10.4456 21.2867 10.4197 21.2749 10.3991L21.2295 10.4253ZM20.0713 8.41948L20.0259 8.44567L20.0259 8.44567L20.0713 8.41948ZM19.7715 7.93999L19.8065 7.90107L19.8065 7.90102L19.7715 7.93999ZM19.6201 7.85405L19.6363 7.80424L19.6363 7.80421L19.6201 7.85405ZM19.0557 7.83354L19.0557 7.78116H19.0557V7.83354ZM16.7412 7.83354V7.78116C16.7175 7.78116 16.6968 7.79708 16.6906 7.81998C16.6845 7.84288 16.6945 7.86705 16.715 7.8789L16.7412 7.83354ZM12.0576 7.83354L12.0576 7.78116L12.0576 7.78116L12.0576 7.83354ZM11.4932 7.85405L11.477 7.80421L11.477 7.80423L11.4932 7.85405ZM11.3428 7.94096L11.3078 7.90197L11.3077 7.90204L11.3428 7.94096ZM11.042 8.42045L11.0873 8.44666L11.0874 8.44664L11.042 8.42045ZM9.88477 10.4234L9.83941 10.3972C9.82755 10.4177 9.83096 10.4436 9.84772 10.4604C9.86449 10.4772 9.89042 10.4806 9.91096 10.4687L9.88477 10.4234ZM14.3701 7.83354L14.3963 7.8789C14.4168 7.86705 14.4268 7.84288 14.4207 7.81998C14.4146 7.79708 14.3938 7.78116 14.3701 7.78116V7.83354ZM15.8184 5.15092L15.8293 5.09969L15.8292 5.09969L15.8184 5.15092ZM15.2959 5.15092L15.285 5.09968L15.285 5.09969L15.2959 5.15092ZM14.2998 5.65483L14.326 5.7002L14.326 5.70019L14.2998 5.65483ZM11.9746 6.99663L11.9484 6.95126C11.9279 6.96311 11.9179 6.98729 11.924 7.0102C11.9302 7.03311 11.9509 7.04903 11.9747 7.04901L11.9746 6.99663ZM12.0586 6.99565L12.0586 7.04803L12.0586 7.04803L12.0586 6.99565ZM19.0557 6.99467L19.0557 6.94229L19.0557 6.94229L19.0557 6.99467ZM19.1367 6.99565L19.1367 7.04803C19.1604 7.04805 19.1812 7.03213 19.1873 7.00923C19.1935 6.98632 19.1834 6.96215 19.1629 6.95029L19.1367 6.99565ZM16.8145 5.65483L16.8406 5.60947L16.8406 5.60947L16.8145 5.65483ZM15.1211 4.33159L15.132 4.38283C15.4117 4.32343 15.7015 4.3234 15.9813 4.38282L15.9922 4.33159L16.0031 4.28035C15.709 4.21788 15.4043 4.21791 15.1102 4.28035L15.1211 4.33159ZM15.9922 4.33159L15.9813 4.38282C16.2957 4.44973 16.5938 4.62044 17.2072 4.97461L17.2334 4.92924L17.2596 4.88388C16.6521 4.53317 16.3376 4.35153 16.0031 4.28035L15.9922 4.33159ZM17.2334 4.92924L17.2072 4.97461L23.4719 8.59179L23.498 8.54643L23.5242 8.50107L17.2596 4.88388L17.2334 4.92924ZM23.498 8.54643L23.4719 8.59179C24.0851 8.94587 24.3817 9.118 24.5968 9.35687L24.6357 9.32182L24.6747 9.28677C24.4458 9.03265 24.1314 8.85163 23.5242 8.50107L23.498 8.54643ZM24.6357 9.32182L24.5968 9.35687C24.7881 9.56942 24.933 9.82001 25.0215 10.0919L25.0713 10.0757L25.1211 10.0595C25.0281 9.77362 24.8758 9.5102 24.6747 9.28678L24.6357 9.32182ZM25.0713 10.0757L25.0215 10.0919C25.1208 10.3977 25.1214 10.7414 25.1214 11.4498L25.1738 11.4498L25.2262 11.4498C25.2262 10.7485 25.2268 10.3848 25.1211 10.0595L25.0713 10.0757ZM25.1738 11.4498H25.1214V18.6831H25.1738H25.2262V11.4498H25.1738ZM25.1738 18.6831L25.1214 18.6829L25.1195 19.1507L25.1719 19.1509L25.2243 19.1511L25.2262 18.6834L25.1738 18.6831ZM25.1719 19.1509L25.1195 19.1503C25.1147 19.561 25.0955 19.8118 25.0215 20.04L25.0713 20.0562L25.1211 20.0724C25.2005 19.8276 25.2194 19.5626 25.2243 19.1515L25.1719 19.1509ZM25.0713 20.0562L25.0215 20.04C24.9331 20.3121 24.7881 20.5634 24.5968 20.776L24.6357 20.8111L24.6747 20.8461C24.8758 20.6226 25.0282 20.3584 25.1211 20.0724L25.0713 20.0562ZM24.6357 20.8111L24.5983 20.7744L24.5104 20.8643L24.5479 20.9009L24.5853 20.9376L24.6732 20.8477L24.6357 20.8111ZM24.5479 20.9009L24.5119 20.8628C24.302 21.0612 24.0078 21.2317 23.4719 21.5411L23.498 21.5865L23.5242 21.6318C24.0555 21.3251 24.3629 21.1478 24.5838 20.939L24.5479 20.9009ZM23.498 21.5865L23.4719 21.5411L17.2072 25.1583L17.2334 25.2037L17.2596 25.249L23.5242 21.6318L23.498 21.5865ZM17.2334 25.2037L17.2074 25.1582L16.8011 25.3906L16.8271 25.4361L16.8532 25.4815L17.2594 25.2491L17.2334 25.2037ZM16.8271 25.4361L16.8015 25.3904C16.4435 25.5916 16.216 25.7001 15.9813 25.7501L15.9922 25.8013L16.0031 25.8525C16.2548 25.799 16.4943 25.6832 16.8528 25.4817L16.8271 25.4361ZM15.9922 25.8013L15.984 25.7496L15.7672 25.7838L15.7754 25.8355L15.7835 25.8872L16.0003 25.8531L15.9922 25.8013ZM15.7754 25.8355L15.7699 25.7834C15.6283 25.7983 15.485 25.7983 15.3434 25.7834L15.3379 25.8355L15.3324 25.8876C15.4814 25.9032 15.6319 25.9032 15.7809 25.8876L15.7754 25.8355ZM15.3379 25.8355L15.346 25.7838L15.1293 25.7496L15.1211 25.8013L15.1129 25.8531L15.3297 25.8872L15.3379 25.8355ZM15.1211 25.8013L15.132 25.7501C14.8971 25.7001 14.6702 25.5918 14.3118 25.3904L14.2861 25.4361L14.2605 25.4817C14.6194 25.6834 14.8583 25.799 15.1102 25.8525L15.1211 25.8013ZM14.2861 25.4361L14.3122 25.3906L13.9069 25.1582L13.8809 25.2037L13.8548 25.2491L14.2601 25.4815L14.2861 25.4361ZM13.8809 25.2037L13.9071 25.1583L7.6424 21.5411L7.61621 21.5865L7.59002 21.6318L13.8547 25.249L13.8809 25.2037ZM7.61621 21.5865L7.6424 21.5411C7.10573 21.2313 6.81139 21.0613 6.60141 20.8629L6.56543 20.9009L6.52945 20.939C6.75055 21.148 7.0582 21.3248 7.59002 21.6318L7.61621 21.5865ZM6.56543 20.9009L6.60308 20.8645L6.51616 20.7747L6.47852 20.8111L6.44087 20.8475L6.52778 20.9373L6.56543 20.9009ZM6.47852 20.8111L6.51744 20.776C6.32588 20.5632 6.18024 20.3122 6.09181 20.04L6.04199 20.0562L5.99217 20.0724C6.08519 20.3586 6.2383 20.6225 6.43959 20.8461L6.47852 20.8111ZM6.04199 20.0562L6.09182 20.04C6.01777 19.8118 5.99859 19.5611 5.99378 19.1503L5.94141 19.1509L5.88903 19.1515C5.89384 19.5627 5.91276 19.8276 5.99217 20.0724L6.04199 20.0562ZM5.94141 19.1509L5.99379 19.1507L5.99183 18.6829L5.93945 18.6831L5.88707 18.6834L5.88903 19.1511L5.94141 19.1509ZM5.93945 18.6831H5.99183V11.4498H5.93945H5.88707V18.6831H5.93945ZM5.93945 11.4498L5.99183 11.4498C5.99183 10.7414 5.99246 10.3977 6.09181 10.0919L6.04199 10.0757L5.99217 10.0595C5.88648 10.3848 5.88707 10.7485 5.88707 11.4498L5.93945 11.4498ZM6.04199 10.0757L6.0918 10.0919C6.15818 9.88792 6.2566 9.69542 6.38222 9.52253L6.33984 9.49174L6.29747 9.46095C6.16543 9.64267 6.06198 9.845 5.99218 10.0595L6.04199 10.0757ZM6.33984 9.49174L6.38043 9.52486L6.5191 9.35494L6.47852 9.32182L6.43793 9.2887L6.29926 9.45862L6.33984 9.49174ZM6.47852 9.32182L6.51742 9.35689C6.67806 9.17867 6.88544 9.0363 7.23863 8.82684L7.21191 8.78178L7.18519 8.73673C6.83155 8.94646 6.61184 9.09567 6.43961 9.28675L6.47852 9.32182ZM7.21191 8.78178L7.23827 8.82705L7.64256 8.5917L7.61621 8.54643L7.58986 8.50116L7.18556 8.73651L7.21191 8.78178ZM7.61621 8.54643L7.6424 8.59179L13.9071 4.97461L13.8809 4.92924L13.8547 4.88388L7.59002 8.50107L7.61621 8.54643ZM13.8809 4.92924L13.907 4.97461C14.4433 4.66499 14.7381 4.49559 15.015 4.41303L15 4.36284L14.985 4.31264C14.6936 4.39957 14.3863 4.57696 13.8547 4.88388L13.8809 4.92924ZM15 4.36284L15.0131 4.41356L15.1342 4.38231L15.1211 4.33159L15.108 4.28087L14.9869 4.31212L15 4.36284ZM19.0557 23.1382V23.0858H12.0576V23.1382V23.1906H19.0557V23.1382ZM12.0576 23.1382L12.0576 23.0858C12.0446 23.0858 12.0317 23.0856 12.0184 23.0854C12.0053 23.0851 11.9918 23.0849 11.9785 23.0849L11.9785 23.1373L11.9785 23.1896C11.9906 23.1896 12.0032 23.1899 12.0165 23.1901C12.0296 23.1904 12.0435 23.1906 12.0576 23.1906L12.0576 23.1382ZM11.9785 23.1373L11.9523 23.1826L14.2736 24.5225L14.2998 24.4771L14.326 24.4317L12.0047 23.0919L11.9785 23.1373ZM14.2998 24.4771L14.2736 24.5225C14.9296 24.9012 15.1109 24.9952 15.285 25.0322L15.2959 24.981L15.3068 24.9298C15.153 24.8971 14.989 24.8145 14.326 24.4317L14.2998 24.4771ZM15.2959 24.981L15.285 25.0322C15.4643 25.0703 15.6499 25.0704 15.8292 25.0322L15.8184 24.981L15.8075 24.9298C15.6425 24.9648 15.4718 24.9647 15.3068 24.9298L15.2959 24.981ZM15.8184 24.981L15.8293 25.0322C16.0032 24.9951 16.1854 24.9007 16.8406 24.5225L16.8145 24.4771L16.7883 24.4317C16.1261 24.8141 15.961 24.897 15.8074 24.9298L15.8184 24.981ZM16.8145 24.4771L16.8407 24.5225L19.1619 23.1816L19.1357 23.1363L19.1095 23.0909L16.7883 24.4317L16.8145 24.4771ZM19.1357 23.1363L19.1345 23.0839L19.0544 23.0859L19.0557 23.1382L19.0569 23.1906L19.137 23.1886L19.1357 23.1363ZM16.7393 22.2994L16.7392 22.3517L19.0556 22.3527L19.0557 22.3003L19.0557 22.248L16.7393 22.247L16.7393 22.2994ZM19.0557 22.3003L19.0557 22.3527C19.2953 22.3527 19.4295 22.3503 19.5082 22.3464C19.5868 22.3426 19.614 22.3372 19.6373 22.3296L19.6211 22.2798L19.6049 22.23C19.5951 22.2332 19.5791 22.2381 19.5031 22.2418C19.4271 22.2455 19.2952 22.248 19.0557 22.248L19.0557 22.3003ZM19.6211 22.2798L19.6374 22.3296C19.6998 22.3092 19.7577 22.2758 19.8065 22.2319L19.7715 22.1929L19.7365 22.154C19.6985 22.1881 19.6534 22.2142 19.6048 22.23L19.6211 22.2798ZM19.7715 22.1929L19.8066 22.2318C19.8249 22.2153 19.8431 22.1942 19.8855 22.128C19.928 22.0617 19.9971 21.9467 20.1167 21.7396L20.0713 21.7134L20.0259 21.6872C19.9064 21.8943 19.8384 22.0074 19.7973 22.0715C19.7561 22.1357 19.744 22.1472 19.7364 22.154L19.7715 22.1929ZM20.0713 21.7134L20.1167 21.7396L21.2739 19.7337L21.2285 19.7076L21.1831 19.6814L20.0259 21.6872L20.0713 21.7134ZM21.2285 19.7076L21.2023 19.6622L16.7131 22.254L16.7393 22.2994L16.7654 22.3447L21.2547 19.7529L21.2285 19.7076ZM11.042 21.7124L10.9966 21.7386C11.116 21.9453 11.185 22.0603 11.2276 22.1267C11.2701 22.1929 11.2884 22.2143 11.3067 22.2308L11.3418 22.1919L11.3769 22.1531C11.3693 22.1462 11.3571 22.1345 11.3158 22.0701C11.2746 22.006 11.2067 21.8929 11.0874 21.6863L11.042 21.7124ZM11.3418 22.1919L11.3068 22.2309C11.3556 22.2748 11.4135 22.3082 11.4759 22.3286L11.4922 22.2789L11.5085 22.2291C11.4599 22.2132 11.4148 22.1871 11.3768 22.153L11.3418 22.1919ZM11.4922 22.2789L11.476 22.3287C11.4994 22.3362 11.5268 22.3416 11.6056 22.3455C11.6846 22.3493 11.819 22.3517 12.0586 22.3517L12.0586 22.2994L12.0586 22.247C11.8191 22.247 11.6869 22.2445 11.6107 22.2408C11.5344 22.2371 11.5182 22.2322 11.5083 22.229L11.4922 22.2789ZM12.0586 22.2994V22.3517H14.3701V22.2994V22.247H12.0586V22.2994ZM14.3701 22.2994L14.3963 22.254L9.91194 19.6642L9.88574 19.7095L9.85955 19.7549L14.3439 22.3447L14.3701 22.2994ZM9.88574 19.7095L9.84038 19.7357L10.9966 21.7386L11.042 21.7124L11.0874 21.6863L9.93111 19.6833L9.88574 19.7095ZM6.77832 18.6831L6.72594 18.6831C6.72594 19.4401 6.73512 19.6444 6.79002 19.8136L6.83984 19.7974L6.88967 19.7812C6.84118 19.6318 6.8307 19.4483 6.8307 18.6831L6.77832 18.6831ZM6.83984 19.7974L6.79003 19.8136C6.84668 19.9879 6.93883 20.1491 7.06166 20.2856L7.10059 20.2505L7.13952 20.2155C7.02671 20.0902 6.94187 19.9419 6.88966 19.7812L6.83984 19.7974ZM7.10059 20.2505L7.06167 20.2856C7.18076 20.4178 7.35313 20.5276 8.00897 20.9062L8.03516 20.8609L8.06135 20.8155C7.39835 20.4327 7.24469 20.3323 7.13951 20.2155L7.10059 20.2505ZM8.03516 20.8609L8.00897 20.9063L10.3322 22.2471L10.3584 22.2017L10.3846 22.1563L8.06134 20.8155L8.03516 20.8609ZM10.3584 22.2017L10.4034 22.1748L10.3614 22.1045L10.3164 22.1314L10.2714 22.1582L10.3134 22.2286L10.3584 22.2017ZM10.3164 22.1314L10.3618 22.1052L6.86274 16.0456L6.81738 16.0718L6.77202 16.098L10.271 22.1576L10.3164 22.1314ZM6.81738 16.0718L6.86275 16.0456C6.85613 16.0342 6.84977 16.0228 6.84329 16.0111C6.83689 15.9996 6.83034 15.9878 6.82369 15.9763L6.77832 16.0025L6.73295 16.0287C6.73912 16.0394 6.74526 16.0504 6.75176 16.0621C6.75818 16.0736 6.76494 16.0857 6.77202 16.098L6.81738 16.0718ZM6.77832 16.0025H6.72594V18.6831H6.77832H6.8307V16.0025H6.77832ZM24.2959 16.0718L24.2505 16.0456L20.7525 22.1062L20.7979 22.1324L20.8432 22.1586L24.3413 16.098L24.2959 16.0718ZM20.7979 22.1324L20.7532 22.105L20.7112 22.1733L20.7559 22.2007L20.8005 22.2281L20.8425 22.1598L20.7979 22.1324ZM20.7559 22.2007L20.782 22.2461L23.1053 20.9063L23.0791 20.8609L23.0529 20.8155L20.7297 22.1554L20.7559 22.2007ZM23.0791 20.8609L23.1053 20.9062C23.7602 20.5281 23.9326 20.4177 24.0516 20.2856L24.0127 20.2505L23.9738 20.2155C23.8686 20.3321 23.7148 20.4334 23.0529 20.8155L23.0791 20.8609ZM24.0127 20.2505L24.0516 20.2856C24.1742 20.1493 24.2676 19.9879 24.3242 19.8136L24.2744 19.7974L24.2246 19.7812C24.1725 19.9415 24.0865 20.0901 23.9737 20.2155L24.0127 20.2505ZM24.2744 19.7974L24.3242 19.8136C24.379 19.6444 24.3883 19.4397 24.3883 18.6831L24.3359 18.6831L24.2836 18.6831C24.2836 19.4478 24.273 19.6318 24.2246 19.7813L24.2744 19.7974ZM24.3359 18.6831H24.3883V16.0005H24.3359H24.2836V18.6831H24.3359ZM24.3359 16.0005L24.2906 15.9744C24.2837 15.9862 24.277 15.9984 24.2704 16.0102C24.2638 16.0222 24.2573 16.0339 24.2505 16.0456L24.2959 16.0718L24.3413 16.098C24.3486 16.0854 24.3555 16.0729 24.3621 16.061C24.3687 16.049 24.375 16.0376 24.3813 16.0267L24.3359 16.0005ZM22.4121 17.6587L22.4575 17.6849L23.6157 15.6791L23.5703 15.6529L23.525 15.6267L22.3667 17.6325L22.4121 17.6587ZM23.5703 15.6529L23.6157 15.6791C23.7351 15.4722 23.7998 15.355 23.8356 15.2849C23.8714 15.2147 23.8801 15.1886 23.8852 15.1648L23.834 15.1539L23.7828 15.1429C23.7806 15.1532 23.7768 15.1698 23.7423 15.2372C23.7078 15.3048 23.6443 15.42 23.5249 15.6267L23.5703 15.6529ZM23.834 15.1539L23.8852 15.1647C23.8988 15.1008 23.9 15.0333 23.8862 14.9682L23.835 14.979L23.7837 14.9899C23.7943 15.0396 23.7935 15.0922 23.7827 15.143L23.834 15.1539ZM23.835 14.979L23.8862 14.9681C23.8811 14.9442 23.872 14.9176 23.836 14.8473C23.7999 14.777 23.735 14.6596 23.6157 14.4529L23.5703 14.479L23.5249 14.5052C23.6442 14.7118 23.708 14.8273 23.7428 14.8951C23.7776 14.963 23.7816 14.9798 23.7837 14.99L23.835 14.979ZM23.5703 14.479L23.6157 14.4529L22.4575 12.447L22.4121 12.4732L22.3667 12.4994L23.525 14.5052L23.5703 14.479ZM22.4121 12.4732H22.3597V17.6587H22.4121H22.4645V12.4732H22.4121ZM7.54395 14.48L7.49858 14.4538C7.37879 14.6613 7.31365 14.7787 7.27748 14.8488C7.24139 14.9187 7.23222 14.945 7.22709 14.9691L7.27832 14.98L7.32955 14.9909C7.33168 14.9809 7.33555 14.9647 7.37057 14.8969C7.40551 14.8292 7.46955 14.7136 7.58931 14.5062L7.54395 14.48ZM7.27832 14.98L7.22707 14.9692C7.21351 15.0334 7.21359 15.0996 7.22706 15.1637L7.27832 15.1529L7.32958 15.1421C7.31908 15.0922 7.31904 15.0407 7.32957 14.9909L7.27832 14.98ZM7.27832 15.1529L7.22708 15.1638C7.23216 15.1876 7.24094 15.2138 7.2769 15.2839C7.31285 15.3541 7.37778 15.4715 7.49761 15.6791L7.54297 15.6529L7.58833 15.6267C7.46856 15.4192 7.40478 15.3037 7.37012 15.2361C7.33547 15.1685 7.33173 15.1522 7.32956 15.142L7.27832 15.1529ZM7.54297 15.6529L7.49761 15.6791L8.65386 17.681L8.69922 17.6548L8.74458 17.6286L7.58833 15.6267L7.54297 15.6529ZM8.69922 17.6548H8.7516V12.4781H8.69922H8.64684V17.6548H8.69922ZM8.69922 12.4781L8.65385 12.4519L7.49858 14.4538L7.54395 14.48L7.58931 14.5062L8.74459 12.5043L8.69922 12.4781ZM20.7979 8.00053L20.7525 8.02672L24.2505 14.0863L24.2959 14.0601L24.3413 14.0339L20.8432 7.97434L20.7979 8.00053ZM24.2959 14.0601L24.2502 14.0858L24.2903 14.157L24.3359 14.1314L24.3816 14.1057L24.3416 14.0345L24.2959 14.0601ZM24.3359 14.1314H24.3883V11.4498H24.3359H24.2836V14.1314H24.3359ZM24.3359 11.4498L24.3883 11.4498C24.3883 10.6933 24.3791 10.4885 24.3242 10.3193L24.2744 10.3355L24.2246 10.3517C24.273 10.5011 24.2836 10.6851 24.2836 11.4498L24.3359 11.4498ZM24.2744 10.3355L24.3242 10.3193C24.2675 10.1449 24.1743 9.98359 24.0516 9.84732L24.0127 9.88237L23.9738 9.91742C24.0867 10.0428 24.1724 10.1913 24.2246 10.3517L24.2744 10.3355ZM24.0127 9.88237L24.0516 9.84731C23.9326 9.71517 23.7607 9.60503 23.1053 9.22665L23.0791 9.27202L23.0529 9.31738C23.7153 9.69979 23.8686 9.8007 23.9738 9.91743L24.0127 9.88237ZM23.0791 9.27202L23.1053 9.22666L20.7821 7.88486L20.7559 7.93022L20.7297 7.97558L23.0529 9.31738L23.0791 9.27202ZM20.7559 7.93022L20.7105 7.95644C20.7175 7.96844 20.7247 7.98041 20.7317 7.99196C20.7389 8.00368 20.7458 8.01508 20.7525 8.02672L20.7979 8.00053L20.8432 7.97434C20.8358 7.96155 20.8283 7.94922 20.8213 7.9376C20.8141 7.92582 20.8075 7.91485 20.8012 7.904L20.7559 7.93022ZM8.03516 9.27202L8.00897 9.22665C7.35384 9.60489 7.18076 9.71526 7.06169 9.84729L7.10059 9.88237L7.13948 9.91745C7.24467 9.80082 7.39912 9.69972 8.06135 9.31738L8.03516 9.27202ZM7.10059 9.88237L7.06165 9.84733C6.93897 9.98363 6.84668 10.1452 6.79003 10.3193L6.83984 10.3355L6.88965 10.3517C6.94187 10.1913 7.02687 10.0426 7.13952 9.91741L7.10059 9.88237ZM6.83984 10.3355L6.79002 10.3193C6.73512 10.4885 6.72594 10.6931 6.72594 11.4498L6.77832 11.4498L6.8307 11.4498C6.83071 10.6849 6.84118 10.5011 6.88967 10.3517L6.83984 10.3355ZM6.77832 11.4498H6.72594V14.1294H6.77832H6.8307V11.4498H6.77832ZM6.77832 14.1294L6.82371 14.1556C6.83034 14.1441 6.83679 14.1323 6.84299 14.1209C6.84929 14.1094 6.85539 14.0983 6.86177 14.0873L6.81641 14.0611L6.77104 14.0349C6.76399 14.0471 6.75734 14.0592 6.7511 14.0706C6.74476 14.0822 6.73889 14.093 6.73293 14.1033L6.77832 14.1294ZM6.81641 14.0611L6.86176 14.0873L10.3618 8.02771L10.3164 8.00151L10.271 7.97531L6.77105 14.0349L6.81641 14.0611ZM10.3164 8.00151L10.3618 8.0277C10.3687 8.01573 10.3757 8.00394 10.3828 7.99204C10.3898 7.98023 10.3969 7.96827 10.4037 7.95643L10.3584 7.93022L10.313 7.90401C10.3066 7.91517 10.2998 7.92655 10.2927 7.93849C10.2857 7.95033 10.2783 7.96267 10.271 7.97531L10.3164 8.00151ZM10.3584 7.93022L10.3322 7.88486L8.00896 9.22666L8.03516 9.27202L8.06135 9.31738L10.3846 7.97558L10.3584 7.93022ZM21.2295 10.4253L21.2749 10.3991L20.1167 8.39329L20.0713 8.41948L20.0259 8.44567L21.1841 10.4515L21.2295 10.4253ZM20.0713 8.41948L20.1167 8.39329C19.9969 8.18595 19.9279 8.07097 19.8854 8.00471C19.843 7.93861 19.8248 7.91756 19.8065 7.90107L19.7715 7.93999L19.7364 7.9789C19.744 7.98574 19.7561 7.99712 19.7972 8.06128C19.8383 8.12528 19.9062 8.23838 20.0259 8.44567L20.0713 8.41948ZM19.7715 7.93999L19.8065 7.90102C19.757 7.85657 19.6982 7.82437 19.6363 7.80424L19.6201 7.85405L19.6039 7.90386C19.6533 7.91993 19.6989 7.94524 19.7365 7.97895L19.7715 7.93999ZM19.6201 7.85405L19.6363 7.80421C19.613 7.79668 19.5858 7.7913 19.5073 7.78745C19.4286 7.7836 19.2947 7.78116 19.0557 7.78116L19.0557 7.83354L19.0557 7.88592C19.2946 7.88592 19.4263 7.88837 19.5021 7.89209C19.578 7.89581 19.5941 7.90068 19.604 7.90388L19.6201 7.85405ZM19.0557 7.83354V7.78116H16.7412V7.83354V7.88592H19.0557V7.83354ZM16.7412 7.83354L16.715 7.8789L21.2033 10.4707L21.2295 10.4253L21.2557 10.38L16.7674 7.78818L16.7412 7.83354ZM12.0576 7.83354L12.0576 7.78116C11.8187 7.78116 11.6848 7.7836 11.6061 7.78746C11.5276 7.79131 11.5003 7.79668 11.477 7.80421L11.4932 7.85405L11.5093 7.90389C11.5192 7.90069 11.5353 7.89581 11.6113 7.89209C11.6871 7.88837 11.8188 7.88592 12.0576 7.88592L12.0576 7.83354ZM11.4932 7.85405L11.477 7.80423C11.4143 7.8246 11.3566 7.85814 11.3078 7.90197L11.3428 7.94096L11.3778 7.97995C11.4159 7.94569 11.4608 7.91963 11.5094 7.90387L11.4932 7.85405ZM11.3428 7.94096L11.3077 7.90204C11.2896 7.91839 11.2713 7.93911 11.2286 8.00534C11.1858 8.07158 11.1165 8.1866 10.9966 8.39426L11.042 8.42045L11.0874 8.44664C11.2072 8.23908 11.2754 8.12602 11.3166 8.06215C11.3578 7.99827 11.3701 7.98686 11.3778 7.97989L11.3428 7.94096ZM11.042 8.42045L10.9966 8.39425L9.83941 10.3972L9.88477 10.4234L9.93012 10.4496L11.0873 8.44666L11.042 8.42045ZM9.88477 10.4234L9.91096 10.4687L14.3963 7.8789L14.3701 7.83354L14.3439 7.78818L9.85857 10.378L9.88477 10.4234ZM14.3701 7.83354V7.78116H12.0576V7.83354V7.88592H14.3701V7.83354ZM15.8184 5.15092L15.8292 5.09969C15.65 5.06159 15.4642 5.06174 15.285 5.09968L15.2959 5.15092L15.3068 5.20217C15.4717 5.16725 15.6427 5.16713 15.8075 5.20216L15.8184 5.15092ZM15.2959 5.15092L15.285 5.09969C15.111 5.13668 14.9291 5.23101 14.2736 5.60947L14.2998 5.65483L14.326 5.70019C14.9886 5.31766 15.1531 5.23483 15.3068 5.20216L15.2959 5.15092ZM14.2998 5.65483L14.2736 5.60946L11.9484 6.95126L11.9746 6.99663L12.0008 7.04199L14.326 5.7002L14.2998 5.65483ZM11.9746 6.99663L11.9747 7.04901C11.9886 7.049 12.0029 7.04874 12.0168 7.0485C12.0309 7.04826 12.0447 7.04803 12.0586 7.04803L12.0586 6.99565L12.0586 6.94327C12.0437 6.94327 12.029 6.94352 12.015 6.94376C12.0009 6.944 11.9875 6.94423 11.9746 6.94425L11.9746 6.99663ZM12.0586 6.99565L12.0586 7.04803L19.0557 7.04705L19.0557 6.99467L19.0557 6.94229L12.0586 6.94327L12.0586 6.99565ZM19.0557 6.99467L19.0557 7.04705C19.0691 7.04706 19.0824 7.04729 19.0959 7.04753C19.1093 7.04777 19.1231 7.04802 19.1367 7.04803L19.1367 6.99565L19.1368 6.94327C19.1243 6.94326 19.1114 6.94302 19.0978 6.94278C19.0843 6.94254 19.0701 6.94229 19.0557 6.94229L19.0557 6.99467ZM19.1367 6.99565L19.1629 6.95029L16.8406 5.60947L16.8145 5.65483L16.7883 5.70019L19.1105 7.04101L19.1367 6.99565ZM16.8145 5.65483L16.8406 5.60947C16.185 5.23094 16.0032 5.13675 15.8293 5.09969L15.8184 5.15092L15.8074 5.20215C15.9611 5.23489 16.1256 5.31761 16.7883 5.70019L16.8145 5.65483Z" fill="url(#paint6_linear_10_28990)" mask="url(#path-11-inside-1_10_28990)"/>
</g>
</g>
</g>
<g filter="url(#filter2_d_10_28990)">
<path fill-rule="evenodd" clip-rule="evenodd" d="M15.5539 18.9428C17.6947 18.9428 19.4301 17.2074 19.4301 15.0666C19.4301 12.9259 17.6947 11.1904 15.5539 11.1904C13.4132 11.1904 11.6777 12.9259 11.6777 15.0666C11.6777 17.2074 13.4132 18.9428 15.5539 18.9428ZM15.9331 17.3415V16.9623H16.3122C16.9404 16.9623 17.4496 16.4531 17.4496 15.8249C17.4496 15.1967 16.9404 14.6875 16.3122 14.6875H14.7956C14.5863 14.6875 14.4165 14.5177 14.4165 14.3083C14.4165 14.099 14.5863 13.9292 14.7956 13.9292H16.6913C16.9007 13.9292 17.0705 13.7595 17.0705 13.5501C17.0705 13.3407 16.9007 13.1709 16.6913 13.1709H15.9331V12.7918C15.9331 12.5824 15.7633 12.4127 15.5539 12.4127C15.3445 12.4127 15.1748 12.5824 15.1748 12.7918V13.1709H14.7956C14.1675 13.1709 13.6582 13.6802 13.6582 14.3083C13.6582 14.9365 14.1675 15.4458 14.7956 15.4458H16.3122C16.5216 15.4458 16.6913 15.6155 16.6913 15.8249C16.6913 16.0343 16.5216 16.204 16.3122 16.204H14.4165C14.2071 16.204 14.0374 16.3738 14.0374 16.5832C14.0374 16.7926 14.2071 16.9623 14.4165 16.9623H15.1748V17.3415C15.1748 17.5508 15.3445 17.7206 15.5539 17.7206C15.7633 17.7206 15.9331 17.5508 15.9331 17.3415Z" fill="white"/>
<path d="M15.5537 11.1641C17.7089 11.1641 19.4559 12.9113 19.4561 15.0664C19.4561 17.2216 17.7089 18.9688 15.5537 18.9688C13.3986 18.9686 11.6514 17.2216 11.6514 15.0664C11.6515 12.9114 13.3987 11.1642 15.5537 11.1641ZM15.5537 12.4385C15.3589 12.4386 15.2012 12.5971 15.2012 12.792V13.1973H14.7959C14.1822 13.1973 13.6846 13.6949 13.6846 14.3086C13.6847 14.9222 14.1823 15.4199 14.7959 15.4199H16.3125C16.5362 15.4201 16.7178 15.6014 16.7178 15.8252C16.7176 16.0488 16.5361 16.2303 16.3125 16.2305H14.417C14.2221 16.2305 14.0636 16.3882 14.0635 16.583C14.0635 16.7779 14.2221 16.9365 14.417 16.9365H15.2012V17.3418C15.2014 17.5365 15.359 17.6942 15.5537 17.6943C15.7485 17.6943 15.907 17.5366 15.9072 17.3418V16.9365H16.3125C16.926 16.9364 17.4237 16.4387 17.4238 15.8252C17.4238 15.2116 16.9261 14.714 16.3125 14.7139H14.7959C14.5721 14.7139 14.3908 14.5323 14.3906 14.3086C14.3906 14.0847 14.572 13.9033 14.7959 13.9033H16.6914C16.8863 13.9033 17.0439 13.7447 17.0439 13.5498C17.0438 13.355 16.8862 13.1973 16.6914 13.1973H15.9072V12.792C15.9072 12.5971 15.7486 12.4385 15.5537 12.4385Z" stroke="url(#paint7_linear_10_28990)" stroke-width="0.052381" stroke-linecap="round" style="mix-blend-mode:color-burn"/>
</g>
</g>
<defs>
<filter id="filter0_dddd_10_28990" x="2.48036" y="3.65756" width="26.1487" height="34.2375" filterUnits="userSpaceOnUse" color-interpolation-filters="sRGB">
<feFlood flood-opacity="0" result="BackgroundImageFix"/>
<feColorMatrix in="SourceAlpha" type="matrix" values="0 0 0 0 0 0 0 0 0 0 0 0 0 0 0 0 0 0 127 0" result="hardAlpha"/>
<feOffset dy="0.52381"/>
<feGaussianBlur stdDeviation="0.57619"/>
<feColorMatrix type="matrix" values="0 0 0 0 0 0 0 0 0 0 0 0 0 0 0 0 0 0 0.24 0"/>
<feBlend mode="normal" in2="BackgroundImageFix" result="effect1_dropShadow_10_28990"/>
<feColorMatrix in="SourceAlpha" type="matrix" values="0 0 0 0 0 0 0 0 0 0 0 0 0 0 0 0 0 0 127 0" result="hardAlpha"/>
<feOffset dy="2.2"/>
<feGaussianBlur stdDeviation="1.1"/>
<feColorMatrix type="matrix" values="0 0 0 0 0 0 0 0 0 0 0 0 0 0 0 0 0 0 0.21 0"/>
<feBlend mode="normal" in2="effect1_dropShadow_10_28990" result="effect2_dropShadow_10_28990"/>
<feColorMatrix in="SourceAlpha" type="matrix" values="0 0 0 0 0 0 0 0 0 0 0 0 0 0 0 0 0 0 127 0" result="hardAlpha"/>
<feOffset dy="4.81905"/>
<feGaussianBlur stdDeviation="1.46667"/>
<feColorMatrix type="matrix" values="0 0 0 0 0 0 0 0 0 0 0 0 0 0 0 0 0 0 0.12 0"/>
<feBlend mode="normal" in2="effect2_dropShadow_10_28990" result="effect3_dropShadow_10_28990"/>
<feColorMatrix in="SourceAlpha" type="matrix" values="0 0 0 0 0 0 0 0 0 0 0 0 0 0 0 0 0 0 127 0" result="hardAlpha"/>
<feOffset dy="8.59048"/>
<feGaussianBlur stdDeviation="1.72857"/>
<feColorMatrix type="matrix" values="0 0 0 0 0 0 0 0 0 0 0 0 0 0 0 0 0 0 0.04 0"/>
<feBlend mode="normal" in2="effect3_dropShadow_10_28990" result="effect4_dropShadow_10_28990"/>
<feBlend mode="normal" in="SourceGraphic" in2="effect4_dropShadow_10_28990" result="shape"/>
</filter>
<filter id="filter1_d_10_28990" x="5.10136" y="3.65732" width="20.9106" height="23.2372" filterUnits="userSpaceOnUse" color-interpolation-filters="sRGB">
<feFlood flood-opacity="0" result="BackgroundImageFix"/>
<feColorMatrix in="SourceAlpha" type="matrix" values="0 0 0 0 0 0 0 0 0 0 0 0 0 0 0 0 0 0 127 0" result="hardAlpha"/>
<feOffset dy="0.209524"/>
<feGaussianBlur stdDeviation="0.419048"/>
<feColorMatrix type="matrix" values="0 0 0 0 0 0 0 0 0 0 0 0 0 0 0 0 0 0 0.16 0"/>
<feBlend mode="color-burn" in2="BackgroundImageFix" result="effect1_dropShadow_10_28990"/>
<feBlend mode="normal" in="SourceGraphic" in2="effect1_dropShadow_10_28990" result="shape"/>
</filter>
<filter id="filter2_d_10_28990" x="10.3679" y="10.0903" width="10.3717" height="10.3715" filterUnits="userSpaceOnUse" color-interpolation-filters="sRGB">
<feFlood flood-opacity="0" result="BackgroundImageFix"/>
<feColorMatrix in="SourceAlpha" type="matrix" values="0 0 0 0 0 0 0 0 0 0 0 0 0 0 0 0 0 0 127 0" result="hardAlpha"/>
<feOffset dy="0.209524"/>
<feGaussianBlur stdDeviation="0.628571"/>
<feColorMatrix type="matrix" values="0 0 0 0 0 0 0 0 0 0 0 0 0 0 0 0 0 0 0.12 0"/>
<feBlend mode="plus-darker" in2="BackgroundImageFix" result="effect1_dropShadow_10_28990"/>
<feBlend mode="normal" in="SourceGraphic" in2="effect1_dropShadow_10_28990" result="shape"/>
</filter>
<linearGradient id="paint0_linear_10_28990" x1="4.44922" y1="3.96191" x2="4.44922" y2="26.1714" gradientUnits="userSpaceOnUse">
<stop stop-color="#FFEDAF"/>
<stop offset="1" stop-color="#F2BE2F"/>
</linearGradient>
<linearGradient id="paint1_linear_10_28990" x1="15.5553" y1="3.72383" x2="15.5553" y2="26.2572" gradientUnits="userSpaceOnUse">
<stop stop-color="white"/>
<stop offset="1" stop-color="white" stop-opacity="0"/>
</linearGradient>
<radialGradient id="paint2_radial_10_28990" cx="0" cy="0" r="1" gradientUnits="userSpaceOnUse" gradientTransform="translate(15.5553 10.1962) rotate(90) scale(14.8625 11.2764)">
<stop stop-color="white"/>
<stop offset="1" stop-color="white" stop-opacity="0"/>
</radialGradient>
<linearGradient id="paint3_linear_10_28990" x1="15.5553" y1="3.72383" x2="15.5553" y2="26.2572" gradientUnits="userSpaceOnUse">
<stop stop-color="white"/>
<stop offset="1" stop-color="white" stop-opacity="0"/>
</linearGradient>
<radialGradient id="paint4_radial_10_28990" cx="0" cy="0" r="1" gradientUnits="userSpaceOnUse" gradientTransform="translate(15.5553 10.1962) rotate(90) scale(14.8625 11.2764)">
<stop stop-color="white"/>
<stop offset="1" stop-color="white" stop-opacity="0"/>
</radialGradient>
<linearGradient id="paint5_linear_10_28990" x1="0.888672" y1="0.399902" x2="0.888672" y2="29.7332" gradientUnits="userSpaceOnUse">
<stop offset="0.135095" stop-color="white"/>
<stop offset="0.877908" stop-color="white" stop-opacity="0.01"/>
</linearGradient>
<linearGradient id="paint6_linear_10_28990" x1="15.5566" y1="4.28589" x2="15.5566" y2="25.8469" gradientUnits="userSpaceOnUse">
<stop stop-color="white"/>
<stop offset="1" stop-color="#999999"/>
</linearGradient>
<linearGradient id="paint7_linear_10_28990" x1="15.5539" y1="11.1904" x2="15.5539" y2="18.9428" gradientUnits="userSpaceOnUse">
<stop stop-color="#DFDFDF"/>
<stop offset="1" stop-color="#A9A9A9"/>
</linearGradient>
</defs>
</svg>
