<svg width="64" height="78" viewBox="0 0 64 78" fill="none" xmlns="http://www.w3.org/2000/svg">
<path d="M20.3681 6.70783C20.1876 5.26573 19.0249 4.12934 17.5703 3.99063C19.0249 3.85192 20.1876 2.71553 20.3681 1.27344C20.5485 2.71553 21.7113 3.85192 23.1658 3.99063C21.7113 4.12934 20.5485 5.26573 20.3681 6.70783Z" fill="#FCEA10"/>
<path d="M6.58125 10.5368C6.48214 9.74495 5.84361 9.12086 5.04492 9.04477C5.84361 8.96849 6.48214 8.3446 6.58125 7.55273C6.68035 8.3446 7.31888 8.96869 8.11757 9.04477C7.31888 9.12105 6.68035 9.74495 6.58125 10.5368Z" fill="#FCEA10"/>
<path d="M62.7687 7.93262C62.3621 8.61933 62.4848 9.50367 63.0699 10.053C62.3917 9.62423 61.5049 9.72665 60.9416 10.2922C61.3482 9.6055 61.2253 8.72117 60.6406 8.1718C61.3186 8.6006 62.2054 8.49818 62.7687 7.93262Z" fill="#FCEA10"/>
<path d="M47.2595 2.48255C46.3931 2.64721 45.7497 3.39479 45.7214 4.28088C45.5815 3.40532 44.8488 2.74495 43.9688 2.69091C44.8351 2.52645 45.4785 1.77867 45.5068 0.892578C45.6467 1.76814 46.3795 2.42871 47.2595 2.48255Z" fill="#FCEA10"/>
<path d="M34.8714 76.0049C46.9388 76.0049 56.7213 73.7974 56.7213 71.0742C56.7213 68.3511 46.9388 66.1436 34.8714 66.1436C22.804 66.1436 13.0215 68.3511 13.0215 71.0742C13.0215 73.7974 22.804 76.0049 34.8714 76.0049Z" fill="#EDECEC"/>
<path d="M34.8726 74.4197C43.0607 74.4197 49.6984 72.9218 49.6984 71.0741C49.6984 69.2264 43.0607 67.7285 34.8726 67.7285C26.6846 67.7285 20.0469 69.2264 20.0469 71.0741C20.0469 72.9218 26.6846 74.4197 34.8726 74.4197Z" fill="#C6C6C6"/>
<path d="M13.02 40.7391C12.8926 40.7391 12.7637 40.7079 12.6443 40.6421C12.2668 40.4342 12.1292 39.9595 12.3372 39.582C15.9224 33.0731 20.5922 30.4796 23.8785 29.4501C27.4675 28.3256 30.1937 28.763 30.3078 28.7823C30.7329 28.8535 31.0197 29.256 30.9483 29.6809C30.8771 30.1052 30.4748 30.3912 30.0515 30.3217C30.0265 30.3178 27.5176 29.9273 24.2686 30.9634C19.9197 32.3503 16.3654 35.5033 13.7042 40.3349C13.5622 40.5932 13.2953 40.7391 13.02 40.7391Z" fill="#926C41"/>
<path d="M32.8864 31.8521C32.6694 31.8521 32.4539 31.7623 32.2996 31.5865C32.2793 31.5637 30.5867 29.6741 27.4202 28.4173C23.1776 26.7333 18.4297 26.919 13.3088 28.9692C12.9081 29.1298 12.4545 28.9349 12.2944 28.5348C12.1342 28.1346 12.3287 27.6805 12.7288 27.5203C19.6278 24.7584 24.8835 25.7126 28.0776 26.9992C31.5664 28.4046 33.3975 30.4708 33.4738 30.5582C33.7575 30.8829 33.7241 31.3758 33.3997 31.6593C33.2514 31.7887 33.0686 31.8521 32.8864 31.8521Z" fill="#926C41"/>
<path d="M15.4847 35.0596C14.3879 36.3046 13.3215 37.7947 12.3371 39.5819C12.1294 39.9594 12.2667 40.4341 12.6442 40.642C12.7636 40.7078 12.8927 40.739 13.0199 40.739C13.2952 40.739 13.5619 40.5931 13.7041 40.335C14.5196 38.8544 15.4197 37.5333 16.4 36.3706C16.0116 36.0059 15.6979 35.5606 15.4847 35.0596Z" fill="#AA7F53"/>
<path d="M13.3127 27.2949C13.1192 27.3675 12.9249 27.4422 12.7288 27.5206C12.3287 27.6808 12.1342 28.135 12.2944 28.5351C12.4545 28.9352 12.9081 29.1299 13.3088 28.9696C13.8879 28.7378 14.4614 28.5331 15.0307 28.349C14.453 28.0058 13.8797 27.6554 13.3127 27.2949Z" fill="#AA7F53"/>
<path d="M39.0484 30.9497C36.5659 27.591 46.3498 23.7942 50.7307 22.334C55.1116 20.8737 59.3464 12.8419 59.3464 12.8419C56.8639 13.134 52.6291 8.16899 50.8766 10.5054C49.1243 12.8419 44.4513 16.6386 42.4068 13.134C40.7308 10.2607 36.6291 9.44916 35.2045 9.24978C35.0922 9.23398 34.9804 9.22656 34.867 9.22656C34.7539 9.22656 34.6425 9.23398 34.5303 9.24978C33.1058 9.44916 29.0042 10.2607 27.3282 13.134C25.2839 16.6388 20.6109 12.8419 18.8584 10.5054C17.1062 8.16899 12.8712 13.134 10.3887 12.8419C10.3887 12.8419 14.6235 20.8736 19.0044 22.334C23.3853 23.7942 33.1692 27.591 30.6867 30.9497C28.2042 34.3083 10.3887 32.9942 10.3887 57.9652C10.3887 57.9652 11.2876 73.116 33.9726 73.4367V73.4443C34.0964 73.4443 34.2162 73.4414 34.3387 73.4404C34.4612 73.4412 34.5808 73.4443 34.7047 73.4443V73.4367C57.4119 73.116 59.3462 57.9652 59.3462 57.9652C59.3466 32.994 41.5309 34.3083 39.0484 30.9497Z" fill="#C99D67"/>
<path d="M50.7334 22.3342C54.0536 21.2275 57.2891 16.3473 58.6618 14.0484C58.1321 14.3486 57.5896 14.6219 57.0379 14.8639C55.9079 15.3594 54.7871 15.7074 53.5561 15.8338C52.1872 15.9745 50.7753 15.8235 49.4376 16.2014C47.2501 16.8192 45.2935 17.704 42.9509 17.352C40.9906 17.0576 40.1159 15.5145 38.8933 14.1695C37.8642 13.0372 36.2045 12.6791 34.7332 12.5696C33.175 12.4537 31.4424 12.5351 29.9945 13.1845C28.416 13.8927 27.9115 15.6313 26.7238 16.7724C25.1502 18.2842 22.7838 18.363 20.7898 17.7514C18.5041 17.0504 16.5324 15.5991 14.3209 14.7314C13.203 14.2928 11.98 14.1469 10.8809 13.7136C12.1171 15.8333 15.5158 21.1705 19.0069 22.3342C23.3878 23.7944 33.1717 27.5913 30.6892 30.9499C29.2418 32.9082 22.5825 33.28 17.2804 38.1974C20.0738 40.2714 25.0909 42.2194 34.0991 42.3068V42.3113C34.2059 42.3113 34.3089 42.3095 34.4146 42.3091C34.5201 42.3097 34.6231 42.3113 34.7299 42.3113V42.3068C44.0366 42.2167 49.2893 40.1446 52.241 37.9975C46.9762 33.2691 40.4782 32.8815 39.0505 30.9501C36.5686 27.5912 46.3527 23.7944 50.7334 22.3342Z" fill="#C1894D"/>
<path d="M45.8092 22.7205C45.9696 22.7312 46.1614 22.7607 46.2472 22.7607C46.3321 22.7607 46.4833 22.7379 46.623 22.7262C46.6735 22.7191 46.7254 22.7154 46.7744 22.717C47.2377 22.5943 47.6844 22.4476 48.14 22.2942C48.1612 22.287 48.1761 22.2823 48.1938 22.2765C48.4527 22.1503 48.7165 22.0344 48.974 21.905C50.0101 21.3847 51.0095 20.7868 51.9608 20.1241C52.1137 20.0175 52.4151 19.8527 52.5847 19.6976C52.6387 19.6342 52.701 19.5677 52.7595 19.5179C53.1067 19.2222 53.4474 18.9135 53.7585 18.5795C53.7979 18.5374 53.9659 18.3445 54.0845 18.2061C54.1019 18.1798 54.1193 18.1533 54.1407 18.1205C54.4306 17.6769 54.7168 17.2385 54.9708 16.7724C55.1015 16.5325 55.2258 16.2896 55.3434 16.043C55.433 15.8551 55.4929 15.7664 55.5134 15.7523C55.5608 15.64 55.6019 15.5182 55.6386 15.3926C54.9659 15.6054 54.2796 15.7586 53.5549 15.8329C52.1859 15.9736 50.7741 15.8226 49.4363 16.2004C48.4757 16.4718 47.5598 16.7943 46.636 17.0413C46.2583 18.6898 45.8592 20.3324 45.3613 21.9493C45.5451 22.1862 45.6975 22.4446 45.8092 22.7205Z" fill="#B47432"/>
<path d="M28.7962 18.7996C29.0309 19.5419 29.265 20.285 29.5317 21.0168C29.5748 21.1354 29.6202 21.253 29.6651 21.3708C29.766 21.4805 30.0412 22.1902 30.1054 22.311C30.2898 22.6567 30.4958 22.9829 30.7071 23.312C30.7278 23.3442 30.7541 23.3943 30.7789 23.4446C30.7734 23.4323 30.7687 23.422 30.7625 23.4082C30.5452 22.9206 30.7994 23.4372 30.9254 23.5748C31.1521 23.8219 31.4121 24.0311 31.649 24.2648C31.6533 24.2671 31.6558 24.2685 31.6603 24.271C31.8493 24.3797 32.028 24.5065 32.218 24.6146C32.3759 24.7043 32.5362 24.7888 32.6989 24.8692C32.7419 24.8904 32.7809 24.909 32.8164 24.9254C32.8778 24.9486 32.9241 24.9671 32.9574 24.981C33.102 25.0377 33.2467 25.0941 33.397 25.1386C33.4188 25.145 33.6453 25.18 33.8207 25.2114C33.9744 25.1835 34.761 25.0399 35.1978 24.9291C35.2628 24.8803 35.3769 24.8091 35.4427 24.8001C35.5611 24.7277 35.6848 24.6577 35.8005 24.589C35.804 24.5869 35.8084 24.584 35.8127 24.5812C35.8728 24.525 35.9372 24.4653 35.9672 24.4367C36.1202 24.2911 36.2599 24.1362 36.4044 23.9825C36.5004 23.8354 36.7269 23.5082 36.7736 23.4314C36.9376 23.1618 37.0888 22.8845 37.2312 22.6028C37.3134 22.4405 37.384 22.2716 37.4683 22.1108C37.6702 21.7251 37.344 22.3599 37.3682 22.3677C37.5307 22.4196 38.764 18.0221 38.8458 17.7042C39.0857 16.7724 39.3056 15.836 39.5194 14.898C39.3159 14.6543 39.1095 14.4089 38.892 14.1695C37.8629 13.0372 36.2033 12.6791 34.7319 12.5696C33.1738 12.4537 31.4412 12.5351 29.9932 13.1845C28.9043 13.673 28.3254 14.6516 27.6816 15.5863C28.0909 16.6423 28.453 17.7139 28.7962 18.7996Z" fill="#B47432"/>
<path d="M19.0069 22.3339C19.5032 22.4993 20.0691 22.695 20.6784 22.9162C20.6802 22.8506 20.6823 22.7849 20.6806 22.7195C20.678 22.6228 20.621 22.2954 20.629 22.2974C20.5502 21.9306 20.4505 21.5697 20.3448 21.2098C20.0771 20.2985 19.9166 19.3757 19.7867 18.4356C19.7357 18.0671 19.6874 17.6982 19.6388 17.3292C17.8209 16.5678 16.1529 15.4496 14.3209 14.7307C13.203 14.2921 11.98 14.1462 10.8809 13.7129C12.1171 15.8327 15.5156 21.17 19.0069 22.3339Z" fill="#B47432"/>
<path d="M40.0459 31.9473C40.0961 31.9115 40.1405 31.8696 40.1833 31.8259C39.6819 31.559 39.2923 31.2767 39.0506 30.9498C38.8571 30.688 38.7382 30.4236 38.6854 30.1577C33.8464 33.4007 31.2917 30.32 31.1706 30.1676C31.1393 30.1273 31.1038 30.0945 31.0691 30.0605C31.0278 30.359 30.9064 30.6562 30.6893 30.9498C30.4686 31.2484 30.1253 31.5099 29.6855 31.7565C29.8668 31.9847 30.7993 33.0754 32.4704 33.6455C33.0339 33.8377 33.7223 33.9805 34.5255 33.9805C36.0031 33.9807 37.8674 33.497 40.0459 31.9473Z" fill="#B47432"/>
<path d="M20.8906 37.8398C19.1978 39.8715 17.6162 42.6258 16.561 46.3496C16.4435 46.7642 16.6845 47.1957 17.099 47.3132C17.2301 47.3502 17.363 47.3516 17.4871 47.3229C17.7551 47.2609 17.9822 47.0586 18.0626 46.7751C18.9924 43.4935 20.4038 40.7656 22.2712 38.6071C21.8028 38.3685 21.3424 38.1128 20.8906 37.8398Z" fill="#C1894D"/>
<path d="M26.2439 35.2639C29.1757 33.5221 31.708 33.3372 31.7333 33.3354C32.1616 33.3077 32.4889 32.9384 32.4626 32.509C32.4362 32.0789 32.0662 31.7515 31.636 31.7779C31.5203 31.7847 28.7656 31.9729 25.5225 33.8774C23.6945 34.9508 21.4896 36.7214 19.5918 39.5904C20.0368 39.8091 20.5142 40.0215 21.0298 40.224C22.4358 38.1541 24.1752 36.4926 26.2439 35.2639Z" fill="#B47432"/>
<path d="M19.4082 16.0338C21.4855 18.129 25.1879 18.1392 27.2533 14.5987C28.9465 11.6962 31.7764 12.0592 33.2156 11.8579C33.329 11.8421 33.4413 11.8345 33.5556 11.8345C33.6704 11.8345 33.7831 11.8419 33.8967 11.8579C35.3356 12.0592 39.3273 11.9533 41.0207 14.856C43.0859 18.3965 47.4124 15.1543 50.3575 14.9776C53.0955 14.8133 53.9169 15.4704 59.3483 12.8419C56.8658 13.134 52.631 8.16899 50.8785 10.5054C49.1263 12.8419 44.4533 16.6386 42.4088 13.134C40.7328 10.2607 36.631 9.44916 35.2065 9.24978C35.0941 9.23398 34.9823 9.22656 34.869 9.22656C34.7558 9.22656 34.6444 9.23398 34.5323 9.24978C33.1077 9.44916 29.0062 10.2607 27.3302 13.134C25.2858 16.6388 20.6129 12.8419 18.8604 10.5054C17.1081 8.16899 12.8731 13.134 10.3906 12.8419C13.3837 13.0686 18.5391 15.1571 19.4082 16.0338Z" fill="#926C41"/>
<path d="M18.8604 11.2172C20.6127 13.5538 25.2856 17.3504 27.3302 13.8459C29.0062 10.9726 33.1077 10.161 34.5323 9.96166C34.6444 9.94585 34.7558 9.93844 34.869 9.93844C34.9825 9.93844 35.0941 9.94585 35.2065 9.96166C36.6308 10.161 40.7326 10.9726 42.4088 13.8459C44.4531 17.3506 49.1261 13.5538 50.8785 11.2172C52.3788 9.21681 55.698 12.5661 58.1799 13.3884C58.5451 13.2235 58.9316 13.0435 59.3483 12.8419C56.8658 13.134 52.631 8.16899 50.8785 10.5054C49.1263 12.8419 44.4533 16.6386 42.4088 13.134C40.7328 10.2607 36.631 9.44916 35.2065 9.24978C35.0941 9.23398 34.9823 9.22656 34.869 9.22656C34.7558 9.22656 34.6444 9.23398 34.5323 9.24978C33.1077 9.44916 29.0062 10.2607 27.3302 13.134C25.2858 16.6388 20.6129 12.8419 18.8604 10.5054C17.1081 8.16899 12.8731 13.134 10.3906 12.8419C10.9357 12.8833 11.5528 12.9869 12.2024 13.133C14.5874 12.0407 17.4868 9.38537 18.8604 11.2172Z" fill="#DCAF7E"/>
<path d="M34.7065 70.396V70.4036C34.5826 70.4036 34.4632 70.4007 34.3405 70.3997C34.2178 70.4007 34.098 70.4036 33.9743 70.4036V70.396C13.8529 70.1114 10.8723 58.1606 10.4556 55.4631C10.414 56.2673 10.3906 57.0987 10.3906 57.9651C10.3906 57.9651 11.2896 73.1159 33.9745 73.4366V73.4443C34.0984 73.4443 34.2182 73.4413 34.3407 73.4404C34.4632 73.4411 34.5828 73.4443 34.7067 73.4443V73.4366C57.4138 73.1159 59.3481 57.9651 59.3481 57.9651C59.3481 57.0504 59.3214 56.1748 59.2754 55.3291C58.774 57.7349 55.2035 70.1067 34.7065 70.396Z" fill="#C1894D"/>
<path d="M34.5244 33.0511C33.7212 33.0511 33.0327 32.9083 32.4693 32.7161C30.7038 32.1139 29.7613 30.9287 29.6597 30.7955C29.29 30.3111 29.3294 29.5713 29.7478 29.1433C30.1642 28.717 30.7992 28.7605 31.1694 29.2385C31.2931 29.3937 33.9506 32.6049 38.9865 29.0231C39.4623 28.6844 40.0848 28.8569 40.377 29.4078C40.6693 29.9587 40.5204 30.6796 40.0448 31.0179C37.8661 32.5674 36.0018 33.0511 34.5244 33.0511Z" fill="#926C41"/>
<path d="M12.6356 77.7653C19.148 77.7653 24.4274 72.4859 24.4274 65.9735C24.4274 59.461 19.148 54.1816 12.6356 54.1816C6.12313 54.1816 0.84375 59.461 0.84375 65.9735C0.84375 72.4859 6.12313 77.7653 12.6356 77.7653Z" fill="#F4900C"/>
<path d="M12.6356 76.3776C19.148 76.3776 24.4274 71.0982 24.4274 64.5858C24.4274 58.0733 19.148 52.7939 12.6356 52.7939C6.12313 52.7939 0.84375 58.0733 0.84375 64.5858C0.84375 71.0982 6.12313 76.3776 12.6356 76.3776Z" fill="#FFCC4D"/>
<path d="M12.6367 74.9892C17.9999 74.9892 22.3476 70.6415 22.3476 65.2783C22.3476 59.9151 17.9999 55.5674 12.6367 55.5674C7.27351 55.5674 2.92578 59.9151 2.92578 65.2783C2.92578 70.6415 7.27351 74.9892 12.6367 74.9892Z" fill="#FFE8B6"/>
<path d="M12.6367 74.2968C17.9999 74.2968 22.3476 69.9491 22.3476 64.5859C22.3476 59.2227 17.9999 54.875 12.6367 54.875C7.27351 54.875 2.92578 59.2227 2.92578 64.5859C2.92578 69.9491 7.27351 74.2968 12.6367 74.2968Z" fill="#FFAC33"/>
<path d="M9.27876 63.738C9.27876 63.738 9.19762 63.7723 9.16642 63.6726C9.21323 63.5947 8.95421 62.897 11.4321 62.4267C14.0909 62.0467 15.4079 62.5949 15.3673 62.5637C14.2216 62.154 12.9956 62.0185 11.7878 62.1681C9.70318 62.436 9.26628 62.8472 8.97917 63.4141C8.97917 63.4141 8.89179 62.6136 8.88867 62.4796C8.9074 62.4142 9.40359 61.3396 12.1654 61.0032C11.1422 60.9855 10.1342 61.2518 9.2538 61.7726C9.2538 61.7726 9.18826 61.5203 9.6158 61.2088C10.5283 60.6585 11.5707 60.3597 12.6367 60.3428C13.4383 60.3118 14.2388 60.4268 14.9991 60.6824C15.6981 60.9284 16.1163 61.2742 16.0851 61.567C16.0811 61.6557 16.0621 61.7431 16.0289 61.8255C16.0289 61.8255 16.4502 61.9408 16.3847 62.5326C16.3191 63.1244 16.3628 63.7162 16.0726 63.6944C16.032 63.7287 15.6919 63.1057 12.6398 63.0714C9.60644 63.1742 9.31933 63.7754 9.27876 63.738Z" fill="#FFE8B6"/>
<path d="M10.1747 67.1248C10.161 67.1095 10.1464 67.095 10.131 67.0812C10.1097 67.0635 10.0867 67.0479 10.0624 67.0345C10.0445 67.0239 10.0239 67.0185 10.0031 67.0189C9.99459 67.0186 9.98625 67.0213 9.97944 67.0264C9.97263 67.0315 9.96777 67.0387 9.96565 67.0469C9.94448 67.1058 9.92779 67.1662 9.91571 67.2276C9.91571 67.2556 9.91571 67.2806 9.90011 67.3086C9.85954 67.0345 9.81897 66.7541 9.78152 66.4769C9.64733 65.5176 9.53186 64.5551 9.43512 63.6393C9.43512 63.5459 9.4164 63.4555 9.41016 63.3652L9.7035 63.2998C9.7035 63.3683 9.7035 63.4369 9.72535 63.5023C9.74719 63.5677 9.72535 63.6206 9.74095 63.6798L9.76904 63.9415C9.85954 64.7669 9.96565 65.6235 10.0811 66.4707L10.1747 67.1248Z" fill="#FFE8B6"/>
<path d="M10.3218 68.0946L10.3 68.16C10.2913 68.1867 10.2787 68.2119 10.2625 68.2348C10.2524 68.2512 10.2398 68.2659 10.2251 68.2784C10.2179 68.2822 10.2098 68.2842 10.2017 68.2842C10.1935 68.2842 10.1855 68.2822 10.1783 68.2784C10.1635 68.2694 10.1507 68.2577 10.1405 68.2438C10.1303 68.2299 10.123 68.2141 10.119 68.1974C10.106 68.1464 10.0987 68.0942 10.0971 68.0417C10.0926 67.9742 10.0926 67.9066 10.0971 67.8392C10.0971 67.7644 10.1127 67.6928 10.1252 67.6212C10.1377 67.5495 10.1564 67.4841 10.1751 67.4187C10.1939 67.3533 10.1907 67.3626 10.2001 67.3408C10.2438 67.5962 10.2844 67.8454 10.3218 68.0946Z" fill="#FFE8B6"/>
<path d="M14.925 68.4333V68.4519C14.9235 68.4395 14.9235 68.427 14.925 68.4146L14.956 68.3896L14.925 68.4333Z" fill="#FFE8B6"/>
<path d="M15.2093 68.4407C15.15 68.8082 15.0908 69.1664 15.0315 69.5184C14.9098 70.2068 14.7849 70.8578 14.657 71.4527C13.2876 71.6209 11.8982 71.5064 10.5751 71.1163C10.4471 70.5369 10.3223 69.9046 10.2037 69.2474C10.1538 68.9546 10.1007 68.6525 10.0508 68.3441C10.0817 68.3722 10.1214 68.3887 10.1631 68.3908C10.1835 68.3936 10.2042 68.3917 10.2237 68.3852C10.2431 68.3787 10.2609 68.3678 10.2755 68.3534C10.2984 68.3296 10.3173 68.3023 10.3316 68.2725C10.3909 68.6431 10.4502 69.0044 10.5126 69.3533L10.5688 69.6648C10.6468 70.1009 10.728 70.5183 10.8091 70.9107C11.9689 71.2895 13.2024 71.3867 14.4073 71.1942C14.4853 70.8142 14.5633 70.4123 14.6382 69.9918C14.6632 69.8641 14.6851 69.7333 14.7069 69.6025C14.7548 69.3284 14.8016 69.0481 14.8473 68.7615L14.9066 68.6961L15.0315 68.5372C15.0942 68.5117 15.1538 68.4793 15.2093 68.4407Z" fill="#FFE8B6"/>
<path d="M15.2538 68.2012L15.235 68.3226C15.2066 68.3449 15.1763 68.3647 15.1445 68.3818L15.2038 68.2884L15.2538 68.2012Z" fill="#FFE8B6"/>
<path d="M15.3105 67.8467V67.9401C15.2917 67.9252 15.2688 67.9165 15.2449 67.9152C15.2231 67.9152 15.2044 67.9308 15.1919 67.9619L15.17 68.0055C15.17 68.0273 15.1451 68.0554 15.1263 68.0865L15.067 68.1831C15.0421 68.2142 15.0202 68.2454 14.9953 68.2734L14.9609 68.3108L15.0077 67.9993C15.0319 67.9742 15.0592 67.9522 15.0889 67.9339C15.1373 67.8975 15.1924 67.871 15.2512 67.856C15.2704 67.8504 15.2904 67.8472 15.3105 67.8467Z" fill="#FFE8B6"/>
<path d="M15.8621 63.2989L15.834 63.5636C15.7404 64.5604 15.6187 65.5976 15.4814 66.6255C15.4315 66.9962 15.3784 67.3637 15.3254 67.725C15.2932 67.722 15.2608 67.722 15.2286 67.725C15.1566 67.7276 15.0857 67.7434 15.0195 67.7717C15.0788 67.3886 15.1319 66.9962 15.1849 66.6037C15.3066 65.691 15.419 64.7659 15.497 63.8658C15.5126 63.7256 15.5251 63.5885 15.5376 63.4515C15.5376 63.383 15.5376 63.3144 15.5594 63.249L15.8621 63.2989Z" fill="#FFE8B6"/>
<path d="M9.57227 63.7185C9.68461 63.6905 9.80008 63.6687 9.92179 63.65C10.0435 63.6313 10.1652 63.6095 10.2932 63.5939C10.5571 63.562 10.8235 63.5536 11.0889 63.569C10.8263 63.6058 10.5674 63.6652 10.315 63.7465C10.1933 63.7839 10.0778 63.8244 9.96548 63.868C9.85313 63.9116 9.74078 63.9521 9.6534 63.9957C9.61596 63.9023 9.59411 63.8119 9.57227 63.7185Z" fill="#FFE8B6"/>
<path d="M15.6562 63.9112C15.4627 63.8427 15.2474 63.7742 15.032 63.7119C14.8167 63.6496 14.567 63.5873 14.3205 63.5375C14.074 63.4876 13.8181 63.4378 13.5559 63.4035C13.2899 63.369 13.0221 63.3503 12.7539 63.3475C13.0217 63.3097 13.2917 63.2889 13.5622 63.2852C13.8274 63.2852 14.0896 63.2852 14.3455 63.3038C14.6014 63.3225 14.8448 63.3443 15.0788 63.3755C15.3129 63.4066 15.5345 63.4409 15.7436 63.4845C15.7092 63.6247 15.6843 63.768 15.6562 63.9112Z" fill="#FFE8B6"/>
<path d="M14.8183 69.9328L14.7465 69.9578L14.681 69.9765L14.5562 70.0076C14.4709 70.0263 14.3866 70.0419 14.3034 70.0543C14.1369 70.0791 13.9692 70.0947 13.801 70.101C13.6324 70.101 13.467 70.101 13.2985 70.101L13.0457 70.0824L12.793 70.0543L13.0457 70.0387L13.2954 70.0107C13.4639 69.9889 13.6293 69.9578 13.7916 69.9204C13.9565 69.8832 14.119 69.8364 14.2784 69.7802C14.3596 69.7522 14.4376 69.7242 14.5156 69.6899L14.628 69.64L14.6841 69.612C14.7005 69.6041 14.7162 69.5947 14.7309 69.584C14.759 69.7148 14.7902 69.8176 14.8183 69.9328Z" fill="#FFE8B6"/>
<path d="M10.448 69.2969C10.5354 69.3529 10.629 69.4059 10.7226 69.4557C10.8162 69.5056 10.9067 69.5585 11.0004 69.6052C11.1858 69.6997 11.3776 69.7809 11.5746 69.8482C11.3772 69.8331 11.1811 69.8039 10.9879 69.761L10.6945 69.6893L10.4043 69.6021C10.4199 69.4993 10.4199 69.4028 10.448 69.2969Z" fill="#FFE8B6"/>
<path d="M14.4444 59.3793C14.4444 59.6098 14.4632 59.8465 14.4694 60.0894C14.4702 60.0998 14.4685 60.1101 14.4645 60.1197C14.4605 60.1292 14.4543 60.1377 14.4464 60.1444C14.4385 60.1511 14.4291 60.1558 14.419 60.1582C14.4089 60.1605 14.3983 60.1605 14.3883 60.158C14.1386 60.133 13.8858 60.1143 13.6268 60.105C13.4583 60.2545 13.2898 60.4165 13.1181 60.566L13.0151 60.4726C13.1868 60.3106 13.3553 60.1611 13.5238 60.0084C13.5238 59.7779 13.5238 59.5506 13.5082 59.3294L13.2461 59.102C12.8778 59.102 12.5033 59.1207 12.1351 59.1519C12.1254 59.1542 12.1153 59.1543 12.1055 59.1523C12.0957 59.1503 12.0865 59.1462 12.0785 59.1402C12.0705 59.1343 12.0638 59.1267 12.0591 59.1179C12.0543 59.1092 12.0515 59.0995 12.0508 59.0896C12.0508 58.7781 12.0508 58.4822 12.0664 58.205L11.9198 58.1022L11.461 58.1645C11.4142 58.1645 11.3799 58.1645 11.383 58.1146L11.4017 57.7595C11.4017 57.7284 11.4392 57.6972 11.486 57.691C11.6389 57.6692 11.7981 57.6474 11.9479 57.6318C11.9916 57.6318 12.029 57.6318 12.0259 57.6786V58.0181L12.1757 58.1177C12.5283 58.0835 12.881 58.0648 13.2336 58.0586C13.2447 58.0568 13.256 58.0573 13.2669 58.0599C13.2778 58.0626 13.2881 58.0674 13.2971 58.0741C13.3061 58.0807 13.3137 58.0892 13.3194 58.0988C13.3251 58.1084 13.3288 58.1191 13.3303 58.1302C13.3303 58.4105 13.3459 58.7064 13.3553 59.0179L13.6143 59.2453C13.8702 59.2453 14.123 59.2702 14.3695 59.2952C14.3893 59.2996 14.4071 59.3101 14.4205 59.3252C14.434 59.3403 14.4423 59.3592 14.4444 59.3793Z" fill="#FFE8B6"/>
<path d="M11.8542 59.3147C11.6701 59.3365 11.486 59.3614 11.305 59.3894C11.2835 59.3932 11.2637 59.4037 11.2486 59.4193C11.2334 59.435 11.2237 59.4551 11.2207 59.4767C11.2207 59.6355 11.2207 59.7881 11.2207 59.9563C11.2209 59.9666 11.2234 59.9766 11.228 59.9857C11.2325 59.9949 11.2391 60.0028 11.2472 60.0091C11.2553 60.0154 11.2647 60.0198 11.2746 60.022C11.2846 60.0241 11.295 60.0241 11.305 60.0218C11.486 59.9937 11.6701 59.9688 11.8573 59.9501C11.8793 59.9482 11.9 59.9387 11.9159 59.9234C11.9318 59.9081 11.9419 59.8879 11.9447 59.866C11.9447 59.7009 11.9447 59.5545 11.9447 59.3801C11.9385 59.3396 11.901 59.3116 11.8542 59.3147Z" fill="#FFE8B6"/>
<path d="M12.3436 57.5667H12.5371C12.5808 57.5667 12.6183 57.5355 12.6183 57.5044V57.3673C12.6183 57.3393 12.5808 57.3175 12.5371 57.3206H12.3468C12.3031 57.3206 12.2656 57.3518 12.2656 57.3829C12.2656 57.4141 12.2656 57.4732 12.2656 57.5168C12.2656 57.5604 12.2937 57.5823 12.3436 57.5667Z" fill="#FFE8B6"/>
<path d="M14.3364 58.4797H14.1679C14.1583 58.4779 14.1484 58.4782 14.1389 58.4806C14.1295 58.4831 14.1207 58.4876 14.1132 58.4938C14.1057 58.5001 14.0998 58.508 14.0957 58.5168C14.0917 58.5257 14.0897 58.5354 14.0899 58.5451C14.0899 58.5918 14.0899 58.6417 14.0899 58.6884C14.0927 58.7091 14.1027 58.7282 14.118 58.7424C14.1334 58.7566 14.1532 58.765 14.1741 58.7663L14.3426 58.7819C14.3894 58.7819 14.4238 58.7569 14.4207 58.7164C14.4175 58.676 14.4207 58.6199 14.4207 58.57C14.42 58.5473 14.4111 58.5256 14.3956 58.509C14.3801 58.4924 14.359 58.482 14.3364 58.4797Z" fill="#FFE8B6"/>
<path d="M14.8771 58.896C14.7793 58.8794 14.6826 58.8669 14.5869 58.8586C14.5776 58.856 14.5679 58.8558 14.5585 58.8578C14.5492 58.8598 14.5404 58.864 14.5331 58.8702C14.5257 58.8763 14.5199 58.8841 14.5163 58.8929C14.5126 58.9018 14.5111 58.9114 14.512 58.9209C14.512 59.0081 14.512 59.0984 14.512 59.1857C14.5127 59.2077 14.5219 59.2287 14.5375 59.2443C14.5531 59.2599 14.5741 59.269 14.5962 59.2698L14.8833 59.3102C14.8926 59.3128 14.9023 59.3131 14.9116 59.3111C14.921 59.3091 14.9298 59.3048 14.9371 59.2987C14.9445 59.2926 14.9502 59.2847 14.9539 59.2759C14.9576 59.2671 14.9591 59.2575 14.9582 59.2479C14.9582 59.1576 14.9582 59.0673 14.9582 58.9801C14.9563 58.9589 14.9472 58.9391 14.9324 58.9238C14.9177 58.9085 14.8982 58.8987 14.8771 58.896Z" fill="#FFE8B6"/>
<path d="M11.1098 59.2515C11.1098 59.1394 11.1098 59.0272 11.1254 58.9182C11.1254 58.8808 11.0911 58.8559 11.0443 58.8653L10.6604 58.9431C10.6396 58.9484 10.6208 58.9594 10.6059 58.9748C10.591 58.9902 10.5807 59.0094 10.5762 59.0303C10.5762 59.1394 10.5762 59.2515 10.5605 59.3636C10.5605 59.4041 10.5949 59.4259 10.6386 59.4166L11.0255 59.3387C11.0472 59.3354 11.0672 59.3251 11.0825 59.3093C11.0977 59.2936 11.1073 59.2732 11.1098 59.2515Z" fill="#FFE8B6"/>
<path d="M15.9043 66.8422C15.792 67.6365 15.664 68.437 15.5236 69.2064C15.5156 69.2493 15.4972 69.2896 15.47 69.3238C15.4428 69.358 15.4076 69.3851 15.3676 69.4026C15.2895 69.4306 15.1803 69.4711 15.0399 69.5116L14.7278 69.5926C14.0469 69.7629 13.344 69.8291 12.6432 69.7888C11.9346 69.7371 11.2365 69.5893 10.5679 69.3496L10.4836 69.3185C10.3994 69.2905 10.3213 69.2593 10.2496 69.2313C10.0967 69.1721 9.97494 69.1192 9.89068 69.0787C9.85104 69.0589 9.8164 69.0304 9.78938 68.9953C9.76235 68.9602 9.74364 68.9195 9.73465 68.8762C9.59734 68.1473 9.47563 67.3935 9.36328 66.6491C9.36328 66.5619 9.39137 66.4933 9.46314 66.4902H9.81891H10.131C10.674 66.4902 11.5197 66.4902 12.6744 66.5089C13.829 66.5276 14.6966 66.5775 15.2334 66.6179L15.5454 66.6429C15.6952 66.6429 15.8013 66.6709 15.8575 66.6834C15.9137 66.6958 15.9199 66.7488 15.9043 66.8422Z" fill="#FFE8B6"/>
</svg>
