<svg width="65" height="78" viewBox="0 0 65 78" fill="none" xmlns="http://www.w3.org/2000/svg">
<path d="M64.5246 70.6863C64.5433 70.6605 64.5569 70.6344 64.5683 70.6081C64.5716 70.6005 64.5767 70.593 64.5794 70.5854C64.5911 70.5517 64.5979 70.5175 64.5969 70.483C64.5966 70.4684 64.5948 70.4539 64.5921 70.4397L64.5768 69.8814C64.5772 69.8739 64.5802 69.8669 64.58 69.8595C64.5661 69.3505 63.142 68.9763 61.3989 69.0236C59.6557 69.0708 58.2538 69.5218 58.2677 70.0308L58.2847 70.6543C58.2856 70.6888 58.2942 70.7226 58.3077 70.7557C58.3108 70.7632 58.3161 70.7702 58.3198 70.7776C58.3324 70.8033 58.3479 70.8287 58.3678 70.8537C58.3697 70.856 58.3703 70.8584 58.3722 70.8607V70.8584C58.4339 70.9329 58.5273 71.0027 58.6489 71.0671V71.0681C58.6518 71.0696 58.6553 71.0708 58.6583 71.0724C58.7094 71.0989 58.7646 71.1247 58.8249 71.1494C58.8278 71.1506 58.8299 71.152 58.8327 71.1531V71.1529C58.9152 71.1863 59.008 71.2167 59.1062 71.246V71.2474C59.1257 71.2532 59.1473 71.2583 59.1674 71.2639C59.1994 71.2729 59.2316 71.2817 59.265 71.2903C59.2732 71.2924 59.2806 71.2948 59.289 71.2967V71.2959C59.3754 71.3174 59.4665 71.3371 59.5615 71.3554V71.3566C59.5882 71.3617 59.6165 71.3662 59.644 71.3711C59.6713 71.3759 59.6981 71.3808 59.726 71.3855C59.732 71.3865 59.7377 71.3876 59.7437 71.3886V71.3882C59.8315 71.4025 59.9222 71.4153 60.0157 71.4268V71.4274C60.0754 71.4349 60.136 71.4417 60.1977 71.4479V71.4475C60.2861 71.4565 60.3768 71.4639 60.4693 71.4704V71.4707C60.4773 71.4713 60.4856 71.4717 60.4936 71.4723C60.52 71.4741 60.5467 71.4756 60.5734 71.4772C60.5994 71.4787 60.6247 71.4805 60.6511 71.4819V71.4809C60.74 71.4854 60.8304 71.4889 60.9223 71.491V71.4918C60.9823 71.4932 61.0428 71.4942 61.1039 71.4945V71.4943C61.193 71.4949 61.2836 71.4938 61.3747 71.4922V71.4928C61.4049 71.4922 61.4349 71.4918 61.4654 71.491C61.4958 71.4903 61.5259 71.4889 61.5561 71.4879V71.4873C61.6472 71.484 61.7377 71.4803 61.8267 71.4748V71.475C61.8877 71.4713 61.948 71.467 62.0079 71.4626V71.4618C62.0996 71.4546 62.1895 71.4464 62.2781 71.437V71.438C62.3041 71.4352 62.3294 71.4321 62.355 71.429C62.3817 71.4259 62.4084 71.4229 62.4348 71.4198C62.4428 71.4189 62.451 71.4181 62.459 71.4171V71.4167C62.5509 71.4052 62.641 71.3929 62.7288 71.3792V71.3796C62.79 71.3701 62.8503 71.3599 62.9094 71.3494V71.3488C63.0021 71.3322 63.092 71.3145 63.1788 71.2956V71.2959C63.1847 71.2946 63.1904 71.2932 63.1962 71.2918C63.2239 71.2858 63.2506 71.2794 63.2778 71.2729C63.3049 71.2667 63.3328 71.2606 63.3593 71.254V71.2528C63.4531 71.2294 63.5431 71.2048 63.6281 71.1787V71.1795C63.6363 71.1769 63.6435 71.1742 63.6517 71.1717C63.6847 71.1613 63.7163 71.1508 63.7477 71.1401C63.7676 71.1334 63.7889 71.127 63.808 71.1202V71.1188C63.9044 71.0845 63.9955 71.0488 64.0761 71.0111V71.0113C64.0794 71.0098 64.0819 71.008 64.0852 71.0064C64.1436 70.9787 64.1968 70.9504 64.246 70.9214C64.2487 70.9198 64.2522 70.9183 64.255 70.9165V70.9155C64.3728 70.8447 64.4623 70.7698 64.5199 70.6921V70.6945C64.5224 70.6912 64.523 70.6886 64.5246 70.6863Z" fill="#C6C6C6"/>
<path d="M64.5051 70.153L64.4898 69.5894L63.6845 69.6113C63.1191 69.4484 62.3121 69.3586 61.4186 69.3828C60.5251 69.407 59.724 69.5404 59.1684 69.7338L58.3594 69.7556L58.3758 70.3614C58.3892 70.8559 59.7732 71.2196 61.4671 71.1737C63.1611 71.1277 64.5234 70.6895 64.5099 70.195C64.5095 70.1809 64.5078 70.1669 64.5051 70.153Z" fill="#F4900C"/>
<path d="M58.3574 69.7553L58.3738 70.361C58.3758 70.4307 58.4058 70.4976 58.4591 70.5614L58.4372 69.7529L58.3574 69.7553Z" fill="#FFAC33"/>
<path d="M58.6992 69.7461L58.7269 70.7631C58.7812 70.7918 58.8405 70.8195 58.9056 70.8456L58.8756 69.7412L58.6992 69.7461Z" fill="#FFAC33"/>
<path d="M59.1654 69.7343L59.1387 69.7351L59.1713 70.9382C59.228 70.955 59.2873 70.971 59.349 70.9862L59.3137 69.6865C59.2627 69.7019 59.2128 69.7177 59.1654 69.7343Z" fill="#FFAC33"/>
<path d="M59.5762 69.6134L59.615 71.0434C59.6725 71.0546 59.7319 71.0647 59.7923 71.0746L59.7516 69.5723C59.6915 69.5853 59.6333 69.5992 59.5762 69.6134Z" fill="#FFAC33"/>
<path d="M60.0117 69.5205L60.0548 71.112C60.1128 71.1192 60.1717 71.1259 60.2318 71.1319L60.1873 69.4912C60.1278 69.5006 60.0691 69.5103 60.0117 69.5205Z" fill="#FFAC33"/>
<path d="M60.4512 69.4547L60.4974 71.1545C60.5555 71.1586 60.6145 71.1621 60.6742 71.1652L60.6271 69.4346C60.5678 69.4408 60.5091 69.4474 60.4512 69.4547Z" fill="#FFAC33"/>
<path d="M60.8887 69.4096L60.9365 71.1737C60.9948 71.1751 61.0535 71.1761 61.113 71.1765L61.0648 69.3975C61.0055 69.401 60.9468 69.4051 60.8887 69.4096Z" fill="#FFAC33"/>
<path d="M61.4163 69.3826C61.3867 69.3834 61.3576 69.3846 61.3281 69.3857L61.3767 71.1755C61.4062 71.1749 61.4352 71.1745 61.4649 71.1737C61.4945 71.1729 61.5236 71.1718 61.5531 71.1706L61.5045 69.3809C61.475 69.3814 61.446 69.3818 61.4163 69.3826Z" fill="#FFAC33"/>
<path d="M61.7695 69.3789L61.8177 71.1579C61.877 71.1544 61.9356 71.1503 61.9939 71.1456L61.9461 69.3814C61.8878 69.3801 61.829 69.3793 61.7695 69.3789Z" fill="#FFAC33"/>
<path d="M62.207 69.3916L62.254 71.1222C62.3135 71.116 62.3721 71.1092 62.4298 71.1019L62.3836 69.4021C62.3254 69.398 62.2665 69.3945 62.207 69.3916Z" fill="#FFAC33"/>
<path d="M62.6484 69.4248L62.6929 71.0655C62.7526 71.0561 62.8109 71.0464 62.8685 71.036L62.8254 69.4445C62.7674 69.4373 62.7083 69.4309 62.6484 69.4248Z" fill="#FFAC33"/>
<path d="M63.0898 69.4814L63.1306 70.9838C63.1905 70.9707 63.249 70.9573 63.306 70.9431L63.2672 69.513C63.2092 69.5021 63.1505 69.4914 63.0898 69.4814Z" fill="#FFAC33"/>
<path d="M63.6819 69.6111C63.6337 69.5972 63.5829 69.584 63.5312 69.5713L63.5666 70.871C63.6272 70.8524 63.6858 70.8333 63.7414 70.8134L63.7088 69.6103L63.6819 69.6111Z" fill="#FFAC33"/>
<path d="M63.9727 69.6033L64.0027 70.7077C64.0663 70.6781 64.124 70.6472 64.1767 70.6156L64.149 69.5986L63.9727 69.6033Z" fill="#FFAC33"/>
<path d="M64.5063 70.1946C64.5059 70.1804 64.5042 70.1665 64.5015 70.1525L64.4862 69.5889L64.4102 69.591L64.432 70.3995C64.4819 70.3327 64.5083 70.2643 64.5063 70.1946Z" fill="#FFAC33"/>
<path d="M64.4936 69.5887C64.5071 70.0833 63.1448 70.5214 61.4509 70.5675C59.7569 70.6135 58.3729 70.2499 58.3595 69.7551C58.346 69.2606 59.7083 68.8224 61.4023 68.7764C63.096 68.7305 64.4802 69.0942 64.4936 69.5887Z" fill="#FFCC4D"/>
<path d="M63.7703 69.6083C63.7806 69.9864 62.7388 70.3216 61.4438 70.3567C60.1487 70.3918 59.0905 70.1138 59.0802 69.7357C59.0698 69.3576 60.1116 69.0225 61.4066 68.9874C62.7018 68.9523 63.7599 69.2303 63.7703 69.6083Z" fill="#FFCC4D"/>
<path d="M61.4124 69.1981C62.5847 69.1663 63.5629 69.391 63.7455 69.7145C63.7627 69.6795 63.7713 69.6442 63.7703 69.6083C63.7599 69.2303 62.7018 68.9523 61.4066 68.9874C60.1114 69.0225 59.0698 69.3575 59.0802 69.7357C59.0811 69.7716 59.0917 69.8065 59.1108 69.8403C59.2756 69.5073 60.2402 69.2299 61.4124 69.1981Z" fill="#FFAC33"/>
<path d="M58.2785 76.842C58.3013 76.8104 58.3181 76.7784 58.3319 76.7463C58.336 76.7371 58.3421 76.7279 58.3454 76.7185C58.3598 76.6772 58.368 76.6354 58.3668 76.5933C58.3664 76.5755 58.3641 76.5578 58.3608 76.5402L58.3423 75.858C58.3428 75.849 58.3463 75.8403 58.3462 75.8313C58.3294 75.2093 56.5886 74.7519 54.458 74.8096C52.3275 74.8674 50.6142 75.4185 50.631 76.0406L50.6517 76.8026C50.6528 76.8448 50.6634 76.8859 50.68 76.9265C50.6837 76.9355 50.6903 76.9443 50.6948 76.953C50.7104 76.9845 50.7291 77.0157 50.7535 77.0459C50.7558 77.0486 50.7566 77.0518 50.759 77.0545V77.0518C50.8343 77.1427 50.9484 77.2281 51.097 77.3069V77.3081C51.1006 77.3099 51.1049 77.3116 51.1084 77.3134C51.1708 77.346 51.2383 77.3774 51.312 77.4074C51.3155 77.4088 51.3181 77.4105 51.3216 77.4119C51.4225 77.4525 51.536 77.4897 51.6558 77.5252V77.5268C51.6798 77.5338 51.7061 77.5403 51.7307 77.5471C51.7699 77.558 51.8089 77.5689 51.8499 77.5793C51.86 77.5818 51.869 77.5847 51.8792 77.5873V77.5863C51.9847 77.6124 52.0961 77.6366 52.2122 77.6589V77.6602C52.245 77.6665 52.2795 77.6721 52.313 77.678C52.3464 77.6838 52.3792 77.6899 52.4133 77.6956C52.4207 77.6967 52.4278 77.6981 52.4352 77.6995V77.6989C52.5425 77.7162 52.6535 77.7318 52.7676 77.7461V77.7467C52.8406 77.7556 52.9147 77.764 52.9902 77.7716V77.7712C53.0983 77.7822 53.2091 77.7913 53.322 77.7991V77.7997C53.3318 77.8005 53.3421 77.8009 53.3519 77.8015C53.3841 77.8036 53.4168 77.8056 53.4494 77.8073C53.481 77.8093 53.5122 77.8114 53.5442 77.8132V77.812C53.6531 77.8175 53.7633 77.8218 53.8757 77.8243V77.8253C53.949 77.827 54.023 77.8282 54.0977 77.8286V77.8282C54.2066 77.829 54.3174 77.8276 54.4288 77.8255V77.8263C54.4656 77.8255 54.5025 77.8251 54.5396 77.8241C54.5768 77.8231 54.6135 77.8216 54.6504 77.8202V77.8194C54.7618 77.8155 54.8722 77.8107 54.9811 77.8042V77.8046C55.0556 77.8001 55.1293 77.7949 55.2025 77.7892V77.7884C55.3145 77.7796 55.4243 77.7695 55.5328 77.7582V77.7593C55.5646 77.756 55.5954 77.7521 55.6268 77.7484C55.6594 77.7447 55.6922 77.7412 55.7244 77.7371C55.7341 77.7359 55.7443 77.735 55.754 77.7336V77.733C55.8664 77.719 55.9766 77.7039 56.0839 77.6872V77.6876C56.1588 77.6759 56.2324 77.6636 56.3047 77.6505V77.6499C56.4179 77.6296 56.5279 77.608 56.6341 77.5847V77.5853C56.6413 77.5838 56.6481 77.582 56.6553 77.5805C56.6893 77.573 56.7218 77.565 56.755 77.5574C56.7882 77.5496 56.8223 77.5424 56.8547 77.5344V77.5329C56.9694 77.5042 57.0792 77.4741 57.1834 77.4423V77.4433C57.1934 77.4402 57.2024 77.4369 57.2123 77.4337C57.2527 77.4213 57.2911 77.4082 57.3297 77.3951C57.3539 77.3869 57.3801 77.3791 57.4035 77.3709V77.3694C57.5213 77.3274 57.6325 77.2839 57.731 77.2379V77.2381C57.7351 77.2361 57.7381 77.2342 57.7422 77.2322C57.8134 77.1985 57.8785 77.1637 57.9388 77.1282C57.9421 77.1263 57.9466 77.1243 57.9499 77.1224V77.1212C58.0939 77.0346 58.2033 76.9431 58.2736 76.8481V76.851C58.2757 76.8481 58.2763 76.845 58.2785 76.842Z" fill="#C6C6C6"/>
<path d="M58.2517 76.1902L58.233 75.5014L57.2488 75.5281C56.5578 75.3291 55.5714 75.2193 54.4793 75.2489C53.3872 75.2786 52.4082 75.4417 51.7289 75.6779L50.7402 75.7047L50.7603 76.4452C50.7767 77.0496 52.4683 77.4942 54.5386 77.438C56.6089 77.3818 58.274 76.8463 58.2576 76.2417C58.2572 76.2244 58.255 76.2072 58.2517 76.1902Z" fill="#F4900C"/>
<path d="M50.7402 75.7047L50.7603 76.4452C50.7627 76.5303 50.7993 76.6122 50.8645 76.6901L50.8378 75.7021L50.7402 75.7047Z" fill="#FFAC33"/>
<path d="M51.1582 75.6934L51.192 76.9365C51.2583 76.9716 51.3307 77.0053 51.4103 77.0373L51.3736 75.6875L51.1582 75.6934Z" fill="#FFAC33"/>
<path d="M51.7281 75.6779L51.6953 75.6786L51.7351 77.149C51.8044 77.1695 51.8771 77.189 51.9522 77.2077L51.9091 75.6191C51.8471 75.6383 51.786 75.6578 51.7281 75.6779Z" fill="#FFAC33"/>
<path d="M52.2285 75.5308L52.2759 77.2786C52.3462 77.2921 52.4187 77.3047 52.4927 77.3166L52.4429 75.4805C52.3692 75.4967 52.2982 75.5134 52.2285 75.5308Z" fill="#FFAC33"/>
<path d="M52.7637 75.4168L52.8165 77.362C52.8874 77.3708 52.9595 77.3788 53.0329 77.3862L52.9785 75.3809C52.9055 75.3924 52.8339 75.4041 52.7637 75.4168Z" fill="#FFAC33"/>
<path d="M53.2988 75.3361L53.3552 77.4136C53.4264 77.4185 53.4982 77.423 53.5712 77.4267L53.5138 75.3115C53.4412 75.3191 53.3695 75.3273 53.2988 75.3361Z" fill="#FFAC33"/>
<path d="M53.8359 75.2824L53.8945 77.4385C53.9657 77.4401 54.0377 77.4413 54.1102 77.4418L54.0513 75.2676C53.9787 75.2719 53.9069 75.2769 53.8359 75.2824Z" fill="#FFAC33"/>
<path d="M54.4788 75.2482C54.4427 75.2492 54.407 75.2508 54.3711 75.2519L54.4304 77.4393C54.4663 77.4387 54.502 77.4381 54.5381 77.4371C54.5742 77.4362 54.6099 77.4346 54.6458 77.4334L54.5865 75.2461C54.5508 75.2467 54.5151 75.2473 54.4788 75.2482Z" fill="#FFAC33"/>
<path d="M54.9082 75.2441L54.9671 77.4184C55.0395 77.4141 55.1113 77.409 55.1823 77.4034L55.1238 75.2473C55.0526 75.2459 54.9808 75.2447 54.9082 75.2441Z" fill="#FFAC33"/>
<path d="M55.4453 75.2588L55.5027 77.3739C55.5752 77.3663 55.6468 77.3579 55.7177 77.3492L55.6613 75.2717C55.5903 75.2668 55.5183 75.2625 55.4453 75.2588Z" fill="#FFAC33"/>
<path d="M55.9844 75.2998L56.0388 77.3051C56.1118 77.2938 56.1832 77.2817 56.2534 77.2692L56.2005 75.324C56.1299 75.3152 56.0577 75.3072 55.9844 75.2998Z" fill="#FFAC33"/>
<path d="M56.5234 75.3701L56.5732 77.2063C56.6463 77.1903 56.7179 77.1739 56.7874 77.1565L56.74 75.4087C56.6696 75.3951 56.5976 75.382 56.5234 75.3701Z" fill="#FFAC33"/>
<path d="M57.2486 75.5283C57.1895 75.5113 57.1277 75.4951 57.0645 75.4795L57.1076 77.0681C57.1817 77.0455 57.2533 77.0221 57.3212 76.9979L57.2814 75.5275L57.2486 75.5283Z" fill="#FFAC33"/>
<path d="M57.6016 75.5176L57.6382 76.8674C57.7159 76.8311 57.7865 76.7935 57.8509 76.7548L57.8171 75.5117L57.6016 75.5176Z" fill="#FFAC33"/>
<path d="M58.2583 76.2413C58.2579 76.224 58.2555 76.2068 58.2524 76.1898L58.2337 75.501L58.1406 75.5035L58.1674 76.4914C58.2284 76.4101 58.2606 76.3264 58.2583 76.2413Z" fill="#FFAC33"/>
<path d="M58.2376 75.5015C58.254 76.1059 56.5891 76.6416 54.5186 76.6978C52.4484 76.754 50.7567 76.3096 50.7404 75.705C50.724 75.1006 52.3891 74.5649 54.4593 74.5087C56.5296 74.4525 58.2212 74.8969 58.2376 75.5015Z" fill="#FFCC4D"/>
<path d="M57.3554 75.5245C57.3679 75.9866 56.095 76.3961 54.512 76.439C52.9291 76.482 51.6356 76.1421 51.6231 75.6799C51.6107 75.2178 52.8836 74.8083 54.4666 74.7654C56.0495 74.7225 57.3429 75.0623 57.3554 75.5245Z" fill="#FFCC4D"/>
<path d="M54.4736 75.0231C55.9065 74.9843 57.102 75.2589 57.325 75.6542C57.3461 75.6117 57.3566 75.5684 57.3554 75.5245C57.3429 75.0623 56.0495 74.7225 54.4666 74.7654C52.8836 74.8083 51.6105 75.2178 51.6231 75.68C51.6243 75.7237 51.6372 75.7664 51.6604 75.8079C51.8619 75.4014 53.0407 75.0621 54.4736 75.0231Z" fill="#FFAC33"/>
<path d="M56.2393 66.9138C56.251 66.8974 56.2598 66.8811 56.267 66.8645C56.2691 66.8596 56.2722 66.8549 56.274 66.8502C56.2814 66.8288 56.2857 66.8073 56.2851 66.7855C56.2849 66.7763 56.2838 66.7671 56.282 66.7582L56.2724 66.4056C56.2726 66.4009 56.2746 66.3965 56.2744 66.3918C56.2656 66.0703 55.3661 65.834 54.265 65.8639C53.1639 65.8937 52.2786 66.1785 52.2872 66.5001L52.2979 66.8939C52.2985 66.9158 52.3039 66.9371 52.3125 66.9579C52.3145 66.9626 52.3178 66.9671 52.3201 66.9716C52.3281 66.9878 52.3379 67.004 52.3506 67.0196C52.3517 67.0209 52.3521 67.0225 52.3533 67.0241V67.0225C52.3923 67.0695 52.4512 67.1136 52.5279 67.1544V67.155C52.5297 67.1559 52.532 67.1567 52.5338 67.1577C52.566 67.1745 52.6009 67.1909 52.6391 67.2063C52.6409 67.2071 52.6422 67.2078 52.6442 67.2086C52.6963 67.2297 52.755 67.249 52.8168 67.2673V67.2681C52.8291 67.2718 52.8428 67.2749 52.8555 67.2787C52.8758 67.2843 52.896 67.29 52.9171 67.2952C52.9224 67.2966 52.9271 67.298 52.9323 67.2993V67.2987C52.987 67.3122 53.0445 67.3247 53.1044 67.3362V67.337C53.1214 67.3403 53.1391 67.343 53.1565 67.3462C53.1737 67.3493 53.1906 67.3524 53.2084 67.3553C53.2123 67.3559 53.2158 67.3567 53.2197 67.3573V67.3571C53.2751 67.3661 53.3325 67.3742 53.3914 67.3815V67.3819C53.429 67.3865 53.4673 67.3908 53.5065 67.3947V67.3945C53.5623 67.4002 53.6196 67.4049 53.678 67.409V67.4092C53.683 67.4096 53.6883 67.4098 53.6934 67.4101C53.7101 67.4113 53.7269 67.4123 53.7439 67.4133C53.7603 67.4142 53.7763 67.4154 53.7929 67.4162V67.4156C53.849 67.4185 53.906 67.4207 53.9642 67.422V67.4224C54.002 67.4234 54.0402 67.424 54.0789 67.4242V67.424C54.1352 67.4244 54.1924 67.4236 54.25 67.4226V67.423C54.2691 67.4226 54.288 67.4224 54.3073 67.4218C54.3264 67.4213 54.3455 67.4205 54.3647 67.4199V67.4195C54.4222 67.4176 54.4794 67.415 54.5356 67.4117V67.4119C54.5742 67.4096 54.6122 67.4068 54.6501 67.4039V67.4035C54.708 67.399 54.7648 67.3938 54.8208 67.3879V67.3885C54.8372 67.3867 54.8532 67.3848 54.8694 67.3828C54.8861 67.3809 54.9031 67.3791 54.9197 67.377C54.9248 67.3764 54.93 67.3758 54.9351 67.3752V67.3748C54.9931 67.3676 55.05 67.3598 55.1056 67.3512V67.3514C55.1444 67.3454 55.1825 67.3389 55.2197 67.3323V67.3319C55.2783 67.3214 55.335 67.3103 55.3899 67.2984C55.3936 67.2976 55.3971 67.2968 55.4008 67.296C55.4183 67.2921 55.4351 67.288 55.4523 67.2841C55.4695 67.28 55.487 67.2763 55.5038 67.2722V67.2714C55.5631 67.2566 55.6199 67.2412 55.6737 67.2246V67.2252C55.679 67.2236 55.6835 67.2219 55.6887 67.2203C55.7096 67.2139 55.7295 67.2071 55.7494 67.2004C55.7619 67.1961 55.7754 67.1922 55.7874 67.1879V67.1872C55.8483 67.1655 55.9059 67.1429 55.9568 67.1191C55.9589 67.1181 55.9605 67.1169 55.9624 67.116C55.9993 67.0986 56.0331 67.0806 56.0641 67.0621C56.0658 67.0611 56.0682 67.0602 56.0697 67.059V67.0584C56.1443 67.0137 56.2007 66.9663 56.2369 66.9173V66.9187C56.2377 66.917 56.2381 66.9154 56.2393 66.9138Z" fill="#C6C6C6"/>
<path d="M56.2254 66.5767L56.2159 66.2207L55.7073 66.2346C55.3501 66.1318 54.8403 66.075 54.2761 66.0904C53.7117 66.1056 53.2058 66.1901 52.8547 66.312L52.3438 66.3259L52.3541 66.7086C52.3625 67.021 53.2369 67.2508 54.3067 67.2217C55.3766 67.1926 56.2371 66.9158 56.2285 66.6035C56.2282 66.5945 56.227 66.5855 56.2254 66.5767Z" fill="#F4900C"/>
<path d="M52.3438 66.3254L52.3541 66.7082C52.3553 66.7522 52.3742 66.7944 52.4079 66.8348L52.3941 66.3242L52.3438 66.3254Z" fill="#FFAC33"/>
<path d="M52.5605 66.3195L52.5779 66.962C52.6122 66.9801 52.6497 66.9975 52.6907 67.014L52.6717 66.3164L52.5605 66.3195Z" fill="#FFAC33"/>
<path d="M52.8549 66.3117L52.8379 66.3121L52.8586 67.0719C52.8945 67.0825 52.9319 67.0926 52.9707 67.1022L52.9485 66.2812C52.9163 66.2912 52.8849 66.3011 52.8549 66.3117Z" fill="#FFAC33"/>
<path d="M53.1133 66.2359L53.1379 67.1392C53.1741 67.1462 53.2116 67.1526 53.2498 67.1589L53.2241 66.21C53.186 66.2182 53.1494 66.2269 53.1133 66.2359Z" fill="#FFAC33"/>
<path d="M53.3906 66.1777L53.4179 67.183C53.4546 67.1875 53.4919 67.1918 53.5297 67.1955L53.5016 66.1592C53.4638 66.165 53.4269 66.1711 53.3906 66.1777Z" fill="#FFAC33"/>
<path d="M53.666 66.1357L53.6951 67.2093C53.732 67.2118 53.769 67.2142 53.8067 67.2161L53.777 66.123C53.7398 66.1269 53.7027 66.131 53.666 66.1357Z" fill="#FFAC33"/>
<path d="M53.9434 66.1082L53.9736 67.2225C54.0105 67.2233 54.0475 67.2241 54.085 67.2243L54.0546 66.1006C54.0171 66.1027 53.98 66.1055 53.9434 66.1082Z" fill="#FFAC33"/>
<path d="M54.2763 66.09C54.2576 66.0906 54.2392 66.0914 54.2207 66.092L54.2513 67.2223C54.2699 67.2219 54.2884 67.2218 54.3069 67.2212C54.3257 67.2206 54.344 67.2198 54.3625 67.2192L54.3319 66.0889C54.3134 66.0893 54.2948 66.0895 54.2763 66.09Z" fill="#FFAC33"/>
<path d="M54.498 66.0879L54.5285 67.2116C54.5659 67.2093 54.603 67.2067 54.6397 67.2038L54.6094 66.0896C54.5728 66.0887 54.5357 66.0881 54.498 66.0879Z" fill="#FFAC33"/>
<path d="M54.7773 66.0957L54.807 67.1888C54.8445 67.1849 54.8815 67.1806 54.918 67.1759L54.8889 66.1021C54.8523 66.0998 54.815 66.0977 54.7773 66.0957Z" fill="#FFAC33"/>
<path d="M55.0547 66.1162L55.0828 67.1525C55.1204 67.1467 55.1573 67.1404 55.1938 67.134L55.1665 66.1287C55.13 66.124 55.0927 66.1199 55.0547 66.1162Z" fill="#FFAC33"/>
<path d="M55.332 66.1523L55.3578 67.1013C55.3956 67.0931 55.4327 67.0845 55.4686 67.0755L55.444 66.1722C55.4075 66.1652 55.3705 66.1586 55.332 66.1523Z" fill="#FFAC33"/>
<path d="M55.7085 66.2351C55.6781 66.2263 55.6461 66.218 55.6133 66.21L55.6355 67.0309C55.6738 67.0192 55.7108 67.0071 55.7459 66.9946L55.7253 66.2347L55.7085 66.2351Z" fill="#FFAC33"/>
<path d="M55.8906 66.2285L55.9096 66.9261C55.9497 66.9074 55.9862 66.8879 56.0194 66.868L56.002 66.2256L55.8906 66.2285Z" fill="#FFAC33"/>
<path d="M56.2286 66.6033C56.2284 66.5943 56.2273 66.5855 56.2255 66.5767L56.216 66.2207L56.168 66.2221L56.1818 66.7326C56.2132 66.6907 56.23 66.6474 56.2286 66.6033Z" fill="#FFAC33"/>
<path d="M56.2185 66.2206C56.2269 66.533 55.3665 66.8098 54.2965 66.8389C53.2266 66.8679 52.3524 66.6381 52.3438 66.3258C52.3354 66.0135 53.1958 65.7366 54.2656 65.7076C55.3359 65.6785 56.2101 65.9083 56.2185 66.2206Z" fill="#FFCC4D"/>
<path d="M55.7633 66.2331C55.7697 66.4718 55.1119 66.6835 54.2938 66.7058C53.4758 66.728 52.8075 66.5524 52.8008 66.3134C52.7942 66.0745 53.4522 65.863 54.2702 65.8407C55.0882 65.8187 55.7566 65.9943 55.7633 66.2331Z" fill="#FFCC4D"/>
<path d="M54.2738 65.974C55.0143 65.9539 55.6322 66.0959 55.7475 66.3002C55.7584 66.2781 55.7638 66.2557 55.7633 66.2331C55.7568 65.9943 55.0882 65.8187 54.2702 65.8407C53.4522 65.863 52.7942 66.0745 52.8008 66.3134C52.8014 66.3361 52.808 66.3581 52.8201 66.3796C52.9241 66.1695 53.5334 65.9941 54.2738 65.974Z" fill="#FFAC33"/>
<path d="M60.5908 63.1875C60.6026 63.1713 60.6113 63.1547 60.6185 63.1379C60.6207 63.133 60.6238 63.1284 60.6256 63.1237C60.633 63.1022 60.6373 63.0808 60.6367 63.0589C60.6365 63.0497 60.6353 63.0406 60.6336 63.0316L60.624 62.6791C60.6242 62.6744 60.6262 62.6699 60.626 62.6652C60.6172 62.3437 59.7176 62.1075 58.6165 62.1373C57.5155 62.1672 56.6301 62.452 56.6387 62.7735L56.6495 63.1674C56.6501 63.1892 56.6555 63.2105 56.6641 63.2314C56.666 63.236 56.6694 63.2405 56.6717 63.245C56.6797 63.2612 56.6895 63.2774 56.7021 63.293C56.7033 63.2944 56.7037 63.2959 56.7049 63.2975V63.2961C56.7439 63.3432 56.8028 63.3872 56.8795 63.428V63.4286C56.8812 63.4296 56.8836 63.4304 56.8853 63.4313C56.9177 63.4481 56.9524 63.4645 56.9907 63.4799C56.9924 63.4807 56.9938 63.4815 56.9956 63.4823C57.0476 63.5033 57.1064 63.5226 57.1682 63.541V63.5418C57.1805 63.5455 57.1942 63.5486 57.207 63.5523C57.2273 63.5579 57.2474 63.5636 57.2687 63.5689C57.2739 63.5702 57.2786 63.5716 57.2839 63.573V63.5724C57.3385 63.5858 57.3961 63.5983 57.456 63.6098V63.6106C57.4729 63.6139 57.4907 63.6167 57.5081 63.6198C57.5252 63.6229 57.5422 63.626 57.5599 63.629C57.5638 63.6295 57.5674 63.6303 57.5713 63.6309V63.6305C57.6267 63.6395 57.684 63.6477 57.7429 63.6549V63.6553C57.7806 63.66 57.819 63.6643 57.858 63.6682V63.668C57.9138 63.6736 57.9712 63.6783 58.0295 63.6824V63.6826C58.0346 63.683 58.0399 63.6832 58.0449 63.6836C58.0617 63.6848 58.0785 63.6857 58.0955 63.6867C58.1119 63.6877 58.1278 63.6888 58.1444 63.6896V63.689C58.2006 63.6918 58.2578 63.6941 58.3157 63.6955V63.6959C58.3536 63.6969 58.3918 63.6974 58.4304 63.6976V63.6974C58.4868 63.6978 58.544 63.6972 58.6015 63.6961V63.6965C58.6206 63.6961 58.6396 63.6959 58.6589 63.6953C58.678 63.6947 58.6971 63.6939 58.7162 63.6933V63.6929C58.7738 63.6908 58.831 63.6885 58.8871 63.685V63.6851C58.9258 63.6828 58.9638 63.6801 59.0016 63.6771V63.6768C59.0596 63.6723 59.1164 63.667 59.1724 63.6611V63.6617C59.1887 63.66 59.2047 63.658 59.2209 63.6561C59.2379 63.6541 59.2547 63.6524 59.2713 63.6502C59.2763 63.6496 59.2816 63.6491 59.2867 63.6485V63.6483C59.3448 63.6411 59.4016 63.6333 59.4572 63.6247C59.496 63.6186 59.5339 63.6124 59.5713 63.6057V63.6054C59.6298 63.5948 59.6866 63.5837 59.7414 63.5718V63.572C59.7451 63.5712 59.7486 63.5702 59.7524 63.5695C59.7699 63.5656 59.7867 63.5615 59.8039 63.5576C59.821 63.5537 59.8386 63.5498 59.8554 63.5457V63.5449C59.9147 63.53 59.9714 63.5146 60.0253 63.4981V63.4986C60.0305 63.4971 60.035 63.4953 60.0401 63.4938C60.061 63.4873 60.0809 63.4805 60.1008 63.4739C60.1133 63.4696 60.1267 63.4657 60.1388 63.4614V63.4606C60.1997 63.4389 60.2572 63.4163 60.3082 63.3925C60.3103 63.3915 60.3119 63.3906 60.314 63.3894C60.3509 63.372 60.3846 63.3541 60.4157 63.3355C60.4174 63.3346 60.4197 63.3336 60.4213 63.3324V63.3318C60.4958 63.2872 60.5522 63.2398 60.5885 63.1908V63.1924C60.5893 63.1906 60.5897 63.189 60.5908 63.1875Z" fill="#C6C6C6"/>
<path d="M60.577 62.8502L60.5674 62.4941L60.0588 62.508C59.7016 62.4052 59.1919 62.3484 58.6277 62.3638C58.0633 62.3792 57.5574 62.4635 57.2062 62.5854L56.6953 62.5993L56.7057 62.9821C56.714 63.2944 57.5884 63.5242 58.6583 63.4951C59.7282 63.4661 60.5887 63.1893 60.5803 62.8769C60.5797 62.8679 60.5786 62.859 60.577 62.8502Z" fill="#F4900C"/>
<path d="M56.6934 62.5988L56.7037 62.9816C56.7049 63.0257 56.7238 63.0678 56.7575 63.1082L56.7437 62.5977L56.6934 62.5988Z" fill="#FFAC33"/>
<path d="M56.9102 62.593L56.9275 63.2354C56.9619 63.2535 56.9993 63.2709 57.0403 63.2875L57.0214 62.5898L56.9102 62.593Z" fill="#FFAC33"/>
<path d="M57.2045 62.5851L57.1875 62.5855L57.2082 63.3454C57.2441 63.3559 57.2815 63.3661 57.3206 63.3756L57.2983 62.5547C57.2659 62.5646 57.2345 62.5748 57.2045 62.5851Z" fill="#FFAC33"/>
<path d="M57.4629 62.5093L57.4875 63.4126C57.5238 63.4196 57.5612 63.4261 57.5995 63.4323L57.5737 62.4834C57.5357 62.4916 57.499 62.5004 57.4629 62.5093Z" fill="#FFAC33"/>
<path d="M57.7383 62.4512L57.7656 63.4564C57.8023 63.4609 57.8395 63.4652 57.8774 63.4689L57.8493 62.4326C57.8116 62.4385 57.7746 62.4447 57.7383 62.4512Z" fill="#FFAC33"/>
<path d="M58.0156 62.4092L58.0447 63.4827C58.0816 63.4853 58.1186 63.4876 58.1563 63.4896L58.1266 62.3965C58.0894 62.4004 58.0523 62.4047 58.0156 62.4092Z" fill="#FFAC33"/>
<path d="M58.293 62.3816L58.3232 63.496C58.3601 63.4968 58.3971 63.4973 58.4346 63.4977L58.4042 62.374C58.3667 62.3762 58.3296 62.3787 58.293 62.3816Z" fill="#FFAC33"/>
<path d="M58.6259 62.3635C58.6072 62.3641 58.5888 62.3648 58.5703 62.3654L58.6009 63.4958C58.6195 63.4954 58.638 63.4952 58.6565 63.4946C58.6751 63.494 58.6936 63.4932 58.7121 63.4926L58.6815 62.3623C58.663 62.3627 58.6446 62.3629 58.6259 62.3635Z" fill="#FFAC33"/>
<path d="M58.8477 62.3613L58.8781 63.485C58.9155 63.4827 58.9526 63.4802 58.9893 63.4772L58.9591 62.3629C58.9222 62.3623 58.8851 62.3617 58.8477 62.3613Z" fill="#FFAC33"/>
<path d="M59.125 62.3691L59.1547 63.4622C59.1921 63.4583 59.2292 63.454 59.2657 63.4494L59.2366 62.3758C59.1999 62.3732 59.1627 62.3711 59.125 62.3691Z" fill="#FFAC33"/>
<path d="M59.4023 62.3896L59.4304 63.426C59.4681 63.4201 59.505 63.4139 59.5414 63.4074L59.5141 62.4021C59.4776 62.3977 59.4404 62.3936 59.4023 62.3896Z" fill="#FFAC33"/>
<path d="M59.6836 62.4258L59.7093 63.3747C59.7472 63.3665 59.7843 63.3579 59.8202 63.3489L59.7956 62.4457C59.7591 62.4389 59.722 62.432 59.6836 62.4258Z" fill="#FFAC33"/>
<path d="M60.0581 62.5076C60.0277 62.4988 59.9957 62.4904 59.9629 62.4824L59.9851 63.3034C60.0234 63.2917 60.0604 63.2796 60.0955 63.2671L60.0749 62.5072L60.0581 62.5076Z" fill="#FFAC33"/>
<path d="M60.2402 62.5029L60.2592 63.2006C60.2993 63.1818 60.3358 63.1623 60.369 63.1424L60.3516 62.5L60.2402 62.5029Z" fill="#FFAC33"/>
<path d="M60.5783 62.8767C60.5781 62.8677 60.5769 62.859 60.5751 62.8502L60.5656 62.4941L60.5176 62.4955L60.5314 63.0061C60.5626 62.9639 60.5794 62.9206 60.5783 62.8767Z" fill="#FFAC33"/>
<path d="M60.5698 62.4941C60.5784 62.8064 59.7179 63.0832 58.648 63.1123C57.5782 63.1414 56.704 62.9115 56.6954 62.5992C56.687 62.2869 57.5473 62.01 58.6172 61.981C59.6873 61.9521 60.5614 62.1817 60.5698 62.4941Z" fill="#FFCC4D"/>
<path d="M60.1129 62.5065C60.1193 62.7453 59.4615 62.957 58.6434 62.9792C57.8254 63.0015 57.1569 62.8259 57.1504 62.5869C57.144 62.3481 57.8018 62.1364 58.6198 62.1142C59.4378 62.092 60.1064 62.2675 60.1129 62.5065Z" fill="#FFCC4D"/>
<path d="M58.6234 62.2474C59.3639 62.2274 59.9818 62.3694 60.0971 62.5736C60.108 62.5516 60.1134 62.5292 60.1129 62.5065C60.1064 62.2677 59.4379 62.092 58.6198 62.1142C57.8018 62.1364 57.1438 62.3481 57.1504 62.5869C57.151 62.6095 57.1577 62.6316 57.1698 62.653C57.2735 62.4429 57.8828 62.2675 58.6234 62.2474Z" fill="#FFAC33"/>
<path d="M20.122 6.70783C19.9415 5.26573 18.7788 4.12934 17.3242 3.99063C18.7788 3.85192 19.9415 2.71553 20.122 1.27344C20.3024 2.71553 21.4652 3.85192 22.9198 3.99063C21.4652 4.12934 20.3024 5.26573 20.122 6.70783Z" fill="#FCEA10"/>
<path d="M6.33515 10.5368C6.23605 9.74495 5.59752 9.12086 4.79883 9.04477C5.59752 8.96849 6.23605 8.3446 6.33515 7.55273C6.43426 8.3446 7.07278 8.96869 7.87147 9.04477C7.07278 9.12105 6.43426 9.74495 6.33515 10.5368Z" fill="#FCEA10"/>
<path d="M62.5226 7.93262C62.116 8.61933 62.2387 9.50367 62.8238 10.053C62.1456 9.62423 61.2588 9.72665 60.6956 10.2922C61.1021 9.6055 60.9792 8.72117 60.3945 8.1718C61.0725 8.6006 61.9593 8.49818 62.5226 7.93262Z" fill="#FCEA10"/>
<path d="M47.0134 2.48255C46.147 2.64721 45.5036 3.39479 45.4753 4.28088C45.3355 3.40532 44.6027 2.74495 43.7227 2.69091C44.589 2.52645 45.2324 1.77867 45.2607 0.892578C45.4006 1.76814 46.1334 2.42871 47.0134 2.48255Z" fill="#FCEA10"/>
<path d="M34.6253 76.0049C46.6927 76.0049 56.4752 73.7974 56.4752 71.0742C56.4752 68.3511 46.6927 66.1436 34.6253 66.1436C22.5579 66.1436 12.7754 68.3511 12.7754 71.0742C12.7754 73.7974 22.5579 76.0049 34.6253 76.0049Z" fill="#EDECEC"/>
<path d="M34.6265 74.4197C42.8146 74.4197 49.4523 72.9218 49.4523 71.0741C49.4523 69.2264 42.8146 67.7285 34.6265 67.7285C26.4385 67.7285 19.8008 69.2264 19.8008 71.0741C19.8008 72.9218 26.4385 74.4197 34.6265 74.4197Z" fill="#C6C6C6"/>
<path d="M12.7739 40.7391C12.6465 40.7391 12.5176 40.7079 12.3982 40.6421C12.0207 40.4342 11.8832 39.9595 12.0911 39.582C15.6763 33.0731 20.3461 30.4796 23.6324 29.4501C27.2214 28.3256 29.9476 28.763 30.0617 28.7823C30.4868 28.8535 30.7736 29.256 30.7022 29.6809C30.631 30.1052 30.2287 30.3912 29.8054 30.3217C29.7804 30.3178 27.2716 29.9273 24.0225 30.9634C19.6736 32.3503 16.1193 35.5033 13.4581 40.3349C13.3161 40.5932 13.0492 40.7391 12.7739 40.7391Z" fill="#926C41"/>
<path d="M32.6403 31.8521C32.4233 31.8521 32.2078 31.7623 32.0535 31.5865C32.0332 31.5637 30.3406 29.6741 27.1741 28.4173C22.9315 26.7333 18.1836 26.919 13.0627 28.9692C12.662 29.1298 12.2085 28.9349 12.0483 28.5348C11.8881 28.1346 12.0826 27.6805 12.4828 27.5203C19.3817 24.7584 24.6374 25.7126 27.8315 26.9992C31.3203 28.4046 33.1514 30.4708 33.2277 30.5582C33.5114 30.8829 33.478 31.3758 33.1536 31.6593C33.0053 31.7887 32.8225 31.8521 32.6403 31.8521Z" fill="#926C41"/>
<path d="M15.2386 35.0596C14.1418 36.3046 13.0755 37.7947 12.091 39.5819C11.8833 39.9594 12.0206 40.4341 12.3981 40.642C12.5175 40.7078 12.6466 40.739 12.7738 40.739C13.0491 40.739 13.3158 40.5931 13.458 40.335C14.2735 38.8544 15.1736 37.5333 16.1539 36.3706C15.7655 36.0059 15.4518 35.5606 15.2386 35.0596Z" fill="#AA7F53"/>
<path d="M13.0666 27.2949C12.8731 27.3675 12.6788 27.4422 12.4828 27.5206C12.0826 27.6808 11.8881 28.135 12.0483 28.5351C12.2085 28.9352 12.662 29.1299 13.0627 28.9696C13.6418 28.7378 14.2153 28.5331 14.7846 28.349C14.2069 28.0058 13.6336 27.6554 13.0666 27.2949Z" fill="#AA7F53"/>
<path d="M38.8023 30.9497C36.3198 27.591 46.1037 23.7942 50.4846 22.334C54.8655 20.8737 59.1003 12.8419 59.1003 12.8419C56.6178 13.134 52.383 8.16899 50.6305 10.5054C48.8782 12.8419 44.2053 16.6386 42.1607 13.134C40.4847 10.2607 36.383 9.44916 34.9584 9.24978C34.8461 9.23398 34.7343 9.22656 34.6209 9.22656C34.5078 9.22656 34.3964 9.23398 34.2842 9.24978C32.8597 9.44916 28.7581 10.2607 27.0821 13.134C25.0378 16.6388 20.3648 12.8419 18.6124 10.5054C16.8601 8.16899 12.6251 13.134 10.1426 12.8419C10.1426 12.8419 14.3774 20.8736 18.7583 22.334C23.1392 23.7942 32.9231 27.591 30.4406 30.9497C27.9581 34.3083 10.1426 32.9942 10.1426 57.9652C10.1426 57.9652 11.0415 73.116 33.7265 73.4367V73.4443C33.8503 73.4443 33.9701 73.4414 34.0926 73.4404C34.2152 73.4412 34.3347 73.4443 34.4586 73.4443V73.4367C57.1658 73.116 59.1001 57.9652 59.1001 57.9652C59.1005 32.994 41.2848 34.3083 38.8023 30.9497Z" fill="#C99D67"/>
<path d="M50.4873 22.3342C53.8075 21.2275 57.043 16.3473 58.4157 14.0484C57.886 14.3486 57.3435 14.6219 56.7918 14.8639C55.6618 15.3594 54.541 15.7074 53.31 15.8338C51.9411 15.9745 50.5292 15.8235 49.1915 16.2014C47.004 16.8192 45.0474 17.704 42.7048 17.352C40.7446 17.0576 39.8698 15.5145 38.6472 14.1695C37.6181 13.0372 35.9584 12.6791 34.4871 12.5696C32.9289 12.4537 31.1963 12.5351 29.7484 13.1845C28.1699 13.8927 27.6654 15.6313 26.4777 16.7724C24.9041 18.2842 22.5377 18.363 20.5437 17.7514C18.258 17.0504 16.2863 15.5991 14.0748 14.7314C12.9569 14.2928 11.7339 14.1469 10.6348 13.7136C11.871 15.8333 15.2697 21.1705 18.7608 22.3342C23.1417 23.7944 32.9256 27.5913 30.4431 30.9499C28.9957 32.9082 22.3364 33.28 17.0343 38.1974C19.8277 40.2714 24.8448 42.2194 33.853 42.3068V42.3113C33.9598 42.3113 34.0628 42.3095 34.1685 42.3091C34.274 42.3097 34.3771 42.3113 34.4838 42.3113V42.3068C43.7905 42.2167 49.0432 40.1446 51.9949 37.9975C46.7301 33.2691 40.2321 32.8815 38.8044 30.9501C36.3225 27.5912 46.1066 23.7944 50.4873 22.3342Z" fill="#C1894D"/>
<path d="M45.5632 22.7205C45.7235 22.7312 45.9153 22.7607 46.0011 22.7607C46.086 22.7607 46.2372 22.7379 46.3769 22.7262C46.4274 22.7191 46.4793 22.7154 46.5283 22.717C46.9916 22.5943 47.4384 22.4476 47.8939 22.2942C47.9151 22.287 47.93 22.2823 47.9477 22.2765C48.2066 22.1503 48.4704 22.0344 48.7279 21.905C49.764 21.3847 50.7634 20.7868 51.7147 20.1241C51.8676 20.0175 52.1691 19.8527 52.3386 19.6976C52.3926 19.6342 52.4549 19.5677 52.5134 19.5179C52.8606 19.2222 53.2013 18.9135 53.5124 18.5795C53.5518 18.5374 53.7198 18.3445 53.8384 18.2061C53.8558 18.1798 53.8732 18.1533 53.8946 18.1205C54.1845 17.6769 54.4707 17.2385 54.7247 16.7724C54.8554 16.5325 54.9797 16.2896 55.0973 16.043C55.1869 15.8551 55.2468 15.7664 55.2673 15.7523C55.3147 15.64 55.3558 15.5182 55.3925 15.3926C54.7198 15.6054 54.0335 15.7586 53.3088 15.8329C51.9398 15.9736 50.528 15.8226 49.1902 16.2004C48.2296 16.4718 47.3137 16.7943 46.3899 17.0413C46.0123 18.6898 45.6131 20.3324 45.1152 21.9493C45.299 22.1862 45.4514 22.4446 45.5632 22.7205Z" fill="#B47432"/>
<path d="M28.5501 18.7996C28.7848 19.5419 29.0189 20.285 29.2856 21.0168C29.3287 21.1354 29.3741 21.253 29.419 21.3708C29.5199 21.4805 29.7951 22.1902 29.8593 22.311C30.0437 22.6567 30.2497 22.9829 30.461 23.312C30.4817 23.3442 30.508 23.3943 30.5328 23.4446C30.5273 23.4323 30.5226 23.422 30.5164 23.4082C30.2991 22.9206 30.5533 23.4372 30.6793 23.5748C30.906 23.8219 31.166 24.0311 31.4029 24.2648C31.4072 24.2671 31.4097 24.2685 31.4142 24.271C31.6032 24.3797 31.7819 24.5065 31.9719 24.6146C32.1298 24.7043 32.2901 24.7888 32.4528 24.8692C32.4958 24.8904 32.5348 24.909 32.5703 24.9254C32.6317 24.9486 32.678 24.9671 32.7113 24.981C32.8559 25.0377 33.0006 25.0941 33.1509 25.1386C33.1727 25.145 33.3992 25.18 33.5746 25.2114C33.7283 25.1835 34.5149 25.0399 34.9517 24.9291C35.0167 24.8803 35.1308 24.8091 35.1966 24.8001C35.315 24.7277 35.4387 24.6577 35.5544 24.589C35.5579 24.5869 35.5624 24.584 35.5666 24.5812C35.6267 24.525 35.6911 24.4653 35.7212 24.4367C35.8741 24.2911 36.0138 24.1362 36.1583 23.9825C36.2543 23.8354 36.4808 23.5082 36.5275 23.4314C36.6915 23.1618 36.8427 22.8845 36.9851 22.6028C37.0673 22.4405 37.1379 22.2716 37.2222 22.1108C37.4241 21.7251 37.0979 22.3599 37.1221 22.3677C37.2846 22.4196 38.5179 18.0221 38.5997 17.7042C38.8397 16.7724 39.0595 15.836 39.2733 14.898C39.0699 14.6543 38.8635 14.4089 38.6459 14.1695C37.6168 13.0372 35.9572 12.6791 34.4859 12.5696C32.9277 12.4537 31.1951 12.5351 29.7472 13.1845C28.6582 13.673 28.0793 14.6516 27.4355 15.5863C27.8448 16.6423 28.2069 17.7139 28.5501 18.7996Z" fill="#B47432"/>
<path d="M18.7608 22.3339C19.2571 22.4993 19.8231 22.695 20.4323 22.9162C20.4341 22.8506 20.4362 22.7849 20.4345 22.7195C20.4319 22.6228 20.375 22.2954 20.383 22.2974C20.3041 21.9306 20.2044 21.5697 20.0987 21.2098C19.831 20.2985 19.6705 19.3757 19.5406 18.4356C19.4896 18.0671 19.4413 17.6982 19.3927 17.3292C17.5748 16.5678 15.9068 15.4496 14.0748 14.7307C12.9569 14.2921 11.7339 14.1462 10.6348 13.7129C11.871 15.8327 15.2695 21.17 18.7608 22.3339Z" fill="#B47432"/>
<path d="M39.7998 31.9473C39.85 31.9115 39.8944 31.8696 39.9372 31.8259C39.4358 31.559 39.0462 31.2767 38.8045 30.9498C38.611 30.688 38.4922 30.4236 38.4393 30.1577C33.6003 33.4007 31.0456 30.32 30.9245 30.1676C30.8933 30.1273 30.8577 30.0945 30.823 30.0605C30.7817 30.359 30.6603 30.6562 30.4432 30.9498C30.2225 31.2484 29.8792 31.5099 29.4395 31.7565C29.6207 31.9847 30.5532 33.0754 32.2243 33.6455C32.7878 33.8377 33.4762 33.9805 34.2794 33.9805C35.757 33.9807 37.6213 33.497 39.7998 31.9473Z" fill="#B47432"/>
<path d="M20.6445 37.8398C18.9517 39.8715 17.3701 42.6258 16.3149 46.3496C16.1974 46.7642 16.4384 47.1957 16.8529 47.3132C16.984 47.3502 17.1169 47.3516 17.241 47.3229C17.509 47.2609 17.7361 47.0586 17.8165 46.7751C18.7463 43.4935 20.1577 40.7656 22.0251 38.6071C21.5567 38.3685 21.0963 38.1128 20.6445 37.8398Z" fill="#C1894D"/>
<path d="M25.9978 35.2639C28.9296 33.5221 31.4619 33.3372 31.4872 33.3354C31.9155 33.3077 32.2428 32.9384 32.2165 32.509C32.1901 32.0789 31.8201 31.7515 31.3899 31.7779C31.2742 31.7847 28.5196 31.9729 25.2764 33.8774C23.4484 34.9508 21.2435 36.7214 19.3457 39.5904C19.7907 39.8091 20.2681 40.0215 20.7837 40.224C22.1897 38.1541 23.9291 36.4926 25.9978 35.2639Z" fill="#B47432"/>
<path d="M19.1621 16.0338C21.2394 18.129 24.9418 18.1392 27.0072 14.5987C28.7004 11.6962 31.5303 12.0592 32.9695 11.8579C33.0829 11.8421 33.1952 11.8345 33.3096 11.8345C33.4243 11.8345 33.537 11.8419 33.6506 11.8579C35.0895 12.0592 39.0812 11.9533 40.7746 14.856C42.8398 18.3965 47.1663 15.1543 50.1114 14.9776C52.8494 14.8133 53.6708 15.4704 59.1022 12.8419C56.6197 13.134 52.3849 8.16899 50.6325 10.5054C48.8802 12.8419 44.2072 16.6386 42.1627 13.134C40.4867 10.2607 36.3849 9.44916 34.9604 9.24978C34.848 9.23398 34.7362 9.22656 34.6229 9.22656C34.5097 9.22656 34.3983 9.23398 34.2862 9.24978C32.8616 9.44916 28.7601 10.2607 27.0841 13.134C25.0397 16.6388 20.3668 12.8419 18.6143 10.5054C16.862 8.16899 12.627 13.134 10.1445 12.8419C13.1376 13.0686 18.293 15.1571 19.1621 16.0338Z" fill="#926C41"/>
<path d="M18.6143 11.2172C20.3666 13.5538 25.0396 17.3504 27.0841 13.8459C28.7601 10.9726 32.8616 10.161 34.2862 9.96166C34.3983 9.94585 34.5097 9.93844 34.6229 9.93844C34.7364 9.93844 34.848 9.94585 34.9604 9.96166C36.3847 10.161 40.4865 10.9726 42.1627 13.8459C44.207 17.3506 48.88 13.5538 50.6325 11.2172C52.1327 9.21681 55.4519 12.5661 57.9338 13.3884C58.299 13.2235 58.6855 13.0435 59.1022 12.8419C56.6197 13.134 52.3849 8.16899 50.6325 10.5054C48.8802 12.8419 44.2072 16.6386 42.1627 13.134C40.4867 10.2607 36.3849 9.44916 34.9604 9.24978C34.848 9.23398 34.7362 9.22656 34.6229 9.22656C34.5097 9.22656 34.3983 9.23398 34.2862 9.24978C32.8616 9.44916 28.7601 10.2607 27.0841 13.134C25.0397 16.6388 20.3668 12.8419 18.6143 10.5054C16.862 8.16899 12.627 13.134 10.1445 12.8419C10.6896 12.8833 11.3067 12.9869 11.9563 13.133C14.3413 12.0407 17.2407 9.38537 18.6143 11.2172Z" fill="#DCAF7E"/>
<path d="M34.4604 70.396V70.4036C34.3365 70.4036 34.2171 70.4007 34.0944 70.3997C33.9717 70.4007 33.8519 70.4036 33.7282 70.4036V70.396C13.6068 70.1114 10.6262 58.1606 10.2095 55.4631C10.1679 56.2673 10.1445 57.0987 10.1445 57.9651C10.1445 57.9651 11.0435 73.1159 33.7284 73.4366V73.4443C33.8523 73.4443 33.9721 73.4413 34.0946 73.4404C34.2171 73.4411 34.3367 73.4443 34.4606 73.4443V73.4366C57.1677 73.1159 59.102 57.9651 59.102 57.9651C59.102 57.0504 59.0753 56.1748 59.0293 55.3291C58.5279 57.7349 54.9574 70.1067 34.4604 70.396Z" fill="#C1894D"/>
<path d="M34.2783 33.0511C33.4751 33.0511 32.7866 32.9083 32.2232 32.7161C30.4577 32.1139 29.5152 30.9287 29.4136 30.7955C29.0439 30.3111 29.0833 29.5713 29.5017 29.1433C29.9181 28.717 30.5531 28.7605 30.9234 29.2385C31.047 29.3937 33.7045 32.6049 38.7404 29.0231C39.2162 28.6844 39.8387 28.8569 40.1309 29.4078C40.4232 29.9587 40.2743 30.6796 39.7987 31.0179C37.62 32.5674 35.7557 33.0511 34.2783 33.0511Z" fill="#926C41"/>
<path d="M12.3895 77.7653C18.9019 77.7653 24.1813 72.4859 24.1813 65.9735C24.1813 59.461 18.9019 54.1816 12.3895 54.1816C5.87704 54.1816 0.597656 59.461 0.597656 65.9735C0.597656 72.4859 5.87704 77.7653 12.3895 77.7653Z" fill="#F4900C"/>
<path d="M12.3895 76.3776C18.9019 76.3776 24.1813 71.0982 24.1813 64.5858C24.1813 58.0733 18.9019 52.7939 12.3895 52.7939C5.87704 52.7939 0.597656 58.0733 0.597656 64.5858C0.597656 71.0982 5.87704 76.3776 12.3895 76.3776Z" fill="#FFCC4D"/>
<path d="M12.3906 74.9892C17.7538 74.9892 22.1015 70.6415 22.1015 65.2783C22.1015 59.9151 17.7538 55.5674 12.3906 55.5674C7.02741 55.5674 2.67969 59.9151 2.67969 65.2783C2.67969 70.6415 7.02741 74.9892 12.3906 74.9892Z" fill="#FFE8B6"/>
<path d="M12.3906 74.2968C17.7538 74.2968 22.1015 69.9491 22.1015 64.5859C22.1015 59.2227 17.7538 54.875 12.3906 54.875C7.02741 54.875 2.67969 59.2227 2.67969 64.5859C2.67969 69.9491 7.02741 74.2968 12.3906 74.2968Z" fill="#FFAC33"/>
<path d="M9.03267 63.738C9.03267 63.738 8.95153 63.7723 8.92032 63.6726C8.96713 63.5947 8.70811 62.897 11.186 62.4267C13.8448 62.0467 15.1618 62.5949 15.1212 62.5637C13.9755 62.154 12.7495 62.0185 11.5417 62.1681C9.45709 62.436 9.02019 62.8472 8.73308 63.4141C8.73308 63.4141 8.6457 62.6136 8.64258 62.4796C8.6613 62.4142 9.1575 61.3396 11.9193 61.0032C10.8961 60.9855 9.88811 61.2518 9.0077 61.7726C9.0077 61.7726 8.94217 61.5203 9.36971 61.2088C10.2822 60.6585 11.3246 60.3597 12.3906 60.3428C13.1922 60.3118 13.9927 60.4268 14.753 60.6824C15.452 60.9284 15.8702 61.2742 15.839 61.567C15.835 61.6557 15.816 61.7431 15.7828 61.8255C15.7828 61.8255 16.2041 61.9408 16.1386 62.5326C16.073 63.1244 16.1167 63.7162 15.8265 63.6944C15.7859 63.7287 15.4458 63.1057 12.3937 63.0714C9.36034 63.1742 9.07324 63.7754 9.03267 63.738Z" fill="#FFE8B6"/>
<path d="M9.92864 67.1248C9.91487 67.1095 9.90028 67.095 9.88495 67.0812C9.86357 67.0635 9.84059 67.0479 9.81629 67.0345C9.79836 67.0239 9.77783 67.0185 9.757 67.0189C9.7485 67.0186 9.74015 67.0213 9.73335 67.0264C9.72654 67.0315 9.72167 67.0387 9.71955 67.0469C9.69839 67.1058 9.6817 67.1662 9.66962 67.2276C9.66962 67.2556 9.66962 67.2806 9.65402 67.3086C9.61345 67.0345 9.57288 66.7541 9.53543 66.4769C9.40124 65.5176 9.28577 64.5551 9.18903 63.6393C9.18903 63.5459 9.1703 63.4555 9.16406 63.3652L9.45741 63.2998C9.45741 63.3683 9.45741 63.4369 9.47926 63.5023C9.5011 63.5677 9.47926 63.6206 9.49486 63.6798L9.52295 63.9415C9.61345 64.7669 9.71955 65.6235 9.83502 66.4707L9.92864 67.1248Z" fill="#FFE8B6"/>
<path d="M10.0757 68.0946L10.0539 68.16C10.0452 68.1867 10.0326 68.2119 10.0164 68.2348C10.0063 68.2512 9.99371 68.2659 9.97897 68.2784C9.97177 68.2822 9.96373 68.2842 9.95557 68.2842C9.94741 68.2842 9.93937 68.2822 9.93216 68.2784C9.91743 68.2694 9.90461 68.2577 9.89443 68.2438C9.88426 68.2299 9.87693 68.2141 9.87287 68.1974C9.85993 68.1464 9.85261 68.0942 9.85102 68.0417C9.84653 67.9742 9.84653 67.9066 9.85102 67.8392C9.85102 67.7644 9.86663 67.6928 9.87911 67.6212C9.89159 67.5495 9.91032 67.4841 9.92904 67.4187C9.94777 67.3533 9.94465 67.3626 9.95401 67.3408C9.9977 67.5962 10.0383 67.8454 10.0757 68.0946Z" fill="#FFE8B6"/>
<path d="M14.6789 68.4333V68.4519C14.6774 68.4395 14.6774 68.427 14.6789 68.4146L14.7099 68.3896L14.6789 68.4333Z" fill="#FFE8B6"/>
<path d="M14.9632 68.4407C14.904 68.8082 14.8447 69.1664 14.7854 69.5184C14.6637 70.2068 14.5388 70.8578 14.4109 71.4527C13.0415 71.6209 11.6521 71.5064 10.329 71.1163C10.201 70.5369 10.0762 69.9046 9.9576 69.2474C9.90767 68.9546 9.85462 68.6525 9.80469 68.3441C9.83561 68.3722 9.8753 68.3887 9.91703 68.3908C9.93738 68.3936 9.95808 68.3917 9.97756 68.3852C9.99704 68.3787 10.0148 68.3678 10.0294 68.3534C10.0523 68.3296 10.0713 68.3023 10.0856 68.2725C10.1448 68.6431 10.2041 69.0044 10.2666 69.3533L10.3227 69.6648C10.4007 70.1009 10.4819 70.5183 10.563 70.9107C11.7228 71.2895 12.9563 71.3867 14.1612 71.1942C14.2392 70.8142 14.3173 70.4123 14.3922 69.9918C14.4171 69.8641 14.439 69.7333 14.4608 69.6025C14.5087 69.3284 14.5555 69.0481 14.6012 68.7615L14.6605 68.6961L14.7854 68.5372C14.8481 68.5117 14.9077 68.4793 14.9632 68.4407Z" fill="#FFE8B6"/>
<path d="M15.0077 68.2012L14.9889 68.3226C14.9605 68.3449 14.9302 68.3647 14.8984 68.3818L14.9577 68.2884L15.0077 68.2012Z" fill="#FFE8B6"/>
<path d="M15.0644 67.8467V67.9401C15.0456 67.9252 15.0227 67.9165 14.9988 67.9152C14.977 67.9152 14.9583 67.9308 14.9458 67.9619L14.9239 68.0055C14.9239 68.0273 14.899 68.0554 14.8802 68.0865L14.8209 68.1831C14.796 68.2142 14.7741 68.2454 14.7492 68.2734L14.7148 68.3108L14.7617 67.9993C14.7858 67.9742 14.8131 67.9522 14.8428 67.9339C14.8912 67.8975 14.9464 67.871 15.0051 67.856C15.0244 67.8504 15.0443 67.8472 15.0644 67.8467Z" fill="#FFE8B6"/>
<path d="M15.616 63.2989L15.5879 63.5636C15.4943 64.5604 15.3726 65.5976 15.2353 66.6255C15.1854 66.9962 15.1323 67.3637 15.0793 67.725C15.0471 67.722 15.0147 67.722 14.9825 67.725C14.9105 67.7276 14.8396 67.7434 14.7734 67.7717C14.8327 67.3886 14.8858 66.9962 14.9388 66.6037C15.0605 65.691 15.1729 64.7659 15.2509 63.8658C15.2665 63.7256 15.279 63.5885 15.2915 63.4515C15.2915 63.383 15.2915 63.3144 15.3133 63.249L15.616 63.2989Z" fill="#FFE8B6"/>
<path d="M9.32617 63.7185C9.43852 63.6905 9.55398 63.6687 9.67569 63.65C9.7974 63.6313 9.91911 63.6095 10.0471 63.5939C10.311 63.562 10.5774 63.5536 10.8428 63.569C10.5802 63.6058 10.3213 63.6652 10.0689 63.7465C9.9472 63.7839 9.83173 63.8244 9.71938 63.868C9.60704 63.9116 9.49469 63.9521 9.40731 63.9957C9.36986 63.9023 9.34802 63.8119 9.32617 63.7185Z" fill="#FFE8B6"/>
<path d="M15.4101 63.9112C15.2166 63.8427 15.0013 63.7742 14.7859 63.7119C14.5706 63.6496 14.321 63.5873 14.0744 63.5375C13.8279 63.4876 13.572 63.4378 13.3098 63.4035C13.0438 63.369 12.776 63.3503 12.5078 63.3475C12.7756 63.3097 13.0456 63.2889 13.3161 63.2852C13.5813 63.2852 13.8435 63.2852 14.0994 63.3038C14.3553 63.3225 14.5987 63.3443 14.8328 63.3755C15.0668 63.4066 15.2884 63.4409 15.4975 63.4845C15.4631 63.6247 15.4382 63.768 15.4101 63.9112Z" fill="#FFE8B6"/>
<path d="M14.5722 69.9328L14.5004 69.9578L14.4349 69.9765L14.3101 70.0076C14.2248 70.0263 14.1405 70.0419 14.0573 70.0543C13.8908 70.0791 13.7231 70.0947 13.5549 70.101C13.3863 70.101 13.221 70.101 13.0524 70.101L12.7997 70.0824L12.5469 70.0543L12.7997 70.0387L13.0493 70.0107C13.2178 69.9889 13.3832 69.9578 13.5455 69.9204C13.7104 69.8832 13.8729 69.8364 14.0323 69.7802C14.1135 69.7522 14.1915 69.7242 14.2695 69.6899L14.3819 69.64L14.438 69.612C14.4544 69.6041 14.4701 69.5947 14.4848 69.584C14.5129 69.7148 14.5441 69.8176 14.5722 69.9328Z" fill="#FFE8B6"/>
<path d="M10.2019 69.2969C10.2893 69.3529 10.3829 69.4059 10.4765 69.4557C10.5701 69.5056 10.6606 69.5585 10.7543 69.6052C10.9397 69.6997 11.1316 69.7809 11.3285 69.8482C11.1311 69.8331 10.935 69.8039 10.7418 69.761L10.4484 69.6893L10.1582 69.6021C10.1738 69.4993 10.1738 69.4028 10.2019 69.2969Z" fill="#FFE8B6"/>
<path d="M14.1983 59.3793C14.1983 59.6098 14.2171 59.8465 14.2233 60.0894C14.2241 60.0998 14.2224 60.1101 14.2184 60.1197C14.2144 60.1292 14.2082 60.1377 14.2003 60.1444C14.1924 60.1511 14.183 60.1558 14.1729 60.1582C14.1628 60.1605 14.1522 60.1605 14.1422 60.158C13.8925 60.133 13.6397 60.1143 13.3807 60.105C13.2122 60.2545 13.0437 60.4165 12.872 60.566L12.7691 60.4726C12.9407 60.3106 13.1092 60.1611 13.2777 60.0084C13.2777 59.7779 13.2777 59.5506 13.2621 59.3294L13 59.102C12.6317 59.102 12.2573 59.1207 11.889 59.1519C11.8793 59.1542 11.8692 59.1543 11.8594 59.1523C11.8496 59.1503 11.8404 59.1462 11.8324 59.1402C11.8244 59.1343 11.8177 59.1267 11.813 59.1179C11.8082 59.1092 11.8054 59.0995 11.8048 59.0896C11.8048 58.7781 11.8048 58.4822 11.8204 58.205L11.6737 58.1022L11.2149 58.1645C11.1681 58.1645 11.1338 58.1645 11.1369 58.1146L11.1556 57.7595C11.1556 57.7284 11.1931 57.6972 11.2399 57.691C11.3928 57.6692 11.552 57.6474 11.7018 57.6318C11.7455 57.6318 11.7829 57.6318 11.7798 57.6786V58.0181L11.9296 58.1177C12.2822 58.0835 12.6349 58.0648 12.9875 58.0586C12.9986 58.0568 13.0099 58.0573 13.0208 58.0599C13.0317 58.0626 13.042 58.0674 13.051 58.0741C13.06 58.0807 13.0676 58.0892 13.0733 58.0988C13.079 58.1084 13.0827 58.1191 13.0842 58.1302C13.0842 58.4105 13.0999 58.7064 13.1092 59.0179L13.3682 59.2453C13.6241 59.2453 13.8769 59.2702 14.1235 59.2952C14.1432 59.2996 14.161 59.3101 14.1744 59.3252C14.1879 59.3403 14.1962 59.3592 14.1983 59.3793Z" fill="#FFE8B6"/>
<path d="M11.6081 59.3147C11.424 59.3365 11.2399 59.3614 11.0589 59.3894C11.0374 59.3932 11.0176 59.4037 11.0025 59.4193C10.9874 59.435 10.9776 59.4551 10.9746 59.4767C10.9746 59.6355 10.9746 59.7881 10.9746 59.9563C10.9748 59.9666 10.9773 59.9766 10.9819 59.9857C10.9865 59.9949 10.993 60.0028 11.0011 60.0091C11.0092 60.0154 11.0186 60.0198 11.0286 60.022C11.0385 60.0241 11.0489 60.0241 11.0589 60.0218C11.2399 59.9937 11.424 59.9688 11.6112 59.9501C11.6332 59.9482 11.6539 59.9387 11.6698 59.9234C11.6857 59.9081 11.6959 59.8879 11.6986 59.866C11.6986 59.7009 11.6986 59.5545 11.6986 59.3801C11.6924 59.3396 11.6549 59.3116 11.6081 59.3147Z" fill="#FFE8B6"/>
<path d="M12.0975 57.5667H12.291C12.3347 57.5667 12.3722 57.5355 12.3722 57.5044V57.3673C12.3722 57.3393 12.3347 57.3175 12.291 57.3206H12.1007C12.057 57.3206 12.0195 57.3518 12.0195 57.3829C12.0195 57.4141 12.0195 57.4732 12.0195 57.5168C12.0195 57.5604 12.0476 57.5823 12.0975 57.5667Z" fill="#FFE8B6"/>
<path d="M14.0903 58.4797H13.9218C13.9122 58.4779 13.9023 58.4782 13.8929 58.4806C13.8834 58.4831 13.8746 58.4876 13.8671 58.4938C13.8597 58.5001 13.8537 58.508 13.8496 58.5168C13.8456 58.5257 13.8436 58.5354 13.8438 58.5451C13.8438 58.5918 13.8438 58.6417 13.8438 58.6884C13.8466 58.7091 13.8566 58.7282 13.8719 58.7424C13.8873 58.7566 13.9071 58.765 13.928 58.7663L14.0965 58.7819C14.1434 58.7819 14.1777 58.7569 14.1746 58.7164C14.1714 58.676 14.1746 58.6199 14.1746 58.57C14.1739 58.5473 14.165 58.5256 14.1495 58.509C14.134 58.4924 14.1129 58.482 14.0903 58.4797Z" fill="#FFE8B6"/>
<path d="M14.631 58.896C14.5332 58.8794 14.4365 58.8669 14.3408 58.8586C14.3315 58.856 14.3218 58.8558 14.3124 58.8578C14.3031 58.8598 14.2943 58.864 14.287 58.8702C14.2796 58.8763 14.2738 58.8841 14.2702 58.8929C14.2665 58.9018 14.265 58.9114 14.2659 58.9209C14.2659 59.0081 14.2659 59.0984 14.2659 59.1857C14.2666 59.2077 14.2758 59.2287 14.2914 59.2443C14.307 59.2599 14.328 59.269 14.3501 59.2698L14.6372 59.3102C14.6465 59.3128 14.6562 59.3131 14.6656 59.3111C14.6749 59.3091 14.6837 59.3048 14.691 59.2987C14.6984 59.2926 14.7042 59.2847 14.7078 59.2759C14.7115 59.2671 14.713 59.2575 14.7121 59.2479C14.7121 59.1576 14.7121 59.0673 14.7121 58.9801C14.7102 58.9589 14.7011 58.9391 14.6863 58.9238C14.6716 58.9085 14.6521 58.8987 14.631 58.896Z" fill="#FFE8B6"/>
<path d="M10.8637 59.2515C10.8637 59.1394 10.8637 59.0272 10.8793 58.9182C10.8793 58.8808 10.845 58.8559 10.7982 58.8653L10.4143 58.9431C10.3935 58.9484 10.3747 58.9594 10.3598 58.9748C10.3449 58.9902 10.3346 59.0094 10.3301 59.0303C10.3301 59.1394 10.3301 59.2515 10.3145 59.3636C10.3145 59.4041 10.3488 59.4259 10.3925 59.4166L10.7794 59.3387C10.8011 59.3354 10.8211 59.3251 10.8364 59.3093C10.8516 59.2936 10.8612 59.2732 10.8637 59.2515Z" fill="#FFE8B6"/>
<path d="M15.6582 66.8422C15.5459 67.6365 15.4179 68.437 15.2775 69.2064C15.2695 69.2493 15.2511 69.2896 15.2239 69.3238C15.1967 69.358 15.1615 69.3851 15.1215 69.4026C15.0434 69.4306 14.9342 69.4711 14.7938 69.5116L14.4817 69.5926C13.8008 69.7629 13.0979 69.8291 12.3971 69.7888C11.6886 69.7371 10.9904 69.5893 10.3218 69.3496L10.2375 69.3185C10.1533 69.2905 10.0753 69.2593 10.0035 69.2313C9.85056 69.1721 9.72885 69.1192 9.64459 69.0787C9.60495 69.0589 9.57031 69.0304 9.54329 68.9953C9.51626 68.9602 9.49755 68.9195 9.48855 68.8762C9.35124 68.1473 9.22953 67.3935 9.11719 66.6491C9.11719 66.5619 9.14527 66.4933 9.21705 66.4902H9.57281H9.88489C10.4279 66.4902 11.2736 66.4902 12.4283 66.5089C13.5829 66.5276 14.4505 66.5775 14.9873 66.6179L15.2993 66.6429C15.4491 66.6429 15.5552 66.6709 15.6114 66.6834C15.6676 66.6958 15.6738 66.7488 15.6582 66.8422Z" fill="#FFE8B6"/>
</svg>
