<svg width="33" height="32" viewBox="0 0 33 32" fill="none" xmlns="http://www.w3.org/2000/svg">
<path d="M15.4146 16.308V9.20981H13.4191C11.2092 9.20981 10.044 7.77678 10.044 6.38392C10.044 4.93746 11.1155 4.08032 12.5485 4.08032C14.1959 4.08032 15.4816 5.35266 15.4816 7.48209V9.20981H17.7182V7.48209C17.7182 5.35266 19.0039 4.08032 20.6512 4.08032C22.0843 4.08032 23.1691 4.93746 23.1691 6.38392C23.1691 7.77678 21.9637 9.20981 19.7807 9.20981H17.7851V16.308H27.2271C28.687 16.308 29.4772 15.7455 29.4772 14.3124V11.2053C29.4772 9.78569 28.687 9.20981 27.2271 9.20981H24.1065C24.9369 8.45981 25.4325 7.44192 25.4325 6.29015C25.4325 3.70535 23.3833 1.84375 20.7851 1.84375C18.8566 1.84375 17.2896 2.91512 16.6065 4.81695C15.9235 2.91512 14.3432 1.84375 12.4146 1.84375C9.8298 1.84375 7.76728 3.70535 7.76728 6.29015C7.76728 7.44192 8.2494 8.45981 9.09317 9.20981H5.97266C4.59317 9.20981 3.72266 9.78569 3.72266 11.2053V14.3124C3.72266 15.7455 4.5262 16.308 5.97266 16.308H15.4146ZM15.4146 30.1562V17.741H5.6378V26.7544C5.6378 28.9911 6.95031 30.1562 9.18688 30.1562H15.4146ZM17.7851 17.741V30.1562H24.0128C26.2494 30.1562 27.5619 28.9911 27.5619 26.7544V17.741H17.7851Z" fill="#F43F5E"/>
</svg>
