<svg width="20" height="26" viewBox="0 0 20 26" fill="none" xmlns="http://www.w3.org/2000/svg">
<g filter="url(#filter0_dddd_10_4198)">
<path d="M3.40902 7.02512C3.39127 6.5381 3.3824 6.29459 3.47551 6.03523C3.55538 5.81278 3.70227 5.59749 3.88028 5.44201C4.08782 5.26073 4.38922 5.15519 4.992 4.9441C6.27459 4.49496 7.51194 3.89261 8.67857 3.19273C9.20884 2.87461 9.47397 2.71555 9.70217 2.66545C9.92873 2.6157 10.0884 2.6157 10.3149 2.66545C10.5431 2.71555 10.8083 2.87461 11.3385 3.19273C12.5051 3.89261 13.7425 4.49496 15.0251 4.9441C15.6279 5.15519 15.9293 5.26073 16.1368 5.44201C16.3148 5.59749 16.4617 5.81278 16.5416 6.03523C16.6347 6.29459 16.6258 6.5381 16.6081 7.02512C16.5576 8.4111 16.3074 10.4709 15.3931 12.33C14.1873 14.7817 12.1735 16.3899 10.9802 17.1821C10.7182 17.356 10.5872 17.4429 10.3404 17.5019C10.1692 17.5427 9.84785 17.5427 9.67672 17.5019C9.42988 17.4429 9.29889 17.356 9.03691 17.1821C7.84358 16.3899 5.82978 14.7817 4.62404 12.33C3.7097 10.4709 3.45954 8.4111 3.40902 7.02512Z" fill="black"/>
</g>
<mask id="mask0_10_4198" style="mask-type:alpha" maskUnits="userSpaceOnUse" x="3" y="2" width="14" height="16">
<path d="M3.40902 7.02512C3.39127 6.5381 3.3824 6.29459 3.47551 6.03523C3.55538 5.81278 3.70227 5.59749 3.88028 5.44201C4.08782 5.26073 4.38922 5.15519 4.992 4.9441C6.27459 4.49496 7.51194 3.89261 8.67857 3.19273C9.20884 2.87461 9.47397 2.71555 9.70217 2.66545C9.92873 2.6157 10.0884 2.6157 10.3149 2.66545C10.5431 2.71555 10.8083 2.87461 11.3385 3.19273C12.5051 3.89261 13.7425 4.49496 15.0251 4.9441C15.6279 5.15519 15.9293 5.26073 16.1368 5.44201C16.3148 5.59749 16.4617 5.81278 16.5416 6.03523C16.6347 6.29459 16.6258 6.5381 16.6081 7.02512C16.5576 8.4111 16.3074 10.4709 15.3931 12.33C14.1873 14.7817 12.1735 16.3899 10.9802 17.1821C10.7182 17.356 10.5872 17.4429 10.3404 17.5019C10.1692 17.5427 9.84785 17.5427 9.67672 17.5019C9.42988 17.4429 9.29889 17.356 9.03691 17.1821C7.84358 16.3899 5.82978 14.7817 4.62404 12.33C3.7097 10.4709 3.45954 8.4111 3.40902 7.02512Z" fill="black"/>
</mask>
<g mask="url(#mask0_10_4198)">
<mask id="mask1_10_4198" style="mask-type:alpha" maskUnits="userSpaceOnUse" x="3" y="2" width="14" height="16">
<path d="M3.40902 7.02512C3.39127 6.5381 3.3824 6.29459 3.47551 6.03523C3.55538 5.81278 3.70227 5.59749 3.88028 5.44201C4.08782 5.26073 4.38922 5.15519 4.992 4.9441C6.27459 4.49496 7.51194 3.89261 8.67857 3.19273C9.20884 2.87461 9.47397 2.71555 9.70217 2.66545C9.92873 2.6157 10.0884 2.6157 10.3149 2.66545C10.5431 2.71555 10.8083 2.87461 11.3385 3.19273C12.5051 3.89261 13.7425 4.49496 15.0251 4.9441C15.6279 5.15519 15.9293 5.26073 16.1368 5.44201C16.3148 5.59749 16.4617 5.81278 16.5416 6.03523C16.6347 6.29459 16.6258 6.5381 16.6081 7.02512C16.5576 8.4111 16.3074 10.4709 15.3931 12.33C14.1873 14.7817 12.1735 16.3899 10.9802 17.1821C10.7182 17.356 10.5872 17.4429 10.3404 17.5019C10.1692 17.5427 9.84785 17.5427 9.67672 17.5019C9.42988 17.4429 9.29889 17.356 9.03691 17.1821C7.84358 16.3899 5.82978 14.7817 4.62404 12.33C3.7097 10.4709 3.45954 8.4111 3.40902 7.02512Z" fill="black"/>
</mask>
<g mask="url(#mask1_10_4198)">
<rect width="20" height="20" fill="#1E93FE"/>
<rect width="20" height="20" fill="url(#paint0_linear_10_4198)" fill-opacity="0.6" style="mix-blend-mode:overlay"/>
<rect width="20" height="20" fill="url(#paint1_radial_10_4198)" fill-opacity="0.6" style="mix-blend-mode:overlay"/>
<rect width="20" height="20" fill="black" fill-opacity="0.16" style="mix-blend-mode:overlay"/>
<rect width="20" height="20" fill="black" fill-opacity="0.12" style="mix-blend-mode:darken"/>
</g>
<g filter="url(#filter1_d_10_4198)">
<mask id="mask2_10_4198" style="mask-type:alpha" maskUnits="userSpaceOnUse" x="3" y="2" width="14" height="16">
<path d="M9.70132 2.66531C9.92771 2.6156 10.0883 2.61567 10.3146 2.66531C10.5427 2.71546 10.8083 2.87485 11.338 3.19265C12.5045 3.8924 13.7422 4.49453 15.0246 4.94363C15.6267 5.15449 15.9284 5.26074 16.1359 5.44167C16.3138 5.59707 16.4613 5.81311 16.5412 6.03542C16.6341 6.29454 16.6253 6.53825 16.6076 7.02468L16.5783 7.57449C16.4841 8.92252 16.1926 10.7027 15.3927 12.3294L15.1574 12.7796C13.9383 14.9793 12.0984 16.4392 10.9796 17.1819L10.8039 17.2971C10.6451 17.3976 10.5248 17.4571 10.34 17.5012L10.1876 17.5247C10.0172 17.5399 9.80408 17.5318 9.67593 17.5012C9.49128 17.4571 9.37072 17.3976 9.21206 17.2971L9.03628 17.1819C7.84288 16.3896 5.82878 14.7807 4.62319 12.3294C3.70921 10.4705 3.45885 8.41044 3.40835 7.02468C3.39283 6.59892 3.3841 6.359 3.44448 6.1321L3.47475 6.03542C3.53462 5.86871 3.63206 5.70513 3.7521 5.56863L3.88003 5.44167C4.08753 5.26056 4.38903 5.15455 4.99136 4.94363C6.11356 4.55065 7.20158 4.04072 8.23745 3.45046L8.67788 3.19265C9.14145 2.91455 9.40265 2.7572 9.61343 2.68874L9.70132 2.66531ZM10.1916 3.22292C10.0464 3.19111 9.96971 3.19103 9.82436 3.22292C9.78609 3.23139 9.71603 3.25529 9.57143 3.3323C9.42628 3.40962 9.24195 3.52083 8.97183 3.68288C7.77704 4.39962 6.50396 5.01998 5.17983 5.48367C4.87173 5.59156 4.66672 5.66363 4.51186 5.72976C4.36215 5.79371 4.29593 5.83749 4.256 5.87234C4.15144 5.96371 4.05984 6.09712 4.01284 6.22781C3.96462 6.36212 3.96068 6.48383 3.97964 7.00417C4.02882 8.35342 4.27262 10.3217 5.13589 12.0774C6.27779 14.3993 8.1982 15.9389 9.35268 16.7053C9.61708 16.8809 9.67236 16.9129 9.80874 16.9456C9.83259 16.9513 9.9061 16.9612 10.008 16.9612C10.1095 16.9612 10.1829 16.9513 10.2072 16.9456C10.3439 16.9129 10.3987 16.881 10.6632 16.7053C11.8177 15.939 13.738 14.3996 14.88 12.0774C15.7434 10.3216 15.9871 8.35352 16.0363 7.00417C16.0552 6.4838 16.0513 6.36213 16.0031 6.22781C15.956 6.09716 15.8644 5.96364 15.7599 5.87234C15.7199 5.83753 15.6535 5.79357 15.5041 5.72976C15.3492 5.66367 15.144 5.59151 14.8361 5.48367C13.5121 5.01997 12.2388 4.39959 11.0441 3.68288C10.7741 3.52089 10.5896 3.40958 10.4445 3.3323C10.2997 3.25523 10.2297 3.2313 10.1916 3.22292ZM10.0675 4.44656C10.1115 4.45586 10.1526 4.47969 10.2345 4.52663C10.9835 4.95609 11.7246 5.39183 12.508 5.76101C13.1888 6.08187 13.8924 6.34451 14.5968 6.60671C14.7067 6.64759 14.7623 6.66778 14.8029 6.70437C14.8381 6.73616 14.8655 6.77869 14.881 6.82351C14.8988 6.87502 14.8969 6.93212 14.8917 7.04617C14.8221 8.59841 14.5437 10.1725 13.8546 11.5735C13.0517 13.2061 11.745 14.5637 10.2589 15.5989C10.1719 15.6595 10.1284 15.6897 10.0773 15.7024C10.0338 15.7132 9.98313 15.7132 9.9396 15.7024C9.88849 15.6897 9.84497 15.6595 9.75796 15.5989C8.27194 14.5638 6.96515 13.2061 6.16225 11.5735C5.47322 10.1725 5.19477 8.59841 5.12515 7.04617C5.12003 6.93211 5.11811 6.87503 5.13589 6.82351C5.15139 6.77868 5.1788 6.73616 5.21401 6.70437C5.25457 6.66778 5.31024 6.64759 5.42007 6.60671C6.12482 6.34442 6.82629 6.0827 7.50893 5.76101C8.29235 5.39183 9.03336 4.95609 9.78237 4.52663C9.86425 4.47969 9.90535 4.45586 9.94936 4.44656C9.98803 4.4384 10.0289 4.43839 10.0675 4.44656Z" fill="url(#paint2_linear_10_4198)"/>
</mask>
<g mask="url(#mask2_10_4198)">
<rect width="20" height="20" fill="#1E93FE"/>
<rect x="-0.0715332" width="20" height="20" fill="url(#paint3_linear_10_4198)" fill-opacity="0.6" style="mix-blend-mode:overlay"/>
<rect x="-0.0715332" width="20" height="20" fill="url(#paint4_radial_10_4198)" fill-opacity="0.6" style="mix-blend-mode:overlay"/>
<g style="mix-blend-mode:soft-light">
<path fill-rule="evenodd" clip-rule="evenodd" d="M0 0H10V20H0V0Z" fill="url(#paint5_linear_10_4198)" style="mix-blend-mode:lighten"/>
</g>
<g style="mix-blend-mode:soft-light">
<mask id="path-11-inside-1_10_4198" fill="white">
<path d="M9.70132 2.66531C9.92771 2.6156 10.0883 2.61567 10.3146 2.66531C10.5427 2.71546 10.8083 2.87485 11.338 3.19265C12.5045 3.8924 13.7422 4.49453 15.0246 4.94363C15.6267 5.15449 15.9284 5.26074 16.1359 5.44167C16.3138 5.59707 16.4613 5.81311 16.5412 6.03542C16.6341 6.29454 16.6253 6.53825 16.6076 7.02468L16.5783 7.57449C16.4841 8.92252 16.1926 10.7027 15.3927 12.3294L15.1574 12.7796C13.9383 14.9793 12.0984 16.4392 10.9796 17.1819L10.8039 17.2971C10.6451 17.3976 10.5248 17.4571 10.34 17.5012L10.1876 17.5247C10.0172 17.5399 9.80408 17.5318 9.67593 17.5012C9.49128 17.4571 9.37072 17.3976 9.21206 17.2971L9.03628 17.1819C7.84288 16.3896 5.82878 14.7807 4.62319 12.3294C3.70921 10.4705 3.45885 8.41044 3.40835 7.02468C3.39283 6.59892 3.3841 6.359 3.44448 6.1321L3.47475 6.03542C3.53462 5.86871 3.63206 5.70513 3.7521 5.56863L3.88003 5.44167C4.08753 5.26056 4.38903 5.15455 4.99136 4.94363C6.11356 4.55065 7.20158 4.04072 8.23745 3.45046L8.67788 3.19265C9.14145 2.91455 9.40265 2.7572 9.61343 2.68874L9.70132 2.66531ZM10.1916 3.22292C10.0464 3.19111 9.96971 3.19103 9.82436 3.22292C9.78609 3.23139 9.71603 3.25529 9.57143 3.3323C9.42628 3.40962 9.24195 3.52083 8.97183 3.68288C7.77704 4.39962 6.50396 5.01998 5.17983 5.48367C4.87173 5.59156 4.66672 5.66363 4.51186 5.72976C4.36215 5.79371 4.29593 5.83749 4.256 5.87234C4.15144 5.96371 4.05984 6.09712 4.01284 6.22781C3.96462 6.36212 3.96068 6.48383 3.97964 7.00417C4.02882 8.35342 4.27262 10.3217 5.13589 12.0774C6.27779 14.3993 8.1982 15.9389 9.35268 16.7053C9.61708 16.8809 9.67236 16.9129 9.80874 16.9456C9.83259 16.9513 9.9061 16.9612 10.008 16.9612C10.1095 16.9612 10.1829 16.9513 10.2072 16.9456C10.3439 16.9129 10.3987 16.881 10.6632 16.7053C11.8177 15.939 13.738 14.3996 14.88 12.0774C15.7434 10.3216 15.9871 8.35352 16.0363 7.00417C16.0552 6.4838 16.0513 6.36213 16.0031 6.22781C15.956 6.09716 15.8644 5.96364 15.7599 5.87234C15.7199 5.83753 15.6535 5.79357 15.5041 5.72976C15.3492 5.66367 15.144 5.59151 14.8361 5.48367C13.5121 5.01997 12.2388 4.39959 11.0441 3.68288C10.7741 3.52089 10.5896 3.40958 10.4445 3.3323C10.2997 3.25523 10.2297 3.2313 10.1916 3.22292ZM10.0675 4.44656C10.1115 4.45586 10.1526 4.47969 10.2345 4.52663C10.9835 4.95609 11.7246 5.39183 12.508 5.76101C13.1888 6.08187 13.8924 6.34451 14.5968 6.60671C14.7067 6.64759 14.7623 6.66778 14.8029 6.70437C14.8381 6.73616 14.8655 6.77869 14.881 6.82351C14.8988 6.87502 14.8969 6.93212 14.8917 7.04617C14.8221 8.59841 14.5437 10.1725 13.8546 11.5735C13.0517 13.2061 11.745 14.5637 10.2589 15.5989C10.1719 15.6595 10.1284 15.6897 10.0773 15.7024C10.0338 15.7132 9.98313 15.7132 9.9396 15.7024C9.88849 15.6897 9.84497 15.6595 9.75796 15.5989C8.27194 14.5638 6.96515 13.2061 6.16225 11.5735C5.47322 10.1725 5.19477 8.59841 5.12515 7.04617C5.12003 6.93211 5.11811 6.87503 5.13589 6.82351C5.15139 6.77868 5.1788 6.73616 5.21401 6.70437C5.25457 6.66778 5.31024 6.64759 5.42007 6.60671C6.12482 6.34442 6.82629 6.0827 7.50893 5.76101C8.29235 5.39183 9.03336 4.95609 9.78237 4.52663C9.86425 4.47969 9.90535 4.45586 9.94936 4.44656C9.98803 4.4384 10.0289 4.43839 10.0675 4.44656Z"/>
</mask>
<path d="M9.70132 2.66531L9.69365 2.63039L9.69212 2.6308L9.70132 2.66531ZM10.3146 2.66531L10.3223 2.63043L10.3223 2.63042L10.3146 2.66531ZM11.338 3.19265L11.3197 3.22328L11.3197 3.22328L11.338 3.19265ZM15.0246 4.94363L15.0128 4.97733L15.0128 4.97733L15.0246 4.94363ZM16.1359 5.44167L16.1594 5.41478L16.1594 5.41475L16.1359 5.44167ZM16.5412 6.03542L16.5748 6.02337L16.5748 6.02334L16.5412 6.03542ZM16.6076 7.02468L16.6432 7.02658L16.6433 7.02598L16.6076 7.02468ZM16.5783 7.57449L16.6139 7.57698L16.6139 7.57639L16.5783 7.57449ZM15.3927 12.3294L15.4244 12.3459L15.4248 12.3451L15.3927 12.3294ZM15.1574 12.7796L15.1886 12.7969L15.189 12.7961L15.1574 12.7796ZM10.9796 17.1819L10.9992 17.2118L10.9994 17.2117L10.9796 17.1819ZM10.8039 17.2971L10.823 17.3273L10.8234 17.327L10.8039 17.2971ZM10.34 17.5012L10.3454 17.5367L10.3483 17.536L10.34 17.5012ZM10.1876 17.5247L10.1908 17.5603L10.1931 17.56L10.1876 17.5247ZM9.67593 17.5012L9.66762 17.536L9.66763 17.536L9.67593 17.5012ZM9.21206 17.2971L9.19248 17.327L9.19296 17.3273L9.21206 17.2971ZM9.03628 17.1819L9.01652 17.2117L9.0167 17.2118L9.03628 17.1819ZM4.62319 12.3294L4.59114 12.3451L4.59114 12.3451L4.62319 12.3294ZM3.40835 7.02468L3.37266 7.02598L3.40835 7.02468ZM3.44448 6.1321L3.41037 6.12142L3.40997 6.12292L3.44448 6.1321ZM3.47475 6.03542L3.44111 6.02334L3.44067 6.02475L3.47475 6.03542ZM3.7521 5.56863L3.72688 5.54322L3.72528 5.54504L3.7521 5.56863ZM3.88003 5.44167L3.8565 5.41471L3.85487 5.41632L3.88003 5.44167ZM4.99136 4.94363L5.00316 4.97733L5.00316 4.97733L4.99136 4.94363ZM8.23745 3.45046L8.25513 3.4815L8.25549 3.48128L8.23745 3.45046ZM8.67788 3.19265L8.69592 3.22347L8.69625 3.22328L8.67788 3.19265ZM9.61343 2.68874L9.60421 2.65419L9.60239 2.65478L9.61343 2.68874ZM10.1916 3.22292L10.1992 3.18804L10.1992 3.18804L10.1916 3.22292ZM9.82436 3.22292L9.81671 3.18804L9.81666 3.18805L9.82436 3.22292ZM9.57143 3.3323L9.55465 3.30078L9.55464 3.30078L9.57143 3.3323ZM8.97183 3.68288L8.9902 3.71351L8.9902 3.71351L8.97183 3.68288ZM5.17983 5.48367L5.16803 5.44996L5.16803 5.44996L5.17983 5.48367ZM4.51186 5.72976L4.49784 5.69691L4.49783 5.69692L4.51186 5.72976ZM4.256 5.87234L4.23252 5.84543L4.2325 5.84545L4.256 5.87234ZM4.01284 6.22781L3.97923 6.21572L3.97923 6.21574L4.01284 6.22781ZM3.97964 7.00417L3.94395 7.00547L3.94395 7.00547L3.97964 7.00417ZM5.13589 12.0774L5.10384 12.0932L5.10384 12.0932L5.13589 12.0774ZM9.35268 16.7053L9.33293 16.7351L9.33293 16.7351L9.35268 16.7053ZM9.80874 16.9456L9.80043 16.9803L9.80044 16.9803L9.80874 16.9456ZM10.008 16.9612L10.0079 16.9969L10.008 16.9969L10.008 16.9612ZM10.2072 16.9456L10.2154 16.9803L10.2155 16.9803L10.2072 16.9456ZM10.6632 16.7053L10.683 16.7351L10.683 16.7351L10.6632 16.7053ZM14.88 12.0774L14.9121 12.0932L14.9121 12.0932L14.88 12.0774ZM16.0363 7.00417L16.072 7.00547L16.072 7.00547L16.0363 7.00417ZM16.0031 6.22781L16.0367 6.21574L16.0367 6.2157L16.0031 6.22781ZM15.7599 5.87234L15.7834 5.84544L15.7834 5.8454L15.7599 5.87234ZM15.5041 5.72976L15.5181 5.69691L15.5181 5.69691L15.5041 5.72976ZM14.8361 5.48367L14.8243 5.51737L14.8243 5.51737L14.8361 5.48367ZM11.0441 3.68288L11.0257 3.71351L11.0257 3.71351L11.0441 3.68288ZM10.4445 3.3323L10.4613 3.30078L10.4613 3.30077L10.4445 3.3323ZM10.0675 4.44656L10.0749 4.41161L10.0749 4.41161L10.0675 4.44656ZM10.2345 4.52663L10.2523 4.49565L10.2523 4.49565L10.2345 4.52663ZM12.508 5.76101L12.4927 5.79332L12.4927 5.79332L12.508 5.76101ZM14.5968 6.60671L14.5844 6.64018L14.5844 6.64018L14.5968 6.60671ZM14.8029 6.70437L14.8268 6.67786L14.8268 6.67785L14.8029 6.70437ZM14.881 6.82351L14.9148 6.81186L14.9148 6.81184L14.881 6.82351ZM14.8917 7.04617L14.9274 7.04777L14.9274 7.04777L14.8917 7.04617ZM13.8546 11.5735L13.8867 11.5893L13.8867 11.5893L13.8546 11.5735ZM10.2589 15.5989L10.2793 15.6282L10.2793 15.6282L10.2589 15.5989ZM10.0773 15.7024L10.0859 15.7371L10.0859 15.7371L10.0773 15.7024ZM9.9396 15.7024L9.93098 15.7371L9.93099 15.7371L9.9396 15.7024ZM9.75796 15.5989L9.73754 15.6282L9.73754 15.6282L9.75796 15.5989ZM6.16225 11.5735L6.13021 11.5893L6.13021 11.5893L6.16225 11.5735ZM5.12515 7.04617L5.08947 7.04777L5.08947 7.04777L5.12515 7.04617ZM5.13589 6.82351L5.10214 6.81184L5.10213 6.81186L5.13589 6.82351ZM5.21401 6.70437L5.19009 6.67785L5.19008 6.67786L5.21401 6.70437ZM5.42007 6.60671L5.43252 6.64018L5.43252 6.64018L5.42007 6.60671ZM7.50893 5.76101L7.52416 5.79332L7.52416 5.79332L7.50893 5.76101ZM9.78237 4.52663L9.76461 4.49565L9.76461 4.49565L9.78237 4.52663ZM9.94936 4.44656L9.94199 4.41161L9.94198 4.41161L9.94936 4.44656ZM9.70132 2.66531L9.70898 2.70019C9.93032 2.65159 10.0857 2.65166 10.3069 2.70019L10.3146 2.66531L10.3223 2.63042C10.0909 2.57968 9.92511 2.5796 9.69366 2.63042L9.70132 2.66531ZM10.3146 2.66531L10.3069 2.70019C10.4162 2.72422 10.5363 2.77482 10.6964 2.86013C10.8565 2.94544 11.0545 3.06418 11.3197 3.22328L11.338 3.19265L11.3564 3.16202C11.0919 3.00332 10.8921 2.88346 10.73 2.79709C10.5679 2.71072 10.441 2.65655 10.3223 2.63043L10.3146 2.66531ZM11.338 3.19265L11.3197 3.22328C12.4879 3.92409 13.7278 4.52732 15.0128 4.97733L15.0246 4.94363L15.0364 4.90992C13.7566 4.46173 12.5211 3.86071 11.3564 3.16202L11.338 3.19265ZM15.0246 4.94363L15.0128 4.97733C15.3143 5.08292 15.5389 5.16175 15.7142 5.23671C15.8891 5.31154 16.0126 5.38159 16.1124 5.46859L16.1359 5.44167L16.1594 5.41475C16.0516 5.32082 15.9205 5.24728 15.7423 5.17104C15.5643 5.09492 15.337 5.0152 15.0364 4.90992L15.0246 4.94363ZM16.1359 5.44167L16.1124 5.46857C16.2857 5.61997 16.4297 5.83091 16.5076 6.0475L16.5412 6.03542L16.5748 6.02334C16.4928 5.79531 16.3419 5.57417 16.1594 5.41478L16.1359 5.44167ZM16.5412 6.03542L16.5075 6.04748C16.5977 6.29879 16.5897 6.53486 16.5719 7.02338L16.6076 7.02468L16.6433 7.02598C16.6609 6.54164 16.6705 6.29029 16.5748 6.02337L16.5412 6.03542ZM16.6076 7.02468L16.5719 7.02278L16.5426 7.57259L16.5783 7.57449L16.6139 7.57639L16.6432 7.02658L16.6076 7.02468ZM16.5783 7.57449L16.5426 7.572C16.4486 8.91762 16.1577 10.6927 15.3607 12.3136L15.3927 12.3294L15.4248 12.3451C16.2275 10.7127 16.5195 8.92743 16.6139 7.57698L16.5783 7.57449ZM15.3927 12.3294L15.3611 12.3128L15.1257 12.763L15.1574 12.7796L15.189 12.7961L15.4244 12.3459L15.3927 12.3294ZM15.1574 12.7796L15.1261 12.7623C13.9109 14.955 12.0763 16.411 10.9599 17.1522L10.9796 17.1819L10.9994 17.2117C12.1205 16.4674 13.9656 15.0036 15.1886 12.7969L15.1574 12.7796ZM10.9796 17.1819L10.9601 17.152L10.7843 17.2673L10.8039 17.2971L10.8234 17.327L10.9992 17.2118L10.9796 17.1819ZM10.8039 17.2971L10.7848 17.267C10.6283 17.366 10.5117 17.4235 10.3317 17.4665L10.34 17.5012L10.3483 17.536C10.538 17.4906 10.662 17.4292 10.823 17.3273L10.8039 17.2971ZM10.34 17.5012L10.3346 17.4659L10.1822 17.4894L10.1876 17.5247L10.1931 17.56L10.3454 17.5365L10.34 17.5012ZM10.1876 17.5247L10.1845 17.4891C10.0163 17.5041 9.80738 17.4959 9.68422 17.4665L9.67593 17.5012L9.66763 17.536C9.80079 17.5678 10.018 17.5757 10.1908 17.5603L10.1876 17.5247ZM9.67593 17.5012L9.68424 17.4665C9.50447 17.4235 9.38756 17.3659 9.23116 17.267L9.21206 17.2971L9.19296 17.3273C9.35389 17.4292 9.47809 17.4906 9.66762 17.536L9.67593 17.5012ZM9.21206 17.2971L9.23164 17.2673L9.05586 17.152L9.03628 17.1819L9.0167 17.2118L9.19248 17.327L9.21206 17.2971ZM9.03628 17.1819L9.05603 17.1522C7.86507 16.3615 5.85685 14.7569 4.65524 12.3136L4.62319 12.3294L4.59114 12.3451C5.80071 14.8046 7.8207 16.4178 9.01652 17.2117L9.03628 17.1819ZM4.62319 12.3294L4.65524 12.3136C3.74443 10.4611 3.49446 8.40685 3.44404 7.02338L3.40835 7.02468L3.37266 7.02598C3.42325 8.41403 3.67399 10.4798 4.59114 12.3451L4.62319 12.3294ZM3.40835 7.02468L3.44404 7.02338C3.42845 6.59571 3.42028 6.36189 3.47899 6.14129L3.44448 6.1321L3.40997 6.12292C3.34791 6.35611 3.35721 6.60214 3.37266 7.02598L3.40835 7.02468ZM3.44448 6.1321L3.47856 6.14278L3.50884 6.0461L3.47475 6.03542L3.44067 6.02475L3.4104 6.12143L3.44448 6.1321ZM3.47475 6.03542L3.50837 6.04749C3.56666 5.88516 3.66174 5.72546 3.77892 5.59221L3.7521 5.56863L3.72528 5.54504C3.60238 5.68479 3.50258 5.85226 3.44114 6.02335L3.47475 6.03542ZM3.7521 5.56863L3.77726 5.59398L3.90519 5.46702L3.88003 5.44167L3.85487 5.41632L3.72694 5.54328L3.7521 5.56863ZM3.88003 5.44167L3.90351 5.46858C4.00329 5.38149 4.12673 5.31146 4.30167 5.23667C4.47692 5.16174 4.70156 5.08295 5.00316 4.97733L4.99136 4.94363L4.97955 4.90992C4.67883 5.01523 4.45156 5.0949 4.27359 5.17099C4.09533 5.24721 3.96427 5.32074 3.85654 5.41477L3.88003 5.44167ZM4.99136 4.94363L5.00316 4.97733C6.12764 4.58356 7.21762 4.07269 8.25513 3.48149L8.23745 3.45046L8.21977 3.41943C7.18554 4.00876 6.09947 4.51774 4.97955 4.90992L4.99136 4.94363ZM8.23745 3.45046L8.25549 3.48128L8.69592 3.22347L8.67788 3.19265L8.65984 3.16183L8.21941 3.41964L8.23745 3.45046ZM8.67788 3.19265L8.69625 3.22328C9.16178 2.944 9.41858 2.78958 9.62446 2.72271L9.61343 2.68874L9.60239 2.65478C9.38673 2.72482 9.12111 2.8851 8.65951 3.16202L8.67788 3.19265ZM9.61343 2.68874L9.62263 2.72325L9.71052 2.69981L9.70132 2.66531L9.69212 2.6308L9.60422 2.65424L9.61343 2.68874ZM10.1916 3.22292L10.1992 3.18804C10.1254 3.17186 10.0671 3.16333 10.008 3.16332C9.94893 3.16331 9.89063 3.17182 9.81671 3.18804L9.82436 3.22292L9.83202 3.25781C9.90345 3.24214 9.95615 3.23474 10.008 3.23475C10.0599 3.23476 10.1125 3.24217 10.1839 3.25781L10.1916 3.22292ZM9.82436 3.22292L9.81666 3.18805C9.77369 3.19755 9.70027 3.22322 9.55465 3.30078L9.57143 3.3323L9.58822 3.36382C9.73179 3.28736 9.7985 3.26522 9.83207 3.2578L9.82436 3.22292ZM9.57143 3.3323L9.55464 3.30078C9.40847 3.37864 9.22314 3.49047 8.95345 3.65226L8.97183 3.68288L8.9902 3.71351C9.26076 3.5512 9.44409 3.4406 9.58823 3.36382L9.57143 3.3323ZM8.97183 3.68288L8.95345 3.65226C7.76043 4.36794 6.48954 4.98719 5.16803 5.44996L5.17983 5.48367L5.19164 5.51737C6.51837 5.05278 7.79364 4.43131 8.9902 3.71351L8.97183 3.68288ZM5.17983 5.48367L5.16803 5.44996C4.8604 5.55769 4.65405 5.63021 4.49784 5.69691L4.51186 5.72976L4.52589 5.7626C4.67939 5.69706 4.88307 5.62543 5.19164 5.51737L5.17983 5.48367ZM4.51186 5.72976L4.49783 5.69692C4.34646 5.76158 4.27643 5.80711 4.23252 5.84543L4.256 5.87234L4.27949 5.89925C4.31544 5.86788 4.37785 5.82585 4.52589 5.7626L4.51186 5.72976ZM4.256 5.87234L4.2325 5.84545C4.12343 5.94077 4.02832 6.07925 3.97923 6.21572L4.01284 6.22781L4.04645 6.23989C4.09137 6.11499 4.17946 5.98666 4.27951 5.89923L4.256 5.87234ZM4.01284 6.22781L3.97923 6.21574C3.92816 6.35797 3.92508 6.48763 3.94395 7.00547L3.97964 7.00417L4.01533 7.00287C3.99628 6.48002 4.00107 6.36628 4.04645 6.23987L4.01284 6.22781ZM3.97964 7.00417L3.94395 7.00547C3.99321 8.357 4.2374 10.331 5.10384 12.0932L5.13589 12.0774L5.16794 12.0617C4.30784 10.3124 4.06443 8.34984 4.01533 7.00287L3.97964 7.00417ZM5.13589 12.0774L5.10384 12.0932C6.24972 14.4231 8.17602 15.967 9.33293 16.7351L9.35268 16.7053L9.37244 16.6756C8.22038 15.9107 6.30585 14.3754 5.16794 12.0617L5.13589 12.0774ZM9.35268 16.7053L9.33293 16.7351C9.59694 16.9104 9.65709 16.946 9.80043 16.9803L9.80874 16.9456L9.81705 16.9108C9.68763 16.8799 9.63723 16.8514 9.37244 16.6756L9.35268 16.7053ZM9.80874 16.9456L9.80044 16.9803C9.82802 16.9869 9.90457 16.9969 10.0079 16.9969L10.008 16.9612L10.008 16.9255C9.90763 16.9255 9.83717 16.9157 9.81703 16.9108L9.80874 16.9456ZM10.008 16.9612L10.008 16.9969C10.1111 16.9969 10.1875 16.9869 10.2154 16.9803L10.2072 16.9456L10.199 16.9108C10.1783 16.9157 10.1079 16.9255 10.008 16.9255L10.008 16.9612ZM10.2072 16.9456L10.2155 16.9803C10.3592 16.946 10.4188 16.9104 10.683 16.7351L10.6632 16.7053L10.6435 16.6756C10.3785 16.8515 10.3286 16.8798 10.1989 16.9108L10.2072 16.9456ZM10.6632 16.7053L10.683 16.7351C11.8398 15.9671 13.766 14.4234 14.9121 12.0932L14.88 12.0774L14.848 12.0617C13.7099 14.3757 11.7955 15.9108 10.6435 16.6756L10.6632 16.7053ZM14.88 12.0774L14.9121 12.0932C15.7787 10.3309 16.0227 8.35709 16.072 7.00547L16.0363 7.00417L16.0006 7.00287C15.9515 8.34994 15.7082 10.3123 14.848 12.0617L14.88 12.0774ZM16.0363 7.00417L16.072 7.00547C16.0908 6.4876 16.0878 6.35798 16.0367 6.21574L16.0031 6.22781L15.9695 6.23987C16.0148 6.36628 16.0196 6.47999 16.0006 7.00287L16.0363 7.00417ZM16.0031 6.22781L16.0367 6.2157C15.9875 6.07931 15.8925 5.94071 15.7834 5.84544L15.7599 5.87234L15.7364 5.89924C15.8364 5.98658 15.9245 6.11502 15.9695 6.23991L16.0031 6.22781ZM15.7599 5.87234L15.7834 5.8454C15.7394 5.80715 15.6692 5.76144 15.5181 5.69691L15.5041 5.72976L15.49 5.7626C15.6377 5.82569 15.7004 5.86791 15.7365 5.89928L15.7599 5.87234ZM15.5041 5.72976L15.5181 5.69691C15.3619 5.63024 15.1554 5.55764 14.8479 5.44996L14.8361 5.48367L14.8243 5.51737C15.1327 5.62538 15.3365 5.69709 15.49 5.76261L15.5041 5.72976ZM14.8361 5.48367L14.8479 5.44996C13.5265 4.98718 12.2554 4.3679 11.0625 3.65226L11.0441 3.68288L11.0257 3.71351C12.2222 4.43128 13.4977 5.05277 14.8243 5.51737L14.8361 5.48367ZM11.0441 3.68288L11.0625 3.65226C10.7929 3.49053 10.6074 3.3786 10.4613 3.30078L10.4445 3.3323L10.4277 3.36382C10.5718 3.44056 10.7553 3.55125 11.0257 3.71351L11.0441 3.68288ZM10.4445 3.3323L10.4613 3.30077C10.3155 3.22318 10.2421 3.19746 10.1992 3.18804L10.1916 3.22292L10.1839 3.25781C10.2173 3.26514 10.2839 3.28729 10.4277 3.36382L10.4445 3.3323ZM10.0675 4.44656L10.0601 4.4815C10.0973 4.48936 10.1327 4.50942 10.2168 4.55762L10.2345 4.52663L10.2523 4.49565C10.1726 4.44996 10.1258 4.42236 10.0749 4.41161L10.0675 4.44656ZM10.2345 4.52663L10.2168 4.55762C10.9652 4.98675 11.7077 5.42338 12.4927 5.79332L12.508 5.76101L12.5232 5.7287C11.7414 5.36029 11.0018 4.92542 10.2523 4.49565L10.2345 4.52663ZM12.508 5.76101L12.4927 5.79332C13.1752 6.11492 13.8801 6.37806 14.5844 6.64018L14.5968 6.60671L14.6093 6.57324C13.9047 6.31097 13.2025 6.04882 12.5232 5.7287L12.508 5.76101ZM14.5968 6.60671L14.5844 6.64018C14.6973 6.68221 14.7447 6.70001 14.779 6.73088L14.8029 6.70437L14.8268 6.67785C14.7799 6.63555 14.716 6.61298 14.6093 6.57324L14.5968 6.60671ZM14.8029 6.70437L14.7789 6.73087C14.8094 6.75843 14.8336 6.79576 14.8473 6.83518L14.881 6.82351L14.9148 6.81184C14.8974 6.76161 14.8667 6.7139 14.8268 6.67786L14.8029 6.70437ZM14.881 6.82351L14.8472 6.83516C14.8623 6.87879 14.8613 6.928 14.8561 7.04457L14.8917 7.04617L14.9274 7.04777C14.9324 6.93624 14.9353 6.87125 14.9148 6.81186L14.881 6.82351ZM14.8917 7.04617L14.8561 7.04457C14.7866 8.59393 14.5087 10.1626 13.8226 11.5577L13.8546 11.5735L13.8867 11.5893C14.5786 10.1823 14.8577 8.60288 14.9274 7.04777L14.8917 7.04617ZM13.8546 11.5735L13.8226 11.5577C13.023 13.1837 11.7208 14.537 10.2385 15.5696L10.2589 15.5989L10.2793 15.6282C11.7691 14.5905 13.0805 13.2285 13.8867 11.5893L13.8546 11.5735ZM10.2589 15.5989L10.2385 15.5696C10.1494 15.6317 10.1119 15.657 10.0687 15.6678L10.0773 15.7024L10.0859 15.7371C10.1448 15.7224 10.1944 15.6874 10.2793 15.6282L10.2589 15.5989ZM10.0773 15.7024L10.0687 15.6678C10.0308 15.6772 9.98608 15.6772 9.9482 15.6678L9.9396 15.7024L9.93099 15.7371C9.98017 15.7493 10.0367 15.7493 10.0859 15.7371L10.0773 15.7024ZM9.9396 15.7024L9.94821 15.6678C9.90495 15.657 9.86747 15.6317 9.77837 15.5696L9.75796 15.5989L9.73754 15.6282C9.82248 15.6874 9.87203 15.7224 9.93098 15.7371L9.9396 15.7024ZM9.75796 15.5989L9.77837 15.5696C8.29608 14.5371 6.99393 13.1837 6.1943 11.5577L6.16225 11.5735L6.13021 11.5893C6.93636 13.2285 8.2478 14.5905 9.73754 15.6282L9.75796 15.5989ZM6.16225 11.5735L6.1943 11.5577C5.50819 10.1626 5.23032 8.59394 5.16082 7.04457L5.12515 7.04617L5.08947 7.04777C5.15922 8.60289 5.43825 10.1823 6.13021 11.5893L6.16225 11.5735ZM5.12515 7.04617L5.16082 7.04457C5.1556 6.92799 5.15459 6.8788 5.16965 6.83516L5.13589 6.82351L5.10213 6.81186C5.08163 6.87125 5.08446 6.93623 5.08947 7.04777L5.12515 7.04617ZM5.13589 6.82351L5.16964 6.83518C5.18328 6.79575 5.20744 6.75843 5.23795 6.73088L5.21401 6.70437L5.19008 6.67786C5.15017 6.7139 5.11951 6.76161 5.10214 6.81184L5.13589 6.82351ZM5.21401 6.70437L5.23794 6.73088C5.27216 6.70001 5.31962 6.6822 5.43252 6.64018L5.42007 6.60671L5.40761 6.57324C5.30086 6.61297 5.23697 6.63555 5.19009 6.67785L5.21401 6.70437ZM5.42007 6.60671L5.43252 6.64018C6.13708 6.37797 6.83994 6.11575 7.52416 5.79332L7.50893 5.76101L7.49371 5.7287C6.81264 6.04965 6.11257 6.31088 5.40761 6.57324L5.42007 6.60671ZM7.50893 5.76101L7.52416 5.79332C8.30919 5.42337 9.05168 4.98676 9.80014 4.55762L9.78237 4.52663L9.76461 4.49565C9.01504 4.92543 8.27551 5.36028 7.49371 5.7287L7.50893 5.76101ZM9.78237 4.52663L9.80014 4.55762C9.88419 4.50942 9.91957 4.48936 9.95675 4.4815L9.94936 4.44656L9.94198 4.41161C9.89113 4.42236 9.8443 4.44996 9.76461 4.49565L9.78237 4.52663ZM9.94936 4.44656L9.95674 4.4815C9.99055 4.47437 10.0264 4.47436 10.0601 4.4815L10.0675 4.44656L10.0749 4.41161C10.0314 4.40242 9.98552 4.40243 9.94199 4.41161L9.94936 4.44656Z" fill="url(#paint6_linear_10_4198)" mask="url(#path-11-inside-1_10_4198)"/>
</g>
</g>
</g>
<g filter="url(#filter2_d_10_4198)">
<path fill-rule="evenodd" clip-rule="evenodd" d="M12.2477 6.87239C11.5953 6.21997 10.3222 6.51123 9.48374 7.34972C9.33765 7.49581 9.18099 7.68067 9.0539 7.85736C8.66711 7.7372 8.32168 7.76795 8.07852 8.0111C7.88409 8.20553 7.82707 8.47695 7.87567 8.77601L7.90526 8.95806C7.91436 9.01406 7.95826 9.05797 8.01426 9.06707L8.19631 9.09665C8.48321 9.14327 8.92126 9.40855 9.31639 9.80369C9.71153 10.1988 9.97681 10.6369 10.0234 10.9238L10.053 11.1058C10.0621 11.1618 10.106 11.2057 10.162 11.2148L10.3441 11.2444C10.6431 11.293 10.9145 11.236 11.109 11.0416C11.3521 10.7984 11.3829 10.453 11.2627 10.0662C11.4394 9.93909 11.6243 9.78243 11.7704 9.63634C12.6089 8.79784 12.9001 7.52481 12.2477 6.87239ZM7.89772 9.70714C8.01183 9.59303 8.19685 9.59303 8.31096 9.70714C8.42508 9.82126 8.42508 10.0063 8.31096 10.1204L8.03081 10.4005C7.9167 10.5147 7.73168 10.5147 7.61757 10.4005C7.50345 10.2864 7.50345 10.1014 7.61757 9.9873L7.89772 9.70714ZM8.86195 10.2581C8.74784 10.144 8.56282 10.144 8.44871 10.2581L7.75252 10.9543C7.63841 11.0684 7.63841 11.2535 7.75252 11.3676C7.86664 11.4817 8.05165 11.4817 8.16576 11.3676L8.86195 10.6714C8.97607 10.5573 8.97607 10.3722 8.86195 10.2581ZM9.41295 10.8091C9.29883 10.695 9.11382 10.695 8.9997 10.8091L8.71955 11.0893C8.60544 11.2034 8.60543 11.3884 8.71955 11.5025C8.83366 11.6166 9.01868 11.6166 9.13279 11.5025L9.41295 11.2224C9.52706 11.1083 9.52706 10.9232 9.41295 10.8091Z" fill="white"/>
<path d="M8.98706 10.7969C9.10815 10.6758 9.30445 10.6758 9.42554 10.7969C9.54645 10.918 9.54657 11.1143 9.42554 11.2354L9.14526 11.5156C9.02421 11.6363 8.82778 11.6364 8.70679 11.5156C8.5857 11.3945 8.5857 11.1973 8.70679 11.0762L8.98706 10.7969ZM8.43628 10.2451C8.55735 10.1244 8.75376 10.1242 8.87476 10.2451C8.99575 10.3661 8.99555 10.5625 8.87476 10.6836L8.17847 11.3799C8.05738 11.501 7.86108 11.501 7.73999 11.3799C7.61901 11.2588 7.61894 11.0625 7.73999 10.9414L8.43628 10.2451ZM10.9324 6.53418C11.4406 6.43748 11.9289 6.52782 12.2605 6.85938C12.5921 7.19098 12.6823 7.6793 12.5857 8.1875C12.4889 8.69595 12.2045 9.22786 11.783 9.64941C11.6391 9.79327 11.4571 9.94608 11.283 10.0723C11.4 10.4578 11.3688 10.8064 11.1218 11.0537C10.9222 11.2533 10.6443 11.3109 10.3416 11.2617L10.1589 11.2324C10.0955 11.222 10.0452 11.1719 10.0349 11.1084L10.0056 10.9268C9.98286 10.7867 9.90669 10.6077 9.78589 10.4141C9.66513 10.2205 9.50016 10.0131 9.30347 9.81641C9.10697 9.61993 8.90013 9.45567 8.70679 9.33496C8.51298 9.21402 8.33325 9.13703 8.19312 9.11426L8.01147 9.08496C7.94789 9.07463 7.89778 9.02453 7.88745 8.96094L7.85815 8.7793C7.80894 8.47644 7.8665 8.19771 8.06616 7.99805C8.31312 7.75138 8.6617 7.71936 9.04663 7.83594C9.17285 7.66175 9.32757 7.48078 9.47144 7.33691C9.89295 6.9155 10.424 6.63096 10.9324 6.53418ZM7.8855 9.69434C8.00661 9.57354 8.20298 9.57335 8.32397 9.69434C8.44486 9.81533 8.44474 10.0117 8.32397 10.1328L8.0437 10.4131C7.92265 10.5341 7.72632 10.5341 7.60522 10.4131C7.48414 10.292 7.48414 10.0957 7.60522 9.97461L7.8855 9.69434Z" stroke="url(#paint7_linear_10_4198)" stroke-width="0.0357143" stroke-linecap="round" style="mix-blend-mode:color-burn"/>
</g>
</g>
<g filter="url(#filter3_dd_10_4198)">
<mask id="path-15-inside-2_10_4198" fill="white">
<path d="M4.31186 13C4.63181 13 4.79218 13.0003 4.9144 13.0625C5.0218 13.1172 5.1096 13.2042 5.1644 13.3115C5.22667 13.4337 5.2269 13.5942 5.2269 13.9141V15.3711C5.2269 15.6911 5.22664 15.8514 5.1644 15.9736C5.10961 16.0812 5.02192 16.1688 4.9144 16.2236C4.7922 16.2858 4.63167 16.2861 4.31186 16.2861H3.11752C2.88454 16.2861 2.76818 16.2854 2.69565 16.2363C2.63224 16.1934 2.58843 16.1271 2.57456 16.0518C2.55869 15.9656 2.60597 15.859 2.69956 15.6455L3.13803 14.6426L2.69956 13.6406C2.60605 13.4273 2.5589 13.3205 2.57456 13.2344C2.58842 13.1591 2.63223 13.0918 2.69565 13.0488C2.7682 12.9999 2.88481 13 3.11752 13H4.31186ZM16.8617 13C17.095 13 17.212 12.9997 17.2845 13.0488C17.3479 13.0918 17.3908 13.1591 17.4046 13.2344C17.4203 13.3205 17.3741 13.4273 17.2806 13.6406L16.8412 14.6426L17.2806 15.6455C17.3741 15.8589 17.4205 15.9656 17.4046 16.0518C17.3908 16.1269 17.3477 16.1934 17.2845 16.2363C17.212 16.2855 17.095 16.2861 16.8617 16.2861H15.6673C15.3473 16.2861 15.187 16.2859 15.0648 16.2236C14.9573 16.1688 14.8696 16.0811 14.8148 15.9736C14.7526 15.8514 14.7533 15.6909 14.7533 15.3711V13.9141C14.7533 13.5942 14.7525 13.4337 14.8148 13.3115C14.8695 13.2042 14.9574 13.1173 15.0648 13.0625C15.187 13.0002 15.3473 13 15.6673 13H16.8617Z"/>
</mask>
<path d="M4.31186 13C4.63181 13 4.79218 13.0003 4.9144 13.0625C5.0218 13.1172 5.1096 13.2042 5.1644 13.3115C5.22667 13.4337 5.2269 13.5942 5.2269 13.9141V15.3711C5.2269 15.6911 5.22664 15.8514 5.1644 15.9736C5.10961 16.0812 5.02192 16.1688 4.9144 16.2236C4.7922 16.2858 4.63167 16.2861 4.31186 16.2861H3.11752C2.88454 16.2861 2.76818 16.2854 2.69565 16.2363C2.63224 16.1934 2.58843 16.1271 2.57456 16.0518C2.55869 15.9656 2.60597 15.859 2.69956 15.6455L3.13803 14.6426L2.69956 13.6406C2.60605 13.4273 2.5589 13.3205 2.57456 13.2344C2.58842 13.1591 2.63223 13.0918 2.69565 13.0488C2.7682 12.9999 2.88481 13 3.11752 13H4.31186ZM16.8617 13C17.095 13 17.212 12.9997 17.2845 13.0488C17.3479 13.0918 17.3908 13.1591 17.4046 13.2344C17.4203 13.3205 17.3741 13.4273 17.2806 13.6406L16.8412 14.6426L17.2806 15.6455C17.3741 15.8589 17.4205 15.9656 17.4046 16.0518C17.3908 16.1269 17.3477 16.1934 17.2845 16.2363C17.212 16.2855 17.095 16.2861 16.8617 16.2861H15.6673C15.3473 16.2861 15.187 16.2859 15.0648 16.2236C14.9573 16.1688 14.8696 16.0811 14.8148 15.9736C14.7526 15.8514 14.7533 15.6909 14.7533 15.3711V13.9141C14.7533 13.5942 14.7525 13.4337 14.8148 13.3115C14.8695 13.2042 14.9574 13.1173 15.0648 13.0625C15.187 13.0002 15.3473 13 15.6673 13H16.8617Z" fill="#FFA00F"/>
<path d="M4.9144 13.0625L4.93061 13.0307L4.93061 13.0307L4.9144 13.0625ZM5.1644 13.3115L5.19622 13.2953L5.19621 13.2953L5.1644 13.3115ZM5.2269 13.9141L5.26261 13.9141L5.2269 13.9141ZM5.1644 15.9736L5.19622 15.9898L5.19622 15.9898L5.1644 15.9736ZM4.9144 16.2236L4.93059 16.2555L4.93061 16.2555L4.9144 16.2236ZM3.11752 16.2861L3.11752 16.3218H3.11752V16.2861ZM2.69565 16.2363L2.67563 16.2659L2.67564 16.2659L2.69565 16.2363ZM2.57456 16.0518L2.53943 16.0582L2.53943 16.0582L2.57456 16.0518ZM2.69956 15.6455L2.73227 15.6598L2.73228 15.6598L2.69956 15.6455ZM3.13803 14.6426L3.17076 14.6569L3.17701 14.6426L3.17075 14.6283L3.13803 14.6426ZM2.69956 13.6406L2.73227 13.6263L2.73227 13.6263L2.69956 13.6406ZM2.57456 13.2344L2.53943 13.2279L2.53942 13.228L2.57456 13.2344ZM2.69565 13.0488L2.67569 13.0192L2.67563 13.0193L2.69565 13.0488ZM3.11752 13L3.11752 12.9643H3.11752L3.11752 13ZM17.2845 13.0488L17.3045 13.0193L17.3045 13.0193L17.2845 13.0488ZM17.4046 13.2344L17.4398 13.228L17.4398 13.2279L17.4046 13.2344ZM17.2806 13.6406L17.3133 13.655L17.3133 13.655L17.2806 13.6406ZM16.8412 14.6426L16.8085 14.6282L16.8022 14.6426L16.8084 14.6569L16.8412 14.6426ZM17.2806 15.6455L17.2479 15.6598L17.2479 15.6598L17.2806 15.6455ZM17.4046 16.0518L17.4398 16.0582L17.4398 16.0582L17.4046 16.0518ZM17.2845 16.2363L17.3045 16.2659L17.3046 16.2659L17.2845 16.2363ZM15.0648 16.2236L15.0486 16.2555L15.0486 16.2555L15.0648 16.2236ZM14.8148 15.9736L14.783 15.9898L14.783 15.9898L14.8148 15.9736ZM14.7533 13.9141H14.7176H14.7533ZM14.8148 13.3115L14.783 13.2953L14.783 13.2953L14.8148 13.3115ZM15.0648 13.0625L15.0486 13.0307L15.0486 13.0307L15.0648 13.0625ZM4.31186 13V13.0357C4.47241 13.0357 4.59079 13.0358 4.68435 13.0435C4.77751 13.0512 4.84294 13.0662 4.89819 13.0943L4.9144 13.0625L4.93061 13.0307C4.86363 12.9966 4.78778 12.9803 4.69021 12.9723C4.59305 12.9643 4.47126 12.9643 4.31186 12.9643V13ZM4.9144 13.0625L4.89819 13.0943C4.99898 13.1457 5.08127 13.2272 5.13259 13.3278L5.1644 13.3115L5.19621 13.2953C5.13793 13.1811 5.04462 13.0888 4.93061 13.0307L4.9144 13.0625ZM5.1644 13.3115L5.13258 13.3277C5.16072 13.383 5.17575 13.4484 5.18341 13.5416C5.1911 13.6352 5.19119 13.7535 5.19119 13.9141L5.2269 13.9141L5.26261 13.9141C5.26261 13.7547 5.26258 13.6329 5.25459 13.5357C5.24657 13.4382 5.23034 13.3623 5.19622 13.2953L5.1644 13.3115ZM5.2269 13.9141H5.19119V15.3711H5.2269H5.26261V13.9141H5.2269ZM5.2269 15.3711H5.19119C5.19119 15.5316 5.19109 15.65 5.1834 15.7436C5.17573 15.8367 5.16071 15.9022 5.13257 15.9574L5.1644 15.9736L5.19622 15.9898C5.23033 15.9229 5.24656 15.847 5.25458 15.7494C5.26258 15.6523 5.26261 15.5305 5.26261 15.3711H5.2269ZM5.1644 15.9736L5.13258 15.9574C5.08122 16.0582 4.99899 16.1405 4.89819 16.1918L4.9144 16.2236L4.93061 16.2555C5.04485 16.1972 5.13801 16.1041 5.19622 15.9898L5.1644 15.9736ZM4.9144 16.2236L4.89821 16.1918C4.84296 16.2199 4.77748 16.2349 4.6843 16.2426C4.59071 16.2503 4.47233 16.2504 4.31186 16.2504V16.2861V16.3218C4.4712 16.3218 4.59298 16.3218 4.69016 16.3138C4.78775 16.3057 4.86363 16.2895 4.93059 16.2555L4.9144 16.2236ZM4.31186 16.2861V16.2504H3.11752V16.2861V16.3218H4.31186V16.2861ZM3.11752 16.2861L3.11752 16.2504C3.0004 16.2504 2.91499 16.2502 2.84975 16.2441C2.78457 16.2379 2.74451 16.2263 2.71566 16.2067L2.69565 16.2363L2.67564 16.2659C2.71932 16.2955 2.7737 16.3087 2.84308 16.3152C2.9124 16.3217 3.00166 16.3218 3.11752 16.3218L3.11752 16.2861ZM2.69565 16.2363L2.71567 16.2068C2.66008 16.1691 2.62179 16.1111 2.60968 16.0453L2.57456 16.0518L2.53943 16.0582C2.55506 16.1431 2.6044 16.2177 2.67563 16.2659L2.69565 16.2363ZM2.57456 16.0518L2.60968 16.0453C2.6034 16.0112 2.60898 15.97 2.62987 15.9078C2.65077 15.8455 2.68518 15.7673 2.73227 15.6598L2.69956 15.6455L2.66685 15.6312C2.62035 15.7373 2.58433 15.819 2.56216 15.885C2.53998 15.951 2.52985 16.0062 2.53943 16.0582L2.57456 16.0518ZM2.69956 15.6455L2.73228 15.6598L3.17076 14.6569L3.13803 14.6426L3.10531 14.6283L2.66683 15.6312L2.69956 15.6455ZM3.13803 14.6426L3.17075 14.6283L2.73227 13.6263L2.69956 13.6406L2.66684 13.6549L3.10531 14.6569L3.13803 14.6426ZM2.69956 13.6406L2.73227 13.6263C2.68523 13.519 2.65086 13.4407 2.62998 13.3784C2.6091 13.3162 2.60349 13.2749 2.60969 13.2408L2.57456 13.2344L2.53942 13.228C2.52997 13.28 2.5401 13.3351 2.56226 13.4011C2.58441 13.4672 2.62038 13.5489 2.66685 13.655L2.69956 13.6406ZM2.57456 13.2344L2.60968 13.2408C2.62182 13.1749 2.66022 13.1159 2.71567 13.0784L2.69565 13.0488L2.67563 13.0193C2.60424 13.0676 2.55502 13.1432 2.53943 13.2279L2.57456 13.2344ZM2.69565 13.0488L2.71561 13.0784C2.7444 13.059 2.78446 13.0476 2.84975 13.0417C2.91507 13.0357 3.00048 13.0357 3.11752 13.0357L3.11752 13L3.11752 12.9643C3.00186 12.9643 2.91261 12.9642 2.8433 12.9705C2.77396 12.9768 2.71945 12.9897 2.67569 13.0192L2.69565 13.0488ZM3.11752 13V13.0357H4.31186V13V12.9643H3.11752V13ZM16.8617 13V13.0357C16.979 13.0357 17.0647 13.0357 17.1302 13.0416C17.1956 13.0474 17.2357 13.0589 17.2645 13.0784L17.2845 13.0488L17.3045 13.0193C17.2607 12.9896 17.2061 12.9767 17.1366 12.9704C17.0671 12.9642 16.9776 12.9643 16.8617 12.9643V13ZM17.2845 13.0488L17.2645 13.0784C17.3197 13.1158 17.3573 13.1746 17.3695 13.2408L17.4046 13.2344L17.4398 13.2279C17.4242 13.1435 17.3761 13.0677 17.3045 13.0193L17.2845 13.0488ZM17.4046 13.2344L17.3695 13.2408C17.3757 13.275 17.3703 13.3164 17.3497 13.3785C17.329 13.4407 17.2949 13.519 17.2479 13.6263L17.2806 13.6406L17.3133 13.655C17.3598 13.5489 17.3956 13.4671 17.4175 13.401C17.4394 13.3349 17.4492 13.2798 17.4398 13.228L17.4046 13.2344ZM17.2806 13.6406L17.2479 13.6263L16.8085 14.6282L16.8412 14.6426L16.8739 14.6569L17.3133 13.655L17.2806 13.6406ZM16.8412 14.6426L16.8084 14.6569L17.2479 15.6598L17.2806 15.6455L17.3133 15.6312L16.8739 14.6282L16.8412 14.6426ZM17.2806 15.6455L17.2479 15.6598C17.2949 15.7671 17.3291 15.8454 17.3497 15.9076C17.3704 15.9698 17.3758 16.0111 17.3695 16.0453L17.4046 16.0518L17.4398 16.0582C17.4493 16.0063 17.4395 15.9512 17.4175 15.8851C17.3956 15.819 17.3598 15.7373 17.3133 15.6312L17.2806 15.6455ZM17.4046 16.0518L17.3695 16.0453C17.3574 16.1111 17.3197 16.1693 17.2645 16.2068L17.2845 16.2363L17.3046 16.2659C17.3758 16.2175 17.4242 16.1427 17.4398 16.0582L17.4046 16.0518ZM17.2845 16.2363L17.2645 16.2068C17.2357 16.2263 17.1955 16.238 17.13 16.2441C17.0646 16.2502 16.9789 16.2504 16.8617 16.2504V16.2861V16.3218C16.9777 16.3218 17.0672 16.3217 17.1367 16.3152C17.2062 16.3087 17.2608 16.2955 17.3045 16.2659L17.2845 16.2363ZM16.8617 16.2861V16.2504H15.6673V16.2861V16.3218H16.8617V16.2861ZM15.6673 16.2861V16.2504C15.5067 16.2504 15.3884 16.2503 15.2948 16.2426C15.2017 16.235 15.1363 16.22 15.081 16.1918L15.0648 16.2236L15.0486 16.2555C15.1156 16.2896 15.1914 16.3058 15.289 16.3138C15.3861 16.3218 15.5079 16.3218 15.6673 16.3218V16.2861ZM15.0648 16.2236L15.081 16.1918C14.9802 16.1404 14.898 16.0582 14.8466 15.9574L14.8148 15.9736L14.783 15.9898C14.8412 16.1041 14.9344 16.1972 15.0486 16.2555L15.0648 16.2236ZM14.8148 15.9736L14.8466 15.9574C14.8186 15.9023 14.8038 15.8368 14.7963 15.7436C14.7889 15.65 14.789 15.5316 14.789 15.3711H14.7533H14.7176C14.7176 15.5304 14.7174 15.6522 14.7251 15.7493C14.7329 15.8469 14.7489 15.9228 14.783 15.9898L14.8148 15.9736ZM14.7533 15.3711H14.789V13.9141H14.7533H14.7176V15.3711H14.7533ZM14.7533 13.9141L14.789 13.9141C14.789 13.7535 14.7888 13.6351 14.7963 13.5415C14.8037 13.4483 14.8185 13.3829 14.8466 13.3277L14.8148 13.3115L14.783 13.2953C14.7488 13.3623 14.7328 13.4383 14.7251 13.5358C14.7173 13.633 14.7176 13.7548 14.7176 13.9141L14.7533 13.9141ZM14.8148 13.3115L14.8466 13.3277C14.8979 13.2272 14.9802 13.1457 15.081 13.0943L15.0648 13.0625L15.0486 13.0307C14.9346 13.0888 14.8412 13.1811 14.783 13.2953L14.8148 13.3115ZM15.0648 13.0625L15.081 13.0943C15.1363 13.0662 15.2017 13.0511 15.2948 13.0435C15.3884 13.0358 15.5067 13.0357 15.6673 13.0357V13V12.9643C15.5079 12.9643 15.3861 12.9643 15.289 12.9723C15.1914 12.9803 15.1156 12.9965 15.0486 13.0307L15.0648 13.0625ZM15.6673 13V13.0357H16.8617V13V12.9643H15.6673V13Z" fill="url(#paint8_linear_10_4198)" style="mix-blend-mode:darken" mask="url(#path-15-inside-2_10_4198)"/>
</g>
<path d="M4.31186 13C4.63181 13 4.79218 13.0003 4.9144 13.0625C5.0218 13.1172 5.1096 13.2042 5.1644 13.3115C5.22667 13.4337 5.2269 13.5942 5.2269 13.9141V15.3711C5.2269 15.6911 5.22664 15.8514 5.1644 15.9736C5.10961 16.0812 5.02192 16.1688 4.9144 16.2236C4.7922 16.2858 4.63167 16.2861 4.31186 16.2861H3.11752C2.88454 16.2861 2.76818 16.2854 2.69565 16.2363C2.63224 16.1934 2.58843 16.1271 2.57456 16.0518C2.55869 15.9656 2.60597 15.859 2.69956 15.6455L3.13803 14.6426L2.69956 13.6406C2.60605 13.4273 2.5589 13.3205 2.57456 13.2344C2.58842 13.1591 2.63223 13.0918 2.69565 13.0488C2.7682 12.9999 2.88481 13 3.11752 13H4.31186ZM16.8617 13C17.095 13 17.212 12.9997 17.2845 13.0488C17.3479 13.0918 17.3908 13.1591 17.4046 13.2344C17.4203 13.3205 17.3741 13.4273 17.2806 13.6406L16.8412 14.6426L17.2806 15.6455C17.3741 15.8589 17.4205 15.9656 17.4046 16.0518C17.3908 16.1269 17.3477 16.1934 17.2845 16.2363C17.212 16.2855 17.095 16.2861 16.8617 16.2861H15.6673C15.3473 16.2861 15.187 16.2859 15.0648 16.2236C14.9573 16.1688 14.8696 16.0811 14.8148 15.9736C14.7526 15.8514 14.7533 15.6909 14.7533 15.3711V13.9141C14.7533 13.5942 14.7525 13.4337 14.8148 13.3115C14.8695 13.2042 14.9574 13.1173 15.0648 13.0625C15.187 13.0002 15.3473 13 15.6673 13H16.8617Z" fill="url(#paint9_linear_10_4198)" fill-opacity="0.3" style="mix-blend-mode:overlay"/>
<path d="M4.31186 13C4.63181 13 4.79218 13.0003 4.9144 13.0625C5.0218 13.1172 5.1096 13.2042 5.1644 13.3115C5.22667 13.4337 5.2269 13.5942 5.2269 13.9141V15.3711C5.2269 15.6911 5.22664 15.8514 5.1644 15.9736C5.10961 16.0812 5.02192 16.1688 4.9144 16.2236C4.7922 16.2858 4.63167 16.2861 4.31186 16.2861H3.11752C2.88454 16.2861 2.76818 16.2854 2.69565 16.2363C2.63224 16.1934 2.58843 16.1271 2.57456 16.0518C2.55869 15.9656 2.60597 15.859 2.69956 15.6455L3.13803 14.6426L2.69956 13.6406C2.60605 13.4273 2.5589 13.3205 2.57456 13.2344C2.58842 13.1591 2.63223 13.0918 2.69565 13.0488C2.7682 12.9999 2.88481 13 3.11752 13H4.31186ZM16.8617 13C17.095 13 17.212 12.9997 17.2845 13.0488C17.3479 13.0918 17.3908 13.1591 17.4046 13.2344C17.4203 13.3205 17.3741 13.4273 17.2806 13.6406L16.8412 14.6426L17.2806 15.6455C17.3741 15.8589 17.4205 15.9656 17.4046 16.0518C17.3908 16.1269 17.3477 16.1934 17.2845 16.2363C17.212 16.2855 17.095 16.2861 16.8617 16.2861H15.6673C15.3473 16.2861 15.187 16.2859 15.0648 16.2236C14.9573 16.1688 14.8696 16.0811 14.8148 15.9736C14.7526 15.8514 14.7533 15.6909 14.7533 15.3711V13.9141C14.7533 13.5942 14.7525 13.4337 14.8148 13.3115C14.8695 13.2042 14.9574 13.1173 15.0648 13.0625C15.187 13.0002 15.3473 13 15.6673 13H16.8617Z" fill="url(#paint10_radial_10_4198)" fill-opacity="0.6" style="mix-blend-mode:overlay"/>
<path d="M4.31186 13C4.63181 13 4.79218 13.0003 4.9144 13.0625C5.0218 13.1172 5.1096 13.2042 5.1644 13.3115C5.22667 13.4337 5.2269 13.5942 5.2269 13.9141V15.3711C5.2269 15.6911 5.22664 15.8514 5.1644 15.9736C5.10961 16.0812 5.02192 16.1688 4.9144 16.2236C4.7922 16.2858 4.63167 16.2861 4.31186 16.2861H3.11752C2.88454 16.2861 2.76818 16.2854 2.69565 16.2363C2.63224 16.1934 2.58843 16.1271 2.57456 16.0518C2.55869 15.9656 2.60597 15.859 2.69956 15.6455L3.13803 14.6426L2.69956 13.6406C2.60605 13.4273 2.5589 13.3205 2.57456 13.2344C2.58842 13.1591 2.63223 13.0918 2.69565 13.0488C2.7682 12.9999 2.88481 13 3.11752 13H4.31186ZM16.8617 13C17.095 13 17.212 12.9997 17.2845 13.0488C17.3479 13.0918 17.3908 13.1591 17.4046 13.2344C17.4203 13.3205 17.3741 13.4273 17.2806 13.6406L16.8412 14.6426L17.2806 15.6455C17.3741 15.8589 17.4205 15.9656 17.4046 16.0518C17.3908 16.1269 17.3477 16.1934 17.2845 16.2363C17.212 16.2855 17.095 16.2861 16.8617 16.2861H15.6673C15.3473 16.2861 15.187 16.2859 15.0648 16.2236C14.9573 16.1688 14.8696 16.0811 14.8148 15.9736C14.7526 15.8514 14.7533 15.6909 14.7533 15.3711V13.9141C14.7533 13.5942 14.7525 13.4337 14.8148 13.3115C14.8695 13.2042 14.9574 13.1173 15.0648 13.0625C15.187 13.0002 15.3473 13 15.6673 13H16.8617Z" fill="black" fill-opacity="0.24" style="mix-blend-mode:overlay"/>
<path d="M4.31186 13C4.63181 13 4.79218 13.0003 4.9144 13.0625C5.0218 13.1172 5.1096 13.2042 5.1644 13.3115C5.22667 13.4337 5.2269 13.5942 5.2269 13.9141V15.3711C5.2269 15.6911 5.22664 15.8514 5.1644 15.9736C5.10961 16.0812 5.02192 16.1688 4.9144 16.2236C4.7922 16.2858 4.63167 16.2861 4.31186 16.2861H3.11752C2.88454 16.2861 2.76818 16.2854 2.69565 16.2363C2.63224 16.1934 2.58843 16.1271 2.57456 16.0518C2.55869 15.9656 2.60597 15.859 2.69956 15.6455L3.13803 14.6426L2.69956 13.6406C2.60605 13.4273 2.5589 13.3205 2.57456 13.2344C2.58842 13.1591 2.63223 13.0918 2.69565 13.0488C2.7682 12.9999 2.88481 13 3.11752 13H4.31186ZM16.8617 13C17.095 13 17.212 12.9997 17.2845 13.0488C17.3479 13.0918 17.3908 13.1591 17.4046 13.2344C17.4203 13.3205 17.3741 13.4273 17.2806 13.6406L16.8412 14.6426L17.2806 15.6455C17.3741 15.8589 17.4205 15.9656 17.4046 16.0518C17.3908 16.1269 17.3477 16.1934 17.2845 16.2363C17.212 16.2855 17.095 16.2861 16.8617 16.2861H15.6673C15.3473 16.2861 15.187 16.2859 15.0648 16.2236C14.9573 16.1688 14.8696 16.0811 14.8148 15.9736C14.7526 15.8514 14.7533 15.6909 14.7533 15.3711V13.9141C14.7533 13.5942 14.7525 13.4337 14.8148 13.3115C14.8695 13.2042 14.9574 13.1173 15.0648 13.0625C15.187 13.0002 15.3473 13 15.6673 13H16.8617Z" fill="black" fill-opacity="0.12" style="mix-blend-mode:darken"/>
<g filter="url(#filter4_dd_10_4198)">
<rect x="3.7041" y="12.1428" width="12.5714" height="3.28571" rx="0.571429" fill="#FFA00F"/>
<rect x="3.72196" y="12.1607" width="12.5357" height="3.25" rx="0.553571" stroke="url(#paint11_linear_10_4198)" stroke-width="0.0357143" stroke-linecap="round" style="mix-blend-mode:darken"/>
</g>
<rect x="3.7041" y="12.1428" width="12.5714" height="3.28571" rx="0.571429" fill="url(#paint12_linear_10_4198)" fill-opacity="0.3" style="mix-blend-mode:overlay"/>
<rect x="3.7041" y="12.1428" width="12.5714" height="3.28571" rx="0.571429" fill="url(#paint13_radial_10_4198)" fill-opacity="0.6" style="mix-blend-mode:overlay"/>
<g filter="url(#filter5_i_10_4198)">
<circle cx="4.48968" cy="13.7857" r="0.214286" fill="black" fill-opacity="0.24" style="mix-blend-mode:color-burn"/>
<circle cx="4.48968" cy="13.7857" r="0.214286" fill="black" fill-opacity="0.32" style="mix-blend-mode:darken"/>
</g>
<g filter="url(#filter6_i_10_4198)">
<circle cx="15.4897" cy="13.7857" r="0.214286" fill="black" fill-opacity="0.24" style="mix-blend-mode:color-burn"/>
<circle cx="15.4897" cy="13.7857" r="0.214286" fill="black" fill-opacity="0.32" style="mix-blend-mode:darken"/>
</g>
<g filter="url(#filter7_i_10_4198)">
<path d="M6.72 12.3886H6.82285C6.88114 12.3886 6.92685 12.3749 6.96 12.3474C6.99428 12.32 7.01143 12.2806 7.01143 12.2292C7.01143 12.1777 6.99543 12.1389 6.96343 12.1126C6.93143 12.0863 6.88514 12.0732 6.82457 12.0732C6.804 12.0732 6.78514 12.0737 6.768 12.0749C6.752 12.076 6.736 12.0777 6.72 12.08V12.3886ZM6.84 12.5943H6.46114V11.9806C6.46114 11.9589 6.46743 11.9417 6.48 11.9292C6.49257 11.9166 6.50914 11.9069 6.52971 11.9C6.56743 11.8863 6.61257 11.8766 6.66514 11.8709C6.71771 11.8652 6.76514 11.8623 6.80743 11.8623C6.96171 11.8623 7.07828 11.8954 7.15714 11.9617C7.23714 12.0269 7.27714 12.116 7.27714 12.2292C7.27714 12.3023 7.25943 12.3663 7.224 12.4212C7.18971 12.476 7.14 12.5189 7.07485 12.5497C7.00971 12.5794 6.93143 12.5943 6.84 12.5943ZM6.46114 12.4794H6.72171V12.9269C6.71143 12.9303 6.69485 12.9332 6.672 12.9354C6.64914 12.9389 6.62571 12.9406 6.60171 12.9406C6.55028 12.9406 6.51371 12.9314 6.492 12.9132C6.47143 12.8949 6.46114 12.8629 6.46114 12.8172V12.4794ZM8.46193 12.4074C8.46193 12.5263 8.4385 12.6269 8.39164 12.7092C8.34593 12.7903 8.2825 12.852 8.20135 12.8943C8.12135 12.9366 8.0305 12.9577 7.92878 12.9577C7.82707 12.9577 7.73621 12.9366 7.65621 12.8943C7.57621 12.852 7.51335 12.7903 7.46764 12.7092C7.42193 12.6269 7.39907 12.5263 7.39907 12.4074C7.39907 12.2886 7.4225 12.1886 7.46935 12.1074C7.51621 12.0252 7.57964 11.9634 7.65964 11.9223C7.73964 11.88 7.82935 11.8589 7.92878 11.8589C8.02935 11.8589 8.11964 11.88 8.19964 11.9223C8.28078 11.9634 8.34478 12.0252 8.39164 12.1074C8.4385 12.1886 8.46193 12.2886 8.46193 12.4074ZM8.19278 12.4074C8.19278 12.2977 8.16878 12.2143 8.12078 12.1572C8.07393 12.1 8.00993 12.0714 7.92878 12.0714C7.85107 12.0714 7.78821 12.1 7.74021 12.1572C7.69221 12.2132 7.66821 12.2966 7.66821 12.4074C7.66821 12.5194 7.69164 12.604 7.7385 12.6612C7.7865 12.7172 7.8505 12.7452 7.9305 12.7452C8.0105 12.7452 8.07393 12.7172 8.12078 12.6612C8.16878 12.604 8.19278 12.5194 8.19278 12.4074ZM8.9114 12.3886H9.01426C9.07255 12.3886 9.11826 12.3749 9.1514 12.3474C9.18569 12.32 9.20283 12.2806 9.20283 12.2292C9.20283 12.1777 9.18683 12.1389 9.15483 12.1126C9.12283 12.0863 9.07655 12.0732 9.01597 12.0732C8.9954 12.0732 8.97655 12.0737 8.9594 12.0749C8.9434 12.076 8.9274 12.0777 8.9114 12.08V12.3886ZM9.0314 12.5943H8.65255V11.9806C8.65255 11.9589 8.65883 11.9417 8.6714 11.9292C8.68397 11.9166 8.70055 11.9069 8.72112 11.9C8.75883 11.8863 8.80397 11.8766 8.85655 11.8709C8.90912 11.8652 8.95655 11.8623 8.99883 11.8623C9.15312 11.8623 9.26969 11.8954 9.34855 11.9617C9.42855 12.0269 9.46855 12.116 9.46855 12.2292C9.46855 12.3023 9.45083 12.3663 9.4154 12.4212C9.38112 12.476 9.3314 12.5189 9.26626 12.5497C9.20112 12.5794 9.12283 12.5943 9.0314 12.5943ZM8.65255 12.4794H8.91312V12.9269C8.90283 12.9303 8.88626 12.9332 8.8634 12.9354C8.84055 12.9389 8.81712 12.9406 8.79312 12.9406C8.74169 12.9406 8.70512 12.9314 8.6834 12.9132C8.66283 12.8949 8.65255 12.8629 8.65255 12.8172V12.4794ZM10.0876 12.9577C9.9939 12.9577 9.91333 12.9412 9.8459 12.908C9.77962 12.8737 9.72819 12.8263 9.69162 12.7657C9.65619 12.7052 9.63847 12.6343 9.63847 12.5532V12.44H9.90076V12.5463C9.90076 12.6092 9.9179 12.6583 9.95219 12.6937C9.98762 12.728 10.0328 12.7452 10.0876 12.7452C10.1425 12.7452 10.187 12.728 10.2213 12.6937C10.2568 12.6583 10.2745 12.6092 10.2745 12.5463V12.44H10.5368V12.5532C10.5368 12.6343 10.519 12.7052 10.4836 12.7657C10.4482 12.8263 10.3968 12.8737 10.3293 12.908C10.2619 12.9412 10.1813 12.9577 10.0876 12.9577ZM9.90076 12.4914H9.63847V11.8863C9.65105 11.884 9.66876 11.8812 9.69162 11.8777C9.71447 11.8743 9.73733 11.8726 9.76019 11.8726C9.80933 11.8726 9.84476 11.8812 9.86647 11.8983C9.88933 11.9154 9.90076 11.948 9.90076 11.996V12.4914ZM10.5368 12.4949H10.2745V11.8863C10.287 11.884 10.3048 11.8812 10.3276 11.8777C10.3516 11.8743 10.3745 11.8726 10.3962 11.8726C10.4453 11.8726 10.4808 11.8812 10.5025 11.8983C10.5253 11.9154 10.5368 11.948 10.5368 11.996V12.4949ZM10.7753 12.2069H11.0359V12.9183L10.9142 12.932C10.8719 12.932 10.8382 12.9194 10.813 12.8943C10.7879 12.8692 10.7753 12.8354 10.7753 12.7932V12.2069ZM10.9142 12.932V12.7194H11.4525C11.4605 12.7309 11.4673 12.7457 11.473 12.764C11.4787 12.7812 11.4816 12.8006 11.4816 12.8223C11.4816 12.8589 11.4736 12.8863 11.4576 12.9046C11.4416 12.9229 11.4193 12.932 11.3907 12.932H10.9142ZM11.0359 12.5326H10.7753V11.8863C10.7867 11.884 10.8039 11.8812 10.8267 11.8777C10.8507 11.8743 10.8736 11.8726 10.8953 11.8726C10.9456 11.8726 10.9816 11.8812 11.0033 11.8983C11.025 11.9154 11.0359 11.948 11.0359 11.996V12.5326ZM12.0842 12.1057H12.0739C12.0625 12.1423 12.0488 12.1829 12.0328 12.2274C12.0179 12.272 12.0025 12.3189 11.9865 12.368C11.9705 12.416 11.9551 12.464 11.9402 12.512L11.9094 12.6663C11.9025 12.688 11.8957 12.7109 11.8888 12.7349C11.8831 12.7589 11.8768 12.7823 11.8699 12.8052C11.8631 12.828 11.8568 12.8497 11.8511 12.8703C11.8454 12.8909 11.8397 12.9103 11.8339 12.9286C11.8214 12.932 11.8071 12.9354 11.7911 12.9389C11.7751 12.9434 11.7562 12.9457 11.7345 12.9457C11.6865 12.9457 11.6499 12.9372 11.6248 12.92C11.5997 12.9029 11.5871 12.8777 11.5871 12.8446C11.5871 12.8309 11.5888 12.8166 11.5922 12.8017C11.5968 12.7869 11.6019 12.7697 11.6077 12.7503C11.6179 12.7126 11.6322 12.6652 11.6505 12.608C11.6699 12.5509 11.6905 12.4892 11.7122 12.4229C11.7351 12.3554 11.7579 12.2892 11.7808 12.224C11.8048 12.1589 11.8265 12.0989 11.8459 12.044C11.8665 11.9892 11.8831 11.9463 11.8957 11.9154C11.9117 11.9052 11.9368 11.896 11.9711 11.888C12.0065 11.8789 12.0414 11.8743 12.0757 11.8743C12.1248 11.8743 12.1688 11.8817 12.2077 11.8966C12.2465 11.9103 12.2711 11.9326 12.2814 11.9634C12.3031 12.024 12.3265 12.0943 12.3517 12.1743C12.3779 12.2532 12.4042 12.336 12.4305 12.4229C12.4568 12.5097 12.4819 12.5943 12.5059 12.6766C12.5311 12.7577 12.5528 12.8309 12.5711 12.896C12.5585 12.9097 12.5402 12.9212 12.5162 12.9303C12.4922 12.9406 12.4637 12.9457 12.4305 12.9457C12.3837 12.9457 12.3505 12.9372 12.3311 12.92C12.3117 12.9029 12.2968 12.8772 12.2865 12.8429L12.2317 12.6509L12.2025 12.5052C12.1888 12.4537 12.1745 12.404 12.1597 12.356C12.1448 12.308 12.1311 12.2629 12.1185 12.2206C12.1059 12.1772 12.0945 12.1389 12.0842 12.1057ZM11.7945 12.6972L11.8957 12.4949H12.2968L12.3311 12.6972H11.7945ZM12.9862 12.3766H13.0976C13.1548 12.3766 13.2005 12.364 13.2348 12.3389C13.2702 12.3126 13.2879 12.2743 13.2879 12.224C13.2879 12.1749 13.2713 12.1377 13.2382 12.1126C13.205 12.0863 13.1542 12.0732 13.0856 12.0732C13.0662 12.0732 13.0485 12.0737 13.0325 12.0749C13.0165 12.076 13.001 12.0783 12.9862 12.0817V12.3766ZM13.1216 12.5789H12.7273V11.9806C12.7273 11.9589 12.7336 11.9417 12.7462 11.9292C12.7588 11.9166 12.7753 11.9069 12.7959 11.9C12.8336 11.8863 12.8776 11.8766 12.9279 11.8709C12.9793 11.8652 13.0325 11.8623 13.0873 11.8623C13.2416 11.8623 13.3576 11.8949 13.4353 11.96C13.513 12.024 13.5519 12.1114 13.5519 12.2223C13.5519 12.2909 13.533 12.3526 13.4953 12.4074C13.4588 12.4612 13.4079 12.5034 13.3428 12.5343C13.2788 12.564 13.205 12.5789 13.1216 12.5789ZM13.0736 12.5172L13.3068 12.4623C13.333 12.4989 13.3599 12.5349 13.3873 12.5703C13.4159 12.6057 13.4428 12.64 13.4679 12.6732C13.4942 12.7063 13.5176 12.7372 13.5382 12.7657C13.5588 12.7932 13.5753 12.8166 13.5879 12.836C13.5776 12.8703 13.5593 12.8972 13.533 12.9166C13.5068 12.9349 13.477 12.944 13.4439 12.944C13.4016 12.944 13.369 12.9349 13.3462 12.9166C13.3245 12.8972 13.3039 12.872 13.2845 12.8412L13.0736 12.5172ZM12.7273 12.4812H12.9879V12.9269C12.9776 12.9303 12.961 12.9332 12.9382 12.9354C12.9153 12.9389 12.8919 12.9406 12.8679 12.9406C12.8165 12.9406 12.7799 12.9314 12.7582 12.9132C12.7376 12.8949 12.7273 12.8629 12.7273 12.8172V12.4812Z" fill="black" fill-opacity="0.24" style="mix-blend-mode:color-burn"/>
<path d="M6.72 12.3886H6.82285C6.88114 12.3886 6.92685 12.3749 6.96 12.3474C6.99428 12.32 7.01143 12.2806 7.01143 12.2292C7.01143 12.1777 6.99543 12.1389 6.96343 12.1126C6.93143 12.0863 6.88514 12.0732 6.82457 12.0732C6.804 12.0732 6.78514 12.0737 6.768 12.0749C6.752 12.076 6.736 12.0777 6.72 12.08V12.3886ZM6.84 12.5943H6.46114V11.9806C6.46114 11.9589 6.46743 11.9417 6.48 11.9292C6.49257 11.9166 6.50914 11.9069 6.52971 11.9C6.56743 11.8863 6.61257 11.8766 6.66514 11.8709C6.71771 11.8652 6.76514 11.8623 6.80743 11.8623C6.96171 11.8623 7.07828 11.8954 7.15714 11.9617C7.23714 12.0269 7.27714 12.116 7.27714 12.2292C7.27714 12.3023 7.25943 12.3663 7.224 12.4212C7.18971 12.476 7.14 12.5189 7.07485 12.5497C7.00971 12.5794 6.93143 12.5943 6.84 12.5943ZM6.46114 12.4794H6.72171V12.9269C6.71143 12.9303 6.69485 12.9332 6.672 12.9354C6.64914 12.9389 6.62571 12.9406 6.60171 12.9406C6.55028 12.9406 6.51371 12.9314 6.492 12.9132C6.47143 12.8949 6.46114 12.8629 6.46114 12.8172V12.4794ZM8.46193 12.4074C8.46193 12.5263 8.4385 12.6269 8.39164 12.7092C8.34593 12.7903 8.2825 12.852 8.20135 12.8943C8.12135 12.9366 8.0305 12.9577 7.92878 12.9577C7.82707 12.9577 7.73621 12.9366 7.65621 12.8943C7.57621 12.852 7.51335 12.7903 7.46764 12.7092C7.42193 12.6269 7.39907 12.5263 7.39907 12.4074C7.39907 12.2886 7.4225 12.1886 7.46935 12.1074C7.51621 12.0252 7.57964 11.9634 7.65964 11.9223C7.73964 11.88 7.82935 11.8589 7.92878 11.8589C8.02935 11.8589 8.11964 11.88 8.19964 11.9223C8.28078 11.9634 8.34478 12.0252 8.39164 12.1074C8.4385 12.1886 8.46193 12.2886 8.46193 12.4074ZM8.19278 12.4074C8.19278 12.2977 8.16878 12.2143 8.12078 12.1572C8.07393 12.1 8.00993 12.0714 7.92878 12.0714C7.85107 12.0714 7.78821 12.1 7.74021 12.1572C7.69221 12.2132 7.66821 12.2966 7.66821 12.4074C7.66821 12.5194 7.69164 12.604 7.7385 12.6612C7.7865 12.7172 7.8505 12.7452 7.9305 12.7452C8.0105 12.7452 8.07393 12.7172 8.12078 12.6612C8.16878 12.604 8.19278 12.5194 8.19278 12.4074ZM8.9114 12.3886H9.01426C9.07255 12.3886 9.11826 12.3749 9.1514 12.3474C9.18569 12.32 9.20283 12.2806 9.20283 12.2292C9.20283 12.1777 9.18683 12.1389 9.15483 12.1126C9.12283 12.0863 9.07655 12.0732 9.01597 12.0732C8.9954 12.0732 8.97655 12.0737 8.9594 12.0749C8.9434 12.076 8.9274 12.0777 8.9114 12.08V12.3886ZM9.0314 12.5943H8.65255V11.9806C8.65255 11.9589 8.65883 11.9417 8.6714 11.9292C8.68397 11.9166 8.70055 11.9069 8.72112 11.9C8.75883 11.8863 8.80397 11.8766 8.85655 11.8709C8.90912 11.8652 8.95655 11.8623 8.99883 11.8623C9.15312 11.8623 9.26969 11.8954 9.34855 11.9617C9.42855 12.0269 9.46855 12.116 9.46855 12.2292C9.46855 12.3023 9.45083 12.3663 9.4154 12.4212C9.38112 12.476 9.3314 12.5189 9.26626 12.5497C9.20112 12.5794 9.12283 12.5943 9.0314 12.5943ZM8.65255 12.4794H8.91312V12.9269C8.90283 12.9303 8.88626 12.9332 8.8634 12.9354C8.84055 12.9389 8.81712 12.9406 8.79312 12.9406C8.74169 12.9406 8.70512 12.9314 8.6834 12.9132C8.66283 12.8949 8.65255 12.8629 8.65255 12.8172V12.4794ZM10.0876 12.9577C9.9939 12.9577 9.91333 12.9412 9.8459 12.908C9.77962 12.8737 9.72819 12.8263 9.69162 12.7657C9.65619 12.7052 9.63847 12.6343 9.63847 12.5532V12.44H9.90076V12.5463C9.90076 12.6092 9.9179 12.6583 9.95219 12.6937C9.98762 12.728 10.0328 12.7452 10.0876 12.7452C10.1425 12.7452 10.187 12.728 10.2213 12.6937C10.2568 12.6583 10.2745 12.6092 10.2745 12.5463V12.44H10.5368V12.5532C10.5368 12.6343 10.519 12.7052 10.4836 12.7657C10.4482 12.8263 10.3968 12.8737 10.3293 12.908C10.2619 12.9412 10.1813 12.9577 10.0876 12.9577ZM9.90076 12.4914H9.63847V11.8863C9.65105 11.884 9.66876 11.8812 9.69162 11.8777C9.71447 11.8743 9.73733 11.8726 9.76019 11.8726C9.80933 11.8726 9.84476 11.8812 9.86647 11.8983C9.88933 11.9154 9.90076 11.948 9.90076 11.996V12.4914ZM10.5368 12.4949H10.2745V11.8863C10.287 11.884 10.3048 11.8812 10.3276 11.8777C10.3516 11.8743 10.3745 11.8726 10.3962 11.8726C10.4453 11.8726 10.4808 11.8812 10.5025 11.8983C10.5253 11.9154 10.5368 11.948 10.5368 11.996V12.4949ZM10.7753 12.2069H11.0359V12.9183L10.9142 12.932C10.8719 12.932 10.8382 12.9194 10.813 12.8943C10.7879 12.8692 10.7753 12.8354 10.7753 12.7932V12.2069ZM10.9142 12.932V12.7194H11.4525C11.4605 12.7309 11.4673 12.7457 11.473 12.764C11.4787 12.7812 11.4816 12.8006 11.4816 12.8223C11.4816 12.8589 11.4736 12.8863 11.4576 12.9046C11.4416 12.9229 11.4193 12.932 11.3907 12.932H10.9142ZM11.0359 12.5326H10.7753V11.8863C10.7867 11.884 10.8039 11.8812 10.8267 11.8777C10.8507 11.8743 10.8736 11.8726 10.8953 11.8726C10.9456 11.8726 10.9816 11.8812 11.0033 11.8983C11.025 11.9154 11.0359 11.948 11.0359 11.996V12.5326ZM12.0842 12.1057H12.0739C12.0625 12.1423 12.0488 12.1829 12.0328 12.2274C12.0179 12.272 12.0025 12.3189 11.9865 12.368C11.9705 12.416 11.9551 12.464 11.9402 12.512L11.9094 12.6663C11.9025 12.688 11.8957 12.7109 11.8888 12.7349C11.8831 12.7589 11.8768 12.7823 11.8699 12.8052C11.8631 12.828 11.8568 12.8497 11.8511 12.8703C11.8454 12.8909 11.8397 12.9103 11.8339 12.9286C11.8214 12.932 11.8071 12.9354 11.7911 12.9389C11.7751 12.9434 11.7562 12.9457 11.7345 12.9457C11.6865 12.9457 11.6499 12.9372 11.6248 12.92C11.5997 12.9029 11.5871 12.8777 11.5871 12.8446C11.5871 12.8309 11.5888 12.8166 11.5922 12.8017C11.5968 12.7869 11.6019 12.7697 11.6077 12.7503C11.6179 12.7126 11.6322 12.6652 11.6505 12.608C11.6699 12.5509 11.6905 12.4892 11.7122 12.4229C11.7351 12.3554 11.7579 12.2892 11.7808 12.224C11.8048 12.1589 11.8265 12.0989 11.8459 12.044C11.8665 11.9892 11.8831 11.9463 11.8957 11.9154C11.9117 11.9052 11.9368 11.896 11.9711 11.888C12.0065 11.8789 12.0414 11.8743 12.0757 11.8743C12.1248 11.8743 12.1688 11.8817 12.2077 11.8966C12.2465 11.9103 12.2711 11.9326 12.2814 11.9634C12.3031 12.024 12.3265 12.0943 12.3517 12.1743C12.3779 12.2532 12.4042 12.336 12.4305 12.4229C12.4568 12.5097 12.4819 12.5943 12.5059 12.6766C12.5311 12.7577 12.5528 12.8309 12.5711 12.896C12.5585 12.9097 12.5402 12.9212 12.5162 12.9303C12.4922 12.9406 12.4637 12.9457 12.4305 12.9457C12.3837 12.9457 12.3505 12.9372 12.3311 12.92C12.3117 12.9029 12.2968 12.8772 12.2865 12.8429L12.2317 12.6509L12.2025 12.5052C12.1888 12.4537 12.1745 12.404 12.1597 12.356C12.1448 12.308 12.1311 12.2629 12.1185 12.2206C12.1059 12.1772 12.0945 12.1389 12.0842 12.1057ZM11.7945 12.6972L11.8957 12.4949H12.2968L12.3311 12.6972H11.7945ZM12.9862 12.3766H13.0976C13.1548 12.3766 13.2005 12.364 13.2348 12.3389C13.2702 12.3126 13.2879 12.2743 13.2879 12.224C13.2879 12.1749 13.2713 12.1377 13.2382 12.1126C13.205 12.0863 13.1542 12.0732 13.0856 12.0732C13.0662 12.0732 13.0485 12.0737 13.0325 12.0749C13.0165 12.076 13.001 12.0783 12.9862 12.0817V12.3766ZM13.1216 12.5789H12.7273V11.9806C12.7273 11.9589 12.7336 11.9417 12.7462 11.9292C12.7588 11.9166 12.7753 11.9069 12.7959 11.9C12.8336 11.8863 12.8776 11.8766 12.9279 11.8709C12.9793 11.8652 13.0325 11.8623 13.0873 11.8623C13.2416 11.8623 13.3576 11.8949 13.4353 11.96C13.513 12.024 13.5519 12.1114 13.5519 12.2223C13.5519 12.2909 13.533 12.3526 13.4953 12.4074C13.4588 12.4612 13.4079 12.5034 13.3428 12.5343C13.2788 12.564 13.205 12.5789 13.1216 12.5789ZM13.0736 12.5172L13.3068 12.4623C13.333 12.4989 13.3599 12.5349 13.3873 12.5703C13.4159 12.6057 13.4428 12.64 13.4679 12.6732C13.4942 12.7063 13.5176 12.7372 13.5382 12.7657C13.5588 12.7932 13.5753 12.8166 13.5879 12.836C13.5776 12.8703 13.5593 12.8972 13.533 12.9166C13.5068 12.9349 13.477 12.944 13.4439 12.944C13.4016 12.944 13.369 12.9349 13.3462 12.9166C13.3245 12.8972 13.3039 12.872 13.2845 12.8412L13.0736 12.5172ZM12.7273 12.4812H12.9879V12.9269C12.9776 12.9303 12.961 12.9332 12.9382 12.9354C12.9153 12.9389 12.8919 12.9406 12.8679 12.9406C12.8165 12.9406 12.7799 12.9314 12.7582 12.9132C12.7376 12.8949 12.7273 12.8629 12.7273 12.8172V12.4812Z" fill="black" fill-opacity="0.32" style="mix-blend-mode:darken"/>
</g>
<defs>
<filter id="filter0_dddd_10_4198" x="1.04056" y="2.1996" width="17.936" height="23.5472" filterUnits="userSpaceOnUse" color-interpolation-filters="sRGB">
<feFlood flood-opacity="0" result="BackgroundImageFix"/>
<feColorMatrix in="SourceAlpha" type="matrix" values="0 0 0 0 0 0 0 0 0 0 0 0 0 0 0 0 0 0 127 0" result="hardAlpha"/>
<feOffset dy="0.357143"/>
<feGaussianBlur stdDeviation="0.392857"/>
<feColorMatrix type="matrix" values="0 0 0 0 0 0 0 0 0 0 0 0 0 0 0 0 0 0 0.24 0"/>
<feBlend mode="normal" in2="BackgroundImageFix" result="effect1_dropShadow_10_4198"/>
<feColorMatrix in="SourceAlpha" type="matrix" values="0 0 0 0 0 0 0 0 0 0 0 0 0 0 0 0 0 0 127 0" result="hardAlpha"/>
<feOffset dy="1.5"/>
<feGaussianBlur stdDeviation="0.75"/>
<feColorMatrix type="matrix" values="0 0 0 0 0 0 0 0 0 0 0 0 0 0 0 0 0 0 0.21 0"/>
<feBlend mode="normal" in2="effect1_dropShadow_10_4198" result="effect2_dropShadow_10_4198"/>
<feColorMatrix in="SourceAlpha" type="matrix" values="0 0 0 0 0 0 0 0 0 0 0 0 0 0 0 0 0 0 127 0" result="hardAlpha"/>
<feOffset dy="3.28571"/>
<feGaussianBlur stdDeviation="1"/>
<feColorMatrix type="matrix" values="0 0 0 0 0 0 0 0 0 0 0 0 0 0 0 0 0 0 0.12 0"/>
<feBlend mode="normal" in2="effect2_dropShadow_10_4198" result="effect3_dropShadow_10_4198"/>
<feColorMatrix in="SourceAlpha" type="matrix" values="0 0 0 0 0 0 0 0 0 0 0 0 0 0 0 0 0 0 127 0" result="hardAlpha"/>
<feOffset dy="5.85714"/>
<feGaussianBlur stdDeviation="1.17857"/>
<feColorMatrix type="matrix" values="0 0 0 0 0 0 0 0 0 0 0 0 0 0 0 0 0 0 0.04 0"/>
<feBlend mode="normal" in2="effect3_dropShadow_10_4198" result="effect4_dropShadow_10_4198"/>
<feBlend mode="normal" in="SourceGraphic" in2="effect4_dropShadow_10_4198" result="shape"/>
</filter>
<filter id="filter1_d_10_4198" x="2.82554" y="2.19948" width="14.3648" height="16.047" filterUnits="userSpaceOnUse" color-interpolation-filters="sRGB">
<feFlood flood-opacity="0" result="BackgroundImageFix"/>
<feColorMatrix in="SourceAlpha" type="matrix" values="0 0 0 0 0 0 0 0 0 0 0 0 0 0 0 0 0 0 127 0" result="hardAlpha"/>
<feOffset dy="0.142857"/>
<feGaussianBlur stdDeviation="0.285714"/>
<feColorMatrix type="matrix" values="0 0 0 0 0 0 0 0 0 0 0 0 0 0 0 0 0 0 0.16 0"/>
<feBlend mode="color-burn" in2="BackgroundImageFix" result="effect1_dropShadow_10_4198"/>
<feBlend mode="normal" in="SourceGraphic" in2="effect1_dropShadow_10_4198" result="shape"/>
</filter>
<filter id="filter2_d_10_4198" x="6.6392" y="5.76569" width="6.85808" height="6.85808" filterUnits="userSpaceOnUse" color-interpolation-filters="sRGB">
<feFlood flood-opacity="0" result="BackgroundImageFix"/>
<feColorMatrix in="SourceAlpha" type="matrix" values="0 0 0 0 0 0 0 0 0 0 0 0 0 0 0 0 0 0 127 0" result="hardAlpha"/>
<feOffset dy="0.142857"/>
<feGaussianBlur stdDeviation="0.428571"/>
<feColorMatrix type="matrix" values="0 0 0 0 0 0 0 0 0 0 0 0 0 0 0 0 0 0 0.12 0"/>
<feBlend mode="plus-darker" in2="BackgroundImageFix" result="effect1_dropShadow_10_4198"/>
<feBlend mode="normal" in="SourceGraphic" in2="effect1_dropShadow_10_4198" result="shape"/>
</filter>
<filter id="filter3_dd_10_4198" x="1.71439" y="12.4286" width="16.5505" height="5.00042" filterUnits="userSpaceOnUse" color-interpolation-filters="sRGB">
<feFlood flood-opacity="0" result="BackgroundImageFix"/>
<feColorMatrix in="SourceAlpha" type="matrix" values="0 0 0 0 0 0 0 0 0 0 0 0 0 0 0 0 0 0 127 0" result="hardAlpha"/>
<feOffset dy="0.285714"/>
<feGaussianBlur stdDeviation="0.428571"/>
<feColorMatrix type="matrix" values="0 0 0 0 0 0 0 0 0 0 0 0 0 0 0 0 0 0 0.16 0"/>
<feBlend mode="normal" in2="BackgroundImageFix" result="effect1_dropShadow_10_4198"/>
<feColorMatrix in="SourceAlpha" type="matrix" values="0 0 0 0 0 0 0 0 0 0 0 0 0 0 0 0 0 0 127 0" result="hardAlpha"/>
<feOffset dy="0.142857"/>
<feGaussianBlur stdDeviation="0.142857"/>
<feColorMatrix type="matrix" values="0 0 0 0 0 0 0 0 0 0 0 0 0 0 0 0 0 0 0.24 0"/>
<feBlend mode="normal" in2="effect1_dropShadow_10_4198" result="effect2_dropShadow_10_4198"/>
<feBlend mode="normal" in="SourceGraphic" in2="effect2_dropShadow_10_4198" result="shape"/>
</filter>
<filter id="filter4_dd_10_4198" x="2.84696" y="11.5714" width="14.2858" height="5.00005" filterUnits="userSpaceOnUse" color-interpolation-filters="sRGB">
<feFlood flood-opacity="0" result="BackgroundImageFix"/>
<feColorMatrix in="SourceAlpha" type="matrix" values="0 0 0 0 0 0 0 0 0 0 0 0 0 0 0 0 0 0 127 0" result="hardAlpha"/>
<feOffset dy="0.285714"/>
<feGaussianBlur stdDeviation="0.428571"/>
<feColorMatrix type="matrix" values="0 0 0 0 0 0 0 0 0 0 0 0 0 0 0 0 0 0 0.16 0"/>
<feBlend mode="normal" in2="BackgroundImageFix" result="effect1_dropShadow_10_4198"/>
<feColorMatrix in="SourceAlpha" type="matrix" values="0 0 0 0 0 0 0 0 0 0 0 0 0 0 0 0 0 0 127 0" result="hardAlpha"/>
<feOffset dy="0.142857"/>
<feGaussianBlur stdDeviation="0.142857"/>
<feColorMatrix type="matrix" values="0 0 0 0 0 0 0 0 0 0 0 0 0 0 0 0 0 0 0.24 0"/>
<feBlend mode="normal" in2="effect1_dropShadow_10_4198" result="effect2_dropShadow_10_4198"/>
<feBlend mode="normal" in="SourceGraphic" in2="effect2_dropShadow_10_4198" result="shape"/>
</filter>
<filter id="filter5_i_10_4198" x="4.27539" y="13.5714" width="0.428467" height="0.500017" filterUnits="userSpaceOnUse" color-interpolation-filters="sRGB">
<feFlood flood-opacity="0" result="BackgroundImageFix"/>
<feBlend mode="normal" in="SourceGraphic" in2="BackgroundImageFix" result="shape"/>
<feColorMatrix in="SourceAlpha" type="matrix" values="0 0 0 0 0 0 0 0 0 0 0 0 0 0 0 0 0 0 127 0" result="hardAlpha"/>
<feOffset dy="0.0714286"/>
<feGaussianBlur stdDeviation="0.0714286"/>
<feComposite in2="hardAlpha" operator="arithmetic" k2="-1" k3="1"/>
<feColorMatrix type="matrix" values="0 0 0 0 0 0 0 0 0 0 0 0 0 0 0 0 0 0 0.24 0"/>
<feBlend mode="darken" in2="shape" result="effect1_innerShadow_10_4198"/>
</filter>
<filter id="filter6_i_10_4198" x="15.2754" y="13.5714" width="0.428467" height="0.500017" filterUnits="userSpaceOnUse" color-interpolation-filters="sRGB">
<feFlood flood-opacity="0" result="BackgroundImageFix"/>
<feBlend mode="normal" in="SourceGraphic" in2="BackgroundImageFix" result="shape"/>
<feColorMatrix in="SourceAlpha" type="matrix" values="0 0 0 0 0 0 0 0 0 0 0 0 0 0 0 0 0 0 127 0" result="hardAlpha"/>
<feOffset dy="0.0714286"/>
<feGaussianBlur stdDeviation="0.0714286"/>
<feComposite in2="hardAlpha" operator="arithmetic" k2="-1" k3="1"/>
<feColorMatrix type="matrix" values="0 0 0 0 0 0 0 0 0 0 0 0 0 0 0 0 0 0 0.24 0"/>
<feBlend mode="darken" in2="shape" result="effect1_innerShadow_10_4198"/>
</filter>
<filter id="filter7_i_10_4198" x="6.46118" y="11.8589" width="7.12671" height="1.17031" filterUnits="userSpaceOnUse" color-interpolation-filters="sRGB">
<feFlood flood-opacity="0" result="BackgroundImageFix"/>
<feBlend mode="normal" in="SourceGraphic" in2="BackgroundImageFix" result="shape"/>
<feColorMatrix in="SourceAlpha" type="matrix" values="0 0 0 0 0 0 0 0 0 0 0 0 0 0 0 0 0 0 127 0" result="hardAlpha"/>
<feOffset dy="0.0714286"/>
<feGaussianBlur stdDeviation="0.0714286"/>
<feComposite in2="hardAlpha" operator="arithmetic" k2="-1" k3="1"/>
<feColorMatrix type="matrix" values="0 0 0 0 0 0 0 0 0 0 0 0 0 0 0 0 0 0 0.24 0"/>
<feBlend mode="darken" in2="shape" result="effect1_innerShadow_10_4198"/>
</filter>
<linearGradient id="paint0_linear_10_4198" x1="10" y1="2.26632" x2="10" y2="17.63" gradientUnits="userSpaceOnUse">
<stop stop-color="white"/>
<stop offset="1" stop-color="white" stop-opacity="0"/>
</linearGradient>
<radialGradient id="paint1_radial_10_4198" cx="0" cy="0" r="1" gradientUnits="userSpaceOnUse" gradientTransform="translate(10 6.67929) rotate(90) scale(10.1335 7.68848)">
<stop stop-color="white"/>
<stop offset="1" stop-color="white" stop-opacity="0"/>
</radialGradient>
<linearGradient id="paint2_linear_10_4198" x1="16.5795" y1="2.90156" x2="16.5795" y2="17.5416" gradientUnits="userSpaceOnUse">
<stop stop-color="#49F0BC"/>
<stop offset="1" stop-color="#29DCCC"/>
</linearGradient>
<linearGradient id="paint3_linear_10_4198" x1="9.92847" y1="2.26632" x2="9.92846" y2="17.63" gradientUnits="userSpaceOnUse">
<stop stop-color="white"/>
<stop offset="1" stop-color="white" stop-opacity="0"/>
</linearGradient>
<radialGradient id="paint4_radial_10_4198" cx="0" cy="0" r="1" gradientUnits="userSpaceOnUse" gradientTransform="translate(9.92847 6.67929) rotate(90) scale(10.1335 7.68848)">
<stop stop-color="white"/>
<stop offset="1" stop-color="white" stop-opacity="0"/>
</radialGradient>
<linearGradient id="paint5_linear_10_4198" x1="0" y1="0" x2="0" y2="20" gradientUnits="userSpaceOnUse">
<stop stop-color="white"/>
<stop offset="1" stop-color="white" stop-opacity="0.01"/>
</linearGradient>
<linearGradient id="paint6_linear_10_4198" x1="10.0079" y1="2.62805" x2="10.0079" y2="17.5322" gradientUnits="userSpaceOnUse">
<stop stop-color="white"/>
<stop offset="1" stop-color="#999999"/>
</linearGradient>
<linearGradient id="paint7_linear_10_4198" x1="10.0682" y1="6.51563" x2="10.0682" y2="11.5881" gradientUnits="userSpaceOnUse">
<stop stop-color="#DFDFDF"/>
<stop offset="1" stop-color="#A9A9A9"/>
</linearGradient>
<linearGradient id="paint8_linear_10_4198" x1="9.98961" y1="13" x2="9.98961" y2="16.2861" gradientUnits="userSpaceOnUse">
<stop stop-opacity="0"/>
<stop offset="1" stop-opacity="0.16"/>
</linearGradient>
<linearGradient id="paint9_linear_10_4198" x1="9.98962" y1="11.3569" x2="9.98962" y2="16.2861" gradientUnits="userSpaceOnUse">
<stop stop-color="white"/>
<stop offset="1" stop-color="white" stop-opacity="0"/>
</linearGradient>
<radialGradient id="paint10_radial_10_4198" cx="0" cy="0" r="1" gradientUnits="userSpaceOnUse" gradientTransform="translate(9.98962 13) rotate(90) scale(3.28613 13.8011)">
<stop stop-color="white"/>
<stop offset="1" stop-color="white" stop-opacity="0"/>
</radialGradient>
<linearGradient id="paint11_linear_10_4198" x1="9.98982" y1="12.1428" x2="9.98982" y2="15.4285" gradientUnits="userSpaceOnUse">
<stop stop-opacity="0"/>
<stop offset="1" stop-opacity="0.16"/>
</linearGradient>
<linearGradient id="paint12_linear_10_4198" x1="9.98982" y1="12.1428" x2="9.98982" y2="15.4285" gradientUnits="userSpaceOnUse">
<stop stop-color="white"/>
<stop offset="1" stop-color="white" stop-opacity="0"/>
</linearGradient>
<radialGradient id="paint13_radial_10_4198" cx="0" cy="0" r="1" gradientUnits="userSpaceOnUse" gradientTransform="translate(9.98982 12.7162) rotate(90) scale(2.71235 6.28571)">
<stop stop-color="white"/>
<stop offset="1" stop-color="white" stop-opacity="0"/>
</radialGradient>
</defs>
</svg>
