<svg width="25" height="32" viewBox="0 0 25 32" fill="none" xmlns="http://www.w3.org/2000/svg">
<g filter="url(#filter0_dddd_10_29044)">
<path d="M4.39019 9.10847C4.36849 8.51323 4.35765 8.2156 4.47145 7.8986C4.56907 7.62672 4.7486 7.3636 4.96617 7.17356C5.21984 6.952 5.5882 6.823 6.32494 6.56501C7.89255 6.01606 9.40487 5.27985 10.8308 4.42444C11.4789 4.03563 11.8029 3.84123 12.0818 3.77999C12.3587 3.71919 12.5538 3.71919 12.8307 3.77999C13.1096 3.84123 13.4337 4.03563 14.0818 4.42444C15.5077 5.27985 17.02 6.01606 18.5876 6.56501C19.3243 6.823 19.6927 6.952 19.9464 7.17356C20.1639 7.3636 20.3435 7.62672 20.4411 7.8986C20.5549 8.2156 20.544 8.51323 20.5224 9.10847C20.4606 10.8024 20.1549 13.32 19.0373 15.5923C17.5637 18.5888 15.1023 20.5543 13.6438 21.5225C13.3236 21.7351 13.1635 21.8414 12.8618 21.9134C12.6527 21.9633 12.2599 21.9633 12.0507 21.9134C11.749 21.8414 11.5889 21.7351 11.2687 21.5225C9.8102 20.5543 7.34889 18.5888 5.87521 15.5923C4.75769 13.32 4.45193 10.8024 4.39019 9.10847Z" fill="black"/>
</g>
<mask id="mask0_10_29044" style="mask-type:alpha" maskUnits="userSpaceOnUse" x="4" y="3" width="17" height="19">
<path d="M4.39019 9.10847C4.36849 8.51323 4.35765 8.2156 4.47145 7.8986C4.56907 7.62672 4.7486 7.3636 4.96617 7.17356C5.21984 6.952 5.5882 6.823 6.32494 6.56501C7.89255 6.01606 9.40487 5.27985 10.8308 4.42444C11.4789 4.03563 11.8029 3.84123 12.0818 3.77999C12.3587 3.71919 12.5538 3.71919 12.8307 3.77999C13.1096 3.84123 13.4337 4.03563 14.0818 4.42444C15.5077 5.27985 17.02 6.01606 18.5876 6.56501C19.3243 6.823 19.6927 6.952 19.9464 7.17356C20.1639 7.3636 20.3435 7.62672 20.4411 7.8986C20.5549 8.2156 20.544 8.51323 20.5224 9.10847C20.4606 10.8024 20.1549 13.32 19.0373 15.5923C17.5637 18.5888 15.1023 20.5543 13.6438 21.5225C13.3236 21.7351 13.1635 21.8414 12.8618 21.9134C12.6527 21.9633 12.2599 21.9633 12.0507 21.9134C11.749 21.8414 11.5889 21.7351 11.2687 21.5225C9.8102 20.5543 7.34889 18.5888 5.87521 15.5923C4.75769 13.32 4.45193 10.8024 4.39019 9.10847Z" fill="black"/>
</mask>
<g mask="url(#mask0_10_29044)">
<mask id="mask1_10_29044" style="mask-type:alpha" maskUnits="userSpaceOnUse" x="4" y="3" width="17" height="19">
<path d="M4.39019 9.10847C4.36849 8.51323 4.35765 8.2156 4.47145 7.8986C4.56907 7.62672 4.7486 7.3636 4.96617 7.17356C5.21984 6.952 5.5882 6.823 6.32494 6.56501C7.89255 6.01606 9.40487 5.27985 10.8308 4.42444C11.4789 4.03563 11.8029 3.84123 12.0818 3.77999C12.3587 3.71919 12.5538 3.71919 12.8307 3.77999C13.1096 3.84123 13.4337 4.03563 14.0818 4.42444C15.5077 5.27985 17.02 6.01606 18.5876 6.56501C19.3243 6.823 19.6927 6.952 19.9464 7.17356C20.1639 7.3636 20.3435 7.62672 20.4411 7.8986C20.5549 8.2156 20.544 8.51323 20.5224 9.10847C20.4606 10.8024 20.1549 13.32 19.0373 15.5923C17.5637 18.5888 15.1023 20.5543 13.6438 21.5225C13.3236 21.7351 13.1635 21.8414 12.8618 21.9134C12.6527 21.9633 12.2599 21.9633 12.0507 21.9134C11.749 21.8414 11.5889 21.7351 11.2687 21.5225C9.8102 20.5543 7.34889 18.5888 5.87521 15.5923C4.75769 13.32 4.45193 10.8024 4.39019 9.10847Z" fill="black"/>
</mask>
<g mask="url(#mask1_10_29044)">
<rect x="0.222656" y="0.522217" width="24.4444" height="24.4444" fill="#2E3E92"/>
<rect x="0.222656" y="0.522217" width="24.4444" height="24.4444" fill="url(#paint0_linear_10_29044)" fill-opacity="0.6" style="mix-blend-mode:overlay"/>
<rect x="0.222656" y="0.522217" width="24.4444" height="24.4444" fill="url(#paint1_radial_10_29044)" fill-opacity="0.6" style="mix-blend-mode:overlay"/>
<rect x="0.222656" y="0.522217" width="24.4444" height="24.4444" fill="black" fill-opacity="0.16" style="mix-blend-mode:overlay"/>
<rect x="0.222656" y="0.522217" width="24.4444" height="24.4444" fill="black" fill-opacity="0.12" style="mix-blend-mode:darken"/>
</g>
<g filter="url(#filter1_d_10_29044)">
<mask id="mask2_10_29044" style="mask-type:alpha" maskUnits="userSpaceOnUse" x="4" y="3" width="17" height="19">
<path d="M12.0824 3.7799C12.359 3.71919 12.5548 3.71921 12.8314 3.7799C13.1102 3.84119 13.4346 4.03582 14.0824 4.42443C15.5081 5.27978 17.0207 6.01612 18.5882 6.56506C19.3245 6.82287 19.693 6.95213 19.9466 7.17345C20.1642 7.36349 20.3441 7.62716 20.4417 7.89904C20.5555 8.21595 20.5445 8.51391 20.5228 9.109L20.4867 9.78088C20.3715 11.4285 20.0151 13.6044 19.0374 15.5924C17.5637 18.5887 15.1024 20.5549 13.6439 21.5231L13.429 21.6637C13.2353 21.7863 13.0884 21.8597 12.8626 21.9137L12.6771 21.942C12.5381 21.9545 12.3757 21.9545 12.2367 21.942L12.0511 21.9137C11.8251 21.8597 11.6779 21.7866 11.4837 21.6637L11.2689 21.5231C9.81034 20.5548 7.34894 18.5887 5.87534 15.5924C4.89771 13.6044 4.54131 11.4285 4.42612 9.78088L4.39096 9.109C4.37198 8.58815 4.36103 8.29468 4.43491 8.01721L4.47202 7.89904C4.56957 7.62732 4.74877 7.36346 4.96616 7.17345C5.15639 7.0073 5.41199 6.89339 5.83823 6.73791L6.32553 6.56506C7.69689 6.08481 9.02645 5.46116 10.2923 4.73986L10.8314 4.42443C11.398 4.08451 11.7173 3.89278 11.9749 3.8092L12.0824 3.7799ZM12.681 4.46252C12.5032 4.42353 12.4098 4.42343 12.2318 4.46252C12.185 4.47289 12.0997 4.5023 11.9232 4.59631C11.7459 4.69078 11.5206 4.82615 11.1908 5.02404C9.73043 5.90009 8.17442 6.65749 6.556 7.22424C6.17911 7.35622 5.92798 7.44513 5.73862 7.52599C5.55604 7.60403 5.47486 7.65728 5.42612 7.69982C5.29829 7.81161 5.18661 7.97559 5.12924 8.13537C5.07053 8.29929 5.06507 8.44823 5.08823 9.08361C5.14838 10.7329 5.4469 13.1388 6.50229 15.2848C7.89808 18.1227 10.2447 20.0044 11.6556 20.941C11.9788 21.1556 12.0463 21.1941 12.2132 21.234C12.2424 21.241 12.332 21.2525 12.4564 21.2526C12.5801 21.2526 12.6696 21.241 12.6996 21.234C12.8668 21.1941 12.9348 21.1557 13.2581 20.941C14.669 20.0044 17.0147 18.1224 18.4105 15.2848C19.4659 13.1388 19.7644 10.7329 19.8246 9.08361C19.8477 8.44807 19.8433 8.29934 19.7845 8.13537C19.7271 7.9755 19.6156 7.81161 19.4876 7.69982C19.4388 7.65721 19.3574 7.60423 19.1742 7.52599C18.9848 7.44513 18.7338 7.35624 18.3568 7.22424C16.7386 6.6575 15.1832 5.90001 13.723 5.02404C13.3928 4.82594 13.167 4.69079 12.9896 4.59631C12.8125 4.50204 12.7276 4.47276 12.681 4.46252ZM12.5296 5.95763C12.5833 5.96906 12.633 5.9981 12.7328 6.05529C13.6482 6.5802 14.5545 7.11187 15.5121 7.5631C16.3444 7.95534 17.2046 8.27676 18.0658 8.59728C18.1998 8.64719 18.2672 8.67174 18.3167 8.71642C18.3598 8.75529 18.3935 8.8071 18.4124 8.86193C18.4342 8.92495 18.4314 8.99477 18.4251 9.13439C18.34 11.0316 17.9997 12.9552 17.1576 14.6676C16.1763 16.6628 14.5801 18.3224 12.764 19.5875C12.6575 19.6617 12.6039 19.6989 12.5414 19.7145C12.4883 19.7276 12.4265 19.7276 12.3734 19.7145C12.3109 19.6989 12.2572 19.6617 12.1507 19.5875C10.3345 18.3223 8.73751 16.6629 7.7562 14.6676C6.91406 12.9552 6.57371 11.0316 6.48862 9.13439C6.48236 8.99487 6.47957 8.92492 6.50131 8.86193C6.52028 8.8071 6.55492 8.75529 6.59799 8.71642C6.64752 8.67191 6.71506 8.64712 6.84897 8.59728C7.71031 8.27672 8.56738 7.95626 9.4017 7.5631C10.3592 7.11189 11.2656 6.58018 12.181 6.05529C12.2811 5.99792 12.3313 5.969 12.3851 5.95763C12.4324 5.94767 12.4824 5.94765 12.5296 5.95763Z" fill="url(#paint2_linear_10_29044)"/>
</mask>
<g mask="url(#mask2_10_29044)">
<rect x="0.224609" y="0.522217" width="24.4444" height="24.4444" fill="#2E3E92"/>
<rect x="0.136719" y="0.522217" width="24.4444" height="24.4444" fill="url(#paint3_linear_10_29044)" fill-opacity="0.6" style="mix-blend-mode:overlay"/>
<rect x="0.136719" y="0.522217" width="24.4444" height="24.4444" fill="url(#paint4_radial_10_29044)" fill-opacity="0.6" style="mix-blend-mode:overlay"/>
<g style="mix-blend-mode:soft-light">
<path fill-rule="evenodd" clip-rule="evenodd" d="M0.224609 0.522217H12.4468V24.9667H0.224609V0.522217Z" fill="url(#paint5_linear_10_29044)" style="mix-blend-mode:lighten"/>
</g>
<g style="mix-blend-mode:soft-light">
<mask id="path-11-inside-1_10_29044" fill="white">
<path d="M12.0824 3.7799C12.359 3.71919 12.5548 3.71921 12.8314 3.7799C13.1102 3.84119 13.4346 4.03582 14.0824 4.42443C15.5081 5.27978 17.0207 6.01612 18.5882 6.56506C19.3245 6.82287 19.693 6.95213 19.9466 7.17345C20.1642 7.36349 20.3441 7.62716 20.4417 7.89904C20.5555 8.21595 20.5445 8.51391 20.5228 9.109L20.4867 9.78088C20.3715 11.4285 20.0151 13.6044 19.0374 15.5924C17.5637 18.5887 15.1024 20.5549 13.6439 21.5231L13.429 21.6637C13.2353 21.7863 13.0884 21.8597 12.8626 21.9137L12.6771 21.942C12.5381 21.9545 12.3757 21.9545 12.2367 21.942L12.0511 21.9137C11.8251 21.8597 11.6779 21.7866 11.4837 21.6637L11.2689 21.5231C9.81034 20.5548 7.34894 18.5887 5.87534 15.5924C4.89771 13.6044 4.54131 11.4285 4.42612 9.78088L4.39096 9.109C4.37198 8.58815 4.36103 8.29468 4.43491 8.01721L4.47202 7.89904C4.56957 7.62732 4.74877 7.36346 4.96616 7.17345C5.15639 7.0073 5.41199 6.89339 5.83823 6.73791L6.32553 6.56506C7.69689 6.08481 9.02645 5.46116 10.2923 4.73986L10.8314 4.42443C11.398 4.08451 11.7173 3.89278 11.9749 3.8092L12.0824 3.7799ZM12.681 4.46252C12.5032 4.42353 12.4098 4.42343 12.2318 4.46252C12.185 4.47289 12.0997 4.5023 11.9232 4.59631C11.7459 4.69078 11.5206 4.82615 11.1908 5.02404C9.73043 5.90009 8.17442 6.65749 6.556 7.22424C6.17911 7.35622 5.92798 7.44513 5.73862 7.52599C5.55604 7.60403 5.47486 7.65728 5.42612 7.69982C5.29829 7.81161 5.18661 7.97559 5.12924 8.13537C5.07053 8.29929 5.06507 8.44823 5.08823 9.08361C5.14838 10.7329 5.4469 13.1388 6.50229 15.2848C7.89808 18.1227 10.2447 20.0044 11.6556 20.941C11.9788 21.1556 12.0463 21.1941 12.2132 21.234C12.2424 21.241 12.332 21.2525 12.4564 21.2526C12.5801 21.2526 12.6696 21.241 12.6996 21.234C12.8668 21.1941 12.9348 21.1557 13.2581 20.941C14.669 20.0044 17.0147 18.1224 18.4105 15.2848C19.4659 13.1388 19.7644 10.7329 19.8246 9.08361C19.8477 8.44807 19.8433 8.29934 19.7845 8.13537C19.7271 7.9755 19.6156 7.81161 19.4876 7.69982C19.4388 7.65721 19.3574 7.60423 19.1742 7.52599C18.9848 7.44513 18.7338 7.35624 18.3568 7.22424C16.7386 6.6575 15.1832 5.90001 13.723 5.02404C13.3928 4.82594 13.167 4.69079 12.9896 4.59631C12.8125 4.50204 12.7276 4.47276 12.681 4.46252ZM12.5296 5.95763C12.5833 5.96906 12.633 5.9981 12.7328 6.05529C13.6482 6.5802 14.5545 7.11187 15.5121 7.5631C16.3444 7.95534 17.2046 8.27676 18.0658 8.59728C18.1998 8.64719 18.2672 8.67174 18.3167 8.71642C18.3598 8.75529 18.3935 8.8071 18.4124 8.86193C18.4342 8.92495 18.4314 8.99477 18.4251 9.13439C18.34 11.0316 17.9997 12.9552 17.1576 14.6676C16.1763 16.6628 14.5801 18.3224 12.764 19.5875C12.6575 19.6617 12.6039 19.6989 12.5414 19.7145C12.4883 19.7276 12.4265 19.7276 12.3734 19.7145C12.3109 19.6989 12.2572 19.6617 12.1507 19.5875C10.3345 18.3223 8.73751 16.6629 7.7562 14.6676C6.91406 12.9552 6.57371 11.0316 6.48862 9.13439C6.48236 8.99487 6.47957 8.92492 6.50131 8.86193C6.52028 8.8071 6.55492 8.75529 6.59799 8.71642C6.64752 8.67191 6.71506 8.64712 6.84897 8.59728C7.71031 8.27672 8.56738 7.95626 9.4017 7.5631C10.3592 7.11189 11.2656 6.58018 12.181 6.05529C12.2811 5.99792 12.3313 5.969 12.3851 5.95763C12.4324 5.94767 12.4824 5.94765 12.5296 5.95763Z"/>
</mask>
<path d="M12.0824 3.7799L12.073 3.73721L12.0709 3.73779L12.0824 3.7799ZM12.8314 3.7799L12.8408 3.73727L12.8407 3.73726L12.8314 3.7799ZM14.0824 4.42443L14.0599 4.46186L14.0824 4.42443ZM18.5882 6.56506L18.5738 6.60625L18.5738 6.60625L18.5882 6.56506ZM19.9466 7.17345L19.9753 7.14058L19.9753 7.14057L19.9466 7.17345ZM20.4417 7.89904L20.4828 7.8843L20.4828 7.88429L20.4417 7.89904ZM20.5228 9.109L20.5664 9.11135L20.5664 9.11059L20.5228 9.109ZM20.4867 9.78088L20.5302 9.78392L20.5303 9.78322L20.4867 9.78088ZM19.0374 15.5924L19.0766 15.6117L19.0766 15.6117L19.0374 15.5924ZM13.6439 21.5231L13.6678 21.5596L13.668 21.5594L13.6439 21.5231ZM13.429 21.6637L13.4524 21.7006L13.453 21.7002L13.429 21.6637ZM12.8626 21.9137L12.8693 21.957L12.8728 21.9561L12.8626 21.9137ZM12.6771 21.942L12.681 21.9856L12.6837 21.9852L12.6771 21.942ZM12.2367 21.942L12.2301 21.9852L12.2328 21.9855L12.2367 21.942ZM12.0511 21.9137L12.0409 21.9563L12.0445 21.9568L12.0511 21.9137ZM11.4837 21.6637L11.4598 21.7002L11.4604 21.7006L11.4837 21.6637ZM11.2689 21.5231L11.2447 21.5594L11.245 21.5596L11.2689 21.5231ZM5.87534 15.5924L5.83617 15.6117L5.83617 15.6117L5.87534 15.5924ZM4.42612 9.78088L4.38252 9.78316L4.38257 9.78392L4.42612 9.78088ZM4.39096 9.109L4.34733 9.11059L4.34737 9.11128L4.39096 9.109ZM4.43491 8.01721L4.39322 8.00411L4.39273 8.00597L4.43491 8.01721ZM4.47202 7.89904L4.4309 7.88428L4.43037 7.88596L4.47202 7.89904ZM4.96616 7.17345L4.93744 7.14058L4.93743 7.14059L4.96616 7.17345ZM5.83823 6.73791L5.82363 6.69677L5.82327 6.6969L5.83823 6.73791ZM6.32553 6.56506L6.3111 6.52386L6.31094 6.52392L6.32553 6.56506ZM10.2923 4.73986L10.3139 4.77779L10.3144 4.77754L10.2923 4.73986ZM10.8314 4.42443L10.8534 4.46211L10.8538 4.46186L10.8314 4.42443ZM11.9749 3.8092L11.9634 3.76704L11.9615 3.76768L11.9749 3.8092ZM12.681 4.46252L12.6904 4.41988L12.6904 4.41988L12.681 4.46252ZM12.2318 4.46252L12.2224 4.41988L12.2223 4.4199L12.2318 4.46252ZM11.9232 4.59631L11.9027 4.55778L11.9027 4.55778L11.9232 4.59631ZM11.1908 5.02404L11.2132 5.06147L11.2132 5.06147L11.1908 5.02404ZM6.556 7.22424L6.54157 7.18304H6.54157L6.556 7.22424ZM5.73862 7.52599L5.72148 7.48585L5.72146 7.48586L5.73862 7.52599ZM5.42612 7.69982L5.39742 7.66693L5.39738 7.66696L5.42612 7.69982ZM5.12924 8.13537L5.08816 8.12062L5.08815 8.12065L5.12924 8.13537ZM5.08823 9.08361L5.04461 9.0852V9.0852L5.08823 9.08361ZM6.50229 15.2848L6.46312 15.304L6.46312 15.304L6.50229 15.2848ZM11.6556 20.941L11.6315 20.9774H11.6315L11.6556 20.941ZM12.2132 21.234L12.2031 21.2765L12.2031 21.2765L12.2132 21.234ZM12.4564 21.2526L12.4564 21.2962H12.4564V21.2526ZM12.6996 21.234L12.7095 21.2765L12.7097 21.2765L12.6996 21.234ZM13.2581 20.941L13.2823 20.9774H13.2823L13.2581 20.941ZM18.4105 15.2848L18.4497 15.3041L18.4497 15.304L18.4105 15.2848ZM19.8246 9.08361L19.8682 9.0852V9.0852L19.8246 9.08361ZM19.7845 8.13537L19.8256 8.12064L19.8256 8.12062L19.7845 8.13537ZM19.4876 7.69982L19.5164 7.66695L19.5163 7.66693L19.4876 7.69982ZM19.1742 7.52599L19.1913 7.48585L19.1913 7.48585L19.1742 7.52599ZM18.3568 7.22424L18.3424 7.26543L18.3424 7.26543L18.3568 7.22424ZM13.723 5.02404L13.7005 5.06147V5.06147L13.723 5.02404ZM12.9896 4.59631L13.0101 4.55778L13.0101 4.55778L12.9896 4.59631ZM12.5296 5.95763L12.5387 5.91494L12.5387 5.91493L12.5296 5.95763ZM12.7328 6.05529L12.7545 6.01742L12.7328 6.05529ZM15.5121 7.5631L15.4934 7.60259H15.4934L15.5121 7.5631ZM18.0658 8.59728L18.081 8.55637L18.0658 8.59728ZM18.3167 8.71642L18.346 8.68402L18.346 8.68401L18.3167 8.71642ZM18.4124 8.86193L18.4537 8.84767L18.4537 8.84766L18.4124 8.86193ZM18.4251 9.13439L18.4687 9.13635L18.4251 9.13439ZM17.1576 14.6676L17.1967 14.6869V14.6869L17.1576 14.6676ZM12.764 19.5875L12.789 19.6233V19.6233L12.764 19.5875ZM12.5414 19.7145L12.5519 19.7568L12.5519 19.7568L12.5414 19.7145ZM12.3734 19.7145L12.3629 19.7568L12.3629 19.7569L12.3734 19.7145ZM12.1507 19.5875L12.1258 19.6233L12.1507 19.5875ZM7.7562 14.6676L7.71703 14.6869H7.71703L7.7562 14.6676ZM6.48862 9.13439L6.44501 9.13635L6.48862 9.13439ZM6.50131 8.86193L6.46006 8.84766L6.46005 8.84769L6.50131 8.86193ZM6.59799 8.71642L6.56881 8.68396L6.56875 8.68402L6.59799 8.71642ZM6.84897 8.59728L6.8642 8.63819L6.84897 8.59728ZM9.4017 7.5631L9.42031 7.60259L9.42031 7.60259L9.4017 7.5631ZM12.181 6.05529L12.1593 6.01742L12.181 6.05529ZM12.3851 5.95763L12.3761 5.91492L12.3761 5.91493L12.3851 5.95763ZM12.0824 3.7799L12.0917 3.82254C12.3622 3.76318 12.5516 3.76319 12.822 3.82254L12.8314 3.7799L12.8407 3.73726C12.558 3.67522 12.3558 3.6752 12.073 3.73726L12.0824 3.7799ZM12.8314 3.7799L12.822 3.82253C12.9556 3.8519 13.1023 3.9137 13.298 4.01794C13.4937 4.12219 13.7356 4.26732 14.0599 4.46186L14.0824 4.42443L14.1048 4.387C13.7813 4.19293 13.5372 4.04643 13.339 3.94089C13.1409 3.83535 12.986 3.76918 12.8408 3.73727L12.8314 3.7799ZM14.0824 4.42443L14.0599 4.46186C15.4878 5.31851 17.0031 6.0562 18.5738 6.60625L18.5882 6.56506L18.6027 6.52386C17.0384 5.97604 15.5284 5.24105 14.1048 4.387L14.0824 4.42443ZM18.5882 6.56506L18.5738 6.60625C18.9425 6.73535 19.217 6.83158 19.4313 6.92308C19.6451 7.01442 19.796 7.09993 19.9179 7.20634L19.9466 7.17345L19.9753 7.14057C19.8436 7.02565 19.6834 6.93587 19.4655 6.8428C19.248 6.74988 18.9702 6.65258 18.6027 6.52386L18.5882 6.56506ZM19.9466 7.17345L19.9179 7.20633C20.1299 7.39148 20.3056 7.6489 20.4007 7.91379L20.4417 7.89904L20.4828 7.88429C20.3827 7.60541 20.1985 7.3355 19.9753 7.14058L19.9466 7.17345ZM20.4417 7.89904L20.4007 7.91378C20.5109 8.22114 20.501 8.50974 20.4792 9.10741L20.5228 9.109L20.5664 9.11059C20.588 8.51808 20.6 8.21075 20.4828 7.8843L20.4417 7.89904ZM20.5228 9.109L20.4792 9.10666L20.4431 9.77853L20.4867 9.78088L20.5303 9.78322L20.5664 9.11135L20.5228 9.109ZM20.4867 9.78088L20.4431 9.77783C20.3281 11.4226 19.9725 13.5922 18.9983 15.5731L19.0374 15.5924L19.0766 15.6117C20.0577 13.6166 20.4148 11.4345 20.5302 9.78392L20.4867 9.78088ZM19.0374 15.5924L18.9983 15.5731C17.5294 18.5595 15.0752 20.5205 13.6198 21.4867L13.6439 21.5231L13.668 21.5594C15.1295 20.5893 17.598 18.6178 19.0766 15.6117L19.0374 15.5924ZM13.6439 21.5231L13.62 21.4865L13.4051 21.6272L13.429 21.6637L13.453 21.7002L13.6678 21.5596L13.6439 21.5231ZM13.429 21.6637L13.4057 21.6268C13.2146 21.7477 13.0722 21.8187 12.8525 21.8712L12.8626 21.9137L12.8728 21.9561C13.1046 21.9007 13.256 21.8248 13.4524 21.7006L13.429 21.6637ZM12.8626 21.9137L12.8561 21.8705L12.6705 21.8989L12.6771 21.942L12.6837 21.9852L12.8692 21.9568L12.8626 21.9137ZM12.6771 21.942L12.6732 21.8985C12.5368 21.9108 12.377 21.9108 12.2406 21.8985L12.2367 21.942L12.2328 21.9855C12.3744 21.9982 12.5394 21.9982 12.681 21.9855L12.6771 21.942ZM12.2367 21.942L12.2433 21.8989L12.0577 21.8705L12.0511 21.9137L12.0445 21.9568L12.2301 21.9852L12.2367 21.942ZM12.0511 21.9137L12.0613 21.8712C11.8412 21.8186 11.6985 21.748 11.5071 21.6268L11.4837 21.6637L11.4604 21.7006C11.6573 21.8252 11.8089 21.9007 12.041 21.9561L12.0511 21.9137ZM11.4837 21.6637L11.5076 21.6272L11.2928 21.4865L11.2689 21.5231L11.245 21.5596L11.4598 21.7002L11.4837 21.6637ZM11.2689 21.5231L11.293 21.4867C9.83746 20.5204 7.38325 18.5596 5.91451 15.5731L5.87534 15.5924L5.83617 15.6117C7.31464 18.6179 9.78323 20.5892 11.2447 21.5594L11.2689 21.5231ZM5.87534 15.5924L5.91451 15.5731C4.94033 13.5922 4.58465 11.4225 4.46966 9.77783L4.42612 9.78088L4.38257 9.78392C4.49798 11.4345 4.85508 13.6167 5.83617 15.6117L5.87534 15.5924ZM4.42612 9.78088L4.46971 9.7786L4.43455 9.10672L4.39096 9.109L4.34737 9.11128L4.38253 9.78316L4.42612 9.78088ZM4.39096 9.109L4.43458 9.10741C4.41551 8.58419 4.40527 8.2982 4.47709 8.02844L4.43491 8.01721L4.39273 8.00597C4.3168 8.29115 4.32844 8.59212 4.34734 9.11059L4.39096 9.109ZM4.43491 8.01721L4.47655 8.03028L4.51366 7.91212L4.47202 7.89904L4.43037 7.88596L4.39326 8.00413L4.43491 8.01721ZM4.47202 7.89904L4.5131 7.91379C4.60817 7.649 4.78313 7.3914 4.99488 7.20632L4.96616 7.17345L4.93743 7.14059C4.7144 7.33553 4.53098 7.60564 4.43093 7.88429L4.47202 7.89904ZM4.96616 7.17345L4.99487 7.20633C5.17825 7.04617 5.42656 6.93454 5.85319 6.77892L5.83823 6.73791L5.82327 6.6969C5.39742 6.85224 5.13453 6.96844 4.93744 7.14058L4.96616 7.17345ZM5.83823 6.73791L5.85282 6.77905L6.34012 6.6062L6.32553 6.56506L6.31094 6.52392L5.82363 6.69677L5.83823 6.73791ZM6.32553 6.56506L6.33996 6.60625C7.71411 6.12503 9.04607 5.50022 10.3139 4.77779L10.2923 4.73986L10.2707 4.70194C9.00683 5.4221 7.67967 6.04459 6.3111 6.52386L6.32553 6.56506ZM10.2923 4.73986L10.3144 4.77754L10.8534 4.46211L10.8314 4.42443L10.8093 4.38676L10.2703 4.70219L10.2923 4.73986ZM10.8314 4.42443L10.8538 4.46186C11.4228 4.12053 11.7368 3.93236 11.9884 3.85072L11.9749 3.8092L11.9615 3.76768C11.6979 3.8532 11.3732 4.04848 10.8089 4.387L10.8314 4.42443ZM11.9749 3.8092L11.9864 3.85131L12.0939 3.82201L12.0824 3.7799L12.0709 3.73779L11.9635 3.76708L11.9749 3.8092ZM12.681 4.46252L12.6904 4.41988C12.6 4.40006 12.5287 4.3896 12.4565 4.38959C12.3842 4.38958 12.3129 4.40001 12.2224 4.41988L12.2318 4.46252L12.2411 4.50515C12.3286 4.48594 12.3931 4.47688 12.4565 4.47689C12.5199 4.4769 12.5842 4.48599 12.6717 4.50516L12.681 4.46252ZM12.2318 4.46252L12.2223 4.4199C12.1697 4.43156 12.0804 4.46314 11.9027 4.55778L11.9232 4.59631L11.9437 4.63483C12.1191 4.54145 12.2002 4.51423 12.2412 4.50513L12.2318 4.46252ZM11.9232 4.59631L11.9027 4.55778C11.7241 4.65291 11.4977 4.789 11.1683 4.98661L11.1908 5.02404L11.2132 5.06147C11.5436 4.8633 11.7676 4.72866 11.9437 4.63483L11.9232 4.59631ZM11.1908 5.02404L11.1683 4.98661C9.71015 5.86135 8.15682 6.61741 6.54157 7.18304L6.556 7.22424L6.57043 7.26543C8.19202 6.69758 9.75071 5.93882 11.2132 5.06147L11.1908 5.02404ZM6.556 7.22424L6.54157 7.18304C6.16516 7.31485 5.91248 7.40429 5.72148 7.48585L5.73862 7.52599L5.75576 7.56614C5.94349 7.48597 6.19305 7.39759 6.57043 7.26543L6.556 7.22424ZM5.73862 7.52599L5.72146 7.48586C5.53695 7.56472 5.45108 7.6201 5.39742 7.66693L5.42612 7.69982L5.45482 7.73271C5.49865 7.69445 5.57512 7.64334 5.75577 7.56613L5.73862 7.52599ZM5.42612 7.69982L5.39738 7.66696C5.26396 7.78365 5.14803 7.95387 5.08816 8.12062L5.12924 8.13537L5.17033 8.15012C5.22519 7.99731 5.33263 7.83956 5.45485 7.73268L5.42612 7.69982ZM5.12924 8.13537L5.08815 8.12065C5.02598 8.2942 5.02156 8.45276 5.04461 9.0852L5.08823 9.08361L5.13185 9.08202C5.10858 8.44369 5.11507 8.30438 5.17034 8.15009L5.12924 8.13537ZM5.08823 9.08361L5.04461 9.0852C5.10486 10.7373 5.40386 13.1502 6.46312 15.304L6.50229 15.2848L6.54146 15.2655C5.48995 13.1274 5.1919 10.7285 5.13185 9.08202L5.08823 9.08361ZM6.50229 15.2848L6.46312 15.304C7.86378 18.1518 10.2176 20.0388 11.6315 20.9774L11.6556 20.941L11.6798 20.9047C10.2718 19.97 7.93238 18.0935 6.54146 15.2655L6.50229 15.2848ZM11.6556 20.941L11.6315 20.9774C11.9543 21.1917 12.0277 21.2345 12.2031 21.2765L12.2132 21.234L12.2234 21.1915C12.0649 21.1537 12.0033 21.1195 11.6798 20.9047L11.6556 20.941ZM12.2132 21.234L12.2031 21.2765C12.2369 21.2845 12.3303 21.2962 12.4564 21.2962L12.4564 21.2526L12.4564 21.2089C12.3336 21.2089 12.2478 21.1974 12.2234 21.1915L12.2132 21.234ZM12.4564 21.2526V21.2962C12.5819 21.2962 12.675 21.2845 12.7095 21.2765L12.6996 21.234L12.6896 21.1915C12.6642 21.1974 12.5783 21.2089 12.4564 21.2089V21.2526ZM12.6996 21.234L12.7097 21.2765C12.8854 21.2345 12.9592 21.1919 13.2823 20.9774L13.2581 20.941L13.234 20.9047C12.9104 21.1195 12.8482 21.1536 12.6894 21.1915L12.6996 21.234ZM13.2581 20.941L13.2823 20.9774C14.6961 20.0388 17.049 18.1515 18.4497 15.3041L18.4105 15.2848L18.3713 15.2655C16.9804 18.0932 14.6419 19.97 13.234 20.9047L13.2581 20.941ZM18.4105 15.2848L18.4497 15.304C19.5089 13.1502 19.8079 10.7373 19.8682 9.0852L19.8246 9.08361L19.7809 9.08202C19.7209 10.7285 19.4228 13.1275 18.3713 15.2655L18.4105 15.2848ZM19.8246 9.08361L19.8682 9.0852C19.8912 8.45278 19.8878 8.29429 19.8256 8.12064L19.7845 8.13537L19.7434 8.15009C19.7987 8.30438 19.8042 8.44336 19.7809 9.08202L19.8246 9.08361ZM19.7845 8.13537L19.8256 8.12062C19.7657 7.95378 19.6499 7.78365 19.5164 7.66695L19.4876 7.69982L19.4589 7.73269C19.5812 7.83957 19.6885 7.99721 19.7434 8.15012L19.7845 8.13537ZM19.4876 7.69982L19.5163 7.66693C19.4625 7.61998 19.3763 7.56487 19.1913 7.48585L19.1742 7.52599L19.157 7.56614C19.3384 7.6436 19.4151 7.69444 19.4589 7.73271L19.4876 7.69982ZM19.1742 7.52599L19.1913 7.48585C19.0003 7.40428 18.7477 7.31488 18.3712 7.18304L18.3568 7.22424L18.3424 7.26543C18.7198 7.39761 18.9692 7.48597 19.157 7.56614L19.1742 7.52599ZM18.3568 7.22424L18.3712 7.18304C16.7562 6.61741 15.2035 5.86127 13.7454 4.98661L13.723 5.02404L13.7005 5.06147C15.1629 5.93874 16.7209 6.69758 18.3424 7.26543L18.3568 7.22424ZM13.723 5.02404L13.7454 4.98661C13.4156 4.78874 13.1887 4.65291 13.0101 4.55778L12.9896 4.59631L12.9691 4.63483C13.1453 4.72867 13.3699 4.86313 13.7005 5.06147L13.723 5.02404ZM12.9896 4.59631L13.0101 4.55778C12.8319 4.46291 12.7429 4.43141 12.6904 4.41988L12.681 4.46252L12.6716 4.50515C12.7124 4.51411 12.7932 4.54117 12.9691 4.63484L12.9896 4.59631ZM12.5296 5.95763L12.5205 6.00033C12.5658 6.00998 12.6086 6.0344 12.711 6.09316L12.7328 6.05529L12.7545 6.01742C12.6575 5.9618 12.6007 5.92814 12.5387 5.91494L12.5296 5.95763ZM12.7328 6.05529L12.711 6.09316C13.6259 6.6177 14.534 7.15043 15.4934 7.60259L15.5121 7.5631L15.5307 7.52362C14.5751 7.0733 13.6706 6.54269 12.7545 6.01742L12.7328 6.05529ZM15.5121 7.5631L15.4934 7.60259C16.3277 7.99573 17.1896 8.31775 18.0505 8.63819L18.0658 8.59728L18.081 8.55637C17.2196 8.23576 16.3611 7.91495 15.5307 7.52362L15.5121 7.5631ZM18.0658 8.59728L18.0505 8.63819C18.1883 8.68946 18.2457 8.71112 18.2875 8.74884L18.3167 8.71642L18.346 8.68401C18.2887 8.63237 18.2114 8.60491 18.081 8.55637L18.0658 8.59728ZM18.3167 8.71642L18.2875 8.74883C18.3249 8.78258 18.3545 8.82807 18.3712 8.8762L18.4124 8.86193L18.4537 8.84766C18.4324 8.78613 18.3947 8.728 18.346 8.68402L18.3167 8.71642ZM18.4124 8.86193L18.3712 8.87619C18.3896 8.92951 18.3879 8.98947 18.3815 9.13244L18.4251 9.13439L18.4687 9.13635C18.4749 9.00008 18.4788 8.9204 18.4537 8.84767L18.4124 8.86193ZM18.4251 9.13439L18.3815 9.13244C18.2966 11.0261 17.957 12.9432 17.1184 14.6483L17.1576 14.6676L17.1967 14.6869C18.0425 12.9672 18.3835 11.0371 18.4687 9.13635L18.4251 9.13439ZM17.1576 14.6676L17.1184 14.6483C16.1411 16.6355 14.5506 18.2897 12.7391 19.5517L12.764 19.5875L12.789 19.6233C14.6096 18.355 16.2115 16.6902 17.1967 14.6869L17.1576 14.6676ZM12.764 19.5875L12.7391 19.5517C12.63 19.6277 12.5837 19.6589 12.5308 19.6721L12.5414 19.7145L12.5519 19.7568C12.624 19.7389 12.685 19.6958 12.789 19.6233L12.764 19.5875ZM12.5414 19.7145L12.5308 19.6721C12.4847 19.6836 12.4301 19.6835 12.3838 19.6721L12.3734 19.7145L12.3629 19.7569C12.4229 19.7716 12.4919 19.7717 12.5519 19.7568L12.5414 19.7145ZM12.3734 19.7145L12.3839 19.6721C12.331 19.659 12.2848 19.6277 12.1757 19.5517L12.1507 19.5875L12.1258 19.6233C12.2297 19.6957 12.2907 19.7389 12.3629 19.7568L12.3734 19.7145ZM12.1507 19.5875L12.1757 19.5517C10.364 18.2897 8.77269 16.6356 7.79537 14.6483L7.7562 14.6676L7.71703 14.6869C8.70233 16.6903 10.305 18.355 12.1258 19.6233L12.1507 19.5875ZM7.7562 14.6676L7.79537 14.6483C6.9568 12.9432 6.61716 11.0261 6.53223 9.13244L6.48862 9.13439L6.44501 9.13635C6.53026 11.037 6.87131 12.9672 7.71703 14.6869L7.7562 14.6676ZM6.48862 9.13439L6.53223 9.13244C6.52582 8.98959 6.52418 8.92948 6.54258 8.87617L6.50131 8.86193L6.46005 8.84769C6.43496 8.92037 6.4389 9.00015 6.44501 9.13635L6.48862 9.13439ZM6.50131 8.86193L6.54257 8.8762C6.55908 8.82847 6.58952 8.78286 6.62724 8.74883L6.59799 8.71642L6.56875 8.68402C6.52031 8.72772 6.48148 8.78573 6.46006 8.84766L6.50131 8.86193ZM6.59799 8.71642L6.62717 8.74889C6.66902 8.71128 6.7267 8.68936 6.8642 8.63819L6.84897 8.59728L6.83374 8.55637C6.70343 8.60487 6.62603 8.63253 6.56881 8.68396L6.59799 8.71642ZM6.84897 8.59728L6.8642 8.63819C7.72532 8.31771 8.58408 7.99665 9.42031 7.60259L9.4017 7.5631L9.3831 7.52362C8.55069 7.91587 7.69531 8.23572 6.83374 8.55637L6.84897 8.59728ZM9.4017 7.5631L9.42031 7.60259C10.3798 7.15045 11.2879 6.61768 12.2027 6.09316L12.181 6.05529L12.1593 6.01742C11.2432 6.54268 10.3386 7.07332 9.3831 7.52362L9.4017 7.5631ZM12.181 6.05529L12.2027 6.09316C12.3053 6.03432 12.3487 6.00995 12.3941 6.00034L12.3851 5.95763L12.3761 5.91493C12.314 5.92805 12.2568 5.96151 12.1593 6.01742L12.181 6.05529ZM12.3851 5.95763L12.3941 6.00035C12.4354 5.99163 12.4793 5.99162 12.5206 6.00034L12.5296 5.95763L12.5387 5.91493C12.4854 5.90368 12.4293 5.90371 12.3761 5.91492L12.3851 5.95763Z" fill="url(#paint6_linear_10_29044)" mask="url(#path-11-inside-1_10_29044)"/>
</g>
</g>
</g>
<g filter="url(#filter2_d_10_29044)">
<path d="M15.6749 10.752L12.5847 12.4386C12.4908 12.4899 12.3773 12.4899 12.2834 12.4386L9.68536 11.0206V12.3646C9.68536 12.5385 9.54855 12.6795 9.3798 12.6795C9.21105 12.6795 9.07424 12.5385 9.07424 12.3646V10.6388C8.98705 10.494 9.02672 10.2901 9.19327 10.1992L12.2834 8.51256C12.3773 8.46131 12.4908 8.46131 12.5847 8.51256L15.6749 10.1992C15.8935 10.3185 15.8935 10.6327 15.6749 10.752Z" fill="white"/>
<path d="M14.7151 13.5774C14.7151 13.7399 14.6171 13.8998 14.4712 13.9728L12.6448 14.8866C12.5175 14.9503 12.351 14.9505 12.2234 14.8866L10.3969 13.9728C10.2514 13.9 10.153 13.7402 10.153 13.5774V12.1607C10.153 12.0283 10.2946 11.9441 10.4109 12.0073L12.1006 12.9251C12.2742 13.0194 12.5938 13.0195 12.7675 12.9251L14.4572 12.0073C14.5735 11.9441 14.7151 12.0283 14.7151 12.1607V13.5774Z" fill="white"/>
<path d="M14.4463 11.9878C14.5772 11.9167 14.7373 12.0117 14.7373 12.1606V13.5776C14.7372 13.7482 14.6346 13.9159 14.4814 13.9927L12.6543 14.9058C12.5209 14.9725 12.3476 14.9727 12.2139 14.9058L10.3867 13.9927C10.234 13.9162 10.131 13.7485 10.1309 13.5776V12.1606C10.1309 12.0119 10.2901 11.9172 10.4209 11.9878L12.1113 12.9058C12.1937 12.9505 12.3127 12.9741 12.4336 12.9741C12.5547 12.9741 12.6743 12.9506 12.7568 12.9058L14.4463 11.9878ZM12.2725 8.49365C12.3728 8.43888 12.4943 8.43897 12.5947 8.49365L15.6855 10.1802C15.919 10.3078 15.919 10.6433 15.6855 10.771L12.5947 12.4575C12.4943 12.5122 12.3728 12.5123 12.2725 12.4575L9.70703 11.0571V12.3647C9.70696 12.55 9.56122 12.7016 9.37988 12.7017C9.19851 12.7017 9.0528 12.55 9.05273 12.3647V10.6431C8.96464 10.489 9.00698 10.2762 9.18262 10.1802L12.2725 8.49365Z" stroke="url(#paint7_linear_10_29044)" stroke-width="0.0436508" stroke-linecap="round" style="mix-blend-mode:color-burn"/>
</g>
</g>
<g filter="url(#filter3_dd_10_29044)">
<mask id="path-15-inside-2_10_29044" fill="white">
<path d="M5.49397 16.4111C5.88499 16.4111 6.08092 16.4113 6.2303 16.4873C6.36163 16.5542 6.469 16.6607 6.53596 16.792C6.61207 16.9414 6.61214 17.1373 6.61214 17.5283V19.3096C6.61214 19.7006 6.61208 19.8965 6.53596 20.0459C6.469 20.1772 6.36166 20.2837 6.2303 20.3506C6.08091 20.4267 5.88502 20.4268 5.49397 20.4268H4.03499C3.75019 20.4268 3.60709 20.427 3.51839 20.3672C3.44088 20.3147 3.38787 20.2327 3.37092 20.1406C3.35166 20.0353 3.40792 19.9045 3.52229 19.6436L4.0594 18.4189L3.52229 17.1943C3.40789 16.9333 3.35161 16.8026 3.37092 16.6973C3.38787 16.6052 3.44088 16.5232 3.51839 16.4707C3.60709 16.4109 3.75024 16.4111 4.03499 16.4111H5.49397ZM20.8328 16.4111C21.1178 16.4111 21.2608 16.4107 21.3494 16.4707C21.4269 16.5232 21.48 16.6053 21.4969 16.6973C21.5161 16.8025 21.4589 16.9334 21.3446 17.1943L20.8074 18.4189L21.3446 19.6436C21.4589 19.9044 21.5161 20.0354 21.4969 20.1406C21.48 20.2326 21.4268 20.3147 21.3494 20.3672C21.2608 20.4272 21.1178 20.4268 20.8328 20.4268H19.3729C18.9817 20.4268 18.7859 20.4267 18.6365 20.3506C18.5052 20.2836 18.3978 20.1773 18.3309 20.0459C18.2548 19.8965 18.2557 19.7006 18.2557 19.3096V17.5283C18.2557 17.1373 18.2548 16.9414 18.3309 16.792C18.3978 16.6607 18.5052 16.5542 18.6365 16.4873C18.7859 16.4112 18.9817 16.4111 19.3729 16.4111H20.8328Z"/>
</mask>
<path d="M5.49397 16.4111C5.88499 16.4111 6.08092 16.4113 6.2303 16.4873C6.36163 16.5542 6.469 16.6607 6.53596 16.792C6.61207 16.9414 6.61214 17.1373 6.61214 17.5283V19.3096C6.61214 19.7006 6.61208 19.8965 6.53596 20.0459C6.469 20.1772 6.36166 20.2837 6.2303 20.3506C6.08091 20.4267 5.88502 20.4268 5.49397 20.4268H4.03499C3.75019 20.4268 3.60709 20.427 3.51839 20.3672C3.44088 20.3147 3.38787 20.2327 3.37092 20.1406C3.35166 20.0353 3.40792 19.9045 3.52229 19.6436L4.0594 18.4189L3.52229 17.1943C3.40789 16.9333 3.35161 16.8026 3.37092 16.6973C3.38787 16.6052 3.44088 16.5232 3.51839 16.4707C3.60709 16.4109 3.75024 16.4111 4.03499 16.4111H5.49397ZM20.8328 16.4111C21.1178 16.4111 21.2608 16.4107 21.3494 16.4707C21.4269 16.5232 21.48 16.6053 21.4969 16.6973C21.5161 16.8025 21.4589 16.9334 21.3446 17.1943L20.8074 18.4189L21.3446 19.6436C21.4589 19.9044 21.5161 20.0354 21.4969 20.1406C21.48 20.2326 21.4268 20.3147 21.3494 20.3672C21.2608 20.4272 21.1178 20.4268 20.8328 20.4268H19.3729C18.9817 20.4268 18.7859 20.4267 18.6365 20.3506C18.5052 20.2836 18.3978 20.1773 18.3309 20.0459C18.2548 19.8965 18.2557 19.7006 18.2557 19.3096V17.5283C18.2557 17.1373 18.2548 16.9414 18.3309 16.792C18.3978 16.6607 18.5052 16.5542 18.6365 16.4873C18.7859 16.4112 18.9817 16.4111 19.3729 16.4111H20.8328Z" fill="#FFA00F"/>
<path d="M6.2303 16.4873L6.25012 16.4484L6.2501 16.4484L6.2303 16.4873ZM6.53596 16.792L6.57486 16.7722L6.57485 16.7722L6.53596 16.792ZM6.61214 17.5283H6.65579H6.61214ZM6.61214 19.3096H6.65579H6.61214ZM6.53596 20.0459L6.57485 20.0657L6.57486 20.0657L6.53596 20.0459ZM6.2303 20.3506L6.25011 20.3895L6.25012 20.3895L6.2303 20.3506ZM3.51839 20.3672L3.49391 20.4033L3.49398 20.4034L3.51839 20.3672ZM3.37092 20.1406L3.32799 20.1485L3.328 20.1485L3.37092 20.1406ZM3.52229 19.6436L3.48232 19.626L3.48231 19.626L3.52229 19.6436ZM4.0594 18.4189L4.09938 18.4365L4.10707 18.4189L4.09938 18.4014L4.0594 18.4189ZM3.52229 17.1943L3.48231 17.2119L3.48232 17.2119L3.52229 17.1943ZM3.37092 16.6973L3.328 16.6894L3.32799 16.6894L3.37092 16.6973ZM3.51839 16.4707L3.49399 16.4345L3.49391 16.4346L3.51839 16.4707ZM20.8328 16.4111V16.3675V16.4111ZM21.3494 16.4707L21.3739 16.4346L21.3739 16.4346L21.3494 16.4707ZM21.4969 16.6973L21.5398 16.6894L21.5398 16.6894L21.4969 16.6973ZM21.3446 17.1943L21.3845 17.2119L21.3845 17.2119L21.3446 17.1943ZM20.8074 18.4189L20.7675 18.4014L20.7598 18.4189L20.7675 18.4365L20.8074 18.4189ZM21.3446 19.6436L21.3845 19.626L21.3845 19.626L21.3446 19.6436ZM21.4969 20.1406L21.5398 20.1485L21.5398 20.1485L21.4969 20.1406ZM21.3494 20.3672L21.3739 20.4033L21.3739 20.4033L21.3494 20.3672ZM20.8328 20.4268V20.4704V20.4268ZM18.6365 20.3506L18.6167 20.3895L18.6167 20.3895L18.6365 20.3506ZM18.3309 20.0459L18.292 20.0657L18.292 20.0657L18.3309 20.0459ZM18.2557 19.3096H18.212H18.2557ZM18.2557 17.5283H18.212H18.2557ZM18.3309 16.792L18.292 16.7722L18.292 16.7722L18.3309 16.792ZM18.6365 16.4873L18.6167 16.4484L18.6167 16.4484L18.6365 16.4873ZM5.49397 16.4111V16.4548C5.69019 16.4548 5.83485 16.4548 5.94919 16.4642C6.06303 16.4735 6.14298 16.4918 6.2105 16.5262L6.2303 16.4873L6.2501 16.4484C6.16824 16.4067 6.07553 16.387 5.95631 16.3772C5.83759 16.3675 5.68877 16.3675 5.49397 16.3675V16.4111ZM6.2303 16.4873L6.21048 16.5262C6.33372 16.589 6.43435 16.6888 6.49708 16.8118L6.53596 16.792L6.57485 16.7722C6.50364 16.6325 6.38955 16.5195 6.25012 16.4484L6.2303 16.4873ZM6.53596 16.792L6.49707 16.8118C6.53147 16.8793 6.54978 16.9593 6.55909 17.0731C6.56844 17.1874 6.56849 17.3321 6.56849 17.5283H6.61214H6.65579C6.65579 17.3335 6.6558 17.1847 6.6461 17.066C6.63635 16.9468 6.61657 16.854 6.57486 16.7722L6.53596 16.792ZM6.61214 17.5283H6.56849V19.3096H6.61214H6.65579V17.5283H6.61214ZM6.61214 19.3096H6.56849C6.56849 19.5058 6.56844 19.6505 6.55909 19.7648C6.54978 19.8786 6.53147 19.9586 6.49707 20.0261L6.53596 20.0459L6.57486 20.0657C6.61657 19.9838 6.63635 19.8911 6.6461 19.7719C6.65581 19.6532 6.65579 19.5044 6.65579 19.3096H6.61214ZM6.53596 20.0459L6.49708 20.0261C6.43436 20.1491 6.33375 20.2489 6.21048 20.3117L6.2303 20.3506L6.25012 20.3895C6.38957 20.3184 6.50364 20.2054 6.57485 20.0657L6.53596 20.0459ZM6.2303 20.3506L6.21049 20.3117C6.14298 20.3461 6.06304 20.3644 5.9492 20.3737C5.83487 20.383 5.69021 20.3831 5.49397 20.3831V20.4268V20.4704C5.68879 20.4704 5.8376 20.4704 5.95632 20.4607C6.07554 20.4509 6.16824 20.4312 6.25011 20.3895L6.2303 20.3506ZM5.49397 20.4268V20.3831H4.03499V20.4268V20.4704H5.49397V20.4268ZM4.03499 20.4268V20.3831C3.89173 20.3831 3.7871 20.3831 3.70706 20.3759C3.62705 20.3687 3.57796 20.3547 3.54279 20.331L3.51839 20.3672L3.49398 20.4034C3.54751 20.4395 3.61433 20.4553 3.69924 20.4629C3.78413 20.4705 3.89345 20.4704 4.03499 20.4704V20.4268ZM3.51839 20.3672L3.54286 20.331C3.47518 20.2852 3.42872 20.2134 3.41385 20.1327L3.37092 20.1406L3.328 20.1485C3.34703 20.2519 3.40657 20.3442 3.49391 20.4033L3.51839 20.3672ZM3.37092 20.1406L3.41386 20.1328C3.4062 20.0909 3.41279 20.0402 3.43794 19.9642C3.4631 19.8881 3.50478 19.7923 3.56227 19.6611L3.52229 19.6436L3.48231 19.626C3.42543 19.7558 3.38179 19.8559 3.35505 19.9368C3.32829 20.0177 3.31639 20.0851 3.32799 20.1485L3.37092 20.1406ZM3.52229 19.6436L3.56227 19.6611L4.09938 18.4365L4.0594 18.4189L4.01943 18.4014L3.48232 19.626L3.52229 19.6436ZM4.0594 18.4189L4.09938 18.4014L3.56227 17.1768L3.52229 17.1943L3.48232 17.2119L4.01943 18.4365L4.0594 18.4189ZM3.52229 17.1943L3.56227 17.1768C3.50476 17.0456 3.46307 16.9498 3.43791 16.8737C3.41276 16.7977 3.40618 16.747 3.41386 16.7051L3.37092 16.6973L3.32799 16.6894C3.31636 16.7528 3.32826 16.8202 3.35502 16.9011C3.38176 16.982 3.42542 17.082 3.48231 17.2119L3.52229 17.1943ZM3.37092 16.6973L3.41385 16.7052C3.42872 16.6245 3.47518 16.5527 3.54286 16.5068L3.51839 16.4707L3.49391 16.4346C3.40657 16.4937 3.34703 16.586 3.328 16.6894L3.37092 16.6973ZM3.51839 16.4707L3.54279 16.5069C3.57796 16.4832 3.62706 16.4692 3.70708 16.462C3.78713 16.4548 3.89176 16.4548 4.03499 16.4548V16.4111V16.3675C3.89347 16.3675 3.78415 16.3674 3.69926 16.375C3.61435 16.3827 3.54752 16.3984 3.49399 16.4345L3.51839 16.4707ZM4.03499 16.4111V16.4548H5.49397V16.4111V16.3675H4.03499V16.4111ZM20.8328 16.4111V16.4548C20.9762 16.4548 21.0808 16.4547 21.1609 16.4619C21.2409 16.4691 21.2899 16.4831 21.325 16.5068L21.3494 16.4707L21.3739 16.4346C21.3204 16.3983 21.2536 16.3825 21.1686 16.3749C21.0838 16.3673 20.9744 16.3675 20.8328 16.3675V16.4111ZM21.3494 16.4707L21.3249 16.5068C21.3926 16.5527 21.4391 16.6245 21.454 16.7052L21.4969 16.6973L21.5398 16.6894C21.5208 16.586 21.4612 16.4937 21.3739 16.4346L21.3494 16.4707ZM21.4969 16.6973L21.454 16.7051C21.4616 16.7469 21.4548 16.7975 21.4294 16.8736C21.404 16.9498 21.3621 17.0456 21.3046 17.1768L21.3446 17.1943L21.3845 17.2119C21.4414 17.0822 21.4853 16.9821 21.5122 16.9013C21.5392 16.8204 21.5514 16.7529 21.5398 16.6894L21.4969 16.6973ZM21.3446 17.1943L21.3046 17.1768L20.7675 18.4014L20.8074 18.4189L20.8474 18.4365L21.3845 17.2119L21.3446 17.1943ZM20.8074 18.4189L20.7675 18.4365L21.3046 19.6611L21.3446 19.6436L21.3845 19.626L20.8474 18.4014L20.8074 18.4189ZM21.3446 19.6436L21.3046 19.6611C21.3621 19.7923 21.404 19.8881 21.4294 19.9642C21.4548 20.0404 21.4616 20.091 21.454 20.1328L21.4969 20.1406L21.5398 20.1485C21.5514 20.085 21.5392 20.0175 21.5122 19.9366C21.4852 19.8558 21.4414 19.7557 21.3845 19.626L21.3446 19.6436ZM21.4969 20.1406L21.454 20.1327C21.4391 20.2133 21.3926 20.2852 21.3249 20.3311L21.3494 20.3672L21.3739 20.4033C21.4611 20.3442 21.5208 20.2519 21.5398 20.1485L21.4969 20.1406ZM21.3494 20.3672L21.325 20.331C21.2899 20.3548 21.2409 20.3688 21.1609 20.376C21.0808 20.3832 20.9762 20.3831 20.8328 20.3831V20.4268V20.4704C20.9744 20.4704 21.0838 20.4706 21.1686 20.463C21.2536 20.4553 21.3204 20.4396 21.3739 20.4033L21.3494 20.3672ZM20.8328 20.4268V20.3831H19.3729V20.4268V20.4704H20.8328V20.4268ZM19.3729 20.4268V20.3831C19.1766 20.3831 19.0319 20.3831 18.9176 20.3737C18.8038 20.3644 18.7239 20.3461 18.6564 20.3117L18.6365 20.3506L18.6167 20.3895C18.6986 20.4312 18.7913 20.451 18.9105 20.4607C19.0292 20.4704 19.178 20.4704 19.3729 20.4704V20.4268ZM18.6365 20.3506L18.6564 20.3117C18.5331 20.2489 18.4325 20.1491 18.3698 20.0261L18.3309 20.0459L18.292 20.0657C18.3632 20.2054 18.4773 20.3184 18.6167 20.3895L18.6365 20.3506ZM18.3309 20.0459L18.3698 20.0261C18.3354 19.9586 18.3173 19.8788 18.3083 19.7649C18.2991 19.6505 18.2993 19.5059 18.2993 19.3096H18.2557H18.212C18.212 19.5043 18.2118 19.6532 18.2212 19.7718C18.2307 19.891 18.2502 19.9838 18.292 20.0657L18.3309 20.0459ZM18.2557 19.3096H18.2993V17.5283H18.2557H18.212V19.3096H18.2557ZM18.2557 17.5283H18.2993C18.2993 17.332 18.2991 17.1874 18.3083 17.073C18.3173 16.9591 18.3354 16.8793 18.3698 16.8118L18.3309 16.792L18.292 16.7722C18.2502 16.8541 18.2307 16.9469 18.2212 17.0661C18.2118 17.1848 18.212 17.3336 18.212 17.5283H18.2557ZM18.3309 16.792L18.3698 16.8118C18.4325 16.6888 18.5331 16.589 18.6564 16.5262L18.6365 16.4873L18.6167 16.4484C18.4773 16.5195 18.3632 16.6325 18.292 16.7722L18.3309 16.792ZM18.6365 16.4873L18.6564 16.5262C18.7239 16.4918 18.8038 16.4735 18.9176 16.4642C19.0319 16.4548 19.1766 16.4548 19.3729 16.4548V16.4111V16.3675C19.178 16.3675 19.0292 16.3675 18.9105 16.3772C18.7913 16.3869 18.6986 16.4067 18.6167 16.4484L18.6365 16.4873ZM19.3729 16.4111V16.4548H20.8328V16.4111V16.3675H19.3729V16.4111Z" fill="url(#paint8_linear_10_29044)" style="mix-blend-mode:darken" mask="url(#path-15-inside-2_10_29044)"/>
</g>
<path d="M5.49397 16.4111C5.88499 16.4111 6.08092 16.4113 6.2303 16.4873C6.36163 16.5542 6.469 16.6607 6.53596 16.792C6.61207 16.9414 6.61214 17.1373 6.61214 17.5283V19.3096C6.61214 19.7006 6.61208 19.8965 6.53596 20.0459C6.469 20.1772 6.36166 20.2837 6.2303 20.3506C6.08091 20.4267 5.88502 20.4268 5.49397 20.4268H4.03499C3.75019 20.4268 3.60709 20.427 3.51839 20.3672C3.44088 20.3147 3.38787 20.2327 3.37092 20.1406C3.35166 20.0353 3.40792 19.9045 3.52229 19.6436L4.0594 18.4189L3.52229 17.1943C3.40789 16.9333 3.35161 16.8026 3.37092 16.6973C3.38787 16.6052 3.44088 16.5232 3.51839 16.4707C3.60709 16.4109 3.75024 16.4111 4.03499 16.4111H5.49397ZM20.8328 16.4111C21.1178 16.4111 21.2608 16.4107 21.3494 16.4707C21.4269 16.5232 21.48 16.6053 21.4969 16.6973C21.5161 16.8025 21.4589 16.9334 21.3446 17.1943L20.8074 18.4189L21.3446 19.6436C21.4589 19.9044 21.5161 20.0354 21.4969 20.1406C21.48 20.2326 21.4268 20.3147 21.3494 20.3672C21.2608 20.4272 21.1178 20.4268 20.8328 20.4268H19.3729C18.9817 20.4268 18.7859 20.4267 18.6365 20.3506C18.5052 20.2836 18.3978 20.1773 18.3309 20.0459C18.2548 19.8965 18.2557 19.7006 18.2557 19.3096V17.5283C18.2557 17.1373 18.2548 16.9414 18.3309 16.792C18.3978 16.6607 18.5052 16.5542 18.6365 16.4873C18.7859 16.4112 18.9817 16.4111 19.3729 16.4111H20.8328Z" fill="url(#paint9_linear_10_29044)" fill-opacity="0.3" style="mix-blend-mode:overlay"/>
<path d="M5.49397 16.4111C5.88499 16.4111 6.08092 16.4113 6.2303 16.4873C6.36163 16.5542 6.469 16.6607 6.53596 16.792C6.61207 16.9414 6.61214 17.1373 6.61214 17.5283V19.3096C6.61214 19.7006 6.61208 19.8965 6.53596 20.0459C6.469 20.1772 6.36166 20.2837 6.2303 20.3506C6.08091 20.4267 5.88502 20.4268 5.49397 20.4268H4.03499C3.75019 20.4268 3.60709 20.427 3.51839 20.3672C3.44088 20.3147 3.38787 20.2327 3.37092 20.1406C3.35166 20.0353 3.40792 19.9045 3.52229 19.6436L4.0594 18.4189L3.52229 17.1943C3.40789 16.9333 3.35161 16.8026 3.37092 16.6973C3.38787 16.6052 3.44088 16.5232 3.51839 16.4707C3.60709 16.4109 3.75024 16.4111 4.03499 16.4111H5.49397ZM20.8328 16.4111C21.1178 16.4111 21.2608 16.4107 21.3494 16.4707C21.4269 16.5232 21.48 16.6053 21.4969 16.6973C21.5161 16.8025 21.4589 16.9334 21.3446 17.1943L20.8074 18.4189L21.3446 19.6436C21.4589 19.9044 21.5161 20.0354 21.4969 20.1406C21.48 20.2326 21.4268 20.3147 21.3494 20.3672C21.2608 20.4272 21.1178 20.4268 20.8328 20.4268H19.3729C18.9817 20.4268 18.7859 20.4267 18.6365 20.3506C18.5052 20.2836 18.3978 20.1773 18.3309 20.0459C18.2548 19.8965 18.2557 19.7006 18.2557 19.3096V17.5283C18.2557 17.1373 18.2548 16.9414 18.3309 16.792C18.3978 16.6607 18.5052 16.5542 18.6365 16.4873C18.7859 16.4112 18.9817 16.4111 19.3729 16.4111H20.8328Z" fill="url(#paint10_radial_10_29044)" fill-opacity="0.6" style="mix-blend-mode:overlay"/>
<path d="M5.49397 16.4111C5.88499 16.4111 6.08092 16.4113 6.2303 16.4873C6.36163 16.5542 6.469 16.6607 6.53596 16.792C6.61207 16.9414 6.61214 17.1373 6.61214 17.5283V19.3096C6.61214 19.7006 6.61208 19.8965 6.53596 20.0459C6.469 20.1772 6.36166 20.2837 6.2303 20.3506C6.08091 20.4267 5.88502 20.4268 5.49397 20.4268H4.03499C3.75019 20.4268 3.60709 20.427 3.51839 20.3672C3.44088 20.3147 3.38787 20.2327 3.37092 20.1406C3.35166 20.0353 3.40792 19.9045 3.52229 19.6436L4.0594 18.4189L3.52229 17.1943C3.40789 16.9333 3.35161 16.8026 3.37092 16.6973C3.38787 16.6052 3.44088 16.5232 3.51839 16.4707C3.60709 16.4109 3.75024 16.4111 4.03499 16.4111H5.49397ZM20.8328 16.4111C21.1178 16.4111 21.2608 16.4107 21.3494 16.4707C21.4269 16.5232 21.48 16.6053 21.4969 16.6973C21.5161 16.8025 21.4589 16.9334 21.3446 17.1943L20.8074 18.4189L21.3446 19.6436C21.4589 19.9044 21.5161 20.0354 21.4969 20.1406C21.48 20.2326 21.4268 20.3147 21.3494 20.3672C21.2608 20.4272 21.1178 20.4268 20.8328 20.4268H19.3729C18.9817 20.4268 18.7859 20.4267 18.6365 20.3506C18.5052 20.2836 18.3978 20.1773 18.3309 20.0459C18.2548 19.8965 18.2557 19.7006 18.2557 19.3096V17.5283C18.2557 17.1373 18.2548 16.9414 18.3309 16.792C18.3978 16.6607 18.5052 16.5542 18.6365 16.4873C18.7859 16.4112 18.9817 16.4111 19.3729 16.4111H20.8328Z" fill="black" fill-opacity="0.24" style="mix-blend-mode:overlay"/>
<path d="M5.49397 16.4111C5.88499 16.4111 6.08092 16.4113 6.2303 16.4873C6.36163 16.5542 6.469 16.6607 6.53596 16.792C6.61207 16.9414 6.61214 17.1373 6.61214 17.5283V19.3096C6.61214 19.7006 6.61208 19.8965 6.53596 20.0459C6.469 20.1772 6.36166 20.2837 6.2303 20.3506C6.08091 20.4267 5.88502 20.4268 5.49397 20.4268H4.03499C3.75019 20.4268 3.60709 20.427 3.51839 20.3672C3.44088 20.3147 3.38787 20.2327 3.37092 20.1406C3.35166 20.0353 3.40792 19.9045 3.52229 19.6436L4.0594 18.4189L3.52229 17.1943C3.40789 16.9333 3.35161 16.8026 3.37092 16.6973C3.38787 16.6052 3.44088 16.5232 3.51839 16.4707C3.60709 16.4109 3.75024 16.4111 4.03499 16.4111H5.49397ZM20.8328 16.4111C21.1178 16.4111 21.2608 16.4107 21.3494 16.4707C21.4269 16.5232 21.48 16.6053 21.4969 16.6973C21.5161 16.8025 21.4589 16.9334 21.3446 17.1943L20.8074 18.4189L21.3446 19.6436C21.4589 19.9044 21.5161 20.0354 21.4969 20.1406C21.48 20.2326 21.4268 20.3147 21.3494 20.3672C21.2608 20.4272 21.1178 20.4268 20.8328 20.4268H19.3729C18.9817 20.4268 18.7859 20.4267 18.6365 20.3506C18.5052 20.2836 18.3978 20.1773 18.3309 20.0459C18.2548 19.8965 18.2557 19.7006 18.2557 19.3096V17.5283C18.2557 17.1373 18.2548 16.9414 18.3309 16.792C18.3978 16.6607 18.5052 16.5542 18.6365 16.4873C18.7859 16.4112 18.9817 16.4111 19.3729 16.4111H20.8328Z" fill="black" fill-opacity="0.12" style="mix-blend-mode:darken"/>
<g filter="url(#filter4_dd_10_29044)">
<rect x="4.75" y="15.3635" width="15.3651" height="4.01587" rx="0.698413" fill="#FFA00F"/>
<rect x="4.77183" y="15.3854" width="15.3214" height="3.97222" rx="0.676587" stroke="url(#paint11_linear_10_29044)" stroke-width="0.0436508" stroke-linecap="round" style="mix-blend-mode:darken"/>
</g>
<rect x="4.75" y="15.3635" width="15.3651" height="4.01587" rx="0.698413" fill="url(#paint12_linear_10_29044)" fill-opacity="0.3" style="mix-blend-mode:overlay"/>
<rect x="4.75" y="15.3635" width="15.3651" height="4.01587" rx="0.698413" fill="url(#paint13_radial_10_29044)" fill-opacity="0.6" style="mix-blend-mode:overlay"/>
<g filter="url(#filter5_i_10_29044)">
<circle cx="5.71112" cy="17.3713" r="0.261905" fill="black" fill-opacity="0.24" style="mix-blend-mode:color-burn"/>
<circle cx="5.71112" cy="17.3713" r="0.261905" fill="black" fill-opacity="0.32" style="mix-blend-mode:darken"/>
</g>
<g filter="url(#filter6_i_10_29044)">
<circle cx="19.1545" cy="17.3713" r="0.261905" fill="black" fill-opacity="0.24" style="mix-blend-mode:color-burn"/>
<circle cx="19.1545" cy="17.3713" r="0.261905" fill="black" fill-opacity="0.32" style="mix-blend-mode:darken"/>
</g>
<g filter="url(#filter7_i_10_29044)">
<path d="M9.02309 17.6637H9.1488C9.22004 17.6637 9.27591 17.647 9.31642 17.6134C9.35833 17.5799 9.37928 17.5317 9.37928 17.4689C9.37928 17.406 9.35972 17.3585 9.32061 17.3264C9.2815 17.2943 9.22493 17.2782 9.1509 17.2782C9.12575 17.2782 9.10271 17.2789 9.08175 17.2803C9.0622 17.2817 9.04264 17.2838 9.02309 17.2866V17.6637ZM9.16975 17.9152H8.70671V17.1651C8.70671 17.1385 8.71439 17.1176 8.72975 17.1022C8.74512 17.0868 8.76537 17.075 8.79052 17.0666C8.83661 17.0498 8.89179 17.038 8.95604 17.031C9.02029 17.024 9.07826 17.0205 9.12994 17.0205C9.31852 17.0205 9.46099 17.061 9.55737 17.142C9.65515 17.2216 9.70404 17.3306 9.70404 17.4689C9.70404 17.5583 9.68239 17.6365 9.63909 17.7035C9.59718 17.7706 9.53642 17.823 9.4568 17.8607C9.37718 17.897 9.2815 17.9152 9.16975 17.9152ZM8.70671 17.7748H9.02518V18.3216C9.01261 18.3258 8.99236 18.3293 8.96442 18.3321C8.93648 18.3363 8.90785 18.3384 8.87852 18.3384C8.81566 18.3384 8.77096 18.3272 8.74442 18.3049C8.71928 18.2825 8.70671 18.2434 8.70671 18.1875V17.7748ZM9.83421 17.4374H10.1527V18.3216C10.1401 18.3258 10.1199 18.3293 10.0919 18.3321C10.064 18.3363 10.0353 18.3384 10.006 18.3384C9.94316 18.3384 9.89846 18.3272 9.87192 18.3049C9.84678 18.2825 9.83421 18.2434 9.83421 18.1875V17.4374ZM10.1527 17.8397H9.83421V17.0498C9.84817 17.047 9.86913 17.0435 9.89706 17.0393C9.9264 17.0352 9.95503 17.0331 9.98297 17.0331C10.043 17.0331 10.0863 17.0435 10.1129 17.0645C10.1394 17.0854 10.1527 17.1253 10.1527 17.1839V17.8397ZM11.6024 17.6868C11.6024 17.832 11.5738 17.955 11.5165 18.0555C11.4606 18.1547 11.3831 18.2301 11.2839 18.2818C11.1862 18.3335 11.0751 18.3593 10.9508 18.3593C10.8265 18.3593 10.7154 18.3335 10.6177 18.2818C10.5199 18.2301 10.4431 18.1547 10.3872 18.0555C10.3313 17.955 10.3034 17.832 10.3034 17.6868C10.3034 17.5415 10.332 17.4193 10.3893 17.3201C10.4466 17.2195 10.5241 17.1441 10.6219 17.0938C10.7196 17.0421 10.8293 17.0163 10.9508 17.0163C11.0737 17.0163 11.1841 17.0421 11.2819 17.0938C11.381 17.1441 11.4592 17.2195 11.5165 17.3201C11.5738 17.4193 11.6024 17.5415 11.6024 17.6868ZM11.2735 17.6868C11.2735 17.5527 11.2441 17.4507 11.1855 17.3809C11.1282 17.311 11.05 17.2761 10.9508 17.2761C10.8558 17.2761 10.779 17.311 10.7203 17.3809C10.6617 17.4493 10.6323 17.5513 10.6323 17.6868C10.6323 17.8237 10.661 17.927 10.7182 17.9969C10.7769 18.0653 10.8551 18.0995 10.9529 18.0995C11.0507 18.0995 11.1282 18.0653 11.1855 17.9969C11.2441 17.927 11.2735 17.8237 11.2735 17.6868ZM11.7516 17.4165L12.0407 17.4123C12.0463 17.4724 12.0505 17.5317 12.0533 17.5904C12.0561 17.6491 12.0575 17.7056 12.0575 17.7601C12.0589 17.8146 12.0596 17.8677 12.0596 17.9193V18.3237C12.047 18.3265 12.0268 18.3293 11.9988 18.3321C11.9723 18.3363 11.9451 18.3384 11.9171 18.3384C11.8557 18.3384 11.8124 18.3279 11.7872 18.307C11.7635 18.286 11.7516 18.2483 11.7516 18.1938V17.4165ZM12.8684 17.955L12.5771 17.9571C12.5673 17.8551 12.5618 17.758 12.5604 17.6658C12.559 17.5736 12.5583 17.4856 12.5583 17.4018V17.0498C12.5722 17.047 12.5925 17.0435 12.619 17.0393C12.6456 17.0352 12.6735 17.0331 12.7028 17.0331C12.7629 17.0331 12.8055 17.0442 12.8306 17.0666C12.8558 17.0875 12.8684 17.1246 12.8684 17.1776V17.955ZM12.8684 17.8544V18.2839C12.8502 18.3007 12.8244 18.314 12.7908 18.3237C12.7587 18.3349 12.7203 18.3405 12.6756 18.3405C12.6281 18.3405 12.5834 18.3328 12.5415 18.3174C12.501 18.3021 12.4675 18.2679 12.4409 18.2148L12.1874 17.7329C12.172 17.7021 12.1567 17.6714 12.1413 17.6407C12.1273 17.61 12.1134 17.5792 12.0994 17.5485C12.0854 17.5164 12.0715 17.4842 12.0575 17.4521L11.7516 17.5213V17.1085C11.7684 17.0847 11.7942 17.0666 11.8291 17.054C11.8654 17.0414 11.9045 17.0352 11.9465 17.0352C11.9925 17.0352 12.0358 17.0428 12.0764 17.0582C12.1183 17.0736 12.1525 17.1071 12.179 17.1588L12.4346 17.6428C12.45 17.6721 12.4654 17.7028 12.4807 17.735C12.4961 17.7657 12.5108 17.7964 12.5247 17.8272C12.5387 17.8579 12.552 17.8893 12.5645 17.9214L12.8684 17.8544ZM13.0796 17.4353H13.3897V18.3112C13.3771 18.314 13.3576 18.3174 13.331 18.3216C13.3059 18.3258 13.2787 18.3279 13.2493 18.3279C13.1976 18.3279 13.1564 18.3126 13.1257 18.2818C13.095 18.2511 13.0796 18.2099 13.0796 18.1582V17.4353ZM13.3897 17.9424H13.0796V17.2237C13.0796 17.1707 13.095 17.1294 13.1257 17.1001C13.1564 17.0694 13.1976 17.054 13.2493 17.054C13.2787 17.054 13.3059 17.0561 13.331 17.0603C13.3576 17.0645 13.3771 17.068 13.3897 17.0708V17.9424ZM13.2493 17.802V17.5506H13.8821C13.8905 17.5646 13.8982 17.582 13.9051 17.603C13.9121 17.6239 13.9156 17.647 13.9156 17.6721C13.9156 17.7168 13.9051 17.7496 13.8842 17.7706C13.8646 17.7915 13.8381 17.802 13.8046 17.802H13.2493ZM13.2493 18.3279V18.0744H13.9512C13.9596 18.087 13.9673 18.1044 13.9743 18.1268C13.9813 18.1491 13.9848 18.1729 13.9848 18.198C13.9848 18.2427 13.9743 18.2755 13.9533 18.2965C13.9338 18.3174 13.9072 18.3279 13.8737 18.3279H13.2493ZM13.2493 17.3054V17.054H13.9408C13.9505 17.0666 13.9582 17.0833 13.9638 17.1043C13.9708 17.1253 13.9743 17.1483 13.9743 17.1734C13.9743 17.2181 13.9645 17.2517 13.9449 17.274C13.9254 17.295 13.8982 17.3054 13.8632 17.3054H13.2493ZM14.1355 17.4353H14.4456V18.3112C14.433 18.314 14.4135 18.3174 14.3869 18.3216C14.3618 18.3258 14.3345 18.3279 14.3052 18.3279C14.2535 18.3279 14.2123 18.3126 14.1816 18.2818C14.1509 18.2511 14.1355 18.2099 14.1355 18.1582V17.4353ZM14.4456 17.9424H14.1355V17.2237C14.1355 17.1707 14.1509 17.1294 14.1816 17.1001C14.2123 17.0694 14.2535 17.054 14.3052 17.054C14.3345 17.054 14.3618 17.0561 14.3869 17.0603C14.4135 17.0645 14.433 17.068 14.4456 17.0708V17.9424ZM14.3052 17.802V17.5506H14.938C14.9464 17.5646 14.954 17.582 14.961 17.603C14.968 17.6239 14.9715 17.647 14.9715 17.6721C14.9715 17.7168 14.961 17.7496 14.9401 17.7706C14.9205 17.7915 14.894 17.802 14.8605 17.802H14.3052ZM14.3052 18.3279V18.0744H15.0071C15.0155 18.087 15.0232 18.1044 15.0302 18.1268C15.0372 18.1491 15.0406 18.1729 15.0406 18.198C15.0406 18.2427 15.0302 18.2755 15.0092 18.2965C14.9897 18.3174 14.9631 18.3279 14.9296 18.3279H14.3052ZM14.3052 17.3054V17.054H14.9966C15.0064 17.0666 15.0141 17.0833 15.0197 17.1043C15.0267 17.1253 15.0302 17.1483 15.0302 17.1734C15.0302 17.2181 15.0204 17.2517 15.0008 17.274C14.9813 17.295 14.954 17.3054 14.9191 17.3054H14.3052ZM15.5078 17.6491H15.644C15.7138 17.6491 15.7697 17.6337 15.8116 17.603C15.8549 17.5708 15.8765 17.524 15.8765 17.4626C15.8765 17.4025 15.8563 17.3571 15.8158 17.3264C15.7753 17.2943 15.7131 17.2782 15.6293 17.2782C15.6055 17.2782 15.5839 17.2789 15.5643 17.2803C15.5448 17.2817 15.5259 17.2845 15.5078 17.2887V17.6491ZM15.6733 17.8963H15.1914V17.1651C15.1914 17.1385 15.1991 17.1176 15.2144 17.1022C15.2298 17.0868 15.2501 17.075 15.2752 17.0666C15.3213 17.0498 15.3751 17.038 15.4365 17.031C15.4994 17.024 15.5643 17.0205 15.6314 17.0205C15.82 17.0205 15.9617 17.0603 16.0567 17.1399C16.1517 17.2181 16.1992 17.325 16.1992 17.4605C16.1992 17.5443 16.1761 17.6197 16.1301 17.6868C16.0854 17.7524 16.0232 17.8041 15.9436 17.8418C15.8654 17.8781 15.7753 17.8963 15.6733 17.8963ZM15.6146 17.8209L15.8996 17.7538C15.9317 17.7985 15.9645 17.8425 15.9981 17.8858C16.033 17.9291 16.0658 17.971 16.0965 18.0115C16.1287 18.052 16.1573 18.0898 16.1824 18.1247C16.2076 18.1582 16.2278 18.1868 16.2432 18.2106C16.2306 18.2525 16.2083 18.2853 16.1761 18.3091C16.144 18.3314 16.1077 18.3426 16.0672 18.3426C16.0155 18.3426 15.9757 18.3314 15.9478 18.3091C15.9212 18.2853 15.8961 18.2546 15.8723 18.2169L15.6146 17.8209ZM15.1914 17.7769H15.5099V18.3216C15.4973 18.3258 15.477 18.3293 15.4491 18.3321C15.4212 18.3363 15.3925 18.3384 15.3632 18.3384C15.3003 18.3384 15.2556 18.3272 15.2291 18.3049C15.204 18.2825 15.1914 18.2434 15.1914 18.1875V17.7769Z" fill="black" fill-opacity="0.24" style="mix-blend-mode:color-burn"/>
<path d="M9.02309 17.6637H9.1488C9.22004 17.6637 9.27591 17.647 9.31642 17.6134C9.35833 17.5799 9.37928 17.5317 9.37928 17.4689C9.37928 17.406 9.35972 17.3585 9.32061 17.3264C9.2815 17.2943 9.22493 17.2782 9.1509 17.2782C9.12575 17.2782 9.10271 17.2789 9.08175 17.2803C9.0622 17.2817 9.04264 17.2838 9.02309 17.2866V17.6637ZM9.16975 17.9152H8.70671V17.1651C8.70671 17.1385 8.71439 17.1176 8.72975 17.1022C8.74512 17.0868 8.76537 17.075 8.79052 17.0666C8.83661 17.0498 8.89179 17.038 8.95604 17.031C9.02029 17.024 9.07826 17.0205 9.12994 17.0205C9.31852 17.0205 9.46099 17.061 9.55737 17.142C9.65515 17.2216 9.70404 17.3306 9.70404 17.4689C9.70404 17.5583 9.68239 17.6365 9.63909 17.7035C9.59718 17.7706 9.53642 17.823 9.4568 17.8607C9.37718 17.897 9.2815 17.9152 9.16975 17.9152ZM8.70671 17.7748H9.02518V18.3216C9.01261 18.3258 8.99236 18.3293 8.96442 18.3321C8.93648 18.3363 8.90785 18.3384 8.87852 18.3384C8.81566 18.3384 8.77096 18.3272 8.74442 18.3049C8.71928 18.2825 8.70671 18.2434 8.70671 18.1875V17.7748ZM9.83421 17.4374H10.1527V18.3216C10.1401 18.3258 10.1199 18.3293 10.0919 18.3321C10.064 18.3363 10.0353 18.3384 10.006 18.3384C9.94316 18.3384 9.89846 18.3272 9.87192 18.3049C9.84678 18.2825 9.83421 18.2434 9.83421 18.1875V17.4374ZM10.1527 17.8397H9.83421V17.0498C9.84817 17.047 9.86913 17.0435 9.89706 17.0393C9.9264 17.0352 9.95503 17.0331 9.98297 17.0331C10.043 17.0331 10.0863 17.0435 10.1129 17.0645C10.1394 17.0854 10.1527 17.1253 10.1527 17.1839V17.8397ZM11.6024 17.6868C11.6024 17.832 11.5738 17.955 11.5165 18.0555C11.4606 18.1547 11.3831 18.2301 11.2839 18.2818C11.1862 18.3335 11.0751 18.3593 10.9508 18.3593C10.8265 18.3593 10.7154 18.3335 10.6177 18.2818C10.5199 18.2301 10.4431 18.1547 10.3872 18.0555C10.3313 17.955 10.3034 17.832 10.3034 17.6868C10.3034 17.5415 10.332 17.4193 10.3893 17.3201C10.4466 17.2195 10.5241 17.1441 10.6219 17.0938C10.7196 17.0421 10.8293 17.0163 10.9508 17.0163C11.0737 17.0163 11.1841 17.0421 11.2819 17.0938C11.381 17.1441 11.4592 17.2195 11.5165 17.3201C11.5738 17.4193 11.6024 17.5415 11.6024 17.6868ZM11.2735 17.6868C11.2735 17.5527 11.2441 17.4507 11.1855 17.3809C11.1282 17.311 11.05 17.2761 10.9508 17.2761C10.8558 17.2761 10.779 17.311 10.7203 17.3809C10.6617 17.4493 10.6323 17.5513 10.6323 17.6868C10.6323 17.8237 10.661 17.927 10.7182 17.9969C10.7769 18.0653 10.8551 18.0995 10.9529 18.0995C11.0507 18.0995 11.1282 18.0653 11.1855 17.9969C11.2441 17.927 11.2735 17.8237 11.2735 17.6868ZM11.7516 17.4165L12.0407 17.4123C12.0463 17.4724 12.0505 17.5317 12.0533 17.5904C12.0561 17.6491 12.0575 17.7056 12.0575 17.7601C12.0589 17.8146 12.0596 17.8677 12.0596 17.9193V18.3237C12.047 18.3265 12.0268 18.3293 11.9988 18.3321C11.9723 18.3363 11.9451 18.3384 11.9171 18.3384C11.8557 18.3384 11.8124 18.3279 11.7872 18.307C11.7635 18.286 11.7516 18.2483 11.7516 18.1938V17.4165ZM12.8684 17.955L12.5771 17.9571C12.5673 17.8551 12.5618 17.758 12.5604 17.6658C12.559 17.5736 12.5583 17.4856 12.5583 17.4018V17.0498C12.5722 17.047 12.5925 17.0435 12.619 17.0393C12.6456 17.0352 12.6735 17.0331 12.7028 17.0331C12.7629 17.0331 12.8055 17.0442 12.8306 17.0666C12.8558 17.0875 12.8684 17.1246 12.8684 17.1776V17.955ZM12.8684 17.8544V18.2839C12.8502 18.3007 12.8244 18.314 12.7908 18.3237C12.7587 18.3349 12.7203 18.3405 12.6756 18.3405C12.6281 18.3405 12.5834 18.3328 12.5415 18.3174C12.501 18.3021 12.4675 18.2679 12.4409 18.2148L12.1874 17.7329C12.172 17.7021 12.1567 17.6714 12.1413 17.6407C12.1273 17.61 12.1134 17.5792 12.0994 17.5485C12.0854 17.5164 12.0715 17.4842 12.0575 17.4521L11.7516 17.5213V17.1085C11.7684 17.0847 11.7942 17.0666 11.8291 17.054C11.8654 17.0414 11.9045 17.0352 11.9465 17.0352C11.9925 17.0352 12.0358 17.0428 12.0764 17.0582C12.1183 17.0736 12.1525 17.1071 12.179 17.1588L12.4346 17.6428C12.45 17.6721 12.4654 17.7028 12.4807 17.735C12.4961 17.7657 12.5108 17.7964 12.5247 17.8272C12.5387 17.8579 12.552 17.8893 12.5645 17.9214L12.8684 17.8544ZM13.0796 17.4353H13.3897V18.3112C13.3771 18.314 13.3576 18.3174 13.331 18.3216C13.3059 18.3258 13.2787 18.3279 13.2493 18.3279C13.1976 18.3279 13.1564 18.3126 13.1257 18.2818C13.095 18.2511 13.0796 18.2099 13.0796 18.1582V17.4353ZM13.3897 17.9424H13.0796V17.2237C13.0796 17.1707 13.095 17.1294 13.1257 17.1001C13.1564 17.0694 13.1976 17.054 13.2493 17.054C13.2787 17.054 13.3059 17.0561 13.331 17.0603C13.3576 17.0645 13.3771 17.068 13.3897 17.0708V17.9424ZM13.2493 17.802V17.5506H13.8821C13.8905 17.5646 13.8982 17.582 13.9051 17.603C13.9121 17.6239 13.9156 17.647 13.9156 17.6721C13.9156 17.7168 13.9051 17.7496 13.8842 17.7706C13.8646 17.7915 13.8381 17.802 13.8046 17.802H13.2493ZM13.2493 18.3279V18.0744H13.9512C13.9596 18.087 13.9673 18.1044 13.9743 18.1268C13.9813 18.1491 13.9848 18.1729 13.9848 18.198C13.9848 18.2427 13.9743 18.2755 13.9533 18.2965C13.9338 18.3174 13.9072 18.3279 13.8737 18.3279H13.2493ZM13.2493 17.3054V17.054H13.9408C13.9505 17.0666 13.9582 17.0833 13.9638 17.1043C13.9708 17.1253 13.9743 17.1483 13.9743 17.1734C13.9743 17.2181 13.9645 17.2517 13.9449 17.274C13.9254 17.295 13.8982 17.3054 13.8632 17.3054H13.2493ZM14.1355 17.4353H14.4456V18.3112C14.433 18.314 14.4135 18.3174 14.3869 18.3216C14.3618 18.3258 14.3345 18.3279 14.3052 18.3279C14.2535 18.3279 14.2123 18.3126 14.1816 18.2818C14.1509 18.2511 14.1355 18.2099 14.1355 18.1582V17.4353ZM14.4456 17.9424H14.1355V17.2237C14.1355 17.1707 14.1509 17.1294 14.1816 17.1001C14.2123 17.0694 14.2535 17.054 14.3052 17.054C14.3345 17.054 14.3618 17.0561 14.3869 17.0603C14.4135 17.0645 14.433 17.068 14.4456 17.0708V17.9424ZM14.3052 17.802V17.5506H14.938C14.9464 17.5646 14.954 17.582 14.961 17.603C14.968 17.6239 14.9715 17.647 14.9715 17.6721C14.9715 17.7168 14.961 17.7496 14.9401 17.7706C14.9205 17.7915 14.894 17.802 14.8605 17.802H14.3052ZM14.3052 18.3279V18.0744H15.0071C15.0155 18.087 15.0232 18.1044 15.0302 18.1268C15.0372 18.1491 15.0406 18.1729 15.0406 18.198C15.0406 18.2427 15.0302 18.2755 15.0092 18.2965C14.9897 18.3174 14.9631 18.3279 14.9296 18.3279H14.3052ZM14.3052 17.3054V17.054H14.9966C15.0064 17.0666 15.0141 17.0833 15.0197 17.1043C15.0267 17.1253 15.0302 17.1483 15.0302 17.1734C15.0302 17.2181 15.0204 17.2517 15.0008 17.274C14.9813 17.295 14.954 17.3054 14.9191 17.3054H14.3052ZM15.5078 17.6491H15.644C15.7138 17.6491 15.7697 17.6337 15.8116 17.603C15.8549 17.5708 15.8765 17.524 15.8765 17.4626C15.8765 17.4025 15.8563 17.3571 15.8158 17.3264C15.7753 17.2943 15.7131 17.2782 15.6293 17.2782C15.6055 17.2782 15.5839 17.2789 15.5643 17.2803C15.5448 17.2817 15.5259 17.2845 15.5078 17.2887V17.6491ZM15.6733 17.8963H15.1914V17.1651C15.1914 17.1385 15.1991 17.1176 15.2144 17.1022C15.2298 17.0868 15.2501 17.075 15.2752 17.0666C15.3213 17.0498 15.3751 17.038 15.4365 17.031C15.4994 17.024 15.5643 17.0205 15.6314 17.0205C15.82 17.0205 15.9617 17.0603 16.0567 17.1399C16.1517 17.2181 16.1992 17.325 16.1992 17.4605C16.1992 17.5443 16.1761 17.6197 16.1301 17.6868C16.0854 17.7524 16.0232 17.8041 15.9436 17.8418C15.8654 17.8781 15.7753 17.8963 15.6733 17.8963ZM15.6146 17.8209L15.8996 17.7538C15.9317 17.7985 15.9645 17.8425 15.9981 17.8858C16.033 17.9291 16.0658 17.971 16.0965 18.0115C16.1287 18.052 16.1573 18.0898 16.1824 18.1247C16.2076 18.1582 16.2278 18.1868 16.2432 18.2106C16.2306 18.2525 16.2083 18.2853 16.1761 18.3091C16.144 18.3314 16.1077 18.3426 16.0672 18.3426C16.0155 18.3426 15.9757 18.3314 15.9478 18.3091C15.9212 18.2853 15.8961 18.2546 15.8723 18.2169L15.6146 17.8209ZM15.1914 17.7769H15.5099V18.3216C15.4973 18.3258 15.477 18.3293 15.4491 18.3321C15.4212 18.3363 15.3925 18.3384 15.3632 18.3384C15.3003 18.3384 15.2556 18.3272 15.2291 18.3049C15.204 18.2825 15.1914 18.2434 15.1914 18.1875V17.7769Z" fill="black" fill-opacity="0.32" style="mix-blend-mode:darken"/>
</g>
<defs>
<filter id="filter0_dddd_10_29044" x="1.496" y="3.21057" width="21.9221" height="28.78" filterUnits="userSpaceOnUse" color-interpolation-filters="sRGB">
<feFlood flood-opacity="0" result="BackgroundImageFix"/>
<feColorMatrix in="SourceAlpha" type="matrix" values="0 0 0 0 0 0 0 0 0 0 0 0 0 0 0 0 0 0 127 0" result="hardAlpha"/>
<feOffset dy="0.436508"/>
<feGaussianBlur stdDeviation="0.480159"/>
<feColorMatrix type="matrix" values="0 0 0 0 0 0 0 0 0 0 0 0 0 0 0 0 0 0 0.24 0"/>
<feBlend mode="normal" in2="BackgroundImageFix" result="effect1_dropShadow_10_29044"/>
<feColorMatrix in="SourceAlpha" type="matrix" values="0 0 0 0 0 0 0 0 0 0 0 0 0 0 0 0 0 0 127 0" result="hardAlpha"/>
<feOffset dy="1.83333"/>
<feGaussianBlur stdDeviation="0.916667"/>
<feColorMatrix type="matrix" values="0 0 0 0 0 0 0 0 0 0 0 0 0 0 0 0 0 0 0.21 0"/>
<feBlend mode="normal" in2="effect1_dropShadow_10_29044" result="effect2_dropShadow_10_29044"/>
<feColorMatrix in="SourceAlpha" type="matrix" values="0 0 0 0 0 0 0 0 0 0 0 0 0 0 0 0 0 0 127 0" result="hardAlpha"/>
<feOffset dy="4.01587"/>
<feGaussianBlur stdDeviation="1.22222"/>
<feColorMatrix type="matrix" values="0 0 0 0 0 0 0 0 0 0 0 0 0 0 0 0 0 0 0.12 0"/>
<feBlend mode="normal" in2="effect2_dropShadow_10_29044" result="effect3_dropShadow_10_29044"/>
<feColorMatrix in="SourceAlpha" type="matrix" values="0 0 0 0 0 0 0 0 0 0 0 0 0 0 0 0 0 0 127 0" result="hardAlpha"/>
<feOffset dy="7.15873"/>
<feGaussianBlur stdDeviation="1.44048"/>
<feColorMatrix type="matrix" values="0 0 0 0 0 0 0 0 0 0 0 0 0 0 0 0 0 0 0.04 0"/>
<feBlend mode="normal" in2="effect3_dropShadow_10_29044" result="effect4_dropShadow_10_29044"/>
<feBlend mode="normal" in="SourceGraphic" in2="effect4_dropShadow_10_29044" result="shape"/>
</filter>
<filter id="filter1_d_10_29044" x="3.67854" y="3.21057" width="17.557" height="19.6139" filterUnits="userSpaceOnUse" color-interpolation-filters="sRGB">
<feFlood flood-opacity="0" result="BackgroundImageFix"/>
<feColorMatrix in="SourceAlpha" type="matrix" values="0 0 0 0 0 0 0 0 0 0 0 0 0 0 0 0 0 0 127 0" result="hardAlpha"/>
<feOffset dy="0.174603"/>
<feGaussianBlur stdDeviation="0.349206"/>
<feColorMatrix type="matrix" values="0 0 0 0 0 0 0 0 0 0 0 0 0 0 0 0 0 0 0.16 0"/>
<feBlend mode="color-burn" in2="BackgroundImageFix" result="effect1_dropShadow_10_29044"/>
<feBlend mode="normal" in="SourceGraphic" in2="effect1_dropShadow_10_29044" result="shape"/>
</filter>
<filter id="filter2_d_10_29044" x="7.93871" y="7.5574" width="8.99172" height="8.64285" filterUnits="userSpaceOnUse" color-interpolation-filters="sRGB">
<feFlood flood-opacity="0" result="BackgroundImageFix"/>
<feColorMatrix in="SourceAlpha" type="matrix" values="0 0 0 0 0 0 0 0 0 0 0 0 0 0 0 0 0 0 127 0" result="hardAlpha"/>
<feOffset dy="0.174603"/>
<feGaussianBlur stdDeviation="0.523809"/>
<feColorMatrix type="matrix" values="0 0 0 0 0 0 0 0 0 0 0 0 0 0 0 0 0 0 0.12 0"/>
<feBlend mode="plus-darker" in2="BackgroundImageFix" result="effect1_dropShadow_10_29044"/>
<feBlend mode="normal" in="SourceGraphic" in2="effect1_dropShadow_10_29044" result="shape"/>
</filter>
<filter id="filter3_dd_10_29044" x="2.31957" y="15.7127" width="20.2281" height="6.11086" filterUnits="userSpaceOnUse" color-interpolation-filters="sRGB">
<feFlood flood-opacity="0" result="BackgroundImageFix"/>
<feColorMatrix in="SourceAlpha" type="matrix" values="0 0 0 0 0 0 0 0 0 0 0 0 0 0 0 0 0 0 127 0" result="hardAlpha"/>
<feOffset dy="0.349206"/>
<feGaussianBlur stdDeviation="0.523809"/>
<feColorMatrix type="matrix" values="0 0 0 0 0 0 0 0 0 0 0 0 0 0 0 0 0 0 0.16 0"/>
<feBlend mode="normal" in2="BackgroundImageFix" result="effect1_dropShadow_10_29044"/>
<feColorMatrix in="SourceAlpha" type="matrix" values="0 0 0 0 0 0 0 0 0 0 0 0 0 0 0 0 0 0 127 0" result="hardAlpha"/>
<feOffset dy="0.174603"/>
<feGaussianBlur stdDeviation="0.174603"/>
<feColorMatrix type="matrix" values="0 0 0 0 0 0 0 0 0 0 0 0 0 0 0 0 0 0 0.24 0"/>
<feBlend mode="normal" in2="effect1_dropShadow_10_29044" result="effect2_dropShadow_10_29044"/>
<feBlend mode="normal" in="SourceGraphic" in2="effect2_dropShadow_10_29044" result="shape"/>
</filter>
<filter id="filter4_dd_10_29044" x="3.70238" y="14.6651" width="17.4605" height="6.11111" filterUnits="userSpaceOnUse" color-interpolation-filters="sRGB">
<feFlood flood-opacity="0" result="BackgroundImageFix"/>
<feColorMatrix in="SourceAlpha" type="matrix" values="0 0 0 0 0 0 0 0 0 0 0 0 0 0 0 0 0 0 127 0" result="hardAlpha"/>
<feOffset dy="0.349206"/>
<feGaussianBlur stdDeviation="0.523809"/>
<feColorMatrix type="matrix" values="0 0 0 0 0 0 0 0 0 0 0 0 0 0 0 0 0 0 0.16 0"/>
<feBlend mode="normal" in2="BackgroundImageFix" result="effect1_dropShadow_10_29044"/>
<feColorMatrix in="SourceAlpha" type="matrix" values="0 0 0 0 0 0 0 0 0 0 0 0 0 0 0 0 0 0 127 0" result="hardAlpha"/>
<feOffset dy="0.174603"/>
<feGaussianBlur stdDeviation="0.174603"/>
<feColorMatrix type="matrix" values="0 0 0 0 0 0 0 0 0 0 0 0 0 0 0 0 0 0 0.24 0"/>
<feBlend mode="normal" in2="effect1_dropShadow_10_29044" result="effect2_dropShadow_10_29044"/>
<feBlend mode="normal" in="SourceGraphic" in2="effect2_dropShadow_10_29044" result="shape"/>
</filter>
<filter id="filter5_i_10_29044" x="5.44922" y="17.1094" width="0.523438" height="0.611227" filterUnits="userSpaceOnUse" color-interpolation-filters="sRGB">
<feFlood flood-opacity="0" result="BackgroundImageFix"/>
<feBlend mode="normal" in="SourceGraphic" in2="BackgroundImageFix" result="shape"/>
<feColorMatrix in="SourceAlpha" type="matrix" values="0 0 0 0 0 0 0 0 0 0 0 0 0 0 0 0 0 0 127 0" result="hardAlpha"/>
<feOffset dy="0.0873016"/>
<feGaussianBlur stdDeviation="0.0873016"/>
<feComposite in2="hardAlpha" operator="arithmetic" k2="-1" k3="1"/>
<feColorMatrix type="matrix" values="0 0 0 0 0 0 0 0 0 0 0 0 0 0 0 0 0 0 0.24 0"/>
<feBlend mode="darken" in2="shape" result="effect1_innerShadow_10_29044"/>
</filter>
<filter id="filter6_i_10_29044" x="18.8926" y="17.1094" width="0.523438" height="0.611227" filterUnits="userSpaceOnUse" color-interpolation-filters="sRGB">
<feFlood flood-opacity="0" result="BackgroundImageFix"/>
<feBlend mode="normal" in="SourceGraphic" in2="BackgroundImageFix" result="shape"/>
<feColorMatrix in="SourceAlpha" type="matrix" values="0 0 0 0 0 0 0 0 0 0 0 0 0 0 0 0 0 0 127 0" result="hardAlpha"/>
<feOffset dy="0.0873016"/>
<feGaussianBlur stdDeviation="0.0873016"/>
<feComposite in2="hardAlpha" operator="arithmetic" k2="-1" k3="1"/>
<feColorMatrix type="matrix" values="0 0 0 0 0 0 0 0 0 0 0 0 0 0 0 0 0 0 0.24 0"/>
<feBlend mode="darken" in2="shape" result="effect1_innerShadow_10_29044"/>
</filter>
<filter id="filter7_i_10_29044" x="8.70703" y="17.0164" width="7.53711" height="1.43032" filterUnits="userSpaceOnUse" color-interpolation-filters="sRGB">
<feFlood flood-opacity="0" result="BackgroundImageFix"/>
<feBlend mode="normal" in="SourceGraphic" in2="BackgroundImageFix" result="shape"/>
<feColorMatrix in="SourceAlpha" type="matrix" values="0 0 0 0 0 0 0 0 0 0 0 0 0 0 0 0 0 0 127 0" result="hardAlpha"/>
<feOffset dy="0.0873016"/>
<feGaussianBlur stdDeviation="0.0873016"/>
<feComposite in2="hardAlpha" operator="arithmetic" k2="-1" k3="1"/>
<feColorMatrix type="matrix" values="0 0 0 0 0 0 0 0 0 0 0 0 0 0 0 0 0 0 0.24 0"/>
<feBlend mode="darken" in2="shape" result="effect1_innerShadow_10_29044"/>
</filter>
<linearGradient id="paint0_linear_10_29044" x1="12.4449" y1="3.29216" x2="12.4449" y2="22.07" gradientUnits="userSpaceOnUse">
<stop stop-color="white"/>
<stop offset="1" stop-color="white" stop-opacity="0"/>
</linearGradient>
<radialGradient id="paint1_radial_10_29044" cx="0" cy="0" r="1" gradientUnits="userSpaceOnUse" gradientTransform="translate(12.4449 8.68579) rotate(90) scale(12.3854 9.39703)">
<stop stop-color="white"/>
<stop offset="1" stop-color="white" stop-opacity="0"/>
</radialGradient>
<linearGradient id="paint2_linear_10_29044" x1="20.4885" y1="4.06868" x2="20.4885" y2="21.9629" gradientUnits="userSpaceOnUse">
<stop stop-color="#49F0BC"/>
<stop offset="1" stop-color="#29DCCC"/>
</linearGradient>
<linearGradient id="paint3_linear_10_29044" x1="12.3589" y1="3.29216" x2="12.3589" y2="22.07" gradientUnits="userSpaceOnUse">
<stop stop-color="white"/>
<stop offset="1" stop-color="white" stop-opacity="0"/>
</linearGradient>
<radialGradient id="paint4_radial_10_29044" cx="0" cy="0" r="1" gradientUnits="userSpaceOnUse" gradientTransform="translate(12.3589 8.68579) rotate(90) scale(12.3854 9.39703)">
<stop stop-color="white"/>
<stop offset="1" stop-color="white" stop-opacity="0"/>
</radialGradient>
<linearGradient id="paint5_linear_10_29044" x1="0.224609" y1="0.522217" x2="0.224609" y2="24.9667" gradientUnits="userSpaceOnUse">
<stop stop-color="white"/>
<stop offset="1" stop-color="white" stop-opacity="0.01"/>
</linearGradient>
<linearGradient id="paint6_linear_10_29044" x1="12.4569" y1="3.73437" x2="12.4569" y2="21.9514" gradientUnits="userSpaceOnUse">
<stop stop-color="white"/>
<stop offset="1" stop-color="#999999"/>
</linearGradient>
<linearGradient id="paint7_linear_10_29044" x1="12.4341" y1="8.47412" x2="12.4341" y2="14.9344" gradientUnits="userSpaceOnUse">
<stop stop-color="#DFDFDF"/>
<stop offset="1" stop-color="#A9A9A9"/>
</linearGradient>
<linearGradient id="paint8_linear_10_29044" x1="12.4339" y1="16.4111" x2="12.4339" y2="20.4268" gradientUnits="userSpaceOnUse">
<stop stop-opacity="0"/>
<stop offset="1" stop-opacity="0.16"/>
</linearGradient>
<linearGradient id="paint9_linear_10_29044" x1="12.4339" y1="14.4033" x2="12.4339" y2="20.4268" gradientUnits="userSpaceOnUse">
<stop stop-color="white"/>
<stop offset="1" stop-color="white" stop-opacity="0"/>
</linearGradient>
<radialGradient id="paint10_radial_10_29044" cx="0" cy="0" r="1" gradientUnits="userSpaceOnUse" gradientTransform="translate(12.4339 16.4111) rotate(90) scale(4.01562 16.8683)">
<stop stop-color="white"/>
<stop offset="1" stop-color="white" stop-opacity="0"/>
</radialGradient>
<linearGradient id="paint11_linear_10_29044" x1="12.4325" y1="15.3635" x2="12.4325" y2="19.3794" gradientUnits="userSpaceOnUse">
<stop stop-opacity="0"/>
<stop offset="1" stop-opacity="0.16"/>
</linearGradient>
<linearGradient id="paint12_linear_10_29044" x1="12.4325" y1="15.3635" x2="12.4325" y2="19.3794" gradientUnits="userSpaceOnUse">
<stop stop-color="white"/>
<stop offset="1" stop-color="white" stop-opacity="0"/>
</linearGradient>
<radialGradient id="paint13_radial_10_29044" cx="0" cy="0" r="1" gradientUnits="userSpaceOnUse" gradientTransform="translate(12.4325 16.0643) rotate(90) scale(3.31509 7.68254)">
<stop stop-color="white"/>
<stop offset="1" stop-color="white" stop-opacity="0"/>
</radialGradient>
</defs>
</svg>
