<svg width="32" height="32" viewBox="0 0 12 12" fill="none" xmlns="http://www.w3.org/2000/svg"><path fill-rule="evenodd" clip-rule="evenodd" d="M10.5 1.5C10.2887 4.378 9.53866 6.46134 8.25 7.75C8.02146 7.97854 7.77122 8.18746 7.49929 8.37677L7.49928 9.49769L5.99928 10.9977L5.08394 9.39588L2.60605 6.91774L1 6L2.5 4.5L3.62687 4.50001C3.81447 4.22783 4.02218 3.97782 4.25 3.75C5.53866 2.46134 7.622 1.71134 10.5 1.5ZM4.19523 9.22753L4.90234 9.93463L3.84168 10.9953L3.13457 10.2882L4.19523 9.22753ZM3.13457 8.16687L3.84168 8.87397L2.07391 10.6417L1.36681 9.93463L3.13457 8.16687ZM2.07391 7.10621L2.78102 7.81331L1.72036 8.87397L1.01325 8.16687L2.07391 7.10621ZM6.75 4.5C6.33579 4.5 6 4.83579 6 5.25C6 5.66421 6.33579 6 6.75 6C7.16421 6 7.5 5.66421 7.5 5.25C7.5 4.83579 7.16421 4.5 6.75 4.5Z" fill="#FD2945"></path></svg>