<svg width="18" height="34" viewBox="0 0 18 34" fill="none" xmlns="http://www.w3.org/2000/svg">
<g clip-path="url(#clip0_31_167762)">
<path d="M0.931405 15.3505C0.931405 15.3505 0.737672 15.4325 0.66316 15.194C0.774928 15.0078 0.156476 13.3387 6.07276 12.2135C12.4212 11.3045 15.5656 12.6159 15.4688 12.5414C12.7333 11.5613 9.80585 11.2372 6.9222 11.5951C1.94477 12.2359 0.9016 13.2195 0.216086 14.5756C0.216086 14.5756 0.00745124 12.6606 0 12.3402C0.0447074 12.1837 1.22945 9.61305 7.8238 8.80832C5.38072 8.76596 2.9739 9.40314 0.871795 10.6488C0.871795 10.6488 0.715319 10.0452 1.73614 9.3001C3.91484 7.98376 6.40377 7.26896 8.94894 7.22866C10.8629 7.15436 12.7743 7.42959 14.5895 8.04084C16.2586 8.62949 17.2571 9.45657 17.1826 10.157C17.1732 10.3692 17.1278 10.5784 17.0484 10.7754C17.0484 10.7754 18.0543 11.0511 17.8979 12.4669C17.7414 13.8826 17.8457 15.2983 17.1528 15.2462C17.0559 15.3281 16.2437 13.8379 8.95639 13.7559C1.71378 14.0018 1.02827 15.4399 0.931405 15.3505Z" fill="#8837E9"/>
<path d="M3.06991 23.4572C3.03702 23.4206 3.0022 23.3858 2.96559 23.3529C2.91454 23.3107 2.85966 23.2732 2.80166 23.2412C2.75884 23.2159 2.70982 23.203 2.66009 23.2039C2.63978 23.2033 2.61987 23.2096 2.60361 23.2217C2.58736 23.2339 2.57574 23.2513 2.57068 23.271C2.52014 23.4118 2.48029 23.5563 2.45145 23.7031C2.45145 23.7702 2.45145 23.8298 2.4142 23.8969C2.31733 23.2412 2.22047 22.5705 2.13105 21.9074C1.81065 19.6124 1.53495 17.31 1.30396 15.1193C1.30396 14.8958 1.25926 14.6797 1.24435 14.4636L1.94477 14.3071C1.94477 14.4711 1.94477 14.635 1.99693 14.7915C2.04909 14.9479 1.99693 15.0746 2.03419 15.2162L2.10125 15.8421C2.31733 17.8167 2.57067 19.8657 2.84637 21.8925L3.06991 23.4572Z" fill="#8837E9"/>
<path d="M3.42011 25.7744L3.36795 25.9309C3.34736 25.9946 3.31721 26.0549 3.27854 26.1097C3.25448 26.149 3.2243 26.1842 3.18912 26.214C3.17191 26.2231 3.15272 26.2279 3.13324 26.2279C3.11375 26.2279 3.09456 26.2231 3.07735 26.214C3.04217 26.1926 3.01156 26.1645 2.98726 26.1312C2.96297 26.098 2.94547 26.0603 2.93578 26.0203C2.90489 25.8984 2.8874 25.7734 2.88362 25.6477C2.8729 25.4865 2.8729 25.3246 2.88362 25.1634C2.88362 24.9846 2.92088 24.8132 2.95068 24.6418C2.98049 24.4704 3.02519 24.3139 3.0699 24.1575C3.11461 24.001 3.10716 24.0234 3.12951 23.9712C3.23383 24.5822 3.33069 25.1783 3.42011 25.7744Z" fill="#8837E9"/>
<path d="M14.4107 26.5867V26.6314C14.4071 26.6017 14.4071 26.5717 14.4107 26.542L14.4852 26.4824L14.4107 26.5867Z" fill="#8837E9"/>
<path d="M15.0887 26.6016C14.9472 27.4808 14.8056 28.3377 14.664 29.1797C14.3734 30.8264 14.0754 32.3838 13.7699 33.8069C10.5003 34.2094 7.18293 33.9354 4.02366 33.0022C3.71816 31.6163 3.42011 30.1037 3.13696 28.5315C3.01774 27.831 2.89107 27.1083 2.77185 26.3706C2.84568 26.4377 2.94046 26.4772 3.0401 26.4824C3.08867 26.489 3.13811 26.4844 3.18461 26.4689C3.23112 26.4533 3.27345 26.4274 3.30834 26.393C3.36304 26.3359 3.40831 26.2705 3.44246 26.1992C3.58404 27.0859 3.72561 27.9503 3.87463 28.7848L4.00876 29.5299C4.19504 30.5731 4.38877 31.5716 4.5825 32.5104C7.35156 33.4166 10.2969 33.649 13.1738 33.1885C13.3601 32.2794 13.5463 31.3182 13.7252 30.3123C13.7848 30.0068 13.8369 29.6939 13.8891 29.3809C14.0033 28.7252 14.1151 28.0546 14.2244 27.3691L14.366 27.2126L14.664 26.8326C14.8137 26.7715 14.9562 26.6941 15.0887 26.6016Z" fill="#8837E9"/>
<path d="M15.2005 26.0278L15.1558 26.3184C15.0879 26.3716 15.0156 26.4189 14.9397 26.46L15.0813 26.2365L15.2005 26.0278Z" fill="#8837E9"/>
<path d="M15.3272 25.1782V25.4018C15.2825 25.3662 15.2278 25.3453 15.1707 25.3422C15.1185 25.3422 15.0738 25.3794 15.044 25.4539L14.9919 25.5582C14.9919 25.6104 14.9323 25.6775 14.8876 25.752L14.746 25.983C14.6864 26.0575 14.6342 26.132 14.5746 26.199L14.4926 26.2885L14.6044 25.5433C14.6622 25.4832 14.7272 25.4307 14.7981 25.3869C14.9137 25.2998 15.0454 25.2365 15.1856 25.2006C15.2316 25.1871 15.2792 25.1796 15.3272 25.1782Z" fill="#8837E9"/>
<path d="M16.6535 14.2999L16.5865 14.9332C16.3629 17.3176 16.0723 19.7989 15.7445 22.2578C15.6253 23.1445 15.4986 24.0237 15.3719 24.8881C15.2951 24.8808 15.2177 24.8808 15.1409 24.8881C14.969 24.8942 14.7998 24.9321 14.6417 24.9999C14.7833 24.0834 14.9099 23.1445 15.0366 22.2056C15.3272 20.0224 15.5955 17.8094 15.7817 15.656C15.819 15.3207 15.8488 14.9928 15.8786 14.665C15.8786 14.5011 15.8786 14.3371 15.9308 14.1807L16.6535 14.2999Z" fill="#8837E9"/>
<path d="M1.63184 15.3057C1.90008 15.2386 2.17578 15.1865 2.46637 15.1417C2.75697 15.097 3.04757 15.0449 3.35307 15.0076C3.98339 14.9313 4.61927 14.9113 5.25314 14.948C4.62606 15.036 4.00778 15.1781 3.40523 15.3727C3.11463 15.4621 2.83894 15.559 2.57069 15.6633C2.30245 15.7676 2.0342 15.8645 1.82557 15.9688C1.73615 15.7453 1.68399 15.5292 1.63184 15.3057Z" fill="#8837E9"/>
<path d="M16.1543 15.7677C15.6923 15.6038 15.1782 15.4399 14.664 15.2908C14.1499 15.1418 13.5538 14.9928 12.9652 14.8736C12.3765 14.7543 11.7655 14.6351 11.1396 14.5532C10.5045 14.4706 9.86505 14.4259 9.22464 14.419C9.86414 14.3287 10.5087 14.2789 11.1545 14.27C11.7879 14.27 12.4138 14.27 13.0248 14.3147C13.6358 14.3594 14.217 14.4116 14.7758 14.4861C15.3347 14.5606 15.8637 14.6426 16.3629 14.7469C16.281 15.0822 16.2214 15.425 16.1543 15.7677Z" fill="#8837E9"/>
<path d="M14.1574 30.171L13.986 30.2306L13.8295 30.2753L13.5315 30.3498C13.3278 30.3945 13.1266 30.4318 12.9279 30.4616C12.5304 30.5209 12.1299 30.5583 11.7283 30.5733C11.3259 30.5733 10.931 30.5733 10.5286 30.5733L9.92505 30.5286L9.3215 30.4616L9.92505 30.4243L10.5212 30.3572C10.9235 30.3051 11.3184 30.2306 11.7059 30.1412C12.0996 30.0521 12.4877 29.9401 12.8683 29.8059C13.062 29.7388 13.2483 29.6717 13.4346 29.5898L13.7028 29.4705L13.837 29.4035C13.8761 29.3844 13.9135 29.362 13.9487 29.3364C14.0158 29.6494 14.0903 29.8953 14.1574 30.171Z" fill="#8837E9"/>
<path d="M3.72562 28.6509C3.93426 28.785 4.1578 28.9117 4.38133 29.0309C4.60487 29.1501 4.82096 29.2768 5.04449 29.3885C5.48718 29.6145 5.94534 29.8087 6.41552 29.9697C5.94421 29.9336 5.47607 29.8639 5.01469 29.7611L4.31427 29.5897L3.62131 29.3811C3.65856 29.1352 3.65856 28.9042 3.72562 28.6509Z" fill="#8837E9"/>
<path d="M13.2632 4.92575C13.2632 5.47714 13.3079 6.04344 13.3228 6.62463C13.3247 6.64934 13.3207 6.67413 13.3112 6.697C13.3016 6.71986 13.2868 6.74014 13.2679 6.75615C13.249 6.77215 13.2265 6.78344 13.2024 6.78907C13.1782 6.79471 13.1531 6.79453 13.1291 6.78856C12.533 6.72895 11.9294 6.68423 11.311 6.66188C10.9086 7.01954 10.5062 7.40701 10.0964 7.76467L9.85053 7.54113C10.2603 7.15367 10.6627 6.796 11.0651 6.43089C11.0651 5.8795 11.0651 5.33557 11.0278 4.80653L10.4019 4.26258C9.52268 4.26258 8.62853 4.30729 7.74928 4.3818C7.72608 4.38727 7.70197 4.38761 7.67863 4.3828C7.65528 4.378 7.63327 4.36816 7.61411 4.35397C7.59496 4.33978 7.57913 4.32159 7.56773 4.30066C7.55633 4.27973 7.54963 4.25656 7.5481 4.23278C7.5481 3.48766 7.5481 2.77979 7.58536 2.11663L7.23515 1.87074L6.13982 2.01976C6.02805 2.01976 5.94608 2.01976 5.95353 1.90054L5.99824 1.0511C5.99824 0.976585 6.08766 0.902072 6.19942 0.887169C6.56454 0.835011 6.94455 0.782862 7.30221 0.745605C7.40653 0.745605 7.49594 0.745601 7.48849 0.857369V1.66955L7.84615 1.908C8.68814 1.82603 9.53013 1.78132 10.3721 1.76642C10.3986 1.7622 10.4256 1.76331 10.4516 1.76968C10.4777 1.77606 10.5021 1.78756 10.5237 1.80352C10.5452 1.81948 10.5633 1.83959 10.5769 1.86264C10.5906 1.8857 10.5995 1.91125 10.6031 1.9378C10.6031 2.60841 10.6404 3.31628 10.6627 4.0614L11.2812 4.60534C11.8922 4.60534 12.4957 4.66495 13.0844 4.72456C13.1315 4.7352 13.174 4.76032 13.2061 4.79641C13.2382 4.83249 13.2582 4.87773 13.2632 4.92575Z" fill="#8837E9"/>
<path d="M7.07867 4.76961C6.63905 4.82177 6.19943 4.88138 5.76725 4.94844C5.71594 4.95742 5.66881 4.98246 5.63266 5.01996C5.5965 5.05745 5.57318 5.10547 5.56607 5.15708C5.56607 5.53709 5.56607 5.90219 5.56607 6.30456C5.56654 6.32899 5.57246 6.35301 5.58341 6.37485C5.59435 6.39669 5.61004 6.41581 5.62933 6.43081C5.64861 6.44581 5.671 6.4563 5.69487 6.46153C5.71873 6.46676 5.74346 6.4666 5.76725 6.46104C6.19943 6.39398 6.63905 6.33436 7.08612 6.28966C7.13864 6.28497 7.18797 6.26246 7.22592 6.22586C7.26387 6.18926 7.28816 6.14079 7.29476 6.08848C7.29476 5.69356 7.29476 5.34336 7.29476 4.92609C7.27986 4.82922 7.19044 4.76216 7.07867 4.76961Z" fill="#8837E9"/>
<path d="M8.24851 0.589358H8.71048C8.8148 0.589358 8.90422 0.514848 8.90422 0.440336V0.11248C8.90422 0.0454184 8.8148 -0.00674138 8.71048 0.000709858H8.25596C8.15164 0.000709858 8.06223 0.0752257 8.06223 0.149738C8.06223 0.22425 8.06223 0.365819 8.06223 0.470136C8.06223 0.574453 8.12929 0.626615 8.24851 0.589358Z" fill="#8837E9"/>
<path d="M13.0024 2.7724H12.6C12.5771 2.76795 12.5535 2.76869 12.531 2.77453C12.5084 2.78038 12.4874 2.7912 12.4696 2.8062C12.4517 2.8212 12.4374 2.83999 12.4278 2.86122C12.4181 2.88244 12.4133 2.90556 12.4138 2.92888C12.4138 3.04065 12.4138 3.15987 12.4138 3.27164C12.4206 3.32117 12.4443 3.3668 12.481 3.40077C12.5177 3.43473 12.565 3.45494 12.6149 3.45792L13.0173 3.49517C13.1291 3.49517 13.211 3.43556 13.2036 3.3387C13.1961 3.24183 13.2036 3.10771 13.2036 2.98849C13.202 2.93417 13.1808 2.88227 13.1437 2.8425C13.1067 2.80273 13.0565 2.77781 13.0024 2.7724Z" fill="#8837E9"/>
<path d="M14.2989 3.77083C14.0655 3.73109 13.8345 3.70128 13.606 3.68141C13.5839 3.6753 13.5607 3.67463 13.5383 3.67945C13.516 3.68426 13.4951 3.69444 13.4775 3.70909C13.4599 3.72374 13.4462 3.74243 13.4374 3.76357C13.4286 3.78471 13.4251 3.80765 13.4271 3.83045C13.4271 4.03908 13.4271 4.25516 13.4271 4.46379C13.429 4.51656 13.4508 4.56667 13.4881 4.60401C13.5254 4.64134 13.5756 4.66313 13.6283 4.66498L14.3138 4.76185C14.3359 4.76796 14.3591 4.76864 14.3815 4.76382C14.4038 4.759 14.4247 4.74883 14.4423 4.73418C14.4599 4.71953 14.4736 4.70083 14.4824 4.67969C14.4912 4.65856 14.4947 4.63561 14.4927 4.61282C14.4927 4.39673 14.4927 4.18064 14.4927 3.97201C14.488 3.92146 14.4663 3.874 14.4311 3.83744C14.3959 3.80087 14.3493 3.77739 14.2989 3.77083Z" fill="#8837E9"/>
<path d="M5.30528 4.62057C5.30528 4.35232 5.30528 4.08407 5.34254 3.82328C5.34254 3.73386 5.26058 3.67425 5.14881 3.69661L4.23231 3.88289C4.18271 3.89556 4.13762 3.92179 4.10209 3.95863C4.06655 3.99548 4.04198 4.0415 4.03112 4.09152C4.03112 4.35232 4.03112 4.62057 3.99387 4.88881C3.99387 4.98568 4.07583 5.03783 4.18015 5.01548L5.1041 4.8292C5.1559 4.82135 5.20367 4.79667 5.24003 4.75896C5.27639 4.72125 5.29933 4.67261 5.30528 4.62057Z" fill="#8837E9"/>
<path d="M16.7504 22.779C16.4821 24.6791 16.1766 26.594 15.8413 28.4345C15.8222 28.5372 15.7783 28.6336 15.7133 28.7154C15.6484 28.7973 15.5644 28.862 15.4688 28.9039C15.2825 28.971 15.0217 29.0679 14.6864 29.1647L13.9413 29.3584C12.3154 29.7659 10.6372 29.9241 8.96385 29.8279C7.27215 29.7041 5.60516 29.3506 4.00878 28.7773L3.80759 28.7027C3.60641 28.6357 3.42013 28.5612 3.24875 28.4941C2.88364 28.3525 2.59304 28.2259 2.39186 28.129C2.2972 28.0817 2.2145 28.0135 2.14998 27.9296C2.08545 27.8457 2.04077 27.7483 2.0193 27.6447C1.69144 25.9011 1.40084 24.0979 1.1326 22.317C1.1326 22.1084 1.19966 21.9445 1.37104 21.937H2.22048H2.9656C4.26212 21.937 6.2814 21.937 9.03836 21.9817C11.7953 22.0264 13.8668 22.1456 15.1484 22.2425L15.8935 22.3021C16.2512 22.3021 16.5045 22.3692 16.6386 22.399C16.7727 22.4288 16.7876 22.5555 16.7504 22.779Z" fill="#8837E9"/>
</g>
<defs>
<clipPath id="clip0_31_167762">
<rect width="17.9144" height="33.987" fill="white"/>
</clipPath>
</defs>
</svg>
