<svg width="118" height="44" viewBox="0 0 118 44" fill="none" xmlns="http://www.w3.org/2000/svg">
<g clip-path="url(#clip0_2078_200075)">
<path d="M1.25597 19.8853C1.25597 19.8853 1.00478 19.9914 0.908172 19.6829C1.05309 19.4418 0.251221 17.2818 7.92209 15.8257C16.1533 14.6493 20.2303 16.3464 20.1047 16.25C16.5579 14.9817 12.7623 14.5622 9.02345 15.0254C2.56987 15.8547 1.21733 17.1275 0.32851 18.8825C0.32851 18.8825 0.0580009 16.4043 0.0483398 15.9897C0.106306 15.7872 1.64241 12.4604 10.1924 11.419C7.02481 11.3642 3.9042 12.1888 1.17868 13.8008C1.17868 13.8008 0.9758 13.0197 2.29936 12.0554C5.1242 10.3519 8.35126 9.42688 11.6513 9.37472C14.1328 9.27858 16.6111 9.63475 18.9647 10.4258C21.1287 11.1876 22.4233 12.2579 22.3267 13.1643C22.3145 13.439 22.2557 13.7096 22.1528 13.9647C22.1528 13.9647 23.457 14.3215 23.2542 16.1536C23.0513 17.9857 23.1865 19.8178 22.2881 19.7503C22.1625 19.8564 21.1094 17.9279 11.6609 17.8218C2.27038 18.14 1.38156 20.0011 1.25597 19.8853Z" fill="white"/>
<path d="M4.02858 30.3765C3.98594 30.3291 3.94079 30.284 3.89332 30.2415C3.82714 30.1868 3.75598 30.1383 3.68078 30.0968C3.62525 30.0641 3.5617 30.0474 3.49722 30.0486C3.47089 30.0478 3.44507 30.0559 3.42399 30.0717C3.40292 30.0875 3.38786 30.11 3.38129 30.1354C3.31577 30.3177 3.26409 30.5047 3.22671 30.6947C3.22671 30.7815 3.22671 30.8586 3.1784 30.9454C3.05281 30.0968 2.92722 29.229 2.81129 28.3708C2.39586 25.4008 2.0384 22.4212 1.73891 19.5862C1.73891 19.2969 1.68094 19.0173 1.66162 18.7376L2.56976 18.5352C2.56976 18.7473 2.56976 18.9594 2.63739 19.1619C2.70501 19.3644 2.63739 19.5284 2.68569 19.7116L2.77264 20.5216C3.05281 23.0769 3.38129 25.7287 3.73874 28.3515L4.02858 30.3765Z" fill="white"/>
<path d="M4.48288 33.3765L4.41525 33.579C4.38854 33.6616 4.34946 33.7396 4.29932 33.8104C4.26813 33.8613 4.22899 33.9069 4.18338 33.9454C4.16107 33.9573 4.13619 33.9634 4.11093 33.9634C4.08566 33.9634 4.06078 33.9573 4.03847 33.9454C3.99285 33.9178 3.95316 33.8814 3.92166 33.8383C3.89016 33.7953 3.86748 33.7465 3.85491 33.6947C3.81486 33.537 3.79218 33.3753 3.78728 33.2126C3.77338 33.0039 3.77338 32.7945 3.78728 32.5858C3.78728 32.3544 3.83559 32.1326 3.87423 31.9108C3.91287 31.689 3.97084 31.4865 4.02881 31.284C4.08677 31.0815 4.07711 31.1105 4.1061 31.043C4.24135 31.8337 4.36694 32.6051 4.48288 33.3765Z" fill="white"/>
<path d="M18.733 34.4241V34.4819C18.7283 34.4435 18.7283 34.4046 18.733 34.3662L18.8292 34.2891L18.733 34.4241Z" fill="white"/>
<path d="M19.6118 34.4465C19.4282 35.5843 19.2447 36.6933 19.0611 37.7829C18.6843 39.9139 18.2979 41.9293 17.9018 43.7711C13.6626 44.2918 9.36136 43.9374 5.26515 42.7296C4.86904 40.9361 4.4826 38.9786 4.11548 36.944C3.9609 36.0376 3.79667 35.1022 3.64209 34.1476C3.73782 34.2344 3.8607 34.2855 3.98989 34.2922C4.05287 34.3008 4.11697 34.2948 4.17727 34.2747C4.23756 34.2547 4.29245 34.2211 4.33769 34.1765C4.40861 34.1027 4.46731 34.018 4.51158 33.9258C4.69514 35.0733 4.8787 36.1918 5.07193 37.2718L5.24582 38.2361C5.48735 39.5861 5.73854 40.8782 5.98972 42.0932C9.58 43.2659 13.3988 43.5667 17.1289 42.9707C17.3704 41.7943 17.612 40.5504 17.8438 39.2486C17.9211 38.8532 17.9887 38.4482 18.0564 38.0433C18.2045 37.1947 18.3494 36.3268 18.4911 35.4397L18.6747 35.2372L19.0611 34.7454C19.2552 34.6664 19.4399 34.5662 19.6118 34.4465Z" fill="white"/>
<path d="M19.7571 33.7031L19.6991 34.0792C19.611 34.1479 19.5173 34.2092 19.4189 34.2624L19.6025 33.9731L19.7571 33.7031Z" fill="white"/>
<path d="M19.9209 32.6016V32.8908C19.8629 32.8448 19.792 32.8178 19.718 32.8137C19.6504 32.8137 19.5924 32.8619 19.5538 32.9583L19.4862 33.0933C19.4862 33.1608 19.4089 33.2476 19.3509 33.3441L19.1673 33.643C19.0901 33.7394 19.0224 33.8358 18.9451 33.9226L18.8389 34.0383L18.9838 33.0741C19.0586 32.9963 19.143 32.9282 19.235 32.8716C19.3848 32.7589 19.5556 32.6769 19.7373 32.6305C19.797 32.613 19.8587 32.6033 19.9209 32.6016Z" fill="white"/>
<path d="M21.6407 18.5254L21.5538 19.345C21.2639 22.4307 20.8871 25.6417 20.4621 28.8239C20.3075 29.9714 20.1432 31.1092 19.979 32.2278C19.8794 32.2183 19.7791 32.2183 19.6795 32.2278C19.4567 32.2357 19.2372 32.2847 19.0322 32.3724C19.2158 31.1863 19.38 29.9713 19.5443 28.7564C19.921 25.931 20.2688 23.0671 20.5104 20.2804C20.5587 19.8464 20.5973 19.4222 20.636 18.9979C20.636 18.7857 20.636 18.5736 20.7036 18.3711L21.6407 18.5254Z" fill="white"/>
<path d="M2.16406 19.8258C2.51186 19.739 2.86932 19.6715 3.2461 19.6136C3.62288 19.5558 3.99966 19.4883 4.39576 19.4401C5.21302 19.3413 6.03748 19.3154 6.85933 19.3629C6.04628 19.4768 5.24464 19.6607 4.46339 19.9126C4.08661 20.0283 3.72915 20.1536 3.38135 20.2886C3.03356 20.4236 2.68576 20.549 2.41525 20.684C2.29932 20.3947 2.23169 20.1151 2.16406 19.8258Z" fill="white"/>
<path d="M20.9936 20.4265C20.3946 20.2143 19.728 20.0022 19.0614 19.8093C18.3947 19.6165 17.6219 19.4236 16.8586 19.2693C16.0954 19.1151 15.3032 18.9608 14.4917 18.8547C13.6682 18.7479 12.8391 18.69 12.0088 18.6811C12.8379 18.5642 13.6737 18.4998 14.511 18.4883C15.3322 18.4883 16.1437 18.4883 16.9359 18.5461C17.7281 18.604 18.4817 18.6715 19.2063 18.7679C19.9308 18.8643 20.6168 18.9704 21.2641 19.1054C21.1578 19.5393 21.0805 19.9829 20.9936 20.4265Z" fill="white"/>
<path d="M18.4043 39.0644L18.1821 39.1415L17.9792 39.1994L17.5928 39.2958C17.3287 39.3537 17.0679 39.4019 16.8102 39.4404C16.2948 39.5173 15.7755 39.5656 15.2548 39.5851C14.7331 39.5851 14.2211 39.5851 13.6994 39.5851L12.9168 39.5272L12.1343 39.4404L12.9168 39.3922L13.6897 39.3054C14.2114 39.2379 14.7234 39.1415 15.2258 39.0258C15.7362 38.9105 16.2394 38.7657 16.7329 38.5919C16.9841 38.5051 17.2256 38.4183 17.4672 38.3122L17.815 38.1579L17.9889 38.0712C18.0396 38.0465 18.0881 38.0175 18.1338 37.9844C18.2207 38.3894 18.3173 38.7076 18.4043 39.0644Z" fill="white"/>
<path d="M4.87891 37.0977C5.14942 37.2712 5.43925 37.4351 5.72908 37.5894C6.01891 37.7437 6.29908 37.9076 6.58891 38.0523C7.16289 38.3446 7.75692 38.596 8.36654 38.8044C7.75545 38.7577 7.14848 38.6674 6.55027 38.5344L5.64213 38.3126L4.74365 38.0426C4.79196 37.7244 4.79196 37.4255 4.87891 37.0977Z" fill="white"/>
<path d="M17.2452 6.39397C17.2452 7.10754 17.3031 7.84039 17.3225 8.59253C17.3249 8.6245 17.3198 8.65659 17.3074 8.68618C17.295 8.71577 17.2758 8.74201 17.2512 8.76272C17.2267 8.78343 17.1976 8.79804 17.1663 8.80533C17.135 8.81262 17.1025 8.8124 17.0713 8.80467C16.2984 8.72753 15.5159 8.66966 14.714 8.64073C14.1923 9.10358 13.6706 9.60502 13.1392 10.0679L12.8204 9.77858C13.3518 9.27716 13.8735 8.8143 14.3952 8.3418C14.3952 7.62824 14.3952 6.92432 14.3469 6.23969L13.5353 5.53575C12.3953 5.53575 11.236 5.59361 10.096 5.69004C10.0659 5.69711 10.0347 5.69756 10.0044 5.69134C9.97413 5.68511 9.94559 5.67238 9.92076 5.65402C9.89592 5.63566 9.8754 5.61212 9.86062 5.58503C9.84583 5.55794 9.83715 5.52797 9.83516 5.49719C9.83516 4.53291 9.83516 3.61685 9.88347 2.75864L9.4294 2.44043L8.00923 2.63328C7.86431 2.63328 7.75804 2.63328 7.7677 2.47899L7.82567 1.37972C7.82567 1.28329 7.9416 1.18686 8.08651 1.16758C8.5599 1.10008 9.05262 1.03259 9.51635 0.984375C9.6516 0.984375 9.76753 0.984369 9.75787 1.12901V2.18007L10.2216 2.48865C11.3133 2.38258 12.405 2.32472 13.4967 2.30543C13.531 2.29997 13.5661 2.30141 13.5998 2.30965C13.6335 2.3179 13.6653 2.33278 13.6932 2.35344C13.7211 2.3741 13.7446 2.40011 13.7622 2.42995C13.7799 2.45979 13.7915 2.49286 13.7962 2.52721C13.7962 3.39506 13.8445 4.31113 13.8735 5.27541L14.6753 5.97933C15.4676 5.97933 16.2501 6.05647 17.0133 6.13362C17.0744 6.14738 17.1296 6.17989 17.1712 6.22659C17.2128 6.27329 17.2386 6.33183 17.2452 6.39397Z" fill="white"/>
<path d="M9.22633 6.19214C8.65633 6.25964 8.08633 6.33678 7.52599 6.42357C7.45946 6.43519 7.39835 6.46759 7.35147 6.51612C7.30459 6.56464 7.27436 6.62679 7.26514 6.69357C7.26514 7.18535 7.26514 7.65784 7.26514 8.17855C7.26575 8.21016 7.27343 8.24124 7.28762 8.26951C7.30181 8.29777 7.32215 8.32252 7.34715 8.34193C7.37216 8.36134 7.40119 8.37491 7.43213 8.38168C7.46307 8.38845 7.49514 8.38824 7.52599 8.38105C8.08633 8.29427 8.65633 8.21711 9.23599 8.15926C9.30408 8.15319 9.36804 8.12406 9.41725 8.0767C9.46646 8.02934 9.49795 7.96661 9.5065 7.89891C9.5065 7.38785 9.5065 6.93464 9.5065 6.39464C9.48718 6.26929 9.37124 6.18249 9.22633 6.19214Z" fill="white"/>
<path d="M10.743 0.78223H11.342C11.4772 0.78223 11.5932 0.685805 11.5932 0.589378V0.165093C11.5932 0.078308 11.4772 0.0108071 11.342 0.0204499H10.7527C10.6174 0.0204499 10.5015 0.116882 10.5015 0.21331C10.5015 0.309738 10.5015 0.492943 10.5015 0.627942C10.5015 0.762941 10.5884 0.830444 10.743 0.78223Z" fill="white"/>
<path d="M16.9068 3.60918H16.3851C16.3554 3.60342 16.3248 3.60438 16.2956 3.61194C16.2663 3.61951 16.2391 3.63351 16.2159 3.65292C16.1928 3.67233 16.1743 3.69665 16.1618 3.72412C16.1492 3.75159 16.143 3.78151 16.1436 3.81168C16.1436 3.95632 16.1436 4.11062 16.1436 4.25526C16.1524 4.31935 16.1832 4.3784 16.2308 4.42236C16.2784 4.46632 16.3397 4.49247 16.4044 4.49633L16.9261 4.54453C17.071 4.54453 17.1773 4.46739 17.1677 4.34204C17.158 4.21668 17.1677 4.04311 17.1677 3.88883C17.1657 3.81853 17.1381 3.75137 17.0901 3.6999C17.0421 3.64844 16.9769 3.61618 16.9068 3.60918Z" fill="white"/>
<path d="M18.5881 4.89972C18.2854 4.84829 17.9859 4.80971 17.6896 4.784C17.661 4.77609 17.6309 4.77522 17.6019 4.78145C17.5729 4.78769 17.5459 4.80085 17.5231 4.81981C17.5003 4.83877 17.4824 4.86297 17.4711 4.89032C17.4597 4.91767 17.4551 4.94737 17.4578 4.97687C17.4578 5.24686 17.4578 5.5265 17.4578 5.79649C17.4602 5.86478 17.4884 5.92963 17.5368 5.97794C17.5852 6.02626 17.6502 6.05445 17.7186 6.05685L18.6074 6.18221C18.636 6.19012 18.6661 6.191 18.6951 6.18476C18.7241 6.17852 18.7512 6.16536 18.774 6.1464C18.7968 6.12744 18.8146 6.10324 18.826 6.07589C18.8374 6.04854 18.8419 6.01884 18.8393 5.98935C18.8393 5.70971 18.8393 5.43006 18.8393 5.16007C18.8333 5.09465 18.8051 5.03323 18.7594 4.98592C18.7138 4.9386 18.6534 4.9082 18.5881 4.89972Z" fill="white"/>
<path d="M6.9269 5.99869C6.9269 5.65155 6.92691 5.3044 6.97521 4.9669C6.97521 4.85119 6.86894 4.77405 6.72402 4.80298L5.53572 5.04405C5.47141 5.06044 5.41295 5.09438 5.36688 5.14207C5.32081 5.18975 5.28895 5.2493 5.27487 5.31404C5.27487 5.65154 5.27487 5.99869 5.22656 6.34583C5.22656 6.47118 5.33283 6.53868 5.46809 6.50975L6.66606 6.26868C6.73321 6.25853 6.79515 6.22658 6.8423 6.17778C6.88945 6.12898 6.91918 6.06604 6.9269 5.99869Z" fill="white"/>
<path d="M21.7661 29.4998C21.4183 31.9587 21.0222 34.4369 20.5875 36.8187C20.5627 36.9515 20.5057 37.0764 20.4215 37.1823C20.3373 37.2881 20.2285 37.3719 20.1044 37.4262C19.8629 37.5129 19.5248 37.6383 19.09 37.7637L18.1239 38.0144C16.0159 38.5416 13.84 38.7464 11.6704 38.6219C9.47695 38.4617 7.31558 38.0043 5.24576 37.2622L4.98492 37.1658C4.72407 37.079 4.48254 36.9826 4.26034 36.8958C3.78695 36.7126 3.41017 36.5487 3.14932 36.4233C3.02659 36.3621 2.91937 36.2738 2.8357 36.1653C2.75204 36.0567 2.69411 35.9306 2.66627 35.7965C2.24118 33.5401 1.8644 31.2066 1.5166 28.9019C1.5166 28.6319 1.60355 28.4198 1.82576 28.4102H2.92711H3.89322C5.57424 28.4102 8.19238 28.4102 11.767 28.468C15.3416 28.5259 18.0273 28.6802 19.689 28.8055L20.6551 28.8827C21.1189 28.8827 21.4473 28.9694 21.6212 29.008C21.7951 29.0466 21.8144 29.2105 21.7661 29.4998Z" fill="white"/>
<path d="M32.2835 27.3633L31.984 27.2187C30.3803 26.4858 29.5687 25.6951 29.5687 24.8659C29.5564 24.6327 29.5969 24.3998 29.6872 24.1844C29.7775 23.969 29.9153 23.7768 30.0904 23.6219C30.4969 23.2885 31.0142 23.1198 31.5396 23.1494C31.9396 23.1453 32.3333 23.2486 32.6796 23.4484C33.074 23.6884 33.4052 24.019 33.6457 24.4126L33.7133 24.5091L35.6938 23.5062V23.4002C35.4161 22.6105 34.8597 21.949 34.1287 21.5391C33.2725 21.0891 32.3135 20.8697 31.3464 20.9027C30.1493 20.8519 28.978 21.2589 28.0713 22.0405C27.6559 22.419 27.3283 22.8835 27.1113 23.4015C26.8944 23.9194 26.7934 24.4784 26.8153 25.0394C26.7925 25.9166 27.0875 26.7726 27.6462 27.4501C28.5942 28.376 29.7086 29.1153 30.9309 29.6294C31.0372 29.6294 31.1821 29.7451 31.385 29.8415C32.7665 30.4972 33.4621 31.2301 33.4621 32.0401C33.4759 32.3153 33.4304 32.5902 33.3287 32.8463C33.2271 33.1025 33.0716 33.3339 32.8728 33.5251C32.4335 33.9161 31.8568 34.1173 31.2691 34.0843C30.6394 34.1112 30.0174 33.9391 29.4914 33.5926C29.0136 33.2428 28.6722 32.7384 28.5253 32.1654V32.0208L26.3999 32.9851V33.0815C26.6063 34.0988 27.1849 35.0029 28.023 35.6175C28.9514 36.2403 30.0548 36.5511 31.1725 36.5047C32.5016 36.5698 33.8041 36.1169 34.805 35.2415C35.259 34.804 35.6144 34.275 35.8476 33.6898C36.0808 33.1045 36.1865 32.4764 36.1576 31.8472C36.1839 30.9503 35.8855 30.0739 35.317 29.3787C34.4547 28.5067 33.4222 27.8208 32.2835 27.3633Z" fill="white"/>
<path d="M41.8225 21.6172H39.1851V36.5153H41.8225V21.6172Z" fill="white"/>
<path d="M45.3525 22V24.2757H51.4873L44 36.9077H55.5836V34.526H48.1736L55.5836 22H45.3525Z" fill="white"/>
<path d="M58.0728 36.5249H66.5068V34.1432H60.7006V30.18H65.7726V27.8368H60.7006V23.8929H66.5068V21.6172H58.0728V36.5249Z" fill="white"/>
<path d="M78.2156 30.3154C78.2156 30.4022 78.1093 30.5372 78.032 30.7107C77.8001 31.2122 77.6166 31.6461 77.4813 32.0125C77.3364 31.6461 77.2108 31.3279 77.0949 31.0482C76.9789 30.7686 76.863 30.46 76.7954 30.3057L72.303 20.7305L68.7188 36.5061H71.1727L72.7667 29.1968C72.8528 28.8443 72.9173 28.4868 72.9599 28.1265C72.9599 28.0204 72.9599 27.9143 72.9599 27.8083C72.9599 27.9047 73.0372 28.0011 73.0662 28.0976C73.1918 28.4061 73.3271 28.734 73.4913 29.0618L77.4427 37.2582L81.394 29.2258C81.5571 28.8877 81.6991 28.5399 81.8191 28.1843C81.8191 28.0686 81.8964 27.9529 81.9254 27.8372C81.9254 27.9529 81.9254 28.0879 81.9254 28.2229C81.9834 28.7436 82.0317 29.0618 82.0607 29.1872L83.703 36.5157H86.1763L82.5051 20.7401L78.2156 30.3154Z" fill="white"/>
<path d="M97.7506 30.6741C97.829 31.7156 97.5117 32.7484 96.8617 33.5669C96.1178 34.1832 95.1814 34.5206 94.2146 34.5206C93.2478 34.5206 92.3114 34.1832 91.5675 33.5669C90.9176 32.7484 90.6002 31.7156 90.6787 30.6741V21.6484H88.0799V30.8959C88.0181 31.7162 88.1214 32.5406 88.3835 33.3206C88.6457 34.1006 89.0614 34.8203 89.6063 35.4376C90.9455 36.4184 92.5632 36.9472 94.2243 36.9472C95.8853 36.9472 97.503 36.4184 98.8423 35.4376C99.3909 34.8244 99.8098 34.1068 100.074 33.328C100.338 32.5492 100.441 31.7253 100.378 30.9055V21.6581H97.7506V30.6741Z" fill="white"/>
<path d="M117.758 29.3058C117.758 29.1322 117.758 28.9876 117.758 28.8911V28.7465H111.691V31.0029H115.217V31.0993C115.236 31.5737 115.145 32.046 114.951 32.4793C114.756 32.9126 114.464 33.2951 114.097 33.5968C113.183 34.2523 112.071 34.5756 110.947 34.5129C110.234 34.5451 109.521 34.4279 108.856 34.1688C108.19 33.9097 107.586 33.5145 107.083 33.0086C106.587 32.4817 106.201 31.8617 105.947 31.1847C105.694 30.5076 105.577 29.787 105.605 29.0647C105.582 28.356 105.701 27.6498 105.955 26.9875C106.208 26.3252 106.592 25.7201 107.083 25.2076C107.582 24.7139 108.178 24.3274 108.832 24.072C109.487 23.8166 110.187 23.6977 110.889 23.7226C111.59 23.7114 112.285 23.8495 112.928 24.1276C113.557 24.4216 114.114 24.8494 114.561 25.3812L114.638 25.468L116.57 24.0023L116.483 23.9058C115.807 23.089 114.959 22.4306 114 21.9773C113.005 21.5402 111.928 21.3231 110.841 21.3408C109.772 21.3336 108.711 21.5232 107.711 21.9001C106.755 22.2647 105.884 22.8194 105.15 23.5306C104.416 24.2417 103.834 25.0944 103.441 26.0369C103.051 27.029 102.855 28.086 102.861 29.1515C102.855 30.2129 103.048 31.2661 103.431 32.2565C103.793 33.2037 104.345 34.0668 105.054 34.7925C105.767 35.5111 106.627 36.0671 107.576 36.4222C108.623 36.7949 109.729 36.9778 110.841 36.9621C112.702 37.0741 114.533 36.4467 115.932 35.2168C116.558 34.5698 117.042 33.8004 117.354 32.9574C117.667 32.1143 117.801 31.2157 117.749 30.3183C117.826 30.1061 117.826 29.7879 117.758 29.3058Z" fill="white"/>
</g>
<defs>
<clipPath id="clip0_2078_200075">
<rect width="117.778" height="44" fill="white"/>
</clipPath>
</defs>
</svg>
