<svg width="40" height="40" viewBox="0 0 40 40" fill="none" xmlns="http://www.w3.org/2000/svg"><path d="M18.832 4.71484C19.5245 4.18588 20.4745 4.18598 21.167 4.71484L21.3115 4.83594L21.8457 5.33887C23.2482 6.67963 25.676 9.16114 27.8721 12.207C30.3592 15.6567 32.666 19.9896 32.666 24.2861C32.6658 30.8339 26.9134 35.9998 20 36C13.0864 36 7.33325 30.834 7.33301 24.2861C7.33301 19.9896 9.64078 15.6567 12.1279 12.207C14.6375 8.72638 17.4496 5.98233 18.6885 4.83594L18.832 4.71484Z" stroke="white" stroke-width="2"/><path d="M19.9997 30.0013C19.1242 30.0013 18.2573 29.8289 17.4485 29.4938C16.6396 29.1588 15.9047 28.6677 15.2856 28.0487C14.6666 27.4296 14.1755 26.6947 13.8405 25.8859C13.5054 25.077 13.333 24.2101 13.333 23.3346" stroke="white" stroke-width="2" stroke-linecap="round"/></svg>