<svg width="24" height="25" viewBox="0 0 24 25" fill="none" xmlns="http://www.w3.org/2000/svg">
<path d="M6.44784 8.93035C6.76219 6.10126 9.15349 3.96094 12 3.96094V3.96094C14.8465 3.96094 17.2378 6.10126 17.5522 8.93036L17.804 11.1966C17.8072 11.2255 17.8088 11.2399 17.8104 11.2542C17.9394 12.3779 18.3051 13.4615 18.8836 14.4334C18.8909 14.4458 18.8984 14.4583 18.9133 14.4832L19.4914 15.4466C20.0159 16.3208 20.2782 16.758 20.2216 17.1168C20.1839 17.3556 20.061 17.5726 19.8757 17.7278C19.5971 17.9609 19.0873 17.9609 18.0678 17.9609H5.93223C4.91268 17.9609 4.40291 17.9609 4.12434 17.7278C3.93897 17.5726 3.81609 17.3556 3.77841 17.1168C3.72179 16.758 3.98407 16.3208 4.50862 15.4466L5.08665 14.4832C5.10161 14.4583 5.10909 14.4458 5.11644 14.4334C5.69488 13.4615 6.06064 12.3779 6.18959 11.2542C6.19123 11.2399 6.19283 11.2255 6.19604 11.1966L6.44784 8.93035Z" stroke="#BABABA" stroke-width="2"/>
<path d="M8 17.9609C8 18.4862 8.10346 19.0064 8.30448 19.4917C8.5055 19.977 8.80014 20.4179 9.17157 20.7894C9.54301 21.1608 9.98396 21.4554 10.4693 21.6565C10.9546 21.8575 11.4747 21.9609 12 21.9609C12.5253 21.9609 13.0454 21.8575 13.5307 21.6565C14.016 21.4554 14.457 21.1608 14.8284 20.7894C15.1999 20.4179 15.4945 19.977 15.6955 19.4917C15.8965 19.0064 16 18.4862 16 17.9609" stroke="#BABABA" stroke-width="2" stroke-linecap="round"/>
</svg>
