<svg width="55" height="42" viewBox="0 0 55 42" fill="none" xmlns="http://www.w3.org/2000/svg">
<g clip-path="url(#clip0_8443_11895)">
<path d="M39.2435 28.3004C46.9299 21.018 47.2714 11.4895 40.0062 7.01787C32.7411 2.54621 20.6205 4.82473 12.9341 12.1071C5.24767 19.3894 4.90616 28.918 12.1713 33.3896C19.4364 37.8613 31.5571 35.5827 39.2435 28.3004Z" fill="#F1B31C"/>
<path d="M39.8279 7.01729C36.9434 5.30154 33.3072 4.49583 29.6681 4.76609C32.4755 4.89689 35.1626 5.68269 37.3662 7.01729C44.6314 11.4889 44.2898 21.0173 36.6034 28.2997C31.9131 32.7435 25.5729 35.3196 19.6909 35.6402C26.2079 36.0129 33.7113 33.3719 39.0649 28.2997C46.7515 21.0173 47.0931 11.4888 39.8279 7.01729Z" fill="#F1B31C"/>
<path d="M42.2801 7.6313C41.9026 7.3989 41.5028 7.1756 41.0902 6.96764C41.0628 6.95751 41.0345 6.94874 41.0056 6.94139C40.8741 6.89164 40.7271 6.87095 40.581 6.88166C40.4312 6.89349 40.2904 6.94163 40.179 7.01903C40.154 7.03115 40.1299 7.04444 40.107 7.05882C40.0926 7.07077 40.0882 7.08623 40.0752 7.09883C40.0622 7.11143 40.0436 7.11855 40.0317 7.13226C40.0187 7.15297 40.0074 7.17428 39.9979 7.19607C39.9318 7.2975 39.9048 7.41116 39.9199 7.52385C39.9264 7.56016 39.9375 7.59591 39.953 7.6306C39.9805 7.70361 40.03 7.77069 40.0975 7.82648C40.1137 7.84621 40.1316 7.86513 40.151 7.88312C46.4748 12.3376 45.8153 21.146 38.6501 27.9352C31.2388 34.9557 19.5758 37.1985 12.6518 32.9362C12.6072 32.9135 12.5595 32.8946 12.5096 32.8798C12.495 32.874 12.4818 32.8682 12.467 32.863C12.3941 32.8393 12.3168 32.8247 12.2378 32.8198C12.2172 32.8182 12.1977 32.816 12.1767 32.8158C12.0135 32.8124 11.854 32.8528 11.7256 32.9298C11.7 32.9399 11.6752 32.9512 11.6513 32.9636C11.6366 32.9738 11.6309 32.9878 11.6174 32.9986C11.6053 33.0086 11.5888 33.0132 11.5775 33.024C11.5642 33.0412 11.5521 33.0589 11.5413 33.0771C11.504 33.1177 11.4739 33.162 11.4519 33.2087C11.4445 33.2273 11.4383 33.2461 11.4335 33.2652C11.4155 33.3218 11.4089 33.3802 11.4141 33.4383C11.4154 33.4499 11.4183 33.4608 11.4205 33.4724C11.4313 33.5358 11.4561 33.5973 11.494 33.6544C11.5 33.6635 11.5076 33.6716 11.5143 33.6805C11.5367 33.7183 11.5647 33.7542 11.5976 33.7873C12.1357 34.2412 12.7196 34.6621 13.344 35.0463C16.263 36.8094 19.8903 37.748 23.6116 37.7032C30.1734 37.7032 37.278 35.0899 42.3485 30.2862C50.3263 22.7279 50.295 12.5645 42.2801 7.6313Z" fill="#F1B31C"/>
<path d="M40.6674 7.45312C41.055 7.64808 41.4324 7.85842 41.7996 8.08417C49.4996 12.8235 49.4788 22.5992 41.753 29.9188C34.0273 37.2384 21.5223 39.3302 13.8223 34.5908C13.2292 34.2259 12.6744 33.8261 12.1631 33.395" stroke="black" stroke-width="1.66667" stroke-miterlimit="10"/>
<path d="M39.2435 28.3004C46.9299 21.018 47.2714 11.4895 40.0062 7.01787C32.7411 2.54621 20.6205 4.82473 12.9341 12.1071C5.24767 19.3895 4.90616 28.918 12.1713 33.3896C19.4364 37.8613 31.5571 35.5827 39.2435 28.3004Z" stroke="black" stroke-width="1.66667" stroke-miterlimit="10"/>
<path d="M39.2434 28.2998L41.753 29.9186" stroke="black" stroke-width="1.66667" stroke-miterlimit="10"/>
<path d="M36.6021 30.4854L38.8148 32.3009" stroke="black" stroke-width="1.66667" stroke-miterlimit="10"/>
<path d="M33.8076 32.2607L35.624 34.1987" stroke="black" stroke-width="1.66667" stroke-miterlimit="10"/>
<path d="M30.7407 33.8223L32.1713 35.7732" stroke="black" stroke-width="1.66667" stroke-miterlimit="10"/>
<path d="M41.2771 26.1182L43.9422 27.5264" stroke="black" stroke-width="1.66667" stroke-miterlimit="10"/>
</g>
<defs>
<clipPath id="clip0_8443_11895">
<rect width="55" height="42" fill="white"/>
</clipPath>
</defs>
</svg>
