<svg width="24" height="25" viewBox="0 0 24 25" fill="none" xmlns="http://www.w3.org/2000/svg">
<path d="M12 2.96094C6.48 2.96094 2 7.44094 2 12.9609C2 18.4809 6.48 22.9609 12 22.9609C17.52 22.9609 22 18.4809 22 12.9609C22 7.44094 17.52 2.96094 12 2.96094ZM4 12.9609C4 8.54094 7.58 4.96094 12 4.96094C13.85 4.96094 15.55 5.59094 16.9 6.65094L5.69 17.8609C4.59163 16.4641 3.99623 14.7379 4 12.9609ZM12 20.9609C10.15 20.9609 8.45 20.3309 7.1 19.2709L18.31 8.06094C19.4084 9.45773 20.0038 11.184 20 12.9609C20 17.3809 16.42 20.9609 12 20.9609Z" fill="#FF3B30"/>
</svg>
