<svg width="10" height="10" viewBox="0 0 10 10" fill="none" xmlns="http://www.w3.org/2000/svg">
<path d="M3.75 2.5C3.75 2.66415 3.78233 2.8267 3.84515 2.97835C3.90797 3.13001 4.00004 3.26781 4.11612 3.38388C4.23219 3.49996 4.36999 3.59203 4.52165 3.65485C4.6733 3.71767 4.83585 3.75 5 3.75C5.16415 3.75 5.3267 3.71767 5.47835 3.65485C5.63001 3.59203 5.76781 3.49996 5.88388 3.38388C5.99996 3.26781 6.09203 3.13001 6.15485 2.97835C6.21767 2.8267 6.25 2.66415 6.25 2.5C6.25 2.33585 6.21767 2.1733 6.15485 2.02165C6.09203 1.86999 5.99996 1.73219 5.88388 1.61612C5.76781 1.50004 5.63001 1.40797 5.47835 1.34515C5.3267 1.28233 5.16415 1.25 5 1.25C4.83585 1.25 4.6733 1.28233 4.52165 1.34515C4.36999 1.40797 4.23219 1.50004 4.11612 1.61612C4.00004 1.73219 3.90797 1.86999 3.84515 2.02165C3.78233 2.1733 3.75 2.33585 3.75 2.5L3.75 2.5Z" stroke="#1C64F2"/>
<path d="M1.84716 5.79587C1.705 5.87795 1.58039 5.98722 1.48046 6.11745C1.38053 6.24768 1.30723 6.39632 1.26475 6.55488C1.22226 6.71344 1.21142 6.87882 1.23285 7.04156C1.25428 7.20431 1.30755 7.36125 1.38962 7.50341C1.4717 7.64557 1.58097 7.77017 1.7112 7.8701C1.84144 7.97003 1.99007 8.04333 2.14863 8.08581C2.30719 8.1283 2.47257 8.13914 2.63531 8.11771C2.79806 8.09629 2.955 8.04301 3.09716 7.96094C3.23932 7.87886 3.36392 7.76959 3.46385 7.63936C3.56378 7.50913 3.63708 7.36049 3.67956 7.20193C3.72205 7.04337 3.73289 6.878 3.71146 6.71525C3.69004 6.5525 3.63676 6.39557 3.55469 6.25341C3.47261 6.11125 3.36334 5.98664 3.23311 5.88671C3.10288 5.78678 2.95424 5.71348 2.79568 5.671C2.63712 5.62851 2.47175 5.61767 2.309 5.6391C2.14625 5.66053 1.98932 5.7138 1.84716 5.79587L1.84716 5.79587Z" stroke="#1C64F2"/>
<path d="M8.15284 5.79587C8.295 5.87795 8.41961 5.98722 8.51954 6.11745C8.61947 6.24769 8.69277 6.39632 8.73525 6.55488C8.77774 6.71344 8.78858 6.87882 8.76715 7.04156C8.74572 7.20431 8.69245 7.36125 8.61038 7.50341C8.5283 7.64557 8.41903 7.77017 8.2888 7.8701C8.15856 7.97003 8.00993 8.04333 7.85137 8.08581C7.69281 8.1283 7.52743 8.13914 7.36469 8.11771C7.20194 8.09629 7.045 8.04301 6.90284 7.96094C6.76068 7.87886 6.63608 7.76959 6.53615 7.63936C6.43622 7.50913 6.36292 7.36049 6.32044 7.20193C6.27795 7.04337 6.26711 6.878 6.28854 6.71525C6.30996 6.5525 6.36324 6.39557 6.44531 6.25341C6.52739 6.11125 6.63666 5.98664 6.76689 5.88671C6.89712 5.78678 7.04576 5.71348 7.20432 5.671C7.36288 5.62851 7.52825 5.61767 7.691 5.6391C7.85375 5.66053 8.01068 5.7138 8.15284 5.79587L8.15284 5.79587Z" stroke="#1C64F2"/>
<path fill-rule="evenodd" clip-rule="evenodd" d="M3.80128 2.85382C3.76817 2.74032 3.75127 2.62248 3.75127 2.5038C3.75127 2.33965 3.78361 2.17711 3.84642 2.02545C3.89353 1.91172 3.95709 1.80578 4.03489 1.71096C3.86475 1.75528 3.6975 1.81135 3.53435 1.87893C3.06927 2.07158 2.64668 2.35394 2.29072 2.7099C1.93477 3.06585 1.65241 3.48844 1.45976 3.95352C1.26712 4.4186 1.16797 4.91707 1.16797 5.42047C1.16797 5.76506 1.21443 6.10734 1.30553 6.43818C1.34876 6.32338 1.40872 6.21535 1.48367 6.11768C1.5836 5.98745 1.7082 5.87817 1.85036 5.7961C1.95314 5.73676 2.06365 5.69247 2.17849 5.66439C2.17149 5.58341 2.16797 5.50203 2.16797 5.42047C2.16797 5.04839 2.24125 4.67996 2.38364 4.3362C2.52603 3.99245 2.73473 3.6801 2.99783 3.417C3.23108 3.18375 3.50304 2.99325 3.80128 2.85382ZM6.20128 2.85379C6.49953 2.99323 6.77151 3.18374 7.00477 3.417C7.26787 3.6801 7.47657 3.99244 7.61896 4.3362C7.76135 4.67996 7.83464 5.04839 7.83464 5.42047C7.83464 5.50203 7.83111 5.58342 7.82411 5.66441C7.93894 5.69249 8.04942 5.73677 8.15218 5.7961C8.29434 5.87817 8.41895 5.98745 8.51888 6.11768C8.59384 6.21537 8.65382 6.32343 8.69705 6.43827C8.78817 6.1074 8.83464 5.76509 8.83464 5.42047C8.83464 4.91707 8.73548 4.4186 8.54284 3.95352C8.3502 3.48844 8.06783 3.06585 7.71188 2.70989C7.35592 2.35394 6.93334 2.07157 6.46825 1.87893C6.30508 1.81134 6.1378 1.75526 5.96764 1.71094C6.04544 1.80577 6.10901 1.91171 6.15612 2.02545C6.21894 2.17711 6.25127 2.33965 6.25127 2.5038C6.25127 2.62248 6.23438 2.74031 6.20128 2.85379ZM7.73087 8.11192C7.60977 8.13192 7.48616 8.13401 7.36403 8.11794C7.20128 8.09651 7.04434 8.04324 6.90218 7.96116C6.79946 7.90185 6.70589 7.82834 6.62419 7.74298C6.45627 7.86031 6.27573 7.95936 6.08557 8.03813C5.74182 8.18052 5.37338 8.2538 5.0013 8.2538C4.62922 8.2538 4.26079 8.18052 3.91703 8.03813C3.72686 7.95936 3.54631 7.86029 3.37838 7.74295C3.29667 7.82832 3.2031 7.90184 3.10036 7.96116C2.9582 8.04324 2.80127 8.09651 2.63852 8.11794C2.51641 8.13401 2.39282 8.13192 2.27175 8.11193C2.27805 8.11833 2.28438 8.1247 2.29073 8.13105C2.64668 8.48701 3.06927 8.76937 3.53435 8.96201C3.99943 9.15465 4.4979 9.2538 5.0013 9.2538C5.5047 9.2538 6.00317 9.15465 6.46826 8.96201C6.93334 8.76937 7.35592 8.487 7.71188 8.13105C7.71823 8.12469 7.72456 8.11832 7.73087 8.11192Z" fill="#1C64F2"/>
</svg>
