<svg width="24" height="25" viewBox="0 0 24 25" fill="none" xmlns="http://www.w3.org/2000/svg">
<path d="M8 7.5C8 6.55719 8 6.08579 8.29289 5.79289C8.58579 5.5 9.05719 5.5 10 5.5H11.7639C12.3653 5.5 12.666 5.5 12.9077 5.64935C13.1493 5.7987 13.2838 6.06766 13.5528 6.60557L14.5 8.5H18C18.9428 8.5 19.4142 8.5 19.7071 8.79289C20 9.08579 20 9.55719 20 10.5V13.5C20 14.4428 20 14.9142 19.7071 15.2071C19.4142 15.5 18.9428 15.5 18 15.5H10C9.05719 15.5 8.58579 15.5 8.29289 15.2071C8 14.9142 8 14.4428 8 13.5V7.5Z" stroke="#33363F" stroke-width="2" stroke-linejoin="round"/>
<path d="M17 15.5V17.9C17 18.4601 17 18.7401 16.891 18.954C16.7951 19.1422 16.6422 19.2951 16.454 19.391C16.2401 19.5 15.9601 19.5 15.4 19.5H5.6C5.03995 19.5 4.75992 19.5 4.54601 19.391C4.35785 19.2951 4.20487 19.1422 4.10899 18.954C4 18.7401 4 18.4601 4 17.9V10.1C4 9.53995 4 9.25992 4.10899 9.04601C4.20487 8.85785 4.35785 8.70487 4.54601 8.60899C4.75992 8.5 5.03995 8.5 5.6 8.5H8" stroke="#33363F" stroke-width="2" stroke-linejoin="round"/>
</svg>
