<svg width="30" height="30" viewBox="0 0 30 30" fill="none" xmlns="http://www.w3.org/2000/svg">
<path d="M9.17877 20.6084H0V27.6847H9.17877V20.6084Z" fill="#8837E9"/>
<path d="M30.0001 23.0234H20.8213V27.6844H30.0001V23.0234Z" fill="#8837E9"/>
<path d="M19.9999 17.6846H10V27.6845H19.9999V17.6846Z" fill="#8837E9"/>
<path d="M22.9444 6.40438C23.1127 4.9747 22.0838 3.78782 20.8036 3.37821C20.6639 3.33355 20.563 3.18966 20.5774 3.04384C20.5934 2.88288 20.6045 2.72782 20.6108 2.57985C20.6168 2.43339 20.4976 2.31445 20.3509 2.31445H9.64959C9.50296 2.31445 9.3837 2.43333 9.38993 2.57985C9.39615 2.72782 9.40716 2.88288 9.4231 3.04384C9.43759 3.18966 9.33652 3.33371 9.19698 3.37837C7.91677 3.78798 6.88769 4.97491 7.05622 6.40454C7.15148 7.21357 7.4727 8.00843 8.14181 8.51788C8.51858 8.8048 8.91779 9.02061 9.34511 9.2208C9.54085 9.30673 9.73761 9.39029 9.93538 9.47177C10.3422 9.64206 10.545 9.8086 10.8257 10.0484C10.9372 10.1437 10.937 10.1305 10.793 10.1029C10.3308 10.0149 9.93764 10.7287 10.3973 11.1145C10.8635 11.5058 11.4016 11.4343 11.8503 11.0547C11.9861 10.9397 12.0712 10.8039 12.117 10.6574C12.1609 10.5175 12.2292 10.4924 12.3192 10.608C12.8026 11.2286 13.3288 11.7213 13.8848 12.013C14.0148 12.0812 14.1253 12.2444 14.1253 12.3911V14.0577C14.1253 14.1088 14.1304 14.1586 14.1396 14.2068C14.155 14.2883 14.0606 14.3515 13.9139 14.3515H12.8122C12.4496 14.3515 12.1558 14.6454 12.1558 15.0079V16.0615C12.1558 16.4241 12.4498 16.7179 12.8122 16.7179H17.1884C17.551 16.7179 17.8448 16.4241 17.8448 16.0615V15.0079C17.8448 14.6453 17.5508 14.3515 17.1884 14.3515H16.0867C15.9401 14.3515 15.8457 14.2882 15.8611 14.2068C15.8703 14.1586 15.8754 14.1088 15.8754 14.0577V12.3909C15.8754 12.2442 15.986 12.081 16.1157 12.0129C16.6718 11.7212 17.198 11.2285 17.6814 10.6079C17.7714 10.4923 17.8396 10.5174 17.8835 10.6573C17.9294 10.8038 18.0144 10.9396 18.1503 11.0546C18.5989 11.4343 19.1372 11.5057 19.6032 11.1144C20.0627 10.7286 19.6697 10.0148 19.2076 10.1029C19.0635 10.1303 19.0635 10.1436 19.1749 10.0483C19.4554 9.80855 19.6583 9.64206 20.0652 9.47171C20.263 9.39024 20.4596 9.30667 20.6553 9.22075C21.0828 9.02056 21.4819 8.80475 21.8588 8.51782C22.5277 8.00827 22.849 7.21336 22.9444 6.40438ZM10.9735 8.69129C10.345 8.35804 9.57981 8.16263 9.01997 7.81248C7.56716 6.90362 8.0707 5.05488 9.38783 4.48334C9.52233 4.42505 9.66177 4.50996 9.69461 4.65283C9.98449 5.91984 10.4652 7.32767 11.0842 8.587C11.1489 8.71839 11.103 8.75998 10.9735 8.69129ZM15.9996 10.1334H14.9623V4.96767H14.938L13.5588 5.71181L13.3517 4.89414L15.084 3.96655H15.9996V10.1334ZM20.9803 7.81232C20.4204 8.16247 19.6553 8.35788 19.0268 8.69112C18.8972 8.75977 18.8515 8.71823 18.9162 8.58668C19.5352 7.32735 20.0158 5.91957 20.3058 4.65267C20.3385 4.5098 20.4779 4.42489 20.6124 4.48318C21.9296 5.05488 22.433 6.90362 20.9803 7.81232Z" fill="#8837E9"/>
</svg>
