<svg width="15" height="15" viewBox="0 0 18 18" fill="none" xmlns="http://www.w3.org/2000/svg"><path d="M13.2287 0C13.5023 0 13.7666 0.0997408 13.972 0.280548L16.2121 2.25233C16.4547 2.46591 16.5938 2.77354 16.5938 3.09678V16.3125C16.5938 17.2445 15.8382 18 14.9062 18H3.09375C2.16177 18 1.40625 17.2445 1.40625 16.3125V1.6875C1.40625 0.755519 2.16177 0 3.09375 0H13.2287Z" fill="url(#paint0_linear_5919_102630)"></path><path d="M13.2287 0C13.5024 0 13.7666 0.0997408 13.972 0.280548L16.2121 2.25233C16.4547 2.46591 16.5938 2.77354 16.5938 3.09678V3.9375H14.9062C13.9743 3.9375 13.2188 3.18198 13.2188 2.25V0H13.2287Z" fill="url(#paint1_linear_5919_102630)"></path><path d="M12.0938 6.1875C12.4044 6.1875 12.6562 6.43934 12.6562 6.75C12.6562 7.06066 12.4044 7.3125 12.0938 7.3125H5.90625C5.59559 7.3125 5.34375 7.06066 5.34375 6.75C5.34375 6.43934 5.59559 6.1875 5.90625 6.1875H12.0938Z" fill="url(#paint2_linear_5919_102630)"></path><path d="M12.0938 8.4375C12.4044 8.4375 12.6562 8.68934 12.6562 9C12.6562 9.31066 12.4044 9.5625 12.0938 9.5625H5.90625C5.59559 9.5625 5.34375 9.31066 5.34375 9C5.34375 8.68934 5.59559 8.4375 5.90625 8.4375H12.0938Z" fill="url(#paint3_linear_5919_102630)"></path><path d="M12.0938 10.6875C12.4044 10.6875 12.6562 10.9393 12.6562 11.25C12.6562 11.5607 12.4044 11.8125 12.0938 11.8125H5.90625C5.59559 11.8125 5.34375 11.5607 5.34375 11.25C5.34375 10.9393 5.59559 10.6875 5.90625 10.6875H12.0938Z" fill="url(#paint4_linear_5919_102630)"></path><defs><linearGradient id="paint0_linear_5919_102630" x1="760.781" y1="0" x2="760.781" y2="1800" gradientUnits="userSpaceOnUse"><stop stop-color="#EDEEF4"></stop><stop offset="1" stop-color="#D7D8E6"></stop></linearGradient><linearGradient id="paint1_linear_5919_102630" x1="181.969" y1="0" x2="181.969" y2="388.328" gradientUnits="userSpaceOnUse"><stop stop-color="#DEDEE7"></stop><stop offset="1" stop-color="#CFD0E8"></stop></linearGradient><linearGradient id="paint2_linear_5919_102630" x1="736.594" y1="62.4375" x2="5.34375" y2="62.4375" gradientUnits="userSpaceOnUse"><stop stop-color="#C3C4D4"></stop><stop offset="1" stop-color="#AEAFC8"></stop></linearGradient><linearGradient id="paint3_linear_5919_102630" x1="736.594" y1="64.6875" x2="5.34375" y2="64.6875" gradientUnits="userSpaceOnUse"><stop stop-color="#C3C4D4"></stop><stop offset="1" stop-color="#AEAFC8"></stop></linearGradient><linearGradient id="paint4_linear_5919_102630" x1="736.594" y1="66.9375" x2="5.34375" y2="66.9375" gradientUnits="userSpaceOnUse"><stop stop-color="#C3C4D4"></stop><stop offset="1" stop-color="#AEAFC8"></stop></linearGradient></defs></svg>