<svg width="18" height="19" viewBox="0 0 18 19" fill="none" xmlns="http://www.w3.org/2000/svg">
<g clip-path="url(#clip0_8443_26230)">
<path d="M13.2287 0.5C13.5023 0.5 13.7666 0.599741 13.972 0.780548L16.2121 2.75233C16.4547 2.96591 16.5938 3.27354 16.5938 3.59678V16.8125C16.5938 17.7445 15.8382 18.5 14.9062 18.5H3.09375C2.16177 18.5 1.40625 17.7445 1.40625 16.8125V2.1875C1.40625 1.25552 2.16177 0.5 3.09375 0.5H13.2287Z" fill="url(#paint0_linear_8443_26230)"/>
<path d="M13.2287 0.5C13.5024 0.5 13.7666 0.599741 13.972 0.780548L16.2121 2.75233C16.4547 2.96591 16.5938 3.27354 16.5938 3.59678V4.4375H14.9062C13.9743 4.4375 13.2188 3.68198 13.2188 2.75V0.5H13.2287Z" fill="url(#paint1_linear_8443_26230)"/>
<path d="M12.0938 6.6875C12.4044 6.6875 12.6562 6.93934 12.6562 7.25C12.6562 7.56066 12.4044 7.8125 12.0938 7.8125H5.90625C5.59559 7.8125 5.34375 7.56066 5.34375 7.25C5.34375 6.93934 5.59559 6.6875 5.90625 6.6875H12.0938Z" fill="url(#paint2_linear_8443_26230)"/>
<path d="M12.0938 8.9375C12.4044 8.9375 12.6562 9.18934 12.6562 9.5C12.6562 9.81066 12.4044 10.0625 12.0938 10.0625H5.90625C5.59559 10.0625 5.34375 9.81066 5.34375 9.5C5.34375 9.18934 5.59559 8.9375 5.90625 8.9375H12.0938Z" fill="url(#paint3_linear_8443_26230)"/>
<path d="M12.0938 11.1875C12.4044 11.1875 12.6562 11.4393 12.6562 11.75C12.6562 12.0607 12.4044 12.3125 12.0938 12.3125H5.90625C5.59559 12.3125 5.34375 12.0607 5.34375 11.75C5.34375 11.4393 5.59559 11.1875 5.90625 11.1875H12.0938Z" fill="url(#paint4_linear_8443_26230)"/>
</g>
<defs>
<linearGradient id="paint0_linear_8443_26230" x1="760.781" y1="0.5" x2="760.781" y2="1800.5" gradientUnits="userSpaceOnUse">
<stop stop-color="#EDEEF4"/>
<stop offset="1" stop-color="#D7D8E6"/>
</linearGradient>
<linearGradient id="paint1_linear_8443_26230" x1="181.969" y1="0.5" x2="181.969" y2="388.828" gradientUnits="userSpaceOnUse">
<stop stop-color="#DEDEE7"/>
<stop offset="1" stop-color="#CFD0E8"/>
</linearGradient>
<linearGradient id="paint2_linear_8443_26230" x1="736.594" y1="62.9375" x2="5.34375" y2="62.9375" gradientUnits="userSpaceOnUse">
<stop stop-color="#C3C4D4"/>
<stop offset="1" stop-color="#AEAFC8"/>
</linearGradient>
<linearGradient id="paint3_linear_8443_26230" x1="736.594" y1="65.1875" x2="5.34375" y2="65.1875" gradientUnits="userSpaceOnUse">
<stop stop-color="#C3C4D4"/>
<stop offset="1" stop-color="#AEAFC8"/>
</linearGradient>
<linearGradient id="paint4_linear_8443_26230" x1="736.594" y1="67.4375" x2="5.34375" y2="67.4375" gradientUnits="userSpaceOnUse">
<stop stop-color="#C3C4D4"/>
<stop offset="1" stop-color="#AEAFC8"/>
</linearGradient>
<clipPath id="clip0_8443_26230">
<rect width="18" height="18" fill="white" transform="translate(0 0.5)"/>
</clipPath>
</defs>
</svg>
