<svg width="28" height="28" viewBox="0 0 28 28" fill="none" xmlns="http://www.w3.org/2000/svg">
<path d="M12.5807 27.8661C12.1903 27.7988 11.3303 27.5663 10.6696 27.3472L9.46832 26.9498L9.46919 24.7305C9.47005 22.2221 9.58212 21.4949 10.1216 20.5C10.8943 19.0752 11.7419 18.5836 13.6182 18.4719C16.3215 18.3098 17.6646 19.0489 18.496 21.1507C18.7354 21.7559 18.7509 21.9517 18.7509 24.3711V26.9471L18.0957 27.2536C16.6485 27.9307 14.4091 28.1791 12.5807 27.8661ZM8.26708 24.2065C7.43319 24.0749 5.87789 23.6827 5.30072 23.4575L4.6633 23.2097V20.7809V18.352L5.02046 17.4014C5.43099 16.3089 5.92918 15.6766 6.78339 15.1638C7.31938 14.842 7.56426 14.7958 9.04226 14.737L10.7 14.6697L10.8209 15.4089C10.9382 16.1266 11.2011 16.8878 11.5502 17.5217C11.7151 17.8215 11.7 17.8451 11.0516 18.2982C10.3017 18.8222 9.55216 19.8288 9.21833 20.7601C8.96416 21.4689 8.75846 22.7762 8.75846 23.6824C8.75846 24.0223 8.72159 24.2909 8.67656 24.279C8.63152 24.279 8.44724 24.234 8.26708 24.2065ZM19.4934 22.8824C19.3065 20.6738 18.6078 19.2291 17.2767 18.2988C16.9162 18.0479 16.6213 17.7878 16.6213 17.7236C16.6213 17.6594 16.7027 17.5186 16.8026 17.4097C17.0352 17.1588 17.4926 15.8751 17.494 15.471C17.4963 14.7486 17.5609 14.7073 18.6807 14.7083C20.6797 14.7098 21.6078 15.0971 22.4538 16.2832C23.2297 17.3709 23.3921 18.166 23.3921 20.8772V23.1699L23.0067 23.381C22.4875 23.6656 20.9664 24.1138 20.2186 24.2025L19.6114 24.2759L19.4934 22.8824ZM2.86141 20.6224C2.17798 20.5275 0.961495 20.1359 0.475159 19.8542L0 19.5788L0.0401333 17.179C0.0774665 14.9451 0.1001 14.7229 0.368013 13.9691C0.707722 13.0134 1.31702 12.1937 2.05576 11.699C2.5416 11.3738 2.7349 11.338 4.25382 11.2937L5.91921 11.2447V11.5978C5.91921 12.139 6.21065 13.1012 6.56697 13.7363L6.88829 14.3093L6.25302 14.7254C5.46902 15.2394 4.68586 16.3138 4.30663 17.3962C4.08729 18.0225 4.00885 18.5096 3.97329 19.4681L3.92685 20.7209L3.58528 20.6903C3.39744 20.6903 3.07174 20.6444 2.8615 20.6138L2.86141 20.6224ZM24.0275 19.3252C23.992 18.367 23.9136 17.8799 23.6941 17.2537C23.3099 16.1569 22.5469 15.117 21.758 14.6153L21.1149 14.2062L21.3952 13.7241C21.7276 13.1523 22.0816 11.9903 22.0816 11.4711V11.1015L23.6923 11.1505C25.1592 11.1964 25.3568 11.2331 25.9037 11.5736C26.6684 12.0493 27.2765 12.8469 27.6373 13.848C27.9021 14.5825 27.9238 14.8007 27.9606 17.0949L28 19.554L27.1029 19.9258C26.2138 20.2938 25.0736 20.5695 24.4156 20.575L24.074 20.5777L24.0275 19.3252ZM13.5729 18.1296C12.1645 17.7735 11.1718 15.7735 11.4874 13.9275C11.6474 12.9904 11.8378 12.5535 12.3507 11.9459C13.4378 10.6582 15.2165 10.7782 16.1708 12.2029C16.6794 12.9626 16.8662 13.6237 16.8666 14.6648C16.8675 16.9505 15.3257 18.5726 13.5729 18.1296ZM8.85711 14.406C8.22639 14.2836 7.81672 14.0037 7.37232 13.3952C6.10681 11.6623 6.40592 8.91009 7.98199 7.78515C8.69863 7.27393 9.34302 7.17236 10.0797 7.45504C10.8387 7.74569 11.3968 8.36001 11.7518 9.29435C12.1376 10.3095 12.1218 10.8883 11.6907 11.532C11.391 11.9793 11.0042 12.9344 10.795 13.743C10.6723 14.2178 9.66157 14.5636 8.85711 14.406ZM18.4778 14.4519C17.8356 14.3417 17.4949 14.1154 17.4939 13.8012C17.4919 13.2327 16.9708 12.0093 16.4544 11.3604C15.988 10.7745 15.9516 10.6803 16.0234 10.2437C16.3716 8.12934 17.9345 6.86519 19.4713 7.45474C21.4419 8.21072 22.1052 11.5039 20.6668 13.39C20.0839 14.1542 19.2092 14.5785 18.4778 14.4519ZM3.96916 10.8201C2.381 10.2207 1.54821 7.83992 2.24847 5.90118C2.5528 5.05862 3.0831 4.35679 3.64963 4.04688C4.20676 3.74094 5.31791 3.76541 5.86879 4.09277C6.65683 4.56208 7.44803 6.03824 7.44803 7.03927C7.44803 7.17389 7.2308 7.56274 6.96513 7.90111C6.43101 8.58182 6.08521 9.36655 5.97267 10.1528C5.90617 10.6175 5.8511 10.6855 5.42378 10.8265C4.86481 11.0101 4.47239 11.0101 3.96916 10.8265V10.8201ZM22.4486 10.6946C22.1691 10.5814 22.0919 10.4591 22.03 10.0255C21.915 9.22215 21.5759 8.45394 21.0379 7.77812C20.485 7.08333 20.4468 6.79544 20.7799 5.8305C21.2389 4.5012 22.1906 3.68556 23.2828 3.68556C26.0559 3.68556 27.038 8.51207 24.6398 10.3547C24.0919 10.7757 23.0486 10.9376 22.4486 10.6946ZM12.5385 9.98119C12.4984 9.65291 12.3687 9.13465 12.2502 8.83024C12.1317 8.5243 12.0346 8.24131 12.0346 8.19878C12.0346 8.15595 12.9192 8.1223 14.0003 8.1223C15.0814 8.1223 15.966 8.18043 15.966 8.25079C15.966 8.32116 15.8687 8.65922 15.7499 9.00249C15.6312 9.34606 15.5329 9.76795 15.5315 9.9405C15.5292 10.385 15.395 10.4429 14.8313 10.2464C14.3548 10.0782 13.5667 10.173 12.8417 10.482C12.6384 10.5677 12.6029 10.5105 12.5385 9.98119ZM13.3775 7.69031C12.7957 7.53428 12.5574 7.36357 12.0171 6.72354C11.4188 6.01468 11.1386 5.23148 11.0763 4.09307C11.0324 3.29365 11.067 3.01984 11.2959 2.36543C12.6512 -1.51633 16.9626 -0.350392 16.9626 3.89758C16.9626 5.01701 16.7044 5.85529 16.1262 6.6134C15.4194 7.5401 14.3588 7.95556 13.3775 7.69031ZM10.1782 6.73884C9.70079 6.53692 8.87041 6.54916 8.18518 6.76943C7.92154 6.8551 7.88472 6.8245 7.88378 6.52774C7.8818 5.91127 7.38195 4.75972 6.84933 4.14508C6.33511 3.55156 6.33023 3.53779 6.47347 3.08439C6.68091 2.42723 7.19228 1.71134 7.71072 1.35124C8.37843 0.887746 9.62512 0.906102 10.2681 1.38796C10.6805 1.69757 10.7311 1.78813 10.6678 2.10386C10.6279 2.30272 10.5703 2.99598 10.5395 3.64426C10.4877 4.73524 10.508 4.89188 10.8114 5.74209C11.05 6.41026 11.1066 6.70366 11.0191 6.81839C10.8725 7.01113 10.8014 7.00501 10.1782 6.73884ZM17.0583 6.68989C16.9558 6.43902 16.9771 6.2579 17.1719 5.71425C17.4746 4.87016 17.5668 3.5999 17.3868 2.75642C17.2176 1.96404 17.3065 1.78109 18.0957 1.29862C19.3327 0.542646 20.8276 1.13953 21.5097 2.66158C21.759 3.21809 21.7705 3.3013 21.614 3.41603C20.9475 3.90523 20.3297 4.99498 20.0598 6.15786C19.9714 6.53845 19.8652 6.74221 19.7722 6.70947C19.0645 6.46166 18.0292 6.54426 17.3669 6.89915C17.2423 6.96646 17.144 6.90129 17.0583 6.68989Z" fill="black"/>
</svg>
