<svg width="18" height="19" viewBox="0 0 18 19" fill="none" xmlns="http://www.w3.org/2000/svg">
<g clip-path="url(#clip0_8443_26170)">
<path d="M14.4 0.5H3.6C1.61178 0.5 0 2.11178 0 4.1V14.9C0 16.8882 1.61178 18.5 3.6 18.5H14.4C16.3882 18.5 18 16.8882 18 14.9V4.1C18 2.11178 16.3882 0.5 14.4 0.5Z" fill="url(#paint0_linear_8443_26170)"/>
<path d="M14.4 0.5H3.6C1.61178 0.5 0 2.11178 0 4.1V14.9C0 16.8882 1.61178 18.5 3.6 18.5H14.4C16.3882 18.5 18 16.8882 18 14.9V4.1C18 2.11178 16.3882 0.5 14.4 0.5Z" fill="url(#paint1_linear_8443_26170)"/>
<path d="M13.5001 6.79998C14.4942 6.79998 15.3001 5.99406 15.3001 4.99995C15.3001 4.00584 14.4942 3.19995 13.5001 3.19995C12.506 3.19995 11.7001 4.00584 11.7001 4.99995C11.7001 5.99406 12.506 6.79998 13.5001 6.79998Z" fill="url(#paint2_linear_8443_26170)"/>
<path d="M8.7512 14.4976C8.45201 15.096 8.88716 15.8001 9.55619 15.8001H13.8437C14.5128 15.8001 14.9479 15.096 14.6487 14.4976L12.5049 10.21C12.1733 9.54669 11.2266 9.54669 10.8949 10.21L8.7512 14.4976Z" fill="#DEDEE7"/>
<path d="M3.35118 14.4975C3.05198 15.0959 3.48712 15.8 4.15616 15.8H10.2437C10.9128 15.8 11.3479 15.0959 11.0487 14.4975L8.00491 8.40999C7.67326 7.74664 6.72663 7.74664 6.39493 8.40999L3.35118 14.4975Z" fill="url(#paint3_linear_8443_26170)"/>
</g>
<defs>
<linearGradient id="paint0_linear_8443_26170" x1="9" y1="0.5" x2="9" y2="18.5" gradientUnits="userSpaceOnUse">
<stop stop-color="#00E676"/>
<stop offset="1" stop-color="#00C853"/>
</linearGradient>
<linearGradient id="paint1_linear_8443_26170" x1="900" y1="0.5" x2="900" y2="1800.5" gradientUnits="userSpaceOnUse">
<stop stop-color="#EDEEF4"/>
<stop offset="1" stop-color="#D7D8E6"/>
</linearGradient>
<linearGradient id="paint2_linear_8443_26170" x1="371.7" y1="183.201" x2="11.7001" y2="183.201" gradientUnits="userSpaceOnUse">
<stop stop-color="#C3C4D4"/>
<stop offset="1" stop-color="#AEAFC8"/>
</linearGradient>
<linearGradient id="paint3_linear_8443_26170" x1="792.243" y1="402.289" x2="3.255" y2="402.289" gradientUnits="userSpaceOnUse">
<stop stop-color="#C3C4D4"/>
<stop offset="1" stop-color="#AEAFC8"/>
</linearGradient>
<clipPath id="clip0_8443_26170">
<rect width="18" height="18" fill="white" transform="translate(0 0.5)"/>
</clipPath>
</defs>
</svg>
