<svg width="18" height="18" viewBox="0 0 18 18" fill="none" xmlns="http://www.w3.org/2000/svg">
<path d="M12.8429 12.1287C15.3584 9.00773 15.4702 4.92408 13.0925 3.00766C10.7148 1.09123 6.74809 2.06774 4.23254 5.18875C1.71699 8.30976 1.60523 12.3934 3.98291 14.3098C6.36059 16.2263 10.3273 15.2498 12.8429 12.1287Z" fill="#F1B31C"/>
<path d="M13.0346 3.00629C12.0906 2.27097 10.9006 1.92567 9.70961 2.04149C10.6284 2.09755 11.5078 2.43432 12.229 3.00629C14.6067 4.92269 14.4949 9.00629 11.9793 12.1273C10.4443 14.0318 8.36934 15.1358 6.44434 15.2733C8.57716 15.433 11.0328 14.3011 12.7849 12.1273C15.3005 9.00629 15.4123 4.92264 13.0346 3.00629Z" fill="#F1B31C"/>
<path d="M13.8366 3.26972C13.713 3.17012 13.5822 3.07442 13.4471 2.98529C13.4382 2.98095 13.4289 2.97719 13.4194 2.97404C13.3764 2.95272 13.3283 2.94386 13.2805 2.94844C13.2315 2.95352 13.1854 2.97415 13.1489 3.00732C13.1407 3.01251 13.1329 3.01821 13.1254 3.02437C13.1206 3.02949 13.1192 3.03612 13.1149 3.04152C13.1107 3.04692 13.1046 3.04997 13.1007 3.05584C13.0965 3.06472 13.0928 3.07386 13.0896 3.08319C13.068 3.12666 13.0592 3.17537 13.0641 3.22367C13.0662 3.23923 13.0699 3.25455 13.075 3.26942C13.084 3.30071 13.1001 3.32946 13.1222 3.35337C13.1275 3.36182 13.1334 3.36993 13.1397 3.37764C15.2094 5.28672 14.9935 9.06172 12.6486 11.9714C10.223 14.9802 6.40606 15.9414 4.14001 14.1147C4.12542 14.105 4.10981 14.0969 4.09346 14.0905C4.08871 14.088 4.08439 14.0855 4.07954 14.0833C4.05569 14.0732 4.03037 14.0669 4.00454 14.0648C3.99779 14.0641 3.99141 14.0632 3.98454 14.0631C3.93113 14.0616 3.8789 14.0789 3.83689 14.1119C3.8285 14.1163 3.82039 14.1211 3.81259 14.1264C3.80776 14.1308 3.80589 14.1368 3.80149 14.1414C3.79754 14.1457 3.79211 14.1477 3.78841 14.1523C3.78406 14.1597 3.78011 14.1673 3.77659 14.175C3.76437 14.1925 3.75452 14.2114 3.74731 14.2314C3.74488 14.2394 3.74288 14.2475 3.74131 14.2557C3.73539 14.2799 3.73324 14.3049 3.73494 14.3298C3.73536 14.3348 3.73634 14.3395 3.73704 14.3445C3.74056 14.3716 3.7487 14.398 3.76109 14.4225C3.76306 14.4264 3.76554 14.4298 3.76774 14.4336C3.77508 14.4499 3.78422 14.4652 3.79499 14.4794C3.9711 14.674 4.1622 14.8544 4.36654 15.019C5.32187 15.7746 6.50897 16.1769 7.72686 16.1577C9.87436 16.1577 12.1995 15.0377 13.8589 12.9789C16.4699 9.7397 16.4596 5.38397 13.8366 3.26972Z" fill="#F1B31C"/>
</svg>
