<svg width="18" height="18" viewBox="0 0 18 18" fill="none" xmlns="http://www.w3.org/2000/svg">
<path d="M8.99988 6.93359L10.3119 10.9713H14.5574L11.1226 13.4668L12.4346 17.5046L8.99988 15.0091L5.56513 17.5046L6.87713 13.4668L3.44238 10.9713H7.68788L8.99988 6.93359Z" fill="#FCEA2B"/>
<path d="M14 2.24438V0.504883H4V2.24438L9 5.93388L14 2.24438Z" fill="#EA5A47"/>
<path d="M8.99988 4.76563V0.504883M8.99988 6.93388L10.3119 10.9716H14.5574L11.1226 13.4671L12.4346 17.5049L8.99988 15.0094L5.56513 17.5049L6.87713 13.4671L3.44238 10.9716H7.68788L8.99988 6.93388ZM13.9999 2.24438V0.504883H3.99988V2.24438L8.99988 5.93388L13.9999 2.24438Z" stroke="black" stroke-width="0.5" stroke-miterlimit="10" stroke-linecap="round" stroke-linejoin="round"/>
<path d="M8.99988 4.76563V0.504883M8.99988 6.93388L10.3119 10.9716H14.5574L11.1226 13.4671L12.4346 17.5049L8.99988 15.0094L5.56513 17.5049L6.87713 13.4671L3.44238 10.9716H7.68788L8.99988 6.93388ZM13.9999 2.24438V0.504883H3.99988V2.24438L8.99988 5.93388L13.9999 2.24438Z" stroke="black" stroke-width="0.5" stroke-miterlimit="10" stroke-linecap="round" stroke-linejoin="round"/>
</svg>
