<svg width="300" height="300" viewBox="0 0 110 110" fill="none" xmlns="http://www.w3.org/2000/svg">
<path d="M64.7969 60.1094C64.0938 55.1875 59.9688 51.4375 55 51.4375C50.0312 51.4375 45.9062 55.1875 45.2031 60.0625H64.7969V60.1094Z" fill="#428BC1"/>
<path d="M68.9686 50.7352C68.7811 49.8914 68.2655 49.2352 67.5155 48.8133C67.1874 48.6258 66.8124 48.5321 66.4374 48.4852C66.1092 48.4383 65.7811 48.4852 65.453 48.5789C64.8905 48.7196 64.328 49.0008 63.8124 49.2352C63.1092 49.5633 62.453 49.8914 61.8436 49.8914V52.0477C62.9217 52.0477 63.9061 51.5789 64.7499 51.1571C65.6405 50.7352 66.203 50.4539 66.5311 50.6414C66.7655 50.7821 66.9061 50.9696 66.953 51.2039C66.9999 51.4852 66.9999 51.8602 66.9061 52.2821C66.8124 52.7508 66.578 53.2664 66.2967 53.8758C65.7342 55.0477 64.9842 56.1727 64.4217 57.0164C64.2342 57.3446 64.0467 57.6258 63.9061 57.8133L63.7655 58.0946C63.7655 58.1414 63.7186 58.1414 63.7186 58.1883H46.3749C46.3749 58.1414 46.328 58.1414 46.328 58.0946L46.1874 57.8133C46.0467 57.5789 45.8592 57.2977 45.6717 57.0164C45.1092 56.1727 44.3592 55.0477 43.7967 53.8758C43.5155 53.2664 43.328 52.7508 43.1874 52.2821C43.0936 51.8133 43.0467 51.4383 43.1405 51.2039C43.1874 50.9696 43.328 50.7821 43.5624 50.6414C43.8905 50.4539 44.453 50.6883 45.3436 51.1571C46.1874 51.5789 47.1249 52.0477 48.2499 52.0477V49.8914C47.6405 49.8914 46.9842 49.5633 46.2811 49.2352C45.7655 48.9539 45.203 48.7196 44.6405 48.5789C44.2186 48.4852 43.8905 48.4383 43.5624 48.4852C43.1874 48.5321 42.8124 48.6258 42.4842 48.8133C41.7342 49.2352 41.2186 49.9383 41.0311 50.7352C40.7967 51.8133 41.0311 53.1727 41.8749 54.8602C42.4842 56.1258 43.2811 57.3446 43.8905 58.2352C44.078 58.5164 44.2655 58.7977 44.3592 58.9852C44.4061 59.0789 44.453 59.1727 44.5467 59.2664C44.828 59.6883 45.0155 60.0164 45.1092 60.3914V65.6883C44.9686 65.6883 44.8749 65.7821 44.8749 65.9696C44.8749 66.1102 44.9686 66.2508 45.1092 66.2508H64.9374C65.078 66.2508 65.1717 66.1571 65.1717 65.9696C65.1717 65.8289 65.078 65.6883 64.9374 65.6883V60.4383C65.078 60.0633 65.2655 59.7352 65.4999 59.3133C65.5467 59.2196 65.5936 59.1258 65.6874 59.0321C65.7811 58.8446 65.9686 58.5633 66.1561 58.2821C66.7186 57.3914 67.5155 56.1727 68.1717 54.9071C68.9686 53.2196 69.203 51.8602 68.9686 50.7352Z" fill="#F2B200"/>
<path d="M55.4224 52.7503C55.6568 53.5003 54.4849 54.6253 52.7974 55.1878C51.1099 55.7972 49.5162 55.6565 49.2349 54.9065C49.0005 54.1565 50.1724 53.0315 51.8599 52.469C53.5474 51.9065 55.1412 52.0003 55.4224 52.7503Z" fill="#42ADE2"/>
<path d="M53.875 60.9062H56.125V65.9688H53.875V60.9062Z" fill="#FFDD7D"/>
<path d="M57.7188 60.9062H59.9687V65.9688H57.7188V60.9062Z" fill="#FFCE31"/>
<path d="M56.125 60.9062H57.7187V65.9688H56.125V60.9062Z" fill="white"/>
<path d="M61.5625 60.9062H63.1563V65.9688H61.5625V60.9062Z" fill="#FFCE31"/>
<path d="M45.0625 60.9062H46.6562V65.9688H45.0625V60.9062Z" fill="#F2B200"/>
<path d="M46.8438 60.9062H49.9375V65.9688H46.8438V60.9062Z" fill="#FFCE31"/>
<path d="M53.3125 56.3594C53.3125 57.0625 52.0469 58.8438 52.0469 58.8438C52.0469 58.8438 50.7812 57.0625 50.7812 56.3594C50.7812 55.6563 51.3438 55.0938 52.0469 55.0938C52.75 55.0938 53.3125 55.6563 53.3125 56.3594Z" fill="#F2B200"/>
<path d="M59.1719 56.3594C59.1719 57.0625 57.9063 58.8438 57.9063 58.8438C57.9063 58.8438 56.6406 57.0625 56.6406 56.3594C56.6406 55.6563 57.2031 55.0938 57.9063 55.0938C58.6094 55.0938 59.1719 55.6563 59.1719 56.3594Z" fill="#F2B200"/>
<path d="M57.9531 45.9063H52.0469L53.4531 43.7031H56.4531L57.9531 45.9063Z" fill="#66CAF2"/>
<path d="M45.6719 55.375C46.7969 54.2969 49.0469 53.7344 50.5469 54.1562C49.375 55.2344 47.1719 55.7969 45.6719 55.375Z" fill="#FFCE31"/>
<path d="M64.4219 55.375C62.9219 55.7969 60.6719 55.2344 59.5469 54.1562C61.0469 53.7344 63.2969 54.2969 64.4219 55.375Z" fill="#FFCE31"/>
<path d="M52.4688 54.1094C53.8281 53.3125 56.125 53.3125 57.4844 54.1094C56.125 54.9063 53.875 54.9063 52.4688 54.1094Z" fill="#FFCE31"/>
<path d="M55.4688 43.7031L55.9844 45.9063H57.9531L56.4531 43.7031H55.4688Z" fill="#428BC1"/>
<path d="M55.4688 43.7031H54.4375L54.0156 45.9063H55.9844L55.4688 43.7031Z" fill="#42ADE2"/>
<path d="M54.4375 43.7031L54.0156 45.9063H52.0469L53.4531 43.7031H54.4375Z" fill="#66CAF2"/>
<path d="M45.3906 59.5469C48.5781 59.3125 51.8125 59.2656 55 59.2656C58.1875 59.2656 61.4219 59.3125 64.6094 59.5469C61.4219 59.7813 58.1875 59.8281 55 59.8281C51.8125 59.7813 48.5781 59.7813 45.3906 59.5469Z" fill="#FFDD7D"/>
<path d="M45.0625 60.9062H64.8906V61.4219H45.0625V60.9062Z" fill="#428BC1"/>
<path d="M45.0625 61.4219C45.1919 61.4219 45.2969 61.296 45.2969 61.1406C45.2969 60.9853 45.1919 60.8594 45.0625 60.8594C44.9331 60.8594 44.8281 60.9853 44.8281 61.1406C44.8281 61.296 44.9331 61.4219 45.0625 61.4219Z" fill="#428BC1"/>
<path d="M64.9375 61.4219C65.0669 61.4219 65.1719 61.296 65.1719 61.1406C65.1719 60.9853 65.0669 60.8594 64.9375 60.8594C64.8081 60.8594 64.7031 60.9853 64.7031 61.1406C64.7031 61.296 64.8081 61.4219 64.9375 61.4219Z" fill="#428BC1"/>
<path d="M63.7665 49.5625C63.6258 49.0469 63.4383 48.5781 63.1102 48.1562C62.7821 47.7344 62.4071 47.3594 61.8915 47.0781C61.5165 46.8906 61.1415 46.75 60.7196 46.7031C60.3915 46.6563 60.0165 46.7031 59.6415 46.7969C59.0321 46.9375 58.4227 47.2656 57.8133 47.5469C57.6727 47.6406 57.4852 47.6875 57.2977 47.7813C57.6727 47.0313 57.9071 46.3281 57.9071 45.8594H52.0477C52.0477 46.3281 52.2821 47.0313 52.6571 47.7813C52.4696 47.6875 52.329 47.6406 52.1415 47.5469C51.5321 47.2656 50.9227 46.9375 50.3133 46.7969C49.9383 46.7031 49.5633 46.6563 49.2352 46.7031C48.8133 46.75 48.4383 46.8438 48.0633 47.0781C47.5946 47.3594 47.1727 47.7344 46.8446 48.1562C46.5633 48.5781 46.329 49.0469 46.1883 49.5625C45.8602 50.9219 46.0477 52.6562 46.7977 54.6719C47.3602 56.2656 48.1102 57.5781 48.4383 58.2344H50.9227C50.829 58.0469 50.6883 57.8594 50.5946 57.6719C50.5477 57.5781 50.454 57.4844 50.4071 57.3906C49.4227 55.7969 47.7352 52.1875 48.2508 50.125C48.3915 49.6094 48.6258 49.2344 49.0946 49C49.2352 48.9063 49.4227 48.8594 49.8446 48.9531C50.2665 49.0469 50.7352 49.2812 51.2508 49.5625C52.0477 49.9844 52.9383 50.4062 53.9227 50.5469V58.2812H56.0321V50.5469C57.0165 50.4062 57.9071 49.9844 58.7508 49.5625C59.2665 49.3281 59.7352 49.0469 60.1571 48.9531C60.579 48.8594 60.7665 48.9063 60.9071 49C61.329 49.2344 61.6102 49.6094 61.7508 50.125C62.2665 52.1875 60.579 55.75 59.5946 57.3906C59.5477 57.4844 59.454 57.5781 59.4071 57.6719C59.2665 57.8594 59.1727 58.0469 59.079 58.2344H61.5633C61.9383 57.625 62.6415 56.2656 63.204 54.6719C63.9071 52.6562 64.0946 50.9219 63.7665 49.5625Z" fill="#FFCE31"/>
<path d="M55 48.0156C54.2031 48.0156 53.5 47.6875 52.9375 47.2188C53.0781 48.25 53.9219 49.0469 55 49.0469C56.0312 49.0469 56.9219 48.25 57.0625 47.2188C56.5 47.7344 55.7969 48.0156 55 48.0156Z" fill="#F2B200"/>
</svg>
