<svg width="25" height="25" viewBox="0 0 25 25" fill="none" xmlns="http://www.w3.org/2000/svg">
<path fill-rule="evenodd" clip-rule="evenodd" d="M12.5 7.5V2.5H10.5C7.67157 2.5 6.25736 2.5 5.37868 3.37868C4.5 4.25736 4.5 5.67157 4.5 8.5V16.5C4.5 19.3284 4.5 20.7426 5.37868 21.6213C6.25736 22.5 7.67157 22.5 10.5 22.5H14.5C17.3284 22.5 18.7426 22.5 19.6213 21.6213C20.5 20.7426 20.5 19.3284 20.5 16.5V10.5H15.5L15.4456 10.5H15.4456H15.4456C15.0215 10.5001 14.6094 10.5002 14.2695 10.4545C13.8863 10.403 13.449 10.2774 13.0858 9.91421C12.7226 9.551 12.597 9.11372 12.5455 8.73052C12.4998 8.3906 12.4999 7.97848 12.5 7.55441L12.5 7.5ZM14.5 7.5V2.50462C14.9116 2.51481 15.184 2.54749 15.4369 2.65224C15.8045 2.80448 16.0935 3.09351 16.6716 3.67157L19.3284 6.32843C19.9065 6.90649 20.1955 7.19552 20.3478 7.56306C20.4525 7.81595 20.4852 8.08836 20.4954 8.5H15.5C15.0003 8.5 14.7262 8.49788 14.536 8.47231L14.5287 8.47131L14.5277 8.46402C14.5021 8.27383 14.5 7.99967 14.5 7.5ZM11.3377 12.6239L14.8341 14.3421C15.7219 14.7784 15.722 16.2216 14.8341 16.6579L11.3377 18.3761C10.4677 18.8037 9.5 18.0719 9.5 16.9867V14.0133C9.5 12.9281 10.4677 12.1963 11.3377 12.6239Z" fill="url(#paint0_linear_7285_119142)"/>
<defs>
<linearGradient id="paint0_linear_7285_119142" x1="4.5" y1="18.8" x2="22.0044" y2="10.958" gradientUnits="userSpaceOnUse">
<stop stop-color="#E592C9"/>
<stop offset="1" stop-color="#F3627E"/>
</linearGradient>
</defs>
</svg>
