<svg width="25" height="25" viewBox="0 0 25 25" fill="none" xmlns="http://www.w3.org/2000/svg">
<path fill-rule="evenodd" clip-rule="evenodd" d="M10.5 2.5C8.84315 2.5 7.5 3.84315 7.5 5.5V5.50068C6.42115 5.50539 5.82954 5.54261 5.38886 5.83706C5.17048 5.98298 4.98298 6.17048 4.83706 6.38886C4.5 6.89331 4.5 7.59554 4.5 9V18.5C4.5 20.3856 4.5 21.3284 5.08579 21.9142C5.67157 22.5 6.61438 22.5 8.5 22.5H16.5C18.3856 22.5 19.3284 22.5 19.9142 21.9142C20.5 21.3284 20.5 20.3856 20.5 18.5V9C20.5 7.59554 20.5 6.89331 20.1629 6.38886C20.017 6.17048 19.8295 5.98298 19.6111 5.83706C19.1705 5.54261 18.5789 5.50539 17.5 5.50068V5.5C17.5 3.84315 16.1569 2.5 14.5 2.5H10.5ZM10.5 5.5C10.5 4.94772 10.9477 4.5 11.5 4.5H13.5C14.0523 4.5 14.5 4.94772 14.5 5.5C14.5 6.05228 14.0523 6.5 13.5 6.5H11.5C10.9477 6.5 10.5 6.05228 10.5 5.5ZM9.5 11.5C8.94772 11.5 8.5 11.9477 8.5 12.5C8.5 13.0523 8.94772 13.5 9.5 13.5H15.5C16.0523 13.5 16.5 13.0523 16.5 12.5C16.5 11.9477 16.0523 11.5 15.5 11.5H9.5ZM9.5 15.5C8.94772 15.5 8.5 15.9477 8.5 16.5C8.5 17.0523 8.94772 17.5 9.5 17.5H13.5C14.0523 17.5 14.5 17.0523 14.5 16.5C14.5 15.9477 14.0523 15.5 13.5 15.5H9.5Z" fill="url(#paint0_linear_7285_119136)"/>
<defs>
<linearGradient id="paint0_linear_7285_119136" x1="12.5" y1="2.5" x2="12.5" y2="22.5" gradientUnits="userSpaceOnUse">
<stop stop-color="#8B5CF6"/>
<stop offset="1" stop-color="#A67FFF"/>
</linearGradient>
</defs>
</svg>
