<svg width="25" height="25" viewBox="0 0 25 25" fill="none" xmlns="http://www.w3.org/2000/svg">
<path fill-rule="evenodd" clip-rule="evenodd" d="M12.5 2.5V7.5L12.5 7.55441C12.4999 7.97848 12.4998 8.3906 12.5455 8.73052C12.597 9.11372 12.7226 9.551 13.0858 9.91421C13.449 10.2774 13.8863 10.403 14.2695 10.4545C14.6094 10.5002 15.0215 10.5001 15.4456 10.5H15.4456H15.4456H15.4456L15.5 10.5H20.5V16.5C20.5 19.3284 20.5 20.7426 19.6213 21.6213C18.7426 22.5 17.3284 22.5 14.5 22.5H10.5C7.67157 22.5 6.25736 22.5 5.37868 21.6213C4.5 20.7426 4.5 19.3284 4.5 16.5V8.5C4.5 5.67157 4.5 4.25736 5.37868 3.37868C6.25736 2.5 7.67157 2.5 10.5 2.5H12.5ZM14.5 2.50462V7.5C14.5 7.99967 14.5021 8.27383 14.5277 8.46402L14.5287 8.47131L14.536 8.47231C14.7262 8.49788 15.0003 8.5 15.5 8.5H20.4954C20.4852 8.08836 20.4525 7.81595 20.3478 7.56306C20.1955 7.19552 19.9065 6.90649 19.3284 6.32843L16.6716 3.67157C16.0935 3.09351 15.8045 2.80448 15.4369 2.65224C15.184 2.54749 14.9116 2.51481 14.5 2.50462ZM8.5 13.5C8.5 12.9477 8.94772 12.5 9.5 12.5L15.5 12.5C16.0523 12.5 16.5 12.9477 16.5 13.5C16.5 14.0523 16.0523 14.5 15.5 14.5L9.5 14.5C8.94772 14.5 8.5 14.0523 8.5 13.5ZM9.5 16.5C8.94772 16.5 8.5 16.9477 8.5 17.5C8.5 18.0523 8.94772 18.5 9.5 18.5H13.5C14.0523 18.5 14.5 18.0523 14.5 17.5C14.5 16.9477 14.0523 16.5 13.5 16.5H9.5Z" fill="url(#paint0_linear_7285_119145)"/>
<defs>
<linearGradient id="paint0_linear_7285_119145" x1="12.5" y1="2.5" x2="12.5" y2="22.5" gradientUnits="userSpaceOnUse">
<stop stop-color="#1C64F2"/>
<stop offset="1" stop-color="#6B9DFF"/>
</linearGradient>
</defs>
</svg>
