<svg width="25" height="25" viewBox="0 0 25 25" fill="none" xmlns="http://www.w3.org/2000/svg">
<path fill-rule="evenodd" clip-rule="evenodd" d="M3.67157 3.6748C2.5 4.84637 2.5 6.73199 2.5 10.5032V14.5032C2.5 18.2745 2.5 20.1601 3.67157 21.3317C4.84315 22.5032 6.72876 22.5032 10.5 22.5032H14.5C18.2712 22.5032 20.1569 22.5032 21.3284 21.3317C22.5 20.1601 22.5 18.2745 22.5 14.5032V14.5032V10.5032C22.5 7.66389 22.5 5.89341 22 4.69179V17.5032C21.0396 17.5032 20.1185 17.1217 19.4393 16.4426L18.6877 15.6909C17.9664 14.9696 17.6057 14.6089 17.1968 14.457C16.7473 14.2899 16.2527 14.2899 15.8032 14.457C15.3943 14.6089 15.0336 14.9696 14.3123 15.6909L14.1992 15.804C13.6138 16.3894 13.3212 16.6821 13.0102 16.7366C12.7685 16.7791 12.5197 16.7311 12.311 16.602C12.0425 16.4358 11.8795 16.0554 11.5534 15.2945L11.5 15.1699C10.7504 13.4207 10.3755 12.5462 9.72167 12.2184C9.39249 12.0533 9.02413 11.9824 8.6572 12.0134C7.92836 12.0749 7.25554 12.7477 5.90989 14.0933L4 16.0032V3.39062C3.8844 3.47673 3.77519 3.57118 3.67157 3.6748Z" fill="url(#paint0_linear_7285_119139)"/>
<path d="M3.5 10.5C3.5 8.58611 3.50212 7.25129 3.63753 6.24416C3.76907 5.26579 4.00966 4.7477 4.37868 4.37868C4.7477 4.00966 5.26579 3.76907 6.24416 3.63753C7.25129 3.50212 8.58611 3.5 10.5 3.5H14.5C16.4139 3.5 17.7487 3.50212 18.7558 3.63753C19.7342 3.76907 20.2523 4.00966 20.6213 4.37868C20.9903 4.7477 21.2309 5.26579 21.3625 6.24416C21.4979 7.25129 21.5 8.58611 21.5 10.5V14.5C21.5 16.4139 21.4979 17.7487 21.3625 18.7558C21.2309 19.7342 20.9903 20.2523 20.6213 20.6213C20.2523 20.9903 19.7342 21.2309 18.7558 21.3625C17.7487 21.4979 16.4139 21.5 14.5 21.5H10.5C8.58611 21.5 7.25129 21.4979 6.24416 21.3625C5.26579 21.2309 4.7477 20.9903 4.37868 20.6213C4.00966 20.2523 3.76907 19.7342 3.63753 18.7558C3.50212 17.7487 3.5 16.4139 3.5 14.5V10.5Z" stroke="url(#paint1_linear_7285_119139)" stroke-width="2"/>
<circle cx="15.5" cy="9.5" r="2" fill="url(#paint2_linear_7285_119139)"/>
<defs>
<linearGradient id="paint0_linear_7285_119139" x1="2.5" y1="18.9674" x2="22.0564" y2="7.50733" gradientUnits="userSpaceOnUse">
<stop stop-color="#37B6F2"/>
<stop offset="1" stop-color="#31C6FE"/>
</linearGradient>
<linearGradient id="paint1_linear_7285_119139" x1="2.5" y1="18.8" x2="22.5" y2="7.6" gradientUnits="userSpaceOnUse">
<stop stop-color="#37B6F2"/>
<stop offset="1" stop-color="#31C6FE"/>
</linearGradient>
<linearGradient id="paint2_linear_7285_119139" x1="13.5" y1="10.76" x2="17.5" y2="8.52" gradientUnits="userSpaceOnUse">
<stop stop-color="#37B6F2"/>
<stop offset="1" stop-color="#31C6FE"/>
</linearGradient>
</defs>
</svg>
