<svg width="24" height="21" viewBox="0 0 24 21" fill="none" xmlns="http://www.w3.org/2000/svg">
<path d="M17.5 0C16.2161 0 15.1582 0.968953 15.0166 2.21508L4.88461 4.74806C4.5653 3.73505 3.61823 3 2.49998 3C1.1197 3 0 4.1197 0 5.49998V14.5C0 15.8803 1.1197 17 2.49998 17C3.61823 17 4.5653 16.2649 4.88461 15.2519L5.62645 15.4373L5.04553 17.5196C4.89436 18.0615 5.21981 18.6215 5.76553 18.7583L11.7155 20.2503C12.2572 20.3861 12.8051 20.052 12.9324 19.5083L13.4289 17.3879L15.0166 17.7848C15.1582 19.031 16.2161 19.9999 17.4999 19.9999C18.8802 19.9999 19.9999 18.8802 19.9999 17.4999V2.49994C20 1.1197 18.8803 0 17.5 0ZM3 14.5C3 14.7757 2.7757 15 2.49998 15C2.22427 15 1.99997 14.7757 1.99997 14.5V5.49998C1.99997 5.22427 2.22427 4.99997 2.49998 4.99997C2.7757 4.99997 3 5.22427 3 5.49998V6V14V14.5ZM5.00002 6.7808L15 4.28077V15.7192L12.9349 15.2029C12.933 15.2025 12.9312 15.2017 12.9293 15.2012L7.10831 13.7462C7.10798 13.7461 7.10766 13.7461 7.10733 13.746L5.00002 13.2192V6.7808ZM11.2167 18.0634L7.24791 17.0682L7.56745 15.9226L11.4885 16.9029L11.2167 18.0634ZM18 17.5C18 17.7757 17.7757 18 17.5 18C17.2243 18 17 17.7757 17 17.5V17V3V2.49998C17 2.22427 17.2243 1.99997 17.5 1.99997C17.7757 1.99997 18 2.22427 18 2.49998V17.5Z" fill="#8837E9"/>
<path d="M22.7071 6.70709L23.7071 5.70711C24.0976 5.31659 24.0976 4.6834 23.7071 4.29289C23.3166 3.90237 22.6834 3.90237 22.2929 4.29289L21.2929 5.29287C20.9024 5.68339 20.9024 6.31657 21.2929 6.70709C21.6834 7.0976 22.3166 7.0976 22.7071 6.70709Z" fill="#8837E9"/>
<path d="M22.7071 13.2929C22.3166 12.9024 21.6834 12.9024 21.2929 13.2929C20.9024 13.6834 20.9024 14.3166 21.2929 14.7071L22.2929 15.7071C22.6834 16.0976 23.3166 16.0976 23.7071 15.7071C24.0976 15.3166 24.0976 14.6834 23.7071 14.2929L22.7071 13.2929Z" fill="#8837E9"/>
<path d="M22 11H23C23.5522 11 24 10.5523 24 9.99998C24 9.4477 23.5522 9 23 9H22C21.4477 9 21 9.4477 21 9.99998C21 10.5522 21.4477 11 22 11Z" fill="#8837E9"/>
</svg>
