<svg width="24" height="25" viewBox="0 0 24 25" fill="none" xmlns="http://www.w3.org/2000/svg">
<path d="M15.73 3.96094H8.27L3 9.23094V16.6909L8.27 21.9609H15.73L21 16.6909V9.23094L15.73 3.96094ZM19 15.8609L14.9 19.9609H9.1L5 15.8609V10.0609L9.1 5.96094H14.9L19 10.0609V15.8609Z" fill="#FF3B30"/>
<path d="M12 17.9609C12.5523 17.9609 13 17.5132 13 16.9609C13 16.4087 12.5523 15.9609 12 15.9609C11.4477 15.9609 11 16.4087 11 16.9609C11 17.5132 11.4477 17.9609 12 17.9609Z" fill="#FF3B30"/>
<path d="M11 7.96094H13V14.9609H11V7.96094Z" fill="#FF3B30"/>
</svg>
