<svg width="23" height="23" viewBox="0 0 23 23" fill="none" xmlns="http://www.w3.org/2000/svg">
<path d="M11.5 0.25C5.28719 0.25 0.25 5.28719 0.25 11.5C0.25 17.7128 5.28719 22.75 11.5 22.75C17.7128 22.75 22.75 17.7128 22.75 11.5C22.75 5.28719 17.7128 0.25 11.5 0.25ZM12.1628 12.1628C11.9238 12.4019 11.6453 12.4375 11.5 12.4375C11.3547 12.4375 11.0763 12.4019 10.8372 12.1628C10.5981 11.9238 10.5625 11.6453 10.5625 11.5C10.5625 11.3547 10.5981 11.0763 10.8372 10.8372C11.3116 10.3628 13.8944 8.42406 16.4462 6.55469C14.5787 9.10375 12.6409 11.6847 12.1628 12.1628ZM19.1106 6.08031C20.0359 7.37406 20.6612 8.89656 20.8272 10.5625H15.8097C16.9788 9.00813 18.2856 7.21844 19.1106 6.08031ZM16.9197 3.88937C15.7825 4.71531 13.9919 6.02219 12.4375 7.19031V2.17281C14.1034 2.33875 15.6259 2.96406 16.9197 3.88937ZM10.5625 2.17281V8.62844C10.0722 9.01656 9.69156 9.33156 9.51156 9.51156C9.205 9.81812 8.99312 10.18 8.85812 10.5625H2.17281C2.61344 6.14031 6.14031 2.61344 10.5625 2.17281ZM2.17281 12.4375H8.85812C8.99312 12.8209 9.205 13.1819 9.51156 13.4884C9.81812 13.795 10.18 14.0069 10.5625 14.1419V20.8272C6.14031 20.3866 2.61344 16.8597 2.17281 12.4375ZM12.4375 20.8272V14.1419C12.8209 14.0069 13.1819 13.795 13.4884 13.4884C13.6703 13.3066 13.9853 12.9269 14.3725 12.4375H20.8272C20.3866 16.8597 16.8597 20.3866 12.4375 20.8272Z" fill="#111918"/>
</svg>
