<svg width="24" height="25" viewBox="0 0 24 25" fill="none" xmlns="http://www.w3.org/2000/svg">
<path d="M14.5075 4.59238C8.78123 1.57138 3.56798 3.72388 1.68998 6.66613C1.07423 7.62763 0.639227 9.37738 0.655727 10.7649C0.689477 13.6201 2.26973 16.8024 5.68073 20.0124C9.87698 23.9611 14.1595 23.6161 15.5207 23.2846C17.2345 22.8661 18.3835 22.5099 18.2072 20.9124C18.1847 20.7024 18.0047 20.3214 17.7332 20.1549C16.8617 19.6261 15.0407 19.3509 14.1842 18.0774C12.9392 16.2234 14.4872 16.1296 15.9707 16.9224C17.5585 17.7721 18.466 18.3024 20.0597 18.1561C21.2282 18.0496 22.927 17.3446 23.1572 15.3736C23.3642 13.5909 20.7617 7.89238 14.5067 4.59238M16.8445 14.2824C16.4057 14.9499 15.322 14.7211 14.6117 14.0911C13.9015 13.4611 13.8092 12.4111 14.2697 11.9986C14.7385 11.5809 15.6197 11.6761 16.3307 12.3061C17.0395 12.9376 17.188 13.7574 16.8445 14.2824Z" fill="#AC5810"/>
<path d="M14.7584 3.91132C9.03143 0.890324 3.80543 3.22657 1.92743 6.16882C0.0471774 9.11257 0.864677 14.5628 5.93093 19.3313C10.1264 23.2793 14.4097 22.9351 15.7709 22.6028C17.4847 22.1851 18.6937 21.3691 17.9399 20.3288C17.4202 19.6103 15.5587 19.0688 14.4352 17.3963C13.1902 15.5416 14.7397 15.4478 16.2224 16.2413C17.8102 17.0903 18.7184 17.6213 20.3122 17.4751C21.4799 17.3678 23.2462 16.4641 23.1937 14.6378C23.1389 12.8431 21.0134 7.21282 14.7584 3.91132ZM17.3932 14.2291C16.8592 14.8066 15.7207 14.6491 14.8507 13.8803C13.9829 13.1101 13.7107 12.0188 14.2454 11.4428C14.7794 10.8653 15.9179 11.0228 16.7879 11.7916C17.6579 12.5603 17.9279 13.6538 17.3932 14.2291Z" fill="#F2A259"/>
<path d="M8.92868 16.8393C9.14468 16.288 10.6784 15.6843 12.0884 16.687C12.4837 16.9683 12.9787 17.6845 12.9284 18.5845C12.7634 21.5245 7.93868 19.3758 8.92868 16.8393Z" fill="#EEEEEE"/>
<path d="M4.4501 11.8574C4.94285 11.0699 6.14135 10.9799 7.1891 11.6602C8.12285 12.2654 8.90285 13.7564 7.7516 14.7314C7.1351 15.2542 6.06785 14.9302 5.4101 14.4254C4.61135 13.8164 3.9191 12.7049 4.4501 11.8574Z" fill="#2686C6"/>
<path d="M10.814 4.98816C10.9655 4.36416 12.0245 4.25691 12.7745 4.53666C14.0705 5.02041 14.657 6.30291 14.1793 7.01691C13.4795 8.06166 11.9555 7.70316 11.378 7.10541C10.3978 6.09291 10.6865 5.51166 10.814 4.98816Z" fill="#FFEE58"/>
<path d="M18.3211 8.03998C19.3591 8.51248 19.4941 9.26023 19.2961 9.80623C19.1716 10.1437 18.9188 10.6065 18.4013 10.6485C17.5253 10.7197 17.4038 9.99598 16.7791 9.79723C16.2541 9.62998 16.0403 8.91223 16.2466 8.42998C16.4386 7.98598 16.9973 7.43623 18.3211 8.03998Z" fill="#7CB342"/>
<path d="M12.5572 19.1458C12.2985 19.3806 11.4 19.6694 10.26 18.9569C9.87371 18.7146 9.50396 18.3643 9.29621 17.8393C9.13346 17.4268 9.16871 17.0293 9.24221 16.8531C9.45221 16.3446 9.77246 16.2508 9.77246 16.2508C9.44996 16.2283 8.84096 16.6558 8.73971 17.2168C8.70746 17.3931 8.48021 18.4948 9.94121 19.4946C11.199 20.3571 13.0597 20.2768 12.9375 18.5406C12.8672 18.7729 12.7363 18.982 12.5572 19.1458Z" fill="#B0B0B0"/>
<path d="M8.29902 13.2924C8.26377 13.9622 7.47927 14.3147 7.04277 14.3162C5.80677 14.3177 4.69677 13.5414 4.62027 12.1599C4.60677 11.9124 4.72902 11.5547 4.72902 11.5547C4.56552 11.6237 4.33527 11.9762 4.28652 12.1749C3.99777 13.3674 5.19927 14.7572 6.46527 15.0384C7.10652 15.1809 7.91502 14.9612 8.20902 14.3874C8.41902 13.9787 8.37777 13.6284 8.29902 13.2924Z" fill="#01579B"/>
<path d="M12.6228 7.10125C11.7828 7.00525 11.3178 6.45625 11.1963 6.33025C10.8618 5.9815 10.6563 5.6425 10.7763 5.14C10.8138 4.97875 10.9053 4.7725 11.0178 4.65625C10.8813 4.70125 10.66 4.99525 10.5903 5.155C10.519 5.314 10.2603 5.9125 10.8153 6.649C11.158 7.1065 11.7565 7.6225 12.6415 7.74625C13.2693 7.834 13.72 7.609 14.095 7.24375C14.35 6.994 14.4625 6.4315 14.3103 6.14125C14.335 6.35275 13.9465 7.25275 12.6228 7.10125Z" fill="#DF7F14"/>
<path d="M19.5323 9.381C19.4642 9.16522 19.3561 8.96421 19.2135 8.7885C19.3088 8.97225 19.4985 9.5235 19.101 10.059C18.9 10.329 18.2963 10.6612 17.5838 10.0837C17.3738 9.91275 17.205 9.744 16.8263 9.60525C15.8648 9.25125 16.284 8.2725 16.6185 7.96875C16.356 8.106 16.1175 8.35125 16.0185 8.72625C15.879 9.249 16.2225 9.79725 16.7438 10.059C17.3363 10.3575 17.5275 10.9327 18.3398 10.9327C18.3808 10.9327 18.4245 10.931 18.471 10.9275C19.0185 10.881 19.2488 10.6688 19.416 10.41C19.62 10.0875 19.626 9.7215 19.5315 9.38025" fill="#558B2F"/>
<path d="M4.84129 5.80316C5.26879 5.38091 6.01279 4.93466 7.10254 5.50316C7.75879 5.84441 8.52229 6.24566 8.17654 7.63316C7.96354 8.49341 6.71029 8.94941 5.66404 7.99091C5.25004 7.61216 3.67504 6.95441 4.84129 5.80316Z" fill="#F44336"/>
<path d="M8.42695 7.4525C8.44045 7.12475 8.2717 6.725 8.2132 6.59C8.22295 6.7865 8.3932 7.28375 7.6117 7.9415C7.43129 8.08685 7.21525 8.18124 6.98603 8.21487C6.7568 8.24851 6.52276 8.22015 6.3082 8.13275C6.03295 8.024 5.63695 7.56875 5.3542 7.454C4.30195 7.031 4.7557 5.90375 4.9042 5.75C4.63073 5.94509 4.44529 6.24021 4.3882 6.57125C4.2907 7.07975 4.3807 7.55975 5.0782 8.10875C7.0582 9.67025 7.6657 8.729 7.8817 8.48975C8.1532 8.19725 8.41195 7.81475 8.42695 7.4525Z" fill="#C62828"/>
<path d="M12.3266 4.59833C12.0513 4.46933 11.2638 4.50683 11.1116 5.16308C11.0201 5.55683 11.3088 5.95583 11.5803 5.90933C11.8893 5.85683 11.7251 5.37458 11.9103 5.23808C12.1931 5.03183 12.7128 4.78058 12.3266 4.59833ZM6.51783 5.55458C6.24633 5.37458 5.37783 5.37308 5.11758 6.03833C4.96008 6.43808 5.20533 6.90083 5.50008 6.89333C5.83533 6.88583 5.67408 6.49058 5.95308 6.23933C6.30558 5.92208 6.89808 5.80583 6.51783 5.55458ZM6.38883 11.5621C6.13158 11.3993 5.37033 11.3348 5.05533 11.9311C4.82433 12.3698 5.14158 12.8536 5.41683 12.8408C5.73033 12.8258 5.62533 12.3271 5.82558 12.2146C6.13158 12.0443 6.74883 11.7908 6.38883 11.5621ZM10.7621 16.5548C10.4868 16.4258 9.69858 16.4633 9.54708 17.1196C9.45483 17.5133 9.74358 17.9131 10.0158 17.8658C10.3248 17.8133 10.1598 17.3311 10.3458 17.1946C10.6271 16.9883 11.1468 16.7371 10.7621 16.5548ZM17.8271 8.10233C17.5796 7.92683 16.7981 7.82333 16.5318 8.44208C16.3721 8.81333 16.5843 9.25808 16.8596 9.25958C17.1731 9.26108 17.0958 8.75858 17.3043 8.65733C17.6171 8.50583 18.1743 8.34983 17.8271 8.10233Z" fill="white"/>
</svg>
