<svg width="25" height="25" viewBox="0 0 25 25" fill="none" xmlns="http://www.w3.org/2000/svg">
<path d="M9.21 8.21283L11.5 5.91283V15.5028C11.5 15.768 11.6054 16.0224 11.7929 16.2099C11.9804 16.3975 12.2348 16.5028 12.5 16.5028C12.7652 16.5028 13.0196 16.3975 13.2071 16.2099C13.3946 16.0224 13.5 15.768 13.5 15.5028V5.91283L15.79 8.21283C15.883 8.30655 15.9936 8.38095 16.1154 8.43172C16.2373 8.48249 16.368 8.50862 16.5 8.50862C16.632 8.50862 16.7627 8.48249 16.8846 8.43172C17.0064 8.38095 17.117 8.30655 17.21 8.21283C17.3037 8.11986 17.3781 8.00926 17.4289 7.8874C17.4797 7.76554 17.5058 7.63484 17.5058 7.50283C17.5058 7.37081 17.4797 7.24011 17.4289 7.11825C17.3781 6.99639 17.3037 6.88579 17.21 6.79283L13.21 2.79283C13.1149 2.70179 13.0028 2.63042 12.88 2.58283C12.6365 2.48281 12.3635 2.48281 12.12 2.58283C11.9972 2.63042 11.8851 2.70179 11.79 2.79283L7.79 6.79283C7.69676 6.88606 7.6228 6.99676 7.57234 7.11858C7.52188 7.2404 7.49591 7.37097 7.49591 7.50283C7.49591 7.63469 7.52188 7.76525 7.57234 7.88708C7.6228 8.0089 7.69676 8.11959 7.79 8.21283C7.88324 8.30606 7.99393 8.38003 8.11575 8.43049C8.23757 8.48095 8.36814 8.50692 8.5 8.50692C8.63186 8.50692 8.76243 8.48095 8.88425 8.43049C9.00607 8.38003 9.11676 8.30606 9.21 8.21283ZM21.5 12.5028C21.2348 12.5028 20.9804 12.6082 20.7929 12.7957C20.6054 12.9833 20.5 13.2376 20.5 13.5028V19.5028C20.5 19.768 20.3946 20.0224 20.2071 20.2099C20.0196 20.3975 19.7652 20.5028 19.5 20.5028H5.5C5.23478 20.5028 4.98043 20.3975 4.79289 20.2099C4.60536 20.0224 4.5 19.768 4.5 19.5028V13.5028C4.5 13.2376 4.39464 12.9833 4.20711 12.7957C4.01957 12.6082 3.76522 12.5028 3.5 12.5028C3.23478 12.5028 2.98043 12.6082 2.79289 12.7957C2.60536 12.9833 2.5 13.2376 2.5 13.5028V19.5028C2.5 20.2985 2.81607 21.0615 3.37868 21.6241C3.94129 22.1868 4.70435 22.5028 5.5 22.5028H19.5C20.2956 22.5028 21.0587 22.1868 21.6213 21.6241C22.1839 21.0615 22.5 20.2985 22.5 19.5028V13.5028C22.5 13.2376 22.3946 12.9833 22.2071 12.7957C22.0196 12.6082 21.7652 12.5028 21.5 12.5028Z" fill="white"/>
</svg>
