<svg width="18" height="19" viewBox="0 0 18 19" fill="none" xmlns="http://www.w3.org/2000/svg">
<g clip-path="url(#clip0_8443_26190)">
<path d="M14.4 0.5H3.6C1.61178 0.5 0 2.11178 0 4.1V14.9C0 16.8882 1.61178 18.5 3.6 18.5H14.4C16.3882 18.5 18 16.8882 18 14.9V4.1C18 2.11178 16.3882 0.5 14.4 0.5Z" fill="url(#paint0_linear_8443_26190)"/>
<path d="M14.4 0.5H3.6C1.61178 0.5 0 2.11178 0 4.1V14.9C0 16.8882 1.61178 18.5 3.6 18.5H14.4C16.3882 18.5 18 16.8882 18 14.9V4.1C18 2.11178 16.3882 0.5 14.4 0.5Z" fill="url(#paint1_linear_8443_26190)"/>
<path d="M6.99078 6.57316C6.53559 6.34556 6 6.67657 6 7.18551V11.8163C6 12.3252 6.53559 12.6562 6.99078 12.4286L11.6215 10.1132C12.1262 9.86094 12.1262 9.14085 11.6215 8.88852L6.99078 6.57316Z" fill="url(#paint2_linear_8443_26190)"/>
</g>
<defs>
<linearGradient id="paint0_linear_8443_26190" x1="9" y1="0.5" x2="9" y2="18.5" gradientUnits="userSpaceOnUse">
<stop stop-color="#00E676"/>
<stop offset="1" stop-color="#00C853"/>
</linearGradient>
<linearGradient id="paint1_linear_8443_26190" x1="900" y1="0.5" x2="900" y2="1800.5" gradientUnits="userSpaceOnUse">
<stop stop-color="#EDEEF4"/>
<stop offset="1" stop-color="#D7D8E6"/>
</linearGradient>
<linearGradient id="paint2_linear_8443_26190" x1="-288" y1="606.679" x2="-288" y2="6.5" gradientUnits="userSpaceOnUse">
<stop stop-color="#C3C4D4"/>
<stop offset="1" stop-color="#AEAFC8"/>
</linearGradient>
<clipPath id="clip0_8443_26190">
<rect width="18" height="18" fill="white" transform="translate(0 0.5)"/>
</clipPath>
</defs>
</svg>
