<svg width="25" height="25" viewBox="0 0 25 25" fill="none" xmlns="http://www.w3.org/2000/svg">
<path d="M17.747 8.7515C17.7534 8.95277 17.7192 9.15327 17.6466 9.34109C17.5739 9.52891 17.4643 9.70021 17.3242 9.84484C17.1841 9.98946 17.0163 10.1045 16.8309 10.183C16.6454 10.2615 16.4461 10.302 16.2447 10.302C16.0434 10.302 15.8441 10.2615 15.6586 10.183C15.4732 10.1045 15.3054 9.98946 15.1653 9.84484C15.0252 9.70021 14.9156 9.52891 14.8429 9.34109C14.7703 9.15327 14.7361 8.95277 14.7425 8.7515C14.7548 8.36129 14.9185 7.9912 15.1989 7.71954C15.4793 7.44788 15.8543 7.29598 16.2447 7.29598C16.6351 7.29598 17.0102 7.44788 17.2906 7.71954C17.571 7.9912 17.7347 8.36129 17.747 8.7515ZM3.5 7.25C3.5 6.25544 3.89509 5.30161 4.59835 4.59835C5.30161 3.89509 6.25544 3.5 7.25 3.5H17.747C18.7416 3.5 19.6954 3.89509 20.3986 4.59835C21.1019 5.30161 21.497 6.25544 21.497 7.25V9.587C21.0039 9.47852 20.4945 9.46681 19.997 9.5525V7.25C19.997 6.65326 19.7599 6.08097 19.338 5.65901C18.916 5.23705 18.3437 5 17.747 5H7.25C6.65326 5 6.08097 5.23705 5.65901 5.65901C5.23705 6.08097 5 6.65326 5 7.25V17.747C5 18.095 5.078 18.4235 5.219 18.7175L10.6955 13.241C11.1737 12.7629 11.8223 12.4942 12.4985 12.4942C13.1747 12.4942 13.8233 12.7629 14.3015 13.241L14.8115 13.751L13.7525 14.8115L13.241 14.3015C13.1435 14.204 13.0277 14.1266 12.9003 14.0739C12.7729 14.0211 12.6364 13.9939 12.4985 13.9939C12.3606 13.9939 12.2241 14.0211 12.0967 14.0739C11.9693 14.1266 11.8535 14.204 11.756 14.3015L6.2795 19.7765C6.5735 19.9175 6.902 19.997 7.25 19.997H9.944L9.569 21.497H7.25C6.25544 21.497 5.30161 21.1019 4.59835 20.3987C3.89509 19.6954 3.5 18.7416 3.5 17.747V7.25ZM20.3945 11.0105C19.8685 11.0703 19.3783 11.3066 19.004 11.681L12.575 18.113C12.055 18.6351 11.6815 19.2849 11.492 19.997L11.4785 20.0465L11.024 21.863C10.9856 22.0164 10.9875 22.1771 11.0297 22.3294C11.0718 22.4818 11.1528 22.6207 11.2645 22.7325C11.3763 22.8442 11.5152 22.9252 11.6676 22.9673C11.8199 23.0095 11.9806 23.0114 12.134 22.973L13.949 22.5185C14.6807 22.3339 15.3491 21.9557 15.884 21.4235L22.316 14.9915C22.6599 14.6483 22.8884 14.2066 22.9699 13.7277C23.0514 13.2487 22.9817 12.7563 22.7707 12.3187C22.5597 11.8811 22.2176 11.5201 21.7921 11.2856C21.3666 11.0512 20.8786 10.9551 20.396 11.0105" fill="#8837E9"/>
</svg>
