<svg width="24" height="25" viewBox="0 0 24 25" fill="none" xmlns="http://www.w3.org/2000/svg">
<path d="M17.247 9.22025C17.2534 9.42152 17.2192 9.62202 17.1466 9.80984C17.0739 9.99766 16.9643 10.169 16.8242 10.3136C16.6841 10.4582 16.5163 10.5732 16.3309 10.6517C16.1454 10.7303 15.9461 10.7707 15.7447 10.7707C15.5434 10.7707 15.3441 10.7303 15.1586 10.6517C14.9732 10.5732 14.8054 10.4582 14.6653 10.3136C14.5252 10.169 14.4156 9.99766 14.3429 9.80984C14.2703 9.62202 14.2361 9.42152 14.2425 9.22025C14.2548 8.83005 14.4185 8.45995 14.6989 8.18829C14.9793 7.91663 15.3543 7.76473 15.7447 7.76473C16.1351 7.76473 16.5102 7.91663 16.7906 8.18829C17.071 8.45995 17.2347 8.83005 17.247 9.22025ZM3 7.71875C3 6.72419 3.39509 5.77036 4.09835 5.0671C4.80161 4.36384 5.75544 3.96875 6.75 3.96875H17.247C18.2416 3.96875 19.1954 4.36384 19.8986 5.0671C20.6019 5.77036 20.997 6.72419 20.997 7.71875V10.0557C20.5039 9.94727 19.9945 9.93556 19.497 10.0212V7.71875C19.497 7.12201 19.2599 6.54972 18.838 6.12776C18.416 5.7058 17.8437 5.46875 17.247 5.46875H6.75C6.15326 5.46875 5.58097 5.7058 5.15901 6.12776C4.73705 6.54972 4.5 7.12201 4.5 7.71875V18.2157C4.5 18.5637 4.578 18.8923 4.719 19.1863L10.1955 13.7098C10.6737 13.2316 11.3223 12.963 11.9985 12.963C12.6747 12.963 13.3233 13.2316 13.8015 13.7098L14.3115 14.2197L13.2525 15.2803L12.741 14.7703C12.6435 14.6727 12.5277 14.5954 12.4003 14.5426C12.2729 14.4898 12.1364 14.4627 11.9985 14.4627C11.8606 14.4627 11.7241 14.4898 11.5967 14.5426C11.4693 14.5954 11.3535 14.6727 11.256 14.7703L5.7795 20.2453C6.0735 20.3863 6.402 20.4657 6.75 20.4657H9.444L9.069 21.9657H6.75C5.75544 21.9657 4.80161 21.5707 4.09835 20.8674C3.39509 20.1641 3 19.2103 3 18.2157V7.71875ZM19.8945 11.4792C19.3685 11.539 18.8783 11.7754 18.504 12.1497L12.075 18.5817C11.555 19.1039 11.1815 19.7536 10.992 20.4657L10.9785 20.5153L10.524 22.3317C10.4856 22.4851 10.4875 22.6458 10.5297 22.7982C10.5718 22.9506 10.6528 23.0894 10.7645 23.2012C10.8763 23.313 11.0152 23.3939 11.1676 23.4361C11.3199 23.4782 11.4806 23.4802 11.634 23.4417L13.449 22.9872C14.1807 22.8027 14.8491 22.4244 15.384 21.8923L21.816 15.4603C22.1599 15.1171 22.3884 14.6754 22.4699 14.1964C22.5514 13.7175 22.4817 13.225 22.2707 12.7875C22.0597 12.3499 21.7176 11.9888 21.2921 11.7544C20.8666 11.52 20.3786 11.4238 19.896 11.4792" fill="#BABABA"/>
</svg>
