<svg width="24" height="24" viewBox="0 0 24 24" fill="none" xmlns="http://www.w3.org/2000/svg">
<g clip-path="url(#clip0_5494_79354)">
<path d="M20.176 14.5054L19.1211 23.9999H14.5057L12.0002 22.4175L9.49468 23.9999H3.29688V15.5603L20.176 14.5054Z" fill="#FF3B3B"/>
<path d="M3.29688 12.3955V15.5603H19.1211V23.9999H20.7035V12.3955H3.29688Z" fill="#CB2E3E"/>
<path d="M21.7585 7.38477V13.9782H20.176L19.1211 10.6815L20.176 7.38477H21.7585Z" fill="#FF6761"/>
<path d="M20.1745 7.38453V13.9779H14.5042L13.4492 10.4175L14.5042 6.32959L17.2222 7.38453H20.1745Z" fill="#FF9387"/>
<path d="M2.24219 7.38453V13.9779H9.49494L10.5499 10.4175L9.49494 6.32959L6.77687 7.38453H2.24219Z" fill="#FF9387"/>
<path d="M14.5071 12.3955V15.5603L12.0016 17.1428L9.49609 15.5603V12.3955H14.5071Z" fill="#FFB751"/>
<path d="M14.5071 6.32959H9.49609V13.9779H14.5071V6.32959Z" fill="#FFE29E"/>
<path d="M12 7.38444H17.2236C17.7764 7.38444 18.3281 7.16923 18.7501 6.74725C19.594 5.90329 19.594 4.53503 18.7501 3.69107C17.9061 2.84712 16.5373 2.84712 15.6934 3.69107L12.778 4.49652L12 7.38444Z" fill="#FFB751"/>
<path d="M12.0003 2.16106L10.9453 3.74363L12.0003 7.38462L15.6936 3.69125C16.085 3.29987 16.3229 2.75815 16.3229 2.16106C16.3229 0.967385 15.355 0 14.1613 0C12.9676 0 12.0003 0.967385 12.0003 2.16106Z" fill="#FFD764"/>
<path d="M7.67969 2.16106C7.67969 2.75815 7.91758 3.29987 8.30896 3.69125L9.06167 6.55385L12.0023 7.38462V2.16106C12.0023 0.967385 11.0349 0 9.84127 0C8.6476 0 7.67969 0.967385 7.67969 2.16106Z" fill="#FFE29E"/>
<path d="M5.25015 3.69107C4.4062 4.53503 4.4062 5.90329 5.25015 6.74725C5.67213 7.16923 6.22387 7.38444 6.77666 7.38444H9.49473H10.5233H12.0002L8.30686 3.69107C7.4629 2.84712 6.09411 2.84712 5.25015 3.69107Z" fill="#FFD764"/>
<path d="M14.5071 15.5605H9.49609V24.0001H14.5071V15.5605Z" fill="#FFD764"/>
</g>
<defs>
<clipPath id="clip0_5494_79354">
<rect width="24" height="24" fill="white"/>
</clipPath>
</defs>
</svg>
