<svg width="24" height="24" viewBox="0 0 24 24" fill="none" xmlns="http://www.w3.org/2000/svg">
<g clip-path="url(#clip0_5494_79301)">
<path d="M12 23.25C18.2132 23.25 23.25 18.2132 23.25 12C23.25 5.7868 18.2132 0.75 12 0.75C5.7868 0.75 0.75 5.7868 0.75 12C0.75 18.2132 5.7868 23.25 12 23.25Z" fill="#FFDD67"/>
<path opacity="0.8" d="M19.0508 16.5C20.7076 16.5 22.0508 15.1569 22.0508 13.5C22.0508 11.8431 20.7076 10.5 19.0508 10.5C17.3939 10.5 16.0508 11.8431 16.0508 13.5C16.0508 15.1569 17.3939 16.5 19.0508 16.5Z" fill="#FF717F"/>
<path opacity="0.8" d="M4.94922 16.5C6.60607 16.5 7.94922 15.1569 7.94922 13.5C7.94922 11.8431 6.60607 10.5 4.94922 10.5C3.29236 10.5 1.94922 11.8431 1.94922 13.5C1.94922 15.1569 3.29236 16.5 4.94922 16.5Z" fill="#FF717F"/>
<path d="M16.7236 15.1127C13.6861 17.2502 10.3111 17.2127 7.2736 15.1127C6.8986 14.8502 6.5986 15.3002 6.8236 15.7127C7.7611 17.2127 9.5986 18.6002 11.9986 18.6002C14.3986 18.6002 16.2361 17.2502 17.1736 15.7127C17.3986 15.3002 17.0986 14.8502 16.7236 15.1127Z" fill="#664E27"/>
<path d="M10.6856 10.0877C9.97306 8.17519 8.92306 7.2002 7.87306 7.2002C6.82306 7.2002 5.77306 8.17519 5.06056 10.0877C4.98556 10.2752 5.36056 10.6127 5.54806 10.4252C6.22306 9.71269 7.04806 9.4127 7.87306 9.4127C8.69806 9.4127 9.52306 9.71269 10.1981 10.4252C10.4231 10.6127 10.7606 10.2752 10.6856 10.0877Z" fill="#664E27"/>
<path d="M18.8965 10.0877C18.184 8.17519 17.134 7.2002 16.084 7.2002C15.034 7.2002 13.984 8.17519 13.2715 10.0877C13.1965 10.2752 13.5715 10.6127 13.759 10.4252C14.434 9.71269 15.259 9.4127 16.084 9.4127C16.909 9.4127 17.734 9.71269 18.409 10.4252C18.5965 10.6127 18.9715 10.2752 18.8965 10.0877Z" fill="#664E27"/>
</g>
<defs>
<clipPath id="clip0_5494_79301">
<rect width="24" height="24" fill="white"/>
</clipPath>
</defs>
</svg>
