<svg width="24" height="24" viewBox="0 0 24 24" fill="none" xmlns="http://www.w3.org/2000/svg">
<g clip-path="url(#clip0_5494_79321)">
<path d="M23.983 5.51414C23.9215 5.31689 23.7126 5.20476 23.5135 5.26739C17.1648 7.24398 6.8352 7.24398 0.486504 5.26739C0.290378 5.20551 0.0788765 5.31651 0.0170012 5.51414C-0.0444992 5.71176 0.0661264 5.92214 0.263753 5.98364C1.61901 6.40552 3.1531 6.73777 4.78956 6.98265L4.06918 9.11749C4.00281 9.31361 4.10818 9.52662 4.30468 9.59299C4.34406 9.60612 4.38493 9.61287 4.42431 9.61287C4.58068 9.61287 4.72693 9.51386 4.77943 9.35749L5.54481 7.08877C7.48615 7.34302 9.55167 7.47728 11.625 7.4919V9.75049C11.625 9.95749 11.7926 10.1255 12 10.1255C12.2074 10.1255 12.375 9.95749 12.375 9.75049V7.4919C14.4911 7.47728 16.5975 7.33777 18.5733 7.0734L19.344 9.35786C19.3968 9.51424 19.5423 9.61324 19.6991 9.61324C19.7385 9.61324 19.779 9.60649 19.8183 9.59337C20.0145 9.52699 20.1202 9.31436 20.0542 9.11786L19.3275 6.9654C20.9197 6.72165 22.4137 6.39539 23.7359 5.98402C23.9339 5.92214 24.0445 5.71176 23.983 5.51414Z" fill="#485B6A"/>
<path d="M13.875 12.0005H10.125C9.60225 12.4655 9.375 13.1311 9.375 13.871C9.375 15.66 10.3703 17.6566 11.3467 18.5265C11.4783 18.6435 11.8335 18.7504 12 18.7504C12.1661 18.7504 12.5227 18.6435 12.654 18.5265C13.6305 17.6569 14.6249 15.6604 14.6249 13.871C14.625 13.1311 14.3974 12.4655 13.875 12.0005Z" fill="#FCD063"/>
<path d="M13.8762 12.0005H13.6602C13.8057 12.3387 13.8762 12.7182 13.8762 13.121C13.8762 14.9101 12.8817 16.907 11.9053 17.7766C11.774 17.8936 11.4178 18.0004 11.2516 18.0004C11.1346 18.0004 10.9261 17.9461 10.7656 17.8744C10.9554 18.1294 11.1519 18.3514 11.3484 18.5266C11.48 18.6436 11.8351 18.7504 12.0016 18.7504C12.1678 18.7504 12.5244 18.6436 12.6556 18.5266C13.6318 17.6569 14.6262 15.6605 14.6262 13.871C14.6262 13.1311 14.3986 12.4655 13.8762 12.0005Z" fill="#F7B84E"/>
<path d="M13.125 10.8755V10.1255C13.125 9.91924 12.9566 9.75049 12.75 9.75049H11.25C11.0438 9.75049 10.875 9.91924 10.875 10.1255V10.8755L10.125 12.0005H13.875L13.125 10.8755Z" fill="#E2E5E7"/>
<path d="M12.75 9.75049H12V12.0005H13.875L13.125 10.8754V10.1254C13.125 9.91924 12.9566 9.75049 12.75 9.75049Z" fill="#D1D9E1"/>
<path d="M13.125 10.5H10.875V10.875H13.125V10.5Z" fill="#D1D9E1"/>
<path d="M10.634 15.3753C10.565 15.3753 10.4968 15.3423 10.4582 15.2823C10.4484 15.2669 9.47453 13.7149 10.9029 12.429C10.985 12.3551 11.1148 12.3585 11.1935 12.4346C11.2715 12.5119 11.2685 12.6337 11.1868 12.7076C9.99315 13.7827 10.7758 15.0299 10.8095 15.0828C10.868 15.1739 10.8373 15.2928 10.7405 15.3479C10.7072 15.3663 10.6708 15.3753 10.634 15.3753Z" fill="#FFEEBD"/>
<path d="M22.2491 10.6802L18.741 12.0036C18.4158 12.6238 18.4376 13.3262 18.6993 14.0184C19.3308 15.6927 20.9662 17.2096 22.1872 17.6791C22.3514 17.7421 22.7212 17.7166 22.8772 17.6577C23.0332 17.5989 23.3283 17.3735 23.4104 17.2175C24.0168 16.0587 24.2433 13.8399 23.6118 12.1659C23.3501 11.4736 22.9016 10.9314 22.2491 10.6802Z" fill="#F15642"/>
<path d="M22.2479 10.6802L22.0458 10.7567C22.3015 11.0218 22.5014 11.3518 22.6435 11.7291C23.275 13.4034 23.0493 15.6219 22.4422 16.781C22.3608 16.9366 22.0649 17.1624 21.9097 17.2209C21.7998 17.2625 21.586 17.2854 21.4102 17.2745C21.6775 17.4466 21.9404 17.585 22.1857 17.6795C22.3499 17.7425 22.7197 17.717 22.8757 17.6581C23.0317 17.5992 23.3268 17.3739 23.4089 17.2179C24.0153 16.0591 24.2418 13.8403 23.6103 12.1663C23.3489 11.4736 22.9004 10.9314 22.2479 10.6802Z" fill="#E4513F"/>
<path d="M21.1477 9.89321L20.8833 9.19121C20.8102 8.99808 20.5927 8.90021 20.3999 8.97258L18.9967 9.50209C18.8032 9.57446 18.7053 9.79196 18.7777 9.98546L19.0428 10.6871L18.7383 12.0041L22.2464 10.6807L21.1477 9.89321Z" fill="#E2E5E7"/>
<path d="M20.4008 8.97274L19.6992 9.23787L20.4931 11.3427L22.2473 10.6805L21.1486 9.89295L20.8842 9.19094C20.8111 8.99824 20.5936 8.89999 20.4008 8.97274Z" fill="#D1D9E1"/>
<path d="M19.0434 10.6888L21.1484 9.89453L21.0161 9.54368L18.911 10.3379L19.0434 10.6888Z" fill="#D1D9E1"/>
<path d="M20.4078 14.9828C20.3433 15.0068 20.2672 15.0004 20.2102 14.9573C20.1955 14.9471 18.7372 13.839 19.6192 12.1309C19.6698 12.0327 19.7928 11.9903 19.8929 12.0334C19.9934 12.0781 20.0335 12.1932 19.9829 12.2914C19.246 13.7183 20.4187 14.6096 20.4685 14.6468C20.5555 14.7113 20.569 14.8335 20.4978 14.9186C20.473 14.9483 20.4415 14.9696 20.4078 14.9828Z" fill="#F48473"/>
<path d="M5.45203 11.837L1.89068 10.6636C1.2483 10.9418 0.824171 11.5021 0.592795 12.2052C0.0325416 13.9046 0.353168 16.1123 1.00792 17.244C1.09642 17.3966 1.40017 17.6092 1.55843 17.661C1.7163 17.7131 2.0883 17.7236 2.24918 17.6535C3.44919 17.133 5.01852 15.5483 5.5784 13.8487C5.81053 13.1461 5.8019 12.443 5.45203 11.837Z" fill="#008DD0"/>
<path d="M5.45376 11.8365L5.24864 11.769C5.28089 12.1362 5.22914 12.5183 5.10276 12.9012C4.54288 14.6003 2.97354 16.1854 1.77354 16.7059C1.61191 16.776 1.24028 16.7655 1.08278 16.7138C0.971033 16.677 0.790657 16.5604 0.660156 16.4419C0.760657 16.7438 0.877658 17.016 1.00966 17.2437C1.09816 17.3963 1.40191 17.6089 1.56016 17.6607C1.71804 17.7128 2.09004 17.7233 2.25092 17.6532C3.45092 17.1327 5.02026 15.5479 5.58014 13.8484C5.81226 13.1457 5.80364 12.4425 5.45376 11.8365Z" fill="#0076AF"/>
<path d="M5.09202 10.5339L5.32677 9.82138C5.39165 9.626 5.28402 9.41262 5.08827 9.34812L3.66326 8.87862C3.46788 8.81412 3.25451 8.92137 3.18963 9.1175L2.95488 9.82963L1.89062 10.6636L5.45197 11.837L5.09202 10.5339Z" fill="#E2E5E7"/>
<path d="M5.08863 9.34852L4.37575 9.11377L3.67188 11.2505L5.45271 11.837L5.09234 10.5339L5.32709 9.82135C5.39164 9.62602 5.28401 9.41302 5.08863 9.34852Z" fill="#D1D9E1"/>
<path d="M2.95664 9.82942L5.09375 10.5337L5.21113 10.1775L3.07402 9.47325L2.95664 9.82942Z" fill="#D1D9E1"/>
<path d="M1.31839 14.0281C1.25314 14.006 1.19839 13.9535 1.18114 13.8845C1.17626 13.8669 0.736758 12.0886 2.49589 11.3139C2.59714 11.2693 2.71977 11.3131 2.77039 11.4099C2.82065 11.5078 2.77902 11.6221 2.67889 11.6671C1.20889 12.3151 1.56176 13.7446 1.57714 13.805C1.60376 13.9096 1.53776 14.0131 1.42864 14.0349C1.39114 14.042 1.35326 14.039 1.31839 14.0281Z" fill="#92CDEB"/>
</g>
<defs>
<clipPath id="clip0_5494_79321">
<rect width="24" height="24" fill="white"/>
</clipPath>
</defs>
</svg>
