<svg width="24" height="24" viewBox="0 0 24 24" fill="none" xmlns="http://www.w3.org/2000/svg">
<path d="M10.0674 8.69454C9.577 8.09165 8.69257 8.00024 8.09257 8.48875C7.49155 8.97914 7.39964 9.86169 7.88798 10.4641L17.9588 22.1056C18.4466 22.7066 19.3285 22.7968 19.9327 22.3088C20.5333 21.8196 20.6245 20.9359 20.1355 20.3354L10.0674 8.69454Z" fill="#0092D2"/>
<path d="M3.22152 2.51004L3.19905 2.5L4.36739 7.24689L1.12109 10.9003L5.99616 11.2549L8.4668 15.4719L9.67531 12.5065L17.9647 22.0883C18.4375 22.6712 19.2794 22.7688 19.8811 22.3291L3.22152 2.51004Z" fill="#0085BF"/>
<path d="M3.19497 2.51716L7.67276 4.47665L11.8258 1.89844L11.3466 6.76227L15.0821 9.91529L10.3073 10.9629L8.4634 15.4891L5.99208 11.2721L1.11719 10.9173L4.364 7.26388L3.19497 2.51716Z" fill="#F5B146"/>
<path d="M5.87504 5.89509L7.90415 6.78258L9.78551 5.61475L9.56849 7.81849L11.2614 9.24709L9.09751 9.72181L8.26176 11.7722L7.14228 9.86121L4.93359 9.70121L6.40474 8.04555L5.87504 5.89509Z" fill="#E5226B"/>
<path d="M10.3061 10.9629L10.3173 10.9605L3.23562 2.53516L3.20992 2.52393L4.37707 7.2669L1.13281 10.9185L5.99086 11.272L5.99222 11.2737L6.006 11.2751L8.46728 15.4764L10.3061 10.9629Z" fill="#EF962F"/>
<path d="M9.24457 9.68972L6.16032 6.01993L5.87504 5.89551L6.40474 8.04598L4.93359 9.70164L7.14228 9.86164L8.26176 11.7726L9.09751 9.72223L9.24457 9.68972Z" fill="#C9005B"/>
</svg>
