<svg width="24" height="24" viewBox="0 0 24 24" fill="none" xmlns="http://www.w3.org/2000/svg">
<g clip-path="url(#clip0_5494_79372)">
<path d="M4.55078 16.1379H19.8611V7.44824H4.55078V16.1379Z" fill="#FDC794"/>
<path d="M21.1052 11.586C19.8799 11.586 18.8343 10.8239 18.4114 9.74883C18.5384 10.912 18.8504 12.0532 19.2754 13.1688C19.3552 13.379 19.3999 13.6025 19.4032 13.8342C19.4202 15.0334 18.2549 16.0757 16.8269 16.1349C15.8309 16.1763 14.9466 15.7666 14.4364 15.1285C13.942 14.5099 13.1661 14.0953 12.2785 14.0725C12.1871 14.07 12.0948 14.0688 12.0017 14.0688C11.9085 14.0688 11.8163 14.07 11.7248 14.0725C10.8372 14.0953 10.0614 14.5099 9.56689 15.1285C9.0567 15.7666 8.1724 16.1762 7.1764 16.1349C5.7484 16.0757 4.58318 15.0334 4.6001 13.8342C4.60343 13.6025 4.6481 13.3791 4.72798 13.1688C5.19228 11.9506 5.5332 10.703 5.63168 9.42773L3.10878 9.8887C2.65165 11.6858 0.969167 19.6294 6.17426 22.3447C6.17426 22.3447 6.52723 21.8337 6.52723 21.1033C6.52723 21.1033 6.8802 23.9999 11.9632 23.9999C17.0463 23.9999 17.4456 21.1033 17.4456 21.1033C17.4456 21.8337 17.8449 22.3447 17.8449 22.3447C22.0255 20.164 21.747 14.6122 21.2355 11.5794C21.1921 11.5815 21.149 11.586 21.1052 11.586Z" fill="#E6E7E8"/>
<path d="M16.6961 17.7931C14.1008 19.9999 9.90044 19.9999 7.30469 17.7931C9.90039 17.7931 12.0004 17.009 12.0004 16.5518C12.0004 17.009 14.1008 17.7931 16.6961 17.7931Z" fill="#FDC794"/>
<path d="M11.9994 18.207C12.9176 18.207 13.7216 17.9421 14.1863 17.5441C12.8729 17.2755 11.9994 16.8464 11.9994 16.5518C11.9994 16.8464 11.1259 17.2755 9.8125 17.5441C10.2772 17.9421 11.0812 18.207 11.9994 18.207Z" fill="#D14A41"/>
<path d="M11.9934 22.3446H11.976C11.1137 22.3392 10.3511 21.9428 9.98525 21.3101C9.87106 21.1123 9.93846 20.8595 10.1363 20.7449C10.3341 20.6298 10.5873 20.6981 10.7015 20.8963C10.9212 21.2758 11.4111 21.5137 11.9809 21.517C12.5487 21.5095 13.0668 21.2807 13.298 20.8917C13.4151 20.6952 13.668 20.6306 13.8654 20.7477C14.0619 20.8644 14.126 21.1181 14.0094 21.3146C13.6312 21.9511 12.8599 22.3446 11.9934 22.3446Z" fill="#BDC2C6"/>
<path d="M3.03811 10.1716C2.75217 10.0234 2.43192 9.93115 2.08678 9.93115C0.934359 9.93115 0 10.8572 0 12.0001C0 13.1426 0.934359 14.0691 2.08678 14.0691C2.22956 14.0691 2.36611 14.0467 2.49975 14.0174C2.56969 12.3841 2.85192 10.9582 3.03811 10.1716Z" fill="#FDC794"/>
<path d="M23.3572 10.5098C22.8515 11.1346 22.0913 11.5418 21.2344 11.5798C21.3527 12.2824 21.4587 13.1154 21.4996 14.0171C21.6341 14.0465 21.771 14.0692 21.9146 14.0692C23.0675 14.0692 24.0018 13.1427 24.0018 12.0002C24.0018 11.4135 23.7532 10.8863 23.3572 10.5098Z" fill="#FDC794"/>
<path d="M18.208 8.68957C18.208 7.43454 19.0074 6.36902 20.1238 5.96679L17.2488 5.44127C13.7792 4.80734 10.223 4.80734 6.75334 5.44127L2.58892 6.20266C2.04977 6.30115 1.65625 6.79273 1.65625 7.36751V8.74793C1.65625 9.48199 2.28606 10.039 2.97461 9.91315L7.09516 9.16005C10.3389 8.56709 13.6633 8.56709 16.907 9.16005L18.3032 9.41538C18.2431 9.18284 18.208 8.94077 18.208 8.68957Z" fill="#A6352B"/>
<path d="M21.105 5.79309C21.3785 5.79309 21.6425 5.83364 21.8933 5.90442C21.4998 4.20291 18.141 0 12.4154 0C7.01536 0 4.37039 4.85545 3.83203 5.97558L6.75384 5.44139C10.2235 4.80745 13.7797 4.80745 17.2493 5.44139L20.1243 5.96691C20.4309 5.85642 20.7603 5.79309 21.105 5.79309Z" fill="#BE3A2B"/>
<path d="M21.1017 6.20684C20.9921 6.20684 20.8824 6.16339 20.8013 6.07775C20.779 6.05417 18.5366 3.72411 15.7224 3.72411C15.494 3.72411 15.3086 3.53914 15.3086 3.3103C15.3086 3.08187 15.494 2.89648 15.7224 2.89648C18.8987 2.89648 21.3016 5.40242 21.4025 5.50916C21.5594 5.67509 21.5519 5.93661 21.386 6.09383C21.3062 6.1692 21.204 6.20684 21.1017 6.20684Z" fill="#A6352B"/>
<path d="M13.2406 12.4135C13.2406 12.8707 12.6849 14.0687 11.9992 14.0687C11.3136 14.0687 10.7578 12.8707 10.7578 12.4135C10.7578 11.9567 11.3135 11.5859 11.9992 11.5859C12.6849 11.5859 13.2406 11.9567 13.2406 12.4135Z" fill="#F9A671"/>
<path d="M9.10388 11.9999C8.87545 11.9999 8.69006 11.8145 8.69006 11.5861C8.69006 11.3656 8.4 11.1723 8.06939 11.1723C7.73878 11.1723 7.44872 11.3655 7.44872 11.5861C7.44872 11.8145 7.26333 11.9999 7.03491 11.9999C6.80648 11.9999 6.62109 11.8145 6.62109 11.5861C6.62109 10.9017 7.27073 10.3447 8.06939 10.3447C8.86805 10.3447 9.51769 10.9017 9.51769 11.5861C9.51769 11.8145 9.3323 11.9999 9.10388 11.9999Z" fill="#F9A671"/>
<path d="M16.9672 11.9999C16.7387 11.9999 16.5533 11.8145 16.5533 11.5861C16.5533 11.3656 16.2633 11.1723 15.9327 11.1723C15.6021 11.1723 15.312 11.3655 15.312 11.5861C15.312 11.8145 15.1266 11.9999 14.8982 11.9999C14.6698 11.9999 14.4844 11.8145 14.4844 11.5861C14.4844 10.9017 15.134 10.3447 15.9327 10.3447C16.7313 10.3447 17.381 10.9017 17.381 11.5861C17.381 11.8145 17.1956 11.9999 16.9672 11.9999Z" fill="#F9A671"/>
<path d="M24.0001 8.68952C24.0001 10.2892 22.7033 11.5861 21.1036 11.5861C19.5039 11.5861 18.207 10.2892 18.207 8.68952C18.207 7.08981 19.5039 5.79297 21.1036 5.79297C22.7033 5.79297 24.0001 7.08981 24.0001 8.68952Z" fill="#D46F67"/>
</g>
<defs>
<clipPath id="clip0_5494_79372">
<rect width="24" height="24" fill="white"/>
</clipPath>
</defs>
</svg>
