<svg width="24" height="24" viewBox="0 0 24 24" fill="none" xmlns="http://www.w3.org/2000/svg">
<path d="M6.33594 12.1506C6.33594 13.6629 6.93667 15.1132 8.00599 16.1825C9.0753 17.2518 10.5256 17.8525 12.0378 17.8525C13.5501 17.8525 15.0004 17.2518 16.0697 16.1825C17.139 15.1132 17.7397 13.6629 17.7397 12.1506C17.7397 11.4018 17.5923 10.6604 17.3057 9.96861C17.0192 9.27682 16.5992 8.64825 16.0697 8.11878C15.5402 7.58931 14.9116 7.16931 14.2199 6.88276C13.5281 6.59621 12.7866 6.44873 12.0378 6.44873C11.2891 6.44873 10.5476 6.59621 9.85582 6.88276C9.16403 7.16931 8.53546 7.58931 8.00599 8.11878C7.47652 8.64825 7.05652 9.27682 6.76997 9.96861C6.48342 10.6604 6.33594 11.4018 6.33594 12.1506Z" fill="#5FCEFF"/>
<path d="M12.0987 23.1121C11.9596 23.1121 11.8262 23.0569 11.7278 22.9585C11.6295 22.8601 11.5742 22.7267 11.5742 22.5876V1.34676C11.5742 1.20765 11.6295 1.07425 11.7278 0.975886C11.8262 0.877524 11.9596 0.822266 12.0987 0.822266C12.2378 0.822266 12.3712 0.877524 12.4696 0.975886C12.5679 1.07425 12.6232 1.20765 12.6232 1.34676V22.5876C12.6232 22.7267 12.5679 22.8601 12.4696 22.9585C12.3712 23.0569 12.2378 23.1121 12.0987 23.1121Z" fill="#4F46A3"/>
<path d="M12.1001 7.31987C12.0312 7.31988 11.963 7.30631 11.8993 7.27996C11.8357 7.2536 11.7779 7.21497 11.7292 7.16627L8.57698 4.014C8.48025 3.91531 8.42637 3.78242 8.42706 3.64423C8.42775 3.50604 8.48295 3.3737 8.58067 3.27598C8.67839 3.17826 8.81073 3.12306 8.94892 3.12237C9.08712 3.12168 9.22 3.17555 9.31869 3.27229L12.1001 6.05375L14.8814 3.27229C14.9302 3.22359 14.988 3.18495 15.0516 3.15859C15.1152 3.13223 15.1834 3.11866 15.2523 3.11865C15.3212 3.11865 15.3894 3.13221 15.453 3.15857C15.5167 3.18492 15.5745 3.22355 15.6232 3.27225C15.6719 3.32096 15.7105 3.37877 15.7369 3.44241C15.7633 3.50604 15.7768 3.57424 15.7768 3.64312C15.7768 3.712 15.7633 3.7802 15.7369 3.84383C15.7106 3.90747 15.6719 3.96529 15.6232 4.014L12.471 7.16627C12.3726 7.26458 12.2392 7.31982 12.1001 7.31987ZM8.9478 20.333C8.84406 20.333 8.74264 20.3022 8.65637 20.2446C8.57011 20.187 8.50287 20.1051 8.46316 20.0093C8.42346 19.9134 8.41308 19.8079 8.43332 19.7062C8.45357 19.6045 8.50354 19.511 8.57691 19.4377L11.7291 16.2854C11.7778 16.2367 11.8356 16.198 11.8993 16.1717C11.9629 16.1453 12.0311 16.1317 12.1 16.1317C12.1689 16.1317 12.2371 16.1453 12.3007 16.1716C12.3644 16.198 12.4222 16.2366 12.4709 16.2853L15.6232 19.4376C15.7215 19.536 15.7767 19.6694 15.7767 19.8085C15.7767 19.9476 15.7215 20.081 15.6232 20.1794C15.5248 20.2777 15.3914 20.3329 15.2523 20.3329C15.1132 20.3329 14.9798 20.2777 14.8814 20.1794L12.1 17.3979L9.31861 20.1793C9.26999 20.2281 9.21219 20.2668 9.14855 20.2932C9.08491 20.3195 9.01669 20.3331 8.9478 20.333ZM21.2971 17.8019C21.2052 17.8019 21.1149 17.7777 21.0354 17.7316L2.64026 7.11112C2.58013 7.07693 2.52735 7.03119 2.48497 6.97652C2.44259 6.92186 2.41145 6.85935 2.39332 6.79259C2.3752 6.72584 2.37046 6.65616 2.37938 6.58757C2.38829 6.51898 2.41069 6.45282 2.44527 6.39292C2.47986 6.33302 2.52595 6.28055 2.5809 6.23853C2.63584 6.19652 2.69856 6.16578 2.76543 6.1481C2.8323 6.13042 2.90201 6.12615 2.97054 6.13552C3.03908 6.14489 3.10508 6.16772 3.16475 6.2027L21.5598 16.8231C21.6803 16.8926 21.7682 17.0072 21.8042 17.1416C21.8402 17.2759 21.8214 17.4191 21.7518 17.5396C21.7058 17.6194 21.6395 17.6857 21.5597 17.7317C21.4798 17.7778 21.3893 17.802 21.2971 17.8019Z" fill="#4F46A3"/>
<path d="M3.31177 11.0597C3.18448 11.0597 3.06153 11.0135 2.96584 10.9295C2.87015 10.8456 2.80825 10.7297 2.79168 10.6035C2.7751 10.4773 2.805 10.3494 2.87578 10.2436C2.94656 10.1378 3.0534 10.0613 3.17638 10.0285L6.97588 9.01038L5.95784 5.21104C5.92184 5.07668 5.94068 4.93353 6.01022 4.81307C6.07976 4.69261 6.1943 4.6047 6.32865 4.56869C6.39518 4.55084 6.46457 4.54628 6.53286 4.55526C6.60115 4.56423 6.667 4.58658 6.72665 4.62102C6.7863 4.65545 6.83859 4.7013 6.88051 4.75595C6.92244 4.8106 6.95319 4.87297 6.971 4.9395L8.12481 9.24551C8.14265 9.31204 8.14721 9.38143 8.13822 9.44972C8.12924 9.51801 8.1069 9.58387 8.07246 9.64352C8.03803 9.70318 7.99218 9.75547 7.93754 9.7974C7.8829 9.83934 7.82053 9.8701 7.754 9.88793L3.44784 11.0417C3.40347 11.0536 3.35772 11.0597 3.31177 11.0597ZM17.3113 19.1424C17.1959 19.1422 17.0837 19.1041 16.9922 19.0338C16.9007 18.9635 16.8349 18.865 16.805 18.7535L15.6513 14.4474C15.6153 14.3131 15.6341 14.1699 15.7037 14.0494C15.7732 13.929 15.8878 13.8411 16.0222 13.8051L20.3283 12.6513C20.4625 12.6158 20.6053 12.635 20.7253 12.7046C20.8454 12.7742 20.933 12.8886 20.9689 13.0226C21.0048 13.1567 20.9862 13.2995 20.917 13.4198C20.8478 13.5401 20.7337 13.6281 20.5998 13.6645L16.8003 14.6826L17.8183 18.482C17.8392 18.5598 17.8418 18.6413 17.8261 18.7202C17.8104 18.7992 17.7768 18.8735 17.7277 18.9373C17.6787 19.0011 17.6156 19.0529 17.5434 19.0884C17.4712 19.124 17.3918 19.1424 17.3113 19.1424ZM2.89997 17.8019C2.78446 17.802 2.67216 17.764 2.58047 17.6937C2.48879 17.6234 2.42287 17.5249 2.39293 17.4133C2.36299 17.3018 2.37071 17.1834 2.41489 17.0767C2.45907 16.97 2.53724 16.8808 2.63728 16.8231L21.0323 6.2027C21.1527 6.13425 21.2953 6.1162 21.429 6.15248C21.5627 6.18877 21.6765 6.27646 21.7458 6.3964C21.815 6.51635 21.834 6.65881 21.7986 6.79271C21.7632 6.92661 21.6763 7.04108 21.5568 7.11112L3.16177 17.7316C3.08222 17.7776 2.99191 17.8019 2.89997 17.8019Z" fill="#4F46A3"/>
<path d="M20.882 11.0595C20.837 11.0595 20.7914 11.0536 20.746 11.0414L16.4399 9.88761C16.3055 9.85161 16.191 9.76371 16.1214 9.64325C16.0519 9.52278 16.033 9.37962 16.069 9.24526L17.2227 4.93926C17.2591 4.80532 17.3471 4.69126 17.4674 4.62207C17.5877 4.55288 17.7306 4.5342 17.8646 4.57011C17.9987 4.60603 18.113 4.69362 18.1827 4.81369C18.2523 4.93377 18.2714 5.07653 18.236 5.21072L17.2179 9.01014L21.0174 10.0283C21.1403 10.0611 21.2472 10.1375 21.318 10.2433C21.3887 10.3491 21.4186 10.4771 21.4021 10.6033C21.3855 10.7295 21.3236 10.8453 21.2279 10.9293C21.1322 11.0132 21.0093 11.0595 20.882 11.0595ZM6.88238 19.1421C6.80189 19.1422 6.72247 19.1237 6.65026 19.0881C6.57806 19.0526 6.51501 19.0009 6.46599 18.937C6.41698 18.8732 6.38331 18.7989 6.36761 18.72C6.3519 18.641 6.35458 18.5595 6.37542 18.4818L7.39346 14.6824L3.59404 13.6643C3.4601 13.6279 3.34605 13.5399 3.27686 13.4196C3.20767 13.2993 3.18898 13.1564 3.2249 13.0224C3.26082 12.8883 3.34841 12.7739 3.46848 12.7043C3.58855 12.6347 3.73132 12.6156 3.8655 12.651L8.17158 13.8048C8.30595 13.8408 8.42051 13.9287 8.49006 14.0492C8.55962 14.1696 8.57847 14.3128 8.54247 14.4472L7.38867 18.7532C7.3588 18.8647 7.29301 18.9633 7.20148 19.0336C7.10995 19.1039 6.99779 19.142 6.88238 19.1421Z" fill="#4F46A3"/>
</svg>
