<svg width="24" height="24" viewBox="0 0 24 24" fill="none" xmlns="http://www.w3.org/2000/svg">
<g clip-path="url(#clip0_5494_79294)">
<path fill-rule="evenodd" clip-rule="evenodd" d="M20.7901 15.5114C20.5928 20.2228 16.7124 23.9822 11.9525 23.9822C7.06642 23.9822 3.10547 19.8881 3.10547 15.1352C3.10547 14.4999 3.09409 13.2302 4.04665 11.0881C4.61672 9.80615 4.97428 9.00079 5.17606 8.2646C5.28693 7.85999 5.50256 7.21716 6.11724 8.2646C6.47969 8.8822 6.49371 9.77048 6.49371 9.77048C6.49371 9.77048 7.84223 8.73566 8.75253 6.75872C10.087 3.86055 9.02227 2.12813 8.65842 0.923423C8.53249 0.50667 8.45343 -0.242318 9.31724 0.0763639C10.1974 0.401164 12.5244 2.03006 13.7408 3.74695C15.4768 6.1973 16.0937 8.54695 16.0937 8.54695C16.0937 8.54695 16.6496 7.85707 16.8467 7.13519C17.0692 6.32003 17.0725 5.51269 17.7877 6.38234C18.4679 7.20935 19.4781 8.76352 20.0467 10.2411C21.079 12.9243 20.7901 15.5114 20.7901 15.5114Z" fill="url(#paint0_linear_5494_79294)"/>
<path fill-rule="evenodd" clip-rule="evenodd" d="M11.9536 23.9825C8.57486 23.9825 5.83594 21.2436 5.83594 17.8648C5.83594 15.8261 6.65749 14.5884 8.36733 12.9099C9.4621 11.8352 10.4868 10.5152 10.9222 9.61636C11.008 9.43942 11.2031 8.51735 11.9554 9.59697C12.35 10.1632 12.9686 11.1701 13.3653 12.0295C14.0492 13.5112 14.2124 14.9472 14.2124 14.9472C14.2124 14.9472 14.8826 14.5523 15.3418 13.5354C15.4899 13.2077 15.7892 11.967 16.6259 13.2075C17.2398 14.1178 18.0832 15.7545 18.0712 17.8648C18.0712 21.2436 15.3322 23.9825 11.9536 23.9825Z" fill="#FC9502"/>
<path fill-rule="evenodd" clip-rule="evenodd" d="M12.0447 17.2998C12.9153 17.2998 12.9153 18.9119 14.0212 21.0645C14.7576 22.4978 13.6561 23.9822 12.0447 23.9822C10.4333 23.9822 9.59766 22.6759 9.59766 21.0645C9.59766 19.4532 11.1741 17.2998 12.0447 17.2998Z" fill="#FCE202"/>
</g>
<defs>
<linearGradient id="paint0_linear_5494_79294" x1="11.9658" y1="23.9999" x2="11.9658" y2="0.0176344" gradientUnits="userSpaceOnUse">
<stop stop-color="#FF4C0D"/>
<stop offset="1" stop-color="#FC9502"/>
</linearGradient>
<clipPath id="clip0_5494_79294">
<rect width="24" height="24" fill="white"/>
</clipPath>
</defs>
</svg>
