<svg width="244" height="498" viewBox="0 0 244 498" fill="none" xmlns="http://www.w3.org/2000/svg">
<g clip-path="url(#clip0_232_7917)">
<path opacity="0.35" d="M209.949 21.5004H219.678C220.376 21.5004 220.943 22.0666 220.943 22.7651V26.2675C220.943 26.966 220.376 27.5323 219.678 27.5323H209.949C209.25 27.5323 208.684 26.966 208.684 26.2675V22.7651C208.684 22.0666 209.25 21.5004 209.949 21.5004Z" stroke="black" stroke-width="0.583732"/>
<path opacity="0.4" d="M221.818 23.3491V25.684C222.288 25.4863 222.593 25.0263 222.593 24.5166C222.593 24.0069 222.288 23.5469 221.818 23.3491" fill="black"/>
<path d="M209.56 23.1543C209.56 22.7244 209.908 22.376 210.338 22.376H219.289C219.719 22.376 220.067 22.7244 220.067 23.1543V25.8784C220.067 26.3082 219.719 26.6567 219.289 26.6567H210.338C209.908 26.6567 209.56 26.3082 209.56 25.8784V23.1543Z" fill="black"/>
<path fill-rule="evenodd" clip-rule="evenodd" d="M200.997 22.5364C202.29 22.5364 203.534 23.0334 204.472 23.9247C204.542 23.9935 204.655 23.9926 204.724 23.9227L205.399 23.2417C205.434 23.2063 205.454 23.1583 205.454 23.1083C205.453 23.0584 205.433 23.0106 205.398 22.9755C202.937 20.6175 199.056 20.6175 196.595 22.9755C196.559 23.0105 196.539 23.0583 196.539 23.1083C196.538 23.1582 196.558 23.2063 196.593 23.2417L197.268 23.9227C197.338 23.9927 197.451 23.9936 197.521 23.9247C198.459 23.0334 199.703 22.5364 200.997 22.5364ZM200.997 24.7522C201.707 24.7521 202.393 25.0163 202.919 25.4933C202.991 25.561 203.103 25.5596 203.172 25.49L203.846 24.809C203.882 24.7733 203.902 24.7248 203.901 24.6745C203.901 24.6241 203.88 24.576 203.844 24.5411C202.24 23.0488 199.755 23.0488 198.151 24.5411C198.115 24.576 198.094 24.6241 198.094 24.6745C198.093 24.7249 198.113 24.7733 198.148 24.809L198.822 25.49C198.892 25.5596 199.004 25.561 199.075 25.4933C199.602 25.0166 200.286 24.7525 200.997 24.7522ZM202.347 26.2431C202.348 26.2936 202.328 26.3422 202.292 26.3776L201.126 27.5542C201.092 27.5888 201.045 27.6083 200.997 27.6083C200.948 27.6083 200.901 27.5888 200.867 27.5542L199.701 26.3776C199.665 26.3422 199.645 26.2935 199.646 26.243C199.648 26.1925 199.669 26.1447 199.707 26.1109C200.451 25.4811 201.542 25.4811 202.287 26.1109C202.324 26.1447 202.346 26.1926 202.347 26.2431Z" fill="black"/>
<path fill-rule="evenodd" clip-rule="evenodd" d="M193.021 21.4033H192.437C192.115 21.4033 191.853 21.6647 191.853 21.9871V27.0461C191.853 27.3684 192.115 27.6298 192.437 27.6298H193.021C193.343 27.6298 193.604 27.3684 193.604 27.0461V21.9871C193.604 21.6647 193.343 21.4033 193.021 21.4033ZM189.713 22.7655H190.296C190.619 22.7655 190.88 23.0268 190.88 23.3492V27.0462C190.88 27.3685 190.619 27.6299 190.296 27.6299H189.713C189.39 27.6299 189.129 27.3685 189.129 27.0462V23.3492C189.129 23.0268 189.39 22.7655 189.713 22.7655ZM187.573 24.1273H186.989C186.666 24.1273 186.405 24.3887 186.405 24.711V27.046C186.405 27.3684 186.666 27.6297 186.989 27.6297H187.573C187.895 27.6297 188.156 27.3684 188.156 27.046V24.711C188.156 24.3887 187.895 24.1273 187.573 24.1273ZM184.848 25.2948H184.265C183.942 25.2948 183.681 25.5561 183.681 25.8785V27.046C183.681 27.3684 183.942 27.6297 184.265 27.6297H184.848C185.171 27.6297 185.432 27.3684 185.432 27.046V25.8785C185.432 25.5561 185.171 25.2948 184.848 25.2948Z" fill="black"/>
<path d="M34.0435 27.5847C35.6126 27.5847 36.5446 26.3577 36.5446 24.2799C36.5446 23.4975 36.395 22.8391 36.1085 22.3303C35.6938 21.5394 34.9798 21.1118 34.0777 21.1118C32.7353 21.1118 31.7861 22.0139 31.7861 23.2794C31.7861 24.468 32.6412 25.3316 33.8169 25.3316C34.5395 25.3316 35.1252 24.9939 35.4159 24.4081H35.4288C35.4288 24.4081 35.4459 24.4081 35.4501 24.4081C35.4587 24.4081 35.4886 24.4081 35.4886 24.4081C35.4886 25.819 34.9542 26.6613 34.0521 26.6613C33.5219 26.6613 33.1115 26.3705 32.9704 25.9045H31.8716C32.0555 26.9178 32.9148 27.5847 34.0435 27.5847ZM34.082 24.4552C33.3723 24.4552 32.8678 23.9507 32.8678 23.2452C32.8678 22.5569 33.398 22.031 34.0863 22.031C34.7746 22.031 35.3048 22.5654 35.3048 23.2623C35.3048 23.9507 34.7875 24.4552 34.082 24.4552Z" fill="black"/>
<path d="M38.349 27.5249C38.7552 27.5249 39.0331 27.2342 39.0331 26.8494C39.0331 26.4603 38.7552 26.1739 38.349 26.1739C37.9471 26.1739 37.665 26.4603 37.665 26.8494C37.665 27.2342 37.9471 27.5249 38.349 27.5249ZM38.349 24.3184C38.7552 24.3184 39.0331 24.0319 39.0331 23.6471C39.0331 23.2581 38.7552 22.9716 38.349 22.9716C37.9471 22.9716 37.665 23.2581 37.665 23.6471C37.665 24.0319 37.9471 24.3184 38.349 24.3184Z" fill="black"/>
<path d="M43.035 27.4351H44.091V26.285H44.9247V25.353H44.091V21.2657H42.5348C41.4446 22.9075 40.5767 24.2799 40.0209 25.3017V26.285H43.035V27.4351ZM41.0427 25.3145C41.7609 24.049 42.4022 23.0357 42.9922 22.1636H43.0521V25.3786H41.0427V25.3145Z" fill="black"/>
<path d="M47.2763 27.4351H48.3794V21.2657H47.2806L45.6688 22.3944V23.4547L47.2037 22.3773H47.2763V27.4351Z" fill="black"/>
<rect x="82.8899" y="477.646" width="78.2201" height="2.91866" rx="1.45933" fill="black"/>
</g>
<path d="M241.904 127.224H242.768C243.245 127.224 243.632 127.612 243.632 128.091V184.763C243.632 185.242 243.245 185.631 242.768 185.631H241.904V127.224Z" fill="#303030"/>
<path d="M1.72705 197.775L0.863101 197.775C0.385957 197.775 -0.000844486 197.387 -0.000844444 196.907L-0.000841473 162.788C-0.000841431 162.309 0.38596 161.921 0.863105 161.921L1.72705 161.921L1.72705 197.775Z" fill="#303030"/>
<path d="M1.72705 150.355L0.863101 150.355C0.385957 150.355 -0.000844486 149.967 -0.000844444 149.488L-0.000841473 115.369C-0.000841431 114.89 0.38596 114.502 0.863105 114.502L1.72705 114.502L1.72705 150.355Z" fill="#333333"/>
<path d="M1.72705 97.1528L0.863104 97.1528C0.38596 97.1528 -0.000842123 96.7645 -0.000842081 96.2854L-0.000840621 79.515C-0.000840579 79.0359 0.385961 78.6476 0.863105 78.6476L1.72705 78.6476L1.72705 97.1528Z" fill="#333333"/>
<path fill-rule="evenodd" clip-rule="evenodd" d="M3.55938 25.9732C1.72705 31.6353 1.72705 38.6317 1.72705 52.6243V443.548C1.72705 457.541 1.72705 464.537 3.55938 470.199C7.26263 481.642 16.1984 490.614 27.5958 494.332C33.2352 496.172 40.2034 496.172 54.1398 496.172H189.491C203.428 496.172 210.396 496.172 216.035 494.332C227.433 490.614 236.368 481.642 240.072 470.199C241.904 464.537 241.904 457.541 241.904 443.548V52.6243C241.904 38.6317 241.904 31.6353 240.072 25.9732C236.368 14.5298 227.433 5.55793 216.035 1.83973C210.396 0 203.428 0 189.491 0H54.1398C40.2034 0 33.2352 0 27.5958 1.83973C16.1984 5.55793 7.26263 14.5298 3.55938 25.9732ZM62.7797 14.1681V16.7704L62.8208 16.7691L62.7795 17.0595C62.7795 23.9262 68.3237 29.4927 75.1627 29.4927H168.469C175.308 29.4927 180.852 23.9262 180.852 17.0595L180.811 16.7691L180.852 16.7704V14.1681C180.852 12.4115 182.27 10.9875 184.02 10.9875L191.438 10.9875C203.036 10.9875 208.835 10.9875 213.459 12.7421C220.729 15.5 226.467 21.2613 229.213 28.5598C230.961 33.2032 230.961 39.0254 230.961 50.6697V445.503C230.961 457.147 230.961 462.969 229.213 467.612C226.467 474.911 220.729 480.672 213.459 483.43C208.835 485.185 203.036 485.185 191.438 485.185H52.1933C40.5958 485.185 34.797 485.185 30.1723 483.43C22.9031 480.672 17.165 474.911 14.4182 467.612C12.6706 462.969 12.6706 457.147 12.6706 445.503V50.6697C12.6706 39.0254 12.6706 33.2032 14.4182 28.5598C17.165 21.2613 22.9031 15.5 30.1723 12.7421C34.797 10.9875 40.5958 10.9875 52.1933 10.9875L59.6119 10.9875C61.3614 10.9875 62.7797 12.4115 62.7797 14.1681Z" fill="#333333"/>
<path fill-rule="evenodd" clip-rule="evenodd" d="M189.722 1.1569H53.9099C40.143 1.1569 33.3962 1.16404 27.9523 2.94002C16.9055 6.54382 8.24469 15.2396 4.65538 26.331C2.88654 31.7969 2.87943 38.5709 2.87943 52.3933V443.78C2.87943 457.602 2.88654 464.376 4.65538 469.842C8.24469 480.933 16.9055 489.629 27.9523 493.233C33.3962 495.009 40.143 495.016 53.9099 495.016H189.722C203.489 495.016 210.236 495.009 215.68 493.233C226.727 489.629 235.387 480.933 238.977 469.842C240.746 464.376 240.753 457.602 240.753 443.78V52.3933C240.753 38.5709 240.746 31.7969 238.977 26.331C235.387 15.2396 226.727 6.54382 215.68 2.94002C210.236 1.16404 203.489 1.1569 189.722 1.1569ZM4.10761 26.1523C2.30347 31.7272 2.30347 38.6159 2.30347 52.3933V443.78C2.30347 457.557 2.30347 464.446 4.10761 470.021C7.75389 481.288 16.5522 490.122 27.7743 493.783C33.3269 495.594 40.1879 495.594 53.9099 495.594H189.722C203.444 495.594 210.305 495.594 215.858 493.783C227.08 490.122 235.878 481.288 239.524 470.021C241.329 464.446 241.329 457.557 241.329 443.78V52.3933C241.329 38.6159 241.329 31.7272 239.524 26.1523C235.878 14.8848 227.08 6.05104 215.858 2.39004C210.305 0.578613 203.444 0.578613 189.722 0.578613H53.9099C40.1879 0.578613 33.3269 0.578613 27.7743 2.39004C16.5522 6.05104 7.75389 14.8848 4.10761 26.1523Z" fill="#303030"/>
<path fill-rule="evenodd" clip-rule="evenodd" d="M6.29978 26.8669C4.6084 32.0934 4.6084 38.5516 4.6084 51.4679V444.705C4.6084 457.621 4.6084 464.079 6.29978 469.306C9.71817 479.869 17.9666 488.15 28.4873 491.583C33.6928 493.281 40.125 493.281 52.9894 493.281H190.645C203.509 493.281 209.941 493.281 215.147 491.583C225.668 488.15 233.916 479.869 237.334 469.306C239.026 464.079 239.026 457.621 239.026 444.705V51.4679C239.026 38.5516 239.026 32.0934 237.334 26.8669C233.916 16.3037 225.668 8.022 215.147 4.58981C209.941 2.8916 203.509 2.8916 190.645 2.8916H52.9894C40.125 2.8916 33.6928 2.8916 28.4873 4.58981C17.9666 8.022 9.71817 16.3037 6.29978 26.8669ZM62.7806 14.1682V16.7705L62.8217 16.7693L62.7804 17.0597C62.7804 23.9264 68.3245 29.4929 75.1636 29.4929H168.47C175.309 29.4929 180.853 23.9264 180.853 17.0597L180.812 16.7693L180.853 16.7705V14.1682C180.853 12.4117 182.271 10.9877 184.021 10.9877L191.439 10.9876C203.037 10.9876 208.835 10.9876 213.46 12.7422C220.729 15.5001 226.468 21.2615 229.214 28.5599C230.962 33.2034 230.962 39.0255 230.962 50.6698V445.503C230.962 457.147 230.962 462.969 229.214 467.613C226.468 474.911 220.729 480.672 213.46 483.43C208.835 485.185 203.037 485.185 191.439 485.185H52.1941C40.5966 485.185 34.7979 485.185 30.1731 483.43C22.904 480.672 17.1658 474.911 14.4191 467.613C12.6715 462.969 12.6715 457.147 12.6715 445.503V50.6698C12.6715 39.0255 12.6715 33.2034 14.4191 28.5599C17.1658 21.2615 22.904 15.5001 30.1731 12.7422C34.7979 10.9876 40.5966 10.9876 52.1942 10.9876L59.6128 10.9877C61.3623 10.9877 62.7806 12.4117 62.7806 14.1682Z" fill="#121515"/>
<rect x="190.644" width="3.45577" height="2.89145" fill="#414141"/>
<rect x="239.025" y="49.7329" width="2.87986" height="3.46973" fill="#414141"/>
<rect x="1.72778" y="49.7329" width="2.87982" height="3.46973" fill="#414141"/>
<rect x="1.72778" y="442.97" width="2.87982" height="3.46972" fill="#414141"/>
<rect x="239.025" y="442.97" width="2.87986" height="3.46972" fill="#414141"/>
<rect x="49.5325" y="493.281" width="3.45579" height="2.89144" fill="#414141"/>
<path fill-rule="evenodd" clip-rule="evenodd" d="M146.295 23.1315C148.839 23.1315 150.902 21.0603 150.902 18.5052C150.902 15.9502 148.839 13.8789 146.295 13.8789C143.75 13.8789 141.687 15.9502 141.687 18.5052C141.687 21.0603 143.75 23.1315 146.295 23.1315Z" fill="#262C2D"/>
<path fill-rule="evenodd" clip-rule="evenodd" d="M146.294 21.3967C147.885 21.3967 149.174 20.1021 149.174 18.5052C149.174 16.9083 147.885 15.6138 146.294 15.6138C144.704 15.6138 143.414 16.9083 143.414 18.5052C143.414 20.1021 144.704 21.3967 146.294 21.3967Z" fill="#121515"/>
<path opacity="0.4" fill-rule="evenodd" clip-rule="evenodd" d="M146.295 17.9276C146.613 17.9276 146.871 17.6686 146.871 17.3491C146.871 17.0295 146.613 16.7705 146.295 16.7705C145.977 16.7705 145.719 17.0295 145.719 17.3491C145.719 17.6686 145.977 17.9276 146.295 17.9276Z" fill="#636F73"/>
<path fill-rule="evenodd" clip-rule="evenodd" d="M107.706 18.5054C107.706 17.5472 108.482 16.7705 109.44 16.7705H134.193C135.151 16.7705 135.928 17.5472 135.928 18.5054V18.5054C135.928 19.4635 135.151 20.2402 134.193 20.2402H109.44C108.482 20.2402 107.706 19.4635 107.706 18.5054V18.5054Z" fill="#262C2D"/>
<defs>
<clipPath id="clip0_232_7917">
<rect width="218.9" height="473.99" fill="white" transform="translate(12.2583 11.0908)"/>
</clipPath>
</defs>
</svg>
