<svg width="90" height="170" viewBox="0 0 90 170" fill="black" xmlns="http://www.w3.org/2000/svg">
<defs>
  <symbol id="logo">
    <path fill-rule="evenodd" clip-rule="evenodd" d="M38.9217 2.61629L36.8558 2.78456C36.3728 2.82885 36.0061 2.58973 36.0419 2.26205V0.827343C36.0419 0.50852 36.4712 0.171986 36.9363 0.171986L38.9754 0.00371556C39.4404 -0.0317093 39.8161 0.189698 39.8161 0.517377V1.95208C39.8161 2.27976 39.3957 2.61629 38.9217 2.61629ZM59.4826 29.2912C59.4051 26.7406 59.3156 24.2461 59.2143 21.8077C59.1907 21.5784 59.088 21.3641 58.9234 21.2012C58.7589 21.0382 58.5425 20.9365 58.311 20.9132C55.6577 20.6534 52.9747 20.4763 50.2618 20.3818C49.767 19.9483 49.2645 19.5199 48.768 19.0965L48.7678 19.0963L48.7677 19.0962L48.7675 19.0961L48.7674 19.096L48.7672 19.0958C48.3307 18.7236 47.8987 18.3552 47.4803 17.9906C47.4088 14.705 47.3283 11.5787 47.2299 8.62963C47.2169 8.51041 47.1795 8.39506 47.1201 8.29057C47.0607 8.18608 46.9805 8.09463 46.8843 8.02175C46.7881 7.94888 46.678 7.89611 46.5606 7.86663C46.4432 7.83716 46.321 7.8316 46.2014 7.85028C42.4511 7.92113 38.6978 8.13663 34.9415 8.49679L33.3585 7.4429L33.4658 3.90041C33.5195 3.56388 33.0991 3.33362 32.6251 3.38675C30.9795 3.56978 29.3339 3.77642 27.6883 4.00668C27.4773 4.02034 27.2764 4.10094 27.1153 4.23653C26.9542 4.37212 26.8415 4.55549 26.7939 4.75947C26.7498 5.50184 26.7091 6.26103 26.6676 7.03497C26.6418 7.5167 26.6157 8.00414 26.5882 8.49679C26.5256 8.86875 26.946 9.10786 27.42 9.02816C29.0477 8.78904 30.6665 8.56763 32.3032 8.38165C32.8278 8.73 33.3555 9.08425 33.8862 9.4444C33.8236 12.3758 33.761 15.502 33.7073 18.7788C33.714 18.8842 33.7435 18.9868 33.7938 19.0799C33.8442 19.1729 33.9141 19.2541 33.999 19.318C34.0838 19.3818 34.1816 19.4268 34.2856 19.45C34.3896 19.4731 34.4974 19.4737 34.6016 19.4519C38.5368 19.0977 42.4988 18.9294 46.434 18.9294C46.606 19.075 46.7796 19.2211 46.9541 19.368C47.7135 20.0074 48.4881 20.6596 49.2154 21.3294C49.2299 21.9587 49.2471 22.5931 49.2644 23.2324L49.2645 23.234C49.311 24.9517 49.3585 26.7043 49.3585 28.4852C48.9808 28.8264 48.5981 29.171 48.2119 29.5186L48.2116 29.5189L48.2115 29.519C47.3061 30.3341 46.3818 31.1662 45.46 32.0117C43.5142 31.9336 41.6328 31.9377 39.8792 32.0278C24.1118 32.6211 12.2884 37.8994 7.74511 41.1851C3.63494 44.1575 3.8506 46.6153 3.88935 47.0569C3.89344 47.1035 3.89556 47.1276 3.89044 47.1276C17.431 38.4219 35.2107 38.8028 34.8798 38.9887C5.48239 42.5578 0.178871 53.8849 0 54.5845C0 55.9395 0.894354 64.3884 0.894354 64.3884C4.12297 58.437 8.7915 54.0886 30.9536 51.2723C52.7301 48.9574 67.8246 54.9671 68.9668 55.4218C68.9995 55.4349 69.0208 55.4433 69.0304 55.4469C69.0682 55.479 68.933 55.4385 68.6249 55.3462C66.1268 54.5973 52.265 50.4421 27.1705 54.0089C3.8092 58.3498 3.32538 64.6319 3.17461 66.5895C3.15528 66.8406 3.14142 67.0205 3.08552 67.1161C3.40749 68.1611 4.24818 67.8157 4.24818 67.8157C4.31678 67.8717 4.44405 67.7788 4.72073 67.5768C4.97514 67.3911 5.35586 67.1132 5.93346 66.774L5.93674 66.8062C6.91159 76.4683 8.18157 86.6352 9.59465 96.7402C9.59545 96.7463 9.59625 96.7524 9.59705 96.7585C8.15175 96.7953 7.03046 96.8501 6.25844 96.8878C6.10086 96.8955 5.95784 96.9024 5.82957 96.9084C5.06937 96.9438 4.64008 97.6878 4.78318 98.5734C5.96373 106.455 7.28737 114.391 8.72728 122.095C8.82688 122.552 9.03004 122.979 9.32136 123.346C9.61269 123.713 9.98452 124.009 10.4087 124.212C11.2718 124.635 12.5687 125.207 14.2026 125.841C15.4453 132.852 16.7774 139.527 18.1273 145.626C32.8663 149.691 47.0686 151.046 61.5572 149.169C62.9256 142.908 64.2671 136 65.5371 128.738C67.0304 128.304 68.2198 127.905 69.0246 127.586C69.4531 127.409 69.8298 127.128 70.1204 126.769C70.411 126.41 70.6061 125.984 70.6881 125.532C72.1727 117.402 73.5321 108.971 74.7485 100.575C74.9005 99.583 74.4801 98.8568 73.7557 98.7328C73.0313 98.6088 71.8686 98.476 70.2767 98.3254C70.2665 98.3244 70.2563 98.3234 70.246 98.3224C70.2479 98.3086 70.2498 98.2948 70.2516 98.281C71.7184 87.441 73.0063 76.4593 74.0258 65.9647L74.0326 65.9C75.0573 66.426 75.6656 66.8629 76.027 67.1225C76.3096 67.3255 76.4412 67.4201 76.503 67.3641C79.0107 67.5375 79.2746 63.7397 79.5976 59.0896C79.6871 57.8024 79.7811 56.4499 79.9284 55.0982C80.6081 48.8634 76.2258 47.6413 76.1364 47.6413C76.492 46.7722 76.6975 45.8501 76.7445 44.9136C77.0575 41.8227 72.6216 38.1651 65.1895 35.5703C60.1194 33.7199 53.6005 32.5354 47.4877 32.1213C48.478 31.2185 49.4683 30.3322 50.4585 29.4594C53.2221 29.5657 55.9052 29.7605 58.5882 30.0262C58.6978 30.0507 58.8115 30.05 58.9207 30.024C59.0299 29.9981 59.1317 29.9477 59.2181 29.8766C59.3045 29.8056 59.3733 29.7159 59.4191 29.6144C59.465 29.5129 59.4867 29.4023 59.4826 29.2912ZM67.1314 98.0619C67.134 98.0434 67.1367 98.025 67.1393 98.0065C68.4336 88.3893 69.6032 78.631 70.577 69.1453C68.9441 68.6048 67.2009 68.0832 65.3968 67.5766C63 66.9035 60.46 66.2836 57.8306 65.7345C55.2012 65.1854 52.4645 64.6806 49.692 64.3352C46.87 63.9539 44.0258 63.7556 41.1777 63.7418C44.0165 63.3402 46.8783 63.1184 49.7456 63.0776C52.5807 63.0156 55.3801 63.0776 58.09 63.2725C60.7999 63.4673 63.4561 63.7064 65.9066 64.0164C67.6544 64.2375 69.3704 64.4991 71.0156 64.7949L71.0208 64.7426C71.0251 64.7162 71.0251 64.6893 71.0208 64.6629L71.0242 64.6286C66.1841 62.9239 57.1063 61.0305 40.076 60.8813C22.4573 61.4799 13.5364 63.5969 8.99215 65.3388L8.99543 65.3715C9.02514 65.6657 9.05687 65.9599 9.08871 66.2551C9.12292 66.5724 9.15725 66.8908 9.18932 67.2114C9.81211 67.0872 10.444 66.971 11.0895 66.8592C12.3684 66.6378 13.6831 66.4518 15.0425 66.3013C17.8571 65.9515 20.698 65.8567 23.53 66.0179C20.7331 66.4073 17.9767 67.0415 15.293 67.9131C14.0051 68.3116 12.753 68.7456 11.5546 69.1795C10.8504 69.4345 10.1556 69.6956 9.48451 69.9681L9.48732 69.9944C10.4353 78.7178 11.5533 87.7511 12.8054 96.687C12.8062 96.693 12.807 96.6989 12.8078 96.7048C12.813 96.7048 12.8182 96.7048 12.8234 96.7047C18.6009 96.625 27.5803 96.6339 39.8866 96.8996C52.4075 97.1652 61.351 97.6258 67.1017 98.0597C67.1116 98.0604 67.1215 98.0612 67.1314 98.0619ZM62.0512 129.659L62.0129 129.668C56.0028 131.085 47.578 132.386 39.824 131.758C32.1938 131.43 23.8228 129.185 17.7605 127.114C18.3716 127.476 18.9949 127.83 19.6146 128.171C20.5984 128.711 21.5911 129.242 22.5839 129.729C24.5497 130.726 26.5851 131.581 28.6744 132.289C26.5671 132.159 24.4736 131.863 22.4139 131.403C21.3765 131.182 20.339 130.925 19.3105 130.65C18.9285 130.548 18.5477 130.442 18.1663 130.332C18.4029 131.554 18.634 132.76 18.8619 133.95L18.862 133.951L18.8621 133.951L18.8622 133.952C19.491 137.235 20.0961 140.395 20.7299 143.403C33.6444 147.371 46.2727 148.496 59.0083 146.379C59.8298 142.4 60.6513 138.165 61.4639 133.727C61.1104 133.817 60.7632 133.904 60.405 133.981C59.5106 134.184 58.6163 134.344 57.7219 134.477C55.9432 134.735 54.152 134.9 52.3558 134.972C50.5671 135.052 48.7784 135.026 46.9897 134.972C46.0953 134.928 45.201 134.866 44.3066 134.795C43.4122 134.724 42.5179 134.618 41.6235 134.512L44.3066 134.326L46.9897 134.034C48.7784 133.786 50.5671 133.493 52.2753 133.086C54.0252 132.693 55.7511 132.203 57.4447 131.616C58.339 131.324 59.135 131.005 59.9489 130.651C60.3603 130.482 60.7627 130.296 61.1652 130.11L61.7465 129.818C61.8497 129.768 61.9513 129.715 62.0512 129.659ZM31.6326 21.1346C29.683 21.356 27.7422 21.6129 25.8193 21.9228C25.5942 21.9563 25.3859 22.0604 25.2249 22.2198C25.0639 22.3792 24.9588 22.5855 24.925 22.8085C24.8713 24.4646 24.8177 26.1561 24.773 27.8742C24.7727 27.9817 24.7978 28.0878 24.8463 28.184C24.8947 28.2802 24.9651 28.3638 25.052 28.4283C25.1388 28.4928 25.2397 28.5364 25.3465 28.5555C25.4533 28.5746 25.5632 28.5688 25.6673 28.5384C27.6081 28.2462 29.5756 27.9982 31.5522 27.7945C31.7813 27.7713 31.9954 27.6705 32.1583 27.5092C32.3213 27.3478 32.423 27.1358 32.4465 26.9089C32.4465 25.7105 32.4711 24.5567 32.4953 23.4201C32.5068 22.8768 32.5183 22.3374 32.527 21.7989C32.5221 21.6932 32.4936 21.5899 32.4437 21.4963C32.3937 21.4028 32.3235 21.3214 32.238 21.2579C32.1525 21.1944 32.0539 21.1505 31.9493 21.1291C31.8446 21.1078 31.7365 21.1097 31.6326 21.1346ZM58.0352 12.3138L56.2465 12.181C56.1453 12.1616 56.0412 12.1643 55.9412 12.189C55.8413 12.2137 55.748 12.2597 55.6679 12.3238C55.5879 12.3879 55.5229 12.4686 55.4776 12.5602C55.4323 12.6518 55.4078 12.7521 55.4058 12.8541L55.4863 14.3862C55.5136 14.6049 55.6186 14.8069 55.7824 14.9561C55.9462 15.1054 56.1582 15.1921 56.3806 15.2009L58.1693 15.3515C58.2695 15.3712 58.3729 15.3686 58.472 15.3438C58.571 15.3191 58.6633 15.2728 58.7421 15.2084C58.8208 15.1439 58.8842 15.063 58.9274 14.9713C58.9706 14.8796 58.9928 14.7796 58.9921 14.6784L58.9116 13.1286C58.88 12.9147 58.7762 12.7177 58.617 12.5697C58.4578 12.4218 58.2527 12.3316 58.0352 12.3138ZM60.7532 16.3168C61.7817 16.4319 62.8012 16.5559 63.8118 16.6976C64.0371 16.7318 64.2445 16.839 64.4015 17.0025C64.5585 17.166 64.6562 17.3765 64.6794 17.601C64.6944 17.8621 64.7123 18.124 64.7303 18.3865C64.7762 19.0589 64.8225 19.7358 64.8225 20.4172C64.8281 20.5179 64.8099 20.6185 64.7693 20.7109C64.7286 20.8033 64.6667 20.8851 64.5885 20.9496C64.5103 21.0142 64.418 21.0597 64.3188 21.0826C64.2197 21.1055 64.1165 21.1051 64.0175 21.0815C62.998 20.9309 61.9784 20.7892 60.9499 20.6652C60.7219 20.6388 60.5096 20.537 60.3473 20.3763C60.185 20.2156 60.0822 20.0054 60.0556 19.7796C60.0419 19.4223 60.0206 19.0611 59.9993 18.702L59.9993 18.7016L59.9992 18.7014C59.9646 18.1172 59.9303 17.5382 59.9303 16.9899C59.928 16.8882 59.949 16.7873 59.9918 16.6948C60.0345 16.6023 60.0978 16.5206 60.177 16.4559C60.2562 16.3911 60.3492 16.3449 60.449 16.3208C60.5487 16.2967 60.6528 16.2954 60.7532 16.3168ZM23.7637 20.4615C23.805 19.3648 23.854 18.2833 23.9035 17.1889L23.9157 16.919C23.9157 16.5205 23.549 16.2637 23.0214 16.3522C21.653 16.6091 20.2846 16.8836 18.9342 17.1847C18.7127 17.2268 18.5091 17.3337 18.3497 17.4916C18.1902 17.6494 18.0823 17.8511 18.0398 18.0703C18.0178 18.5432 17.9942 19.0191 17.9704 19.5004C17.9362 20.1909 17.9015 20.8926 17.8699 21.6128C17.8699 22.0202 18.2187 22.277 18.7016 22.1708C20.0521 21.8785 21.4294 21.5951 22.8156 21.3383C23.0486 21.3146 23.2674 21.2161 23.4386 21.0578C23.6097 20.8995 23.7239 20.6901 23.7637 20.4615Z"/>
  </symbol>
</defs>
<use href="#logo"/>
</svg>
