<svg width="24" height="24" viewBox="0 0 24 24" fill="none" xmlns="http://www.w3.org/2000/svg"><path d="M18.48 12.0037C17.641 11.3005 16.5745 10.9272 15.48 10.9537H8.44502C8.12427 10.9618 7.80517 10.9051 7.50685 10.787C7.20852 10.6689 6.9371 10.4918 6.70882 10.2663C6.48054 10.0409 6.30011 9.77164 6.17832 9.4748C6.05653 9.17795 5.99589 8.85958 6.00002 8.53875C5.9922 8.41387 5.9922 8.28863 6.00002 8.16375C6.09461 7.59046 6.39522 7.07141 6.84541 6.70407C7.29561 6.33674 7.86441 6.14638 8.44502 6.16875H15.375C15.9403 6.16825 16.4874 6.36856 16.9187 6.73395C17.3501 7.09934 17.6376 7.60607 17.73 8.16375H19.98C19.8858 7.00715 19.3598 5.92835 18.5066 5.14184C17.6534 4.35532 16.5354 3.91869 15.375 3.91875H13.005V0.46875H11.13V3.91875H8.44502C7.2846 3.91869 6.16664 4.35532 5.31342 5.14184C4.46021 5.92835 3.93421 7.00715 3.84002 8.16375C3.83254 8.28864 3.83254 8.41386 3.84002 8.53875C3.84002 9.14349 3.95914 9.7423 4.19056 10.301C4.42198 10.8597 4.76118 11.3674 5.1888 11.795C6.0524 12.6586 7.2237 13.1437 8.44502 13.1437H15.555C15.8732 13.1357 16.1898 13.1915 16.4862 13.3078C16.7825 13.424 17.0525 13.5985 17.2804 13.8207C17.5083 14.043 17.6893 14.3086 17.8129 14.602C17.9365 14.8953 18.0001 15.2104 18 15.5287C18.0156 15.6984 18.0156 15.8691 18 16.0387C17.8809 16.5665 17.5859 17.0381 17.1634 17.3761C16.7409 17.7141 16.2161 17.8984 15.675 17.8987H8.62502C8.08397 17.8984 7.55912 17.7141 7.13663 17.3761C6.71414 17.0381 6.41912 16.5665 6.30002 16.0387H4.03502C4.16393 17.1658 4.70298 18.206 5.54945 18.9612C6.39592 19.7164 7.49064 20.1337 8.62502 20.1337H11.13V23.5387H13.005V20.1337H15.555C16.6894 20.1337 17.7841 19.7164 18.6306 18.9612C19.4771 18.206 20.0161 17.1658 20.145 16.0387V15.5287C20.1432 14.855 19.9931 14.1899 19.7054 13.5807C19.4176 12.9715 18.9993 12.4331 18.48 12.0037Z" fill="#ffffff"/></svg>