<svg width="24" height="24" viewBox="0 0 24 24" fill="none" xmlns="http://www.w3.org/2000/svg">
<g clip-path="url(#clip0_31_209891)">
<path d="M21.4617 19.4137C21.2939 20.6619 20.4539 21.7413 19.2783 22.2212C18.7022 22.4606 18.0781 22.5333 17.4539 22.4606C16.8544 22.389 16.2537 22.1966 15.6307 21.8375C14.7672 21.3565 13.9025 20.6138 12.8947 19.5098C14.4785 17.5658 15.4383 15.7907 15.7985 14.2068C15.9663 13.4629 15.9909 12.7907 15.9182 12.1665C15.8219 11.567 15.606 11.0144 15.2705 10.5346C14.5267 9.45516 13.2784 8.831 11.8869 8.831C10.4954 8.831 9.24711 9.47861 8.50327 10.5346C8.16766 11.0144 7.95183 11.567 7.85561 12.1665C7.75944 12.7907 7.784 13.4864 7.97527 14.2068C8.3355 15.7907 9.31866 17.5904 10.8791 19.5333C9.89472 20.6373 9.00772 21.3812 8.14305 21.861C7.51894 22.2212 6.91938 22.4136 6.31983 22.4852C5.70127 22.5545 5.076 22.4717 4.49659 22.2458C3.32099 21.7659 2.48095 20.6854 2.31317 19.4382C2.24158 18.8387 2.28968 18.2392 2.52905 17.5669C2.60064 17.3264 2.72144 17.0871 2.84113 16.7996C3.00891 16.4159 3.2013 16.0076 3.39258 15.5994L3.41718 15.5513C5.07264 11.9752 6.84889 8.32767 8.69678 4.77623L8.76833 4.63193C8.96072 4.27288 9.152 3.88809 9.34439 3.52792C9.53678 3.14426 9.75267 2.78408 10.0167 2.47201C10.5211 1.89595 11.1923 1.58387 11.9361 1.58387C12.6799 1.58387 13.3522 1.89595 13.8556 2.47201C14.1195 2.78408 14.3354 3.14426 14.5278 3.52792C14.7202 3.88809 14.9114 4.27176 15.1038 4.63081L15.1766 4.77511C16.9998 8.34999 18.7761 11.9976 20.4315 15.5737V15.5971C20.6239 15.9808 20.7917 16.4137 20.9829 16.7973C21.1027 17.0859 21.2234 17.3253 21.295 17.5647C21.4863 18.1899 21.5579 18.7895 21.4617 19.4137ZM11.8869 18.285C10.5916 16.653 9.75155 15.1173 9.46299 13.822C9.34327 13.2694 9.31866 12.7895 9.39138 12.3578C9.4395 11.9741 9.58377 11.6374 9.77505 11.35C10.2314 10.7023 10.9988 10.2941 11.8869 10.2941C12.775 10.2941 13.5669 10.6788 13.9987 11.35C14.1911 11.6386 14.3343 11.9741 14.3824 12.3578C14.4539 12.7895 14.4305 13.294 14.3108 13.822C14.0233 15.0938 13.1833 16.6296 11.8869 18.285ZM22.71 17.0378C22.5903 16.7503 22.4695 16.4383 22.3498 16.1743C22.1574 15.7426 21.9662 15.3343 21.7973 14.9506L21.7738 14.9271C20.1183 11.3276 18.342 7.68 16.4707 4.08049L16.3991 3.93619C16.2067 3.57602 16.0154 3.19236 15.8231 2.80869C15.5826 2.37693 15.3432 1.92056 14.9596 1.4888C14.1911 0.527958 13.0871 0 11.9115 0C10.7113 0 9.63189 0.527958 8.83883 1.43958C8.47866 1.87134 8.21466 2.32771 7.97527 2.75948C7.78288 3.14314 7.59161 3.5268 7.39922 3.88698L7.32766 4.03015C5.4798 7.62966 3.68004 11.2773 2.02458 14.8768L2.00109 14.9249C1.83331 15.3085 1.64092 15.7168 1.44853 16.1485C1.31989 16.4327 1.20021 16.7213 1.08835 17.0121C0.776276 17.9002 0.68008 18.7403 0.799766 19.6038C1.06374 21.4035 2.26395 22.9158 3.91941 23.587C4.54357 23.8509 5.19121 23.9707 5.86346 23.9707C6.05585 23.9707 6.29522 23.9472 6.48761 23.9225C7.27955 23.8263 8.09499 23.5635 8.88694 23.1071C9.87122 22.5557 10.8064 21.7637 11.8623 20.6116C12.9182 21.7637 13.8779 22.5557 14.8376 23.1071C15.6295 23.5635 16.445 23.8263 17.2369 23.9225C17.4293 23.9472 17.6687 23.9707 17.8611 23.9707C18.5333 23.9707 19.2045 23.8509 19.8051 23.587C21.4852 22.9147 22.6608 21.3789 22.9248 19.6038C23.1172 18.7649 23.021 17.9259 22.71 17.0378Z" fill="#E0565B"/>
</g>
<defs>
<clipPath id="clip0_31_209891">
<rect width="24" height="24" fill="white"/>
</clipPath>
</defs>
</svg>
