<svg width="32" height="32" viewBox="0 0 32 32" fill="none" xmlns="http://www.w3.org/2000/svg">
<path d="M14.6667 6.43619V10.6655H26.6667V21.3322H14.6667V25.5615L3.77067 15.9988L14.6667 6.43619ZM28 7.99886H17.3333V3.04419C17.3333 2.78507 17.2577 2.53157 17.116 2.31469C16.9743 2.09779 16.7723 1.92693 16.5349 1.82297C16.2976 1.71901 16.0351 1.68645 15.7796 1.72929C15.524 1.77213 15.2865 1.88851 15.096 2.06419L0 15.9988L15.096 29.9322C15.2863 30.1078 15.5236 30.224 15.7789 30.267C16.0343 30.3099 16.2965 30.2776 16.5337 30.1739C16.7709 30.0703 16.9729 29.8999 17.1149 29.6834C17.2569 29.4668 17.3328 29.2138 17.3333 28.9548V23.9988H28C28.3536 23.9988 28.6928 23.8584 28.9428 23.6083C29.1928 23.3583 29.3333 23.0191 29.3333 22.6655V9.33219C29.3333 8.97857 29.1928 8.63943 28.9428 8.38938C28.6928 8.13934 28.3536 7.99886 28 7.99886Z" fill="#33363F"/>
</svg>
