<svg width="32" height="32" viewBox="0 0 32 32" fill="none" xmlns="http://www.w3.org/2000/svg">
<path d="M26.6667 16L27.3738 15.2929L28.0809 16L27.3738 16.7071L26.6667 16ZM6.66666 17C6.11438 17 5.66666 16.5523 5.66666 16C5.66666 15.4477 6.11438 15 6.66666 15V16V17ZM18.6667 8L19.3738 7.29289L27.3738 15.2929L26.6667 16L25.9596 16.7071L17.9596 8.70711L18.6667 8ZM26.6667 16L27.3738 16.7071L19.3738 24.7071L18.6667 24L17.9596 23.2929L25.9596 15.2929L26.6667 16ZM26.6667 16V17H6.66666V16V15H26.6667V16Z" fill="#33363F"/>
</svg>
