<svg width="32" height="32" viewBox="0 0 32 32" fill="none" xmlns="http://www.w3.org/2000/svg">
<path d="M17.3333 6.43619V10.6655H5.33332V21.3322H17.3333V25.5615L28.2293 15.9988L17.3333 6.43619ZM3.99999 7.99886H14.6667V3.04419C14.6667 2.78507 14.7423 2.53157 14.884 2.31469C15.0257 2.09779 15.2277 1.92693 15.4651 1.82297C15.7024 1.71901 15.9649 1.68645 16.2204 1.72929C16.476 1.77213 16.7135 1.88851 16.904 2.06419L32 15.9988L16.904 29.9322C16.7137 30.1078 16.4764 30.224 16.2211 30.267C15.9657 30.3099 15.7035 30.2776 15.4663 30.1739C15.2291 30.0703 15.0271 29.8999 14.8851 29.6834C14.7431 29.4668 14.6672 29.2138 14.6667 28.9548V23.9988H3.99999C3.64636 23.9988 3.30723 23.8584 3.05718 23.6083C2.80714 23.3583 2.66666 23.0191 2.66666 22.6655V9.33219C2.66666 8.97857 2.80714 8.63943 3.05718 8.38938C3.30723 8.13934 3.64636 7.99886 3.99999 7.99886Z" fill="#33363F"/>
</svg>
