<svg width="24" height="24" viewBox="0 0 24 24" fill="none" xmlns="http://www.w3.org/2000/svg">
<path fill-rule="evenodd" clip-rule="evenodd" d="M15.5817 0.613356C15.8001 0.861555 15.9114 1.19648 16.1342 1.86636L21 16.5C19.2009 15.6456 17.2452 15.0294 15.1826 14.6969L12.0145 4.89544C11.9627 4.73506 11.8018 4.62505 11.6191 4.62505C11.4359 4.62505 11.2747 4.73564 11.2233 4.89657L8.09353 14.692C6.0214 15.0229 4.05674 15.6403 2.25 16.4978L7.13971 1.86297H7.13973C7.36315 1.19426 7.47485 0.859909 7.69326 0.61215C7.88606 0.393428 8.13685 0.223561 8.42171 0.118736C8.74439 -5.88561e-08 9.1263 0 9.89013 0H13.3826C14.1475 0 14.5299 -4.90468e-08 14.8528 0.118985C15.138 0.224026 15.3889 0.394234 15.5817 0.613356Z" fill="url(#paint0_linear_31_209897)"/>
<path fill-rule="evenodd" clip-rule="evenodd" d="M16.3277 16.9424C15.4866 17.551 13.8079 17.966 11.8742 17.966C9.50086 17.966 7.51162 17.3408 6.98377 16.5C6.79507 16.9819 6.75275 17.5334 6.75275 17.8857C6.75275 17.8857 6.62842 19.6155 8.05043 20.8189C8.05043 20.1941 8.64902 19.6877 9.38739 19.6877C10.653 19.6877 10.6515 20.6219 10.6504 21.3798C10.6504 21.4026 10.6503 21.4251 10.6503 21.4474C10.6503 22.5979 11.4813 23.5841 12.6632 24C12.4866 23.6928 12.3876 23.3477 12.3876 22.9833C12.3876 21.886 13.1489 21.4773 14.0337 21.0025C14.7378 20.6247 15.5199 20.205 16.059 19.3629C16.3403 18.9236 16.5 18.4204 16.5 17.8857C16.5 17.5568 16.4396 17.2399 16.3277 16.9424Z" fill="#FF5D01"/>
<path fill-rule="evenodd" clip-rule="evenodd" d="M16.3277 16.9424C15.4866 17.551 13.8079 17.966 11.8742 17.966C9.50086 17.966 7.51162 17.3408 6.98377 16.5C6.79507 16.9819 6.75275 17.5334 6.75275 17.8857C6.75275 17.8857 6.62842 19.6155 8.05043 20.8189C8.05043 20.1941 8.64902 19.6877 9.38739 19.6877C10.653 19.6877 10.6515 20.6219 10.6504 21.3798C10.6504 21.4026 10.6503 21.4251 10.6503 21.4474C10.6503 22.5979 11.4813 23.5841 12.6632 24C12.4866 23.6928 12.3876 23.3477 12.3876 22.9833C12.3876 21.886 13.1489 21.4773 14.0337 21.0025C14.7378 20.6247 15.5199 20.205 16.059 19.3629C16.3403 18.9236 16.5 18.4204 16.5 17.8857C16.5 17.5568 16.4396 17.2399 16.3277 16.9424Z" fill="url(#paint1_linear_31_209897)"/>
<defs>
<linearGradient id="paint0_linear_31_209897" x1="17.1087" y1="-0.775866" x2="12.4539" y2="16.7206" gradientUnits="userSpaceOnUse">
<stop stop-color="#000014"/>
<stop offset="1" stop-color="#150426"/>
</linearGradient>
<linearGradient id="paint1_linear_31_209897" x1="20.1146" y1="11.9923" x2="16.3507" y2="21.3045" gradientUnits="userSpaceOnUse">
<stop stop-color="#FF1639"/>
<stop offset="1" stop-color="#FF1639" stop-opacity="0"/>
</linearGradient>
</defs>
</svg>
