<svg width="24" height="24" viewBox="0 0 24 24" fill="none" xmlns="http://www.w3.org/2000/svg">
<g clip-path="url(#clip0_31_209927)">
<rect width="24" height="24" fill="#1769FF"/>
<path d="M8.47776 6.5625C8.9952 6.5625 9.46752 6.60858 9.89472 6.69978C10.3219 6.79098 10.6867 6.94074 10.991 7.14906C11.2954 7.35738 11.5315 7.63386 11.6995 7.97946C11.8675 8.32506 11.951 8.7513 11.951 9.25914C11.951 9.8073 11.8262 10.2643 11.5776 10.63C11.329 10.9958 10.9603 11.2953 10.4736 11.5286C11.1437 11.7215 11.6438 12.0595 11.9741 12.5414C12.3043 13.0233 12.4694 13.6051 12.4694 14.2857C12.4694 14.8339 12.3629 15.3091 12.1498 15.7103C11.9366 16.1116 11.6496 16.439 11.2886 16.6924C10.9277 16.9468 10.5168 17.134 10.055 17.2559C9.5904 17.3779 9.11136 17.4393 8.63136 17.4383H3.36V6.5625H8.47776ZM8.17344 10.9641C8.59968 10.9641 8.95008 10.8623 9.22464 10.6598C9.4992 10.4563 9.63648 10.127 9.63552 9.67002C9.63552 9.41658 9.58944 9.20826 9.49824 9.04602C9.40704 8.88378 9.28512 8.7561 9.13248 8.6649C8.97984 8.5737 8.80512 8.51034 8.60736 8.47482C8.40384 8.4393 8.19744 8.42106 7.99008 8.42202H5.75232V10.966L8.17344 10.9641ZM8.31072 15.5788C8.53632 15.5798 8.76096 15.5567 8.9808 15.5107C9.19392 15.4646 9.38208 15.3887 9.54432 15.2822C9.70656 15.1756 9.83616 15.0307 9.93312 14.8483C10.0291 14.6659 10.0781 14.4316 10.0781 14.1475C10.0781 13.5897 9.92064 13.1903 9.60576 12.9523C9.29088 12.7132 8.87424 12.5942 8.3568 12.5942H5.75232V15.5798L8.31072 15.5788ZM15.4781 15.3503C15.8026 15.6652 16.2701 15.8227 16.8797 15.8227C17.3165 15.8227 17.6918 15.7132 18.0067 15.4953C18.3216 15.2774 18.5146 15.046 18.5856 14.8022H20.4893C20.185 15.7468 19.7174 16.4217 19.0877 16.8278C18.4579 17.2339 17.6966 17.4374 16.8029 17.4374C16.1837 17.4374 15.625 17.3385 15.1277 17.1407C14.6304 16.943 14.209 16.6607 13.8634 16.295C13.5178 15.9292 13.2509 15.4934 13.0637 14.9855C12.8765 14.4777 12.7824 13.919 12.7824 13.3103C12.7824 12.7219 12.8784 12.1737 13.0714 11.6659C13.2643 11.158 13.5389 10.7193 13.8941 10.3487C14.2493 9.97818 14.6736 9.68634 15.1661 9.47322C15.6586 9.2601 16.2048 9.15354 16.8038 9.15354C17.4739 9.15354 18.0576 9.28314 18.5558 9.54234C19.0531 9.80154 19.4621 10.1491 19.7818 10.5859C20.1014 11.0227 20.3328 11.5199 20.4749 12.0787C20.617 12.6374 20.6678 13.2211 20.6275 13.8307H14.9462C14.976 14.5286 15.1536 15.0364 15.4781 15.3503ZM17.9232 11.2079C17.664 10.9238 17.2704 10.7817 16.7424 10.7817C16.3968 10.7817 16.1098 10.8403 15.8822 10.9564C15.6538 11.0735 15.4714 11.2175 15.3341 11.3903C15.1968 11.5631 15.1008 11.7455 15.0451 11.9385C14.9894 12.1315 14.9558 12.3043 14.9462 12.4559H18.4646C18.3619 11.9087 18.1814 11.4921 17.9232 11.2079ZM14.5757 7.1145H18.9715V8.3337H14.5757V7.1145Z" fill="white"/>
</g>
<defs>
<clipPath id="clip0_31_209927">
<rect width="24" height="24" fill="white"/>
</clipPath>
</defs>
</svg>
