<svg width="24" height="24" viewBox="0 0 24 24" fill="none" xmlns="http://www.w3.org/2000/svg">
<path fill-rule="evenodd" clip-rule="evenodd" d="M4.98488 2.25391C3.61547 2.25391 2.60217 3.4525 2.64755 4.75234C2.69109 6.00114 2.63452 7.61852 2.22736 8.93748C1.81875 10.2602 1.12819 11.0983 0 11.2059V12.4205C1.12819 12.5283 1.81875 13.3661 2.22731 14.689C2.63452 16.0079 2.69105 17.6253 2.6475 18.8741C2.60212 20.1738 3.61542 21.3725 4.98506 21.3725H19.017C20.3864 21.3725 21.3995 20.1739 21.3541 18.8741C21.3105 17.6253 21.3671 16.0079 21.7743 14.689C22.1829 13.3661 22.8718 12.528 24 12.4205V11.2059C22.8718 11.0981 22.1829 10.2603 21.7743 8.93748C21.3671 7.6187 21.3105 6.00114 21.3541 4.75234C21.3995 3.45269 20.3864 2.25391 19.017 2.25391H4.98469H4.98488ZM16.2712 14.0227C16.2712 15.8125 14.9362 16.898 12.7206 16.898H8.94914C8.84126 16.898 8.73779 16.8551 8.6615 16.7788C8.58522 16.7026 8.54236 16.5991 8.54236 16.4912V7.13528C8.54236 7.0274 8.58522 6.92393 8.6615 6.84764C8.73779 6.77136 8.84126 6.7285 8.94914 6.7285H12.6991C14.5465 6.7285 15.759 7.72919 15.759 9.26556C15.759 10.3439 14.9433 11.3093 13.9042 11.4784V11.5347C15.3187 11.6898 16.2712 12.6695 16.2712 14.0227ZM12.3094 8.01798H10.1589V11.0555H11.9701C13.3703 11.0555 14.1423 10.4917 14.1423 9.48391C14.1422 8.53947 13.4784 8.01798 12.3094 8.01798ZM10.1589 12.2607V15.6081H12.3885C13.8463 15.6081 14.6185 15.0231 14.6185 13.9238C14.6185 12.8245 13.8247 12.2605 12.2948 12.2605H10.1589V12.2607Z" fill="#7952B3"/>
</svg>
