<svg width="24" height="24" viewBox="0 0 24 24" fill="none" xmlns="http://www.w3.org/2000/svg">
<path d="M0.0168915 19.2031H3.01665V17.3144H6.84135V19.2031H9.84111V4.73828H0.0168915V19.2031Z" fill="#1F2E5C"/>
<path d="M15.0907 0.703125C14.6408 0.703125 14.2658 1.07786 14.2658 1.52754C14.2658 1.97723 14.6408 2.35196 15.0907 2.35196C15.5407 2.35196 15.9157 1.97723 15.9157 1.52754C15.9157 1.07786 15.5407 0.703125 15.0907 0.703125Z" fill="#1F2E5C"/>
<path d="M15.0907 4.49609C14.6408 4.49609 14.2658 4.87083 14.2658 5.32051C14.2658 5.7702 14.6408 6.14493 15.0907 6.14493C15.5407 6.14493 15.9157 5.7702 15.9157 5.32051C15.9157 4.85584 15.5407 4.49609 15.0907 4.49609Z" fill="#1F2E5C"/>
<path d="M15.0907 8.27344C14.6408 8.27344 14.2658 8.64817 14.2658 9.09786C14.2658 9.54754 14.6408 9.92228 15.0907 9.92228C15.5407 9.92228 15.9157 9.54754 15.9157 9.09786C15.9157 8.64817 15.5407 8.27344 15.0907 8.27344Z" fill="#1F2E5C"/>
<path d="M18.9454 0.703125C18.4955 0.703125 18.1205 1.07786 18.1205 1.52754C18.1205 1.97723 18.4955 2.35196 18.9454 2.35196C19.3954 2.35196 19.7704 1.97723 19.7704 1.52754C19.7704 1.07786 19.4104 0.703125 18.9454 0.703125Z" fill="#1F2E5C"/>
<path d="M18.9454 4.49609C18.4955 4.49609 18.1205 4.87083 18.1205 5.32051C18.1205 5.7702 18.4955 6.14493 18.9454 6.14493C19.3954 6.14493 19.7704 5.7702 19.7704 5.32051C19.7704 4.85584 19.4104 4.49609 18.9454 4.49609Z" fill="#1F2E5C"/>
<path d="M18.9454 8.27344C18.4955 8.27344 18.1205 8.64817 18.1205 9.09786C18.1205 9.54754 18.4955 9.92228 18.9454 9.92228C19.3954 9.92228 19.7704 9.54754 19.7704 9.09786C19.7704 8.64817 19.4104 8.27344 18.9454 8.27344Z" fill="#1F2E5C"/>
<path d="M22.7401 0.703125C22.2901 0.703125 21.9152 1.07786 21.9152 1.52754C21.9152 1.97723 22.2901 2.35196 22.7401 2.35196C23.1901 2.35196 23.565 1.97723 23.565 1.52754C23.58 1.07786 23.2051 0.703125 22.7401 0.703125Z" fill="#1F2E5C"/>
<path d="M22.7401 4.49609C22.2901 4.49609 21.9152 4.87083 21.9152 5.32051C21.9152 5.7702 22.2901 6.14493 22.7401 6.14493C23.1901 6.14493 23.565 5.7702 23.565 5.32051C23.58 4.85584 23.2051 4.49609 22.7401 4.49609Z" fill="#1F2E5C"/>
<path d="M22.7401 8.27344C22.2901 8.27344 21.9152 8.64817 21.9152 9.09786C21.9152 9.54754 22.2901 9.92228 22.7401 9.92228C23.1901 9.92228 23.565 9.54754 23.565 9.09786C23.565 8.64817 23.2051 8.27344 22.7401 8.27344Z" fill="#1F2E5C"/>
<path d="M5.0415 14.1653C2.32671 14.1053 0.0768892 16.2488 0.00189546 18.9619C-0.0730989 21.675 2.08673 23.9234 4.80152 23.9984C7.51631 24.0733 9.76613 21.9148 9.84112 19.2017C9.90112 16.4887 7.75629 14.2252 5.0415 14.1653ZM6.57138 20.8356H3.27164V17.5529H6.55638V20.8356H6.57138Z" fill="#DE2179"/>
<path d="M4.92152 9.83308C7.63852 9.83308 9.84113 7.63185 9.84113 4.91654C9.84113 2.20121 7.63852 0 4.92152 0C2.20449 0 0.00190735 2.20121 0.00190735 4.91654C0.00190735 7.63185 2.20449 9.83308 4.92152 9.83308Z" fill="#42BA9B"/>
<path d="M13.8608 13.2344V23.3672H24V13.2344H13.8608ZM21.9452 20.5792H15.9306V19.3201H21.9452V20.5792ZM21.9452 17.2665H15.9306V16.0074H21.9452V17.2665Z" fill="#42BA9B"/>
</svg>
