<svg width="32" height="32" viewBox="0 0 32 32" fill="none" xmlns="http://www.w3.org/2000/svg">
<path d="M15.144 5.4613C14.3547 5.4613 13.6013 5.91997 13.128 6.7213L11.9467 8.7253L9.76268 7.9253C9.64653 7.88265 9.52373 7.86098 9.40001 7.8613C8.70534 7.8613 8.03868 8.5893 8.03868 9.6013C8.03868 9.68663 8.04268 9.77063 8.05201 9.85463L8.36668 12.5653L5.66268 12.9413C4.84134 13.056 4.12668 13.9333 4.12668 15.068C4.12668 15.956 4.57068 16.712 5.19068 17.0413L7.31601 18.164L6.52268 20.432C6.39194 20.808 6.32568 21.2033 6.32668 21.6013C6.32668 23.3506 7.54001 24.6746 8.91068 24.6746C9.29201 24.6746 9.65734 24.5773 9.99868 24.3866L12.412 23.036L13.7853 25.436C14.1907 26.1413 14.8387 26.5413 15.5107 26.5413C16.132 26.5413 16.728 26.2026 17.1387 25.592L18.7333 23.216L21.0693 24.8666C21.3893 25.0933 21.7427 25.208 22.1107 25.208C23.212 25.208 24.2067 24.1226 24.2067 22.668L24.2053 22.5866L24.156 20.6813L25.9093 19.94C27.052 19.4573 27.8733 18.1733 27.8733 16.668C27.8733 15.044 26.9173 13.6893 25.6587 13.304L23.428 12.624L23.7 10.308C23.712 10.208 23.7173 10.1053 23.7173 10.0013C23.7173 8.76797 22.8867 7.8613 21.9893 7.8613C21.7253 7.8613 21.4733 7.93464 21.2373 8.07864L18.624 9.67863L17.272 6.92797C16.8187 6.00664 16.0027 5.4613 15.144 5.4613ZM19.4587 27.1493L19.312 27.3546C18.416 28.5626 17.0453 29.3346 15.512 29.3346C13.7613 29.3346 12.2267 28.332 11.3627 26.824C10.6143 27.2458 9.76978 27.4676 8.91068 27.468C5.94134 27.468 3.53334 24.8413 3.53334 21.6013C3.53334 20.864 3.65734 20.16 3.88534 19.5093C2.37334 18.7106 1.33334 17.0226 1.33334 15.068C1.33334 12.5573 3.05334 10.484 5.27734 10.1746C5.25524 9.98433 5.2441 9.79289 5.24401 9.6013C5.24401 7.0973 7.10534 5.06797 9.40001 5.06797C9.86268 5.06797 10.3067 5.15064 10.7227 5.30264C11.656 3.7173 13.288 2.66797 15.144 2.66797C16.7867 2.66797 18.252 3.4893 19.216 4.77597L19.7787 5.69597L20.5013 5.3413C20.968 5.16397 21.468 5.06797 21.9893 5.06797C24.4867 5.06797 26.5107 7.2773 26.5107 10.0013C26.5107 10.2146 26.4987 10.4266 26.4747 10.6333C28.8933 11.372 30.6667 13.7933 30.6667 16.668C30.6667 19.3306 29.144 21.6053 26.9973 22.5133L27 22.668C27 25.6146 24.8107 28.0013 22.1107 28.0013C21.2377 28.0001 20.3835 27.7484 19.6493 27.276L19.4587 27.1493Z" fill="#33363F"/>
</svg>
