<svg width="24" height="24" viewBox="0 0 24 24" fill="none" xmlns="http://www.w3.org/2000/svg">
<g clip-path="url(#clip0_31_209867)">
<path d="M12 24C18.6274 24 24 18.6274 24 12C24 5.37258 18.6274 0 12 0C5.37258 0 0 5.37258 0 12C0 18.6274 5.37258 24 12 24Z" fill="#1977F3"/>
<path d="M16.6711 15.4708L17.2026 12.0012H13.8748V9.75008C13.8748 8.80169 14.3389 7.87524 15.8307 7.87524H17.3444V4.92207C17.3444 4.92207 15.9707 4.6875 14.6579 4.6875C11.9173 4.6875 10.1252 6.34803 10.1252 9.35688V12.0012H7.07748V15.4708H10.1252V23.8561C10.736 23.9523 11.3621 24.0012 12 24.0012C12.6379 24.0012 13.264 23.9506 13.8748 23.8561V15.4708H16.6711Z" fill="white"/>
</g>
<defs>
<clipPath id="clip0_31_209867">
<rect width="24" height="24" fill="white"/>
</clipPath>
</defs>
</svg>
