<svg width="24" height="24" viewBox="0 0 24 24" fill="none" xmlns="http://www.w3.org/2000/svg">
<path d="M11.6585 0C5.22052 0 0 5.5085 0 12.3038C0 17.74 3.34051 22.3519 7.97283 23.9789C8.55546 24.0927 8.76942 23.712 8.76942 23.387C8.76942 23.0936 8.75854 22.1243 8.7536 21.0962C5.5101 21.8405 4.8257 19.6445 4.8257 19.6445C4.29538 18.2224 3.53125 17.8443 3.53125 17.8443C2.47352 17.0806 3.61098 17.0963 3.61098 17.0963C4.78172 17.1831 5.39818 18.3642 5.39818 18.3642C6.43799 20.2452 8.12553 19.7014 8.79081 19.3871C8.89542 18.5918 9.19761 18.0491 9.53099 17.7418C6.94153 17.4306 4.2193 16.3756 4.2193 11.6612C4.2193 10.318 4.67474 9.22033 5.42059 8.35871C5.29952 8.04876 4.9005 6.7974 5.53351 5.10263C5.53351 5.10263 6.51251 4.77194 8.74043 6.36384C9.67034 6.09114 10.6677 5.9545 11.6585 5.94987C12.6493 5.9545 13.6474 6.09114 14.5792 6.36384C16.8044 4.77194 17.7821 5.10263 17.7821 5.10263C18.4166 6.7974 18.0174 8.04876 17.8964 8.35871C18.6438 9.22033 19.0962 10.3179 19.0962 11.6612C19.0962 16.3868 16.3688 17.4274 13.7728 17.732C14.1909 18.1138 14.5635 18.8626 14.5635 20.0105C14.5635 21.6567 14.55 22.9817 14.55 23.387C14.55 23.7144 14.7598 24.098 15.3509 23.9772C19.9806 22.3485 23.3169 17.7382 23.3169 12.3038C23.3169 5.5085 18.0971 0 11.6585 0Z" fill="#161614"/>
<path d="M4.36646 17.525C4.34086 17.5861 4.24961 17.6045 4.16668 17.5626C4.0821 17.5224 4.03455 17.4391 4.06198 17.3777C4.08713 17.3148 4.17838 17.2972 4.26278 17.3395C4.34754 17.3795 4.39582 17.4637 4.36646 17.525ZM4.93995 18.065C4.88436 18.1195 4.77564 18.0942 4.70185 18.0082C4.62559 17.9224 4.61133 17.8078 4.66775 17.7525C4.72508 17.6982 4.8305 17.7235 4.90694 17.8094C4.9832 17.8962 4.99801 18.0101 4.93986 18.0651M5.3334 18.756C5.2619 18.8084 5.14504 18.7592 5.0729 18.6498C5.00149 18.5405 5.00149 18.4092 5.07445 18.3567C5.14687 18.3041 5.26189 18.3513 5.33504 18.4599C5.40636 18.5712 5.40636 18.7024 5.33331 18.7561M5.99868 19.5562C5.93477 19.6305 5.79871 19.6106 5.69905 19.5091C5.59719 19.4099 5.56875 19.2691 5.63285 19.1947C5.69749 19.1202 5.83437 19.1412 5.93477 19.2418C6.03599 19.3408 6.0668 19.4827 5.99868 19.5562ZM6.85855 19.8264C6.83048 19.9227 6.69936 19.9665 6.56732 19.9256C6.43547 19.8834 6.34916 19.7705 6.37577 19.6732C6.4032 19.5762 6.53486 19.5305 6.6679 19.5743C6.79957 19.6163 6.88598 19.7283 6.85855 19.8264ZM7.83727 19.9409C7.84056 20.0424 7.72856 20.1266 7.58994 20.1284C7.4505 20.1316 7.33776 20.0495 7.3363 19.9497C7.3363 19.8472 7.44575 19.7639 7.58509 19.7614C7.72371 19.7586 7.83727 19.8401 7.83727 19.9409ZM8.79863 19.902C8.81527 20.001 8.7189 20.1028 8.58129 20.1298C8.44596 20.1558 8.32069 20.0947 8.30341 19.9966C8.28659 19.8951 8.38479 19.7935 8.51984 19.7671C8.65773 19.7419 8.78107 19.8014 8.79863 19.902Z" fill="#161614"/>
</svg>
