<svg width="24" height="24" viewBox="0 0 24 24" fill="none" xmlns="http://www.w3.org/2000/svg">
<path d="M23.9626 11.4792C23.9901 12.1572 23.9126 12.8326 23.7328 13.4846C23.5554 14.1366 23.2757 14.7523 22.906 15.3108C22.5387 15.8696 22.0865 16.3627 21.5671 16.7707L21.5546 16.7811L16.5612 20.6724L14.1058 22.6077L12.6095 23.7818C12.5221 23.852 12.4246 23.9039 12.3222 23.9403C12.2198 23.9766 12.1099 23.9948 12 23.9948C11.8926 23.9948 11.7827 23.9766 11.6803 23.9403C11.5778 23.9039 11.4804 23.852 11.393 23.7818L9.89674 22.6077L7.44127 20.6724L2.47788 16.8044L2.4479 16.7837L2.43791 16.7733C1.91584 16.3654 1.46372 15.8719 1.09402 15.3134C0.724328 14.7549 0.444559 14.1366 0.264708 13.4846C0.0848568 12.8326 0.00742092 12.1546 0.0348982 11.4766C0.0648734 10.7986 0.197264 10.131 0.429572 9.49715L0.462045 9.40623L3.72684 0.561122C3.7435 0.517827 3.76348 0.476264 3.78679 0.436433C3.80844 0.396602 3.83425 0.359368 3.86423 0.324732C3.89254 0.288365 3.92335 0.254595 3.95665 0.223423C3.98996 0.193982 4.02493 0.166274 4.06157 0.140297C4.139 0.0909409 4.21894 0.0545734 4.30636 0.0337919C4.39129 0.0104127 4.48122 2.20085e-05 4.56865 0.00521738C4.65857 0.0104127 4.746 0.0285965 4.82843 0.0623664C4.91086 0.0935386 4.9908 0.140297 5.06074 0.197446C5.09404 0.226886 5.12652 0.258059 5.15816 0.290963C5.18813 0.325598 5.21478 0.362832 5.23809 0.402663C5.26307 0.440762 5.28472 0.481459 5.30304 0.524754C5.32136 0.566317 5.33634 0.609612 5.348 0.654638L7.54868 7.66059H16.4563L18.657 0.654638C18.6686 0.609612 18.6845 0.566317 18.7044 0.524754C18.7228 0.483191 18.7444 0.442494 18.7694 0.402663C18.7927 0.364564 18.8194 0.328196 18.8493 0.29356C18.8793 0.258924 18.9118 0.226886 18.9467 0.197446C19.0167 0.140297 19.0941 0.0961363 19.1766 0.0623664C19.2615 0.0311942 19.3489 0.0130104 19.4363 0.00781506C19.5263 0.00261969 19.6137 0.0104127 19.7011 0.0337919C19.7861 0.057171 19.8685 0.0935386 19.9434 0.142895C19.9817 0.16714 20.0175 0.194848 20.0508 0.22602C20.0841 0.255461 20.1149 0.288365 20.1433 0.324732C20.1716 0.3611 20.1974 0.399199 20.2207 0.439031C20.2423 0.478862 20.2615 0.520425 20.2781 0.563719L23.5379 9.41143L23.5704 9.50235C23.8027 10.1336 23.9351 10.8012 23.9626 11.4792Z" fill="#E24329"/>
<path d="M23.9651 11.4805C23.9926 12.1559 23.9151 12.8339 23.7353 13.4859C23.5554 14.1379 23.2757 14.7562 22.906 15.3147C22.5363 15.8732 22.0842 16.3668 21.5646 16.7746L21.5521 16.785L16.5587 20.6763C16.5587 20.6763 14.438 19.0112 12 17.0915L19.1566 11.4597C19.4788 11.2078 19.816 10.9766 20.1632 10.7635C20.5105 10.5479 20.8702 10.3557 21.2374 10.1843C21.607 10.0128 21.9842 9.85956 22.3664 9.73227C22.7511 9.60239 23.1408 9.49588 23.538 9.41016L23.5704 9.50108C23.8027 10.1349 23.9351 10.8025 23.9651 11.4805Z" fill="#FC6D26"/>
<path d="M12 17.0938C14.438 19.0082 16.5612 20.6786 16.5612 20.6786L14.1058 22.6138L12.6095 23.788C12.5221 23.8581 12.4246 23.9101 12.3222 23.9464C12.2198 23.9828 12.1099 24.001 12 24.001C11.8926 24.001 11.7827 23.9828 11.6803 23.9464C11.5778 23.9101 11.4804 23.8581 11.393 23.788L9.89674 22.6138L7.44127 20.6786C7.44127 20.6786 9.56201 19.0082 12 17.0938Z" fill="#FCA326"/>
<path d="M12 17.0876C9.55952 19.0073 7.44127 20.6724 7.44127 20.6724L2.47788 16.8045L2.4479 16.7837L2.43791 16.7733C1.91584 16.3654 1.46372 15.8719 1.09402 15.3134C0.724328 14.7549 0.444559 14.1366 0.264708 13.4846C0.0848568 12.8326 0.00742092 12.1546 0.0348982 11.4766C0.0648734 10.7986 0.197264 10.131 0.429572 9.49717L0.462045 9.40625C0.859216 9.49197 1.24889 9.59848 1.63357 9.72836C2.01576 9.85825 2.39295 10.0089 2.76264 10.183C3.12984 10.3544 3.48954 10.5492 3.83675 10.7622C4.18396 10.9753 4.51869 11.209 4.84342 11.461L12 17.0876Z" fill="#FC6D26"/>
</svg>
