<svg width="24" height="24" viewBox="0 0 24 24" fill="none" xmlns="http://www.w3.org/2000/svg">
<g clip-path="url(#clip0_31_209933)">
<path d="M23.4894 12.2686C23.4894 11.2786 23.4145 10.5586 23.2347 9.80859H11.9844V14.2636H18.5908C18.4559 15.3736 17.7369 17.0386 16.134 18.1636L16.119 18.3136L19.6694 21.0736L19.9091 21.1036C22.1861 19.0036 23.4894 15.9136 23.4894 12.2686Z" fill="#4285F4"/>
<path d="M11.9844 24.0011C15.2202 24.0011 17.9316 22.9361 19.924 21.0911L16.1489 18.1511C15.1303 18.8561 13.782 19.3511 11.9994 19.3511C8.8235 19.3511 6.142 17.2511 5.18325 14.3711L5.04843 14.3861L1.33327 17.2511L1.28833 17.3861C3.25077 21.3011 7.2955 24.0011 11.9844 24.0011Z" fill="#34A853"/>
<path d="M5.16826 14.3697C4.91359 13.6197 4.76379 12.8247 4.76379 11.9997C4.76379 11.1747 4.91359 10.3797 5.15328 9.62969V9.46469L1.40816 6.55469L1.28832 6.61469C0.464394 8.23469 0 10.0647 0 11.9997C0 13.9347 0.464394 15.7647 1.27334 17.3847L5.16826 14.3697Z" fill="#FBBC05"/>
<path d="M11.9844 4.635C14.2315 4.635 15.7595 5.61 16.6134 6.42L19.9989 3.12C17.9167 1.185 15.2202 0 11.9844 0C7.29551 0 3.25078 2.7 1.27336 6.615L5.1533 9.63C6.12703 6.735 8.80853 4.635 11.9844 4.635Z" fill="#EB4335"/>
</g>
<defs>
<clipPath id="clip0_31_209933">
<rect width="24" height="24" fill="white"/>
</clipPath>
</defs>
</svg>
