<svg width="24" height="24" viewBox="0 0 24 24" fill="none" xmlns="http://www.w3.org/2000/svg">
<path d="M12.0266 1.31945C7.98058 1.31945 3.97948 1.12464 0.00834307 0.75C-0.216438 5.42545 4.12933 9.84615 9.599 10.9251L10.4981 11.045C10.7529 9.32166 11.9967 2.83297 12.4462 1.30446C12.3114 1.31945 12.1765 1.31945 12.0266 1.31945Z" fill="#A49DFF"/>
<path d="M12.4612 1.31945C12.4612 1.31945 18.9199 5.9949 21.3925 12.2588C22.5314 8.51245 23.3706 4.61624 24 0.75C20.1038 1.12464 16.2825 1.31945 12.4612 1.31945Z" fill="#28289A"/>
<path d="M10.4981 11.0586L10.3633 11.9577C10.3633 11.9577 9.19441 21.3086 17.3914 23.976C18.9199 20.1547 20.2536 16.2435 21.3925 12.2424C16.4773 11.8828 10.4981 11.0586 10.4981 11.0586Z" fill="#5ADCEE"/>
<path d="M12.4612 1.32031C12.0116 2.84882 10.7678 9.30753 10.5131 11.0608C10.5131 11.0608 16.4923 11.885 21.3925 12.2447C18.8899 5.99576 12.4612 1.32031 12.4612 1.32031Z" fill="#7878FF"/>
</svg>
