<svg width="32" height="32" viewBox="0 0 32 32" fill="none" xmlns="http://www.w3.org/2000/svg">
<path d="M22.4233 5.33464H9.57794L3.71127 16.0013L9.57794 26.668H22.4233L28.29 16.0013L22.4233 5.33464ZM24.3807 3.35864L30.9807 15.3586C31.0889 15.5556 31.1457 15.7766 31.1457 16.0013C31.1457 16.226 31.0889 16.447 30.9807 16.644L24.3807 28.644C24.2656 28.853 24.0965 29.0276 23.8911 29.149C23.6856 29.2705 23.4513 29.3346 23.2127 29.3346H8.78727C8.54859 29.3346 8.3143 29.2705 8.10884 29.149C7.90339 29.0276 7.73432 28.853 7.61927 28.644L1.01928 16.644C0.910965 16.447 0.854172 16.226 0.854172 16.0013C0.854172 15.7766 0.910965 15.5556 1.01928 15.3586L7.61927 3.35864C7.73443 3.14932 7.90371 2.97477 8.10942 2.85328C8.31512 2.73177 8.5497 2.66777 8.7886 2.66797H23.214C23.4527 2.66801 23.6869 2.73212 23.8924 2.85361C24.0979 2.9751 24.2669 3.1495 24.382 3.35864H24.3807Z" fill="#33363F"/>
</svg>
