<svg width="24" height="24" viewBox="0 0 24 24" fill="none" xmlns="http://www.w3.org/2000/svg">
<g clip-path="url(#clip0_31_209870)">
<path d="M12.0058 0.183594C7.07106 0.183594 5.62783 0.188685 5.34729 0.211957C4.3346 0.296139 3.70443 0.455594 3.01791 0.797412C2.48884 1.06014 2.07158 1.36468 1.65977 1.79159C0.909792 2.57014 0.455261 3.52796 0.29072 4.6665C0.210722 5.21923 0.18745 5.33196 0.182723 8.15523C0.180905 9.09632 0.182723 10.3349 0.182723 11.9961C0.182723 16.927 0.188178 18.3689 0.211813 18.6489C0.293629 19.6343 0.44817 20.2543 0.775433 20.9325C1.40087 22.2307 2.59538 23.2052 4.00261 23.5689C4.48987 23.6943 5.02803 23.7634 5.71892 23.7961C6.01164 23.8089 8.99518 23.818 11.9805 23.818C14.9659 23.818 17.9513 23.8143 18.2367 23.7998C19.0367 23.7621 19.5012 23.6998 20.0148 23.567C21.4312 23.2016 22.6039 22.2416 23.242 20.9252C23.5629 20.2634 23.7256 19.6198 23.7993 18.6858C23.8153 18.4821 23.822 15.2354 23.822 11.993C23.822 8.75014 23.8147 5.50941 23.7987 5.30578C23.7242 4.35669 23.5615 3.7185 23.2302 3.04396C22.9584 2.49178 22.6566 2.07941 22.2184 1.65778C21.4364 0.910866 20.4801 0.456321 19.3405 0.291957C18.7883 0.212139 18.6783 0.188503 15.853 0.183594H12.0058Z" fill="url(#paint0_radial_31_209870)"/>
<path d="M12.0058 0.183594C7.07106 0.183594 5.62783 0.188685 5.34729 0.211957C4.3346 0.296139 3.70443 0.455594 3.01791 0.797412C2.48884 1.06014 2.07158 1.36468 1.65977 1.79159C0.909792 2.57014 0.455261 3.52796 0.29072 4.6665C0.210722 5.21923 0.18745 5.33196 0.182723 8.15523C0.180905 9.09632 0.182723 10.3349 0.182723 11.9961C0.182723 16.927 0.188178 18.3689 0.211813 18.6489C0.293629 19.6343 0.44817 20.2543 0.775433 20.9325C1.40087 22.2307 2.59538 23.2052 4.00261 23.5689C4.48987 23.6943 5.02803 23.7634 5.71892 23.7961C6.01164 23.8089 8.99518 23.818 11.9805 23.818C14.9659 23.818 17.9513 23.8143 18.2367 23.7998C19.0367 23.7621 19.5012 23.6998 20.0148 23.567C21.4312 23.2016 22.6039 22.2416 23.242 20.9252C23.5629 20.2634 23.7256 19.6198 23.7993 18.6858C23.8153 18.4821 23.822 15.2354 23.822 11.993C23.822 8.75014 23.8147 5.50941 23.7987 5.30578C23.7242 4.35669 23.5615 3.7185 23.2302 3.04396C22.9584 2.49178 22.6566 2.07941 22.2184 1.65778C21.4364 0.910866 20.4801 0.456321 19.3405 0.291957C18.7883 0.212139 18.6783 0.188503 15.853 0.183594H12.0058Z" fill="url(#paint1_radial_31_209870)"/>
<path d="M12.0004 3.27344C9.63025 3.27344 9.33281 3.2838 8.40193 3.32616C7.47287 3.36871 6.8387 3.5158 6.28381 3.73162C5.70983 3.95453 5.22293 4.25271 4.73786 4.73798C4.25242 5.22307 3.95424 5.70998 3.73061 6.2838C3.51426 6.83889 3.36699 7.47326 3.32517 8.40198C3.28354 9.33289 3.27263 9.63053 3.27263 12.0007C3.27263 14.3709 3.28317 14.6674 3.32535 15.5983C3.36808 16.5274 3.51517 17.1616 3.7308 17.7165C3.95388 18.2905 4.25205 18.7774 4.73731 19.2625C5.22221 19.748 5.7091 20.0469 6.28272 20.2698C6.83798 20.4856 7.47232 20.6327 8.4012 20.6753C9.33208 20.7176 9.62935 20.728 11.9993 20.728C14.3696 20.728 14.6661 20.7176 15.597 20.6753C16.526 20.6327 17.1609 20.4856 17.7162 20.2698C18.29 20.0469 18.7762 19.748 19.2611 19.2625C19.7465 18.7774 20.0447 18.2905 20.2683 17.7167C20.4828 17.1616 20.6301 16.5273 20.6737 15.5985C20.7156 14.6676 20.7265 14.3709 20.7265 12.0007C20.7265 9.63053 20.7156 9.33307 20.6737 8.40216C20.6301 7.47307 20.4828 6.83889 20.2683 6.28398C20.0447 5.70998 19.7465 5.22307 19.2611 4.73798C18.7756 4.25253 18.2902 3.95435 17.7156 3.73162C17.1593 3.5158 16.5248 3.36871 15.5957 3.32616C14.6648 3.2838 14.3685 3.27344 11.9976 3.27344H12.0004ZM11.2175 4.84616C11.4498 4.8458 11.7091 4.84616 12.0004 4.84616C14.3305 4.84616 14.6066 4.85453 15.5268 4.89635C16.3777 4.93526 16.8395 5.07744 17.1471 5.19689C17.5544 5.35507 17.8447 5.54416 18.15 5.84962C18.4554 6.15507 18.6445 6.44598 18.8031 6.85326C18.9225 7.16053 19.0649 7.62235 19.1036 8.47326C19.1454 9.39326 19.1545 9.66962 19.1545 11.9987C19.1545 14.3278 19.1454 14.6042 19.1036 15.5242C19.0647 16.3751 18.9225 16.8369 18.8031 17.1442C18.6449 17.5514 18.4554 17.8414 18.15 18.1467C17.8446 18.4522 17.5546 18.6413 17.1471 18.7994C16.8399 18.9194 16.3777 19.0613 15.5268 19.1002C14.6068 19.142 14.3305 19.1511 12.0004 19.1511C9.67007 19.1511 9.3939 19.142 8.47393 19.1002C7.62304 19.0609 7.16124 18.9187 6.85343 18.7993C6.44617 18.6411 6.15527 18.452 5.84982 18.1465C5.54438 17.8411 5.35529 17.5509 5.19675 17.1434C5.0773 16.8362 4.93494 16.3743 4.89622 15.5234C4.8544 14.6034 4.84604 14.3271 4.84604 11.9965C4.84604 9.66598 4.8544 9.39107 4.89622 8.47107C4.93512 7.62016 5.0773 7.15835 5.19675 6.85071C5.35493 6.44344 5.54438 6.15253 5.84982 5.84707C6.15527 5.54162 6.44617 5.35253 6.85343 5.19398C7.16106 5.07398 7.62304 4.93216 8.47393 4.89307C9.27899 4.85671 9.59098 4.8458 11.2175 4.84398V4.84616ZM16.6588 6.29526C16.0806 6.29526 15.6115 6.7638 15.6115 7.34216C15.6115 7.92035 16.0806 8.38944 16.6588 8.38944C17.2369 8.38944 17.706 7.92035 17.706 7.34216C17.706 6.76398 17.2369 6.29489 16.6588 6.29489V6.29526ZM12.0004 7.51889C9.52535 7.51889 7.51868 9.52562 7.51868 12.0007C7.51868 14.4758 9.52535 16.4816 12.0004 16.4816C14.4754 16.4816 16.4813 14.4758 16.4813 12.0007C16.4813 9.52562 14.4752 7.51889 12.0002 7.51889H12.0004ZM12.0004 9.09162C13.6069 9.09162 14.9094 10.394 14.9094 12.0007C14.9094 13.6073 13.6069 14.9098 12.0004 14.9098C10.3937 14.9098 9.09136 13.6073 9.09136 12.0007C9.09136 10.394 10.3937 9.09162 12.0004 9.09162Z" fill="white"/>
</g>
<defs>
<radialGradient id="paint0_radial_31_209870" cx="0" cy="0" r="1" gradientUnits="userSpaceOnUse" gradientTransform="translate(6.46134 25.6383) rotate(-90) scale(23.4234 21.7909)">
<stop stop-color="#FFDD55"/>
<stop offset="0.1" stop-color="#FFDD55"/>
<stop offset="0.5" stop-color="#FF543E"/>
<stop offset="1" stop-color="#C837AB"/>
</radialGradient>
<radialGradient id="paint1_radial_31_209870" cx="0" cy="0" r="1" gradientTransform="matrix(2.05559 10.2667 -42.3291 8.47576 -3.77792 1.88617)" gradientUnits="userSpaceOnUse">
<stop stop-color="#3771C8"/>
<stop offset="0.128" stop-color="#3771C8"/>
<stop offset="1" stop-color="#6600FF" stop-opacity="0"/>
</radialGradient>
<clipPath id="clip0_31_209870">
<rect width="24" height="24" fill="white"/>
</clipPath>
</defs>
</svg>
