<svg width="24" height="24" viewBox="0 0 24 24" fill="none" xmlns="http://www.w3.org/2000/svg">
<g clip-path="url(#clip0_31_209879)">
<path d="M12 24C5.37 24 0 18.63 0 12C0 5.37 5.37 0 12 0C18.63 0 24 5.37 24 12C24 18.63 18.63 24 12 24Z" fill="#FFE01B"/>
<path d="M8.78999 14.4595C8.80499 14.4745 8.80499 14.5045 8.78999 14.5345C8.72999 14.6395 8.60999 14.6995 8.48999 14.6845C8.26499 14.6545 8.09999 14.4745 8.11499 14.2495C8.11499 14.0995 8.14499 13.9645 8.18999 13.8145C8.26499 13.6345 8.18999 13.4395 8.03999 13.3345C7.94999 13.2745 7.82999 13.2595 7.72499 13.2745C7.61999 13.2895 7.52999 13.3645 7.46999 13.4545C7.42499 13.5295 7.39499 13.6045 7.37999 13.6795C7.37999 13.6945 7.36499 13.7095 7.36499 13.7095C7.33499 13.7995 7.27499 13.8295 7.22999 13.8295C7.21499 13.8295 7.18499 13.8145 7.16999 13.7695C7.12499 13.5145 7.21499 13.2595 7.37999 13.0645C7.52999 12.8995 7.73999 12.8245 7.96499 12.8545C8.18999 12.8845 8.39999 13.0345 8.48999 13.2445C8.59499 13.4995 8.56499 13.7845 8.42999 14.0245C8.41499 14.0395 8.41499 14.0695 8.39999 14.0845C8.35499 14.1745 8.33999 14.2945 8.39999 14.3845C8.44499 14.4445 8.50499 14.4745 8.57999 14.4745C8.60999 14.4745 8.63999 14.4745 8.66999 14.4595C8.72999 14.4295 8.77499 14.4295 8.78999 14.4595ZM18.705 14.6995C18.69 15.1645 18.585 15.6145 18.42 16.0495C17.58 18.0745 15.57 19.1995 13.17 19.1245C10.935 19.0645 9.02999 17.8795 8.20499 15.9445C7.67999 15.9295 7.16999 15.7195 6.79499 15.3745C6.39 15.0295 6.135 14.5495 6.075 14.0245C6.03 13.6645 6.075 13.3045 6.21 12.9595L5.745 12.5695C3.585 10.7695 10.29 3.29951 12.42 5.17451C12.435 5.18951 13.155 5.89451 13.155 5.89451C13.155 5.89451 13.545 5.72951 13.56 5.72951C15.435 4.94951 16.965 5.32451 16.965 6.56951C16.965 7.21451 16.56 7.96451 15.9 8.65451C16.17 8.92451 16.35 9.25451 16.44 9.61451C16.515 9.86951 16.545 10.1245 16.56 10.3945C16.575 10.6645 16.59 11.2795 16.59 11.2795C16.605 11.2795 16.8 11.3395 16.86 11.3545C17.25 11.4445 17.595 11.6095 17.895 11.8645C18.06 12.0145 18.15 12.2245 18.195 12.4345C18.24 12.7195 18.165 13.0045 18 13.2295C18.045 13.3345 18.075 13.4245 18.12 13.5295C18.18 13.7095 18.21 13.8595 18.225 13.8745C18.39 13.9045 18.705 14.1445 18.705 14.6995ZM9.25499 13.5895C9.10499 12.6445 8.47499 12.3145 8.03999 12.2845C7.93499 12.2845 7.82999 12.2845 7.70999 12.3145C6.94499 12.4645 6.49499 13.1245 6.585 13.9795C6.72 14.7745 7.36499 15.3745 8.15999 15.4195C8.23499 15.4195 8.30999 15.4195 8.38499 15.4045C9.17999 15.2845 9.37499 14.4295 9.25499 13.5895ZM10.575 7.58951C11.235 7.04951 11.925 6.56951 12.66 6.14951C12.66 6.14951 12.075 5.47451 11.895 5.41451C10.815 5.11451 8.47499 6.73451 6.97499 8.87951C6.37499 9.74951 5.505 11.2795 5.925 12.0595C6.075 12.2395 6.24 12.3895 6.42 12.5395C6.68999 12.1495 7.10999 11.8795 7.58999 11.7895C8.17499 10.1545 9.20999 8.69951 10.575 7.58951ZM12.915 15.0745C12.975 15.3295 13.17 15.5395 13.425 15.5995C13.56 15.6445 13.68 15.6895 13.83 15.7045C15.54 16.0045 17.145 15.0145 17.505 14.7745C17.535 14.7595 17.55 14.7745 17.535 14.8045C17.52 14.8195 17.505 14.8345 17.505 14.8495C17.07 15.4195 15.885 16.0795 14.34 16.0795C13.665 16.0795 12.99 15.8395 12.75 15.4795C12.36 14.9095 12.735 14.0845 13.365 14.1745C13.365 14.1745 13.59 14.2045 13.65 14.2045C14.64 14.2945 15.645 14.1445 16.56 13.7395C17.43 13.3345 17.76 12.8845 17.715 12.5245C17.7 12.4195 17.64 12.3145 17.565 12.2245C17.325 12.0295 17.04 11.8945 16.74 11.8345C16.605 11.7895 16.515 11.7745 16.41 11.7445C16.23 11.6845 16.14 11.6395 16.125 11.2945C16.11 11.1445 16.095 10.6345 16.08 10.4095C16.065 10.0345 16.02 9.52451 15.705 9.31451C15.63 9.25451 15.525 9.22451 15.435 9.22451C15.375 9.22451 15.33 9.22451 15.27 9.23951C15.105 9.26951 14.97 9.35951 14.85 9.47951C14.55 9.74951 14.16 9.88451 13.755 9.85451C13.53 9.83951 13.305 9.80951 13.035 9.79451C12.99 9.79451 12.93 9.79451 12.885 9.77951C12.165 9.79451 11.58 10.3345 11.49 11.0545C11.34 12.1195 12.105 12.6595 12.33 12.9895C12.36 13.0345 12.39 13.0795 12.39 13.1395C12.39 13.1995 12.36 13.2595 12.315 13.2895C11.7 13.9795 11.475 14.9395 11.715 15.8395C11.745 15.9445 11.775 16.0495 11.82 16.1545C12.375 17.4595 14.115 18.0745 15.81 17.5195C16.035 17.4445 16.245 17.3545 16.455 17.2495C16.83 17.0695 17.16 16.8145 17.445 16.5145C17.88 16.0795 18.165 15.5095 18.27 14.8945C18.315 14.5495 18.24 14.4295 18.15 14.3695C18.075 14.3245 18 14.3095 17.91 14.3245C17.865 14.0545 17.79 13.7995 17.685 13.5595C17.205 13.9195 16.65 14.2045 16.065 14.3695C15.36 14.5645 14.64 14.6395 13.905 14.6095C13.44 14.5645 13.125 14.4295 13.005 14.8195C13.71 15.0595 14.46 15.1345 15.21 15.0445C15.225 15.0445 15.255 15.0595 15.255 15.0745C15.255 15.0895 15.24 15.1045 15.225 15.1195C15.165 15.1045 14.295 15.5095 12.915 15.0745ZM10.38 8.90951C10.95 8.50451 11.61 8.21951 12.285 8.06951C13.065 7.88951 13.86 7.88951 14.64 8.06951C14.67 8.06951 14.685 8.02451 14.655 8.00951C14.25 7.79951 13.815 7.67951 13.35 7.66451C13.335 7.66451 13.32 7.64951 13.32 7.63451V7.61951C13.395 7.52951 13.47 7.43951 13.56 7.37951C13.575 7.36451 13.575 7.34951 13.56 7.34951L13.545 7.33451C12.99 7.39451 12.465 7.57451 11.985 7.88951C11.97 7.88951 11.955 7.88951 11.955 7.88951V7.87451C11.985 7.73951 12.045 7.60451 12.12 7.46951C12.12 7.45451 12.12 7.43951 12.105 7.43951H12.09C11.415 7.81451 10.815 8.30951 10.32 8.89451C10.305 8.90951 10.305 8.92451 10.32 8.92451C10.35 8.92451 10.365 8.92451 10.38 8.90951ZM14.88 12.5245C14.97 12.5845 15.105 12.5695 15.18 12.4795C15.225 12.3895 15.165 12.2845 15.045 12.2245C14.955 12.1645 14.82 12.1795 14.745 12.2695C14.7 12.3445 14.76 12.4645 14.88 12.5245ZM15.255 11.1595C15.285 11.3095 15.345 11.4595 15.435 11.5795C15.525 11.5645 15.63 11.5645 15.72 11.5795C15.78 11.4145 15.78 11.2345 15.735 11.0695C15.66 10.7545 15.57 10.5745 15.39 10.6045C15.195 10.6345 15.18 10.8595 15.255 11.1595ZM15.66 11.8795C15.54 11.8495 15.405 11.9095 15.36 12.0445C15.33 12.1645 15.39 12.2995 15.525 12.3445C15.66 12.3895 15.78 12.3145 15.825 12.1795C15.825 12.1645 15.84 12.1345 15.84 12.1195C15.84 11.9995 15.765 11.8945 15.66 11.8795Z" fill="black"/>
<path d="M12.495 11.8497C12.465 11.8497 12.45 11.8347 12.45 11.8197C12.435 11.7597 12.525 11.6847 12.6 11.6097C12.855 11.4147 13.2 11.3847 13.485 11.5047C13.62 11.5647 13.74 11.6547 13.815 11.7747C13.845 11.8197 13.845 11.8647 13.83 11.8797C13.8 11.9097 13.725 11.8797 13.59 11.8197C13.44 11.7447 13.26 11.6997 13.095 11.7147C12.9 11.7447 12.69 11.7897 12.495 11.8497ZM13.785 12.1197C13.665 11.9997 13.5 11.9397 13.35 11.9697C13.23 11.9847 13.125 12.0297 13.035 12.1047C12.99 12.1347 12.96 12.1797 12.96 12.2397C12.96 12.2547 12.96 12.2697 12.975 12.2697C12.99 12.2697 12.99 12.2847 13.005 12.2847C13.05 12.2847 13.095 12.2697 13.125 12.2547C13.305 12.1947 13.485 12.1647 13.665 12.1947C13.755 12.2097 13.785 12.2097 13.815 12.1797C13.8 12.1497 13.8 12.1347 13.785 12.1197Z" fill="black"/>
</g>
<defs>
<clipPath id="clip0_31_209879">
<rect width="24" height="24" fill="white"/>
</clipPath>
</defs>
</svg>
