<svg width="32" height="32" viewBox="0 0 32 32" fill="none" xmlns="http://www.w3.org/2000/svg">
<path d="M17.4307 25.3346L11.236 30.2013C10.9411 30.4332 10.5869 30.5773 10.2139 30.6174C9.84092 30.6576 9.46418 30.592 9.1267 30.4282C8.7892 30.2644 8.5046 30.009 8.30536 29.6912C8.10614 29.3733 8.00032 29.0058 8 28.6306V25.3346C7.12452 25.3346 6.25762 25.1622 5.44878 24.8272C4.63994 24.4921 3.90502 24.001 3.28596 23.382C2.03571 22.1318 1.33334 20.4361 1.33334 18.668V9.33464C1.33334 7.56653 2.03571 5.87084 3.28596 4.6206C4.5362 3.37034 6.2319 2.66797 8 2.66797H24C24.8755 2.66797 25.7424 2.84041 26.5512 3.17544C27.36 3.51048 28.0949 4.00153 28.714 4.6206C29.3331 5.23965 29.8241 5.97457 30.1592 6.78341C30.4943 7.59225 30.6667 8.45916 30.6667 9.33464V18.668C30.6667 19.5434 30.4943 20.4104 30.1592 21.2192C29.8241 22.028 29.3331 22.7629 28.714 23.382C28.0949 24.001 27.36 24.4921 26.5512 24.8272C25.7424 25.1622 24.8755 25.3346 24 25.3346H17.4307ZM10.6667 27.2586L16.508 22.668H24C25.0608 22.668 26.0783 22.2465 26.8284 21.4964C27.5785 20.7462 28 19.7288 28 18.668V9.33464C28 8.27377 27.5785 7.25636 26.8284 6.50621C26.0783 5.75606 25.0608 5.33464 24 5.33464H8C6.93914 5.33464 5.92172 5.75606 5.17158 6.50621C4.42143 7.25636 4 8.27377 4 9.33464V18.668C4 19.7288 4.42143 20.7462 5.17158 21.4964C5.92172 22.2465 6.93914 22.668 8 22.668H10.6667V27.2586Z" fill="#33363F"/>
</svg>
