<svg width="24" height="24" viewBox="0 0 24 24" fill="none" xmlns="http://www.w3.org/2000/svg">
<path d="M8.80783 0.704393C5.13521 0.976146 2.01307 1.22607 1.86628 1.25533C1.4547 1.32873 1.08028 1.60791 0.904226 1.97536L0.75 2.29868L0.764865 10.0044L0.786698 17.7101L1.02175 18.1876C1.15415 18.452 2.05023 19.6862 3.02715 20.9567C4.95915 23.4615 5.09852 23.6013 5.83295 23.6747C6.04617 23.6966 7.64742 23.6232 9.38107 23.5205C11.1221 23.4104 13.9131 23.2413 15.5882 23.1461C22.7425 22.7118 22.375 22.7485 22.7862 22.3959C23.3004 21.9699 23.2637 22.6676 23.2855 13.3021C23.3004 5.36136 23.293 4.84015 23.1754 4.59766C23.0361 4.32591 22.7862 4.13499 19.5247 1.84297C17.3432 0.315112 17.189 0.234283 16.2116 0.219418C15.8079 0.205018 12.473 0.425207 8.80783 0.704393ZM17.064 1.71058C17.3725 1.84994 19.6278 3.42192 19.9581 3.72341C20.0463 3.81167 20.0756 3.88507 20.0315 3.9292C19.9288 4.01746 5.97184 4.84758 5.56816 4.78859C5.38467 4.75932 5.11292 4.64923 4.95869 4.5461C4.31949 4.11269 2.7331 2.81245 2.7331 2.71722C2.7331 2.4673 2.68154 2.4673 8.90352 2.01949C10.0937 1.93866 12.0475 1.79187 13.2376 1.69618C15.8153 1.49039 16.5869 1.49782 17.064 1.71058ZM21.5008 5.72881C21.6035 5.83147 21.6917 6.02983 21.721 6.22075C21.7428 6.39727 21.7577 9.68804 21.7428 13.5223C21.721 20.1039 21.7135 20.5154 21.5886 20.7064C21.5152 20.8239 21.3684 20.9488 21.2578 20.9855C20.9499 21.1105 6.32489 21.9406 6.02387 21.8524C5.88451 21.8157 5.69312 21.6981 5.59046 21.5955L5.41393 21.4046L5.3921 14.3088C5.37724 9.32849 5.3921 7.12473 5.4511 6.92638C5.49523 6.77959 5.60532 6.60306 5.70102 6.54453C5.83341 6.45627 6.70023 6.38287 9.68255 6.20681C11.7762 6.08929 15.0154 5.89093 16.874 5.78083C21.295 5.50862 21.2806 5.50862 21.5008 5.72881Z" fill="black"/>
<path d="M17.5708 8.16171C16.7774 8.21327 16.0722 8.28667 15.9914 8.3308C15.7489 8.45576 15.6021 8.66155 15.5729 8.8966C15.551 9.13909 15.6244 9.16836 16.4174 9.26405L16.7625 9.30818V12.4447C16.7625 14.3103 16.7333 15.5446 16.6966 15.5079C16.6599 15.4637 15.617 13.8773 14.3753 11.982C13.134 10.0798 12.1056 8.51475 12.0907 8.50035C12.0758 8.48549 11.268 8.52962 10.2985 8.59605C9.10838 8.67688 8.45478 8.75027 8.32239 8.82367C8.10917 8.93376 7.87411 9.32305 7.87411 9.5804C7.87411 9.73462 8.1533 9.81545 8.74094 9.81545H9.04939V18.8358L8.55001 18.99C8.16073 19.1076 8.02834 19.1809 7.96238 19.3277C7.84485 19.5777 7.85228 19.8053 7.96981 19.8053C8.01394 19.8053 8.84406 19.7537 9.79868 19.6952C11.6866 19.5851 11.8993 19.5335 12.0977 19.1442C12.1567 19.0267 12.2078 18.9018 12.2078 18.8651C12.2078 18.8358 11.9509 18.7475 11.642 18.6741C11.3261 18.6007 11.0102 18.5273 10.9442 18.5125C10.8193 18.4758 10.8118 18.2482 10.8118 15.0893V11.7029L13.0449 15.2068C15.388 18.8795 15.682 19.2985 16.042 19.482C16.4903 19.717 17.6289 19.5554 18.2017 19.1809L18.3782 19.0709L18.3931 14.0613L18.4149 9.04432L18.8042 8.97093C19.2668 8.88267 19.4801 8.66991 19.4801 8.30246C19.4801 8.06741 19.4652 8.05254 19.245 8.05997C19.1135 8.06601 18.3568 8.11014 17.5708 8.16171Z" fill="black"/>
</svg>
