<svg width="32" height="32" viewBox="0 0 32 32" fill="none" xmlns="http://www.w3.org/2000/svg">
<path d="M20.2293 5.33464H11.7707L5.33334 11.772V20.2306L11.7707 26.668H20.2293L26.6667 20.2306V11.772L20.2293 5.33464ZM21.7227 3.05864L28.9427 10.2773C29.1928 10.5273 29.3332 10.8664 29.3333 11.22V20.7826C29.3332 21.1362 29.1928 21.4753 28.9427 21.7253L21.724 28.944C21.474 29.1941 21.1349 29.3345 20.7813 29.3346H11.2187C10.8651 29.3345 10.526 29.1941 10.276 28.944L3.05734 21.7253C2.80727 21.4753 2.66675 21.1362 2.66667 20.7826V11.22C2.66675 10.8664 2.80727 10.5273 3.05734 10.2773L10.276 3.05864C10.526 2.80857 10.8651 2.66805 11.2187 2.66797H20.7813C21.1349 2.66805 21.4727 2.80857 21.7227 3.05864Z" fill="#33363F"/>
</svg>
