<svg width="24" height="24" viewBox="0 0 24 24" fill="none" xmlns="http://www.w3.org/2000/svg">
<path d="M7.27869 23.1845L7.69464 20.5425L6.76811 20.521H2.34381L5.41847 1.02565C5.42762 0.966079 5.45788 0.911784 5.50372 0.87266C5.54956 0.833535 5.60793 0.812186 5.6682 0.812503H13.1282C15.6048 0.812503 17.3139 1.32786 18.2062 2.34506C18.6246 2.82225 18.891 3.3209 19.0198 3.86967C19.155 4.44547 19.1574 5.13341 19.0254 5.97246L19.0158 6.0337V6.57133L19.4342 6.80833C19.7535 6.97013 20.0406 7.18899 20.2812 7.45412C20.6391 7.86211 20.8705 8.38065 20.9683 8.99542C21.0693 9.62769 21.0359 10.3801 20.8705 11.2318C20.6796 12.2116 20.371 13.065 19.9543 13.7633C19.5866 14.3888 19.0922 14.9306 18.5029 15.3539C17.9493 15.7468 17.2916 16.045 16.548 16.2359C15.8275 16.4236 15.0059 16.5182 14.1048 16.5182H13.5242C13.1091 16.5182 12.7059 16.6678 12.3893 16.9358C12.0733 17.2067 11.8636 17.5809 11.7976 17.9919L11.7539 18.2297L11.019 22.8863L10.9856 23.0573C10.9769 23.1113 10.9618 23.1384 10.9395 23.1567C10.9179 23.1743 10.891 23.1841 10.8631 23.1845H7.27869Z" fill="#253B80"/>
<path d="M19.8302 6.09766C19.808 6.24002 19.7825 6.38556 19.7539 6.53508C18.7701 11.5861 15.4044 13.331 11.1057 13.331H8.91703C8.39133 13.331 7.94834 13.7127 7.86642 14.2313L6.74584 21.3381L6.42851 23.3527C6.41587 23.4326 6.42069 23.5143 6.44265 23.5921C6.46462 23.67 6.50319 23.7422 6.55572 23.8037C6.60825 23.8652 6.67349 23.9146 6.74695 23.9485C6.82041 23.9824 6.90035 24 6.98125 24H10.8631C11.3228 24 11.7133 23.666 11.7857 23.2127L11.8239 23.0154L12.5548 18.3772L12.6017 18.1227C12.6733 17.6678 13.0646 17.3338 13.5242 17.3338H14.1048C17.8658 17.3338 20.8101 15.8068 21.6706 11.388C22.0301 9.54213 21.844 8.00083 20.8928 6.91682C20.5913 6.58149 20.2312 6.3039 19.8302 6.09766Z" fill="#179BD7"/>
<path d="M18.8011 5.68543C18.487 5.59456 18.1675 5.52364 17.8444 5.47308C17.206 5.37498 16.5608 5.3279 15.915 5.33231H10.0679C9.84534 5.33214 9.6301 5.41158 9.46105 5.55628C9.29199 5.70098 9.18028 5.90138 9.14611 6.12126L7.90224 13.9996L7.86646 14.2294C7.90521 13.9786 8.03244 13.75 8.22514 13.5848C8.41784 13.4197 8.66328 13.329 8.91706 13.3291H11.1057C15.4044 13.3291 18.7701 11.5834 19.7539 6.53323C19.7833 6.38371 19.808 6.23817 19.8303 6.09581C19.5707 5.95968 19.3001 5.84555 19.0214 5.75462C18.9484 5.73038 18.8749 5.70732 18.8011 5.68543Z" fill="#222D65"/>
<path d="M9.14602 6.12307C9.1799 5.90313 9.29155 5.70263 9.46069 5.55801C9.62983 5.41339 9.84524 5.33423 10.0678 5.33492H15.9149C16.6076 5.33492 17.2542 5.38026 17.8443 5.47569C18.2436 5.53845 18.6374 5.63232 19.0221 5.75644C19.3124 5.85267 19.582 5.9664 19.831 6.09762C20.1236 4.23104 19.8286 2.96014 18.8193 1.80933C17.7067 0.5424 15.6986 0 13.1289 0H5.66893C5.14403 0 4.69627 0.381748 4.61515 0.901084L1.50788 20.5969C1.49341 20.6883 1.49891 20.7818 1.52402 20.8709C1.54913 20.96 1.59324 21.0427 1.65332 21.1131C1.71341 21.1835 1.78804 21.2401 1.87207 21.279C1.95611 21.3178 2.04757 21.338 2.14015 21.3381H6.74578L7.90216 14.0014L9.14602 6.12307Z" fill="#253B80"/>
</svg>
