<svg width="32" height="32" viewBox="0 0 32 32" fill="none" xmlns="http://www.w3.org/2000/svg">
<path d="M15.9684 4.37201L4.24704 13.7747L8.9337 26.6654H23.0671L27.7537 13.7774L15.9671 4.37334L15.9684 4.37201ZM30.5871 13.788L25.2537 28.4547C25.1601 28.7119 24.9896 28.934 24.7653 29.091C24.5412 29.2479 24.2741 29.332 24.0004 29.332H8.00037C7.72668 29.332 7.45958 29.2479 7.23535 29.091C7.01113 28.934 6.84065 28.7119 6.74704 28.4547L1.4137 13.788C1.31843 13.5262 1.30757 13.2411 1.38266 12.9727C1.45776 12.7044 1.61502 12.4664 1.83237 12.292L15.1324 1.62534C15.3684 1.43595 15.6619 1.33251 15.9645 1.33203C16.2672 1.33155 16.5611 1.43405 16.7977 1.62267L30.1657 12.2893C30.3841 12.4635 30.5423 12.7019 30.6179 12.9708C30.6935 13.2397 30.6827 13.5255 30.5871 13.788Z" fill="#33363F"/>
</svg>
