<svg width="24" height="24" viewBox="0 0 24 24" fill="none" xmlns="http://www.w3.org/2000/svg">
<path d="M12 12C10.35 12 9 10.65 9 9C9 7.35 10.335 6 12 6C13.65 6 15 7.335 15 9C15 10.665 13.665 12 12 12ZM12 0C7.035 0 3 4.035 3 9C3 13.98 7.035 18 12 18C16.965 18 21 13.98 21 9.015C21 9.015 21 9.015 21 9C21 4.035 16.98 0 12 0Z" fill="#5C54FF"/>
<path fill-rule="evenodd" clip-rule="evenodd" d="M6 18C4.35 18 3 19.335 3 21C3 22.65 4.335 24 6 24C7.65 24 9 22.665 9 21C9 19.335 7.665 18 6 18Z" fill="#5C54FF"/>
</svg>
