<svg width="24" height="24" viewBox="0 0 24 24" fill="none" xmlns="http://www.w3.org/2000/svg">
<path d="M22.4455 11.934C22.4455 10.5465 20.7078 9.23152 18.0438 8.41604C18.6585 5.70077 18.3853 3.54046 17.1813 2.84882C16.9038 2.68659 16.5794 2.60974 16.225 2.60974V3.56181C16.4214 3.56181 16.5794 3.60023 16.7117 3.67281C17.2923 4.00582 17.5442 5.27383 17.3479 6.9047C17.3009 7.30602 17.224 7.72868 17.1301 8.1599C16.2933 7.95498 15.3797 7.79702 14.4191 7.69456C13.8427 6.9047 13.245 6.18745 12.643 5.55987C14.0348 4.26625 15.3412 3.55754 16.2293 3.55754V2.60547C15.0552 2.60547 13.5182 3.44227 11.9642 4.89385C10.4102 3.4508 8.87319 2.62255 7.69911 2.62255V3.57461C8.58288 3.57461 9.89354 4.27906 11.2854 5.56414C10.6876 6.19172 10.0899 6.9047 9.52211 7.69456C8.55727 7.79702 7.64361 7.95498 6.80679 8.16417C6.70861 7.73724 6.63604 7.32313 6.58481 6.92604C6.38413 5.29517 6.63177 4.02717 7.20812 3.68988C7.33619 3.61304 7.5027 3.57888 7.69911 3.57888V2.62682C7.34046 2.62682 7.01599 2.70366 6.73423 2.8659C5.53454 3.55754 5.26557 5.71356 5.88463 8.42032C3.22909 9.24003 1.5 10.5507 1.5 11.934C1.5 13.3216 3.23763 14.6365 5.90169 15.452C5.28692 18.1673 5.56016 20.3275 6.76412 21.0192C7.04164 21.1814 7.36608 21.2583 7.72473 21.2583C8.89881 21.2583 10.4358 20.4215 11.9898 18.9699C13.5439 20.4129 15.0808 21.2412 16.2549 21.2412C16.6135 21.2412 16.938 21.1644 17.2198 21.0021C18.4194 20.3105 18.6884 18.1545 18.0694 15.4477C20.7164 14.6323 22.4455 13.3173 22.4455 11.934ZM16.8867 9.08634C16.7288 9.63708 16.5324 10.2049 16.3104 10.7728C16.1353 10.4312 15.9518 10.0896 15.7511 9.74809C15.5547 9.40655 15.3455 9.07356 15.1363 8.74908C15.7426 8.83875 16.3275 8.94972 16.8867 9.08634ZM14.9314 13.6332C14.5984 14.2096 14.2568 14.7561 13.9025 15.2641C13.2663 15.3196 12.6217 15.3495 11.9727 15.3495C11.328 15.3495 10.6834 15.3196 10.0515 15.2684C9.69718 14.7603 9.35136 14.2181 9.01833 13.646C8.69385 13.0867 8.39926 12.5189 8.13033 11.9468C8.39502 11.3747 8.69385 10.8026 9.01405 10.2434C9.34708 9.66697 9.68862 9.12051 10.043 8.61245C10.6791 8.55694 11.3238 8.52705 11.9727 8.52705C12.6174 8.52705 13.262 8.55694 13.8939 8.60817C14.2483 9.11623 14.5941 9.65846 14.9271 10.2305C15.2516 10.7898 15.5462 11.3577 15.8151 11.9297C15.5462 12.5018 15.2516 13.0739 14.9314 13.6332ZM16.3104 13.0782C16.5409 13.6503 16.7373 14.2224 16.8996 14.7774C16.3403 14.914 15.7511 15.0293 15.1406 15.1189C15.3498 14.7902 15.559 14.4529 15.7554 14.1071C15.9518 13.7656 16.1353 13.4197 16.3104 13.0782ZM11.9813 17.6336C11.5842 17.2237 11.1872 16.7669 10.7944 16.2674C11.1786 16.2845 11.5714 16.2973 11.9685 16.2973C12.3698 16.2973 12.7668 16.2887 13.1554 16.2674C12.7711 16.7669 12.3741 17.2237 11.9813 17.6336ZM8.80486 15.1189C8.19862 15.0293 7.61372 14.9183 7.05443 14.7817C7.21239 14.2309 7.4088 13.6631 7.63078 13.0953C7.80585 13.4368 7.98942 13.7784 8.19006 14.1199C8.39075 14.4615 8.59566 14.7945 8.80486 15.1189ZM11.9599 6.23444C12.357 6.64428 12.754 7.1011 13.1468 7.60061C12.7625 7.58355 12.3698 7.57072 11.9727 7.57072C11.5714 7.57072 11.1744 7.57927 10.7859 7.60061C11.1701 7.1011 11.5671 6.64428 11.9599 6.23444ZM8.80058 8.74908C8.59139 9.07783 8.3822 9.4151 8.18579 9.76092C7.98943 10.1025 7.80585 10.444 7.63078 10.7855C7.40025 10.2135 7.20384 9.64135 7.04164 9.08634C7.60089 8.95399 8.19006 8.83875 8.80058 8.74908ZM4.93683 14.0943C3.42548 13.4496 2.44779 12.6043 2.44779 11.934C2.44779 11.2637 3.42548 10.4141 4.93683 9.7737C5.304 9.61574 5.70531 9.47488 6.11943 9.34253C6.36279 10.1793 6.683 11.0502 7.08004 11.9426C6.68727 12.8306 6.37134 13.6973 6.13226 14.5298C5.70958 14.3974 5.30826 14.2523 4.93683 14.0943ZM7.23373 20.1952C6.65311 19.8622 6.40124 18.5942 6.5976 16.9633C6.64455 16.562 6.72144 16.1393 6.81534 15.7081C7.65216 15.913 8.56577 16.071 9.52639 16.1735C10.1027 16.9633 10.7005 17.6806 11.3024 18.3081C9.91065 19.6018 8.60422 20.3105 7.71617 20.3105C7.52404 20.3062 7.3618 20.2678 7.23373 20.1952ZM17.3606 16.942C17.5613 18.5728 17.3137 19.8409 16.7373 20.1781C16.6093 20.255 16.4427 20.2891 16.2463 20.2891C15.3626 20.2891 14.0519 19.5847 12.6601 18.2996C13.2578 17.672 13.8555 16.959 14.4233 16.1692C15.3882 16.0668 16.3018 15.9088 17.1387 15.6996C17.2368 16.1308 17.3137 16.5449 17.3606 16.942ZM19.0043 14.0943C18.6372 14.2523 18.2359 14.3932 17.8217 14.5255C17.5784 13.6887 17.2582 12.8178 16.8611 11.9255C17.2539 11.0375 17.5698 10.1707 17.8089 9.33825C18.2316 9.4706 18.6329 9.61574 19.0086 9.7737C20.52 10.4184 21.4977 11.2637 21.4977 11.934C21.4934 12.6043 20.5157 13.4539 19.0043 14.0943Z" fill="#61DAFB"/>
<path d="M11.9683 13.8866C13.0458 13.8866 13.9194 13.013 13.9194 11.9355C13.9194 10.8579 13.0458 9.98438 11.9683 9.98438C10.8907 9.98438 10.0172 10.8579 10.0172 11.9355C10.0172 13.013 10.8907 13.8866 11.9683 13.8866Z" fill="#61DAFB"/>
</svg>
