<svg width="32" height="32" viewBox="0 0 32 32" fill="none" xmlns="http://www.w3.org/2000/svg">
<g clip-path="url(#clip0_31_209739)">
<path d="M15.9999 3.48791L3.48921 15.9986L15.9999 28.5092L28.5105 15.9986L15.9999 3.48791ZM16.9425 0.659913L31.3385 15.0559C31.5885 15.3059 31.7289 15.645 31.7289 15.9986C31.7289 16.3522 31.5885 16.6912 31.3385 16.9412L16.9425 31.3372C16.6925 31.5872 16.3535 31.7276 15.9999 31.7276C15.6463 31.7276 15.3072 31.5872 15.0572 31.3372L0.661213 16.9412C0.411252 16.6912 0.270832 16.3522 0.270832 15.9986C0.270832 15.645 0.411252 15.3059 0.661213 15.0559L15.0572 0.659913C15.3072 0.409951 15.6463 0.269531 15.9999 0.269531C16.3535 0.269531 16.6925 0.409951 16.9425 0.659913Z" fill="#33363F"/>
</g>
<defs>
<clipPath id="clip0_31_209739">
<rect width="32" height="32" fill="white"/>
</clipPath>
</defs>
</svg>
