<svg width="32" height="32" viewBox="0 0 32 32" fill="none" xmlns="http://www.w3.org/2000/svg">
<path d="M9.33333 5.33464C8.27246 5.33464 7.25505 5.75606 6.5049 6.50621C5.75476 7.25636 5.33333 8.27377 5.33333 9.33463V22.668C5.33333 23.7288 5.75476 24.7462 6.5049 25.4964C7.25505 26.2465 8.27246 26.668 9.33333 26.668H22.6667C23.7275 26.668 24.7449 26.2465 25.4951 25.4964C26.2452 24.7462 26.6667 23.7288 26.6667 22.668V9.33463C26.6667 8.27377 26.2452 7.25636 25.4951 6.50621C24.7449 5.75606 23.7275 5.33464 22.6667 5.33464H9.33333ZM9.33333 2.66797H22.6667C24.4348 2.66797 26.1305 3.37034 27.3807 4.6206C28.6309 5.87084 29.3333 7.56653 29.3333 9.33463V22.668C29.3333 24.4361 28.6309 26.1318 27.3807 27.382C26.1305 28.6322 24.4348 29.3346 22.6667 29.3346H9.33333C7.56522 29.3346 5.86953 28.6322 4.61929 27.382C3.36904 26.1318 2.66666 24.4361 2.66666 22.668V9.33463C2.66666 7.56653 3.36904 5.87084 4.61929 4.6206C5.86953 3.37034 7.56522 2.66797 9.33333 2.66797Z" fill="#33363F"/>
</svg>
