<svg width="24" height="24" viewBox="0 0 24 24" fill="none" xmlns="http://www.w3.org/2000/svg">
<path d="M23.5509 19.1108C24.0932 20.0524 24.1457 21.0427 23.6951 21.8255C23.2451 22.6089 22.3646 23.0576 21.2794 23.0576H19.2343C19.2585 22.6762 19.2747 22.2917 19.2747 21.9043C19.2747 21.4704 19.2545 21.042 19.2249 20.6149L20.5701 20.6136C20.9009 20.6136 21.1682 20.3448 21.1682 20.0134C21.1682 19.9135 21.1435 19.8152 21.0962 19.7271L12.5222 4.82433C12.4704 4.73213 12.395 4.65539 12.3037 4.60201C12.2125 4.54862 12.1086 4.52052 12.0029 4.52059C11.8998 4.52062 11.7985 4.54731 11.7088 4.59807C11.6191 4.64883 11.544 4.72193 11.4909 4.81027L10.1295 7.1767C14.2669 10.2956 17.0484 15.1276 17.429 20.6136C17.4586 21.04 17.4788 21.4685 17.4788 21.9029C17.4788 22.2903 17.4626 22.6742 17.439 23.0562H10.76C10.7964 22.6762 10.8173 22.2923 10.8173 21.9029C10.8173 21.4671 10.7917 21.0373 10.7445 20.6136C10.4145 17.5944 8.93653 14.9187 6.76002 13.0305L5.82228 14.6594C7.46659 16.1898 8.58892 18.2741 8.89406 20.6136C8.94937 21.0359 8.98031 21.4658 8.98031 21.9029C8.98031 22.2923 8.95471 22.6776 8.91094 23.0562H2.71957C1.63436 23.0562 0.753901 22.6068 0.303919 21.8234C-0.146718 21.0406 -0.0942203 20.0511 0.448101 19.1087L1.7193 16.9302C2.44548 17.3208 3.10173 17.8294 3.66125 18.435L2.9035 19.7257C2.85641 19.8138 2.83163 19.9121 2.83131 20.012C2.83117 20.0907 2.84653 20.1686 2.87653 20.2414C2.90653 20.3141 2.95057 20.3802 3.00614 20.4359C3.06171 20.4915 3.12772 20.5357 3.20038 20.5659C3.27304 20.596 3.35093 20.6115 3.4296 20.6115L6.43257 20.613C6.18067 19.1734 5.51648 17.8746 4.56534 16.846C4.00483 16.2418 3.3501 15.7304 2.62123 15.3391L5.97453 9.51276C6.68651 9.91081 7.36286 10.3695 7.99607 10.8837C10.886 13.2286 12.8375 16.6917 13.1911 20.6123H14.9884C14.6219 16.0289 12.3188 11.9871 8.90081 9.31139C8.25899 8.80869 7.57981 8.35561 6.86915 7.95611L9.7314 2.98334C10.273 2.04091 11.1014 1.5 12.0029 1.5C12.9035 1.5 13.7314 2.04091 14.2737 2.98334L23.5509 19.1108Z" fill="#362D59"/>
</svg>
