<svg width="24" height="24" viewBox="0 0 24 24" fill="none" xmlns="http://www.w3.org/2000/svg">
<path d="M19.8934 4.71135C19.8769 4.59135 19.7718 4.52494 19.6849 4.51762C19.5982 4.51039 17.763 4.37436 17.763 4.37436C17.763 4.37436 16.4885 3.10902 16.3486 2.96897C16.2086 2.82899 15.9352 2.87157 15.8291 2.9028C15.8135 2.9074 15.5507 2.98853 15.1159 3.12308C14.6901 1.89792 13.9387 0.772062 12.6168 0.772062C12.5803 0.772062 12.5428 0.773541 12.5052 0.775678C12.1293 0.2785 11.6636 0.0625 11.2613 0.0625C8.18202 0.0625 6.71087 3.91195 6.24961 5.86812C5.05306 6.23888 4.20303 6.50247 4.09445 6.53658C3.42656 6.74609 3.40544 6.76713 3.31774 7.39647C3.25174 7.87294 1.50418 21.3876 1.50418 21.3876L15.1216 23.939L22.4999 22.3429C22.4999 22.3429 19.9097 4.83135 19.8934 4.71135ZM14.3633 3.35584L13.211 3.71247C13.2114 3.63127 13.2118 3.55138 13.2118 3.46401C13.2118 2.70258 13.1061 2.08951 12.9366 1.60351C13.6177 1.68899 14.0713 2.46398 14.3633 3.35584ZM12.0916 1.7545C12.281 2.22899 12.4041 2.90995 12.4041 3.82886C12.4041 3.87587 12.4037 3.91886 12.4033 3.96234C11.654 4.19444 10.8397 4.44644 10.0236 4.69927C10.4818 2.93083 11.3407 2.07669 12.0916 1.7545ZM11.1768 0.888445C11.3097 0.888445 11.4436 0.933568 11.5717 1.02176C10.5848 1.48614 9.527 2.65573 9.08029 4.99138L7.19925 5.57395C7.72248 3.79244 8.96498 0.888445 11.1768 0.888445Z" fill="#95BF46"/>
<path d="M19.6849 4.51789C19.5982 4.51066 17.763 4.37463 17.763 4.37463C17.763 4.37463 16.4885 3.10929 16.3486 2.96923C16.2962 2.91713 16.2256 2.89041 16.1518 2.87891L15.1222 23.9392L22.4999 22.3432C22.4999 22.3432 19.9097 4.83162 19.8934 4.71162C19.8769 4.59162 19.7718 4.52521 19.6849 4.51789Z" fill="#5E8E3E"/>
<path d="M12.6168 8.59483L11.7071 11.3011C11.7071 11.3011 10.91 10.8757 9.93286 10.8757C8.50043 10.8757 8.42834 11.7746 8.42834 12.0011C8.42834 13.2371 11.6503 13.7107 11.6503 16.6058C11.6503 18.8836 10.2056 20.3503 8.25763 20.3503C5.9201 20.3503 4.7247 18.8955 4.7247 18.8955L5.35059 16.8276C5.35059 16.8276 6.57936 17.8825 7.61621 17.8825C8.29371 17.8825 8.5693 17.3491 8.5693 16.9593C8.5693 15.347 5.92602 15.2751 5.92602 12.6258C5.92602 10.3961 7.52645 8.23828 10.7571 8.23828C12.0019 8.23828 12.6168 8.59483 12.6168 8.59483Z" fill="white"/>
</svg>
