<svg width="12" height="24" viewBox="0 0 12 24" fill="none" xmlns="http://www.w3.org/2000/svg">
<g clip-path="url(#clip0_31_209833)">
<path d="M0.623903 10.8413C0.623903 10.8413 0.494131 10.8992 0.444219 10.7308C0.519087 10.5993 0.104816 9.42063 4.06785 8.62612C8.32038 7.98419 10.4267 8.91024 10.3618 8.85762C8.5294 8.16554 6.56847 7.93666 4.63685 8.18939C1.30271 8.6419 0.603938 9.33644 0.144746 10.2941C0.144746 10.2941 0.00499123 8.94182 0 8.71556C0.0299474 8.60507 0.823552 6.78978 5.24079 6.22151C3.60428 6.1916 1.99207 6.64155 0.583974 7.52115C0.583974 7.52115 0.479158 7.09496 1.16296 6.56879C2.62237 5.63925 4.28958 5.13449 5.99446 5.10603C7.27651 5.05357 8.55689 5.24792 9.77282 5.67956C10.8909 6.09523 11.5597 6.67928 11.5098 7.17388C11.5035 7.32376 11.4731 7.47143 11.4199 7.6106C11.4199 7.6106 12.0937 7.80529 11.9889 8.80501C11.8841 9.80474 11.954 10.8045 11.4898 10.7676C11.4249 10.8255 10.8809 9.77316 5.99945 9.71528C1.14798 9.88892 0.688789 10.9044 0.623903 10.8413Z" fill="black"/>
<path d="M2.05638 16.5629C2.03436 16.5371 2.01103 16.5125 1.98651 16.4893C1.95231 16.4594 1.91555 16.433 1.8767 16.4103C1.84801 16.3925 1.81518 16.3834 1.78187 16.384C1.76827 16.3836 1.75492 16.388 1.74404 16.3966C1.73315 16.4052 1.72537 16.4175 1.72197 16.4314C1.68812 16.5309 1.66143 16.6329 1.64211 16.7366C1.64211 16.7839 1.64211 16.826 1.61716 16.8734C1.55227 16.4103 1.48739 15.9368 1.42749 15.4685C1.21287 13.8479 1.02819 12.222 0.873464 10.6751C0.873464 10.5172 0.843517 10.3646 0.833534 10.2121L1.30271 10.1016C1.30271 10.2173 1.30271 10.3331 1.33765 10.4436C1.37259 10.5541 1.33765 10.6435 1.3626 10.7435L1.40753 11.1855C1.55227 12.5798 1.72197 14.0268 1.90665 15.458L2.05638 16.5629Z" fill="black"/>
<path d="M2.29097 18.1991L2.25604 18.3096C2.24224 18.3546 2.22204 18.3972 2.19614 18.4359C2.18003 18.4637 2.15981 18.4885 2.13625 18.5096C2.12472 18.516 2.11186 18.5194 2.09881 18.5194C2.08576 18.5194 2.07291 18.516 2.06138 18.5096C2.03781 18.4944 2.0173 18.4746 2.00103 18.4511C1.98476 18.4276 1.97304 18.401 1.96654 18.3728C1.94585 18.2867 1.93414 18.1984 1.93161 18.1097C1.92442 17.9958 1.92442 17.8815 1.93161 17.7676C1.93161 17.6414 1.95656 17.5204 1.97653 17.3993C1.99649 17.2783 2.02644 17.1678 2.05639 17.0573C2.08633 16.9468 2.08134 16.9626 2.09632 16.9258C2.16619 17.3572 2.23108 17.7782 2.29097 18.1991Z" fill="black"/>
<path d="M9.65303 18.7729V18.8045C9.65063 18.7835 9.65063 18.7623 9.65303 18.7413L9.70294 18.6992L9.65303 18.7729Z" fill="black"/>
<path d="M10.1072 18.7841C10.0124 19.405 9.91757 20.0101 9.82273 20.6047C9.62808 21.7675 9.42843 22.8672 9.22379 23.8722C7.03366 24.1564 4.81151 23.963 2.69526 23.3039C2.49062 22.3253 2.29097 21.2571 2.10131 20.1469C2.02145 19.6523 1.93659 19.1419 1.85674 18.621C1.90619 18.6684 1.96968 18.6963 2.03642 18.6999C2.06896 18.7046 2.10207 18.7013 2.13323 18.6904C2.16438 18.6795 2.19273 18.6611 2.2161 18.6368C2.25274 18.5965 2.28307 18.5503 2.30595 18.5C2.40078 19.1261 2.49561 19.7365 2.59544 20.3258L2.68528 20.852C2.81006 21.5886 2.93983 22.2937 3.0696 22.9567C4.92446 23.5965 6.89737 23.7607 8.82449 23.4355C8.94927 22.7936 9.07405 22.1148 9.19384 21.4045C9.23377 21.1887 9.26871 20.9677 9.30365 20.7468C9.38018 20.2837 9.45505 19.8102 9.52825 19.3261L9.62308 19.2156L9.82273 18.9472C9.923 18.9041 10.0184 18.8494 10.1072 18.7841Z" fill="black"/>
<path d="M10.1821 18.3789L10.1522 18.5841C10.1066 18.6216 10.0582 18.6551 10.0074 18.6841L10.1022 18.5262L10.1821 18.3789Z" fill="black"/>
<path d="M10.267 17.7812V17.9391C10.237 17.914 10.2004 17.8992 10.1621 17.897C10.1272 17.897 10.0972 17.9233 10.0773 17.9759L10.0423 18.0496C10.0423 18.0864 10.0024 18.1338 9.97247 18.1864L9.87764 18.3495C9.83771 18.4021 9.80277 18.4547 9.76284 18.5021L9.70794 18.5652L9.7828 18.0391C9.82148 17.9966 9.86508 17.9595 9.91258 17.9286C9.99 17.8671 10.0782 17.8224 10.1721 17.797C10.203 17.7875 10.2348 17.7822 10.267 17.7812Z" fill="black"/>
<path d="M11.1554 10.0959L11.1105 10.5431C10.9607 12.2269 10.7661 13.979 10.5465 15.7154C10.4666 16.3416 10.3818 16.9624 10.2969 17.5728C10.2454 17.5676 10.1936 17.5676 10.1422 17.5728C10.027 17.5771 9.91366 17.6039 9.80776 17.6517C9.9026 17.0045 9.98745 16.3415 10.0723 15.6786C10.267 14.1369 10.4466 12.5742 10.5714 11.0535C10.5964 10.8168 10.6163 10.5852 10.6363 10.3537C10.6363 10.238 10.6363 10.1222 10.6712 10.0117L11.1554 10.0959Z" fill="black"/>
<path d="M1.09308 10.8081C1.27276 10.7608 1.45744 10.7239 1.6521 10.6924C1.84675 10.6608 2.04141 10.624 2.24605 10.5977C2.66827 10.5437 3.09422 10.5297 3.51881 10.5556C3.09877 10.6177 2.68461 10.718 2.28099 10.8555C2.08633 10.9186 1.90166 10.987 1.72197 11.0607C1.54229 11.1344 1.36261 11.2028 1.22285 11.2764C1.16296 11.1186 1.12802 10.966 1.09308 10.8081Z" fill="black"/>
<path d="M10.821 11.1357C10.5115 11.02 10.1671 10.9042 9.82273 10.799C9.47834 10.6937 9.07904 10.5885 8.68473 10.5043C8.29043 10.4201 7.88115 10.336 7.46188 10.2781C7.03645 10.2198 6.60812 10.1882 6.17914 10.1834C6.60751 10.1195 7.03928 10.0844 7.47187 10.0781C7.89612 10.0781 8.31538 10.0781 8.72466 10.1097C9.13394 10.1413 9.52326 10.1781 9.8976 10.2307C10.2719 10.2833 10.6263 10.3412 10.9607 10.4149C10.9058 10.6517 10.8659 10.8937 10.821 11.1357Z" fill="black"/>
<path d="M9.48333 21.3042L9.36853 21.3462L9.26372 21.3778L9.06407 21.4304C8.92764 21.462 8.79288 21.4883 8.65978 21.5094C8.39351 21.5513 8.12523 21.5776 7.85619 21.5883C7.58667 21.5883 7.32213 21.5883 7.0526 21.5883L6.64832 21.5567L6.24403 21.5094L6.64832 21.483L7.04761 21.4357C7.31714 21.3989 7.58167 21.3462 7.84122 21.2831C8.10491 21.2202 8.3649 21.1412 8.61985 21.0463C8.74962 20.999 8.8744 20.9516 8.99918 20.8937L9.17887 20.8096L9.26871 20.7622C9.29493 20.7487 9.31998 20.7329 9.34358 20.7148C9.3885 20.9358 9.43841 21.1095 9.48333 21.3042Z" fill="black"/>
<path d="M2.49561 20.2305C2.63537 20.3252 2.7851 20.4146 2.93484 20.4988C3.08458 20.583 3.22932 20.6724 3.37906 20.7514C3.67559 20.9109 3.98249 21.0481 4.29745 21.1618C3.98174 21.1363 3.66815 21.087 3.35909 21.0145L2.88992 20.8934L2.42574 20.7461C2.45069 20.5725 2.45069 20.4094 2.49561 20.2305Z" fill="black"/>
<path d="M8.88438 3.47916C8.88438 3.86853 8.91433 4.26842 8.92431 4.67883C8.92559 4.69628 8.92292 4.71379 8.91653 4.72993C8.91013 4.74608 8.90019 4.7604 8.88751 4.7717C8.87484 4.783 8.85981 4.79097 8.84364 4.79495C8.82748 4.79893 8.81065 4.79881 8.79454 4.79459C8.39524 4.7525 7.99095 4.72092 7.57668 4.70513C7.30716 4.9577 7.03763 5.23131 6.76311 5.48387L6.5984 5.32602C6.87292 5.05241 7.14245 4.79985 7.41197 4.54202C7.41197 4.15266 7.41197 3.76855 7.38701 3.39497L6.96775 3.01086C6.37879 3.01086 5.77984 3.04243 5.19088 3.09505C5.17534 3.09891 5.15918 3.09915 5.14355 3.09576C5.12791 3.09236 5.11316 3.08542 5.10033 3.0754C5.0875 3.06538 5.0769 3.05253 5.06926 3.03775C5.06163 3.02297 5.05714 3.00662 5.05611 2.98982C5.05611 2.46365 5.05611 1.96379 5.08107 1.4955L4.84648 1.32186L4.11277 1.42709C4.0379 1.42709 3.983 1.42709 3.98799 1.3429L4.01794 0.743068C4.01794 0.690451 4.07783 0.637833 4.1527 0.627309C4.39727 0.590478 4.65182 0.553652 4.8914 0.527344C4.96128 0.527344 5.02117 0.527341 5.01618 0.606266V1.17979L5.25576 1.34817C5.81977 1.29029 6.38378 1.25872 6.94779 1.2482C6.96551 1.24522 6.98362 1.246 7.00105 1.2505C7.01848 1.255 7.03488 1.26312 7.0493 1.27439C7.06371 1.28567 7.07584 1.29986 7.08498 1.31614C7.09412 1.33242 7.10008 1.35047 7.10251 1.36921C7.10251 1.84277 7.12747 2.34263 7.14244 2.8688L7.55672 3.2529C7.966 3.2529 8.37029 3.295 8.76459 3.33709C8.79614 3.34461 8.82466 3.36235 8.84615 3.38783C8.86763 3.41331 8.881 3.44526 8.88438 3.47916Z" fill="black"/>
<path d="M4.74167 3.36759C4.44718 3.40442 4.1527 3.44651 3.86321 3.49387C3.82884 3.50021 3.79727 3.51789 3.77305 3.54437C3.74883 3.57085 3.73321 3.60476 3.72845 3.6412C3.72845 3.90954 3.72845 4.16736 3.72845 4.4515C3.72876 4.46875 3.73273 4.48571 3.74006 4.50113C3.74739 4.51655 3.7579 4.53006 3.77082 4.54065C3.78374 4.55124 3.79874 4.55865 3.81472 4.56234C3.83071 4.56604 3.84727 4.56592 3.86321 4.562C4.1527 4.51464 4.44718 4.47254 4.74666 4.44097C4.78183 4.43766 4.81488 4.42176 4.8403 4.39592C4.86572 4.37008 4.88199 4.33585 4.88641 4.29891C4.88641 4.02004 4.88641 3.77274 4.88641 3.47809C4.87643 3.40968 4.81653 3.36232 4.74167 3.36759Z" fill="black"/>
<path d="M5.52529 0.416177H5.83475C5.90462 0.416177 5.96452 0.363561 5.96452 0.310944V0.0794277C5.96452 0.0320723 5.90462 -0.00476044 5.83475 0.000501268H5.53028C5.4604 0.000501268 5.40051 0.0531208 5.40051 0.105738C5.40051 0.158355 5.40051 0.258323 5.40051 0.331987C5.40051 0.405651 5.44543 0.442485 5.52529 0.416177Z" fill="black"/>
<path d="M8.70969 1.95906H8.44016C8.42483 1.95592 8.40902 1.95644 8.3939 1.96056C8.37878 1.96469 8.36472 1.97233 8.35276 1.98292C8.3408 1.99352 8.33124 2.00679 8.32477 2.02178C8.3183 2.03676 8.3151 2.05309 8.31538 2.06955C8.31538 2.14848 8.31538 2.23267 8.31538 2.3116C8.31994 2.34657 8.33587 2.37879 8.36044 2.40278C8.38501 2.42677 8.41672 2.44103 8.45015 2.44314L8.71967 2.46944C8.79454 2.46944 8.84944 2.42735 8.84445 2.35895C8.83946 2.29055 8.84445 2.19584 8.84445 2.11165C8.84342 2.07329 8.82917 2.03664 8.80437 2.00856C8.77956 1.98048 8.74591 1.96288 8.70969 1.95906Z" fill="black"/>
<path d="M9.57816 2.66443C9.42177 2.63637 9.26704 2.61532 9.11398 2.60129C9.0992 2.59697 9.08366 2.5965 9.06868 2.5999C9.05369 2.6033 9.03971 2.61048 9.02794 2.62083C9.01616 2.63117 9.00694 2.64438 9.00106 2.6593C8.99518 2.67423 8.99282 2.69043 8.99419 2.70653C8.99419 2.85386 8.99419 3.00644 8.99419 3.15377C8.99543 3.19103 9.01003 3.22641 9.03504 3.25278C9.06004 3.27914 9.09361 3.29453 9.12895 3.29584L9.58814 3.36424C9.60292 3.36856 9.61846 3.36903 9.63345 3.36563C9.64843 3.36223 9.66241 3.35505 9.67419 3.3447C9.68596 3.33435 9.69519 3.32115 9.70106 3.30623C9.70694 3.2913 9.7093 3.2751 9.70793 3.259C9.70793 3.10641 9.70793 2.95382 9.70793 2.80649C9.70482 2.7708 9.69027 2.73729 9.66669 2.71147C9.6431 2.68565 9.61188 2.66906 9.57816 2.66443Z" fill="black"/>
<path d="M3.55375 3.26125C3.55375 3.07183 3.55375 2.88241 3.57871 2.69825C3.57871 2.63511 3.52381 2.59301 3.44894 2.6088L2.83502 2.74034C2.80179 2.74929 2.77159 2.76781 2.74779 2.79383C2.72399 2.81985 2.70753 2.85234 2.70025 2.88767C2.70025 3.07183 2.70025 3.26125 2.6753 3.45067C2.6753 3.51908 2.7302 3.55591 2.80008 3.54012L3.41899 3.40858C3.45369 3.40304 3.48568 3.38561 3.51004 3.35898C3.5344 3.33235 3.54976 3.29801 3.55375 3.26125Z" fill="black"/>
<path d="M11.2203 16.0868C11.0406 17.4285 10.836 18.7808 10.6113 20.0804C10.5985 20.1529 10.5691 20.221 10.5256 20.2788C10.4821 20.3366 10.4259 20.3823 10.3618 20.4119C10.237 20.4592 10.0623 20.5276 9.83771 20.5961L9.33859 20.7329C8.24952 21.0205 7.12534 21.1323 6.00445 21.0643C4.87126 20.9769 3.75462 20.7273 2.68528 20.3224L2.55052 20.2698C2.41575 20.2225 2.29097 20.1698 2.17618 20.1225C1.93161 20.0225 1.73695 19.9331 1.60218 19.8647C1.53878 19.8312 1.48338 19.7831 1.44016 19.7239C1.39694 19.6646 1.36701 19.5958 1.35262 19.5227C1.13301 18.2914 0.938351 17.0181 0.758667 15.7605C0.758667 15.6132 0.803588 15.4974 0.918387 15.4922H1.48739H1.98651C2.85498 15.4922 4.2076 15.4922 6.05436 15.5238C7.90111 15.5553 9.28867 15.6395 10.1472 15.7079L10.6463 15.75C10.8859 15.75 11.0556 15.7974 11.1454 15.8184C11.2353 15.8395 11.2452 15.9289 11.2203 16.0868Z" fill="black"/>
</g>
<defs>
<clipPath id="clip0_31_209833">
<rect width="12" height="24" fill="white"/>
</clipPath>
</defs>
</svg>
