<svg width="24" height="24" viewBox="0 0 24 24" fill="none" xmlns="http://www.w3.org/2000/svg">
<path fill-rule="evenodd" clip-rule="evenodd" d="M8.79948 0C7.47279 0.000978593 6.39909 1.07547 6.40007 2.39951C6.39909 3.72355 7.47377 4.79804 8.80046 4.79902H11.2009V2.40049C11.2018 1.07645 10.1271 0.00195719 8.79948 0C8.80046 0 8.80046 0 8.79948 0M8.79948 6.4H2.40039C1.07371 6.40098 -0.000977873 7.47547 2.67973e-06 8.79951C-0.00195842 10.1235 1.07273 11.198 2.39941 11.2H8.79948C10.1262 11.199 11.2008 10.1245 11.1999 8.80049C11.2008 7.47547 10.1262 6.40098 8.79948 6.4Z" fill="#36C5F0"/>
<path fill-rule="evenodd" clip-rule="evenodd" d="M24 8.79951C24.001 7.47547 22.9263 6.40098 21.5996 6.4C20.2729 6.40098 19.1982 7.47547 19.1992 8.79951V11.2H21.5996C22.9263 11.199 24.001 10.1245 24 8.79951ZM17.5999 8.79951V2.39951C17.6009 1.07645 16.5272 0.00195719 15.2005 0C13.8738 0.000978593 12.7991 1.07547 12.8001 2.39951V8.79951C12.7982 10.1235 13.8729 11.198 15.1995 11.2C16.5262 11.199 17.6009 10.1245 17.5999 8.79951Z" fill="#2EB67D"/>
<path fill-rule="evenodd" clip-rule="evenodd" d="M15.1995 24.0018C16.5262 24.0008 17.6009 22.9263 17.5999 21.6022C17.6009 20.2782 16.5262 19.2037 15.1995 19.2027H12.7991V21.6022C12.7982 22.9253 13.8729 23.9998 15.1995 24.0018ZM15.1995 17.6008H21.5996C22.9263 17.5998 24.001 16.5253 24 15.2013C24.002 13.8772 22.9273 12.8027 21.6006 12.8008H15.2005C13.8738 12.8018 12.7991 13.8763 12.8001 15.2003C12.7991 16.5253 13.8729 17.5998 15.1995 17.6008Z" fill="#ECB22E"/>
<path fill-rule="evenodd" clip-rule="evenodd" d="M6.70465e-07 15.2003C-0.000979882 16.5243 1.07371 17.5988 2.40039 17.5998C3.72708 17.5988 4.80176 16.5243 4.80078 15.2003V12.8008H2.40039C1.07371 12.8018 -0.000979882 13.8763 6.70465e-07 15.2003ZM6.40006 15.2003V21.6003C6.3981 22.9243 7.47279 23.9988 8.79948 24.0008C10.1262 23.9998 11.2008 22.9253 11.1999 21.6013V15.2022C11.2018 13.8782 10.1271 12.8037 8.80046 12.8018C7.47279 12.8018 6.39908 13.8763 6.40006 15.2003C6.40006 15.2013 6.40006 15.2003 6.40006 15.2003Z" fill="#E01E5A"/>
</svg>
