<svg width="32" height="32" viewBox="0 0 32 32" fill="none" xmlns="http://www.w3.org/2000/svg">
<path d="M22.6465 26.0026L21.3772 18.6026L26.7545 13.36L19.3225 12.28L15.9999 5.54802L12.6772 12.2814L5.24521 13.3613L10.6225 18.6026L9.35321 26.004L15.9999 22.5093L22.6465 26.0026ZM15.9999 25.5213L8.39454 29.52C8.15666 29.6452 7.88851 29.7012 7.62045 29.6817C7.35239 29.6624 7.0951 29.5684 6.8777 29.4102C6.6603 29.2522 6.49146 29.0365 6.39029 28.7876C6.28911 28.5386 6.25965 28.2662 6.30521 28.0013L7.75854 19.5333L1.60387 13.5346C1.41151 13.347 1.27547 13.1094 1.21115 12.8485C1.14681 12.5877 1.15676 12.314 1.23985 12.0585C1.32295 11.8029 1.47587 11.5758 1.68134 11.4026C1.88681 11.2295 2.13663 11.1173 2.40254 11.0787L10.9052 9.84268L14.7092 2.13735C14.8283 1.89674 15.0121 1.6942 15.2403 1.55259C15.4683 1.41098 15.7315 1.33594 15.9999 1.33594C16.2683 1.33594 16.5315 1.41098 16.7595 1.55259C16.9876 1.6942 17.1715 1.89674 17.2905 2.13735L21.0945 9.84402L29.5972 11.0787C29.8631 11.1173 30.1129 11.2295 30.3184 11.4026C30.5239 11.5758 30.6768 11.8029 30.7599 12.0585C30.8429 12.314 30.8529 12.5877 30.7887 12.8485C30.7243 13.1094 30.5883 13.347 30.3959 13.5346L24.2425 19.5333L25.6959 28.0013C25.7416 28.2664 25.7123 28.539 25.6109 28.7882C25.5097 29.0374 25.3408 29.2533 25.1232 29.4113C24.9056 29.5694 24.648 29.6633 24.3797 29.6826C24.1115 29.7018 23.8432 29.6454 23.6052 29.52L15.9999 25.5213Z" fill="#33363F"/>
</svg>
