<svg width="24" height="24" viewBox="0 0 24 24" fill="none" xmlns="http://www.w3.org/2000/svg">
<path fill-rule="evenodd" clip-rule="evenodd" d="M12.0002 4.5C8.79995 4.5 6.80031 6.0905 5.99988 9.2715C7.20005 7.681 8.60008 7.08468 10.2 7.48207C11.1128 7.70875 11.7656 8.36714 12.4874 9.09608C13.6641 10.2831 15.026 11.6568 18.0001 11.6568C21.1999 11.6568 23.2 10.0663 24 6.88575C22.8003 8.47625 21.4003 9.07257 19.8004 8.67471C18.8871 8.44803 18.2343 7.78964 17.5124 7.06117C16.3358 5.87323 14.9743 4.5 12.0002 4.5ZM5.99988 11.6568C2.80007 11.6568 0.799953 13.2473 0 16.4283C1.20016 14.8378 2.6002 14.2415 4.19964 14.6389C5.11293 14.8655 5.76568 15.5239 6.48757 16.2529C7.66422 17.4399 9.02569 18.8136 12.0002 18.8136C15.2 18.8136 17.2002 17.2235 18.0001 14.0425C16.8 15.633 15.3999 16.2294 13.8 15.832C12.8872 15.6048 12.2344 14.9464 11.5126 14.2179C10.3359 13.031 8.97396 11.6568 5.99988 11.6568Z" fill="#38BDF8"/>
</svg>
