<svg width="32" height="32" viewBox="0 0 32 32" fill="none" xmlns="http://www.w3.org/2000/svg">
<path d="M8.61826 6.66667L3.39293 25.3333H23.3836L28.6089 6.66667H8.61826ZM7.60759 4H30.3676C30.5733 4.00017 30.7763 4.04796 30.9604 4.1396C31.1445 4.23124 31.3051 4.36427 31.4293 4.52825C31.5535 4.69224 31.6381 4.88275 31.6764 5.08488C31.7148 5.287 31.7059 5.49525 31.6503 5.69333L25.6783 27.0267C25.5997 27.3068 25.4317 27.5535 25.1999 27.7292C24.9681 27.9049 24.6852 28 24.3943 28H1.63426C1.42854 27.9999 1.22565 27.952 1.04146 27.8604C0.857274 27.7688 0.696792 27.6357 0.572574 27.4717C0.448355 27.3077 0.363768 27.1172 0.325432 26.9151C0.287096 26.7131 0.296052 26.5048 0.351598 26.3067L6.3236 4.97333C6.40214 4.69324 6.57013 4.44652 6.80196 4.27079C7.03377 4.09505 7.3167 3.99996 7.60759 4Z" fill="#33363F"/>
</svg>
