<svg width="32" height="32" viewBox="0 0 32 32" fill="none" xmlns="http://www.w3.org/2000/svg">
<path d="M16.0013 6.56263L5.59728 25.3333H26.4053L16.0013 6.56263ZM17.168 3.12263L29.8133 26.0227C29.9252 26.2256 29.9823 26.4543 29.9789 26.686C29.9756 26.9177 29.9119 27.1445 29.7941 27.3441C29.6764 27.5439 29.5085 27.7093 29.3073 27.8243C29.1061 27.9393 28.8784 27.9999 28.6467 28H3.35595C3.12418 27.9999 2.89644 27.9393 2.69522 27.8243C2.49398 27.7093 2.3262 27.5439 2.20843 27.3441C2.09064 27.1445 2.02694 26.9177 2.02358 26.686C2.02023 26.4543 2.07734 26.2256 2.18928 26.0227L14.8333 3.12263C14.9485 2.9139 15.1176 2.73989 15.3228 2.6187C15.5281 2.49751 15.7623 2.43359 16.0007 2.43359C16.2391 2.43359 16.4731 2.49751 16.6784 2.6187C16.8837 2.73989 17.0528 2.9139 17.168 3.12263Z" fill="#33363F"/>
</svg>
