<svg width="34" height="25" viewBox="0 0 34 25" fill="none" xmlns="http://www.w3.org/2000/svg">
<path d="M22 8.83594H23.5V13.0547L27.0156 15.1641L26.2656 16.3828L22 13.8047V8.83594ZM16.6094 6.44531C18.3906 4.69531 20.5156 3.82031 22.9844 3.82031C25.4531 3.82031 27.5625 4.69531 29.3125 6.44531C31.0938 8.19531 31.9844 10.3203 31.9844 12.8203C31.9844 15.3203 31.0938 17.4453 29.3125 19.1953C27.5625 20.9453 25.4531 21.8203 22.9844 21.8203C21.9531 21.8203 20.8125 21.5703 19.5625 21.0703C18.3438 20.5391 17.375 19.9141 16.6562 19.1953L18.0625 17.7422C19.4375 19.1172 21.0781 19.8047 22.9844 19.8047C24.9219 19.8047 26.5781 19.1328 27.9531 17.7891C29.3281 16.4141 30.0156 14.7578 30.0156 12.8203C30.0156 10.8828 29.3281 9.24219 27.9531 7.89844C26.5781 6.52344 24.9219 5.83594 22.9844 5.83594C21.0469 5.83594 19.3906 6.52344 18.0156 7.89844C16.6719 9.24219 16 10.8828 16 12.8203H19L14.9688 16.8516L14.875 16.7109L10.9844 12.8203H13.9844C13.9844 10.3203 14.8594 8.19531 16.6094 6.44531Z" fill="#AAAAAA"/>
</svg>
