<svg width="21" height="17" viewBox="0 0 21 17" fill="none" xmlns="http://www.w3.org/2000/svg">
<path d="M8.95352 8.09058L11.2094 11.1285H4.17109L5.91562 8.84253L7.17891 10.3765L8.95352 8.09058ZM12.1719 12.3917V3.42847H3.20859V12.3917H12.1719ZM12.1719 2.13511C12.5128 2.13511 12.8135 2.26545 13.0742 2.52612C13.3349 2.7868 13.4652 3.08758 13.4652 3.42847V12.3917C13.4652 12.7326 13.3349 13.0334 13.0742 13.2941C12.8135 13.5548 12.5128 13.6851 12.1719 13.6851H3.20859C2.86771 13.6851 2.56693 13.5548 2.30625 13.2941C2.04557 13.0334 1.91523 12.7326 1.91523 12.3917V3.42847C1.91523 3.08758 2.04557 2.7868 2.30625 2.52612C2.56693 2.26545 2.86771 2.13511 3.20859 2.13511H12.1719Z" fill="#AAAAAA"/>
</svg>
