<svg width="21" height="17" viewBox="0 0 21 17" fill="none" xmlns="http://www.w3.org/2000/svg">
<path d="M7.7 1.71367C8.58229 1.71367 9.40443 1.86406 10.1664 2.16484C10.9484 2.46563 11.6302 2.87669 12.2117 3.39805C12.8133 3.9194 13.2745 4.53099 13.5953 5.23281C13.9362 5.93464 14.1066 6.68659 14.1066 7.48867C14.1066 8.19049 13.9362 8.83216 13.5953 9.41367C13.2544 9.99518 12.7932 10.4664 12.2117 10.8273C11.6302 11.1682 10.9785 11.3387 10.2566 11.3387H9.14375C9.04349 11.3387 8.96328 11.3688 8.90312 11.4289C8.84297 11.4891 8.81289 11.5592 8.81289 11.6395C8.81289 11.7197 8.84297 11.7898 8.90312 11.85C9.1638 12.1708 9.29414 12.5318 9.29414 12.9328C9.29414 13.374 9.13372 13.7549 8.81289 14.0758C8.51211 14.3766 8.14115 14.527 7.7 14.527C6.81771 14.527 5.98555 14.3665 5.20352 14.0457C4.44154 13.7048 3.75977 13.2436 3.1582 12.6621C2.57669 12.0605 2.11549 11.3788 1.77461 10.6168C1.45378 9.83477 1.29336 9.0026 1.29336 8.12031C1.29336 7.23802 1.45378 6.41589 1.77461 5.65391C2.11549 4.87188 2.57669 4.1901 3.1582 3.60859C3.75977 3.00703 4.44154 2.54583 5.20352 2.225C5.98555 1.88411 6.81771 1.71367 7.7 1.71367ZM11.2191 8.75195C11.4999 8.75195 11.7305 8.66172 11.9109 8.48125C12.0914 8.30078 12.1816 8.07018 12.1816 7.78945C12.1816 7.52878 12.0914 7.3082 11.9109 7.12773C11.7305 6.92721 11.4999 6.82695 11.2191 6.82695C10.9585 6.82695 10.7279 6.92721 10.5273 7.12773C10.3469 7.3082 10.2566 7.52878 10.2566 7.78945C10.2566 8.07018 10.3469 8.30078 10.5273 8.48125C10.7279 8.66172 10.9585 8.75195 11.2191 8.75195ZM9.29414 6.19531C9.57487 6.19531 9.80547 6.10508 9.98594 5.92461C10.1664 5.72409 10.2566 5.49349 10.2566 5.23281C10.2566 4.97214 10.1664 4.75156 9.98594 4.57109C9.80547 4.37057 9.57487 4.27031 9.29414 4.27031C9.03346 4.27031 8.80286 4.37057 8.60234 4.57109C8.42187 4.75156 8.33164 4.97214 8.33164 5.23281C8.33164 5.49349 8.42187 5.72409 8.60234 5.92461C8.80286 6.10508 9.03346 6.19531 9.29414 6.19531ZM3.21836 7.78945C3.21836 8.07018 3.30859 8.30078 3.48906 8.48125C3.66953 8.66172 3.90013 8.75195 4.18086 8.75195C4.44154 8.75195 4.66211 8.66172 4.84258 8.48125C5.0431 8.30078 5.14336 8.07018 5.14336 7.78945C5.14336 7.52878 5.0431 7.3082 4.84258 7.12773C4.66211 6.92721 4.44154 6.82695 4.18086 6.82695C3.90013 6.82695 3.66953 6.92721 3.48906 7.12773C3.30859 7.3082 3.21836 7.52878 3.21836 7.78945ZM7.06836 5.23281C7.06836 4.97214 6.9681 4.75156 6.76758 4.57109C6.58711 4.37057 6.36654 4.27031 6.10586 4.27031C5.82513 4.27031 5.59453 4.37057 5.41406 4.57109C5.23359 4.75156 5.14336 4.97214 5.14336 5.23281C5.14336 5.49349 5.23359 5.72409 5.41406 5.92461C5.59453 6.10508 5.82513 6.19531 6.10586 6.19531C6.36654 6.19531 6.58711 6.10508 6.76758 5.92461C6.9681 5.72409 7.06836 5.49349 7.06836 5.23281Z" fill="#AAAAAA"/>
<a href="https://www.figma.com/design/zfjbIl7dguDht1xK8P0H4B?node-id=2107-10873">
<rect fill="black" fill-opacity="0" width="15.4" height="15.4"/>
</a>
</svg>
