<svg width="23" height="23" viewBox="0 0 23 23" fill="none" xmlns="http://www.w3.org/2000/svg">
<path d="M19.123 4.57422C19.2949 4.74609 19.3809 4.96094 19.3809 5.21875C19.3809 5.47656 19.2949 5.69141 19.123 5.86328L10.916 14.0703L8.38086 11.5352L16.5879 3.32812C16.7598 3.15625 16.9746 3.07031 17.2324 3.07031C17.4902 3.07031 17.7051 3.15625 17.877 3.32812L19.123 4.57422ZM4.59961 13.9844C5.14388 13.4401 5.78841 13.168 6.5332 13.168C7.27799 13.168 7.92253 13.4401 8.4668 13.9844C9.01107 14.5286 9.2832 15.1732 9.2832 15.918C9.2832 16.9206 8.92513 17.7799 8.20898 18.4961C7.49284 19.2122 6.63346 19.5703 5.63086 19.5703C4.14128 19.5703 2.92383 18.9544 1.97852 17.7227C2.4082 17.7227 2.80924 17.5651 3.18164 17.25C3.58268 16.9062 3.7832 16.4622 3.7832 15.918C3.7832 15.1732 4.05534 14.5286 4.59961 13.9844Z" fill="#AAAAAA"/>
</svg>
