<svg width="20" height="19" viewBox="0 0 20 19" fill="none" xmlns="http://www.w3.org/2000/svg">
<path d="M2.63281 10.2227V16.668H9.07812V18.4727H2.63281C2.14583 18.4727 1.71615 18.3008 1.34375 17.957C1 17.5846 0.828125 17.1549 0.828125 16.668V10.2227H2.63281ZM17.3281 16.668V10.2227H19.1328V16.668C19.1328 17.1549 18.9466 17.5846 18.5742 17.957C18.2305 18.3008 17.8151 18.4727 17.3281 18.4727H10.8828V16.668H17.3281ZM17.3281 0.167969C17.8151 0.167969 18.2305 0.354167 18.5742 0.726562C18.9466 1.07031 19.1328 1.48568 19.1328 1.97266V8.41797H17.3281V1.97266H10.8828V0.167969H17.3281ZM14.1484 5.15234C14.4349 5.41016 14.5781 5.72526 14.5781 6.09766C14.5781 6.47005 14.4349 6.79948 14.1484 7.08594C13.8906 7.34375 13.5755 7.47266 13.2031 7.47266C12.8307 7.47266 12.5013 7.34375 12.2148 7.08594C11.957 6.79948 11.8281 6.47005 11.8281 6.09766C11.8281 5.72526 11.957 5.41016 12.2148 5.15234C12.5013 4.86589 12.8307 4.72266 13.2031 4.72266C13.5755 4.72266 13.8906 4.86589 14.1484 5.15234ZM8.13281 10.2227L10.8828 13.6172L12.7305 11.168L15.4805 14.8203H4.48047L8.13281 10.2227ZM2.63281 1.97266V8.41797H0.828125V1.97266C0.828125 1.48568 1 1.07031 1.34375 0.726562C1.71615 0.354167 2.14583 0.167969 2.63281 0.167969H9.07812V1.97266H2.63281Z" fill="#AAAAAA"/>
</svg>
