<svg width="21" height="17" viewBox="0 0 21 17" fill="none" xmlns="http://www.w3.org/2000/svg">
<path d="M2.28594 12.3313L3.42891 11.1582L4.33125 12.0605L3.18828 13.2336L2.28594 12.3313ZM7.06836 14.8277V12.9328H8.33164V14.8277H7.06836ZM4.96289 5.08242C5.72487 4.32044 6.63724 3.93945 7.7 3.93945C8.76276 3.93945 9.6651 4.32044 10.407 5.08242C11.169 5.82435 11.55 6.72669 11.55 7.78945C11.55 8.85221 11.169 9.76458 10.407 10.5266C9.6651 11.2685 8.76276 11.6395 7.7 11.6395C6.63724 11.6395 5.72487 11.2685 4.96289 10.5266C4.22096 9.76458 3.85 8.85221 3.85 7.78945C3.85 6.72669 4.22096 5.82435 4.96289 5.08242ZM12.8434 7.15781H14.7684V8.45117H12.8434V7.15781ZM11.0687 12.0605L11.9711 11.1883L13.1141 12.3313L12.2117 13.2336L11.0687 12.0605ZM13.1141 3.27773L11.9711 4.4207L11.0687 3.51836L12.2117 2.37539L13.1141 3.27773ZM8.33164 0.78125V2.67617H7.06836V0.78125H8.33164ZM2.55664 7.15781V8.45117H0.631641V7.15781H2.55664ZM4.33125 3.51836L3.42891 4.4207L2.28594 3.27773L3.18828 2.37539L4.33125 3.51836Z" fill="#AAAAAA"/>
<a href="https://www.figma.com/design/zfjbIl7dguDht1xK8P0H4B?node-id=2107-10873">
<rect fill="black" fill-opacity="0" width="15.4" height="15.4"/>
</a>
</svg>
