<svg width="23" height="23" viewBox="0 0 23 23" fill="none" xmlns="http://www.w3.org/2000/svg">
<path d="M13.375 10.0312C13.6615 10.2891 13.9909 10.418 14.3633 10.418C14.7357 10.418 15.0508 10.2891 15.3086 10.0312C15.5951 9.74479 15.7383 9.41536 15.7383 9.04297C15.7383 8.67057 15.5951 8.35547 15.3086 8.09766C15.0508 7.8112 14.7357 7.66797 14.3633 7.66797C13.9909 7.66797 13.6615 7.8112 13.375 8.09766C13.1172 8.35547 12.9883 8.67057 12.9883 9.04297C12.9883 9.41536 13.1172 9.74479 13.375 10.0312ZM8.34766 15.832C9.17839 16.4909 10.1094 16.8203 11.1406 16.8203C12.1719 16.8203 13.1029 16.4909 13.9336 15.832C14.7643 15.1445 15.3659 14.2565 15.7383 13.168H6.54297C6.91536 14.2565 7.51693 15.1445 8.34766 15.832ZM8.86328 8.09766C8.60547 7.8112 8.29036 7.66797 7.91797 7.66797C7.54557 7.66797 7.21615 7.8112 6.92969 8.09766C6.67188 8.35547 6.54297 8.67057 6.54297 9.04297C6.54297 9.41536 6.67188 9.74479 6.92969 10.0312C7.21615 10.2891 7.54557 10.418 7.91797 10.418C8.29036 10.418 8.60547 10.2891 8.86328 10.0312C9.14974 9.74479 9.29297 9.41536 9.29297 9.04297C9.29297 8.67057 9.14974 8.35547 8.86328 8.09766ZM4.65234 4.875C6.45703 3.07031 8.61979 2.16797 11.1406 2.16797C13.6615 2.16797 15.8099 3.07031 17.5859 4.875C19.3906 6.65104 20.293 8.79948 20.293 11.3203C20.293 13.8411 19.3906 16.0039 17.5859 17.8086C15.8099 19.5846 13.6615 20.4727 11.1406 20.4727C8.61979 20.4727 6.45703 19.5846 4.65234 17.8086C2.8763 16.0039 1.98828 13.8411 1.98828 11.3203C1.98828 8.79948 2.8763 6.65104 4.65234 4.875Z" fill="#AAAAAA"/>
</svg>
