<svg width="23" height="23" viewBox="0 0 23 23" fill="none" xmlns="http://www.w3.org/2000/svg">
<path d="M5.57812 17.7227H16.5781L12.8828 13.168L10.1328 16.8203L8.32812 14.0703L5.57812 17.7227ZM15.6328 10.418H18.3828V17.7227C18.3828 18.2096 18.1966 18.6393 17.8242 19.0117C17.4805 19.3841 17.0651 19.5703 16.5781 19.5703H5.57812C5.09115 19.5703 4.66146 19.3841 4.28906 19.0117C3.91667 18.6393 3.73047 18.2096 3.73047 17.7227V6.72266C3.73047 6.23568 3.91667 5.82031 4.28906 5.47656C4.66146 5.10417 5.09115 4.91797 5.57812 4.91797H12.8828V7.66797H15.6328V10.418ZM18.3828 6.72266V9.47266H16.5781V6.72266H13.8281V4.91797H16.5781V2.16797H18.3828V4.91797H21.1328V6.72266H18.3828Z" fill="#AAAAAA"/>
</svg>
