<svg width="17" height="14" viewBox="0 0 17 14" fill="none" xmlns="http://www.w3.org/2000/svg">
<path d="M9.1332 7.53711V6.50352H7.0168V4.38711H5.9832V6.50352H3.8668V7.53711H5.9832V9.65352H7.0168V7.53711H9.1332ZM2.78398 3.32891C3.81758 2.29531 5.05625 1.77852 6.5 1.77852C7.94375 1.77852 9.17422 2.29531 10.1914 3.32891C11.225 4.34609 11.7418 5.57656 11.7418 7.02031C11.7418 8.46406 11.225 9.70273 10.1914 10.7363C9.17422 11.7535 7.94375 12.2621 6.5 12.2621C5.05625 12.2621 3.81758 11.7535 2.78398 10.7363C1.7668 9.70273 1.2582 8.46406 1.2582 7.02031C1.2582 5.57656 1.7668 4.34609 2.78398 3.32891Z" fill="white"/>
</svg>
