<svg width="21" height="17" viewBox="0 0 21 17" fill="none" xmlns="http://www.w3.org/2000/svg">
<path d="M4.8125 3.99961L3.21836 4.90195L4.1207 3.30781L3.21836 1.71367L4.8125 2.61602L6.40664 1.71367L5.5043 3.30781L6.40664 4.90195L4.8125 3.99961ZM12.5125 10.316L14.1066 9.41367L13.2043 11.0078L14.1066 12.602L12.5125 11.6996L10.9184 12.602L11.8207 11.0078L10.9184 9.41367L12.5125 10.316ZM14.1066 1.71367L13.2043 3.30781L14.1066 4.90195L12.5125 3.99961L10.9184 4.90195L11.8207 3.30781L10.9184 1.71367L12.5125 2.61602L14.1066 1.71367ZM9.23398 5.1125L10.7078 6.61641C10.8482 6.73672 10.9184 6.88711 10.9184 7.06758C10.9184 7.228 10.8482 7.37839 10.7078 7.51875L3.24844 14.9781C3.10807 15.1185 2.94766 15.1887 2.76719 15.1887C2.60677 15.1887 2.45638 15.1185 2.31602 14.9781L0.842187 13.5043C0.701823 13.3639 0.631641 13.2135 0.631641 13.0531C0.631641 12.8727 0.701823 12.7122 0.842187 12.5719L8.30156 5.1125C8.44193 4.97214 8.59232 4.90195 8.75273 4.90195C8.9332 4.90195 9.09362 4.97214 9.23398 5.1125ZM8.57227 8.63164L10.1363 7.06758L8.75273 5.68398L7.18867 7.24805L8.57227 8.63164Z" fill="#AAAAAA"/>
<a href="https://www.figma.com/design/zfjbIl7dguDht1xK8P0H4B?node-id=2107-10873">
<rect fill="black" fill-opacity="0" width="15.4" height="15.4"/>
</a>
</svg>
