<svg width="21" height="17" viewBox="0 0 21 17" fill="none" xmlns="http://www.w3.org/2000/svg">
<path d="M13.475 12.632V3.60859H1.925V12.632H13.475ZM13.475 2.34531C13.8159 2.34531 14.1167 2.47565 14.3773 2.73633C14.638 2.99701 14.7684 3.29779 14.7684 3.63867V12.602C14.7684 12.9428 14.638 13.2436 14.3773 13.5043C14.1167 13.765 13.8159 13.8953 13.475 13.8953H1.925C1.58411 13.8953 1.28333 13.765 1.02266 13.5043C0.761979 13.2436 0.631641 12.9428 0.631641 12.602V3.63867C0.631641 3.29779 0.761979 2.99701 1.02266 2.73633C1.28333 2.47565 1.58411 2.34531 1.925 2.34531H13.475ZM4.48164 6.19531V8.12031H3.21836V4.90195H6.40664V6.19531H4.48164ZM12.1816 8.12031V11.3387H8.99336V10.0453H10.9184V8.12031H12.1816Z" fill="#AAAAAA"/>
<a href="https://www.figma.com/design/zfjbIl7dguDht1xK8P0H4B?node-id=2107-10873">
<rect fill="black" fill-opacity="0" width="15.4" height="15.4"/>
</a>
</svg>
