<svg width="21" height="17" viewBox="0 0 21 17" fill="none" xmlns="http://www.w3.org/2000/svg">
<path d="M11.3395 4.48086L12.8434 2.97695V7.48867H8.33164L10.407 5.41328C9.64505 4.6513 8.74271 4.27031 7.7 4.27031C6.63724 4.27031 5.72487 4.6513 4.96289 5.41328C4.22096 6.15521 3.85 7.05755 3.85 8.12031C3.85 9.18307 4.22096 10.0954 4.96289 10.8574C5.72487 11.5993 6.63724 11.9703 7.7 11.9703C8.44193 11.9703 9.1638 11.7197 9.86562 11.2184C10.5875 10.7171 11.0788 10.1155 11.3395 9.41367H12.6629C12.3822 10.5366 11.7806 11.459 10.8582 12.1809C9.93581 12.9027 8.88307 13.2637 7.7 13.2637C6.29635 13.2637 5.09323 12.7624 4.09062 11.7598C3.08802 10.7572 2.58672 9.54401 2.58672 8.12031C2.58672 6.69661 3.08802 5.48346 4.09062 4.48086C5.09323 3.47826 6.29635 2.97695 7.7 2.97695C8.30156 2.97695 8.95325 3.12734 9.65508 3.42813C10.377 3.70885 10.9384 4.05977 11.3395 4.48086Z" fill="#AAAAAA"/>
<a href="https://www.figma.com/design/zfjbIl7dguDht1xK8P0H4B?node-id=2107-10873">
<rect fill="black" fill-opacity="0" width="15.4" height="15.4"/>
</a>
</svg>
