<svg width="17" height="14" viewBox="0 0 17 14" fill="none" xmlns="http://www.w3.org/2000/svg">
<path d="M8.075 5.44531V3.35352H2.8332V5.44531H8.075ZM5.39258 10.2195C5.7043 10.5312 6.07344 10.6871 6.5 10.6871C6.92656 10.6871 7.2957 10.5312 7.60742 10.2195C7.91914 9.90781 8.075 9.53867 8.075 9.11211C8.075 8.68555 7.91914 8.31641 7.60742 8.00469C7.2957 7.69297 6.92656 7.53711 6.5 7.53711C6.07344 7.53711 5.7043 7.69297 5.39258 8.00469C5.08086 8.31641 4.925 8.68555 4.925 9.11211C4.925 9.53867 5.08086 9.90781 5.39258 10.2195ZM9.1332 2.29531L11.225 4.38711V10.6871C11.225 10.966 11.1184 11.2121 10.9051 11.4254C10.6918 11.6387 10.4457 11.7453 10.1668 11.7453H2.8332C2.53789 11.7453 2.28359 11.6469 2.07031 11.45C1.87344 11.2367 1.775 10.9824 1.775 10.6871V3.35352C1.775 3.0582 1.87344 2.81211 2.07031 2.61523C2.28359 2.40195 2.53789 2.29531 2.8332 2.29531H9.1332Z" fill="white"/>
</svg>
