<svg width="19" height="14" viewBox="0 0 19 14" fill="none" xmlns="http://www.w3.org/2000/svg">
<path d="M2.04336 3.8H3.07695V11.1582H10.4352V12.1918H3.07695C2.79805 12.1918 2.55195 12.0934 2.33867 11.8965C2.1418 11.6832 2.04336 11.4371 2.04336 11.1582V3.8ZM6.76836 6.95L5.19336 9.0418H11.4934L9.37695 6.4332L7.82656 8.37734L6.76836 6.95ZM12.527 9.0418C12.527 9.3207 12.4203 9.5668 12.207 9.78008C12.0102 9.99336 11.7723 10.1 11.4934 10.1H5.19336C4.91445 10.1 4.66836 9.99336 4.45508 9.78008C4.2418 9.5668 4.13516 9.3207 4.13516 9.0418V2.7418C4.13516 2.46289 4.2418 2.225 4.45508 2.02812C4.66836 1.81484 4.91445 1.7082 5.19336 1.7082H11.4934C11.7723 1.7082 12.0102 1.81484 12.207 2.02812C12.4203 2.225 12.527 2.46289 12.527 2.7418V9.0418Z" fill="white"/>
</svg>
