<svg width="23" height="23" viewBox="0 0 23 23" fill="none" xmlns="http://www.w3.org/2000/svg">
<path d="M3.58984 12.6953H10.9375V20.043H3.58984V12.6953ZM13.9453 19.2695C13.1432 18.4674 12.7422 17.4935 12.7422 16.3477C12.7422 15.2018 13.1432 14.2279 13.9453 13.4258C14.7474 12.6237 15.7214 12.2227 16.8672 12.2227C18.013 12.2227 18.987 12.6237 19.7891 13.4258C20.5911 14.2279 20.9922 15.2018 20.9922 16.3477C20.9922 17.4935 20.5911 18.4674 19.7891 19.2695C18.987 20.0716 18.013 20.4727 16.8672 20.4727C15.7214 20.4727 14.7474 20.0716 13.9453 19.2695ZM11.8398 2.16797L16.8672 10.418H6.8125L11.8398 2.16797Z" fill="#AAAAAA"/>
</svg>
