<svg width="21" height="17" viewBox="0 0 21 17" fill="none" xmlns="http://www.w3.org/2000/svg">
<path d="M1.29336 4.06011H2.55664V13.0535H11.55V14.3167H2.55664C2.21576 14.3167 1.91497 14.1964 1.6543 13.9558C1.41367 13.6951 1.29336 13.3944 1.29336 13.0535V4.06011ZM7.06836 7.91011L5.14336 10.4667H12.8434L10.2566 7.27847L8.36172 9.65464L7.06836 7.91011ZM14.1066 10.4667C14.1066 10.8076 13.9763 11.1084 13.7156 11.3691C13.475 11.6298 13.1842 11.7601 12.8434 11.7601H5.14336C4.80247 11.7601 4.50169 11.6298 4.24102 11.3691C3.98034 11.1084 3.85 10.8076 3.85 10.4667V2.76675C3.85 2.42586 3.98034 2.13511 4.24102 1.89448C4.50169 1.63381 4.80247 1.50347 5.14336 1.50347H12.8434C13.1842 1.50347 13.475 1.63381 13.7156 1.89448C13.9763 2.13511 14.1066 2.42586 14.1066 2.76675V10.4667Z" fill="#AAAAAA"/>
</svg>
