<svg width="41" height="41" viewBox="0 0 41 41" fill="none" xmlns="http://www.w3.org/2000/svg">
<path fill-rule="evenodd" clip-rule="evenodd" d="M6.05121 21.7924V12.2206C6.05121 9.06696 8.19355 6.2891 11.22 5.45152C11.9752 5.24252 12.765 5.13379 13.5483 5.13379H14.9783C17.7803 5.13379 21.0689 7.31907 22.2759 10.2085C23.5929 10.3014 24.9053 10.483 26.2042 10.753C29.8666 11.5146 32.8005 14.3412 33.7614 17.9725C34.5596 20.9888 34.5703 24.2027 33.7722 27.219C32.7962 30.9071 29.8304 33.725 26.1107 34.4984L25.8517 34.5522C22.1226 35.3276 18.2749 35.3276 14.5458 34.5522L14.2869 34.4984C10.5671 33.725 7.60133 30.9071 6.62539 27.219C6.3031 26.001 6.11269 24.7508 6.05276 23.4944L6.05121 23.4901V23.4611C6.02572 22.9053 6.02576 22.3483 6.05121 21.7924ZM24.7209 13.7143C24.1521 13.6191 23.6141 14.0051 23.5193 14.5766C23.4245 15.148 23.8088 15.6884 24.3776 15.7837L24.4486 15.7956C26.9167 16.2088 28.7256 18.3541 28.7256 20.8678C28.7256 21.4471 29.1931 21.9167 29.7697 21.9167C30.3463 21.9167 30.8138 21.4471 30.8138 20.8678C30.8138 17.3286 28.2669 14.3081 24.7919 13.7262L24.7209 13.7143Z" fill="url(#paint0_linear_123_15758)"/>
<defs>
<linearGradient id="paint0_linear_123_15758" x1="6.0321" y1="29.5838" x2="35.1155" y2="14.2019" gradientUnits="userSpaceOnUse">
<stop stop-color="#37B6F2"/>
<stop offset="1" stop-color="#31C6FE"/>
</linearGradient>
</defs>
</svg>
