<svg width="41" height="41" viewBox="0 0 41 41" fill="none" xmlns="http://www.w3.org/2000/svg">
<path fill-rule="evenodd" clip-rule="evenodd" d="M16.0484 5.5627C11.0901 6.68366 7.1995 10.4942 6.00584 15.3987C5.35314 18.0806 5.3591 20.9025 6.0118 23.5843C7.22412 28.5655 10.7903 32.711 15.5742 34.6427L15.7827 34.7269C17.8529 35.5628 20.2244 34.5561 21.0738 32.505C21.3076 31.9405 21.8643 31.566 22.4794 31.566H24.3524C29.4467 31.566 33.8782 28.1045 35.0739 23.1915C35.6677 20.7517 35.6677 18.2068 35.0739 15.767L34.9172 15.1228C33.7646 10.3873 30.0082 6.70809 25.2207 5.62576L24.5482 5.47372C21.8803 4.87058 19.1099 4.87058 16.442 5.47372L16.0484 5.5627ZM14.6892 13.9658C14.0479 13.9658 13.528 14.4816 13.528 15.1179C13.528 15.7542 14.0479 16.27 14.6892 16.27H25.3333C25.9746 16.27 26.4945 15.7542 26.4945 15.1179C26.4945 14.4816 25.9746 13.9658 25.3333 13.9658H14.6892ZM16.6245 19.7261C15.9832 19.7261 15.4633 20.2419 15.4633 20.8782C15.4633 21.5144 15.9832 22.0302 16.6245 22.0302H23.398C24.0393 22.0302 24.5592 21.5144 24.5592 20.8782C24.5592 20.2419 24.0393 19.7261 23.398 19.7261H16.6245Z" fill="url(#paint0_linear_123_16602)"/>
<defs>
<linearGradient id="paint0_linear_123_16602" x1="20.5193" y1="5.02136" x2="20.5193" y2="35.0214" gradientUnits="userSpaceOnUse">
<stop stop-color="#8DFF9E"/>
<stop offset="1" stop-color="#13D230"/>
</linearGradient>
</defs>
</svg>
