<svg width="41" height="41" viewBox="0 0 41 41" fill="none" xmlns="http://www.w3.org/2000/svg">
<g clip-path="url(#clip0_123_16623)">
<path d="M20.8391 40.3032C31.2711 40.3032 39.728 31.8464 39.728 21.4143C39.728 10.9823 31.2711 2.52545 20.8391 2.52545C10.407 2.52545 1.9502 10.9823 1.9502 21.4143C1.9502 31.8464 10.407 40.3032 20.8391 40.3032Z" fill="#F4900C"/>
<path d="M20.8391 38.0811C31.2711 38.0811 39.728 29.6243 39.728 19.1922C39.728 8.76016 31.2711 0.303314 20.8391 0.303314C10.407 0.303314 1.9502 8.76016 1.9502 19.1922C1.9502 29.6243 10.407 38.0811 20.8391 38.0811Z" fill="#FFCC4D"/>
<path d="M20.8392 35.8589C29.4303 35.8589 36.3948 28.8945 36.3948 20.3034C36.3948 11.7123 29.4303 4.74783 20.8392 4.74783C12.2482 4.74783 5.28369 11.7123 5.28369 20.3034C5.28369 28.8945 12.2482 35.8589 20.8392 35.8589Z" fill="#FFE8B6"/>
<path d="M20.8392 34.7478C29.4303 34.7478 36.3948 27.7833 36.3948 19.1922C36.3948 10.6011 29.4303 3.63666 20.8392 3.63666C12.2482 3.63666 5.28369 10.6011 5.28369 19.1922C5.28369 27.7833 12.2482 34.7478 20.8392 34.7478Z" fill="#FFAC33"/>
<path d="M15.4645 17.8323C15.4645 17.8323 15.3345 17.8872 15.2845 17.7275C15.3595 17.6028 14.9446 16.4851 18.9138 15.7317C23.1729 15.123 25.2825 16.0011 25.2175 15.9512C23.3822 15.295 21.4183 15.0779 19.4836 15.3176C16.1443 15.7467 15.4445 16.4053 14.9846 17.3134C14.9846 17.3134 14.8446 16.0311 14.8396 15.8165C14.8696 15.7117 15.6644 13.9904 20.0885 13.4515C18.4495 13.4231 16.8348 13.8498 15.4245 14.6839C15.4245 14.6839 15.3195 14.2798 16.0044 13.7808C17.466 12.8993 19.1358 12.4207 20.8434 12.3937C22.1274 12.344 23.4098 12.5283 24.6276 12.9376C25.7474 13.3317 26.4172 13.8856 26.3672 14.3546C26.3609 14.4967 26.3305 14.6368 26.2773 14.7687C26.2773 14.7687 26.9521 14.9533 26.8471 15.9013C26.7422 16.8494 26.8121 17.7974 26.3472 17.7624C26.2823 17.8173 25.7374 16.8194 20.8484 16.7645C15.9894 16.9292 15.5295 17.8922 15.4645 17.8323Z" fill="#FFE8B6"/>
<path d="M16.8993 23.2609C16.8772 23.2364 16.8539 23.2131 16.8293 23.191C16.7951 23.1627 16.7583 23.1377 16.7193 23.1162C16.6906 23.0992 16.6577 23.0906 16.6244 23.0913C16.6107 23.0908 16.5974 23.095 16.5865 23.1032C16.5756 23.1114 16.5678 23.123 16.5644 23.1362C16.5305 23.2305 16.5037 23.3272 16.4844 23.4255C16.4844 23.4705 16.4844 23.5104 16.4594 23.5553C16.3944 23.1162 16.3294 22.6671 16.2694 22.2231C16.0545 20.6863 15.8695 19.1445 15.7146 17.6776C15.7146 17.5279 15.6846 17.3832 15.6746 17.2385L16.1445 17.1338C16.1445 17.2435 16.1445 17.3533 16.1795 17.4581C16.2144 17.5629 16.1795 17.6477 16.2045 17.7425L16.2494 18.1616C16.3944 19.4838 16.5644 20.8559 16.7493 22.2131L16.8993 23.2609Z" fill="#FFE8B6"/>
<path d="M17.1336 24.8128L17.0986 24.9176C17.0848 24.9603 17.0646 25.0006 17.0387 25.0373C17.0225 25.0636 17.0023 25.0872 16.9787 25.1072C16.9671 25.1133 16.9542 25.1165 16.9412 25.1165C16.9281 25.1165 16.9152 25.1133 16.9037 25.1072C16.8801 25.0928 16.8595 25.074 16.8432 25.0517C16.8269 25.0295 16.8152 25.0042 16.8087 24.9774C16.788 24.8958 16.7762 24.8121 16.7737 24.728C16.7665 24.62 16.7665 24.5116 16.7737 24.4036C16.7737 24.2839 16.7987 24.1691 16.8187 24.0544C16.8387 23.9396 16.8687 23.8348 16.8987 23.7301C16.9287 23.6253 16.9237 23.6402 16.9387 23.6053C17.0087 24.0145 17.0736 24.4136 17.1336 24.8128Z" fill="#FFE8B6"/>
<path d="M24.5081 25.3565V25.3864C24.5057 25.3665 24.5057 25.3464 24.5081 25.3265L24.5579 25.2866L24.5081 25.3565Z" fill="#FFE8B6"/>
<path d="M24.963 25.3665C24.868 25.9553 24.7731 26.5291 24.6781 27.0929C24.4831 28.1956 24.2832 29.2384 24.0782 30.1914C21.8847 30.4609 19.6591 30.2775 17.5395 29.6525C17.3346 28.7245 17.1346 27.7116 16.9447 26.6588C16.8647 26.1898 16.7797 25.7058 16.6997 25.2119C16.7492 25.2568 16.8128 25.2832 16.8797 25.2867C16.9123 25.2911 16.9454 25.288 16.9766 25.2777C17.0078 25.2673 17.0362 25.2499 17.0596 25.2268C17.0963 25.1886 17.1267 25.1448 17.1496 25.0971C17.2446 25.6909 17.3396 26.2696 17.4396 26.8285L17.5295 27.3274C17.6545 28.026 17.7845 28.6946 17.9145 29.3232C19.7722 29.93 21.7482 30.0857 23.6783 29.7773C23.8032 29.1686 23.9282 28.5249 24.0482 27.8513C24.0882 27.6468 24.1232 27.4372 24.1582 27.2276C24.2348 26.7886 24.3098 26.3395 24.3831 25.8805L24.4781 25.7757L24.6781 25.5212C24.7785 25.4803 24.8741 25.4285 24.963 25.3665Z" fill="#FFE8B6"/>
<path d="M25.0365 24.9823L25.0065 25.1769C24.9609 25.2124 24.9125 25.2441 24.8616 25.2717L24.9566 25.122L25.0365 24.9823Z" fill="#FFE8B6"/>
<path d="M25.1221 24.4135V24.5632C25.0921 24.5394 25.0555 24.5254 25.0172 24.5233C24.9822 24.5233 24.9522 24.5482 24.9322 24.5981L24.8972 24.668C24.8972 24.7029 24.8572 24.7478 24.8272 24.7977L24.7322 24.9524C24.6922 25.0023 24.6572 25.0522 24.6172 25.0971L24.5623 25.157L24.6372 24.658C24.676 24.6178 24.7196 24.5826 24.7672 24.5532C24.8448 24.4949 24.9331 24.4525 25.0272 24.4285C25.058 24.4194 25.09 24.4144 25.1221 24.4135Z" fill="#FFE8B6"/>
<path d="M26.0123 17.1287L25.9673 17.5528C25.8174 19.1494 25.6224 20.811 25.4024 22.4575C25.3225 23.0513 25.2375 23.64 25.1525 24.2188C25.101 24.2139 25.0491 24.2139 24.9975 24.2188C24.8822 24.2229 24.7687 24.2483 24.6626 24.2936C24.7576 23.6799 24.8426 23.0513 24.9275 22.4226C25.1225 20.9606 25.3025 19.4788 25.4274 18.0368C25.4524 17.8123 25.4724 17.5927 25.4924 17.3732C25.4924 17.2634 25.4924 17.1536 25.5274 17.0489L26.0123 17.1287Z" fill="#FFE8B6"/>
<path d="M15.9351 17.8023C16.115 17.7574 16.3 17.7225 16.4949 17.6925C16.6899 17.6626 16.8849 17.6277 17.0898 17.6027C17.5127 17.5516 17.9393 17.5382 18.3646 17.5628C17.9439 17.6217 17.5291 17.7169 17.1248 17.8472C16.9299 17.9071 16.7449 17.972 16.5649 18.0418C16.385 18.1117 16.205 18.1765 16.065 18.2464C16.005 18.0967 15.9701 17.952 15.9351 17.8023Z" fill="#FFE8B6"/>
<path d="M25.6774 18.1117C25.3674 18.0019 25.0225 17.8922 24.6776 17.7924C24.3326 17.6926 23.9327 17.5928 23.5378 17.513C23.1429 17.4331 22.733 17.3533 22.3131 17.2984C21.887 17.2432 21.458 17.2132 21.0283 17.2086C21.4574 17.1481 21.8898 17.1148 22.3231 17.1088C22.748 17.1088 23.1679 17.1088 23.5778 17.1388C23.9877 17.1687 24.3776 17.2036 24.7526 17.2535C25.1275 17.3034 25.4824 17.3583 25.8173 17.4282C25.7623 17.6527 25.7224 17.8822 25.6774 18.1117Z" fill="#FFE8B6"/>
<path d="M24.3376 27.7565L24.2226 27.7964L24.1176 27.8264L23.9177 27.8763C23.781 27.9062 23.6461 27.9312 23.5128 27.9511C23.2461 27.9909 22.9774 28.0159 22.7079 28.026C22.438 28.026 22.173 28.026 21.9031 28.026L21.4982 27.996L21.0933 27.9511L21.4982 27.9262L21.8981 27.8813C22.168 27.8463 22.433 27.7964 22.6929 27.7366C22.957 27.6769 23.2174 27.602 23.4728 27.512C23.6027 27.4671 23.7277 27.4222 23.8527 27.3673L24.0327 27.2875L24.1226 27.2426C24.1489 27.2298 24.174 27.2148 24.1976 27.1977C24.2426 27.4073 24.2926 27.5719 24.3376 27.7565Z" fill="#FFE8B6"/>
<path d="M17.3388 26.7387C17.4788 26.8285 17.6287 26.9133 17.7787 26.9932C17.9287 27.073 18.0736 27.1578 18.2236 27.2327C18.5206 27.3839 18.828 27.514 19.1434 27.6218C18.8272 27.5977 18.5131 27.551 18.2036 27.4821L17.7337 27.3674L17.2688 27.2277C17.2938 27.063 17.2938 26.9084 17.3388 26.7387Z" fill="#FFE8B6"/>
<path d="M23.7373 10.852C23.7373 11.2212 23.7673 11.6004 23.7773 11.9896C23.7786 12.0061 23.7759 12.0227 23.7695 12.038C23.7631 12.0534 23.7531 12.0669 23.7405 12.0777C23.7278 12.0884 23.7127 12.0959 23.6965 12.0997C23.6803 12.1035 23.6635 12.1034 23.6473 12.0994C23.2474 12.0594 22.8425 12.0295 22.4276 12.0145C22.1576 12.254 21.8877 12.5135 21.6128 12.753L21.4478 12.6033C21.7227 12.3438 21.9927 12.1043 22.2626 11.8599C22.2626 11.4906 22.2626 11.1264 22.2376 10.7721L21.8177 10.4079C21.2278 10.4079 20.628 10.4378 20.0381 10.4877C20.0225 10.4914 20.0063 10.4916 19.9907 10.4884C19.975 10.4852 19.9602 10.4786 19.9474 10.4691C19.9345 10.4596 19.9239 10.4474 19.9163 10.4334C19.9086 10.4194 19.9041 10.4039 19.9031 10.3879C19.9031 9.889 19.9031 9.41499 19.9281 8.97093L19.6931 8.80627L18.9583 8.90606C18.8833 8.90606 18.8283 8.90606 18.8333 8.82623L18.8633 8.25742C18.8633 8.20753 18.9233 8.15763 18.9983 8.14765C19.2432 8.11272 19.4982 8.0778 19.7381 8.05286C19.8081 8.05286 19.8681 8.05285 19.8631 8.1277V8.67155L20.1031 8.83122C20.6679 8.77634 21.2328 8.7464 21.7977 8.73642C21.8155 8.7336 21.8336 8.73434 21.8511 8.7386C21.8685 8.74287 21.8849 8.75057 21.8994 8.76126C21.9138 8.77195 21.926 8.78541 21.9351 8.80085C21.9443 8.81629 21.9502 8.8334 21.9527 8.85118C21.9527 9.30023 21.9777 9.77424 21.9927 10.2732L22.4076 10.6374C22.8175 10.6374 23.2224 10.6773 23.6173 10.7173C23.6489 10.7244 23.6775 10.7412 23.699 10.7654C23.7205 10.7895 23.7339 10.8198 23.7373 10.852Z" fill="#FFE8B6"/>
<path d="M19.5895 10.7472C19.2946 10.7821 18.9996 10.822 18.7097 10.8669C18.6753 10.8729 18.6436 10.8897 18.6194 10.9148C18.5951 10.9399 18.5795 10.9721 18.5747 11.0066C18.5747 11.2611 18.5747 11.5056 18.5747 11.775C18.575 11.7914 18.579 11.8075 18.5863 11.8221C18.5937 11.8367 18.6042 11.8495 18.6171 11.8596C18.6301 11.8696 18.6451 11.8766 18.6611 11.8801C18.6771 11.8836 18.6937 11.8835 18.7097 11.8798C18.9996 11.8349 19.2946 11.795 19.5945 11.765C19.6297 11.7619 19.6628 11.7468 19.6883 11.7223C19.7137 11.6978 19.73 11.6653 19.7345 11.6303C19.7345 11.3659 19.7345 11.1314 19.7345 10.852C19.7245 10.7871 19.6645 10.7422 19.5895 10.7472Z" fill="#FFE8B6"/>
<path d="M20.3735 7.94808H20.6834C20.7534 7.94808 20.8134 7.89819 20.8134 7.8483V7.62876C20.8134 7.58385 20.7534 7.54892 20.6834 7.55391H20.3785C20.3085 7.55391 20.2485 7.60381 20.2485 7.6537C20.2485 7.7036 20.2485 7.7984 20.2485 7.86825C20.2485 7.9381 20.2935 7.97303 20.3735 7.94808Z" fill="#FFE8B6"/>
<path d="M23.5622 9.41009H23.2922C23.2769 9.40711 23.261 9.40761 23.2459 9.41152C23.2307 9.41544 23.2167 9.42268 23.2047 9.43273C23.1927 9.44277 23.1831 9.45535 23.1767 9.46957C23.1702 9.48378 23.167 9.49926 23.1673 9.51488C23.1673 9.58972 23.1673 9.66955 23.1673 9.7444C23.1718 9.77756 23.1878 9.80812 23.2124 9.83086C23.237 9.85361 23.2687 9.86714 23.3022 9.86913L23.5722 9.89408C23.6472 9.89408 23.7021 9.85416 23.6971 9.7893C23.6921 9.72444 23.6971 9.63462 23.6971 9.55479C23.6961 9.51842 23.6818 9.48367 23.657 9.45704C23.6322 9.43041 23.5984 9.41372 23.5622 9.41009Z" fill="#FFE8B6"/>
<path d="M24.4334 10.0786C24.2768 10.052 24.1218 10.032 23.9685 10.0187C23.9537 10.0146 23.9381 10.0142 23.9231 10.0174C23.9081 10.0206 23.8941 10.0275 23.8823 10.0373C23.8705 10.0471 23.8613 10.0596 23.8554 10.0737C23.8495 10.0879 23.8472 10.1033 23.8485 10.1185C23.8485 10.2582 23.8485 10.4029 23.8485 10.5426C23.8498 10.578 23.8644 10.6115 23.8894 10.6365C23.9145 10.6615 23.9481 10.6761 23.9835 10.6774L24.4434 10.7422C24.4582 10.7463 24.4738 10.7468 24.4888 10.7435C24.5038 10.7403 24.5178 10.7335 24.5296 10.7237C24.5414 10.7139 24.5506 10.7014 24.5565 10.6872C24.5624 10.6731 24.5647 10.6577 24.5634 10.6424C24.5634 10.4977 24.5634 10.353 24.5634 10.2133C24.5603 10.1795 24.5457 10.1477 24.5221 10.1232C24.4984 10.0987 24.4672 10.083 24.4334 10.0786Z" fill="#FFE8B6"/>
<path d="M18.3976 10.6474C18.3976 10.4678 18.3976 10.2881 18.4226 10.1135C18.4226 10.0536 18.3676 10.0137 18.2927 10.0287L17.6778 10.1534C17.6445 10.1619 17.6143 10.1795 17.5904 10.2041C17.5666 10.2288 17.5501 10.2596 17.5428 10.2931C17.5428 10.4677 17.5428 10.6474 17.5178 10.827C17.5178 10.8919 17.5728 10.9268 17.6428 10.9118L18.2627 10.7871C18.2974 10.7818 18.3295 10.7653 18.3539 10.74C18.3783 10.7148 18.3936 10.6822 18.3976 10.6474Z" fill="#FFE8B6"/>
<path d="M26.0779 22.8068C25.898 24.0792 25.693 25.3615 25.4681 26.5939C25.4552 26.6626 25.4257 26.7272 25.3822 26.782C25.3386 26.8368 25.2823 26.8801 25.2181 26.9082C25.0931 26.9531 24.9182 27.018 24.6932 27.0829L24.1933 27.2126C23.1026 27.4854 21.9766 27.5914 20.854 27.5269C19.7191 27.444 18.6007 27.2073 17.5297 26.8234L17.3947 26.7735C17.2598 26.7286 17.1348 26.6787 17.0198 26.6338C16.7749 26.539 16.5799 26.4542 16.4449 26.3893C16.3814 26.3576 16.3259 26.312 16.2826 26.2558C16.2394 26.1996 16.2094 26.1344 16.195 26.065C15.975 24.8974 15.7801 23.69 15.6001 22.4975C15.6001 22.3578 15.6451 22.248 15.7601 22.243H16.3299H16.8298C17.6997 22.243 19.0544 22.243 20.904 22.273C22.7536 22.3029 24.1433 22.3827 25.0032 22.4476L25.5031 22.4875C25.743 22.4875 25.913 22.5324 26.003 22.5524C26.0929 22.5723 26.1029 22.6571 26.0779 22.8068Z" fill="#FFE8B6"/>
</g>
<defs>
<clipPath id="clip0_123_16623">
<rect width="40" height="40" fill="white" transform="translate(0.839844 0.303314)"/>
</clipPath>
</defs>
</svg>
