<svg width="41" height="41" viewBox="0 0 41 41" fill="none" xmlns="http://www.w3.org/2000/svg">
<path d="M31.7693 21.7075C30.1155 21.7075 28.6593 22.5213 27.7493 23.7588L21.808 20.4575L27.7493 17.1563C28.6593 18.3938 30.1143 19.2075 31.7693 19.2075C34.5305 19.2075 36.7693 16.9688 36.7693 14.2075C36.7693 11.4463 34.5305 9.20752 31.7693 9.20752C29.008 9.20752 26.7693 11.4463 26.7693 14.2075C26.7693 14.865 26.9043 15.49 27.1343 16.0663L21.1443 19.395V12.895C23.6068 12.5838 25.5193 10.505 25.5193 7.95752C25.5193 5.19627 23.2805 2.95752 20.5193 2.95752C17.758 2.95752 15.5193 5.19627 15.5193 7.95752C15.5193 10.505 17.4318 12.5838 19.8943 12.895V19.395L13.903 16.0663C14.1343 15.49 14.2693 14.865 14.2693 14.2075C14.2693 11.4463 12.0305 9.20752 9.26929 9.20752C6.50804 9.20752 4.26929 11.4463 4.26929 14.2075C4.26929 16.9688 6.50804 19.2075 9.26929 19.2075C10.9243 19.2075 12.3793 18.3938 13.2893 17.1563L19.2305 20.4575L13.288 23.7588C12.3793 22.5213 10.9243 21.7075 9.26929 21.7075C6.50804 21.7075 4.26929 23.9463 4.26929 26.7075C4.26929 29.4688 6.50804 31.7075 9.26929 31.7075C12.0305 31.7075 14.2693 29.4688 14.2693 26.7075C14.2693 26.05 14.1343 25.425 13.903 24.8488L19.8943 21.52V28.02C17.4318 28.3313 15.5193 30.41 15.5193 32.9575C15.5193 35.7188 17.758 37.9575 20.5193 37.9575C23.2805 37.9575 25.5193 35.7188 25.5193 32.9575C25.5193 30.41 23.6068 28.3313 21.1443 28.02V21.52L27.1355 24.8488C26.9043 25.4238 26.7693 26.0488 26.7693 26.7075C26.7693 29.4688 29.008 31.7075 31.7693 31.7075C34.5305 31.7075 36.7693 29.4688 36.7693 26.7075C36.7693 23.9463 34.5305 21.7075 31.7693 21.7075Z" fill="#8837E9"/>
</svg>
