<svg width="41" height="41" viewBox="0 0 41 41" fill="none" xmlns="http://www.w3.org/2000/svg">
<path d="M15.5691 5.70702C18.8251 4.94328 22.2135 4.94329 25.4695 5.70702C30.1718 6.81001 33.8441 10.4813 34.9471 15.1836C35.7107 18.4395 35.7107 21.8281 34.9471 25.084C33.8441 29.7862 30.1718 33.4585 25.4695 34.5615C22.2136 35.3252 18.825 35.3252 15.5691 34.5615C10.8669 33.4585 7.19557 29.7862 6.09258 25.084C5.32885 21.828 5.32883 18.4396 6.09258 15.1836C7.19557 10.4813 10.8669 6.81001 15.5691 5.70702ZM20.5193 13.5498C19.9672 13.55 19.5193 13.9976 19.5193 14.5498V23.3037L17.2371 21.0224C16.8466 20.632 16.2135 20.6319 15.823 21.0224C15.433 21.413 15.4327 22.0461 15.823 22.4365L19.8113 26.4248C19.9988 26.6122 20.2542 26.7177 20.5193 26.7178C20.7842 26.7176 21.039 26.612 21.2264 26.4248L25.2146 22.4365C25.6052 22.046 25.6052 21.413 25.2146 21.0224C24.8485 20.6563 24.2695 20.6337 23.8768 20.9541L23.8006 21.0224L21.5193 23.3027V14.5498C21.5193 13.9976 21.0714 13.55 20.5193 13.5498Z" fill="url(#paint0_linear_123_15752)"/>
<defs>
<linearGradient id="paint0_linear_123_15752" x1="5.51978" y1="29.5842" x2="35.5198" y2="12.7842" gradientUnits="userSpaceOnUse">
<stop stop-color="#E592C9"/>
<stop offset="1" stop-color="#F3627E"/>
</linearGradient>
</defs>
</svg>
