<svg width="41" height="41" viewBox="0 0 41 41" fill="none" xmlns="http://www.w3.org/2000/svg">
<path d="M19.0375 20.6883V11.8156H16.5431C13.7808 11.8156 12.3243 10.0243 12.3243 8.28328C12.3243 6.47521 13.6637 5.40378 15.455 5.40378C17.5141 5.40378 19.1212 6.99421 19.1212 9.65599V11.8156H21.917V9.65599C21.917 6.99421 23.5242 5.40378 25.5832 5.40378C27.3746 5.40378 28.7306 6.47521 28.7306 8.28328C28.7306 10.0243 27.2239 11.8156 24.4951 11.8156H22.0007V20.6883H33.8032C35.628 20.6883 36.6157 19.9853 36.6157 18.1939V14.3101C36.6157 12.5355 35.628 11.8156 33.8032 11.8156H29.9025C30.9404 10.8781 31.5599 9.60578 31.5599 8.16606C31.5599 4.93506 28.9985 2.60806 25.7507 2.60806C23.34 2.60806 21.3813 3.94728 20.5275 6.32456C19.6737 3.94728 17.6982 2.60806 15.2875 2.60806C12.0565 2.60806 9.47839 4.93506 9.47839 8.16606C9.47839 9.60578 10.081 10.8781 11.1358 11.8156H7.23511C5.51075 11.8156 4.42261 12.5355 4.42261 14.3101V18.1939C4.42261 19.9853 5.42704 20.6883 7.23511 20.6883H19.0375ZM19.0375 37.9986V22.4796H6.81654V33.7464C6.81654 36.5422 8.45718 37.9986 11.2529 37.9986H19.0375ZM22.0007 22.4796V37.9986H29.7853C32.581 37.9986 34.2217 36.5422 34.2217 33.7464V22.4796H22.0007Z" fill="#F43F5E"/>
</svg>
