<svg width="41" height="41" viewBox="0 0 41 41" fill="none" xmlns="http://www.w3.org/2000/svg">
<path d="M19.0021 5.45752V14.4612H6.06005C7.42706 10.2498 10.8962 7.02161 15.2483 5.99849C16.4853 5.70769 17.7414 5.52737 19.0021 5.45752Z" fill="#1C64F2"/>
<path d="M21.3953 5.45752V24.0552H34.8994C35.375 21.2169 35.2838 18.3072 34.6259 15.4962C33.5229 10.7836 29.8514 7.10392 25.1492 5.99849C23.9122 5.70769 22.6561 5.52737 21.3953 5.45752Z" fill="#1C64F2"/>
<path d="M34.3374 26.4537H21.3953V35.4575C22.6561 35.3877 23.9122 35.2073 25.1492 34.9165C29.5013 33.8934 32.9704 30.6652 34.3374 26.4537Z" fill="#1C64F2"/>
<path d="M19.0021 35.4575V16.8597H5.49804C5.02245 19.6981 5.11363 22.6078 5.77156 25.4189C6.87456 30.1315 10.5461 33.8111 15.2483 34.9165C16.4853 35.2073 17.7414 35.3877 19.0021 35.4575Z" fill="#1C64F2"/>
</svg>
