<svg width="340" height="250" viewBox="0 0 340 250" fill="none" xmlns="http://www.w3.org/2000/svg">
<g clip-path="url(#clip0_123_15283)">
<mask id="mask0_123_15283" style="mask-type:luminance" maskUnits="userSpaceOnUse" x="0" y="0" width="340" height="250">
<path d="M339.751 0.396851H0.0634766V249.501H339.751V0.396851Z" fill="white"/>
</mask>
<g mask="url(#mask0_123_15283)">
<path d="M346.264 105.659L340.672 102.374L332.492 97.7084L346.264 105.659Z" fill="white"/>
<path d="M178.071 113.16C177.448 113.545 177.103 113.772 177.01 113.85L176.824 114.005C175.753 114.901 174.395 116.039 173.205 117.772C171.966 119.575 170.905 122.033 170.578 125.535C172.192 126.009 173.707 126.635 175.057 127.415L295.76 197.128C295.791 197.136 295.822 197.145 295.853 197.154C295.871 197.16 295.891 197.165 295.91 197.171L295.899 197.207L297.529 198.149L297.539 198.155C298.701 198.91 299.622 200.075 300.127 201.73C301.34 196.436 304.546 191.547 309.779 187.839L309.796 187.827L398.195 136.707C397.954 136.424 397.633 136.163 397.24 135.937L271.535 63.3669C269.578 62.2374 266.418 62.2292 264.454 63.3516C255.837 68.2748 234.44 80.508 214.958 91.7112C205.217 97.3129 195.955 102.657 189.008 106.7C185.535 108.722 182.642 110.419 180.559 111.659C179.516 112.28 178.678 112.785 178.071 113.16Z" fill="white"/>
<path d="M91.434 169.594L85.2966 166.05L61.6491 179.821C61.1345 180.12 60.7419 180.477 60.4896 180.864L189.074 254.785C190.371 255.532 191.967 255.529 193.262 254.779L292.04 197.57L292.043 197.567C292.419 197.356 293.157 197.068 294.048 196.988L174.322 127.84C167.841 124.096 157.323 124.109 150.869 127.868L93.5351 161.254L99.7084 164.817C100.792 165.442 100.792 166.457 99.7084 167.082L95.3565 169.594C94.2734 170.219 92.5172 170.219 91.434 169.594Z" fill="white"/>
<path d="M303.761 213.258C304.112 213.393 304.468 213.472 304.815 213.507C305.465 213.571 306.14 213.491 306.777 213.295C307.012 213.224 307.229 213.117 307.458 212.986L397.258 161.556C398.211 161.01 398.746 160.267 398.744 159.493L398.712 137.986C398.712 137.764 398.667 137.546 398.581 137.333L310.57 188.229C303.934 192.939 300.608 199.645 300.609 206.685C300.609 210.021 301.623 211.874 302.884 212.782C302.905 212.798 302.927 212.814 302.948 212.828C302.98 212.85 303.01 212.87 303.042 212.891L303.064 212.854L303.761 213.258Z" fill="white"/>
<path d="M60.1787 181.665C60.1674 181.745 60.1617 181.825 60.1617 181.907V203.071C60.1617 203.858 60.7047 204.614 61.6706 205.17L187.815 277.753C188.665 278.242 189.735 278.523 190.84 278.598V256.183C190.081 256.134 189.332 255.914 188.65 255.523L60.1787 181.665Z" fill="white"/>
<path d="M191.689 278.615C192.923 278.579 194.139 278.288 195.079 277.743L288.054 223.686C292.602 220.807 297.724 216.646 299.233 207.893C300.13 202.692 298.745 199.849 296.772 198.56L295.677 197.929L295.661 197.983C294.309 197.566 292.952 198.03 292.463 198.306L292.461 198.307L193.688 255.514C193.064 255.875 192.382 256.092 191.689 256.165V278.615Z" fill="white"/>
<path d="M292.53 239.668L288.991 237.625L291.056 236.429C291.601 236.113 292.53 236.338 292.53 236.787V239.668Z" fill="#FDF7F7"/>
<path d="M293.666 240.324L293.637 240.34C293.863 240.644 294.58 240.759 295.037 240.497L321.408 225.419C322.374 224.867 322.916 224.111 322.912 223.321L322.891 219.465C322.885 218.515 323.537 217.604 324.696 216.939L412.88 166.295C413.837 165.744 414.376 164.994 414.376 164.21V159.562C414.181 159.722 413.961 159.873 413.716 160.016L319.937 214.589C319.451 214.872 318.851 215.048 318.224 215.116V220.565C318.224 221.483 317.611 222.363 316.516 223.022L299.112 233.488C297.923 234.204 295.845 233.712 295.845 232.716V228.856C295.845 228.825 295.841 228.796 295.833 228.767L295.177 228.365C294.907 228.327 294.604 228.363 294.372 228.498L194.583 286.227C192.217 287.596 188.399 287.591 186.042 286.217L46.666 204.885C46.3775 204.717 46.1242 204.535 45.9061 204.345V208.523C45.9061 209.299 46.434 210.042 47.3736 210.591L186.705 291.912C188.657 293.052 191.824 293.056 193.784 291.92L290.325 236C291.526 235.304 293.567 235.8 293.567 236.787V240.137C293.567 240.191 293.581 240.241 293.606 240.289L293.666 240.324Z" fill="#FDF7F7"/>
<path d="M294.287 227.82C294.058 227.873 293.839 227.955 293.642 228.069L193.853 285.798C191.892 286.932 188.728 286.928 186.776 285.789L47.3997 204.457C45.4531 203.322 45.4412 201.483 47.373 200.338L59.1216 193.378V203.071C59.1216 204.018 59.7746 204.926 60.9364 205.595L187.081 278.179C189.498 279.57 193.412 279.563 195.817 278.166L288.506 224.276L294.287 227.82Z" fill="#FDF7F7"/>
<path d="M296.262 228.034L289.314 223.775C293.541 221.033 298.096 217.138 299.906 209.701C300.322 211.338 301.095 212.454 302.072 213.158C302.264 213.297 302.466 213.419 302.674 213.528L302.638 213.589L316.753 221.754C316.516 222.066 316.186 222.352 315.771 222.601L298.368 233.067C297.827 233.392 296.882 233.169 296.882 232.716V228.856C296.882 228.609 296.753 228.392 296.542 228.217L296.547 228.208L296.469 228.161C296.406 228.116 296.337 228.074 296.262 228.034Z" fill="#FDF7F7"/>
<path d="M317.132 220.992C317.168 220.852 317.187 220.709 317.187 220.565V215.133C316.514 215.081 315.863 214.908 315.338 214.613L310.67 211.992L308.191 213.412C307.936 213.558 307.635 213.713 307.267 213.825C306.651 214.015 305.969 214.129 305.267 214.129L317.132 220.992Z" fill="#FDF7F7"/>
<path d="M316.058 214.177L311.411 211.567L397.99 161.983C399.141 161.324 399.786 160.427 399.785 159.493L399.767 147.514L401.283 148.373L413.05 155.487C413.873 155.985 414.335 156.61 414.435 157.25H414.376V158.038C414.2 158.606 413.736 159.15 412.983 159.588L319.204 214.161C318.338 214.665 316.939 214.673 316.058 214.177Z" fill="#FDF7F7"/>
<path opacity="0.5" d="M59.6813 198.182L76.3249 207.791M59.4392 187.181L90.0641 204.862M59.6084 192.813L82.286 205.904" stroke="#E89D9C" stroke-width="0.849219"/>
<g opacity="0.6">
<path d="M250.62 96.675C251.243 97.0343 252.01 97.0343 252.631 96.675L273.096 84.8607C274.437 84.0866 274.437 82.1513 273.096 81.3772C272.474 81.018 271.707 81.018 271.085 81.3772L250.62 93.1915C249.28 93.9656 249.28 95.901 250.62 96.675Z" fill="#FBE9E9"/>
<path d="M244.587 101.32C245.927 100.545 245.927 98.6101 244.587 97.8361C243.964 97.4768 243.197 97.4768 242.576 97.8361L223.086 109.088C221.745 109.862 221.745 111.797 223.086 112.571C223.707 112.93 224.474 112.93 225.097 112.571L244.587 101.32Z" fill="#FBE9E9"/>
<path d="M217.051 117.215C218.392 116.442 218.392 114.506 217.051 113.732C216.429 113.373 215.662 113.373 215.04 113.732L202.852 120.769C201.511 121.542 201.511 123.478 202.852 124.251C203.474 124.61 204.241 124.61 204.863 124.251L217.051 117.215Z" fill="#FBE9E9"/>
<path d="M273.878 96.2801C274.501 96.6393 275.267 96.6393 275.889 96.2801L284.418 91.3564C285.759 90.5822 285.759 88.6469 284.418 87.8728C283.796 87.5136 283.029 87.5136 282.407 87.8728L273.878 92.7965C272.537 93.5707 272.537 95.506 273.878 96.2801Z" fill="#FBE9E9"/>
<path d="M267.844 100.925C269.184 100.151 269.184 98.2151 267.844 97.4411C267.222 97.0818 266.455 97.0818 265.833 97.4411L241.622 111.418C240.281 112.192 240.281 114.128 241.622 114.902C242.244 115.261 243.01 115.261 243.633 114.902L267.844 100.925Z" fill="#FBE9E9"/>
<path d="M235.588 119.546C236.929 118.772 236.929 116.836 235.588 116.063C234.965 115.704 234.199 115.704 233.577 116.063L214.174 127.263C212.833 128.038 212.833 129.973 214.174 130.747C214.796 131.106 215.562 131.106 216.185 130.747L235.588 119.546Z" fill="#FBE9E9"/>
<path d="M280.667 102.986C280.045 102.627 279.279 102.627 278.656 102.986L260.589 113.416C259.247 114.19 259.247 116.126 260.589 116.9C261.211 117.26 261.977 117.26 262.6 116.9L280.667 106.469C282.009 105.695 282.009 103.76 280.667 102.986Z" fill="#FBE9E9"/>
<path d="M286.702 101.825C287.324 102.184 288.09 102.184 288.713 101.825L295.595 97.852C296.936 97.0778 296.936 95.1425 295.595 94.3684C294.972 94.0092 294.206 94.0092 293.583 94.3684L286.702 98.3414C285.36 99.1154 285.36 101.051 286.702 101.825Z" fill="#FBE9E9"/>
<path d="M254.554 121.544C255.896 120.771 255.896 118.835 254.554 118.061C253.933 117.701 253.166 117.701 252.543 118.061L225.35 133.759C224.009 134.534 224.009 136.469 225.35 137.243C225.973 137.602 226.739 137.602 227.361 137.243L254.554 121.544Z" fill="#FBE9E9"/>
<path d="M246.941 138.97C248.282 138.197 248.282 136.261 246.941 135.487C246.319 135.127 245.552 135.127 244.931 135.487L236.672 140.254C235.331 141.029 235.331 142.964 236.672 143.738C237.294 144.097 238.061 144.097 238.683 143.738L246.941 138.97Z" fill="#FBE9E9"/>
<path d="M252.976 134.325C251.635 133.552 251.635 131.616 252.976 130.842L271.435 120.185C272.058 119.826 272.825 119.826 273.446 120.185C274.788 120.96 274.788 122.895 273.446 123.669L254.987 134.325C254.365 134.685 253.598 134.685 252.976 134.325Z" fill="#FBE9E9"/>
<path d="M279.48 119.025C280.103 119.384 280.87 119.384 281.492 119.025L306.916 104.347C308.258 103.573 308.258 101.638 306.916 100.863C306.294 100.504 305.528 100.504 304.905 100.863L279.48 115.541C278.14 116.315 278.14 118.25 279.48 119.025Z" fill="#FBE9E9"/>
<path d="M269.519 139.061C270.86 138.286 270.86 136.351 269.519 135.578C268.897 135.218 268.13 135.218 267.508 135.578L248.03 146.823C246.689 147.596 246.689 149.532 248.03 150.306C248.651 150.664 249.418 150.664 250.041 150.306L263.967 142.266C263.969 142.265 263.969 142.261 263.967 142.258C263.963 142.256 263.963 142.252 263.967 142.25L267.975 139.936C267.979 139.934 267.984 139.934 267.989 139.936C267.993 139.938 267.999 139.938 268.003 139.936L269.519 139.061Z" fill="#FBE9E9"/>
<path d="M275.554 134.416C274.213 133.643 274.213 131.706 275.554 130.933L296.204 119.011C296.827 118.652 297.594 118.652 298.215 119.011C299.556 119.785 299.556 121.721 298.215 122.494L277.565 134.416C276.943 134.775 276.176 134.775 275.554 134.416Z" fill="#FBE9E9"/>
<path d="M304.249 117.849C304.872 118.21 305.639 118.21 306.26 117.849L318.274 110.915C319.614 110.141 319.614 108.205 318.274 107.431C317.652 107.072 316.886 107.072 316.263 107.431L304.249 114.367C302.909 115.141 302.909 117.076 304.249 117.849Z" fill="#FBE9E9"/>
<path d="M272.19 150.489C273.53 149.714 273.53 147.779 272.19 147.005C271.567 146.646 270.8 146.646 270.179 147.005L259.243 153.319C257.901 154.093 257.901 156.028 259.243 156.801C259.865 157.162 260.631 157.162 261.254 156.801L272.19 150.489Z" fill="#FBE9E9"/>
<path d="M278.223 145.844C276.883 145.07 276.883 143.135 278.223 142.36L298.488 130.663C299.11 130.302 299.876 130.302 300.499 130.663C301.84 131.436 301.84 133.371 300.499 134.145L280.234 145.844C279.612 146.203 278.845 146.203 278.223 145.844Z" fill="#FBE9E9"/>
<path d="M306.533 129.501C307.156 129.86 307.922 129.86 308.544 129.501L329.487 117.411C330.827 116.637 330.827 114.702 329.487 113.927C328.864 113.568 328.097 113.568 327.476 113.927L306.533 126.018C305.192 126.791 305.192 128.727 306.533 129.501Z" fill="#FBE9E9"/>
<path d="M290.939 152.674C292.28 151.9 292.28 149.965 290.939 149.19C290.316 148.831 289.55 148.831 288.928 149.19L270.528 159.813C269.188 160.587 269.188 162.522 270.528 163.296C271.15 163.655 271.917 163.655 272.539 163.296L290.939 152.674Z" fill="#FBE9E9"/>
<path d="M296.973 148.03C295.632 147.255 295.632 145.32 296.973 144.547L319.268 131.675C319.891 131.316 320.657 131.316 321.279 131.675C322.619 132.449 322.619 134.384 321.279 135.159L298.984 148.03C298.362 148.388 297.596 148.388 296.973 148.03Z" fill="#FBE9E9"/>
<path d="M327.313 130.514C327.935 130.873 328.702 130.873 329.324 130.514L340.772 123.905C342.113 123.132 342.113 121.195 340.772 120.422C340.15 120.063 339.383 120.063 338.761 120.422L327.313 127.031C325.972 127.805 325.972 129.74 327.313 130.514Z" fill="#FBE9E9"/>
<path d="M310.247 154.519C311.588 153.744 311.588 151.809 310.247 151.035C309.625 150.676 308.859 150.676 308.236 151.035L281.777 166.309C280.436 167.084 280.436 169.019 281.777 169.793C282.399 170.152 283.166 170.152 283.788 169.793L310.247 154.519Z" fill="#FBE9E9"/>
<path d="M316.281 149.874C314.94 149.1 314.94 147.165 316.281 146.39L350.01 126.919C350.632 126.559 351.399 126.559 352.021 126.919C353.362 127.693 353.362 129.628 352.021 130.402L318.292 149.874C317.67 150.233 316.904 150.233 316.281 149.874Z" fill="#FBE9E9"/>
<path d="M324.048 156.078C323.427 155.719 322.66 155.719 322.037 156.078L293.063 172.805C291.721 173.579 291.721 175.515 293.063 176.288C293.685 176.648 294.451 176.648 295.074 176.288L324.048 159.562C325.389 158.787 325.389 156.852 324.048 156.078Z" fill="#FBE9E9"/>
<path d="M227.706 188.109C228.329 188.469 229.095 188.469 229.717 188.109L240.343 181.976C241.683 181.202 241.683 179.267 240.343 178.493C239.72 178.134 238.953 178.134 238.332 178.493L227.706 184.626C226.366 185.4 226.366 187.336 227.706 188.109Z" fill="#FBE9E9"/>
<path d="M221.699 192.739C223.04 191.965 223.04 190.03 221.699 189.255C221.077 188.896 220.31 188.896 219.688 189.255L195.557 203.187C194.215 203.96 194.215 205.895 195.557 206.67C196.179 207.029 196.945 207.029 197.568 206.67L221.699 192.739Z" fill="#FBE9E9"/>
<path d="M189.549 211.299C190.89 210.525 190.89 208.59 189.549 207.816C188.926 207.457 188.16 207.457 187.538 207.816L170.098 217.884C168.757 218.657 168.757 220.594 170.098 221.367C170.72 221.726 171.487 221.726 172.108 221.367L189.549 211.299Z" fill="#FBE9E9"/>
<path d="M232.557 198.3C233.179 198.659 233.945 198.659 234.568 198.3L251.592 188.472C252.933 187.697 252.933 185.762 251.592 184.988C250.969 184.629 250.203 184.629 249.581 184.988L232.557 194.816C231.215 195.59 231.215 197.525 232.557 198.3Z" fill="#FBE9E9"/>
<path d="M226.549 202.929C227.89 202.154 227.89 200.219 226.549 199.445C225.926 199.086 225.16 199.086 224.538 199.445L212.15 206.596C210.809 207.371 210.809 209.306 212.15 210.08C212.772 210.439 213.539 210.439 214.161 210.08L226.549 202.929Z" fill="#FBE9E9"/>
<path d="M206.142 214.709C207.482 213.936 207.482 212 206.142 211.226C205.52 210.867 204.754 210.867 204.131 211.226L181.348 224.379C180.006 225.153 180.006 227.089 181.348 227.862C181.97 228.222 182.736 228.222 183.359 227.862L206.142 214.709Z" fill="#FBE9E9"/>
<path d="M223.196 214.391C224.537 215.165 224.537 217.1 223.196 217.875L194.643 234.358C194.021 234.717 193.254 234.717 192.633 234.358C191.292 233.583 191.292 231.648 192.633 230.875L221.186 214.391C221.807 214.032 222.574 214.032 223.196 214.391Z" fill="#FBE9E9"/>
</g>
<path opacity="0.62" d="M165.555 140.504L101.077 177.728C98.9103 178.978 98.9103 181.006 101.077 182.256L153.222 212.36C155.388 213.61 158.901 213.61 161.067 212.36L225.546 175.136C227.712 173.886 227.712 171.858 225.546 170.608L173.4 140.504C171.234 139.253 167.722 139.253 165.555 140.504Z" fill="#FDF7F7" stroke="#E89D9C" stroke-width="0.849219"/>
<path opacity="0.62" d="M166.067 154.347L126.455 177.216C124.288 178.466 124.288 180.494 126.455 181.745L153.311 197.248C155.477 198.499 158.989 198.499 161.155 197.248L200.768 174.38C202.934 173.129 202.934 171.102 200.768 169.851L173.912 154.347C171.746 153.097 168.234 153.097 166.067 154.347Z" fill="white" stroke="#E89D9C" stroke-width="0.849219"/>
<path opacity="0.75" d="M158.973 187.008L159.151 187.112C159.572 187.354 159.844 187.669 159.929 188.009C160.014 188.348 159.907 188.695 159.624 188.996C159.339 189.297 158.894 189.537 158.354 189.681C157.814 189.825 157.21 189.863 156.628 189.792C156.047 189.721 155.521 189.543 155.13 189.285C154.738 189.026 154.501 188.701 154.455 188.36C154.408 188.018 154.554 187.677 154.871 187.386C155.188 187.096 155.661 186.873 156.215 186.751M157.592 186.212L157.595 188.463H156.426" stroke="#E89D9C" stroke-width="0.849219" stroke-linecap="round" stroke-linejoin="round"/>
<g opacity="0.5">
<path d="M161.987 149.438C162.267 149.277 162.267 149.016 161.987 148.855C161.708 148.694 161.256 148.694 160.978 148.855C160.699 149.016 160.699 149.277 160.978 149.438C161.256 149.599 161.708 149.599 161.987 149.438Z" fill="#E89D9C"/>
<path d="M157.893 151.219C158.171 151.38 158.171 151.642 157.893 151.802C157.614 151.963 157.162 151.963 156.882 151.802C156.604 151.642 156.604 151.38 156.882 151.219C157.162 151.059 157.614 151.059 157.893 151.219Z" fill="#E89D9C"/>
<path d="M137.418 163.622C137.697 163.461 137.697 163.2 137.418 163.039C137.14 162.879 136.688 162.879 136.408 163.039C136.13 163.2 136.13 163.461 136.408 163.622C136.688 163.783 137.14 163.783 137.418 163.622Z" fill="#E89D9C"/>
<path d="M112.85 177.806C113.128 177.645 113.128 177.384 112.85 177.222C112.571 177.062 112.119 177.062 111.84 177.222C111.561 177.384 111.561 177.645 111.84 177.806C112.119 177.966 112.571 177.966 112.85 177.806Z" fill="#E89D9C"/>
<path d="M108.755 180.17C109.034 180.009 109.034 179.747 108.755 179.587C108.476 179.426 108.024 179.426 107.745 179.587C107.466 179.747 107.466 180.009 107.745 180.17C108.024 180.331 108.476 180.331 108.755 180.17Z" fill="#E89D9C"/>
<path d="M116.944 174.859C117.223 175.02 117.223 175.282 116.944 175.442C116.666 175.603 116.214 175.603 115.934 175.442C115.656 175.282 115.656 175.02 115.934 174.859C116.214 174.699 116.666 174.699 116.944 174.859Z" fill="#E89D9C"/>
<path d="M121.039 173.078C121.318 172.917 121.318 172.656 121.039 172.495C120.76 172.334 120.308 172.334 120.03 172.495C119.751 172.656 119.751 172.917 120.03 173.078C120.308 173.239 120.76 173.239 121.039 173.078Z" fill="#E89D9C"/>
<path d="M125.134 170.131C125.412 170.293 125.412 170.553 125.134 170.714C124.855 170.875 124.404 170.875 124.124 170.714C123.845 170.553 123.845 170.293 124.124 170.131C124.404 169.97 124.855 169.97 125.134 170.131Z" fill="#E89D9C"/>
<path d="M129.229 168.35C129.507 168.189 129.507 167.929 129.229 167.768C128.95 167.606 128.498 167.606 128.22 167.768C127.94 167.929 127.94 168.189 128.22 168.35C128.498 168.511 128.95 168.511 129.229 168.35Z" fill="#E89D9C"/>
<path d="M133.324 165.404C133.603 165.564 133.603 165.826 133.324 165.987C133.045 166.147 132.593 166.147 132.314 165.987C132.035 165.826 132.035 165.564 132.314 165.404C132.593 165.243 133.045 165.243 133.324 165.404Z" fill="#E89D9C"/>
<path d="M141.513 160.676C141.792 160.837 141.792 161.097 141.513 161.258C141.234 161.419 140.782 161.419 140.504 161.258C140.224 161.097 140.224 160.837 140.504 160.676C140.782 160.514 141.234 160.514 141.513 160.676Z" fill="#E89D9C"/>
<path d="M145.608 158.894C145.887 158.733 145.887 158.473 145.608 158.312C145.33 158.151 144.877 158.151 144.598 158.312C144.32 158.473 144.32 158.733 144.598 158.894C144.877 159.056 145.33 159.056 145.608 158.894Z" fill="#E89D9C"/>
<path d="M149.703 155.948C149.981 156.109 149.981 156.369 149.703 156.531C149.424 156.692 148.972 156.692 148.693 156.531C148.414 156.369 148.414 156.109 148.693 155.948C148.972 155.787 149.424 155.787 149.703 155.948Z" fill="#E89D9C"/>
<path d="M153.797 154.167C154.077 154.006 154.077 153.744 153.797 153.584C153.518 153.423 153.067 153.423 152.788 153.584C152.51 153.744 152.51 154.006 152.788 154.167C153.067 154.328 153.518 154.328 153.797 154.167Z" fill="#E89D9C"/>
<path d="M166.082 146.492C166.361 146.653 166.361 146.914 166.082 147.075C165.804 147.236 165.351 147.236 165.072 147.075C164.794 146.914 164.794 146.653 165.072 146.492C165.351 146.331 165.804 146.331 166.082 146.492Z" fill="#E89D9C"/>
<path d="M170.177 144.711C170.455 144.55 170.455 144.289 170.177 144.128C169.898 143.967 169.446 143.967 169.167 144.128C168.888 144.289 168.888 144.55 169.167 144.711C169.446 144.872 169.898 144.872 170.177 144.711Z" fill="#E89D9C"/>
<path d="M170.178 148.855C170.456 149.017 170.456 149.277 170.178 149.438C169.899 149.599 169.446 149.599 169.168 149.438C168.889 149.277 168.889 149.017 169.168 148.855C169.446 148.694 169.899 148.694 170.178 148.855Z" fill="#E89D9C"/>
<path d="M166.083 151.802C166.362 151.642 166.362 151.38 166.083 151.219C165.804 151.059 165.352 151.059 165.073 151.219C164.795 151.38 164.795 151.642 165.073 151.802C165.352 151.963 165.804 151.963 166.083 151.802Z" fill="#E89D9C"/>
<path d="M121.04 177.224C121.318 177.384 121.318 177.645 121.04 177.806C120.761 177.966 120.309 177.966 120.031 177.806C119.751 177.645 119.751 177.384 120.031 177.224C120.309 177.062 120.761 177.062 121.04 177.224Z" fill="#E89D9C"/>
<path d="M116.945 180.17C117.224 180.009 117.224 179.749 116.945 179.587C116.667 179.426 116.214 179.426 115.935 179.587C115.657 179.749 115.657 180.009 115.935 180.17C116.214 180.331 116.667 180.331 116.945 180.17Z" fill="#E89D9C"/>
<path d="M112.851 182.534C113.129 182.373 113.129 182.112 112.851 181.951C112.572 181.79 112.12 181.79 111.841 181.951C111.562 182.112 111.562 182.373 111.841 182.534C112.12 182.695 112.572 182.695 112.851 182.534Z" fill="#E89D9C"/>
<path d="M125.135 175.442C125.414 175.282 125.414 175.02 125.135 174.859C124.857 174.699 124.404 174.699 124.125 174.859C123.847 175.02 123.847 175.282 124.125 175.442C124.404 175.603 124.857 175.603 125.135 175.442Z" fill="#E89D9C"/>
<path d="M129.23 172.495C129.508 172.657 129.508 172.917 129.23 173.078C128.951 173.239 128.499 173.239 128.221 173.078C127.941 172.917 127.941 172.657 128.221 172.495C128.499 172.334 128.951 172.334 129.23 172.495Z" fill="#E89D9C"/>
<path d="M133.325 170.714C133.604 170.553 133.604 170.293 133.325 170.132C133.045 169.97 132.594 169.97 132.315 170.132C132.037 170.293 132.037 170.553 132.315 170.714C132.594 170.875 133.045 170.875 133.325 170.714Z" fill="#E89D9C"/>
<path d="M137.419 167.768C137.698 167.929 137.698 168.189 137.419 168.35C137.141 168.512 136.688 168.512 136.409 168.35C136.131 168.189 136.131 167.929 136.409 167.768C136.688 167.607 137.141 167.607 137.419 167.768Z" fill="#E89D9C"/>
<path d="M141.514 165.987C141.793 165.826 141.793 165.564 141.514 165.404C141.235 165.243 140.783 165.243 140.505 165.404C140.225 165.564 140.225 165.826 140.505 165.987C140.783 166.147 141.235 166.147 141.514 165.987Z" fill="#E89D9C"/>
<path d="M145.609 163.041C145.888 163.201 145.888 163.462 145.609 163.622C145.33 163.783 144.878 163.783 144.599 163.622C144.321 163.462 144.321 163.201 144.599 163.041C144.878 162.879 145.33 162.879 145.609 163.041Z" fill="#E89D9C"/>
<path d="M149.704 161.258C149.982 161.097 149.982 160.837 149.704 160.676C149.425 160.515 148.972 160.515 148.694 160.676C148.415 160.837 148.415 161.097 148.694 161.258C148.972 161.42 149.425 161.42 149.704 161.258Z" fill="#E89D9C"/>
<path d="M153.798 158.312C154.078 158.473 154.078 158.733 153.798 158.895C153.52 159.056 153.068 159.056 152.789 158.895C152.511 158.733 152.511 158.473 152.789 158.312C153.068 158.151 153.52 158.151 153.798 158.312Z" fill="#E89D9C"/>
<path d="M157.894 156.531C158.172 156.37 158.172 156.109 157.894 155.948C157.615 155.787 157.163 155.787 156.884 155.948C156.605 156.109 156.605 156.37 156.884 156.531C157.163 156.692 157.615 156.692 157.894 156.531Z" fill="#E89D9C"/>
<path d="M161.988 153.584C162.266 153.744 162.266 154.006 161.988 154.167C161.709 154.328 161.258 154.328 160.979 154.167C160.699 154.006 160.699 153.744 160.979 153.584C161.258 153.423 161.709 153.423 161.988 153.584Z" fill="#E89D9C"/>
<path d="M174.272 147.075C174.552 146.914 174.552 146.653 174.272 146.492C173.994 146.331 173.542 146.331 173.263 146.492C172.984 146.653 172.984 146.914 173.263 147.075C173.542 147.236 173.994 147.236 174.272 147.075Z" fill="#E89D9C"/>
<path d="M121.041 182.534C121.319 182.373 121.319 182.113 121.041 181.952C120.762 181.79 120.309 181.79 120.031 181.952C119.752 182.113 119.752 182.373 120.031 182.534C120.309 182.696 120.762 182.696 121.041 182.534Z" fill="#E89D9C"/>
<path d="M116.946 184.898C117.225 184.738 117.225 184.477 116.946 184.315C116.667 184.154 116.215 184.154 115.936 184.315C115.658 184.477 115.658 184.738 115.936 184.898C116.215 185.059 116.667 185.059 116.946 184.898Z" fill="#E89D9C"/>
<path d="M174.273 151.22C174.552 151.381 174.552 151.643 174.273 151.804C173.995 151.964 173.543 151.964 173.263 151.804C172.985 151.643 172.985 151.381 173.263 151.22C173.543 151.06 173.995 151.06 174.273 151.22Z" fill="#E89D9C"/>
<path d="M178.368 149.439C178.646 149.279 178.646 149.018 178.368 148.856C178.089 148.695 177.637 148.695 177.359 148.856C177.079 149.018 177.079 149.279 177.359 149.439C177.637 149.6 178.089 149.6 178.368 149.439Z" fill="#E89D9C"/>
<path d="M125.137 184.899C125.415 184.737 125.415 184.477 125.137 184.316C124.857 184.155 124.405 184.155 124.127 184.316C123.848 184.477 123.848 184.737 124.127 184.899C124.405 185.06 124.857 185.06 125.137 184.899Z" fill="#E89D9C"/>
<path d="M121.041 187.262C121.321 187.102 121.321 186.841 121.041 186.68C120.762 186.52 120.311 186.52 120.032 186.68C119.754 186.841 119.754 187.102 120.032 187.262C120.311 187.424 120.762 187.424 121.041 187.262Z" fill="#E89D9C"/>
<path d="M178.369 153.585C178.647 153.747 178.647 154.007 178.369 154.168C178.09 154.329 177.637 154.329 177.359 154.168C177.08 154.007 177.08 153.747 177.359 153.585C177.637 153.424 178.09 153.424 178.369 153.585Z" fill="#E89D9C"/>
<path d="M182.463 151.804C182.743 151.643 182.743 151.382 182.463 151.222C182.185 151.061 181.733 151.061 181.454 151.222C181.175 151.382 181.175 151.643 181.454 151.804C181.733 151.966 182.185 151.966 182.463 151.804Z" fill="#E89D9C"/>
<path d="M129.232 187.262C129.511 187.102 129.511 186.841 129.232 186.68C128.952 186.52 128.501 186.52 128.222 186.68C127.943 186.841 127.943 187.102 128.222 187.262C128.501 187.424 128.952 187.424 129.232 187.262Z" fill="#E89D9C"/>
<path d="M125.136 189.627C125.415 189.466 125.415 189.205 125.136 189.045C124.858 188.883 124.406 188.883 124.128 189.045C123.848 189.205 123.848 189.466 124.128 189.627C124.406 189.787 124.858 189.787 125.136 189.627Z" fill="#E89D9C"/>
<path d="M182.464 155.949C182.743 156.11 182.743 156.371 182.464 156.532C182.185 156.693 181.733 156.693 181.454 156.532C181.176 156.371 181.176 156.11 181.454 155.949C181.733 155.788 182.185 155.788 182.464 155.949Z" fill="#E89D9C"/>
<path d="M186.559 154.168C186.837 154.007 186.837 153.747 186.559 153.585C186.28 153.424 185.827 153.424 185.549 153.585C185.27 153.747 185.27 154.007 185.549 154.168C185.827 154.329 186.28 154.329 186.559 154.168Z" fill="#E89D9C"/>
<path d="M133.327 189.627C133.606 189.466 133.606 189.205 133.327 189.045C133.048 188.883 132.596 188.883 132.317 189.045C132.039 189.205 132.039 189.466 132.317 189.627C132.596 189.789 133.048 189.789 133.327 189.627Z" fill="#E89D9C"/>
<path d="M129.232 191.991C129.511 191.83 129.511 191.57 129.232 191.408C128.953 191.247 128.502 191.247 128.222 191.408C127.943 191.57 127.943 191.83 128.222 191.991C128.502 192.152 128.953 192.152 129.232 191.991Z" fill="#E89D9C"/>
<path d="M186.56 158.313C186.838 158.474 186.838 158.736 186.56 158.896C186.28 159.057 185.828 159.057 185.55 158.896C185.271 158.736 185.271 158.474 185.55 158.313C185.828 158.152 186.28 158.152 186.56 158.313Z" fill="#E89D9C"/>
<path d="M190.654 156.532C190.933 156.371 190.933 156.111 190.654 155.949C190.376 155.788 189.923 155.788 189.644 155.949C189.366 156.111 189.366 156.371 189.644 156.532C189.923 156.693 190.376 156.693 190.654 156.532Z" fill="#E89D9C"/>
<path d="M137.422 191.992C137.701 191.831 137.701 191.57 137.422 191.409C137.143 191.248 136.691 191.248 136.413 191.409C136.134 191.57 136.134 191.831 136.413 191.992C136.691 192.153 137.143 192.153 137.422 191.992Z" fill="#E89D9C"/>
<path d="M133.327 194.356C133.606 194.194 133.606 193.934 133.327 193.773C133.049 193.612 132.597 193.612 132.317 193.773C132.039 193.934 132.039 194.194 132.317 194.356C132.597 194.517 133.049 194.517 133.327 194.356Z" fill="#E89D9C"/>
<path d="M190.655 160.678C190.934 160.839 190.934 161.1 190.655 161.26C190.376 161.421 189.924 161.421 189.645 161.26C189.367 161.1 189.367 160.839 189.645 160.678C189.924 160.517 190.376 160.517 190.655 160.678Z" fill="#E89D9C"/>
<path d="M194.75 158.896C195.028 158.736 195.028 158.475 194.75 158.314C194.471 158.154 194.018 158.154 193.74 158.314C193.461 158.475 193.461 158.736 193.74 158.896C194.018 159.058 194.471 159.058 194.75 158.896Z" fill="#E89D9C"/>
<path d="M141.517 194.356C141.796 194.194 141.796 193.934 141.517 193.773C141.239 193.612 140.787 193.612 140.509 193.773C140.229 193.934 140.229 194.194 140.509 194.356C140.787 194.517 141.239 194.517 141.517 194.356Z" fill="#E89D9C"/>
<path d="M137.423 196.719C137.701 196.559 137.701 196.298 137.423 196.137C137.144 195.977 136.691 195.977 136.413 196.137C136.134 196.298 136.134 196.559 136.413 196.719C136.691 196.881 137.144 196.881 137.423 196.719Z" fill="#E89D9C"/>
<path d="M194.75 163.042C195.029 163.204 195.029 163.464 194.75 163.625C194.471 163.786 194.019 163.786 193.741 163.625C193.461 163.464 193.461 163.204 193.741 163.042C194.019 162.881 194.471 162.881 194.75 163.042Z" fill="#E89D9C"/>
<path d="M198.845 161.26C199.124 161.1 199.124 160.839 198.845 160.678C198.566 160.517 198.114 160.517 197.835 160.678C197.557 160.839 197.557 161.1 197.835 161.26C198.114 161.421 198.566 161.421 198.845 161.26Z" fill="#E89D9C"/>
<path d="M141.518 199.083C141.797 198.923 141.797 198.662 141.518 198.5C141.24 198.34 140.787 198.34 140.508 198.5C140.23 198.662 140.23 198.923 140.508 199.083C140.787 199.244 141.24 199.244 141.518 199.083Z" fill="#E89D9C"/>
<path d="M145.613 196.72C145.892 196.56 145.892 196.298 145.613 196.137C145.334 195.977 144.882 195.977 144.604 196.137C144.324 196.298 144.324 196.56 144.604 196.72C144.882 196.881 145.334 196.881 145.613 196.72Z" fill="#E89D9C"/>
<path d="M198.845 165.406C199.124 165.567 199.124 165.828 198.845 165.989C198.567 166.15 198.115 166.15 197.836 165.989C197.557 165.828 197.557 165.567 197.836 165.406C198.115 165.245 198.567 165.245 198.845 165.406Z" fill="#E89D9C"/>
<path d="M202.941 163.625C203.219 163.464 203.219 163.202 202.941 163.042C202.662 162.881 202.209 162.881 201.931 163.042C201.652 163.202 201.652 163.464 201.931 163.625C202.209 163.786 202.662 163.786 202.941 163.625Z" fill="#E89D9C"/>
<path d="M149.708 199.085C149.988 198.924 149.988 198.662 149.708 198.502C149.43 198.341 148.978 198.341 148.699 198.502C148.42 198.662 148.42 198.924 148.699 199.085C148.978 199.245 149.43 199.245 149.708 199.085Z" fill="#E89D9C"/>
<path d="M145.614 201.449C145.892 201.287 145.892 201.027 145.614 200.866C145.335 200.705 144.882 200.705 144.604 200.866C144.325 201.027 144.325 201.287 144.604 201.449C144.882 201.61 145.335 201.61 145.614 201.449Z" fill="#E89D9C"/>
<path d="M202.941 167.771C203.22 167.932 203.22 168.192 202.941 168.353C202.662 168.514 202.21 168.514 201.932 168.353C201.652 168.192 201.652 167.932 201.932 167.771C202.21 167.609 202.662 167.609 202.941 167.771Z" fill="#E89D9C"/>
<path d="M207.036 165.989C207.315 165.828 207.315 165.568 207.036 165.407C206.756 165.246 206.305 165.246 206.026 165.407C205.748 165.568 205.748 165.828 206.026 165.989C206.305 166.151 206.756 166.151 207.036 165.989Z" fill="#E89D9C"/>
<path d="M153.804 201.449C154.082 201.287 154.082 201.027 153.804 200.866C153.525 200.705 153.073 200.705 152.794 200.866C152.515 201.027 152.515 201.287 152.794 201.449C153.073 201.61 153.525 201.61 153.804 201.449Z" fill="#E89D9C"/>
<path d="M149.709 203.812C149.988 203.651 149.988 203.391 149.709 203.23C149.431 203.069 148.978 203.069 148.699 203.23C148.421 203.391 148.421 203.651 148.699 203.812C148.978 203.974 149.431 203.974 149.709 203.812Z" fill="#E89D9C"/>
<path d="M207.036 170.134C207.315 170.296 207.315 170.557 207.036 170.717C206.757 170.878 206.306 170.878 206.027 170.717C205.747 170.557 205.747 170.296 206.027 170.134C206.306 169.973 206.757 169.973 207.036 170.134Z" fill="#E89D9C"/>
<path d="M211.131 168.353C211.41 168.192 211.41 167.932 211.131 167.771C210.852 167.609 210.4 167.609 210.122 167.771C209.843 167.932 209.843 168.192 210.122 168.353C210.4 168.514 210.852 168.514 211.131 168.353Z" fill="#E89D9C"/>
<path d="M182.468 189.629C182.746 189.468 182.746 189.208 182.468 189.047C182.189 188.885 181.737 188.885 181.458 189.047C181.179 189.208 181.179 189.468 181.458 189.629C181.737 189.79 182.189 189.79 182.468 189.629Z" fill="#E89D9C"/>
<path d="M161.994 200.866C162.272 201.027 162.272 201.288 161.994 201.449C161.715 201.61 161.263 201.61 160.985 201.449C160.705 201.288 160.705 201.027 160.985 200.866C161.263 200.705 161.715 200.705 161.994 200.866Z" fill="#E89D9C"/>
<path d="M157.899 203.813C158.178 203.652 158.178 203.391 157.899 203.23C157.619 203.069 157.168 203.069 156.889 203.23C156.611 203.391 156.611 203.652 156.889 203.813C157.168 203.974 157.619 203.974 157.899 203.813Z" fill="#E89D9C"/>
<path d="M153.804 206.177C154.083 206.017 154.083 205.755 153.804 205.594C153.525 205.433 153.073 205.433 152.795 205.594C152.516 205.755 152.516 206.017 152.795 206.177C153.073 206.338 153.525 206.338 153.804 206.177Z" fill="#E89D9C"/>
<path d="M166.088 199.086C166.368 198.925 166.368 198.663 166.088 198.503C165.809 198.342 165.358 198.342 165.079 198.503C164.801 198.663 164.801 198.925 165.079 199.086C165.358 199.247 165.809 199.247 166.088 199.086Z" fill="#E89D9C"/>
<path d="M170.184 196.138C170.462 196.299 170.462 196.561 170.184 196.722C169.905 196.882 169.453 196.882 169.174 196.722C168.895 196.561 168.895 196.299 169.174 196.138C169.453 195.978 169.905 195.978 170.184 196.138Z" fill="#E89D9C"/>
<path d="M174.278 194.357C174.558 194.197 174.558 193.935 174.278 193.774C173.999 193.613 173.548 193.613 173.269 193.774C172.989 193.935 172.989 194.197 173.269 194.357C173.548 194.518 173.999 194.518 174.278 194.357Z" fill="#E89D9C"/>
<path d="M178.373 191.41C178.652 191.572 178.652 191.832 178.373 191.993C178.095 192.154 177.642 192.154 177.363 191.993C177.085 191.832 177.085 191.572 177.363 191.41C177.642 191.249 178.095 191.249 178.373 191.41Z" fill="#E89D9C"/>
<path d="M186.562 186.683C186.842 186.844 186.842 187.105 186.562 187.266C186.284 187.427 185.832 187.427 185.553 187.266C185.274 187.105 185.274 186.844 185.553 186.683C185.832 186.522 186.284 186.522 186.562 186.683Z" fill="#E89D9C"/>
<path d="M190.658 184.902C190.936 184.741 190.936 184.48 190.658 184.318C190.379 184.158 189.926 184.158 189.648 184.318C189.369 184.48 189.369 184.741 189.648 184.902C189.926 185.062 190.379 185.062 190.658 184.902Z" fill="#E89D9C"/>
<path d="M194.752 181.955C195.031 182.116 195.031 182.377 194.752 182.537C194.473 182.698 194.022 182.698 193.743 182.537C193.463 182.377 193.463 182.116 193.743 181.955C194.022 181.794 194.473 181.794 194.752 181.955Z" fill="#E89D9C"/>
<path d="M198.847 180.173C199.126 180.012 199.126 179.752 198.847 179.591C198.568 179.43 198.116 179.43 197.837 179.591C197.559 179.752 197.559 180.012 197.837 180.173C198.116 180.335 198.568 180.335 198.847 180.173Z" fill="#E89D9C"/>
<path d="M202.942 177.227C203.22 177.388 203.22 177.648 202.942 177.81C202.663 177.971 202.211 177.971 201.933 177.81C201.653 177.648 201.653 177.388 201.933 177.227C202.211 177.066 202.663 177.066 202.942 177.227Z" fill="#E89D9C"/>
<path d="M207.038 175.446C207.316 175.285 207.316 175.025 207.038 174.864C206.758 174.702 206.306 174.702 206.028 174.864C205.749 175.025 205.749 175.285 206.028 175.446C206.306 175.607 206.758 175.607 207.038 175.446Z" fill="#E89D9C"/>
<path d="M211.132 172.5C211.41 172.66 211.41 172.921 211.132 173.082C210.853 173.244 210.4 173.244 210.122 173.082C209.843 172.921 209.843 172.66 210.122 172.5C210.4 172.339 210.853 172.339 211.132 172.5Z" fill="#E89D9C"/>
<path d="M215.226 170.718C215.506 170.557 215.506 170.296 215.226 170.135C214.948 169.975 214.496 169.975 214.217 170.135C213.938 170.296 213.938 170.557 214.217 170.718C214.496 170.879 214.948 170.879 215.226 170.718Z" fill="#E89D9C"/>
<path d="M211.132 177.81C211.411 177.648 211.411 177.388 211.132 177.227C210.853 177.066 210.401 177.066 210.123 177.227C209.843 177.388 209.843 177.648 210.123 177.81C210.401 177.971 210.853 177.971 211.132 177.81Z" fill="#E89D9C"/>
<path d="M207.038 179.591C207.316 179.752 207.316 180.012 207.038 180.173C206.759 180.335 206.306 180.335 206.028 180.173C205.749 180.012 205.749 179.752 206.028 179.591C206.306 179.43 206.759 179.43 207.038 179.591Z" fill="#E89D9C"/>
<path d="M186.563 191.993C186.842 191.832 186.842 191.572 186.563 191.41C186.285 191.249 185.832 191.249 185.553 191.41C185.275 191.572 185.275 191.832 185.553 191.993C185.832 192.154 186.285 192.154 186.563 191.993Z" fill="#E89D9C"/>
<path d="M161.995 206.177C162.273 206.017 162.273 205.755 161.995 205.594C161.715 205.433 161.263 205.433 160.985 205.594C160.706 205.755 160.706 206.017 160.985 206.177C161.263 206.338 161.715 206.338 161.995 206.177Z" fill="#E89D9C"/>
<path d="M157.899 208.542C158.178 208.38 158.178 208.119 157.899 207.958C157.621 207.798 157.169 207.798 156.89 207.958C156.611 208.119 156.611 208.38 156.89 208.542C157.169 208.702 157.621 208.702 157.899 208.542Z" fill="#E89D9C"/>
<path d="M166.089 203.231C166.368 203.392 166.368 203.652 166.089 203.813C165.811 203.974 165.359 203.974 165.079 203.813C164.801 203.652 164.801 203.392 165.079 203.231C165.359 203.069 165.811 203.069 166.089 203.231Z" fill="#E89D9C"/>
<path d="M170.183 201.45C170.462 201.288 170.462 201.028 170.183 200.867C169.905 200.706 169.453 200.706 169.175 200.867C168.895 201.028 168.895 201.288 169.175 201.45C169.453 201.611 169.905 201.611 170.183 201.45Z" fill="#E89D9C"/>
<path d="M174.279 198.503C174.558 198.663 174.558 198.925 174.279 199.086C174 199.247 173.548 199.247 173.269 199.086C172.99 198.925 172.99 198.663 173.269 198.503C173.548 198.342 174 198.342 174.279 198.503Z" fill="#E89D9C"/>
<path d="M178.373 196.722C178.652 196.561 178.652 196.299 178.373 196.138C178.095 195.978 177.643 195.978 177.363 196.138C177.085 196.299 177.085 196.561 177.363 196.722C177.643 196.882 178.095 196.882 178.373 196.722Z" fill="#E89D9C"/>
<path d="M182.469 193.775C182.748 193.936 182.748 194.197 182.469 194.357C182.189 194.519 181.738 194.519 181.459 194.357C181.18 194.197 181.18 193.936 181.459 193.775C181.738 193.615 182.189 193.615 182.469 193.775Z" fill="#E89D9C"/>
<path d="M190.658 189.047C190.936 189.208 190.936 189.469 190.658 189.63C190.379 189.791 189.927 189.791 189.649 189.63C189.369 189.469 189.369 189.208 189.649 189.047C189.927 188.886 190.379 188.886 190.658 189.047Z" fill="#E89D9C"/>
<path d="M194.753 187.266C195.032 187.105 195.032 186.844 194.753 186.683C194.473 186.522 194.022 186.522 193.743 186.683C193.465 186.844 193.465 187.105 193.743 187.266C194.022 187.427 194.473 187.427 194.753 187.266Z" fill="#E89D9C"/>
<path d="M198.847 184.318C199.126 184.48 199.126 184.741 198.847 184.902C198.569 185.062 198.117 185.062 197.837 184.902C197.559 184.741 197.559 184.48 197.837 184.318C198.117 184.158 198.569 184.158 198.847 184.318Z" fill="#E89D9C"/>
<path d="M202.943 182.537C203.221 182.377 203.221 182.116 202.943 181.955C202.663 181.794 202.211 181.794 201.933 181.955C201.654 182.116 201.654 182.377 201.933 182.537C202.211 182.698 202.663 182.698 202.943 182.537Z" fill="#E89D9C"/>
<path d="M215.227 174.864C215.506 175.025 215.506 175.285 215.227 175.446C214.948 175.607 214.496 175.607 214.217 175.446C213.939 175.285 213.939 175.025 214.217 174.864C214.496 174.702 214.948 174.702 215.227 174.864Z" fill="#E89D9C"/>
<path d="M219.322 173.082C219.6 172.921 219.6 172.66 219.322 172.5C219.043 172.339 218.59 172.339 218.312 172.5C218.033 172.66 218.033 172.921 218.312 173.082C218.59 173.244 219.043 173.244 219.322 173.082Z" fill="#E89D9C"/>
</g>
<path opacity="0.5" d="M151.71 174.221C151.26 173.96 151.26 173.539 151.71 173.279L172.103 161.506C172.554 161.246 173.284 161.246 173.735 161.506C174.185 161.767 174.185 162.188 173.735 162.448L153.342 174.221C152.891 174.481 152.161 174.481 151.71 174.221Z" fill="#E89D9C"/>
<path opacity="0.25" d="M162.092 185.756C161.642 185.497 161.642 185.075 162.092 184.814L182.485 173.042C182.935 172.783 183.666 172.783 184.116 173.042C184.567 173.302 184.567 173.724 184.116 173.984L163.724 185.756C163.273 186.017 162.543 186.017 162.092 185.756Z" fill="#E89D9C"/>
<path opacity="0.5" d="M167.27 169.072C167.018 168.926 166.706 168.926 166.454 169.072L155.172 175.585C154.721 175.845 154.721 176.268 155.172 176.527C155.622 176.788 156.353 176.788 156.803 176.527L167.27 170.485C167.814 170.172 167.814 169.386 167.27 169.072Z" fill="#E89D9C"/>
<g opacity="0.62">
<mask id="mask1_123_15283" style="mask-type:luminance" maskUnits="userSpaceOnUse" x="44" y="61" width="372" height="233">
<g opacity="0.62">
<path fill-rule="evenodd" clip-rule="evenodd" d="M169.563 125.261C169.921 121.831 170.982 119.379 172.238 117.551C173.472 115.752 174.888 114.568 175.965 113.668L176.153 113.509C176.3 113.386 176.712 113.12 177.311 112.75C177.924 112.371 178.767 111.863 179.811 111.241C181.899 109.998 184.796 108.3 188.27 106.278C195.219 102.233 204.482 96.8878 214.223 91.2858C233.707 80.0819 255.105 67.8481 263.722 62.9248C266.095 61.5689 269.911 61.5803 272.27 62.9422L397.975 135.512C399.111 136.168 399.751 137.058 399.752 137.985L399.765 146.584L413.797 155.067C415.174 155.9 415.711 157.028 415.413 158.09V164.21C415.413 165.155 414.763 166.061 413.608 166.725L325.424 217.369C324.463 217.921 323.924 218.675 323.928 219.462L323.949 223.319C323.954 224.271 323.3 225.185 322.134 225.852L295.763 240.93C294.781 241.491 293.247 241.262 292.718 240.625L288.257 238.05L194.515 292.349C192.149 293.719 188.327 293.716 185.97 292.34L46.6398 211.018C45.5058 210.357 44.8688 209.459 44.8688 208.523L44.8687 202.623H44.9077C44.7981 201.653 45.373 200.661 46.6338 199.913L59.0987 192.529L59.1216 192.542V181.907C59.1216 180.967 59.7645 180.065 60.9104 179.397L84.561 165.626L73.3869 159.175C72.3037 158.55 72.3037 157.536 73.3869 156.91L77.7386 154.399C78.8218 153.773 80.578 153.773 81.6611 154.399L92.7996 160.829L150.13 127.444C155.368 124.395 163.121 123.666 169.563 125.261ZM177.01 113.85C177.103 113.772 177.448 113.544 178.071 113.16C178.678 112.785 179.516 112.28 180.558 111.659C182.642 110.419 185.535 108.722 189.008 106.7C195.955 102.657 205.217 97.313 214.958 91.7112C234.44 80.5079 255.837 68.2748 264.454 63.3516C266.418 62.2292 269.578 62.2374 271.535 63.3669L397.24 135.937C397.633 136.163 397.954 136.424 398.195 136.707L309.796 187.827L309.779 187.839C304.546 191.547 301.34 196.436 300.125 201.73C299.621 200.075 298.701 198.91 297.539 198.155L297.529 198.149L295.899 197.207L295.91 197.171C295.86 197.155 295.81 197.142 295.76 197.128L175.057 127.415C173.707 126.636 172.192 126.009 170.578 125.535C170.905 122.034 171.966 119.575 173.205 117.772C174.395 116.039 175.753 114.901 176.824 114.005L177.01 113.85ZM85.2966 166.051L91.434 169.594C92.5172 170.219 94.2733 170.219 95.3565 169.594L99.7083 167.081C100.791 166.456 100.791 165.442 99.7083 164.817L93.5351 161.254L150.869 127.868C157.323 124.109 167.841 124.096 174.322 127.84L294.048 196.988C293.157 197.068 292.419 197.356 292.043 197.567L292.04 197.57L193.262 254.779C191.967 255.529 190.37 255.532 189.074 254.785L60.4896 180.865C60.7419 180.476 61.1345 180.12 61.6491 179.821L85.2966 166.051ZM288.992 237.624L292.53 239.668V236.786C292.53 236.338 291.601 236.113 291.056 236.429L288.992 237.624ZM293.637 240.34L293.666 240.324L293.606 240.289C293.581 240.241 293.567 240.191 293.567 240.137V236.786C293.567 235.8 291.526 235.304 290.325 236L193.784 291.92C191.824 293.056 188.657 293.052 186.705 291.912L47.3736 210.591C46.4339 210.042 45.9062 209.299 45.9062 208.523L45.9061 204.345C46.1241 204.535 46.3775 204.717 46.6661 204.885L186.042 286.217C188.399 287.591 192.217 287.596 194.583 286.227L294.372 228.498C294.604 228.363 294.907 228.327 295.177 228.365L295.833 228.766C295.841 228.796 295.845 228.825 295.845 228.856V232.716C295.845 233.712 297.923 234.204 299.112 233.488L316.516 223.022C317.611 222.363 318.224 221.482 318.224 220.565V215.116C318.851 215.048 319.451 214.872 319.937 214.589L413.716 160.016C413.961 159.873 414.181 159.722 414.376 159.562V164.21C414.376 164.994 413.837 165.744 412.88 166.295L324.696 216.939C323.537 217.604 322.886 218.515 322.89 219.465L322.912 223.321C322.916 224.11 322.374 224.867 321.408 225.419L295.037 240.497C294.581 240.759 293.863 240.644 293.637 240.34ZM293.642 228.069C293.839 227.955 294.059 227.873 294.287 227.82L288.506 224.276L195.818 278.165C193.413 279.563 189.498 279.569 187.081 278.179L60.9364 205.594C59.7746 204.926 59.1216 204.018 59.1216 203.071V193.378L47.3731 200.338C45.4413 201.483 45.4531 203.322 47.3998 204.457L186.776 285.789C188.728 286.928 191.892 286.932 193.853 285.798L293.642 228.069ZM289.314 223.775L296.262 228.034C296.337 228.074 296.406 228.115 296.469 228.161L296.547 228.208L296.542 228.217C296.753 228.392 296.882 228.608 296.882 228.856V232.716C296.882 233.169 297.827 233.392 298.368 233.067L315.771 222.601C316.186 222.352 316.516 222.066 316.753 221.754L302.638 213.589L302.674 213.528C302.466 213.419 302.264 213.297 302.072 213.158C301.095 212.454 300.322 211.338 299.906 209.701C298.096 217.138 293.541 221.033 289.314 223.775ZM317.187 220.565C317.187 220.709 317.169 220.852 317.132 220.992L305.267 214.129C305.969 214.129 306.651 214.015 307.267 213.825C307.634 213.713 307.936 213.558 308.191 213.411L310.67 211.992L315.338 214.613C315.863 214.908 316.514 215.08 317.187 215.133V220.565ZM304.815 213.507C304.468 213.471 304.112 213.393 303.761 213.257L303.064 212.854L303.042 212.891C303.01 212.87 302.98 212.85 302.948 212.828C302.927 212.814 302.905 212.798 302.884 212.782C301.623 211.874 300.609 210.021 300.609 206.685C300.608 199.645 303.934 192.938 310.57 188.229L398.582 137.333C398.668 137.546 398.712 137.764 398.712 137.986L398.745 159.493C398.746 160.267 398.211 161.01 397.258 161.556L307.458 212.986C307.229 213.117 307.012 213.224 306.778 213.295C306.14 213.491 305.465 213.571 304.815 213.507ZM311.411 211.567L316.058 214.177C316.939 214.673 318.338 214.665 319.204 214.161L412.983 159.588C413.736 159.15 414.2 158.606 414.376 158.038V157.25H414.435C414.335 156.61 413.873 155.985 413.05 155.487L399.767 147.455L399.785 159.493C399.786 160.427 399.141 161.324 397.99 161.983L311.411 211.567ZM60.1617 181.907C60.1617 181.825 60.1674 181.745 60.1787 181.665L188.65 255.523C189.332 255.914 190.081 256.134 190.84 256.183V278.598C189.735 278.523 188.665 278.242 187.816 277.753L61.6706 205.17C60.7047 204.614 60.1617 203.858 60.1617 203.071V181.907ZM195.079 277.743C194.139 278.288 192.923 278.579 191.689 278.614V256.165C192.382 256.092 193.064 255.875 193.687 255.515L292.461 198.307L292.463 198.306C292.952 198.03 294.309 197.566 295.661 197.983L295.677 197.929L296.771 198.56C298.745 199.849 300.13 202.692 299.233 207.893C297.724 216.646 292.602 220.806 288.054 223.686L195.079 277.743Z" fill="white"/>
</g>
</mask>
<g mask="url(#mask1_123_15283)">
<path fill-rule="evenodd" clip-rule="evenodd" d="M169.563 125.261C169.921 121.831 170.982 119.379 172.238 117.551C173.472 115.752 174.888 114.568 175.965 113.668L176.153 113.509C176.3 113.386 176.712 113.12 177.311 112.75C177.924 112.371 178.767 111.863 179.811 111.241C181.899 109.998 184.796 108.3 188.27 106.278C195.219 102.233 204.482 96.8878 214.223 91.2858C233.707 80.0819 255.105 67.8481 263.722 62.9248C266.095 61.5689 269.911 61.5803 272.27 62.9422L397.975 135.512C399.111 136.168 399.751 137.058 399.752 137.985L399.765 146.584L413.797 155.067C415.174 155.9 415.711 157.028 415.413 158.09V164.21C415.413 165.155 414.763 166.061 413.608 166.725L325.424 217.369C324.463 217.921 323.924 218.675 323.928 219.462L323.949 223.319C323.954 224.271 323.3 225.185 322.134 225.852L295.763 240.93C294.781 241.491 293.247 241.262 292.718 240.625L288.257 238.05L194.515 292.349C192.149 293.719 188.327 293.716 185.97 292.34L46.6398 211.018C45.5058 210.357 44.8688 209.459 44.8688 208.523L44.8687 202.623H44.9077C44.7981 201.653 45.373 200.661 46.6338 199.913L59.0987 192.529L59.1216 192.542V181.907C59.1216 180.967 59.7645 180.065 60.9104 179.397L84.561 165.626L73.3869 159.175C72.3037 158.55 72.3037 157.536 73.3869 156.91L77.7386 154.399C78.8218 153.773 80.578 153.773 81.6611 154.399L92.7996 160.829L150.13 127.444C155.368 124.395 163.121 123.666 169.563 125.261ZM177.01 113.85C177.103 113.772 177.448 113.544 178.071 113.16C178.678 112.785 179.516 112.28 180.558 111.659C182.642 110.419 185.535 108.722 189.008 106.7C195.955 102.657 205.217 97.313 214.958 91.7112C234.44 80.5079 255.837 68.2748 264.454 63.3516C266.418 62.2292 269.578 62.2374 271.535 63.3669L397.24 135.937C397.633 136.163 397.954 136.424 398.195 136.707L309.796 187.827L309.779 187.839C304.546 191.547 301.34 196.436 300.125 201.73C299.621 200.075 298.701 198.91 297.539 198.155L297.529 198.149L295.899 197.207L295.91 197.171C295.86 197.155 295.81 197.142 295.76 197.128L175.057 127.415C173.707 126.636 172.192 126.009 170.578 125.535C170.905 122.034 171.966 119.575 173.205 117.772C174.395 116.039 175.753 114.901 176.824 114.005L177.01 113.85ZM85.2966 166.051L91.434 169.594C92.5172 170.219 94.2733 170.219 95.3565 169.594L99.7083 167.081C100.791 166.456 100.791 165.442 99.7083 164.817L93.5351 161.254L150.869 127.868C157.323 124.109 167.841 124.096 174.322 127.84L294.048 196.988C293.157 197.068 292.419 197.356 292.043 197.567L292.04 197.57L193.262 254.779C191.967 255.529 190.37 255.532 189.074 254.785L60.4896 180.865C60.7419 180.476 61.1345 180.12 61.6491 179.821L85.2966 166.051ZM288.992 237.624L292.53 239.668V236.786C292.53 236.338 291.601 236.113 291.056 236.429L288.992 237.624ZM293.637 240.34L293.666 240.324L293.606 240.289C293.581 240.241 293.567 240.191 293.567 240.137V236.786C293.567 235.8 291.526 235.304 290.325 236L193.784 291.92C191.824 293.056 188.657 293.052 186.705 291.912L47.3736 210.591C46.4339 210.042 45.9062 209.299 45.9062 208.523L45.9061 204.345C46.1241 204.535 46.3775 204.717 46.6661 204.885L186.042 286.217C188.399 287.591 192.217 287.596 194.583 286.227L294.372 228.498C294.604 228.363 294.907 228.327 295.177 228.365L295.833 228.766C295.841 228.796 295.845 228.825 295.845 228.856V232.716C295.845 233.712 297.923 234.204 299.112 233.488L316.516 223.022C317.611 222.363 318.224 221.482 318.224 220.565V215.116C318.851 215.048 319.451 214.872 319.937 214.589L413.716 160.016C413.961 159.873 414.181 159.722 414.376 159.562V164.21C414.376 164.994 413.837 165.744 412.88 166.295L324.696 216.939C323.537 217.604 322.886 218.515 322.89 219.465L322.912 223.321C322.916 224.11 322.374 224.867 321.408 225.419L295.037 240.497C294.581 240.759 293.863 240.644 293.637 240.34ZM293.642 228.069C293.839 227.955 294.059 227.873 294.287 227.82L288.506 224.276L195.818 278.165C193.413 279.563 189.498 279.569 187.081 278.179L60.9364 205.594C59.7746 204.926 59.1216 204.018 59.1216 203.071V193.378L47.3731 200.338C45.4413 201.483 45.4531 203.322 47.3998 204.457L186.776 285.789C188.728 286.928 191.892 286.932 193.853 285.798L293.642 228.069ZM289.314 223.775L296.262 228.034C296.337 228.074 296.406 228.115 296.469 228.161L296.547 228.208L296.542 228.217C296.753 228.392 296.882 228.608 296.882 228.856V232.716C296.882 233.169 297.827 233.392 298.368 233.067L315.771 222.601C316.186 222.352 316.516 222.066 316.753 221.754L302.638 213.589L302.674 213.528C302.466 213.419 302.264 213.297 302.072 213.158C301.095 212.454 300.322 211.338 299.906 209.701C298.096 217.138 293.541 221.033 289.314 223.775ZM317.187 220.565C317.187 220.709 317.169 220.852 317.132 220.992L305.267 214.129C305.969 214.129 306.651 214.015 307.267 213.825C307.634 213.713 307.936 213.558 308.191 213.411L310.67 211.992L315.338 214.613C315.863 214.908 316.514 215.08 317.187 215.133V220.565ZM304.815 213.507C304.468 213.471 304.112 213.393 303.761 213.257L303.064 212.854L303.042 212.891C303.01 212.87 302.98 212.85 302.948 212.828C302.927 212.814 302.905 212.798 302.884 212.782C301.623 211.874 300.609 210.021 300.609 206.685C300.608 199.645 303.934 192.938 310.57 188.229L398.582 137.333C398.668 137.546 398.712 137.764 398.712 137.986L398.745 159.493C398.746 160.267 398.211 161.01 397.258 161.556L307.458 212.986C307.229 213.117 307.012 213.224 306.778 213.295C306.14 213.491 305.465 213.571 304.815 213.507ZM311.411 211.567L316.058 214.177C316.939 214.673 318.338 214.665 319.204 214.161L412.983 159.588C413.736 159.15 414.2 158.606 414.376 158.038V157.25H414.435C414.335 156.61 413.873 155.985 413.05 155.487L399.767 147.455L399.785 159.493C399.786 160.427 399.141 161.324 397.99 161.983L311.411 211.567ZM60.1617 181.907C60.1617 181.825 60.1674 181.745 60.1787 181.665L188.65 255.523C189.332 255.914 190.081 256.134 190.84 256.183V278.598C189.735 278.523 188.665 278.242 187.816 277.753L61.6706 205.17C60.7047 204.614 60.1617 203.858 60.1617 203.071V181.907ZM195.079 277.743C194.139 278.288 192.923 278.579 191.689 278.614V256.165C192.382 256.092 193.064 255.875 193.687 255.515L292.461 198.307L292.463 198.306C292.952 198.03 294.309 197.566 295.661 197.983L295.677 197.929L296.771 198.56C298.745 199.849 300.13 202.692 299.233 207.893C297.724 216.646 292.602 220.806 288.054 223.686L195.079 277.743Z" fill="#FDF7F7" stroke="#E89D9C" stroke-width="1.69844"/>
</g>
</g>
</g>
</g>
<defs>
<clipPath id="clip0_123_15283">
<rect width="339.688" height="249.104" fill="white" transform="translate(0.0634766 0.396851)"/>
</clipPath>
</defs>
</svg>
