<svg width="41" height="41" viewBox="0 0 41 41" fill="none" xmlns="http://www.w3.org/2000/svg">
<path d="M10.7699 8.2525C11.4207 8.90337 11.4207 9.95865 10.7699 10.6095C5.56119 15.8182 5.56119 24.2631 10.7699 29.4718C11.4207 30.1226 11.4207 31.1779 10.7699 31.8288C10.119 32.4797 9.06371 32.4797 8.41284 31.8288C1.90243 25.3184 1.90243 14.7629 8.41284 8.2525C9.06371 7.60162 10.119 7.60162 10.7699 8.2525ZM31.9891 8.2525C38.4996 14.7629 38.4996 25.3184 31.9891 31.8288C31.3383 32.4797 30.283 32.4797 29.6321 31.8288C28.9812 31.1779 28.9812 30.1226 29.6321 29.4718C34.8408 24.2631 34.8408 15.8182 29.6321 10.6095C28.9812 9.95865 28.9812 8.90337 29.6321 8.2525C30.283 7.60162 31.3383 7.60162 31.9891 8.2525ZM15.7143 13.0415C16.3652 13.6923 16.3652 14.7476 15.7143 15.3985C13.1627 17.9501 13.1627 22.0871 15.7143 24.6387C16.3652 25.2895 16.3652 26.3448 15.7143 26.9957C15.0634 27.6466 14.0081 27.6466 13.3573 26.9957C9.50391 23.1423 9.50391 16.8948 13.3573 13.0415C14.0081 12.3906 15.0634 12.3906 15.7143 13.0415ZM27.3115 13.0415C31.1648 16.8948 31.1648 23.1423 27.3115 26.9957C26.6606 27.6466 25.6053 27.6466 24.9545 26.9957C24.3036 26.3448 24.3036 25.2895 24.9545 24.6387C27.5061 22.0871 27.5061 17.9501 24.9545 15.3985C24.3036 14.7476 24.3036 13.6923 24.9545 13.0415C25.6053 12.3906 26.6606 12.3906 27.3115 13.0415ZM20.3344 17.6572C21.7151 17.6572 22.8344 18.7764 22.8344 20.1572C22.8344 21.5379 21.7151 22.6572 20.3344 22.6572C18.9537 22.6572 17.8344 21.5379 17.8344 20.1572C17.8344 18.7764 18.9537 17.6572 20.3344 17.6572Z" fill="url(#paint0_linear_123_16608)"/>
<defs>
<linearGradient id="paint0_linear_123_16608" x1="3.53003" y1="20.0406" x2="36.872" y2="20.0406" gradientUnits="userSpaceOnUse">
<stop stop-color="#8837E9"/>
<stop offset="1" stop-color="#373FD7"/>
</linearGradient>
</defs>
</svg>
