<svg width="108" height="40" viewBox="0 0 108 40" fill="none" xmlns="http://www.w3.org/2000/svg">
<g clip-path="url(#clip0_61_14524)">
<path d="M1.14176 18.0758C1.14176 18.0758 0.913408 18.1723 0.82558 17.8917C0.957322 17.6726 0.228352 15.709 7.20187 14.3853C14.6848 13.3158 18.3911 14.8586 18.2769 14.771C15.0526 13.6179 11.6021 13.2366 8.2031 13.6577C2.33622 14.4116 1.10663 15.5687 0.298615 17.1642C0.298615 17.1642 0.0526976 14.9112 0.0439148 14.5343C0.0966114 14.3502 1.49307 11.3259 9.26582 10.3791C6.38616 10.3293 3.54925 11.0789 1.0715 12.5444C1.0715 12.5444 0.88706 11.8343 2.0903 10.9577C4.65834 9.40907 7.59203 8.56813 10.592 8.52072C12.848 8.43331 15.101 8.7571 17.2406 9.47622C19.2079 10.1688 20.3848 11.1418 20.297 11.9658C20.2859 12.2155 20.2324 12.4615 20.1389 12.6934C20.1389 12.6934 21.3246 13.0178 21.1401 14.6833C20.9557 16.3489 21.0786 18.0145 20.2618 17.9531C20.1477 18.0495 19.1903 16.2963 10.6008 16.1999C2.06395 16.4892 1.25594 18.181 1.14176 18.0758Z" fill="#0C131C"/>
<path d="M3.66241 27.6134C3.62365 27.5703 3.58261 27.5294 3.53945 27.4907C3.47928 27.441 3.4146 27.3969 3.34623 27.3592C3.29576 27.3294 3.23798 27.3142 3.17936 27.3154C3.15543 27.3146 3.13195 27.322 3.11279 27.3364C3.09364 27.3507 3.07994 27.3711 3.07397 27.3943C3.01441 27.56 2.96743 27.7299 2.93344 27.9027C2.93344 27.9816 2.93344 28.0517 2.88953 28.1306C2.77535 27.3592 2.66118 26.5702 2.55579 25.79C2.17813 23.0901 1.85316 20.3813 1.5809 17.8041C1.5809 17.5411 1.5282 17.2869 1.51064 17.0326L2.33622 16.8486C2.33622 17.0414 2.33622 17.2343 2.3977 17.4184C2.45917 17.6025 2.39769 17.7515 2.44161 17.918L2.52065 18.6544C2.77535 20.9774 3.07397 23.3881 3.39893 25.7725L3.66241 27.6134Z" fill="#0C131C"/>
<path d="M4.07521 30.3397L4.01373 30.5238C3.98945 30.5988 3.95391 30.6698 3.90833 30.7342C3.87998 30.7804 3.8444 30.8219 3.80294 30.8569C3.78265 30.8676 3.76004 30.8733 3.73707 30.8733C3.7141 30.8733 3.69148 30.8676 3.6712 30.8569C3.62973 30.8317 3.59364 30.7986 3.56501 30.7595C3.53637 30.7204 3.51575 30.6761 3.50433 30.629C3.46792 30.4855 3.4473 30.3386 3.44285 30.1907C3.43021 30.0009 3.43021 29.8106 3.44285 29.6209C3.44285 29.4105 3.48676 29.2089 3.52189 29.0072C3.55702 28.8056 3.60972 28.6215 3.66241 28.4374C3.71511 28.2533 3.70633 28.2796 3.73268 28.2183C3.85564 28.9371 3.96981 29.6384 4.07521 30.3397Z" fill="#0C131C"/>
<path d="M17.0298 31.2952V31.3478C17.0256 31.3129 17.0256 31.2775 17.0298 31.2426L17.1173 31.1725L17.0298 31.2952Z" fill="#0C131C"/>
<path d="M17.829 31.3127C17.6621 32.3471 17.4953 33.3552 17.3284 34.3458C16.9859 36.2831 16.6346 38.1153 16.2745 39.7896C12.4206 40.2631 8.51044 39.9408 4.78661 38.8429C4.42652 37.2124 4.0752 35.4328 3.74146 33.5832C3.60093 32.7591 3.45163 31.9088 3.3111 31.041C3.39813 31.1199 3.50984 31.1664 3.62728 31.1725C3.68454 31.1802 3.74281 31.1748 3.79763 31.1566C3.85244 31.1383 3.90234 31.1078 3.94346 31.0673C4.00794 31.0002 4.0613 30.9232 4.10155 30.8394C4.26842 31.8825 4.4353 32.8994 4.61095 33.8812L4.76904 34.7578C4.98861 35.9851 5.21696 37.1598 5.44532 38.2643C8.70921 39.3304 12.1808 39.6038 15.5718 39.062C15.7914 37.9925 16.011 36.8617 16.2218 35.6783C16.292 35.3189 16.3535 34.9507 16.415 34.5825C16.5497 33.8111 16.6814 33.0221 16.8102 32.2156L16.9771 32.0316L17.3284 31.5845C17.5048 31.5127 17.6727 31.4215 17.829 31.3127Z" fill="#0C131C"/>
<path d="M17.9608 30.6377L17.9081 30.9796C17.828 31.0421 17.7428 31.0978 17.6534 31.1462L17.8202 30.8832L17.9608 30.6377Z" fill="#0C131C"/>
<path d="M18.1101 29.6384V29.9014C18.0574 29.8595 17.9929 29.835 17.9256 29.8313C17.8641 29.8313 17.8115 29.8751 17.7763 29.9627L17.7148 30.0855C17.7148 30.1468 17.6446 30.2257 17.5919 30.3134L17.425 30.5851C17.3547 30.6728 17.2933 30.7605 17.223 30.8394L17.1264 30.9446L17.2581 30.0679C17.3262 29.9972 17.4029 29.9354 17.4865 29.8838C17.6227 29.7814 17.7779 29.7069 17.9432 29.6647C17.9975 29.6488 18.0535 29.64 18.1101 29.6384Z" fill="#0C131C"/>
<path d="M19.6734 16.8398L19.5943 17.5849C19.3309 20.3901 18.9883 23.3092 18.6019 26.2021C18.4614 27.2452 18.3121 28.2796 18.1628 29.2965C18.0722 29.2879 17.981 29.2879 17.8905 29.2965C17.6879 29.3037 17.4884 29.3483 17.302 29.428C17.4689 28.3498 17.6182 27.2452 17.7675 26.1407C18.1101 23.5722 18.4262 20.9687 18.6458 18.4352C18.6897 18.0408 18.7249 17.6551 18.76 17.2693C18.76 17.0765 18.76 16.8836 18.8215 16.6995L19.6734 16.8398Z" fill="#0C131C"/>
<path d="M1.96734 18.0232C2.28352 17.9443 2.60848 17.883 2.95101 17.8304C3.29354 17.7778 3.63607 17.7164 3.99616 17.6726C4.73912 17.5828 5.48863 17.5593 6.23577 17.6025C5.49663 17.706 4.76787 17.8731 4.05764 18.1021C3.71511 18.2073 3.39015 18.3213 3.07397 18.444C2.75779 18.5667 2.44161 18.6807 2.19569 18.8034C2.0903 18.5404 2.02882 18.2862 1.96734 18.0232Z" fill="#0C131C"/>
<path d="M19.085 18.5667C18.5404 18.3739 17.9344 18.181 17.3284 18.0057C16.7224 17.8304 16.0198 17.655 15.3259 17.5148C14.6321 17.3745 13.9119 17.2343 13.1742 17.1379C12.4255 17.0408 11.6718 16.9881 10.917 16.9801C11.6708 16.8737 12.4305 16.8152 13.1917 16.8047C13.9383 16.8047 14.676 16.8047 15.3962 16.8573C16.1164 16.9099 16.8014 16.9713 17.4601 17.0589C18.1188 17.1466 18.7424 17.243 19.3309 17.3658C19.2343 17.7602 19.164 18.1635 19.085 18.5667Z" fill="#0C131C"/>
<path d="M16.7312 35.5117L16.5292 35.5819L16.3447 35.6344L15.9934 35.7221C15.7534 35.7747 15.5162 35.8185 15.282 35.8536C14.8135 35.9235 14.3414 35.9674 13.868 35.9851C13.3937 35.9851 12.9282 35.9851 12.454 35.9851L11.7426 35.9325L11.0312 35.8536L11.7426 35.8098L12.4452 35.7309C12.9195 35.6695 13.3849 35.5819 13.8416 35.4767C14.3056 35.3719 14.7631 35.2402 15.2118 35.0822C15.4401 35.0033 15.6597 34.9244 15.8792 34.828L16.1954 34.6877L16.3535 34.6088C16.3997 34.5864 16.4437 34.56 16.4853 34.5299C16.5643 34.8981 16.6521 35.1874 16.7312 35.5117Z" fill="#0C131C"/>
<path d="M4.4353 33.7234C4.68122 33.8812 4.9447 34.0302 5.20818 34.1705C5.47166 34.3108 5.72636 34.4598 5.98985 34.5913C6.51164 34.8571 7.05168 35.0856 7.60588 35.275C7.05034 35.2325 6.49855 35.1505 5.95472 35.0296L5.12914 34.828L4.31234 34.5825C4.35625 34.2932 4.35625 34.0215 4.4353 33.7234Z" fill="#0C131C"/>
<path d="M15.6772 5.81197C15.6772 6.46067 15.7299 7.12689 15.7475 7.81066C15.7498 7.83972 15.7451 7.86889 15.7338 7.89579C15.7225 7.92269 15.705 7.94655 15.6827 7.96538C15.6605 7.98421 15.634 7.99749 15.6056 8.00411C15.5771 8.01074 15.5475 8.01054 15.5191 8.00351C14.8165 7.93338 14.1051 7.88077 13.3762 7.85448C12.9019 8.27525 12.4276 8.7311 11.9446 9.15188L11.6547 8.88889C12.1378 8.43305 12.6121 8.01227 13.0863 7.58273C13.0863 6.93403 13.0863 6.29411 13.0424 5.67171L12.3047 5.03177C11.2683 5.03177 10.2144 5.08437 9.17799 5.17203C9.15065 5.17846 9.12223 5.17886 9.09471 5.17321C9.06719 5.16755 9.04124 5.15598 9.01867 5.13929C8.99609 5.1226 8.97744 5.10119 8.964 5.07657C8.95056 5.05194 8.94266 5.02469 8.94086 4.99671C8.94086 4.1201 8.94086 3.28731 8.98477 2.50713L8.57198 2.21784L7.28091 2.39316C7.14917 2.39316 7.05256 2.39316 7.06135 2.2529L7.11404 1.25356C7.11404 1.1659 7.21943 1.07823 7.35118 1.0607C7.78153 0.999337 8.22945 0.937985 8.65103 0.894155C8.77398 0.894155 8.87938 0.894149 8.87059 1.02564V1.98115L9.29217 2.26167C10.2846 2.16525 11.2771 2.11265 12.2695 2.09511C12.3007 2.09015 12.3326 2.09146 12.3632 2.09895C12.3939 2.10645 12.4228 2.11998 12.4481 2.13876C12.4735 2.15754 12.4949 2.18119 12.5109 2.20832C12.527 2.23544 12.5375 2.2655 12.5418 2.29673C12.5418 3.08569 12.5857 3.91848 12.6121 4.79509L13.341 5.43502C14.0612 5.43502 14.7726 5.50515 15.4665 5.57528C15.522 5.5878 15.5721 5.61735 15.61 5.65981C15.6478 5.70226 15.6713 5.75548 15.6772 5.81197Z" fill="#0C131C"/>
<path d="M8.38754 5.62787C7.86936 5.68924 7.35118 5.75937 6.84178 5.83827C6.7813 5.84883 6.72574 5.87829 6.68312 5.9224C6.64051 5.96652 6.61302 6.02301 6.60464 6.08372C6.60464 6.53079 6.60464 6.96033 6.60464 7.4337C6.6052 7.46244 6.61218 7.49069 6.62508 7.51639C6.63798 7.54209 6.65647 7.56458 6.6792 7.58223C6.70193 7.59987 6.72833 7.61222 6.75645 7.61837C6.78458 7.62453 6.81373 7.62433 6.84178 7.6178C7.35118 7.5389 7.86936 7.46876 8.39633 7.41616C8.45822 7.41065 8.51637 7.38417 8.56111 7.34111C8.60584 7.29806 8.63447 7.24103 8.64224 7.17949C8.64224 6.71488 8.64224 6.30287 8.64224 5.81197C8.62468 5.69801 8.51928 5.61911 8.38754 5.62787Z" fill="#0C131C"/>
<path d="M9.76644 0.710058H10.311C10.4339 0.710058 10.5393 0.622399 10.5393 0.534737V0.149024C10.5393 0.0701285 10.4339 0.00876399 10.311 0.0175301H9.77522C9.65226 0.0175301 9.54687 0.105196 9.54687 0.192857C9.54687 0.280519 9.54687 0.44707 9.54687 0.569796C9.54687 0.692522 9.62591 0.753889 9.76644 0.710058Z" fill="#0C131C"/>
<path d="M15.3698 3.27854H14.8956C14.8686 3.27331 14.8408 3.27418 14.8142 3.28105C14.7876 3.28793 14.7628 3.30066 14.7418 3.31831C14.7207 3.33595 14.7039 3.35806 14.6925 3.38303C14.6811 3.40801 14.6755 3.4352 14.676 3.46263C14.676 3.59413 14.676 3.73439 14.676 3.86588C14.684 3.92415 14.712 3.97783 14.7553 4.0178C14.7985 4.05776 14.8543 4.08153 14.9131 4.08504L15.3874 4.12886C15.5191 4.12886 15.6158 4.05874 15.607 3.94478C15.5982 3.83082 15.607 3.67302 15.607 3.53277C15.6052 3.46886 15.5801 3.4078 15.5364 3.36102C15.4928 3.31423 15.4336 3.28491 15.3698 3.27854Z" fill="#0C131C"/>
<path d="M16.898 4.45322C16.6228 4.40647 16.3506 4.37139 16.0812 4.34801C16.0552 4.34082 16.0279 4.34003 16.0015 4.3457C15.9752 4.35137 15.9506 4.36334 15.9298 4.38057C15.9091 4.39781 15.8929 4.41981 15.8825 4.44467C15.8722 4.46954 15.8681 4.49653 15.8705 4.52335C15.8705 4.7688 15.8705 5.02301 15.8705 5.26846C15.8726 5.33054 15.8983 5.3895 15.9423 5.43342C15.9863 5.47734 16.0454 5.50297 16.1076 5.50515L16.9156 5.61912C16.9416 5.62631 16.969 5.6271 16.9953 5.62143C17.0217 5.61576 17.0463 5.6038 17.067 5.58656C17.0877 5.56933 17.104 5.54733 17.1143 5.52246C17.1246 5.4976 17.1288 5.4706 17.1264 5.44379C17.1264 5.18957 17.1264 4.93535 17.1264 4.68989C17.1209 4.63043 17.0953 4.57459 17.0538 4.53158C17.0123 4.48856 16.9574 4.46093 16.898 4.45322Z" fill="#0C131C"/>
<path d="M6.29725 5.45255C6.29725 5.13697 6.29725 4.82138 6.34116 4.51457C6.34116 4.40937 6.24455 4.33924 6.11281 4.36554L5.03253 4.5847C4.97407 4.5996 4.92092 4.63046 4.87904 4.67381C4.83716 4.71716 4.80819 4.7713 4.79539 4.83015C4.79539 5.13696 4.79539 5.45255 4.75148 5.76813C4.75148 5.88209 4.84809 5.94346 4.97105 5.91716L6.06011 5.698C6.12116 5.68877 6.17747 5.65973 6.22033 5.61537C6.26319 5.571 6.29022 5.51378 6.29725 5.45255Z" fill="#0C131C"/>
<path d="M19.7876 26.8157C19.4714 29.0511 19.1113 31.304 18.7161 33.4692C18.6935 33.59 18.6417 33.7035 18.5652 33.7997C18.4886 33.896 18.3897 33.9721 18.2769 34.0215C18.0574 34.1004 17.75 34.2143 17.3547 34.3283L16.4765 34.5562C14.5601 35.0355 12.5819 35.2217 10.6096 35.1085C8.61557 34.9628 6.65069 34.547 4.76904 33.8725L4.53191 33.7848C4.29477 33.7059 4.0752 33.6182 3.8732 33.5393C3.44285 33.3728 3.10032 33.2238 2.86318 33.1098C2.75161 33.0541 2.65413 32.9739 2.57808 32.8752C2.50202 32.7765 2.44935 32.6619 2.42404 32.54C2.0376 30.4887 1.69507 28.3673 1.37889 26.2722C1.37889 26.0267 1.45794 25.8339 1.65994 25.8251H2.66118H3.53946C5.06766 25.8251 7.44779 25.8251 10.6974 25.8777C13.947 25.9303 16.3886 26.0706 17.8993 26.1845L18.7775 26.2547C19.1991 26.2547 19.4977 26.3336 19.6558 26.3686C19.8139 26.4037 19.8315 26.5527 19.7876 26.8157Z" fill="#0C131C"/>
<path d="M29.3487 24.8772L29.0764 24.7457C27.6185 24.0795 26.8807 23.3606 26.8807 22.6067C26.8695 22.3948 26.9063 22.183 26.9884 21.9872C27.0706 21.7915 27.1959 21.6167 27.355 21.4759C27.7246 21.1728 28.1948 21.0195 28.6724 21.0464C29.036 21.0426 29.394 21.1365 29.7088 21.3181C30.0674 21.5363 30.3685 21.8368 30.5871 22.1947L30.6486 22.2824L32.449 21.3707V21.2743C32.1965 20.5565 31.6907 19.955 31.0262 19.5824C30.2478 19.1733 29.376 18.9739 28.4968 19.0039C27.4086 18.9577 26.3437 19.3277 25.5194 20.0383C25.1418 20.3824 24.844 20.8046 24.6468 21.2755C24.4496 21.7464 24.3577 22.2545 24.3777 22.7645C24.3569 23.562 24.6251 24.3401 25.133 24.9561C25.9949 25.7978 27.0079 26.4699 28.1191 26.9372C28.2157 26.9372 28.3475 27.0424 28.5319 27.1301C29.7878 27.7262 30.4202 28.3924 30.4202 29.1288C30.4327 29.3789 30.3913 29.6288 30.2989 29.8617C30.2065 30.0946 30.0652 30.305 29.8845 30.4788C29.4851 30.8343 28.9608 31.0171 28.4265 30.9872C27.8541 31.0116 27.2886 30.8551 26.8105 30.5401C26.3761 30.2221 26.0657 29.7636 25.9322 29.2427V29.1112L24 29.9879V30.0755C24.1876 31.0003 24.7137 31.8223 25.4755 32.381C26.3196 32.9471 27.3226 33.2297 28.3387 33.1875C29.547 33.2467 30.7311 32.8349 31.641 32.0391C32.0537 31.6414 32.3768 31.1605 32.5888 30.6285C32.8008 30.0964 32.8969 29.5254 32.8706 28.9534C32.8945 28.138 32.6232 27.3413 32.1065 26.7093C31.3226 25.9166 30.3839 25.293 29.3487 24.8772Z" fill="#0C131C"/>
<path d="M38.0206 19.6537H35.6229V33.1975H38.0206V19.6537Z" fill="#0C131C"/>
<path d="M41.2296 20V22.0688H46.8066L40 33.5525H50.5305V31.3872H43.7942L50.5305 20H41.2296Z" fill="#0C131C"/>
<path d="M52.7932 33.2062H60.4606V31.041H55.1821V27.4381H59.7931V25.3079H55.1821V21.7226H60.4606V19.6537H52.7932V33.2062Z" fill="#0C131C"/>
<path d="M71.1053 27.5608C71.1053 27.6397 71.0087 27.7624 70.9384 27.9202C70.7276 28.3761 70.5607 28.7705 70.4378 29.1037C70.306 28.7705 70.1919 28.4813 70.0865 28.227C69.9811 27.9728 69.8757 27.6923 69.8142 27.552L65.7302 18.8472L62.4718 33.1887H64.7026L66.1518 26.5439C66.23 26.2234 66.2887 25.8985 66.3275 25.5709C66.3275 25.4745 66.3275 25.378 66.3275 25.2816C66.3275 25.3693 66.3977 25.4569 66.4241 25.5446C66.5382 25.8251 66.6612 26.1232 66.8105 26.4212L70.4027 33.8725L73.9948 26.5702C74.143 26.2629 74.2721 25.9467 74.3813 25.6235C74.3813 25.5183 74.4515 25.4131 74.4779 25.3079C74.4779 25.4131 74.4779 25.5358 74.4779 25.6586C74.5306 26.1319 74.5745 26.4212 74.6008 26.5352L76.0939 33.1975H78.3423L75.0048 18.856L71.1053 27.5608Z" fill="#0C131C"/>
<path d="M88.864 27.8852C88.9353 28.832 88.6469 29.7709 88.056 30.515C87.3797 31.0753 86.5285 31.382 85.6495 31.382C84.7706 31.382 83.9194 31.0753 83.2431 30.515C82.6522 29.7709 82.3637 28.832 82.435 27.8852V19.68H80.0725V28.0868C80.0164 28.8326 80.1103 29.582 80.3486 30.2911C80.5869 31.0002 80.9648 31.6545 81.4602 32.2156C82.6776 33.1073 84.1483 33.588 85.6583 33.588C87.1684 33.588 88.639 33.1073 89.8565 32.2156C90.3553 31.6582 90.736 31.0058 90.976 30.2978C91.216 29.5899 91.3102 28.8408 91.2529 28.0956V19.6888H88.864V27.8852Z" fill="#0C131C"/>
<path d="M107.053 26.6404C107.053 26.4826 107.053 26.3511 107.053 26.2634V26.1319H101.538V28.1832H104.743V28.2709C104.761 28.7021 104.678 29.1315 104.501 29.5254C104.324 29.9193 104.058 30.267 103.724 30.5413C102.893 31.1372 101.883 31.4311 100.861 31.3741C100.213 31.4034 99.5648 31.2968 98.9598 31.0613C98.3548 30.8258 97.8058 30.4665 97.3482 30.0066C96.8975 29.5276 96.5466 28.9639 96.3159 28.3484C96.0853 27.733 95.9794 27.0779 96.0044 26.4212C95.9836 25.7769 96.0917 25.135 96.3224 24.5329C96.5532 23.9308 96.9019 23.3807 97.3482 22.9148C97.8021 22.4659 98.3433 22.1146 98.9385 21.8824C99.5336 21.6503 100.17 21.5421 100.809 21.5648C101.446 21.5546 102.077 21.6801 102.662 21.9329C103.234 22.2002 103.74 22.5892 104.146 23.0725L104.216 23.1514L105.973 21.819L105.894 21.7313C105.279 20.9888 104.509 20.3902 103.637 19.9781C102.732 19.5808 101.753 19.3834 100.765 19.3995C99.7929 19.393 98.8282 19.5653 97.9191 19.908C97.0504 20.2394 96.2583 20.7437 95.5909 21.3902C94.9236 22.0367 94.3949 22.8119 94.0371 23.6686C93.6831 24.5706 93.5042 25.5315 93.5101 26.5001C93.5047 27.4651 93.6804 28.4225 94.0283 29.3228C94.3571 30.1839 94.8593 30.9686 95.5038 31.6283C96.1517 32.2816 96.9338 32.787 97.7961 33.1098C98.7484 33.4487 99.7538 33.6149 100.765 33.6007C102.457 33.7025 104.121 33.1321 105.393 32.014C105.962 31.4258 106.402 30.7264 106.686 29.96C106.97 29.1936 107.092 28.3767 107.044 27.5608C107.115 27.368 107.115 27.0787 107.053 26.6404Z" fill="#0C131C"/>
</g>
<defs>
<clipPath id="clip0_61_14524">
<rect width="107.071" height="40" fill="white"/>
</clipPath>
</defs>
</svg>
