<svg width="41" height="41" viewBox="0 0 41 41" fill="none" xmlns="http://www.w3.org/2000/svg">
<path opacity="0.2" d="M33.7008 33.9587C36.0783 32.6624 37.5067 31.0002 37.5067 29.188C37.5067 27.2672 35.902 25.5149 33.2628 24.188C30.211 22.6537 25.7762 21.688 20.84 21.688C15.9039 21.688 11.469 22.6537 8.41719 24.188C5.77809 25.5149 4.17334 27.2672 4.17334 29.188C4.17334 31.1089 5.77809 32.8612 8.41719 34.188C11.469 35.7224 15.9039 36.688 20.84 36.688C26.0177 36.688 30.6438 35.6255 33.7008 33.9587Z" fill="#1C64F2"/>
<path fill-rule="evenodd" clip-rule="evenodd" d="M16.2563 6.68801C16.2563 4.15671 18.3083 2.10468 20.8397 2.10468C23.371 2.10468 25.423 4.15671 25.423 6.68801C25.423 9.21931 23.371 11.2713 20.8397 11.2713C18.3083 11.2713 16.2563 9.21931 16.2563 6.68801Z" fill="#1C64F2"/>
<path d="M14.5452 19.3115L10.9197 18.103C9.87677 17.7553 9.17334 16.7793 9.17334 15.6801C9.17334 14.0542 10.6726 12.8422 12.2624 13.1829L15.425 13.8606C15.6009 13.8982 15.6888 13.9171 15.776 13.9351C19.1167 14.6261 22.5633 14.6261 25.904 13.9351C25.9912 13.9171 26.0792 13.8982 26.255 13.8606L29.4175 13.1828C31.0075 12.8422 32.5067 14.0542 32.5067 15.6801C32.5067 16.7793 31.8032 17.7553 30.7603 18.103L27.1348 19.3115C26.6967 19.4575 26.4777 19.5305 26.3128 19.6323C25.7518 19.9785 25.4477 20.623 25.537 21.2764C25.5633 21.4682 25.6462 21.6837 25.812 22.1147L27.89 27.5175C28.5085 29.1257 27.3213 30.8542 25.5982 30.8542C24.7172 30.8542 23.9035 30.3822 23.4663 29.617L20.84 25.0208L18.2137 29.617C17.7765 30.3822 16.9629 30.8542 16.0818 30.8542C14.3586 30.8542 13.1715 29.1257 13.7901 27.5175L15.868 22.1147C16.0338 21.6837 16.1167 21.4682 16.143 21.2764C16.2323 20.623 15.9281 19.9785 15.3671 19.6323C15.2024 19.5305 14.9833 19.4575 14.5452 19.3115Z" fill="#1C64F2"/>
</svg>
