<svg width="41" height="41" viewBox="0 0 41 41" fill="none" xmlns="http://www.w3.org/2000/svg">
<path fill-rule="evenodd" clip-rule="evenodd" d="M15.9811 6.61722C15.9811 5.97673 15.4751 5.45752 14.851 5.45752C14.2268 5.45752 13.7208 5.97673 13.7208 6.61722V7.83921C10.4989 9.43639 8.09075 12.4562 7.25268 16.1224C6.53133 19.2781 6.53133 22.5623 7.25268 25.7179C8.29439 30.2751 11.762 33.8334 16.2029 34.9024C19.2781 35.6426 22.4785 35.6426 25.5537 34.9024C29.9947 33.8334 33.4623 30.2751 34.504 25.7179C35.2253 22.5623 35.2253 19.2781 34.504 16.1225C33.6659 12.4562 31.2578 9.43639 28.0358 7.8392V6.61722C28.0358 5.97673 27.5298 5.45752 26.9057 5.45752C26.2815 5.45752 25.7756 5.97673 25.7756 6.61722V6.99367C25.7019 6.97443 25.628 6.95587 25.5537 6.938C22.4785 6.19779 19.2781 6.19779 16.2029 6.938C16.1287 6.95587 16.0548 6.97443 15.9811 6.99368V6.61722ZM15.4537 20.9202C15.4537 20.4078 15.8585 19.9924 16.3578 19.9924H25.3988C25.8981 19.9924 26.3029 20.4078 26.3029 20.9202C26.3029 21.4326 25.8981 21.8479 25.3988 21.8479H16.3578C15.8585 21.8479 15.4537 21.4326 15.4537 20.9202ZM15.4537 25.559C15.4537 25.0466 15.8585 24.6312 16.3578 24.6312H20.8783C21.3776 24.6312 21.7824 25.0466 21.7824 25.559C21.7824 26.0714 21.3776 26.4867 20.8783 26.4867H16.3578C15.8585 26.4867 15.4537 26.0714 15.4537 25.559Z" fill="url(#paint0_linear_123_16563)"/>
<defs>
<linearGradient id="paint0_linear_123_16563" x1="6.71167" y1="29.9075" x2="35.795" y2="14.5257" gradientUnits="userSpaceOnUse">
<stop stop-color="#4D4BFE"/>
<stop offset="1" stop-color="#992DF2"/>
</linearGradient>
</defs>
</svg>
