<svg width="41" height="41" viewBox="0 0 41 41" fill="none" xmlns="http://www.w3.org/2000/svg">
<path fill-rule="evenodd" clip-rule="evenodd" d="M25.8287 5.70662C22.5726 4.94284 19.184 4.94285 15.9279 5.70662C11.2257 6.80961 7.55412 10.4811 6.45113 15.1834C5.68735 18.4395 5.68735 21.8281 6.45113 25.0842C7.55412 29.7864 11.2257 33.458 15.9279 34.561C19.184 35.3247 22.5726 35.3247 25.8287 34.561C30.5309 33.458 34.2025 29.7864 35.3055 25.0842C36.0692 21.8281 36.0692 18.4395 35.3055 15.1834C34.2025 10.4811 30.5309 6.80961 25.8287 5.70662ZM15.1346 15.3473C15.1346 14.8186 15.5632 14.39 16.0919 14.39H22.4738C23.0025 14.39 23.4311 14.8186 23.4311 15.3473C23.4311 15.876 23.0025 16.3046 22.4738 16.3046H16.0919C15.5632 16.3046 15.1346 15.876 15.1346 15.3473ZM15.1346 20.1337C15.1346 19.6051 15.5632 19.1765 16.0919 19.1765H25.6647C26.1934 19.1765 26.622 19.6051 26.622 20.1337C26.622 20.6624 26.1934 21.091 25.6647 21.091H16.0919C15.5632 21.091 15.1346 20.6624 15.1346 20.1337ZM15.1346 24.9202C15.1346 24.3915 15.5632 23.9629 16.0919 23.9629H20.8783C21.407 23.9629 21.8356 24.3915 21.8356 24.9202C21.8356 25.4489 21.407 25.8775 20.8783 25.8775H16.0919C15.5632 25.8775 15.1346 25.4489 15.1346 24.9202Z" fill="#45E1AF"/>
</svg>
