<svg width="341" height="250" viewBox="0 0 341 250" fill="none" xmlns="http://www.w3.org/2000/svg">
<g clip-path="url(#clip0_123_15453)">
<mask id="mask0_123_15453" style="mask-type:luminance" maskUnits="userSpaceOnUse" x="0" y="0" width="341" height="250">
<path d="M340.309 0.0301514H0.621887V249.134H340.309V0.0301514Z" fill="white"/>
</mask>
<g mask="url(#mask0_123_15453)">
<path d="M112.008 236.895C111.72 236.73 111.467 236.551 111.249 236.362L111.249 241.367C111.249 242.137 111.779 242.875 112.722 243.42L236.142 314.67C238.105 315.804 241.288 315.804 243.252 314.67L342.954 257.116L430.47 206.234C430.684 205.909 430.796 205.56 430.796 205.206V199.662C430.589 199.837 430.35 200.004 430.081 200.159L243.517 307.863C241.148 309.231 237.306 309.231 234.936 307.863L112.008 236.895Z" fill="#FDFAF2"/>
<path d="M112.744 232.367C110.78 233.501 110.78 235.339 112.744 236.471L235.672 307.438C237.635 308.572 240.818 308.572 242.782 307.438L429.345 199.735C431.308 198.601 431.308 196.764 429.345 195.63L306.416 124.664C304.453 123.53 301.27 123.53 299.307 124.664L112.744 232.367Z" fill="#FDFAF2"/>
<g opacity="0.5">
<path d="M301.135 129.354C301.57 129.102 301.57 128.696 301.135 128.445C300.7 128.194 299.996 128.194 299.561 128.445C299.128 128.696 299.128 129.102 299.561 129.354C299.996 129.604 300.7 129.604 301.135 129.354Z" fill="#EAC653"/>
<path d="M289.071 135.41C289.505 135.661 289.505 136.067 289.071 136.318C288.637 136.57 287.932 136.57 287.498 136.318C287.063 136.067 287.063 135.661 287.498 135.41C287.932 135.159 288.637 135.159 289.071 135.41Z" fill="#EAC653"/>
<path d="M277.006 143.283C277.441 143.033 277.441 142.626 277.006 142.375C276.571 142.124 275.867 142.124 275.432 142.375C274.998 142.626 274.998 143.033 275.432 143.283C275.867 143.535 276.571 143.535 277.006 143.283Z" fill="#EAC653"/>
<path d="M264.942 149.34C265.376 149.59 265.376 149.998 264.942 150.248C264.508 150.499 263.802 150.499 263.369 150.248C262.934 149.998 262.934 149.59 263.369 149.34C263.802 149.088 264.508 149.088 264.942 149.34Z" fill="#EAC653"/>
<path d="M252.878 157.214C253.312 156.962 253.312 156.556 252.878 156.305C252.443 156.054 251.739 156.054 251.304 156.305C250.869 156.556 250.869 156.962 251.304 157.214C251.739 157.464 252.443 157.464 252.878 157.214Z" fill="#EAC653"/>
<path d="M240.812 163.269C241.247 163.521 241.247 163.927 240.812 164.177C240.379 164.429 239.673 164.429 239.24 164.177C238.805 163.927 238.805 163.521 239.24 163.269C239.673 163.019 240.379 163.019 240.812 163.269Z" fill="#EAC653"/>
<path d="M228.749 171.142C229.183 170.892 229.183 170.485 228.749 170.234C228.314 169.983 227.61 169.983 227.175 170.234C226.74 170.485 226.74 170.892 227.175 171.142C227.61 171.394 228.314 171.394 228.749 171.142Z" fill="#EAC653"/>
<path d="M216.683 177.199C217.118 177.45 217.118 177.857 216.683 178.108C216.248 178.358 215.544 178.358 215.109 178.108C214.676 177.857 214.676 177.45 215.109 177.199C215.544 176.948 216.248 176.948 216.683 177.199Z" fill="#EAC653"/>
<path d="M204.619 185.073C205.053 184.821 205.053 184.415 204.619 184.163C204.185 183.913 203.479 183.913 203.046 184.163C202.611 184.415 202.611 184.821 203.046 185.073C203.479 185.323 204.185 185.323 204.619 185.073Z" fill="#EAC653"/>
<path d="M192.555 191.129C192.989 191.38 192.989 191.786 192.555 192.037C192.12 192.289 191.416 192.289 190.981 192.037C190.546 191.786 190.546 191.38 190.981 191.129C191.416 190.878 192.12 190.878 192.555 191.129Z" fill="#EAC653"/>
<path d="M180.489 199.002C180.924 198.751 180.924 198.344 180.489 198.094C180.056 197.843 179.35 197.843 178.917 198.094C178.482 198.344 178.482 198.751 178.917 199.002C179.35 199.252 180.056 199.252 180.489 199.002Z" fill="#EAC653"/>
<path d="M168.426 205.059C168.86 205.309 168.86 205.717 168.426 205.967C167.991 206.218 167.287 206.218 166.852 205.967C166.418 205.717 166.418 205.309 166.852 205.059C167.287 204.807 167.991 204.807 168.426 205.059Z" fill="#EAC653"/>
<path d="M156.362 212.932C156.796 212.681 156.796 212.274 156.362 212.023C155.927 211.772 155.223 211.772 154.788 212.023C154.353 212.274 154.353 212.681 154.788 212.932C155.223 213.183 155.927 213.183 156.362 212.932Z" fill="#EAC653"/>
<path d="M144.297 218.988C144.732 219.24 144.732 219.646 144.297 219.896C143.862 220.148 143.158 220.148 142.723 219.896C142.288 219.646 142.288 219.24 142.723 218.988C143.158 218.738 143.862 218.738 144.297 218.988Z" fill="#EAC653"/>
<path d="M132.232 226.861C132.667 226.611 132.667 226.204 132.232 225.953C131.798 225.702 131.093 225.702 130.658 225.953C130.224 226.204 130.224 226.611 130.658 226.861C131.093 227.112 131.798 227.112 132.232 226.861Z" fill="#EAC653"/>
<path d="M120.168 233.827C120.603 233.576 120.603 233.169 120.168 232.918C119.733 232.667 119.029 232.667 118.594 232.918C118.159 233.169 118.159 233.576 118.594 233.827C119.029 234.077 119.733 234.077 120.168 233.827Z" fill="#EAC653"/>
<path d="M132.232 239.884C132.667 240.135 132.667 240.541 132.232 240.793C131.798 241.043 131.093 241.043 130.659 240.793C130.225 240.541 130.225 240.135 130.659 239.884C131.093 239.633 131.798 239.633 132.232 239.884Z" fill="#EAC653"/>
<path d="M144.298 233.828C144.732 233.577 144.732 233.17 144.298 232.919C143.863 232.669 143.159 232.669 142.724 232.919C142.289 233.17 142.289 233.577 142.724 233.828C143.159 234.078 143.863 234.078 144.298 233.828Z" fill="#EAC653"/>
<path d="M156.362 225.954C156.796 226.206 156.796 226.612 156.362 226.862C155.928 227.114 155.223 227.114 154.789 226.862C154.354 226.612 154.354 226.206 154.789 225.954C155.223 225.703 155.928 225.703 156.362 225.954Z" fill="#EAC653"/>
<path d="M168.427 219.897C168.861 219.647 168.861 219.241 168.427 218.989C167.993 218.739 167.288 218.739 166.853 218.989C166.419 219.241 166.419 219.647 166.853 219.897C167.288 220.149 167.993 220.149 168.427 219.897Z" fill="#EAC653"/>
<path d="M180.491 212.025C180.925 212.276 180.925 212.683 180.491 212.934C180.057 213.184 179.351 213.184 178.918 212.934C178.483 212.683 178.483 212.276 178.918 212.025C179.351 211.774 180.057 211.774 180.491 212.025Z" fill="#EAC653"/>
<path d="M192.555 205.968C192.99 205.718 192.99 205.31 192.555 205.06C192.12 204.809 191.416 204.809 190.981 205.06C190.548 205.31 190.548 205.718 190.981 205.968C191.416 206.219 192.12 206.219 192.555 205.968Z" fill="#EAC653"/>
<path d="M204.62 198.095C205.055 198.347 205.055 198.753 204.62 199.003C204.186 199.255 203.481 199.255 203.047 199.003C202.612 198.753 202.612 198.347 203.047 198.095C203.481 197.844 204.186 197.844 204.62 198.095Z" fill="#EAC653"/>
<path d="M216.684 192.039C217.119 191.787 217.119 191.381 216.684 191.13C216.249 190.879 215.545 190.879 215.11 191.13C214.677 191.381 214.677 191.787 215.11 192.039C215.545 192.289 216.249 192.289 216.684 192.039Z" fill="#EAC653"/>
<path d="M228.749 184.166C229.184 184.416 229.184 184.822 228.749 185.074C228.314 185.325 227.61 185.325 227.175 185.074C226.74 184.822 226.74 184.416 227.175 184.166C227.61 183.914 228.314 183.914 228.749 184.166Z" fill="#EAC653"/>
<path d="M240.814 178.109C241.248 177.858 241.248 177.451 240.814 177.2C240.379 176.95 239.674 176.95 239.24 177.2C238.806 177.451 238.806 177.858 239.24 178.109C239.674 178.359 240.379 178.359 240.814 178.109Z" fill="#EAC653"/>
<path d="M252.878 170.235C253.313 170.487 253.313 170.893 252.878 171.144C252.443 171.395 251.739 171.395 251.304 171.144C250.869 170.893 250.869 170.487 251.304 170.235C251.739 169.985 252.443 169.985 252.878 170.235Z" fill="#EAC653"/>
<path d="M264.943 164.179C265.378 163.928 265.378 163.522 264.943 163.27C264.508 163.02 263.804 163.02 263.369 163.27C262.934 163.522 262.934 163.928 263.369 164.179C263.804 164.43 264.508 164.43 264.943 164.179Z" fill="#EAC653"/>
<path d="M277.007 156.306C277.441 156.557 277.441 156.964 277.007 157.215C276.572 157.465 275.868 157.465 275.433 157.215C274.998 156.964 274.998 156.557 275.433 156.306C275.868 156.055 276.572 156.055 277.007 156.306Z" fill="#EAC653"/>
<path d="M289.072 150.249C289.507 149.999 289.507 149.591 289.072 149.341C288.637 149.09 287.933 149.09 287.498 149.341C287.063 149.591 287.063 149.999 287.498 150.249C287.933 150.5 288.637 150.5 289.072 150.249Z" fill="#EAC653"/>
<path d="M301.136 142.376C301.57 142.628 301.57 143.034 301.136 143.284C300.701 143.536 299.997 143.536 299.562 143.284C299.128 143.034 299.128 142.628 299.562 142.376C299.997 142.125 300.701 142.125 301.136 142.376Z" fill="#EAC653"/>
<path d="M313.201 136.32C313.636 136.068 313.636 135.662 313.201 135.412C312.766 135.16 312.062 135.16 311.627 135.412C311.192 135.662 311.192 136.068 311.627 136.32C312.062 136.57 312.766 136.57 313.201 136.32Z" fill="#EAC653"/>
<path d="M144.298 246.849C144.732 247.1 144.732 247.506 144.298 247.758C143.863 248.008 143.159 248.008 142.724 247.758C142.289 247.506 142.289 247.1 142.724 246.849C143.159 246.598 143.863 246.598 144.298 246.849Z" fill="#EAC653"/>
<path d="M156.363 240.793C156.798 240.541 156.798 240.135 156.363 239.884C155.928 239.633 155.224 239.633 154.789 239.884C154.354 240.135 154.354 240.541 154.789 240.793C155.224 241.043 155.928 241.043 156.363 240.793Z" fill="#EAC653"/>
<path d="M168.427 232.919C168.862 233.17 168.862 233.577 168.427 233.828C167.993 234.078 167.288 234.078 166.853 233.828C166.42 233.577 166.42 233.17 166.853 232.919C167.288 232.669 167.993 232.669 168.427 232.919Z" fill="#EAC653"/>
<path d="M180.491 226.862C180.925 226.612 180.925 226.206 180.491 225.954C180.057 225.703 179.351 225.703 178.918 225.954C178.483 226.206 178.483 226.612 178.918 226.862C179.351 227.114 180.057 227.114 180.491 226.862Z" fill="#EAC653"/>
<path d="M192.556 218.989C192.99 219.241 192.99 219.647 192.556 219.897C192.121 220.149 191.417 220.149 190.982 219.897C190.548 219.647 190.548 219.241 190.982 218.989C191.417 218.739 192.121 218.739 192.556 218.989Z" fill="#EAC653"/>
<path d="M204.621 212.933C205.056 212.683 205.056 212.275 204.621 212.025C204.186 211.773 203.482 211.773 203.047 212.025C202.612 212.275 202.612 212.683 203.047 212.933C203.482 213.184 204.186 213.184 204.621 212.933Z" fill="#EAC653"/>
<path d="M216.686 205.06C217.119 205.31 217.119 205.718 216.686 205.968C216.251 206.219 215.546 206.219 215.112 205.968C214.677 205.718 214.677 205.31 215.112 205.06C215.546 204.809 216.251 204.809 216.686 205.06Z" fill="#EAC653"/>
<path d="M228.749 199.003C229.184 198.752 229.184 198.345 228.749 198.094C228.315 197.844 227.61 197.844 227.176 198.094C226.741 198.345 226.741 198.752 227.176 199.003C227.61 199.254 228.315 199.254 228.749 199.003Z" fill="#EAC653"/>
<path d="M240.814 191.13C241.248 191.381 241.248 191.787 240.814 192.039C240.379 192.289 239.674 192.289 239.24 192.039C238.806 191.787 238.806 191.381 239.24 191.13C239.674 190.879 240.379 190.879 240.814 191.13Z" fill="#EAC653"/>
<path d="M252.879 185.074C253.313 184.823 253.313 184.416 252.879 184.165C252.444 183.914 251.74 183.914 251.305 184.165C250.871 184.416 250.871 184.823 251.305 185.074C251.74 185.324 252.444 185.324 252.879 185.074Z" fill="#EAC653"/>
<path d="M264.943 177.2C265.378 177.451 265.378 177.858 264.943 178.109C264.509 178.359 263.804 178.359 263.37 178.109C262.935 177.858 262.935 177.451 263.37 177.2C263.804 176.95 264.509 176.95 264.943 177.2Z" fill="#EAC653"/>
<path d="M277.007 171.143C277.442 170.893 277.442 170.487 277.007 170.235C276.572 169.984 275.868 169.984 275.433 170.235C274.999 170.487 274.999 170.893 275.433 171.143C275.868 171.395 276.572 171.395 277.007 171.143Z" fill="#EAC653"/>
<path d="M289.072 163.27C289.506 163.522 289.506 163.928 289.072 164.179C288.638 164.43 287.933 164.43 287.499 164.179C287.064 163.928 287.064 163.522 287.499 163.27C287.933 163.02 288.638 163.02 289.072 163.27Z" fill="#EAC653"/>
<path d="M301.136 157.215C301.571 156.964 301.571 156.557 301.136 156.306C300.702 156.055 299.997 156.055 299.562 156.306C299.129 156.557 299.129 156.964 299.562 157.215C299.997 157.465 300.702 157.465 301.136 157.215Z" fill="#EAC653"/>
<path d="M313.201 149.341C313.636 149.591 313.636 149.999 313.201 150.249C312.767 150.5 312.062 150.5 311.628 150.249C311.193 149.999 311.193 149.591 311.628 149.341C312.062 149.09 312.767 149.09 313.201 149.341Z" fill="#EAC653"/>
<path d="M325.265 143.284C325.7 143.034 325.7 142.628 325.265 142.376C324.831 142.125 324.126 142.125 323.692 142.376C323.258 142.628 323.258 143.034 323.692 143.284C324.126 143.536 324.831 143.536 325.265 143.284Z" fill="#EAC653"/>
<path d="M168.428 247.758C168.863 247.506 168.863 247.1 168.428 246.849C167.994 246.598 167.289 246.598 166.855 246.849C166.42 247.1 166.42 247.506 166.855 247.758C167.289 248.008 167.994 248.008 168.428 247.758Z" fill="#EAC653"/>
<path d="M180.493 239.884C180.928 240.135 180.928 240.541 180.493 240.793C180.058 241.043 179.354 241.043 178.919 240.793C178.484 240.541 178.484 240.135 178.919 239.884C179.354 239.633 180.058 239.633 180.493 239.884Z" fill="#EAC653"/>
<path d="M192.558 233.828C192.991 233.577 192.991 233.17 192.558 232.919C192.123 232.669 191.419 232.669 190.984 232.919C190.549 233.17 190.549 233.577 190.984 233.828C191.419 234.078 192.123 234.078 192.558 233.828Z" fill="#EAC653"/>
<path d="M204.622 225.954C205.057 226.205 205.057 226.612 204.622 226.863C204.187 227.114 203.483 227.114 203.048 226.863C202.613 226.612 202.613 226.205 203.048 225.954C203.483 225.704 204.187 225.704 204.622 225.954Z" fill="#EAC653"/>
<path d="M216.687 219.897C217.12 219.647 217.12 219.241 216.687 218.989C216.252 218.739 215.548 218.739 215.113 218.989C214.678 219.241 214.678 219.647 215.113 219.897C215.548 220.149 216.252 220.149 216.687 219.897Z" fill="#EAC653"/>
<path d="M228.751 212.025C229.186 212.276 229.186 212.683 228.751 212.934C228.316 213.184 227.612 213.184 227.177 212.934C226.742 212.683 226.742 212.276 227.177 212.025C227.612 211.774 228.316 211.774 228.751 212.025Z" fill="#EAC653"/>
<path d="M240.816 205.968C241.251 205.718 241.251 205.31 240.816 205.06C240.381 204.809 239.677 204.809 239.242 205.06C238.807 205.31 238.807 205.718 239.242 205.968C239.677 206.219 240.381 206.219 240.816 205.968Z" fill="#EAC653"/>
<path d="M252.88 198.095C253.314 198.347 253.314 198.753 252.88 199.003C252.446 199.255 251.741 199.255 251.306 199.003C250.872 198.753 250.872 198.347 251.306 198.095C251.741 197.844 252.446 197.844 252.88 198.095Z" fill="#EAC653"/>
<path d="M264.945 192.039C265.38 191.787 265.38 191.381 264.945 191.13C264.51 190.879 263.806 190.879 263.371 191.13C262.936 191.381 262.936 191.787 263.371 192.039C263.806 192.289 264.51 192.289 264.945 192.039Z" fill="#EAC653"/>
<path d="M277.01 184.166C277.443 184.416 277.443 184.822 277.01 185.074C276.575 185.325 275.871 185.325 275.436 185.074C275.001 184.822 275.001 184.416 275.436 184.166C275.871 183.914 276.575 183.914 277.01 184.166Z" fill="#EAC653"/>
<path d="M289.073 178.109C289.508 177.858 289.508 177.451 289.073 177.2C288.639 176.95 287.934 176.95 287.5 177.2C287.065 177.451 287.065 177.858 287.5 178.109C287.934 178.359 288.639 178.359 289.073 178.109Z" fill="#EAC653"/>
<path d="M301.137 170.235C301.572 170.487 301.572 170.893 301.137 171.144C300.703 171.395 299.998 171.395 299.564 171.144C299.13 170.893 299.13 170.487 299.564 170.235C299.998 169.985 300.703 169.985 301.137 170.235Z" fill="#EAC653"/>
<path d="M313.202 164.179C313.637 163.928 313.637 163.522 313.202 163.27C312.768 163.02 312.063 163.02 311.629 163.27C311.194 163.522 311.194 163.928 311.629 164.179C312.063 164.43 312.768 164.43 313.202 164.179Z" fill="#EAC653"/>
<path d="M325.267 156.306C325.701 156.557 325.701 156.964 325.267 157.215C324.832 157.465 324.127 157.465 323.693 157.215C323.259 156.964 323.259 156.557 323.693 156.306C324.127 156.055 324.832 156.055 325.267 156.306Z" fill="#EAC653"/>
<path d="M337.331 150.249C337.766 149.999 337.766 149.591 337.331 149.341C336.898 149.09 336.192 149.09 335.758 149.341C335.324 149.591 335.324 149.999 335.758 150.249C336.192 150.5 336.898 150.5 337.331 150.249Z" fill="#EAC653"/>
<path d="M192.558 246.849C192.992 247.101 192.992 247.507 192.558 247.758C192.123 248.009 191.418 248.009 190.984 247.758C190.55 247.507 190.55 247.101 190.984 246.849C191.418 246.599 192.123 246.599 192.558 246.849Z" fill="#EAC653"/>
<path d="M204.622 240.793C205.057 240.541 205.057 240.135 204.622 239.885C204.187 239.633 203.483 239.633 203.048 239.885C202.613 240.135 202.613 240.541 203.048 240.793C203.483 241.044 204.187 241.044 204.622 240.793Z" fill="#EAC653"/>
<path d="M216.687 232.92C217.121 233.17 217.121 233.578 216.687 233.828C216.252 234.079 215.548 234.079 215.113 233.828C214.679 233.578 214.679 233.17 215.113 232.92C215.548 232.669 216.252 232.669 216.687 232.92Z" fill="#EAC653"/>
<path d="M228.751 226.863C229.186 226.612 229.186 226.205 228.751 225.954C228.316 225.704 227.612 225.704 227.177 225.954C226.742 226.205 226.742 226.612 227.177 226.863C227.612 227.114 228.316 227.114 228.751 226.863Z" fill="#EAC653"/>
<path d="M240.816 218.991C241.251 219.241 241.251 219.647 240.816 219.899C240.381 220.149 239.677 220.149 239.242 219.899C238.808 219.647 238.808 219.241 239.242 218.991C239.677 218.739 240.381 218.739 240.816 218.991Z" fill="#EAC653"/>
<path d="M252.88 212.934C253.315 212.683 253.315 212.276 252.88 212.025C252.447 211.774 251.741 211.774 251.308 212.025C250.873 212.276 250.873 212.683 251.308 212.934C251.741 213.184 252.447 213.184 252.88 212.934Z" fill="#EAC653"/>
<path d="M264.945 205.06C265.38 205.311 265.38 205.718 264.945 205.969C264.51 206.219 263.806 206.219 263.371 205.969C262.936 205.718 262.936 205.311 263.371 205.06C263.806 204.81 264.51 204.81 264.945 205.06Z" fill="#EAC653"/>
<path d="M277.01 199.003C277.443 198.753 277.443 198.347 277.01 198.095C276.575 197.844 275.871 197.844 275.436 198.095C275.001 198.347 275.001 198.753 275.436 199.003C275.871 199.255 276.575 199.255 277.01 199.003Z" fill="#EAC653"/>
<path d="M289.074 191.13C289.509 191.381 289.509 191.787 289.074 192.039C288.639 192.289 287.935 192.289 287.5 192.039C287.065 191.787 287.065 191.381 287.5 191.13C287.935 190.879 288.639 190.879 289.074 191.13Z" fill="#EAC653"/>
<path d="M301.139 185.074C301.572 184.822 301.572 184.416 301.139 184.166C300.704 183.914 299.999 183.914 299.565 184.166C299.13 184.416 299.13 184.822 299.565 185.074C299.999 185.325 300.704 185.325 301.139 185.074Z" fill="#EAC653"/>
<path d="M313.203 177.2C313.638 177.451 313.638 177.858 313.203 178.109C312.768 178.359 312.064 178.359 311.629 178.109C311.194 177.858 311.194 177.451 311.629 177.2C312.064 176.95 312.768 176.95 313.203 177.2Z" fill="#EAC653"/>
<path d="M325.268 171.144C325.701 170.893 325.701 170.487 325.268 170.235C324.833 169.985 324.129 169.985 323.694 170.235C323.259 170.487 323.259 170.893 323.694 171.144C324.129 171.395 324.833 171.395 325.268 171.144Z" fill="#EAC653"/>
<path d="M337.332 163.272C337.767 163.522 337.767 163.928 337.332 164.18C336.898 164.43 336.193 164.43 335.758 164.18C335.324 163.928 335.324 163.522 335.758 163.272C336.193 163.02 336.898 163.02 337.332 163.272Z" fill="#EAC653"/>
<path d="M216.688 247.758C217.121 247.507 217.121 247.101 216.688 246.849C216.253 246.599 215.549 246.599 215.114 246.849C214.679 247.101 214.679 247.507 215.114 247.758C215.549 248.009 216.253 248.009 216.688 247.758Z" fill="#EAC653"/>
<path d="M228.752 239.885C229.187 240.136 229.187 240.543 228.752 240.794C228.317 241.044 227.613 241.044 227.178 240.794C226.744 240.543 226.744 240.136 227.178 239.885C227.613 239.634 228.317 239.634 228.752 239.885Z" fill="#EAC653"/>
<path d="M240.817 233.828C241.251 233.578 241.251 233.17 240.817 232.92C240.382 232.669 239.678 232.669 239.243 232.92C238.808 233.17 238.808 233.578 239.243 233.828C239.678 234.079 240.382 234.079 240.817 233.828Z" fill="#EAC653"/>
<path d="M252.881 225.955C253.316 226.207 253.316 226.613 252.881 226.863C252.447 227.115 251.742 227.115 251.308 226.863C250.873 226.613 250.873 226.207 251.308 225.955C251.742 225.704 252.447 225.704 252.881 225.955Z" fill="#EAC653"/>
<path d="M264.946 219.899C265.381 219.647 265.381 219.241 264.946 218.991C264.511 218.739 263.807 218.739 263.372 218.991C262.937 219.241 262.937 219.647 263.372 219.899C263.807 220.149 264.511 220.149 264.946 219.899Z" fill="#EAC653"/>
<path d="M277.011 212.026C277.444 212.276 277.444 212.683 277.011 212.934C276.576 213.185 275.872 213.185 275.437 212.934C275.002 212.683 275.002 212.276 275.437 212.026C275.872 211.774 276.576 211.774 277.011 212.026Z" fill="#EAC653"/>
<path d="M289.075 205.969C289.51 205.718 289.51 205.311 289.075 205.06C288.64 204.81 287.936 204.81 287.501 205.06C287.067 205.311 287.067 205.718 287.501 205.969C287.936 206.219 288.64 206.219 289.075 205.969Z" fill="#EAC653"/>
<path d="M301.14 198.095C301.574 198.347 301.574 198.753 301.14 199.004C300.705 199.255 300.001 199.255 299.566 199.004C299.131 198.753 299.131 198.347 299.566 198.095C300.001 197.845 300.705 197.845 301.14 198.095Z" fill="#EAC653"/>
<path d="M313.203 192.039C313.638 191.788 313.638 191.382 313.203 191.13C312.769 190.88 312.064 190.88 311.63 191.13C311.195 191.382 311.195 191.788 311.63 192.039C312.064 192.29 312.769 192.29 313.203 192.039Z" fill="#EAC653"/>
<path d="M325.269 184.166C325.703 184.417 325.703 184.824 325.269 185.075C324.834 185.325 324.13 185.325 323.695 185.075C323.26 184.824 323.26 184.417 323.695 184.166C324.13 183.916 324.834 183.916 325.269 184.166Z" fill="#EAC653"/>
<path d="M337.332 178.109C337.767 177.859 337.767 177.451 337.332 177.201C336.899 176.95 336.193 176.95 335.76 177.201C335.325 177.451 335.325 177.859 335.76 178.109C336.193 178.361 336.899 178.361 337.332 178.109Z" fill="#EAC653"/>
<path d="M240.818 246.851C241.252 247.102 241.252 247.508 240.818 247.759C240.383 248.01 239.679 248.01 239.244 247.759C238.809 247.508 238.809 247.102 239.244 246.851C239.679 246.6 240.383 246.6 240.818 246.851Z" fill="#EAC653"/>
<path d="M252.882 240.794C253.316 240.543 253.316 240.136 252.882 239.886C252.448 239.634 251.742 239.634 251.309 239.886C250.874 240.136 250.874 240.543 251.309 240.794C251.742 241.045 252.448 241.045 252.882 240.794Z" fill="#EAC653"/>
<path d="M264.947 232.921C265.382 233.171 265.382 233.579 264.947 233.829C264.512 234.081 263.808 234.081 263.373 233.829C262.939 233.579 262.939 233.171 263.373 232.921C263.808 232.67 264.512 232.67 264.947 232.921Z" fill="#EAC653"/>
<path d="M277.011 226.864C277.446 226.613 277.446 226.207 277.011 225.955C276.576 225.705 275.872 225.705 275.437 225.955C275.002 226.207 275.002 226.613 275.437 226.864C275.872 227.115 276.576 227.115 277.011 226.864Z" fill="#EAC653"/>
<path d="M289.075 218.992C289.51 219.242 289.51 219.648 289.075 219.9C288.642 220.15 287.936 220.15 287.502 219.9C287.068 219.648 287.068 219.242 287.502 218.992C287.936 218.74 288.642 218.74 289.075 218.992Z" fill="#EAC653"/>
<path d="M301.14 212.935C301.574 212.684 301.574 212.277 301.14 212.026C300.705 211.776 300.001 211.776 299.566 212.026C299.132 212.277 299.132 212.684 299.566 212.935C300.001 213.185 300.705 213.185 301.14 212.935Z" fill="#EAC653"/>
<path d="M313.204 205.061C313.639 205.312 313.639 205.719 313.204 205.97C312.77 206.22 312.065 206.22 311.631 205.97C311.197 205.719 311.197 205.312 311.631 205.061C312.065 204.811 312.77 204.811 313.204 205.061Z" fill="#EAC653"/>
<path d="M325.269 199.004C325.704 198.754 325.704 198.348 325.269 198.096C324.834 197.845 324.13 197.845 323.695 198.096C323.261 198.348 323.261 198.754 323.695 199.004C324.13 199.256 324.834 199.256 325.269 199.004Z" fill="#EAC653"/>
<path d="M337.333 191.132C337.768 191.382 337.768 191.788 337.333 192.04C336.9 192.29 336.194 192.29 335.761 192.04C335.326 191.788 335.326 191.382 335.761 191.132C336.194 190.88 336.9 190.88 337.333 191.132Z" fill="#EAC653"/>
<path d="M264.946 247.759C265.381 247.508 265.381 247.102 264.946 246.851C264.511 246.6 263.807 246.6 263.372 246.851C262.938 247.102 262.938 247.508 263.372 247.759C263.807 248.01 264.511 248.01 264.946 247.759Z" fill="#EAC653"/>
<path d="M277.012 239.886C277.445 240.137 277.445 240.544 277.012 240.795C276.577 241.045 275.873 241.045 275.438 240.795C275.003 240.544 275.003 240.137 275.438 239.886C275.873 239.636 276.577 239.636 277.012 239.886Z" fill="#EAC653"/>
<path d="M289.075 233.829C289.51 233.579 289.51 233.171 289.075 232.921C288.642 232.67 287.936 232.67 287.502 232.921C287.068 233.171 287.068 233.579 287.502 233.829C287.936 234.081 288.642 234.081 289.075 233.829Z" fill="#EAC653"/>
<path d="M301.14 225.956C301.574 226.207 301.574 226.614 301.14 226.864C300.705 227.116 300.001 227.116 299.566 226.864C299.132 226.614 299.132 226.207 299.566 225.956C300.001 225.705 300.705 225.705 301.14 225.956Z" fill="#EAC653"/>
<path d="M313.204 219.9C313.639 219.649 313.639 219.243 313.204 218.992C312.77 218.741 312.065 218.741 311.631 218.992C311.197 219.243 311.197 219.649 311.631 219.9C312.065 220.151 312.77 220.151 313.204 219.9Z" fill="#EAC653"/>
<path d="M325.269 212.027C325.704 212.277 325.704 212.684 325.269 212.935C324.834 213.186 324.13 213.186 323.695 212.935C323.261 212.684 323.261 212.277 323.695 212.027C324.13 211.776 324.834 211.776 325.269 212.027Z" fill="#EAC653"/>
<path d="M337.333 205.97C337.768 205.72 337.768 205.312 337.333 205.062C336.9 204.811 336.194 204.811 335.761 205.062C335.326 205.312 335.326 205.72 335.761 205.97C336.194 206.222 336.9 206.222 337.333 205.97Z" fill="#EAC653"/>
<path d="M289.077 246.852C289.512 247.102 289.512 247.508 289.077 247.76C288.643 248.01 287.938 248.01 287.504 247.76C287.069 247.508 287.069 247.102 287.504 246.852C287.938 246.6 288.643 246.6 289.077 246.852Z" fill="#EAC653"/>
<path d="M301.142 240.795C301.576 240.544 301.576 240.137 301.142 239.886C300.707 239.636 300.003 239.636 299.568 239.886C299.133 240.137 299.133 240.544 299.568 240.795C300.003 241.045 300.707 241.045 301.142 240.795Z" fill="#EAC653"/>
<path d="M313.207 232.921C313.642 233.172 313.642 233.579 313.207 233.83C312.772 234.081 312.068 234.081 311.633 233.83C311.198 233.579 311.198 233.172 311.633 232.921C312.068 232.671 312.772 232.671 313.207 232.921Z" fill="#EAC653"/>
<path d="M325.271 226.864C325.705 226.614 325.705 226.207 325.271 225.956C324.837 225.705 324.132 225.705 323.697 225.956C323.263 226.207 323.263 226.614 323.697 226.864C324.132 227.116 324.837 227.116 325.271 226.864Z" fill="#EAC653"/>
<path d="M337.334 218.992C337.769 219.243 337.769 219.649 337.334 219.9C336.901 220.151 336.195 220.151 335.762 219.9C335.327 219.649 335.327 219.243 335.762 218.992C336.195 218.741 336.901 218.741 337.334 218.992Z" fill="#EAC653"/>
<path d="M313.207 247.76C313.642 247.508 313.642 247.102 313.207 246.852C312.772 246.6 312.068 246.6 311.633 246.852C311.198 247.102 311.198 247.508 311.633 247.76C312.068 248.01 312.772 248.01 313.207 247.76Z" fill="#EAC653"/>
<path d="M325.271 239.887C325.705 240.137 325.705 240.544 325.271 240.795C324.837 241.046 324.132 241.046 323.697 240.795C323.263 240.544 323.263 240.137 323.697 239.887C324.132 239.636 324.837 239.636 325.271 239.887Z" fill="#EAC653"/>
<path d="M337.336 233.83C337.77 233.579 337.77 233.172 337.336 232.921C336.901 232.671 336.197 232.671 335.762 232.921C335.327 233.172 335.327 233.579 335.762 233.83C336.197 234.081 336.901 234.081 337.336 233.83Z" fill="#EAC653"/>
<path d="M337.336 246.852C337.77 247.103 337.77 247.509 337.336 247.76C336.902 248.011 336.197 248.011 335.763 247.76C335.328 247.509 335.328 247.103 335.763 246.852C336.197 246.6 336.902 246.6 337.336 246.852Z" fill="#EAC653"/>
</g>
<path d="M196.869 225.648C196.593 225.488 196.347 225.317 196.136 225.135V228.441C196.136 229.211 196.666 229.949 197.608 230.493L248.541 259.897C250.505 261.03 253.688 261.03 255.651 259.897L342.78 209.597C343.723 209.054 344.252 208.315 344.252 207.545V203.59C344.039 203.774 343.792 203.947 343.511 204.109L255.825 254.73C253.456 256.098 249.615 256.098 247.245 254.73L196.869 225.648Z" fill="white"/>
<path d="M197.606 221.119C196.586 221.708 196.096 222.486 196.135 223.257L196.136 223.269C196.177 223.979 196.667 224.681 197.606 225.224L247.981 254.306C249.945 255.439 253.127 255.439 255.091 254.306L342.777 203.684C344.74 202.551 344.74 200.713 342.777 199.58L292.401 170.498C290.438 169.364 287.255 169.364 285.291 170.498L197.606 221.119Z" fill="white"/>
<path opacity="0.75" d="M257.824 233.314L258.147 233.5C258.902 233.937 259.392 234.502 259.545 235.112C259.698 235.722 259.504 236.345 258.995 236.887C258.484 237.429 257.684 237.861 256.713 238.119C255.743 238.378 254.655 238.447 253.61 238.319C252.565 238.19 251.62 237.87 250.916 237.406C250.212 236.943 249.786 236.36 249.702 235.745C249.62 235.13 249.882 234.516 250.453 233.994C251.024 233.472 251.87 233.072 252.868 232.851M255.344 231.883L255.348 235.93H253.246" stroke="#EAC653" stroke-width="1.13229" stroke-linecap="round" stroke-linejoin="round"/>
<path opacity="0.25" d="M262.549 229.978C261.547 229.4 261.547 228.462 262.549 227.883L307.909 201.698C308.91 201.12 310.534 201.12 311.537 201.698C312.539 202.277 312.539 203.214 311.537 203.793L266.178 229.978C265.176 230.557 263.551 230.557 262.549 229.978Z" fill="#EAC653"/>
<path opacity="0.5" d="M284.321 189.966C283.53 189.51 282.558 189.51 281.768 189.966L245.621 210.833C244.211 211.648 244.211 212.968 245.621 213.782C247.031 214.596 249.318 214.596 250.728 213.782L284.321 194.389C286.024 193.406 286.024 190.949 284.321 189.966Z" fill="#EAC653"/>
<path opacity="0.75" fill-rule="evenodd" clip-rule="evenodd" d="M195.096 223.278C195.047 222.347 195.638 221.406 196.87 220.695L284.557 170.073C286.925 168.705 290.767 168.705 293.137 170.073L343.512 199.155C344.762 199.876 345.352 200.834 345.284 201.779H345.293V207.545C345.293 208.474 344.654 209.365 343.516 210.022L256.386 260.321C254.017 261.689 250.176 261.689 247.806 260.321L196.873 230.918C195.735 230.261 195.095 229.37 195.095 228.441L195.096 223.278ZM196.136 225.135C196.349 225.317 196.593 225.488 196.87 225.648L247.245 254.73C249.615 256.098 253.457 256.098 255.826 254.73L343.512 204.109C343.792 203.947 344.039 203.774 344.253 203.591V207.545C344.253 208.315 343.723 209.053 342.78 209.597L255.651 259.897C253.688 261.03 250.505 261.03 248.542 259.897L197.608 230.493C196.666 229.949 196.136 229.211 196.136 228.441V225.135ZM196.136 223.257C196.096 222.486 196.586 221.708 197.606 221.119L285.291 170.498C287.255 169.364 290.438 169.364 292.401 170.498L342.777 199.58C344.74 200.713 344.74 202.551 342.777 203.684L255.091 254.306C253.127 255.439 249.945 255.439 247.981 254.306L197.606 225.224C196.667 224.681 196.178 223.979 196.136 223.269V223.257Z" fill="#EAC653"/>
<path d="M273.05 116.939C273.05 116.549 272.733 116.232 272.342 116.232C271.951 116.232 271.635 116.549 271.635 116.939H273.05ZM271.842 214.321C272.118 214.598 272.567 214.598 272.843 214.321L277.346 209.818C277.622 209.541 277.622 209.093 277.346 208.817C277.07 208.541 276.621 208.541 276.345 208.817L272.342 212.821L268.339 208.817C268.062 208.541 267.614 208.541 267.338 208.817C267.061 209.093 267.061 209.541 267.338 209.818L271.842 214.321ZM272.342 116.939H271.635V213.82H272.342H273.05V116.939H272.342Z" fill="url(#paint0_linear_123_15453)"/>
<path opacity="0.75" fill-rule="evenodd" clip-rule="evenodd" d="M110.236 234.556C110.172 233.615 110.763 232.662 112.008 231.943L298.572 124.239C300.941 122.871 304.783 122.871 307.152 124.239L430.081 195.206C431.393 195.963 431.979 196.982 431.837 197.973V205.206C431.837 206.134 431.197 207.026 430.059 207.682L243.986 315.095C241.618 316.463 237.776 316.463 235.407 315.095L111.986 243.844C110.848 243.188 110.209 242.296 110.209 241.368L110.209 234.556H110.236ZM111.249 236.362C111.467 236.551 111.72 236.73 112.008 236.895L234.936 307.863C237.306 309.231 241.148 309.231 243.516 307.863L430.081 200.159C430.35 200.004 430.589 199.838 430.796 199.662V205.206C430.796 205.975 430.268 206.713 429.324 207.258L243.252 314.67C241.288 315.804 238.105 315.804 236.142 314.67L112.722 243.42C111.779 242.875 111.249 242.137 111.249 241.368L111.249 236.362ZM112.744 236.471C110.78 235.338 110.78 233.501 112.744 232.367L299.307 124.664C301.27 123.53 304.453 123.53 306.416 124.664L429.345 195.63C431.308 196.764 431.308 198.601 429.345 199.735L242.782 307.438C240.818 308.572 237.635 308.572 235.672 307.438L112.744 236.471Z" fill="#EAC653"/>
<path d="M122.548 160.948L108.247 169.205M122.548 160.948L126.838 163.426C127.218 163.644 127.431 163.942 127.431 164.251C127.431 164.56 127.218 164.858 126.838 165.076L115.398 171.681C115.018 171.901 114.503 172.024 113.968 172.024C113.431 172.024 112.916 171.901 112.537 171.681L108.247 169.205M122.548 160.948L115.154 159.528C114.798 159.459 114.415 159.449 114.048 159.499C113.682 159.547 113.347 159.656 113.081 159.809L106.273 163.739C106.007 163.893 105.821 164.087 105.735 164.297C105.649 164.509 105.667 164.73 105.787 164.936L108.247 169.205M113.968 169.205L113.974 169.2M116.828 167.554L116.835 167.549" stroke="#EAC653" stroke-width="1.13229" stroke-linecap="round" stroke-linejoin="round"/>
<path opacity="0.75" fill-rule="evenodd" clip-rule="evenodd" d="M84.2228 172.667V165.322C84.1044 164.346 84.6917 163.346 85.9849 162.6L111.118 148.091C113.487 146.722 117.329 146.722 119.698 148.091L144.832 162.6C146.188 163.383 146.768 164.445 146.571 165.466V190.996C146.571 191.924 145.931 192.815 144.794 193.472L119.687 207.967C117.318 209.334 113.476 209.334 111.107 207.967L107.507 205.888L107.507 213.5C107.507 214.429 106.868 215.32 105.73 215.976L80.6229 230.471C78.2535 231.839 74.412 231.839 72.0425 230.471L46.9358 215.976C45.7979 215.32 45.1587 214.429 45.1587 213.5L45.1588 187.828C45.0403 186.85 45.6277 185.851 46.9208 185.104L72.054 170.595C74.4234 169.227 78.2649 169.227 80.6344 170.595L84.2228 172.667ZM85.263 167.051C85.4724 167.228 85.713 167.396 85.9849 167.553L111.118 182.062C112.141 182.653 113.437 182.988 114.771 183.07V208.37C113.7 208.291 112.664 208.016 111.842 207.542L107.507 205.038L107.507 187.971C107.704 186.95 107.124 185.888 105.767 185.104L85.2628 173.267L85.263 167.051ZM115.621 208.389V183.087C117.102 183.056 118.568 182.715 119.698 182.062L144.832 167.553C145.093 167.402 145.326 167.24 145.531 167.07L145.53 190.996C145.53 191.765 145.001 192.503 144.058 193.047L118.952 207.542C118.027 208.075 116.831 208.357 115.621 208.389ZM85.263 165.301C85.3517 165.966 85.8376 166.619 86.7204 167.128L111.853 181.637C113.817 182.771 117 182.771 118.963 181.637L144.096 167.128C144.921 166.653 145.399 166.051 145.531 165.431V164.782H145.543C145.429 164.14 144.948 163.516 144.096 163.025L118.963 148.514C117 147.382 113.817 147.382 111.853 148.514L86.7204 163.025C85.7439 163.587 85.2531 164.326 85.248 165.065H85.263V165.301ZM46.9208 190.058C46.649 189.901 46.4084 189.733 46.1989 189.557L46.1988 213.5C46.1988 214.27 46.7285 215.008 47.6712 215.552L72.778 230.046C73.6002 230.521 74.6364 230.797 75.7072 230.874V205.574C74.373 205.494 73.0764 205.157 72.054 204.567L46.9208 190.058ZM47.6564 185.529C46.6799 186.093 46.189 186.831 46.1839 187.569H46.1989V187.805C46.2877 188.472 46.7735 189.124 47.6564 189.634L72.7894 204.143C74.7527 205.276 77.9357 205.276 79.8988 204.143L105.032 189.634C105.857 189.157 106.335 188.557 106.467 187.936V187.286H106.479C106.366 186.645 105.884 186.02 105.032 185.529L79.8988 171.02C77.9357 169.886 74.7527 169.886 72.7894 171.02L47.6564 185.529ZM105.767 190.058C106.03 189.906 106.263 189.745 106.467 189.575L106.467 213.5C106.467 214.27 105.937 215.008 104.994 215.552L79.8874 230.046C78.9628 230.581 77.7674 230.863 76.5564 230.893V205.591C78.0377 205.562 79.5037 205.22 80.6344 204.567L105.767 190.058Z" fill="#EAC653"/>
<path d="M74.1333 188.755L71.4795 187.223M74.1333 188.755C74.1822 188.783 74.1822 188.828 74.1333 188.857L70.7718 190.798C70.7229 190.826 70.6438 190.826 70.5949 190.798L67.9411 189.266C67.8922 189.237 67.8922 189.192 67.9411 189.164L71.3025 187.223C71.3515 187.195 71.4306 187.195 71.4795 187.223M74.1333 188.755C74.1822 188.783 74.2613 188.783 74.3103 188.755L77.6717 186.814C77.7206 186.786 77.7206 186.741 77.6717 186.712L75.0179 185.18C74.969 185.152 74.8899 185.152 74.841 185.18L71.4795 187.121C71.4306 187.149 71.4306 187.195 71.4795 187.223M80.3858 183.18C80.586 183.064 82.2809 183.09 83.2386 182.95C83.7203 183.63 83.8855 184.721 82.9898 185.027C84.8464 187.958 84.2206 189.621 81.3145 191.299C78.398 192.983 73.8954 194.277 69.6997 191.513C69.6565 191.485 69.6577 191.441 69.7041 191.414L78.4679 186.354C79.0262 186.044 79.7462 185.555 79.5028 185.403C78.1881 185.243 77.7486 184.529 77.1756 183.529C77.8471 183.45 80.0959 183.012 80.3858 183.18ZM69.7103 188.142L73.0717 186.202C73.1207 186.173 73.1207 186.128 73.0717 186.1L70.418 184.568C70.3691 184.539 70.2899 184.539 70.241 184.568L66.8796 186.508C66.8307 186.536 66.8307 186.582 66.8796 186.61L69.5333 188.142C69.5822 188.171 69.6614 188.171 69.7103 188.142Z" stroke="#EAC653" stroke-width="1.13229"/>
<path opacity="0.75" d="M241.564 71.7087V97.639C241.564 98.4883 242.149 99.3028 243.189 99.9034L268.297 114.397C270.463 115.648 273.975 115.648 276.141 114.397L301.248 99.9034C302.288 99.3028 302.872 98.4884 302.872 97.639V71.4257M272.34 115.208V89.0469M276.264 88.2109L301.396 73.7016C303.563 72.451 303.563 70.4233 301.396 69.1728L276.264 54.6634C274.096 53.4127 270.585 53.4127 268.418 54.6634L243.286 69.1728C241.118 70.4233 241.118 72.451 243.286 73.7016L268.418 88.2109C270.585 89.4615 274.096 89.4615 276.264 88.2109Z" stroke="#EAC653" stroke-width="0.849219"/>
</g>
</g>
<defs>
<linearGradient id="paint0_linear_123_15453" x1="272.909" y1="116.939" x2="272.909" y2="213.822" gradientUnits="userSpaceOnUse">
<stop stop-color="#EAC653" stop-opacity="0"/>
<stop offset="1" stop-color="#EAC653" stop-opacity="0.917647"/>
</linearGradient>
<clipPath id="clip0_123_15453">
<rect width="339.688" height="249.104" fill="white" transform="translate(0.621887 0.0301514)"/>
</clipPath>
</defs>
</svg>
