<svg width="41" height="41" viewBox="0 0 41 41" fill="none" xmlns="http://www.w3.org/2000/svg">
<path d="M19.4089 4.33777C20.2797 3.67347 21.4777 3.67325 22.3484 4.33777L22.5291 4.49011L23.0691 4.99792C24.485 6.35146 26.936 8.8572 29.156 11.9364C31.6593 15.4085 34.0447 19.8488 34.0447 24.3075C34.0444 31.1706 28.0273 36.5212 20.8787 36.5214C13.7299 36.5214 7.71192 31.1708 7.71167 24.3075C7.71167 19.8489 10.0971 15.4085 12.6003 11.9364C15.1373 8.41758 17.9765 5.64753 19.2273 4.49011L19.4089 4.33777Z" stroke="#3897F0" stroke-width="3"/>
<path d="M19.4089 4.33777C20.2797 3.67347 21.4777 3.67325 22.3484 4.33777L22.5291 4.49011L23.0691 4.99792C24.485 6.35146 26.936 8.8572 29.156 11.9364C31.6593 15.4085 34.0447 19.8488 34.0447 24.3075C34.0444 31.1706 28.0273 36.5212 20.8787 36.5214C13.7299 36.5214 7.71192 31.1708 7.71167 24.3075C7.71167 19.8489 10.0971 15.4085 12.6003 11.9364C15.1373 8.41758 17.9765 5.64753 19.2273 4.49011L19.4089 4.33777Z" stroke="url(#paint0_linear_123_16617)" stroke-width="3"/>
<path d="M20.8783 30.0214C20.0029 30.0214 19.136 29.8489 18.3271 29.5139C17.5183 29.1789 16.7833 28.6878 16.1643 28.0688C15.5452 27.4497 15.0542 26.7148 14.7191 25.9059C14.3841 25.0971 14.2117 24.2302 14.2117 23.3547" stroke="#3897F0" stroke-width="3" stroke-linecap="round"/>
<path d="M20.8783 30.0214C20.0029 30.0214 19.136 29.8489 18.3271 29.5139C17.5183 29.1789 16.7833 28.6878 16.1643 28.0688C15.5452 27.4497 15.0542 26.7148 14.7191 25.9059C14.3841 25.0971 14.2117 24.2302 14.2117 23.3547" stroke="url(#paint1_linear_123_16617)" stroke-width="3" stroke-linecap="round"/>
<defs>
<linearGradient id="paint0_linear_123_16617" x1="20.8783" y1="5.02136" x2="20.8783" y2="35.0214" gradientUnits="userSpaceOnUse">
<stop stop-color="#0184FF"/>
<stop offset="0.932692" stop-color="#7400FF"/>
</linearGradient>
<linearGradient id="paint1_linear_123_16617" x1="20.8783" y1="16.688" x2="20.8783" y2="30.0214" gradientUnits="userSpaceOnUse">
<stop stop-color="#0184FF"/>
<stop offset="0.932692" stop-color="#7400FF"/>
</linearGradient>
</defs>
</svg>
