<svg width="41" height="41" viewBox="0 0 41 41" fill="none" xmlns="http://www.w3.org/2000/svg">
<path fill-rule="evenodd" clip-rule="evenodd" d="M14.8126 5.45752C15.4368 5.45752 15.9428 5.97673 15.9428 6.61722V6.99368C16.0164 6.97443 16.0904 6.95587 16.1646 6.938C19.2398 6.19779 22.4402 6.19779 25.5154 6.938C25.5896 6.95587 25.6636 6.97443 25.7372 6.99367V6.61722C25.7372 5.97673 26.2432 5.45752 26.8674 5.45752C27.4915 5.45752 27.9975 5.97673 27.9975 6.61722V7.8392C31.2194 9.43639 33.6276 12.4562 34.4657 16.1225C35.187 19.2781 35.187 22.5623 34.4657 25.7179C33.424 30.2751 29.9564 33.8334 25.5154 34.9024C22.4402 35.6426 19.2398 35.6426 16.1646 34.9024C11.7236 33.8334 8.25606 30.2751 7.21435 25.7179C6.493 22.5623 6.493 19.2781 7.21435 16.1224C8.05242 12.4562 10.4606 9.43639 13.6825 7.83921V6.61722C13.6825 5.97673 14.1885 5.45752 14.8126 5.45752ZM19.2191 16.9374C19.5721 16.5751 19.5721 15.9877 19.2191 15.6254C18.866 15.263 18.2935 15.263 17.9405 15.6254L15.5661 18.0619L14.6985 17.1716C14.3455 16.8093 13.773 16.8093 13.4199 17.1716C13.0669 17.5339 13.0669 18.1214 13.4199 18.4837L14.9268 20.0299C15.2799 20.3923 15.8523 20.3923 16.2054 20.0299L19.2191 16.9374ZM22.3469 17.673C21.8475 17.673 21.4427 18.0884 21.4427 18.6008C21.4427 19.1132 21.8475 19.5285 22.3469 19.5285H27.6208C28.1201 19.5285 28.5249 19.1132 28.5249 18.6008C28.5249 18.0884 28.1201 17.673 27.6208 17.673H22.3469ZM19.2191 24.6687C19.5721 24.3064 19.5721 23.719 19.2191 23.3567C18.866 22.9944 18.2935 22.9944 17.9405 23.3567L15.5661 25.7932L14.6985 24.903C14.3455 24.5406 13.773 24.5406 13.4199 24.903C13.0669 25.2653 13.0669 25.8527 13.4199 26.215L14.9268 27.7613C15.2799 28.1236 15.8523 28.1236 16.2054 27.7613L19.2191 24.6687ZM22.3469 25.4044C21.8475 25.4044 21.4427 25.8197 21.4427 26.3321C21.4427 26.8445 21.8475 27.2599 22.3469 27.2599H27.6208C28.1201 27.2599 28.5249 26.8445 28.5249 26.3321C28.5249 25.8197 28.1201 25.4044 27.6208 25.4044H22.3469Z" fill="#8837E9"/>
</svg>
