<svg width="339" height="249" viewBox="0 0 339 249" fill="none" xmlns="http://www.w3.org/2000/svg">
<g clip-path="url(#clip0_123_15657)">
<mask id="mask0_123_15657" style="mask-type:luminance" maskUnits="userSpaceOnUse" x="0" y="0" width="339" height="249">
<path d="M329.693 0.162476H9.25413C4.25135 0.162476 0.195801 4.21803 0.195801 9.22081V239.076C0.195801 244.079 4.25135 248.134 9.25413 248.134H329.693C334.695 248.134 338.751 244.079 338.751 239.076V9.22081C338.751 4.21803 334.695 0.162476 329.693 0.162476Z" fill="white"/>
</mask>
<g mask="url(#mask0_123_15657)">
<path d="M131.39 148.874C131.117 148.717 130.877 148.549 130.667 148.372V156.561C130.667 157.33 131.196 158.068 132.14 158.613L331.805 273.88C333.768 275.014 336.951 275.014 338.914 273.88L474.4 195.664C475.343 195.119 475.873 194.381 475.873 193.612V185.909C475.661 186.089 475.416 186.26 475.141 186.419L340.074 264.394C337.704 265.762 333.862 265.762 331.493 264.394L131.39 148.874Z" fill="white"/>
<path d="M132.125 144.346C131.157 144.904 130.667 145.635 130.653 146.367H130.667V146.613C130.753 147.283 131.239 147.938 132.125 148.45L332.228 263.969C334.191 265.103 337.374 265.103 339.338 263.969L474.405 185.994C475.327 185.463 475.816 184.776 475.873 184.079V183.971H475.877C475.89 183.219 475.4 182.465 474.405 181.891L274.302 66.3711C272.34 65.2378 269.156 65.2378 267.194 66.3711L132.125 144.346Z" fill="white"/>
<path d="M120.774 156.937L129.627 151.831V156.561C129.627 157.49 130.266 158.381 131.404 159.038L331.069 274.305C333.439 275.673 337.28 275.673 339.649 274.305L475.136 196.089C476.273 195.432 476.912 194.541 476.912 193.612V192.587L484.024 196.731C485.993 197.879 485.985 199.729 484.007 200.87L340.441 283.752C338.456 284.898 335.238 284.898 333.253 283.752L120.773 161.087C119.818 160.536 119.322 159.82 119.286 159.098V158.966C119.305 158.23 119.801 157.498 120.774 156.937Z" fill="#F4FAF8"/>
<path d="M485.498 200.777C485.283 200.962 485.033 201.136 484.751 201.299L341.183 284.181C338.789 285.563 334.905 285.563 332.51 284.181L120.029 161.516C119.749 161.354 119.501 161.18 119.286 160.998V165.67C119.287 166.447 119.821 167.194 120.775 167.744L332.837 290.167C334.822 291.313 338.039 291.313 340.024 290.167L484.011 207.043C484.963 206.493 485.498 205.747 485.498 204.969V200.777Z" fill="#F4FAF8"/>
<path opacity="0.75" fill-rule="evenodd" clip-rule="evenodd" d="M129.627 146.635C129.513 145.661 130.1 144.666 131.39 143.922L266.458 65.9465C268.828 64.5787 272.668 64.5787 275.038 65.9465L475.141 181.466C476.391 182.187 476.982 183.147 476.912 184.092V191.726L484.77 196.304C485.945 196.988 486.537 197.879 486.547 198.771H486.55V204.969C486.55 205.908 485.904 206.809 484.754 207.473L340.768 290.596C338.372 291.979 334.489 291.979 332.093 290.596L120.032 168.173C118.882 167.508 118.235 166.608 118.235 165.67V159.107C118.192 158.168 118.79 157.223 120.031 156.507L129.627 150.972V146.635ZM130.667 148.372C130.877 148.549 131.118 148.717 131.39 148.874L331.493 264.394C333.862 265.762 337.704 265.762 340.074 264.394L475.141 186.419C475.416 186.26 475.661 186.089 475.873 185.909V193.612C475.873 194.381 475.343 195.119 474.4 195.664L338.914 273.88C336.951 275.014 333.768 275.014 331.805 273.88L132.14 158.613C131.196 158.069 130.667 157.33 130.667 156.561V148.372ZM130.653 146.367C130.667 145.635 131.158 144.904 132.126 144.346L267.194 66.3711C269.156 65.2377 272.34 65.2377 274.302 66.3711L474.405 181.891C475.399 182.464 475.89 183.219 475.877 183.971H475.873V184.08C475.816 184.776 475.327 185.463 474.405 185.994L339.338 263.969C337.374 265.103 334.191 265.103 332.228 263.969L132.126 148.45C131.239 147.938 130.753 147.282 130.667 146.613V146.367H130.653ZM129.627 151.831L120.774 156.936C119.801 157.498 119.304 158.23 119.285 158.966L119.286 159.098C119.323 159.82 119.818 160.536 120.773 161.087L333.254 283.752C335.238 284.898 338.456 284.898 340.441 283.752L484.007 200.87C485.985 199.729 485.993 197.879 484.024 196.731L476.912 192.588V193.612C476.912 194.541 476.274 195.432 475.136 196.089L339.65 274.305C337.28 275.673 333.438 275.673 331.07 274.305L131.404 159.038C130.266 158.381 129.627 157.49 129.627 156.561V151.831ZM484.751 201.299C485.034 201.136 485.283 200.961 485.5 200.777V204.969C485.5 205.747 484.964 206.493 484.011 207.044L340.024 290.167C338.039 291.312 334.822 291.312 332.837 290.167L120.775 167.744C119.823 167.194 119.287 166.447 119.287 165.67L119.286 160.998C119.501 161.18 119.749 161.354 120.029 161.516L332.51 284.181C334.905 285.563 338.789 285.563 341.183 284.181L484.751 201.299Z" fill="#72C09C"/>
<g opacity="0.5">
<path d="M273.998 71.9287C275.051 72.5368 275.051 73.5231 273.998 74.1313C272.944 74.7396 271.235 74.7396 270.182 74.1313C269.128 73.5231 269.128 72.5368 270.182 71.9287C271.235 71.3204 272.944 71.3204 273.998 71.9287Z" fill="#72C09C"/>
<path d="M264.903 77.1656C265.957 77.7737 265.957 78.7599 264.903 79.3682C263.85 79.9765 262.142 79.9765 261.088 79.3682C260.034 78.7599 260.034 77.7737 261.088 77.1656C262.142 76.5573 263.85 76.5573 264.903 77.1656Z" fill="#72C09C"/>
<path d="M255.881 82.4024C256.934 83.0105 256.934 83.9967 255.881 84.605C254.827 85.2133 253.118 85.2133 252.065 84.605C251.011 83.9967 251.011 83.0105 252.065 82.4024C253.118 81.7941 254.827 81.7941 255.881 82.4024Z" fill="#72C09C"/>
<path d="M246.751 87.6038C247.806 88.2121 247.806 89.1983 246.751 89.8065C245.698 90.4148 243.99 90.4148 242.936 89.8065C241.883 89.1983 241.883 88.2121 242.936 87.6038C243.99 86.9955 245.698 86.9955 246.751 87.6038Z" fill="#72C09C"/>
<path d="M237.658 92.9114C238.711 93.5197 238.711 94.5059 237.658 95.1142C236.604 95.7224 234.896 95.7224 233.842 95.1142C232.789 94.5059 232.789 93.5197 233.842 92.9114C234.896 92.3031 236.604 92.3031 237.658 92.9114Z" fill="#72C09C"/>
<path d="M228.6 98.1129C229.653 98.7211 229.653 99.7073 228.6 100.316C227.546 100.924 225.838 100.924 224.784 100.316C223.731 99.7073 223.731 98.7211 224.784 98.1129C225.838 97.5047 227.546 97.5047 228.6 98.1129Z" fill="#72C09C"/>
<path d="M219.683 103.244C220.736 103.852 220.736 104.838 219.683 105.446C218.629 106.055 216.921 106.055 215.867 105.446C214.814 104.838 214.814 103.852 215.867 103.244C216.921 102.635 218.629 102.635 219.683 103.244Z" fill="#72C09C"/>
<path d="M210.731 108.41C211.784 109.018 211.784 110.004 210.731 110.612C209.677 111.221 207.968 111.221 206.915 110.612C205.861 110.004 205.861 109.018 206.915 108.41C207.968 107.801 209.677 107.801 210.731 108.41Z" fill="#72C09C"/>
<path d="M201.726 113.602C202.78 114.21 202.78 115.197 201.726 115.805C200.673 116.413 198.964 116.413 197.911 115.805C196.857 115.197 196.857 114.21 197.911 113.602C198.964 112.994 200.673 112.994 201.726 113.602Z" fill="#72C09C"/>
<path d="M192.774 118.874C193.828 119.482 193.828 120.468 192.774 121.076C191.721 121.685 190.012 121.685 188.958 121.076C187.905 120.468 187.905 119.482 188.958 118.874C190.012 118.266 191.721 118.266 192.774 118.874Z" fill="#72C09C"/>
<path d="M183.68 124.04C184.733 124.648 184.733 125.634 183.68 126.243C182.626 126.851 180.919 126.851 179.865 126.243C178.812 125.634 178.812 124.648 179.865 124.04C180.919 123.432 182.626 123.432 183.68 124.04Z" fill="#72C09C"/>
<path d="M174.48 129.348C175.534 129.956 175.534 130.942 174.48 131.55C173.426 132.158 171.719 132.158 170.665 131.55C169.612 130.942 169.612 129.956 170.665 129.348C171.719 128.74 173.426 128.74 174.48 129.348Z" fill="#72C09C"/>
<path d="M165.536 134.542C166.589 135.15 166.589 136.136 165.536 136.745C164.481 137.353 162.773 137.353 161.72 136.745C160.666 136.136 160.666 135.15 161.72 134.542C162.773 133.934 164.481 133.934 165.536 134.542Z" fill="#72C09C"/>
<path d="M156.582 139.708C157.637 140.316 157.637 141.303 156.582 141.911C155.529 142.519 153.821 142.519 152.768 141.911C151.714 141.303 151.714 140.316 152.768 139.708C153.821 139.1 155.529 139.1 156.582 139.708Z" fill="#72C09C"/>
<path d="M147.56 144.909C148.613 145.518 148.613 146.504 147.56 147.112C146.506 147.72 144.798 147.72 143.745 147.112C142.69 146.504 142.69 145.518 143.745 144.909C144.798 144.301 146.506 144.301 147.56 144.909Z" fill="#72C09C"/>
</g>
<path opacity="0.75" d="M262.022 64.6812C260.187 65.5288 259.184 67.8443 259.365 70.7682C260.728 71.9347 261.951 73.5482 262.84 75.4747C263.497 76.8976 263.905 78.3459 264.076 79.7263L263.233 79.8304C263.073 78.5406 262.691 77.177 262.069 75.8307C260.984 73.4812 259.392 71.6577 257.715 70.6C256.034 69.5396 254.321 69.2754 252.929 69.918C251.106 70.7595 250.105 73.0479 250.267 75.9418C251.661 77.1129 252.912 78.7501 253.817 80.7116C254.475 82.1344 254.882 83.5827 255.053 84.9631L254.211 85.0673C254.051 83.7775 253.667 82.4139 253.046 81.0676C251.961 78.7181 250.369 76.8945 248.692 75.8368C247.011 74.7764 245.297 74.5123 243.906 75.1549C242.071 76.002 241.068 78.3153 241.248 81.2366C242.597 82.4007 243.806 84.0032 244.688 85.9131C245.345 87.3359 245.754 88.7841 245.924 90.1645L245.081 90.2688C244.921 88.9789 244.539 87.6154 243.917 86.269C242.832 83.9196 241.24 82.096 239.562 81.0382C237.882 79.978 236.169 79.7138 234.777 80.3563C232.925 81.2111 231.922 83.5592 232.124 86.5183C233.485 87.6845 234.706 89.2965 235.595 91.2207C236.251 92.6436 236.659 94.0918 236.83 95.4721L235.988 95.5764C235.828 94.2865 235.445 92.923 234.824 91.5766C233.739 89.2272 232.146 87.4036 230.469 86.3459C228.787 85.2856 227.074 85.0214 225.683 85.6639C223.862 86.5049 222.861 88.7907 223.022 91.682C224.401 92.8511 225.639 94.4772 226.536 96.4221C227.193 97.845 227.601 99.2933 227.772 100.674L226.929 100.778C226.77 99.488 226.387 98.1244 225.765 96.7781C224.681 94.4286 223.087 92.6051 221.411 91.5474C219.729 90.487 218.016 90.2228 216.624 90.8654C214.844 91.6872 213.848 93.8891 213.954 96.6872C215.394 97.8641 216.689 99.5372 217.62 101.553C218.276 102.976 218.684 104.424 218.855 105.804L218.013 105.909C217.853 104.619 217.47 103.255 216.849 101.909C215.914 99.8875 214.605 98.2554 213.19 97.1654L213.131 97.1699L213.127 97.1169C212.918 96.9586 212.707 96.8122 212.494 96.678C210.812 95.6177 209.099 95.3536 207.708 95.996C205.914 96.8244 204.915 99.0547 205.04 101.885C206.464 103.06 207.745 104.721 208.667 106.719C209.324 108.142 209.732 109.59 209.903 110.97L209.061 111.075C208.901 109.785 208.517 108.421 207.896 107.075C206.811 104.725 205.219 102.902 203.542 101.844C201.86 100.784 200.147 100.52 198.756 101.162C196.946 101.998 195.946 104.259 196.091 107.123C197.493 108.295 198.752 109.939 199.663 111.911C200.319 113.334 200.728 114.782 200.899 116.162L200.056 116.267C199.896 114.977 199.513 113.614 198.892 112.267C197.807 109.917 196.215 108.094 194.538 107.036C192.856 105.976 191.143 105.712 189.752 106.354C187.934 107.193 186.933 109.471 187.089 112.353C188.511 113.529 189.789 115.187 190.711 117.184C191.367 118.606 191.776 120.054 191.946 121.434L191.104 121.539C190.944 120.249 190.561 118.886 189.94 117.539C188.855 115.19 187.263 113.366 185.586 112.308C183.905 111.248 182.191 110.984 180.8 111.626C178.979 112.467 177.978 114.75 178.138 117.639C179.502 118.806 180.726 120.421 181.617 122.349C182.274 123.773 182.682 125.221 182.853 126.601L182.01 126.705C181.851 125.415 181.468 124.051 180.846 122.705C179.761 120.355 178.168 118.532 176.491 117.475C174.811 116.414 173.097 116.15 171.705 116.793C169.838 117.655 168.833 120.037 169.059 123.033L169.04 123.034C170.363 124.194 171.549 125.777 172.417 127.657C173.074 129.08 173.482 130.528 173.653 131.908L172.81 132.012C172.651 130.723 172.268 129.359 171.646 128.013C170.562 125.663 168.968 123.839 167.292 122.782C165.611 121.722 163.897 121.458 162.505 122.1C160.706 122.931 159.707 125.171 159.839 128.012C161.265 129.188 162.548 130.85 163.471 132.851C164.128 134.275 164.537 135.723 164.708 137.103L163.864 137.207C163.706 135.917 163.322 134.553 162.7 133.207C161.615 130.857 160.023 129.034 158.346 127.977C156.665 126.916 154.952 126.652 153.56 127.294C151.766 128.123 150.768 130.353 150.893 133.183C152.316 134.358 153.596 136.019 154.519 138.017C155.176 139.44 155.585 140.888 155.756 142.269L154.912 142.373C154.753 141.083 154.37 139.72 153.748 138.373C152.663 136.024 151.071 134.2 149.395 133.142C147.713 132.082 146 131.817 144.608 132.461C142.793 133.298 141.792 135.571 141.945 138.447C143.339 139.619 144.59 141.256 145.496 143.218C146.153 144.642 146.562 146.09 146.733 147.47L145.889 147.574C145.73 146.285 145.347 144.921 144.725 143.575C143.64 141.226 142.048 139.402 140.371 138.344C138.69 137.284 136.977 137.019 135.585 137.662C133.717 138.524 132.712 140.906 132.938 143.902L132.091 143.967C131.853 140.815 132.89 137.97 135.23 136.891C136.969 136.087 138.993 136.471 140.824 137.626C140.91 137.68 140.996 137.736 141.081 137.794C141.106 135.041 142.156 132.658 144.252 131.69C145.992 130.887 148.017 131.269 149.847 132.424C149.91 132.464 149.972 132.504 150.034 132.546C150.08 129.828 151.129 127.482 153.205 126.523C154.944 125.72 156.968 126.104 158.799 127.258C158.859 127.296 158.919 127.335 158.979 127.374C159.019 124.647 160.069 122.29 162.15 121.329C163.889 120.526 165.914 120.909 167.744 122.064C167.891 122.156 168.035 122.253 168.179 122.355C168.146 119.506 169.196 117.016 171.35 116.022C173.089 115.218 175.113 115.602 176.944 116.756C177.054 116.826 177.164 116.897 177.273 116.973C177.294 114.215 178.344 111.825 180.443 110.855C182.183 110.052 184.208 110.435 186.039 111.59C186.101 111.629 186.162 111.67 186.225 111.711C186.244 108.948 187.293 106.554 189.396 105.583C191.135 104.78 193.16 105.163 194.991 106.318C195.07 106.368 195.15 106.42 195.23 106.473C195.259 103.73 196.31 101.356 198.4 100.391C200.139 99.588 202.164 99.9711 203.995 101.126C204.057 101.165 204.12 101.206 204.183 101.247C204.227 98.5295 205.277 96.1831 207.352 95.2251C209.091 94.4219 211.116 94.805 212.947 95.9598C212.999 95.9921 213.05 96.0249 213.101 96.0584C213.158 93.3655 214.208 91.0455 216.269 90.0943C218.008 89.2912 220.033 89.6743 221.863 90.8291C221.962 90.8908 222.059 90.9549 222.157 91.0211C222.175 88.2585 223.226 85.8633 225.327 84.8929C227.066 84.0898 229.091 84.4728 230.922 85.6276C231.032 85.6968 231.141 85.769 231.25 85.8438C231.235 83.0264 232.286 80.5709 234.421 79.5853C236.16 78.7822 238.185 79.1652 240.016 80.32C240.138 80.3967 240.259 80.477 240.379 80.5606C240.385 77.7776 241.435 75.3599 243.55 74.3838C245.289 73.5806 247.314 73.9638 249.145 75.1185C249.231 75.1727 249.317 75.2287 249.402 75.2864C249.418 72.5191 250.469 70.1188 252.572 69.1469C254.313 68.3438 256.337 68.727 258.168 69.8817C258.278 69.9508 258.387 70.023 258.495 70.0978C258.5 67.3102 259.55 64.8875 261.667 63.9101C263.406 63.1069 265.431 63.4901 267.262 64.6448C269.097 65.8022 270.791 67.7616 271.933 70.2379C272.591 71.6607 272.999 73.109 273.17 74.4894L272.327 74.5936C272.168 73.3038 271.784 71.9402 271.162 70.5939C270.078 68.2444 268.486 66.4208 266.809 65.3631C265.127 64.3027 263.414 64.0386 262.022 64.6812Z" fill="#72C09C"/>
<path opacity="0.5" d="M130.173 152.795L168.411 174.871" stroke="#72C09C" stroke-width="0.849219"/>
<path opacity="0.75" d="M189.606 152.57L182.32 156.777C181.236 157.402 181.236 158.416 182.32 159.041L189.606 163.248C190.689 163.873 192.445 163.873 193.529 163.248L200.815 159.041C201.898 158.416 201.898 157.402 200.815 156.777L193.529 152.57C192.445 151.945 190.689 151.945 189.606 152.57Z" fill="#F4FAF8" stroke="#72C09C" stroke-width="0.849219"/>
<path opacity="0.75" d="M281.129 205.455L273.842 209.661C272.759 210.287 272.759 211.301 273.842 211.926L281.129 216.132C282.212 216.758 283.968 216.758 285.052 216.132L292.338 211.926C293.421 211.301 293.421 210.287 292.338 209.661L285.052 205.455C283.968 204.83 282.212 204.83 281.129 205.455Z" stroke="#72C09C" stroke-width="0.849219"/>
<path opacity="0.75" d="M249.425 187.338L242.138 191.545C241.055 192.17 241.055 193.184 242.138 193.809L249.425 198.016C250.508 198.641 252.264 198.641 253.347 198.016L260.634 193.809C261.717 193.184 261.717 192.17 260.634 191.545L253.347 187.338C252.264 186.713 250.508 186.713 249.425 187.338Z" fill="#F4FAF8" stroke="#72C09C" stroke-width="0.849219"/>
<path opacity="0.75" d="M217.347 168.705L210.061 172.912C208.978 173.537 208.978 174.551 210.061 175.176L217.347 179.383C218.431 180.008 220.187 180.008 221.27 179.383L228.556 175.176C229.64 174.551 229.64 173.537 228.556 172.912L221.27 168.705C220.187 168.08 218.431 168.08 217.347 168.705Z" fill="#F4FAF8" stroke="#72C09C" stroke-width="0.849219"/>
<path opacity="0.75" d="M314.037 224.704L306.751 228.91C305.667 229.536 305.667 230.55 306.751 231.175L314.037 235.381C315.12 236.007 316.876 236.007 317.96 235.381L325.246 231.175C326.329 230.55 326.329 229.536 325.246 228.91L317.96 224.704C316.876 224.078 315.12 224.078 314.037 224.704Z" stroke="#72C09C" stroke-width="0.849219"/>
<path d="M195.272 146.875V157.679H186.765M223.013 163.01V173.814H214.506M255.091 181.643V192.447H246.584" stroke="#72C09C" stroke-width="1.69844" stroke-linecap="round" stroke-linejoin="round"/>
<g opacity="0.6">
<path d="M306.268 206.961C304.942 206.194 304.942 204.953 306.268 204.187L358.491 174.039C359.816 173.274 361.968 173.274 363.294 174.039C364.621 174.805 364.621 176.047 363.294 176.812L311.072 206.961C309.745 207.726 307.595 207.726 306.268 206.961Z" fill="#DFF1E9"/>
<path d="M206.91 147.232C205.584 146.466 205.584 145.225 206.91 144.458L223.643 134.799C224.387 134.37 225.301 134.37 226.045 134.799C227.646 135.723 227.646 138.034 226.045 138.959L211.714 147.232C210.387 147.998 208.237 147.998 206.91 147.232Z" fill="#DFF1E9"/>
<path d="M235.611 133.435C234.868 133.865 233.953 133.865 233.209 133.435C231.608 132.511 231.608 130.2 233.209 129.275L256.487 115.837C257.231 115.408 258.146 115.408 258.89 115.837C260.491 116.761 260.491 119.073 258.89 119.997L235.611 133.435Z" fill="#DFF1E9"/>
<path d="M266.054 114.475C266.798 114.903 267.713 114.903 268.455 114.475L289.566 102.288C290.892 101.522 290.892 100.281 289.566 99.515C288.239 98.7491 286.088 98.7491 284.761 99.515L266.054 110.315C264.453 111.239 264.453 113.55 266.054 114.475Z" fill="#DFF1E9"/>
<path d="M234.651 163.368C233.325 162.601 233.325 161.36 234.651 160.593L262.786 144.352C263.529 143.923 264.445 143.923 265.187 144.352C266.789 145.276 266.789 147.587 265.187 148.512L239.455 163.368C238.128 164.133 235.978 164.133 234.651 163.368Z" fill="#DFF1E9"/>
<path d="M274.754 142.989C274.011 143.418 273.095 143.418 272.353 142.989C270.752 142.065 270.752 139.754 272.353 138.829L291.028 128.048C291.77 127.619 292.686 127.619 293.429 128.048C295.03 128.972 295.03 131.283 293.429 132.208L274.754 142.989Z" fill="#DFF1E9"/>
<path d="M300.594 126.685C301.337 127.114 302.253 127.114 302.996 126.685L317.307 118.424C318.633 117.657 318.633 116.416 317.307 115.651C315.98 114.884 313.83 114.884 312.503 115.651L300.594 122.525C298.993 123.449 298.993 125.761 300.594 126.685Z" fill="#DFF1E9"/>
<path d="M242.86 167.67C241.534 168.437 241.534 169.678 242.86 170.444C244.187 171.21 246.337 171.21 247.664 170.444L264.685 160.618C266.286 159.694 266.286 157.382 264.685 156.458C263.941 156.029 263.026 156.029 262.282 156.458L242.86 167.67Z" fill="#DFF1E9"/>
<path d="M271.849 150.935C270.248 151.86 270.248 154.171 271.849 155.095C272.593 155.524 273.508 155.524 274.25 155.095L293.302 144.097C294.628 143.332 294.628 142.09 293.302 141.324C291.975 140.559 289.825 140.559 288.498 141.324L271.849 150.935Z" fill="#DFF1E9"/>
<path d="M266.729 179.228C265.403 179.993 265.403 181.234 266.729 182.001C268.056 182.766 270.206 182.766 271.533 182.001L314.799 157.023C316.4 156.098 316.4 153.787 314.799 152.863C314.055 152.434 313.14 152.434 312.397 152.863L266.729 179.228Z" fill="#DFF1E9"/>
<path d="M321.964 147.34C320.362 148.265 320.362 150.576 321.964 151.5C322.707 151.929 323.622 151.929 324.366 151.5L349.385 137.056C350.711 136.291 350.711 135.049 349.385 134.283C348.058 133.518 345.907 133.518 344.58 134.283L321.964 147.34Z" fill="#DFF1E9"/>
<path d="M298.342 197.393C297.016 198.159 297.016 199.4 298.342 200.167C299.669 200.932 301.819 200.932 303.146 200.167L331.689 183.689C333.29 182.765 333.29 180.453 331.689 179.529C330.946 179.1 330.03 179.1 329.288 179.529L298.342 197.393Z" fill="#DFF1E9"/>
<path d="M338.854 174.005C337.253 174.931 337.253 177.242 338.854 178.166C339.597 178.595 340.513 178.595 341.256 178.166L380.998 155.223C382.324 154.458 382.324 153.215 380.998 152.45C379.671 151.683 377.521 151.683 376.194 152.45L338.854 174.005Z" fill="#DFF1E9"/>
<path d="M331.341 216.593C330.014 217.359 330.014 218.6 331.341 219.366C332.667 220.132 334.818 220.132 336.144 219.366L371.82 198.771C373.421 197.846 373.421 195.535 371.82 194.61C371.077 194.182 370.161 194.182 369.418 194.61L331.341 216.593Z" fill="#DFF1E9"/>
</g>
<path d="M112.859 191.861L111.727 192.038L108.436 194.48L107.445 197.345L107.94 199.858L114.274 203.608L114.592 204.494L115.513 206.793L227.397 272.29L244.664 274.907L246.045 274.659L246.221 273.244L234.615 259.869L167.952 221.583L167.669 218.116L131.046 196.744L127.685 195.116L126.163 195.577L124.925 196.638L122.696 195.47L121.033 195.116L119.334 195.505L112.859 191.861Z" fill="#F4FAF8"/>
<path opacity="0.75" fill-rule="evenodd" clip-rule="evenodd" d="M114.522 192.157L119.614 195.088C119.666 195.063 119.718 195.038 119.772 195.013C120.99 194.449 122.353 194.713 123.438 195.337L124.703 196.065C124.796 195.928 124.938 195.799 125.131 195.688L126.038 195.165C126.782 194.734 127.99 194.734 128.734 195.165L167.606 217.606C168.024 217.847 168.208 218.172 168.157 218.488H168.165V220.84C168.165 220.912 168.152 220.983 168.128 221.052L234.904 259.474C235.059 259.563 235.197 259.678 235.313 259.813L246.39 272.797C247.324 273.891 246.401 275.557 244.979 275.348L227.764 272.812C227.567 272.783 227.377 272.716 227.205 272.616L116.327 207.743C115.274 207.127 114.384 206.112 114.241 204.811C114.219 204.6 114.203 204.389 114.194 204.178L109.268 201.296C108.222 200.685 107.291 199.656 107.244 198.321C107.199 197.042 107.501 195.734 108.188 194.544C108.847 193.402 109.779 192.513 110.853 191.912C112.049 191.242 113.445 191.538 114.522 192.157ZM167.509 221.675L166.229 222.413C165.487 222.842 164.283 222.844 163.538 222.417L136.948 207.186L134.495 208.795C134.001 209.249 132.834 209.391 132.072 208.957L125.149 205.012C124.785 204.805 124.582 204.523 124.582 204.229V196.975L123.014 196.073C122.084 195.538 121.019 195.371 120.128 195.784C118.541 196.519 117.156 197.734 116.214 199.365C115.241 201.05 114.889 202.922 115.086 204.718C115.19 205.67 115.854 206.482 116.756 207.011L226.957 271.487C226.474 269.111 226.823 266.556 228.131 264.292C229.413 262.073 231.395 260.51 233.637 259.724L167.509 221.675ZM133.664 208.409L133.649 208.418L133.656 208.423C133.532 208.614 133.084 208.69 132.803 208.529L125.879 204.585C125.715 204.49 125.622 204.362 125.622 204.229L125.621 197.528L164.003 219.686C164.168 219.781 164.354 219.854 164.554 219.907V222.098C164.451 222.075 164.354 222.038 164.271 221.99L136.321 205.98C135.332 205.413 133.65 205.823 133.663 206.628L133.689 208.313C133.689 208.347 133.68 208.38 133.664 208.409ZM134.719 207.716L136.191 206.751L135.589 206.406C135.259 206.217 134.699 206.354 134.702 206.622L134.719 207.716ZM125.621 196.537V196.478H125.613C125.607 196.346 125.691 196.213 125.867 196.112L126.773 195.589C127.111 195.393 127.66 195.393 127.999 195.589L166.87 218.03C167.209 218.225 167.209 218.542 166.87 218.738L165.965 219.261C165.626 219.456 165.077 219.456 164.738 219.261L125.867 196.82C125.729 196.74 125.647 196.64 125.621 196.537ZM165.495 221.989C165.465 222.006 165.435 222.02 165.403 222.035V220.007C165.874 220 166.34 219.893 166.701 219.686L167.124 219.441V220.84C167.124 220.973 167.032 221.101 166.87 221.195L165.495 221.989ZM234.617 260.311C232.275 260.935 230.173 262.452 228.866 264.717C227.544 267.006 227.289 269.62 227.948 271.98L245.103 274.508C245.749 274.603 246.168 273.845 245.745 273.348L234.666 260.364C234.65 260.346 234.634 260.328 234.617 260.311ZM114.098 192.893L118.743 195.567C117.436 196.378 116.302 197.515 115.478 198.941C114.701 200.287 114.284 201.744 114.201 203.198L109.696 200.562C108.785 200.029 108.125 199.222 108.093 198.292C108.053 197.167 108.318 196.017 108.923 194.969C109.504 193.963 110.323 193.181 111.267 192.653C112.1 192.187 113.159 192.353 114.098 192.893Z" fill="#72C09C"/>
</g>
</g>
<defs>
<clipPath id="clip0_123_15657">
<rect width="338.555" height="247.972" fill="white" transform="translate(0.195801 0.162476)"/>
</clipPath>
</defs>
</svg>
