<svg width="41" height="41" viewBox="0 0 41 41" fill="none" xmlns="http://www.w3.org/2000/svg">
<path d="M14.0169 40.3033L10.5624 34.2081L4.01691 32.6843L4.65328 25.6366L0.19873 20.3033L4.65328 14.97L4.01691 7.92236L10.5624 6.39855L14.0169 0.303314L20.1987 3.06522L26.3805 0.303314L29.8351 6.39855L36.3806 7.92236L35.7442 14.97L40.1987 20.3033L35.7442 25.6366L36.3806 32.6843L29.8351 34.2081L26.3805 40.3033L20.1987 37.5414L14.0169 40.3033ZM18.2896 27.0652L28.5624 16.3033L26.0169 13.5414L18.2896 21.6366L14.3805 17.6366L11.8351 20.3033L18.2896 27.0652Z" fill="#3897F0"/>
<path d="M14.0169 40.3033L10.5624 34.2081L4.01691 32.6843L4.65328 25.6366L0.19873 20.3033L4.65328 14.97L4.01691 7.92236L10.5624 6.39855L14.0169 0.303314L20.1987 3.06522L26.3805 0.303314L29.8351 6.39855L36.3806 7.92236L35.7442 14.97L40.1987 20.3033L35.7442 25.6366L36.3806 32.6843L29.8351 34.2081L26.3805 40.3033L20.1987 37.5414L14.0169 40.3033ZM18.2896 27.0652L28.5624 16.3033L26.0169 13.5414L18.2896 21.6366L14.3805 17.6366L11.8351 20.3033L18.2896 27.0652Z" fill="url(#paint0_linear_123_16660)"/>
<defs>
<linearGradient id="paint0_linear_123_16660" x1="20.1987" y1="0.303314" x2="20.1987" y2="40.3033" gradientUnits="userSpaceOnUse">
<stop offset="0.245" stop-color="#3897F0"/>
<stop offset="1" stop-color="#8837E9" stop-opacity="0.8"/>
</linearGradient>
</defs>
</svg>
