<svg width="341" height="250" viewBox="0 0 341 250" fill="none" xmlns="http://www.w3.org/2000/svg">
<g clip-path="url(#clip0_123_15148)">
<mask id="mask0_123_15148" style="mask-type:luminance" maskUnits="userSpaceOnUse" x="0" y="0" width="341" height="250">
<path d="M340.309 0.396851H0.621887V249.501H340.309V0.396851Z" fill="white"/>
</mask>
<g mask="url(#mask0_123_15148)">
<path opacity="0.75" fill-rule="evenodd" clip-rule="evenodd" d="M58.6081 210.528C58.6373 209.653 59.2294 208.785 60.384 208.119L285.36 78.2403C287.729 76.8724 291.571 76.8724 293.94 78.2403L548.708 225.318C550.148 226.149 550.713 227.295 550.403 228.371V234.278C550.403 235.207 549.763 236.098 548.626 236.755L323.541 366.697C321.171 368.064 317.33 368.064 314.961 366.697L60.3637 219.718C59.226 219.06 58.5867 218.17 58.5867 217.241V210.528H58.6081ZM59.6268 212.541C59.8443 212.729 60.0968 212.906 60.384 213.072L315.152 360.15C317.521 361.518 321.363 361.518 323.733 360.15L548.708 230.271C548.951 230.131 549.17 229.981 549.362 229.825V234.278C549.362 235.048 548.833 235.787 547.89 236.33L322.805 366.272C320.842 367.405 317.659 367.405 315.696 366.272L61.0992 219.294C60.1565 218.749 59.6268 218.011 59.6268 217.241V212.541ZM549.44 227.916C549.497 227.134 549.008 226.34 547.973 225.742L293.205 78.6648C291.242 77.5315 288.059 77.5315 286.095 78.6648L61.1195 208.544C59.1562 209.677 59.1562 211.515 61.1195 212.647L315.887 359.725C317.85 360.859 321.033 360.859 322.997 359.725L547.973 229.847C548.722 229.414 549.186 228.879 549.362 228.319V227.916H549.44Z" fill="#8CAEF2"/>
<path d="M60.384 213.072C60.0968 212.906 59.8445 212.729 59.6268 212.541V217.241C59.6268 218.011 60.1565 218.749 61.0993 219.294L315.696 366.272C317.659 367.405 320.842 367.405 322.805 366.272L547.89 236.33C548.833 235.787 549.363 235.048 549.363 234.279V229.825C549.17 229.981 548.951 230.131 548.708 230.271L323.733 360.15C321.363 361.518 317.521 361.518 315.152 360.15L60.384 213.072Z" fill="#F3F6FC"/>
<path d="M547.973 225.742C549.008 226.34 549.498 227.134 549.44 227.916H549.363V228.319C549.185 228.879 548.722 229.414 547.973 229.847L322.997 359.725C321.033 360.859 317.85 360.859 315.887 359.725L61.1194 212.647C59.1562 211.515 59.1562 209.677 61.1194 208.544L286.095 78.6648C288.059 77.5315 291.241 77.5315 293.205 78.6648L547.973 225.742Z" fill="#F3F6FC"/>
<g opacity="0.5">
<path d="M74.3578 209.592C74.8186 209.858 74.8186 210.29 74.3578 210.556C73.8969 210.822 73.1497 210.822 72.6889 210.556C72.2281 210.29 72.2281 209.858 72.6889 209.592C73.1497 209.326 73.8969 209.326 74.3578 209.592Z" fill="#8CAEF2"/>
<path d="M87.1525 202.206C87.6133 202.472 87.6133 202.904 87.1525 203.17C86.6916 203.436 85.9444 203.436 85.4836 203.17C85.0227 202.904 85.0227 202.472 85.4836 202.206C85.9444 201.94 86.6916 201.94 87.1525 202.206Z" fill="#8CAEF2"/>
<path d="M99.9469 194.82C100.408 195.087 100.408 195.518 99.9469 195.784C99.486 196.049 98.7388 196.049 98.278 195.784C97.8172 195.518 97.8172 195.087 98.278 194.82C98.7388 194.554 99.486 194.554 99.9469 194.82Z" fill="#8CAEF2"/>
<path d="M112.741 187.433C113.202 187.7 113.202 188.131 112.741 188.397C112.28 188.663 111.533 188.663 111.072 188.397C110.611 188.131 110.611 187.7 111.072 187.433C111.533 187.167 112.28 187.167 112.741 187.433Z" fill="#8CAEF2"/>
<path d="M125.535 180.047C125.996 180.313 125.996 180.745 125.535 181.011C125.074 181.277 124.328 181.277 123.867 181.011C123.407 180.745 123.407 180.313 123.867 180.047C124.328 179.781 125.074 179.781 125.535 180.047Z" fill="#8CAEF2"/>
<path d="M138.33 172.661C138.791 172.928 138.791 173.359 138.33 173.625C137.869 173.891 137.123 173.891 136.662 173.625C136.201 173.359 136.201 172.928 136.662 172.661C137.123 172.395 137.869 172.395 138.33 172.661Z" fill="#8CAEF2"/>
<path d="M151.125 165.274C151.586 165.54 151.586 165.972 151.125 166.238C150.664 166.504 149.917 166.504 149.456 166.238C148.995 165.972 148.995 165.54 149.456 165.274C149.917 165.008 150.664 165.008 151.125 165.274Z" fill="#8CAEF2"/>
<path d="M163.92 157.889C164.381 158.155 164.381 158.586 163.92 158.852C163.459 159.118 162.712 159.118 162.251 158.852C161.79 158.586 161.79 158.155 162.251 157.889C162.712 157.622 163.459 157.622 163.92 157.889Z" fill="#8CAEF2"/>
<path d="M176.714 150.503C177.174 150.769 177.174 151.2 176.714 151.466C176.253 151.732 175.507 151.732 175.046 151.466C174.585 151.2 174.585 150.769 175.046 150.503C175.507 150.236 176.253 150.236 176.714 150.503Z" fill="#8CAEF2"/>
<path d="M189.509 143.115C189.969 143.382 189.969 143.813 189.509 144.079C189.048 144.345 188.3 144.345 187.84 144.079C187.379 143.813 187.379 143.382 187.84 143.115C188.3 142.851 189.048 142.851 189.509 143.115Z" fill="#8CAEF2"/>
<path d="M202.304 135.73C202.764 135.996 202.764 136.427 202.304 136.693C201.843 136.959 201.095 136.959 200.635 136.693C200.174 136.427 200.174 135.996 200.635 135.73C201.095 135.464 201.843 135.464 202.304 135.73Z" fill="#8CAEF2"/>
<path d="M215.098 128.344C215.559 128.61 215.559 129.041 215.098 129.307C214.637 129.573 213.89 129.573 213.429 129.307C212.968 129.041 212.968 128.61 213.429 128.344C213.89 128.078 214.637 128.078 215.098 128.344Z" fill="#8CAEF2"/>
<path d="M227.892 120.958C228.353 121.224 228.353 121.654 227.892 121.92C227.431 122.186 226.684 122.186 226.223 121.92C225.762 121.654 225.762 121.224 226.223 120.958C226.684 120.692 227.431 120.692 227.892 120.958Z" fill="#8CAEF2"/>
<path d="M240.687 113.571C241.148 113.837 241.148 114.268 240.687 114.534C240.226 114.8 239.479 114.8 239.018 114.534C238.557 114.268 238.557 113.837 239.018 113.571C239.479 113.305 240.226 113.305 240.687 113.571Z" fill="#8CAEF2"/>
<path d="M253.482 106.185C253.943 106.451 253.943 106.882 253.482 107.148C253.021 107.414 252.274 107.414 251.813 107.148C251.352 106.882 251.352 106.451 251.813 106.185C252.274 105.919 253.021 105.919 253.482 106.185Z" fill="#8CAEF2"/>
<path d="M266.276 98.7984C266.737 99.0644 266.737 99.4957 266.276 99.7618C265.815 100.028 265.068 100.028 264.607 99.7618C264.146 99.4957 264.146 99.0644 264.607 98.7984C265.068 98.5324 265.815 98.5324 266.276 98.7984Z" fill="#8CAEF2"/>
<path d="M279.071 91.412C279.531 91.6781 279.531 92.1094 279.071 92.3755C278.61 92.6416 277.862 92.6416 277.402 92.3755C276.941 92.1094 276.941 91.6781 277.402 91.412C277.862 91.146 278.61 91.146 279.071 91.412Z" fill="#8CAEF2"/>
<path d="M291.865 84.0259C292.326 84.2919 292.326 84.7232 291.865 84.9893C291.405 85.2553 290.657 85.2553 290.196 84.9893C289.736 84.7232 289.736 84.2919 290.196 84.0259C290.657 83.7598 291.405 83.7598 291.865 84.0259Z" fill="#8CAEF2"/>
<path d="M87.1525 216.979C87.6133 217.245 87.6133 217.677 87.1525 217.942C86.6916 218.208 85.9444 218.208 85.4836 217.942C85.0227 217.677 85.0227 217.245 85.4836 216.979C85.9444 216.713 86.6916 216.713 87.1525 216.979Z" fill="#8CAEF2"/>
<path d="M99.9469 209.592C100.408 209.858 100.408 210.29 99.9469 210.556C99.486 210.822 98.7388 210.822 98.278 210.556C97.8172 210.29 97.8172 209.858 98.278 209.592C98.7388 209.326 99.486 209.326 99.9469 209.592Z" fill="#8CAEF2"/>
<path d="M112.742 202.206C113.202 202.472 113.202 202.904 112.742 203.17C112.281 203.436 111.534 203.436 111.073 203.17C110.612 202.904 110.612 202.472 111.073 202.206C111.534 201.94 112.281 201.94 112.742 202.206Z" fill="#8CAEF2"/>
<path d="M125.536 194.82C125.997 195.087 125.997 195.518 125.536 195.784C125.076 196.05 124.328 196.05 123.867 195.784C123.407 195.518 123.407 195.087 123.867 194.82C124.328 194.554 125.076 194.554 125.536 194.82Z" fill="#8CAEF2"/>
<path d="M138.33 187.433C138.791 187.7 138.791 188.131 138.33 188.397C137.869 188.663 137.123 188.663 136.662 188.397C136.201 188.131 136.201 187.7 136.662 187.433C137.123 187.167 137.869 187.167 138.33 187.433Z" fill="#8CAEF2"/>
<path d="M151.125 180.047C151.586 180.313 151.586 180.745 151.125 181.011C150.664 181.277 149.917 181.277 149.456 181.011C148.995 180.745 148.995 180.313 149.456 180.047C149.917 179.781 150.664 179.781 151.125 180.047Z" fill="#8CAEF2"/>
<path d="M163.92 172.661C164.381 172.928 164.381 173.359 163.92 173.625C163.459 173.891 162.712 173.891 162.251 173.625C161.79 173.359 161.79 172.928 162.251 172.661C162.712 172.395 163.459 172.395 163.92 172.661Z" fill="#8CAEF2"/>
<path d="M176.714 165.274C177.174 165.54 177.174 165.972 176.714 166.238C176.253 166.504 175.507 166.504 175.046 166.238C174.585 165.972 174.585 165.54 175.046 165.274C175.507 165.008 176.253 165.008 176.714 165.274Z" fill="#8CAEF2"/>
<path d="M189.509 157.889C189.969 158.155 189.969 158.586 189.509 158.852C189.048 159.118 188.3 159.118 187.84 158.852C187.379 158.586 187.379 158.155 187.84 157.889C188.3 157.622 189.048 157.622 189.509 157.889Z" fill="#8CAEF2"/>
<path d="M202.304 150.503C202.764 150.769 202.764 151.2 202.304 151.466C201.843 151.732 201.095 151.732 200.635 151.466C200.174 151.2 200.174 150.769 200.635 150.503C201.095 150.236 201.843 150.236 202.304 150.503Z" fill="#8CAEF2"/>
<path d="M215.098 143.115C215.559 143.382 215.559 143.813 215.098 144.079C214.637 144.345 213.89 144.345 213.429 144.079C212.968 143.813 212.968 143.382 213.429 143.115C213.89 142.851 214.637 142.851 215.098 143.115Z" fill="#8CAEF2"/>
<path d="M227.892 135.73C228.353 135.996 228.353 136.427 227.892 136.693C227.431 136.959 226.684 136.959 226.223 136.693C225.762 136.427 225.762 135.996 226.223 135.73C226.684 135.464 227.431 135.464 227.892 135.73Z" fill="#8CAEF2"/>
<path d="M240.687 128.344C241.148 128.61 241.148 129.041 240.687 129.307C240.226 129.573 239.479 129.573 239.018 129.307C238.557 129.041 238.557 128.61 239.018 128.344C239.479 128.078 240.226 128.078 240.687 128.344Z" fill="#8CAEF2"/>
<path d="M253.482 120.958C253.943 121.224 253.943 121.654 253.482 121.92C253.021 122.186 252.274 122.186 251.813 121.92C251.352 121.654 251.352 121.224 251.813 120.958C252.274 120.692 253.021 120.692 253.482 120.958Z" fill="#8CAEF2"/>
<path d="M266.276 113.571C266.737 113.837 266.737 114.268 266.276 114.534C265.815 114.8 265.068 114.8 264.607 114.534C264.146 114.268 264.146 113.837 264.607 113.571C265.068 113.305 265.815 113.305 266.276 113.571Z" fill="#8CAEF2"/>
<path d="M279.071 106.185C279.531 106.451 279.531 106.882 279.071 107.148C278.61 107.414 277.862 107.414 277.402 107.148C276.941 106.882 276.941 106.451 277.402 106.185C277.862 105.919 278.61 105.919 279.071 106.185Z" fill="#8CAEF2"/>
<path d="M291.865 98.7984C292.326 99.0644 292.326 99.4957 291.865 99.7618C291.405 100.028 290.657 100.028 290.196 99.7618C289.736 99.4957 289.736 99.0644 290.196 98.7984C290.657 98.5324 291.405 98.5324 291.865 98.7984Z" fill="#8CAEF2"/>
<path d="M304.659 91.412C305.12 91.6781 305.12 92.1094 304.659 92.3755C304.198 92.6416 303.451 92.6416 302.99 92.3755C302.529 92.1094 302.529 91.6781 302.99 91.412C303.451 91.146 304.198 91.146 304.659 91.412Z" fill="#8CAEF2"/>
<path d="M99.9469 224.365C100.408 224.631 100.408 225.063 99.9469 225.329C99.486 225.595 98.7388 225.595 98.278 225.329C97.8172 225.063 97.8172 224.631 98.278 224.365C98.7388 224.099 99.486 224.099 99.9469 224.365Z" fill="#8CAEF2"/>
<path d="M112.741 216.979C113.202 217.245 113.202 217.677 112.741 217.943C112.28 218.208 111.533 218.208 111.072 217.943C110.611 217.677 110.611 217.245 111.072 216.979C111.533 216.713 112.28 216.713 112.741 216.979Z" fill="#8CAEF2"/>
<path d="M125.536 209.592C125.997 209.858 125.997 210.29 125.536 210.556C125.076 210.822 124.328 210.822 123.867 210.556C123.407 210.29 123.407 209.858 123.867 209.592C124.328 209.326 125.076 209.326 125.536 209.592Z" fill="#8CAEF2"/>
<path d="M291.864 113.571C292.325 113.837 292.325 114.268 291.864 114.534C291.403 114.8 290.657 114.8 290.196 114.534C289.736 114.268 289.736 113.837 290.196 113.571C290.657 113.305 291.403 113.305 291.864 113.571Z" fill="#8CAEF2"/>
<path d="M304.659 106.184C305.12 106.45 305.12 106.882 304.659 107.148C304.198 107.414 303.451 107.414 302.99 107.148C302.529 106.882 302.529 106.45 302.99 106.184C303.451 105.918 304.198 105.918 304.659 106.184Z" fill="#8CAEF2"/>
<path d="M317.454 98.7986C317.915 99.0645 317.915 99.4959 317.454 99.7619C316.993 100.028 316.246 100.028 315.785 99.7619C315.324 99.4959 315.324 99.0645 315.785 98.7986C316.246 98.5325 316.993 98.5325 317.454 98.7986Z" fill="#8CAEF2"/>
<path d="M112.742 231.751C113.202 232.017 113.202 232.449 112.742 232.715C112.281 232.981 111.534 232.981 111.073 232.715C110.612 232.449 110.612 232.017 111.073 231.751C111.534 231.485 112.281 231.485 112.742 231.751Z" fill="#8CAEF2"/>
<path d="M125.536 224.365C125.997 224.631 125.997 225.063 125.536 225.329C125.076 225.595 124.328 225.595 123.867 225.329C123.407 225.063 123.407 224.631 123.867 224.365C124.328 224.099 125.076 224.099 125.536 224.365Z" fill="#8CAEF2"/>
<path d="M138.33 216.979C138.791 217.245 138.791 217.677 138.33 217.942C137.869 218.208 137.123 218.208 136.662 217.942C136.201 217.677 136.201 217.245 136.662 216.979C137.123 216.713 137.869 216.713 138.33 216.979Z" fill="#8CAEF2"/>
<path d="M304.659 120.958C305.12 121.224 305.12 121.654 304.659 121.92C304.198 122.186 303.451 122.186 302.99 121.92C302.529 121.654 302.529 121.224 302.99 120.958C303.451 120.692 304.198 120.692 304.659 120.958Z" fill="#8CAEF2"/>
<path d="M317.454 113.571C317.915 113.837 317.915 114.268 317.454 114.534C316.993 114.8 316.246 114.8 315.785 114.534C315.324 114.268 315.324 113.837 315.785 113.571C316.246 113.305 316.993 113.305 317.454 113.571Z" fill="#8CAEF2"/>
<path d="M330.249 106.185C330.71 106.451 330.71 106.882 330.249 107.148C329.788 107.414 329.041 107.414 328.58 107.148C328.119 106.882 328.119 106.451 328.58 106.185C329.041 105.919 329.788 105.919 330.249 106.185Z" fill="#8CAEF2"/>
<path d="M125.536 239.138C125.997 239.404 125.997 239.835 125.536 240.101C125.076 240.367 124.328 240.367 123.867 240.101C123.407 239.835 123.407 239.404 123.867 239.138C124.328 238.872 125.076 238.872 125.536 239.138Z" fill="#8CAEF2"/>
<path d="M138.331 231.751C138.792 232.017 138.792 232.449 138.331 232.715C137.87 232.981 137.123 232.981 136.662 232.715C136.201 232.449 136.201 232.017 136.662 231.751C137.123 231.485 137.87 231.485 138.331 231.751Z" fill="#8CAEF2"/>
<path d="M151.125 224.365C151.586 224.631 151.586 225.063 151.125 225.329C150.664 225.595 149.917 225.595 149.456 225.329C148.995 225.063 148.995 224.631 149.456 224.365C149.917 224.099 150.664 224.099 151.125 224.365Z" fill="#8CAEF2"/>
<path d="M317.454 128.344C317.915 128.61 317.915 129.041 317.454 129.307C316.993 129.573 316.246 129.573 315.785 129.307C315.324 129.041 315.324 128.61 315.785 128.344C316.246 128.078 316.993 128.078 317.454 128.344Z" fill="#8CAEF2"/>
<path d="M330.249 120.958C330.71 121.224 330.71 121.654 330.249 121.92C329.788 122.186 329.041 122.186 328.58 121.92C328.119 121.654 328.119 121.224 328.58 120.958C329.041 120.692 329.788 120.692 330.249 120.958Z" fill="#8CAEF2"/>
<path d="M138.33 246.524C138.791 246.79 138.791 247.222 138.33 247.488C137.869 247.754 137.123 247.754 136.662 247.488C136.201 247.222 136.201 246.79 136.662 246.524C137.123 246.258 137.869 246.258 138.33 246.524Z" fill="#8CAEF2"/>
<path d="M151.125 239.138C151.586 239.404 151.586 239.836 151.125 240.102C150.664 240.368 149.917 240.368 149.456 240.102C148.995 239.836 148.995 239.404 149.456 239.138C149.917 238.872 150.664 238.872 151.125 239.138Z" fill="#8CAEF2"/>
<path d="M163.92 231.751C164.381 232.017 164.381 232.449 163.92 232.715C163.459 232.981 162.712 232.981 162.251 232.715C161.79 232.449 161.79 232.017 162.251 231.751C162.712 231.485 163.459 231.485 163.92 231.751Z" fill="#8CAEF2"/>
<path d="M330.249 135.73C330.71 135.996 330.71 136.427 330.249 136.693C329.788 136.959 329.041 136.959 328.58 136.693C328.119 136.427 328.119 135.996 328.58 135.73C329.041 135.464 329.788 135.464 330.249 135.73Z" fill="#8CAEF2"/>
<path d="M163.92 246.524C164.381 246.79 164.381 247.222 163.92 247.488C163.459 247.754 162.712 247.754 162.251 247.488C161.79 247.222 161.79 246.79 162.251 246.524C162.712 246.258 163.459 246.258 163.92 246.524Z" fill="#8CAEF2"/>
<path d="M176.714 239.138C177.174 239.404 177.174 239.835 176.714 240.101C176.253 240.367 175.505 240.367 175.045 240.101C174.584 239.835 174.584 239.404 175.045 239.138C175.505 238.872 176.253 238.872 176.714 239.138Z" fill="#8CAEF2"/>
<path d="M189.509 246.524C189.969 246.79 189.969 247.222 189.509 247.488C189.048 247.754 188.3 247.754 187.84 247.488C187.379 247.222 187.379 246.79 187.84 246.524C188.3 246.258 189.048 246.258 189.509 246.524Z" fill="#8CAEF2"/>
</g>
<path d="M134.09 195.706C132.806 196.446 132.218 197.437 132.324 198.406H132.302V204.445C132.302 205.374 132.94 206.266 134.078 206.922L337.773 324.514C340.142 325.882 343.984 325.882 346.352 324.514L483.845 245.141C484.983 244.483 485.623 243.593 485.623 242.663V237.046H485.554C485.625 236.098 485.035 235.138 483.783 234.414L279.7 116.598C277.331 115.23 273.489 115.23 271.121 116.598L134.09 195.706Z" fill="white"/>
<path opacity="0.75" fill-rule="evenodd" clip-rule="evenodd" d="M132.324 198.406C132.218 197.437 132.806 196.446 134.09 195.706L271.121 116.598C273.489 115.23 277.331 115.23 279.7 116.598L483.783 234.414C485.035 235.138 485.625 236.098 485.554 237.046H485.623V242.663C485.623 243.593 484.983 244.483 483.845 245.141L346.352 324.514C343.984 325.882 340.142 325.882 337.773 324.514L134.078 206.922C132.94 206.266 132.302 205.374 132.302 204.445V198.406H132.324ZM133.342 200.136C133.557 200.321 133.806 200.497 134.09 200.66L338.172 318.476C340.54 319.843 344.382 319.843 346.752 318.476L483.783 239.368C484.089 239.191 484.355 239 484.582 238.799V242.663C484.582 243.433 484.053 244.171 483.111 244.716L345.617 324.09C343.654 325.223 340.471 325.223 338.508 324.09L134.814 206.498C133.871 205.953 133.342 205.215 133.342 204.445V200.136ZM134.824 200.235C132.861 199.102 132.861 197.264 134.824 196.13L271.855 117.023C273.819 115.889 277.002 115.889 278.965 117.023L483.047 234.839C485.01 235.972 485.01 237.81 483.047 238.943L346.016 318.051C344.053 319.184 340.87 319.184 338.906 318.051L134.824 200.235Z" fill="#8CAEF2"/>
<path d="M270.991 129.459C271.455 129.726 271.454 130.161 270.988 130.429C270.524 130.699 269.77 130.699 269.306 130.43C268.843 130.163 268.843 129.728 269.308 129.46C269.773 129.19 270.526 129.19 270.991 129.459Z" fill="#8CAEF2"/>
<path d="M273.969 131.179C274.434 131.446 274.433 131.881 273.967 132.15C273.503 132.419 272.749 132.419 272.286 132.151C271.821 131.883 271.823 131.448 272.287 131.18C272.752 130.912 273.505 130.91 273.969 131.179Z" fill="#8CAEF2"/>
<path d="M276.949 132.899C277.413 133.166 277.412 133.601 276.948 133.869C276.482 134.139 275.728 134.139 275.265 133.87C274.801 133.603 274.802 133.168 275.266 132.9C275.731 132.63 276.486 132.63 276.949 132.899Z" fill="#8CAEF2"/>
<path opacity="0.25" d="M181.223 180.432L153.101 196.667C151.219 197.754 151.219 199.516 153.101 200.603L153.101 200.603C154.984 201.69 158.036 201.69 159.919 200.603L188.041 184.368C189.923 183.281 189.923 181.519 188.041 180.432C186.158 179.346 183.106 179.346 181.223 180.432Z" fill="#8CAEF2"/>
<path opacity="0.75" d="M254.075 237.567L248.127 241.001M254.075 237.567L255.86 238.597C256.017 238.689 256.105 238.812 256.105 238.94C256.105 239.069 256.017 239.193 255.86 239.284L251.101 242.03C250.943 242.122 250.729 242.173 250.506 242.173C250.283 242.173 250.069 242.122 249.912 242.03L248.127 241.001M254.075 237.567L251 236.977C250.852 236.947 250.692 236.944 250.54 236.964C250.387 236.985 250.248 237.03 250.138 237.093L247.306 238.727C247.197 238.792 247.118 238.872 247.083 238.961C247.047 239.048 247.055 239.139 247.105 239.226L248.127 241.001M250.506 241.001L250.51 240.999M251.696 240.314L251.699 240.313" stroke="#8CAEF2" stroke-width="0.849219" stroke-linecap="round" stroke-linejoin="round"/>
<path opacity="0.75" fill-rule="evenodd" clip-rule="evenodd" d="M169.235 203.287C166.058 205.121 166.058 208.094 169.235 209.927L240.916 251.309C244.092 253.143 249.243 253.143 252.419 251.309L365.923 185.782C369.1 183.949 369.1 180.976 365.923 179.142L294.243 137.761C291.066 135.927 285.916 135.927 282.739 137.761L169.235 203.287ZM344.523 167.636L293.507 138.185C290.737 136.586 286.246 136.586 283.475 138.185L169.97 203.711C167.373 205.21 167.21 207.584 169.483 209.193C169.635 209.299 169.798 209.403 169.97 209.503L220.987 238.956C223.758 240.554 228.248 240.554 231.017 238.954L344.523 173.428C347.294 171.828 347.294 169.235 344.523 167.636ZM223.801 240.58C226.539 241.022 229.6 240.622 231.753 239.378L345.258 173.853C347.411 172.609 348.105 170.843 347.339 169.262L365.188 179.566C367.958 181.166 367.958 183.759 365.188 185.358L251.683 250.885C248.913 252.484 244.421 252.484 241.651 250.885L223.801 240.58Z" fill="#8CAEF2"/>
<path d="M220.213 218.295L220.548 218.489C221.332 218.943 221.841 219.53 222 220.164C222.159 220.799 221.958 221.445 221.428 222.008C220.898 222.571 220.067 223.02 219.059 223.287C218.05 223.556 216.919 223.628 215.833 223.495C214.748 223.362 213.767 223.029 213.035 222.547C212.304 222.066 211.861 221.46 211.775 220.821C211.688 220.183 211.961 219.544 212.554 219.003C213.146 218.46 214.026 218.044 215.063 217.815M217.636 216.808L217.639 221.013H215.456" stroke="#8CAEF2" stroke-width="1.13229" stroke-linecap="round" stroke-linejoin="round"/>
<path opacity="0.5" d="M250.535 173.346L210.404 196.513C208.522 197.6 208.522 199.362 210.404 200.449L210.404 200.449C212.287 201.536 215.339 201.536 217.222 200.449L257.353 177.281C259.235 176.195 259.235 174.432 257.353 173.346C255.47 172.259 252.418 172.259 250.535 173.346Z" fill="#8CAEF2"/>
<path opacity="0.25" d="M300.636 169.916L229.479 210.995C228.302 211.674 228.302 212.776 229.479 213.455L229.479 213.455C230.656 214.134 232.563 214.134 233.74 213.455L304.897 172.376C306.074 171.697 306.074 170.595 304.897 169.916C303.72 169.237 301.813 169.237 300.636 169.916Z" fill="#8CAEF2"/>
<path opacity="0.25" d="M250.889 208.721L238.212 216.039C237.036 216.719 237.036 217.82 238.212 218.499L238.212 218.499C239.389 219.178 241.297 219.178 242.473 218.499L255.149 211.181C256.326 210.502 256.326 209.401 255.149 208.721C253.973 208.042 252.065 208.042 250.889 208.721Z" fill="#8CAEF2"/>
<path opacity="0.25" d="M286.468 217.207L263.353 230.552C262.176 231.231 262.176 232.333 263.353 233.012L263.353 233.012C264.529 233.691 266.437 233.691 267.614 233.012L290.729 219.667C291.906 218.988 291.906 217.887 290.729 217.207C289.552 216.528 287.645 216.528 286.468 217.207Z" fill="#8CAEF2"/>
<path opacity="0.75" fill-rule="evenodd" clip-rule="evenodd" d="M261.234 256.788C258.056 258.622 258.056 261.595 261.234 263.428L332.914 304.81C336.091 306.643 341.241 306.643 344.417 304.81L457.922 239.283C461.099 237.45 461.099 234.477 457.922 232.642L386.242 191.262C383.065 189.427 377.915 189.427 374.738 191.262L261.234 256.788ZM436.521 221.137L385.506 191.686C382.735 190.087 378.245 190.087 375.474 191.686L261.968 257.213C259.372 258.712 259.209 261.084 261.482 262.693C261.633 262.801 261.796 262.904 261.968 263.005L312.986 292.457C315.757 294.054 320.246 294.054 323.016 292.456L436.521 226.929C439.292 225.33 439.292 222.737 436.521 221.137ZM315.8 294.082C318.538 294.523 321.598 294.124 323.752 292.88L437.256 227.353C439.41 226.11 440.104 224.344 439.337 222.763L457.187 233.067C459.956 234.667 459.956 237.26 457.187 238.859L343.681 304.385C340.912 305.984 336.42 305.984 333.649 304.385L315.8 294.082Z" fill="#8CAEF2"/>
<path opacity="0.5" d="M342.534 226.848L302.403 250.015C300.52 251.102 300.52 252.864 302.403 253.951L302.403 253.951C304.286 255.038 307.338 255.038 309.22 253.951L349.351 230.783C351.234 229.696 351.234 227.934 349.351 226.848C347.469 225.761 344.417 225.761 342.534 226.848Z" fill="#8CAEF2"/>
<path opacity="0.25" d="M392.635 223.417L321.478 264.496C320.301 265.175 320.301 266.276 321.478 266.955L321.478 266.955C322.654 267.635 324.562 267.635 325.739 266.955L396.896 225.877C398.072 225.197 398.072 224.096 396.896 223.417C395.719 222.738 393.811 222.738 392.635 223.417Z" fill="#8CAEF2"/>
</g>
</g>
<defs>
<clipPath id="clip0_123_15148">
<rect width="339.688" height="249.104" fill="white" transform="translate(0.621887 0.396851)"/>
</clipPath>
</defs>
</svg>
