<svg width="51" height="42" viewBox="0 0 51 42" fill="none" xmlns="http://www.w3.org/2000/svg">
<path d="M4.26753 20.3407C3.85448 20.516 3.50297 20.777 3.25102 21.0966C2.7906 21.681 2.70877 22.4092 3.01872 23.1489C3.54743 24.3955 4.90322 25.0177 6.04217 24.5386C6.14753 24.4957 6.25418 24.4364 6.36694 24.3623C6.43396 24.3208 6.50001 24.2698 6.57862 24.2028C6.68463 24.1116 6.78 24.0124 6.86215 23.9083L6.89695 23.8642C7.4073 23.1876 7.50364 22.2445 7.14923 21.4014C6.58507 20.0694 5.29501 19.9086 4.26753 20.3407Z" fill="#C92C1E"/>
<path d="M20.8954 34.6193C20.8248 34.5964 20.7472 34.5649 20.6718 34.5339L20.6476 34.5239C20.4804 34.4576 20.3116 34.3902 20.1505 34.3213L20.0413 34.2717C19.6562 34.1083 19.279 33.9359 18.9194 33.7591C18.5705 33.5941 18.2054 33.4079 17.8023 33.1888C17.725 33.1485 17.6451 33.1044 17.5668 33.0605C17.2508 32.8885 16.9495 32.7161 16.6183 32.5186C15.7629 32.0086 14.912 31.4435 14.0807 30.8339C14.0581 30.8226 14.0204 30.7926 13.9989 30.7759L13.7163 30.5648C13.7163 30.5648 13.4763 30.3812 13.427 30.3445L12.9785 29.991C11.3591 28.7048 9.78876 27.2234 8.31054 25.5876C8.07663 25.3269 7.82854 25.0483 7.59656 24.7731L7.58368 24.7547C7.38166 24.5202 7.18126 24.2811 6.98665 24.0411L6.91964 24.0156L6.87582 24.0659C6.83361 24.1145 6.78979 24.1603 6.74436 24.2044L6.71633 24.2325C6.66188 24.2834 6.60421 24.3304 6.5301 24.3874L6.48242 24.4222L6.5198 24.4683C6.70377 24.6942 6.91223 24.9419 7.16837 25.239C7.40325 25.509 7.65069 25.7932 7.9165 26.0838L7.95807 26.0458L7.93068 26.1031C8.74228 26.9953 9.6006 27.8587 10.4808 28.6691C10.6767 28.8543 10.8726 29.0318 11.075 29.211C11.246 29.3611 11.4216 29.5109 11.5985 29.6614C11.6662 29.7229 11.7306 29.7784 11.7947 29.8331L11.8885 29.9137C12.0721 30.0661 12.249 30.213 12.4333 30.3583C12.6302 30.5172 12.8345 30.6744 13.0365 30.8258C13.1705 30.9354 13.3068 31.0391 13.4518 31.148C13.4627 31.1535 13.4698 31.1596 13.4766 31.1648C13.5665 31.2321 13.6586 31.3007 13.754 31.3684C13.9148 31.487 14.0746 31.602 14.237 31.7141C14.3668 31.805 14.4963 31.8952 14.6294 31.9847C14.929 32.1929 15.2155 32.383 15.5064 32.5676C15.5244 32.5782 16.0838 32.9268 16.0838 32.9268C16.0838 32.9268 16.4598 33.1511 16.5265 33.1897L16.5416 33.1972L16.5484 33.1991C16.9994 33.4665 17.4798 33.7304 18.0166 34.0052C18.1542 34.0784 18.2921 34.1483 18.4309 34.2188L18.768 34.3806C18.8324 34.4121 18.9007 34.4427 18.9677 34.4727C19.1633 34.5652 19.3621 34.6557 19.5628 34.7414C19.7729 34.8365 19.9881 34.9251 20.2014 35.0124L20.2291 35.0282C20.4608 35.12 20.705 35.216 20.9502 35.3053C23.3122 36.1952 25.7431 36.721 28.1747 36.8679C28.2163 36.8711 28.2578 36.864 28.3097 36.8441C28.3593 36.8241 28.4038 36.7906 28.4383 36.7471C28.4798 36.6942 28.5043 36.6292 28.5069 36.5631C28.5159 36.3949 28.3844 36.2506 28.214 36.2416C25.7589 36.0959 23.298 35.5504 20.8954 34.6193Z" fill="#018B45"/>
<path d="M10.3899 17.4813C9.87149 17.6308 9.42397 17.9192 9.12884 18.2936C8.72964 18.8004 8.62171 19.4309 8.82147 20.1178C9.19167 21.4056 10.4514 22.1895 11.6465 21.8606C11.88 21.7929 12.092 21.6908 12.2809 21.5532C12.449 21.434 12.6001 21.2896 12.7297 21.1256C13.211 20.5148 13.3596 19.6729 13.1285 18.8729C12.7255 17.4816 11.4625 17.1704 10.3899 17.4813Z" fill="#C92C1E"/>
<path d="M3.90014 31.2397C3.34758 31.0219 2.80275 31.0161 2.32333 31.2249C2.01885 31.357 1.74918 31.5684 1.52396 31.8542C1.36255 32.0591 1.22884 32.294 1.1267 32.5543C0.71816 33.5917 0.907287 34.8773 2.25566 35.4105C2.86815 35.6499 3.53058 35.6596 4.11697 35.435C4.49813 35.2891 4.82547 35.0516 5.06486 34.7481C5.1902 34.5893 5.28911 34.4127 5.36579 34.221C5.40284 34.1269 5.4283 34.047 5.44537 33.9745C5.50466 33.7322 5.52238 33.4883 5.49564 33.2499C5.40961 32.3748 4.78456 31.5845 3.90014 31.2397Z" fill="#C92C1E"/>
<path d="M15.6008 32.7603L15.5815 32.748L15.5596 32.7526C15.422 32.7806 15.2857 32.806 15.1388 32.8325C15.1166 32.8399 15.0792 32.8473 15.0347 32.8528C14.8169 32.8927 14.5856 32.9288 14.3459 32.9662L14.1442 32.9948C13.9689 33.0222 13.7936 33.0474 13.6164 33.0683C13.3761 33.1031 13.1299 33.1324 12.8879 33.1611C11.0995 33.3654 9.23911 33.4437 7.35944 33.3934C7.03145 33.3831 6.6461 33.3692 6.27429 33.346L6.24111 33.3451C6.04683 33.3351 5.85867 33.3248 5.67663 33.3116L5.6138 33.3319L5.61637 33.395C5.61927 33.4698 5.61928 33.5445 5.61283 33.6289C5.60768 33.7014 5.59737 33.7739 5.5848 33.8461L5.64022 33.8561L5.58158 33.8719L5.56934 33.9347L5.63313 33.9389C5.85415 33.953 6.08291 33.9669 6.31876 33.9788C6.73986 34.0004 7.09782 34.0136 7.44546 34.0204L7.44675 33.9643L7.47382 34.0246C8.69267 34.0513 9.90831 34.0246 11.0856 33.9456C11.3675 33.9327 11.6382 33.9108 11.8888 33.8896C12.1012 33.8702 12.3112 33.8496 12.5374 33.8271L12.5612 33.8245L12.5835 33.82C12.6444 33.8171 12.7056 33.8097 12.7687 33.8023C12.8338 33.799 12.8905 33.7923 12.9521 33.7852C13.1428 33.7649 13.3306 33.7427 13.5259 33.7169C13.5774 33.7085 13.6184 33.7017 13.6615 33.6966C13.9969 33.6515 14.3375 33.599 14.6819 33.5458L14.9303 33.5055C14.9403 33.501 14.9503 33.4984 14.9645 33.4968C15.2641 33.4459 15.5728 33.3882 15.884 33.3273L16.3622 33.2262L15.992 33.0029C15.8631 32.9243 15.7336 32.8444 15.6008 32.7603Z" fill="#018B45"/>
<path d="M12.0155 21.84L11.9729 21.8587C11.9172 21.8838 11.8602 21.9067 11.8018 21.9273L11.8205 21.9801L11.7703 21.9398L11.7158 21.9576L11.7345 22.0117C12.4359 24.0277 12.8664 26.1863 13.0139 28.432C13.0239 28.4984 13.0271 28.5751 13.03 28.6508L13.032 28.6956C13.0429 28.8776 13.0529 29.0564 13.0568 29.2346L13.0629 29.5069C13.0661 29.6361 13.069 29.7643 13.0694 29.8916V29.9186L13.4953 30.2544L13.6039 30.3368L13.6922 30.3649L13.6934 30.2518C13.6954 30.0253 13.6938 29.8075 13.687 29.5877C13.6838 29.3596 13.6757 29.1254 13.6632 28.896L13.6651 28.8686C13.6512 28.6099 13.6354 28.3495 13.6135 28.0928C13.4489 25.8903 13.0101 23.7573 12.3093 21.753L12.2722 21.6943L12.2126 21.7314C12.1495 21.7717 12.0834 21.8077 12.0155 21.84Z" fill="#018B45"/>
<path d="M1.98957 34.2192C2.0685 34.4815 2.34043 34.7492 2.56404 34.8968C2.8234 35.0676 3.14721 35.1368 3.45426 35.0991C3.9079 35.0437 4.51234 34.7344 4.64605 34.2653C4.76623 33.8436 4.31709 33.4727 3.93303 33.6921C3.78257 33.7781 3.66432 33.9119 3.51837 34.005C3.33569 34.1216 3.11048 34.168 2.89622 34.139C2.65844 34.1068 2.46641 33.9331 2.22606 33.9144C2.17161 33.9102 2.11426 33.9154 2.06786 33.9444C1.98506 33.9963 1.96089 34.111 1.98602 34.2057C1.98667 34.2099 1.98796 34.2144 1.98957 34.2192Z" fill="#A3180B"/>
<path d="M3.8557 21.3892C3.61986 21.5584 3.44459 21.9234 3.3737 22.1986C3.29154 22.5175 3.33343 22.8661 3.4768 23.1613C3.68848 23.5972 4.20689 24.0972 4.72337 24.0698C5.18797 24.0454 5.40545 23.467 5.05329 23.1571C4.91507 23.0356 4.74044 22.9631 4.59642 22.8487C4.41664 22.7057 4.2926 22.4956 4.24781 22.2707C4.19819 22.021 4.30645 21.7687 4.24266 21.5213C4.22816 21.4652 4.20303 21.4095 4.15792 21.3728C4.07737 21.3074 3.95397 21.3228 3.86762 21.3805C3.86408 21.3834 3.85989 21.3863 3.8557 21.3892Z" fill="#A3180B"/>
<path d="M9.26014 19.1824C9.15188 19.4846 9.22212 19.9273 9.3307 20.2221C9.45635 20.564 9.71411 20.8549 10.0305 21.0334C10.4974 21.297 11.2838 21.4258 11.7368 21.0759C12.1441 20.7615 11.9782 20.0981 11.4627 20.0378C11.2606 20.014 11.056 20.0581 10.8531 20.0446C10.5992 20.0275 10.3543 19.9144 10.1723 19.7379C9.96993 19.5417 9.90968 19.244 9.69574 19.059C9.64742 19.0171 9.58942 18.9823 9.5253 18.9772C9.41093 18.9682 9.30815 19.06 9.26594 19.1666C9.26401 19.1718 9.26207 19.1773 9.26014 19.1824Z" fill="#A3180B"/>
<path d="M28.5615 36.5667C28.5553 36.7169 28.458 36.8451 28.3279 36.8973C28.2783 36.9163 28.2254 36.9289 28.171 36.9247C25.5705 36.7674 23.1502 36.1952 20.9303 35.3588C20.6838 35.2689 20.4387 35.1726 20.1954 35.0737C20.1931 35.0717 20.1841 35.0685 20.1793 35.0647C19.9657 34.9773 19.7495 34.8884 19.5413 34.794C19.3384 34.7077 19.1393 34.6165 18.9446 34.525C18.876 34.494 18.8074 34.4634 18.7433 34.4322C18.6308 34.3784 18.5161 34.3226 18.4037 34.2688C18.2655 34.1986 18.1272 34.1284 17.991 34.0559C17.4864 33.7975 16.9934 33.5291 16.5189 33.2478L16.5169 33.2504C16.2009 33.0671 15.8954 32.8805 15.5935 32.6888C15.5516 32.6634 15.5139 32.6376 15.4743 32.6141C15.175 32.4243 14.8857 32.2316 14.6005 32.0338C14.6005 32.0338 14.6005 32.0338 14.5983 32.0319C14.4642 31.9416 14.3344 31.8511 14.2049 31.7602C14.0422 31.6475 13.8814 31.5325 13.7225 31.4149C13.6259 31.3462 13.5331 31.2773 13.4406 31.208C13.4335 31.2022 13.4287 31.1987 13.4197 31.1954C13.2795 31.0888 13.1391 30.9821 13.005 30.8723C12.8008 30.7189 12.5958 30.5614 12.3996 30.4028C12.2111 30.2543 12.031 30.1045 11.8487 29.9531C11.7546 29.8712 11.6586 29.7916 11.5664 29.7072L11.5642 29.7053C11.386 29.5532 11.2101 29.4031 11.0387 29.2523C10.8357 29.0728 10.6392 28.895 10.4465 28.7123L10.4442 28.7104C9.47991 27.8227 8.62062 26.9441 7.87636 26.1254L7.87571 26.1212C7.60958 25.8303 7.36182 25.5458 7.12629 25.2751C6.86789 24.9745 6.62367 24.6855 6.40039 24.4088C6.61336 24.2709 6.79411 24.0959 6.94361 23.8965C7.15658 24.1613 7.38888 24.441 7.63987 24.7316L7.64051 24.7358C7.86476 25.0013 8.10447 25.2716 8.35385 25.5493C9.59429 26.9215 11.1563 28.47 13.015 29.9466L13.4612 30.2985C13.5585 30.3713 13.6542 30.4467 13.7515 30.5195C13.8466 30.5907 13.9416 30.6616 14.0364 30.7324C14.0625 30.7531 14.0911 30.7756 14.1237 30.7933C14.9179 31.3765 15.7617 31.941 16.649 32.47C16.9516 32.6508 17.2605 32.8283 17.5776 33.0007C17.661 33.0471 17.7467 33.0954 17.8321 33.1392C18.1952 33.3364 18.5664 33.5284 18.9469 33.7082C19.3123 33.8877 19.6854 34.0578 20.0681 34.2205L20.1735 34.2685C20.3356 34.3381 20.5034 34.4048 20.6716 34.4715C20.7534 34.505 20.8379 34.5404 20.921 34.5675C23.1531 35.4326 25.5892 36.0293 28.2177 36.1852C28.4158 36.1965 28.5724 36.3663 28.5615 36.5667Z" stroke="black" stroke-miterlimit="10" stroke-linecap="round" stroke-linejoin="round"/>
<path d="M12.3134 21.5986C13.0911 23.7789 13.51 25.9627 13.6688 28.0886C13.6911 28.3499 13.7072 28.6144 13.721 28.8766C13.7191 28.8789 13.7201 28.8876 13.7188 28.8944C13.731 29.1244 13.7394 29.3593 13.7423 29.5861C13.7491 29.8081 13.751 30.0266 13.7484 30.2411C13.751 30.3165 13.7533 30.3922 13.751 30.4638C13.751 30.4831 13.7513 30.5028 13.7491 30.5202C13.6518 30.4473 13.5561 30.3719 13.4588 30.2991L13.0125 29.9473C13.0129 29.7504 13.0067 29.552 13.0025 29.3512L13 29.2369C12.9964 29.06 12.9861 28.8815 12.9752 28.6988C12.9713 28.6105 12.969 28.52 12.9565 28.4327C12.816 26.2981 12.4162 24.1098 11.6416 21.9205C11.6519 21.917 11.6606 21.916 11.6709 21.9128C11.9074 21.8438 12.1242 21.7359 12.3134 21.5986Z" stroke="black" stroke-miterlimit="10" stroke-linecap="round" stroke-linejoin="round"/>
<path d="M16.5158 33.2507C16.4652 33.261 16.4143 33.2713 16.3637 33.2816C16.3637 33.2816 16.3637 33.2816 16.3617 33.2839C16.2035 33.3177 16.047 33.3493 15.893 33.3828C15.582 33.4434 15.2731 33.5017 14.965 33.5532C14.9567 33.5542 14.9502 33.5571 14.9422 33.5626C14.5107 33.629 14.0858 33.6966 13.6663 33.7527C13.6192 33.7582 13.5748 33.7656 13.5303 33.773C13.3364 33.7981 13.1485 33.8203 12.9584 33.8406C12.8988 33.8477 12.8389 33.8548 12.7786 33.8577C12.7145 33.8654 12.6507 33.8729 12.586 33.8761L12.584 33.8783C12.3488 33.9019 12.122 33.9244 11.8929 33.945C11.6229 33.9682 11.3594 33.9888 11.0945 34.0008L11.0903 34.0014C9.78289 34.0894 8.55534 34.1048 7.4486 34.08L7.44377 34.0762C7.05102 34.0688 6.67276 34.053 6.31545 34.0346C6.03257 34.0204 5.75999 34.003 5.49805 33.9863C5.55991 33.7408 5.57795 33.492 5.54863 33.2446C5.78061 33.2646 6.02226 33.2771 6.27485 33.2907L6.27904 33.29C6.62572 33.3116 6.98658 33.3251 7.36032 33.3371C8.97129 33.3799 10.851 33.3367 12.8624 33.107C13.1099 33.0777 13.3618 33.0477 13.6109 33.012C13.7861 32.9913 13.9604 32.9662 14.137 32.9388L14.32 32.9127C14.5536 32.8763 14.7959 32.8389 15.0311 32.7961C15.0652 32.7922 15.1013 32.7858 15.1368 32.7748C15.2895 32.7481 15.4396 32.7194 15.5917 32.6885C15.8942 32.8805 16.2 33.0674 16.5158 33.2507Z" stroke="black" stroke-miterlimit="10" stroke-linecap="round" stroke-linejoin="round"/>
<path d="M5.54964 33.2451C5.57896 33.4925 5.56092 33.7416 5.49906 33.9868C5.47876 34.0715 5.45008 34.1572 5.4169 34.2432C4.95326 35.4257 3.52885 35.9712 2.23492 35.4621C0.945505 34.9527 0.608169 33.7158 1.07438 32.535C1.53802 31.3525 2.62864 30.6759 3.92063 31.1872C4.85821 31.5545 5.46619 32.3742 5.54964 33.2451Z" stroke="black" stroke-miterlimit="10" stroke-linecap="round" stroke-linejoin="round"/>
<path d="M7.19964 21.3802C7.57306 22.2665 7.44676 23.2273 6.94188 23.8974C6.79239 24.0969 6.61196 24.2722 6.39866 24.4097C6.29427 24.4784 6.1828 24.5412 6.06294 24.5902C4.89209 25.0838 3.50763 24.4494 2.96667 23.1715C2.42764 21.8915 3.07557 20.7844 4.24384 20.2889C5.41308 19.7975 6.65867 20.1023 7.19964 21.3802Z" stroke="black" stroke-miterlimit="10" stroke-linecap="round" stroke-linejoin="round"/>
<path d="M13.1809 18.8579C13.4921 19.9314 13.1136 21.0301 12.3132 21.5988C12.1238 21.736 11.9073 21.8437 11.6708 21.9129C11.6605 21.9161 11.6518 21.9171 11.6415 21.9207C10.432 22.2522 9.14737 21.4567 8.76557 20.1341C8.38023 18.8012 9.1551 17.7789 10.373 17.4267C11.5951 17.0742 12.7956 17.525 13.1809 18.8579Z" stroke="black" stroke-miterlimit="10" stroke-linecap="round" stroke-linejoin="round"/>
<path d="M1.42969 33.7939C1.59594 34.2801 2.00931 34.6681 2.49647 34.8317C2.98362 34.9954 3.53393 34.941 3.99402 34.7119" stroke="black" stroke-width="0.5" stroke-miterlimit="10" stroke-linecap="round" stroke-linejoin="round"/>
<path d="M2.06055 33.9307C2.16913 34.0769 2.33183 34.1755 2.50324 34.2367C2.67465 34.298 2.85604 34.325 3.03615 34.3518" stroke="black" stroke-width="0.5" stroke-miterlimit="10" stroke-linecap="round" stroke-linejoin="round"/>
<path d="M3.28711 33.5527C3.38699 33.5572 3.48655 33.5614 3.58643 33.5659" stroke="black" stroke-width="0.5" stroke-miterlimit="10" stroke-linecap="round" stroke-linejoin="round"/>
<path d="M3.10547 31.5334C3.55686 31.4948 4.02211 31.6781 4.32561 32.0141" stroke="black" stroke-width="0.5" stroke-miterlimit="10" stroke-linecap="round" stroke-linejoin="round"/>
<path d="M3.50586 32.1641C3.58125 32.1869 3.65342 32.2198 3.72044 32.2617" stroke="black" stroke-width="0.5" stroke-miterlimit="10" stroke-linecap="round" stroke-linejoin="round"/>
<path d="M3.40723 22.7725C3.54545 23.2699 3.92048 23.6959 4.39668 23.8956C4.87288 24.0951 5.43962 24.0641 5.89133 23.8138" stroke="black" stroke-width="0.5" stroke-miterlimit="10" stroke-linecap="round" stroke-linejoin="round"/>
<path d="M4.24219 23.1006C4.44066 23.3303 4.77187 23.437 5.067 23.3658" stroke="black" stroke-width="0.5" stroke-miterlimit="10" stroke-linecap="round" stroke-linejoin="round"/>
<path d="M5.24219 22.335C5.36108 22.3656 5.47996 22.3965 5.59885 22.4271" stroke="black" stroke-width="0.5" stroke-miterlimit="10" stroke-linecap="round" stroke-linejoin="round"/>
<path d="M4.93359 20.7878C5.33891 20.7717 5.7481 20.8703 6.10154 21.0698" stroke="black" stroke-width="0.5" stroke-miterlimit="10" stroke-linecap="round" stroke-linejoin="round"/>
<path d="M11.3695 21.3357C10.9739 21.4717 10.5302 21.3193 10.1909 21.0744C9.74568 20.7532 9.40737 20.2151 9.49823 19.6738" stroke="black" stroke-width="0.5" stroke-miterlimit="10" stroke-linecap="round" stroke-linejoin="round"/>
<path d="M10.7033 20.8296C10.5061 20.7652 10.3444 20.6018 10.2812 20.4043" stroke="black" stroke-width="0.5" stroke-miterlimit="10" stroke-linecap="round" stroke-linejoin="round"/>
<path d="M11.0845 20.1735C10.9917 20.1062 10.9128 20.0201 10.8535 19.9219" stroke="black" stroke-width="0.5" stroke-miterlimit="10" stroke-linecap="round" stroke-linejoin="round"/>
<path d="M12.4819 19.0963C12.4596 18.8195 12.2902 18.5676 12.0659 18.4036C11.8417 18.2393 11.5678 18.1549 11.293 18.1143" stroke="black" stroke-width="0.5" stroke-miterlimit="10" stroke-linecap="round" stroke-linejoin="round"/>
<path d="M11.7186 18.8892C11.6094 18.8064 11.4886 18.7381 11.3613 18.6875" stroke="black" stroke-width="0.5" stroke-miterlimit="10" stroke-linecap="round" stroke-linejoin="round"/>
<path d="M43.8529 21.4014C43.4985 22.2445 43.5948 23.1876 44.1052 23.8642L44.14 23.9083C44.2221 24.0124 44.3175 24.112 44.4235 24.2028C44.5021 24.2698 44.5682 24.3208 44.6352 24.3623C44.7479 24.4364 44.8546 24.4957 44.9599 24.5386C46.0989 25.0177 47.4547 24.3955 47.9834 23.1489C48.2937 22.4095 48.2118 21.681 47.7511 21.0966C47.4991 20.777 47.1476 20.516 46.7346 20.3407C45.7074 19.9086 44.4174 20.0694 43.8529 21.4014Z" fill="#C92C1E"/>
<path d="M30.1064 34.6193C30.177 34.5964 30.2546 34.5649 30.33 34.5339L30.3545 34.5239C30.5217 34.4576 30.6905 34.3902 30.8516 34.3213L30.9605 34.2717C31.3455 34.1083 31.7228 33.9359 32.0824 33.7591C32.4313 33.5941 32.7964 33.4079 33.1994 33.1888C33.2768 33.1485 33.3567 33.1044 33.435 33.0605C33.751 32.8885 34.0523 32.7161 34.3835 32.5186C35.2386 32.0086 36.0898 31.4435 36.9211 30.8339C36.9436 30.8226 36.9813 30.7926 37.0029 30.7759L37.2855 30.5648C37.2855 30.5648 37.5255 30.3812 37.5748 30.3445L38.0233 29.991C39.6427 28.7048 41.213 27.2234 42.6912 25.5876C42.9252 25.3269 43.1732 25.0483 43.4052 24.7731L43.4181 24.7547C43.6201 24.5202 43.8205 24.2811 44.0151 24.0411L44.0822 24.0156L44.126 24.0659C44.1682 24.1145 44.212 24.1603 44.2574 24.2044L44.2855 24.2325C44.3402 24.2834 44.3976 24.3304 44.472 24.3874L44.5197 24.4222L44.4823 24.4683C44.2983 24.6942 44.0899 24.9419 43.8337 25.239C43.5989 25.509 43.3514 25.7932 43.0856 26.0838L43.044 26.0458L43.0714 26.1031C42.2598 26.9953 41.4015 27.8587 40.5213 28.6691C40.3254 28.8543 40.1295 29.0318 39.9272 29.211C39.7561 29.3611 39.5805 29.5109 39.4036 29.6614C39.3359 29.7229 39.2715 29.7784 39.2074 29.8331L39.1136 29.9137C38.93 30.0661 38.7531 30.213 38.5688 30.3583C38.3716 30.5172 38.1677 30.6744 37.9656 30.8258C37.8316 30.9354 37.6953 31.0391 37.5503 31.148C37.5394 31.1535 37.5323 31.1596 37.5255 31.1648C37.4356 31.2321 37.3435 31.3007 37.2481 31.3684C37.0873 31.487 36.9275 31.602 36.7652 31.7141C36.6353 31.805 36.5058 31.8952 36.3727 31.9847C36.0731 32.1929 35.7867 32.383 35.4957 32.5676C35.4777 32.5782 34.9183 32.9268 34.9183 32.9268C34.9183 32.9268 34.5423 33.1511 34.4757 33.1897L34.4605 33.1972L34.4537 33.1991C34.0027 33.4665 33.5223 33.7304 32.9852 34.0052C32.8476 34.0784 32.7097 34.1483 32.5708 34.2188L32.2338 34.3806C32.1694 34.4121 32.1011 34.4427 32.0341 34.4727C31.8385 34.5652 31.6397 34.6557 31.439 34.7414C31.2289 34.8365 31.0137 34.9251 30.8007 35.0124L30.773 35.0282C30.5414 35.12 30.2971 35.216 30.0519 35.3053C27.6899 36.1952 25.259 36.721 22.8274 36.8679C22.7859 36.8711 22.7443 36.864 22.6924 36.8441C22.6428 36.8241 22.5983 36.7906 22.5642 36.7471C22.5226 36.6942 22.4981 36.6292 22.4956 36.5631C22.4865 36.3949 22.618 36.2506 22.7884 36.2416C25.2429 36.0959 27.7035 35.5504 30.1064 34.6193Z" fill="#018B45"/>
<path d="M37.8734 18.8729C37.6424 19.6729 37.7909 20.5148 38.2723 21.1256C38.4018 21.29 38.5526 21.434 38.7211 21.5532C38.9096 21.6908 39.1216 21.7926 39.3555 21.8606C40.5505 22.1895 41.8103 21.4056 42.1805 20.1178C42.3802 19.4309 42.2726 18.8004 41.8731 18.2936C41.578 17.9192 41.1305 17.6308 40.6121 17.4813C39.5398 17.1704 38.2768 17.4816 37.8734 18.8729Z" fill="#C92C1E"/>
<path d="M45.5063 33.2499C45.4795 33.4883 45.4973 33.7322 45.5565 33.9745C45.5736 34.047 45.5994 34.1269 45.6361 34.221C45.7128 34.4124 45.8117 34.5893 45.9371 34.7481C46.1764 35.0516 46.5035 35.2891 46.8849 35.435C47.4713 35.6596 48.1334 35.6502 48.7463 35.4105C50.0946 34.8773 50.2838 33.5921 49.8755 32.5543C49.7734 32.2943 49.6397 32.0591 49.4783 31.8542C49.2527 31.5681 48.9834 31.357 48.6789 31.2249C48.1995 31.0161 47.6547 31.0219 47.1021 31.2397C46.2174 31.5845 45.5923 32.3748 45.5063 33.2499Z" fill="#C92C1E"/>
<path d="M35.401 32.7603L35.4203 32.748L35.4422 32.7526C35.5798 32.7806 35.7161 32.806 35.863 32.8325C35.8852 32.8399 35.9226 32.8473 35.9668 32.8528C36.1846 32.8927 36.4156 32.9288 36.6556 32.9662L36.857 32.9948C37.0323 33.0222 37.2075 33.0474 37.3847 33.0683C37.6251 33.1031 37.8712 33.1324 38.1129 33.1611C39.9014 33.3654 41.7617 33.4437 43.6414 33.3934C43.9694 33.3831 44.3547 33.3692 44.7265 33.346L44.7597 33.3451C44.954 33.3351 45.1422 33.3248 45.3242 33.3116L45.387 33.3319L45.3845 33.395C45.3816 33.4698 45.3816 33.5445 45.3877 33.6289C45.3928 33.7014 45.4031 33.7739 45.416 33.8461L45.3606 33.8561L45.4193 33.8719L45.4315 33.9347L45.3677 33.9389C45.1467 33.953 44.9179 33.9669 44.6824 33.9788C44.2613 34.0004 43.9033 34.0136 43.5557 34.0204L43.5544 33.9643L43.5273 34.0246C42.3085 34.0513 41.0928 34.0246 39.9156 33.9456C39.6336 33.9327 39.363 33.9108 39.1123 33.8896C38.9003 33.8702 38.6899 33.8496 38.4638 33.8271L38.4399 33.8245L38.4177 33.82C38.3565 33.8171 38.2956 33.8097 38.2324 33.8023C38.1673 33.799 38.1106 33.7923 38.0494 33.7852C37.8587 33.7649 37.6708 33.7427 37.4756 33.7169C37.424 33.7085 37.3831 33.7017 37.3399 33.6966C37.0045 33.6515 36.664 33.599 36.3199 33.5458L36.0715 33.5055C36.0615 33.501 36.0515 33.4984 36.0373 33.4968C35.7377 33.4459 35.429 33.3882 35.1178 33.3273L34.6396 33.2262L35.0102 33.0029C35.139 32.9243 35.2686 32.8444 35.401 32.7603Z" fill="#018B45"/>
<path d="M38.9873 21.84L39.0299 21.8587C39.0856 21.8838 39.1426 21.9067 39.2009 21.9273L39.1823 21.9801L39.2325 21.9398L39.287 21.9576L39.2683 22.0117C38.5666 24.0277 38.1364 26.1863 37.9889 28.432C37.9789 28.4984 37.9757 28.5751 37.9728 28.6508L37.9708 28.6956C37.9602 28.8776 37.9499 29.0564 37.946 29.2346L37.9399 29.5069C37.9367 29.6361 37.9338 29.7643 37.9334 29.8916V29.9186L37.5075 30.2544L37.3989 30.3368L37.3106 30.3649L37.3094 30.2518C37.3074 30.0253 37.309 29.8075 37.3158 29.5877C37.319 29.3596 37.3271 29.1254 37.3396 28.896L37.3377 28.8686C37.3516 28.6099 37.3673 28.3495 37.3893 28.0928C37.5539 25.8903 37.9927 23.7573 38.6935 21.753L38.7306 21.6943L38.7902 21.7314C38.8536 21.7717 38.9197 21.8077 38.9873 21.84Z" fill="#018B45"/>
<path d="M49.0113 34.2192C48.9323 34.4815 48.6604 34.7492 48.4368 34.8968C48.1774 35.0676 47.8536 35.1368 47.5466 35.0991C47.0929 35.0437 46.4885 34.7344 46.3548 34.2653C46.2346 33.8436 46.6838 33.4727 47.0678 33.6921C47.2183 33.7781 47.3365 33.9119 47.4825 34.005C47.6652 34.1216 47.8904 34.168 48.1046 34.139C48.3424 34.1068 48.5344 33.9331 48.7748 33.9144C48.8292 33.9102 48.8866 33.9154 48.933 33.9444C49.0158 33.9963 49.04 34.111 49.0148 34.2057C49.0139 34.2099 49.0126 34.2144 49.0113 34.2192Z" fill="#A3180B"/>
<path d="M47.1462 21.3892C47.3821 21.5584 47.5574 21.9234 47.6282 22.1986C47.7104 22.5175 47.6682 22.8661 47.5251 23.1613C47.3135 23.5972 46.7951 24.0972 46.2786 24.0698C45.814 24.0454 45.5965 23.467 45.949 23.1571C46.0869 23.0356 46.2618 22.9631 46.4055 22.8487C46.5853 22.7057 46.7094 22.4956 46.7541 22.2707C46.8038 22.021 46.6955 21.7687 46.7593 21.5213C46.7738 21.4652 46.7989 21.4095 46.8437 21.3728C46.9243 21.3074 47.0477 21.3228 47.134 21.3805C47.1379 21.3834 47.1421 21.3863 47.1462 21.3892Z" fill="#A3180B"/>
<path d="M41.7417 19.1824C41.85 19.4846 41.7798 19.9273 41.6712 20.2221C41.5455 20.564 41.2878 20.8549 40.9717 21.0334C40.5048 21.297 39.7184 21.4258 39.2654 21.0759C38.8581 20.7615 39.024 20.0981 39.5396 20.0378C39.7416 20.014 39.9462 20.0581 40.1491 20.0446C40.403 20.0275 40.6479 19.9144 40.8299 19.7379C41.0323 19.5417 41.0925 19.244 41.3065 19.059C41.3548 19.0171 41.4128 18.9823 41.4769 18.9772C41.5913 18.9682 41.6941 19.06 41.7363 19.1666C41.7379 19.1718 41.7398 19.1773 41.7417 19.1824Z" fill="#A3180B"/>
<path d="M22.44 36.5667C22.4461 36.7169 22.5434 36.8451 22.6736 36.8973C22.7232 36.9163 22.7757 36.9289 22.8305 36.9247C25.4309 36.7674 27.8512 36.1952 30.0711 35.3588C30.3176 35.2689 30.5628 35.1726 30.8061 35.0737C30.8083 35.0717 30.8173 35.0685 30.8222 35.0647C31.0358 34.9773 31.252 34.8884 31.4601 34.794C31.6631 34.7077 31.8622 34.6165 32.0568 34.525C32.1254 34.494 32.1941 34.4634 32.2582 34.4322C32.3706 34.3784 32.4853 34.3226 32.5978 34.2688C32.736 34.1986 32.8742 34.1284 33.0105 34.0559C33.5151 33.7975 34.008 33.5291 34.4826 33.2478L34.4845 33.2504C34.8006 33.0671 35.106 32.8805 35.4079 32.6888C35.4498 32.6634 35.4875 32.6376 35.5271 32.6141C35.8265 32.4243 36.1158 32.2316 36.4009 32.0338C36.4009 32.0338 36.4009 32.0338 36.4032 32.0319C36.5372 31.9416 36.6671 31.8511 36.7966 31.7602C36.9593 31.6475 37.1201 31.5325 37.2789 31.4149C37.3759 31.3462 37.4684 31.2773 37.5608 31.208C37.5679 31.2022 37.5727 31.1987 37.5818 31.1954C37.7222 31.0888 37.8624 30.9821 37.9968 30.8723C38.201 30.7189 38.4059 30.5614 38.6022 30.4028C38.7906 30.2543 38.9707 30.1045 39.1531 29.9531C39.2472 29.8712 39.3432 29.7916 39.4353 29.7072L39.4376 29.7053C39.6158 29.5532 39.7917 29.4031 39.9631 29.2523C40.1661 29.0728 40.3626 28.895 40.5553 28.7123L40.5575 28.7104C41.5219 27.8227 42.3812 26.9441 43.1254 26.1254L43.1261 26.1212C43.3922 25.8303 43.64 25.5458 43.8755 25.2751C44.1339 24.9745 44.3781 24.6855 44.6014 24.4088C44.3884 24.2709 44.2077 24.0959 44.0582 23.8965C43.8449 24.1613 43.6126 24.441 43.3619 24.7316L43.3613 24.7358C43.137 25.0013 42.8973 25.2716 42.6479 25.5493C41.4075 26.9215 39.8455 28.47 37.9868 29.9466L37.5405 30.2985C37.4432 30.3713 37.3475 30.4467 37.2502 30.5195C37.1552 30.5907 37.0601 30.6616 36.9654 30.7324C36.9393 30.7531 36.9106 30.7756 36.8781 30.7933C36.0839 31.3765 35.2401 31.941 34.3531 32.47C34.0502 32.6508 33.7416 32.8283 33.4245 33.0007C33.3411 33.0471 33.2554 33.0954 33.17 33.1392C32.8069 33.3364 32.4357 33.5284 32.0552 33.7082C31.6898 33.8877 31.317 34.0578 30.934 34.2205L30.8286 34.2685C30.6665 34.3381 30.4987 34.4048 30.3305 34.4715C30.2487 34.505 30.1642 34.5404 30.0811 34.5675C27.849 35.4326 25.4129 36.0293 22.7844 36.1852C22.5856 36.1965 22.429 36.3663 22.44 36.5667Z" stroke="black" stroke-miterlimit="10" stroke-linecap="round" stroke-linejoin="round"/>
<path d="M38.6875 21.5986C37.9097 23.7789 37.4909 25.9627 37.3321 28.0886C37.3098 28.3499 37.2937 28.6144 37.2799 28.8766C37.2818 28.8789 37.2808 28.8876 37.2821 28.8944C37.2699 29.1244 37.2615 29.3593 37.2586 29.5861C37.2518 29.8081 37.2496 30.0266 37.2525 30.2411C37.2502 30.3165 37.2476 30.3922 37.2499 30.4638C37.2499 30.4831 37.2496 30.5028 37.2518 30.5202C37.3491 30.4473 37.4445 30.3719 37.5421 30.2991L37.9884 29.9473C37.988 29.7504 37.9942 29.552 37.9983 29.3512L38.0009 29.2369C38.0045 29.06 38.0151 28.8815 38.0257 28.6988C38.0296 28.6105 38.0319 28.52 38.0444 28.4327C38.1849 26.2981 38.5847 24.1098 39.3593 21.9205C39.349 21.917 39.3403 21.916 39.33 21.9128C39.0935 21.8438 38.877 21.7359 38.6875 21.5986Z" stroke="black" stroke-miterlimit="10" stroke-linecap="round" stroke-linejoin="round"/>
<path d="M34.4844 33.2507C34.535 33.261 34.5859 33.2713 34.6365 33.2816C34.6365 33.2816 34.6364 33.2816 34.6384 33.2839C34.7966 33.3177 34.9532 33.3493 35.1072 33.3828C35.4181 33.4434 35.7271 33.5017 36.0348 33.5532C36.0435 33.5542 36.0496 33.5571 36.0576 33.5626C36.4891 33.629 36.914 33.6966 37.3335 33.7527C37.3806 33.7582 37.425 33.7656 37.4695 33.773C37.6635 33.7981 37.8513 33.8203 38.0414 33.8406C38.101 33.8477 38.1609 33.8548 38.2212 33.8577C38.2853 33.8654 38.3494 33.8729 38.4138 33.8761L38.4158 33.8783C38.651 33.9019 38.8778 33.9244 39.1069 33.945C39.3769 33.9682 39.6404 33.9888 39.9053 34.0008L39.9095 34.0014C41.2169 34.0894 42.4445 34.1048 43.5512 34.08L43.556 34.0762C43.9488 34.0688 44.327 34.053 44.684 34.0346C44.9669 34.0204 45.2395 34.003 45.5014 33.9863C45.4396 33.7408 45.4215 33.492 45.4509 33.2446C45.2192 33.2646 44.9772 33.2771 44.7246 33.2907L44.7204 33.29C44.3738 33.3116 44.0129 33.3251 43.6392 33.3371C42.0282 33.3799 40.1485 33.3367 38.1371 33.107C37.8896 33.0777 37.6377 33.0477 37.3886 33.012C37.2137 32.9913 37.039 32.9662 36.8625 32.9388L36.6795 32.9127C36.4456 32.8763 36.2036 32.8389 35.9684 32.7961C35.9342 32.7922 35.8982 32.7858 35.8627 32.7748C35.71 32.7481 35.5599 32.7194 35.4078 32.6885C35.1059 32.8805 34.8004 33.0674 34.4844 33.2507Z" stroke="black" stroke-miterlimit="10" stroke-linecap="round" stroke-linejoin="round"/>
<path d="M45.4512 33.2451C45.4219 33.4925 45.4399 33.7416 45.5018 33.9868C45.5221 34.0715 45.5508 34.1572 45.584 34.2432C46.0476 35.4257 47.472 35.9712 48.7659 35.4621C50.0554 34.9527 50.3924 33.7158 49.9265 32.535C49.4628 31.3525 48.3722 30.6759 47.0802 31.1872C46.143 31.5545 45.535 32.3742 45.4512 33.2451Z" stroke="black" stroke-miterlimit="10" stroke-linecap="round" stroke-linejoin="round"/>
<path d="M43.801 21.3802C43.4276 22.2665 43.5539 23.2273 44.0591 23.8974C44.2086 24.0969 44.389 24.2722 44.6023 24.4097C44.7067 24.4784 44.8182 24.5412 44.938 24.5902C46.1089 25.0838 47.4933 24.4494 48.0343 23.1715C48.5733 21.8915 47.9254 20.7844 46.7571 20.2889C45.5879 19.7975 44.342 20.1023 43.801 21.3802Z" stroke="black" stroke-miterlimit="10" stroke-linecap="round" stroke-linejoin="round"/>
<path d="M37.8196 18.8579C37.5083 19.9314 37.8869 21.0301 38.6872 21.5988C38.8767 21.736 39.0932 21.8437 39.3297 21.9129C39.34 21.9161 39.3487 21.9171 39.359 21.9207C40.5685 22.2522 41.8531 21.4567 42.2349 20.1341C42.6202 18.8012 41.8454 17.7789 40.6275 17.4267C39.4051 17.0742 38.2049 17.525 37.8196 18.8579Z" stroke="black" stroke-miterlimit="10" stroke-linecap="round" stroke-linejoin="round"/>
<path d="M49.5712 33.7939C49.4049 34.2801 48.9915 34.6681 48.5044 34.8317C48.0172 34.9954 47.4669 34.941 47.0068 34.7119" stroke="black" stroke-width="0.5" stroke-miterlimit="10" stroke-linecap="round" stroke-linejoin="round"/>
<path d="M48.9404 33.9307C48.8319 34.0769 48.6692 34.1755 48.4978 34.2367C48.3263 34.298 48.1449 34.325 47.9648 34.3518" stroke="black" stroke-width="0.5" stroke-miterlimit="10" stroke-linecap="round" stroke-linejoin="round"/>
<path d="M47.7144 33.5527C47.6148 33.5572 47.5149 33.5614 47.415 33.5659" stroke="black" stroke-width="0.5" stroke-miterlimit="10" stroke-linecap="round" stroke-linejoin="round"/>
<path d="M47.8953 31.5334C47.4439 31.4948 46.9786 31.6781 46.6748 32.0141" stroke="black" stroke-width="0.5" stroke-miterlimit="10" stroke-linecap="round" stroke-linejoin="round"/>
<path d="M47.4949 32.1641C47.4195 32.1869 47.3473 32.2198 47.2803 32.2617" stroke="black" stroke-width="0.5" stroke-miterlimit="10" stroke-linecap="round" stroke-linejoin="round"/>
<path d="M47.5935 22.7725C47.4553 23.2699 47.0799 23.6959 46.604 23.8956C46.1278 24.0951 45.5611 24.0641 45.1094 23.8138" stroke="black" stroke-width="0.5" stroke-miterlimit="10" stroke-linecap="round" stroke-linejoin="round"/>
<path d="M46.7594 23.1006C46.5609 23.3303 46.2297 23.437 45.9346 23.3658" stroke="black" stroke-width="0.5" stroke-miterlimit="10" stroke-linecap="round" stroke-linejoin="round"/>
<path d="M45.759 22.335C45.6401 22.3656 45.5212 22.3965 45.4023 22.4271" stroke="black" stroke-width="0.5" stroke-miterlimit="10" stroke-linecap="round" stroke-linejoin="round"/>
<path d="M46.0674 20.7878C45.662 20.7717 45.2529 20.8703 44.8994 21.0698" stroke="black" stroke-width="0.5" stroke-miterlimit="10" stroke-linecap="round" stroke-linejoin="round"/>
<path d="M39.6318 21.3357C40.0275 21.4717 40.4711 21.3193 40.8104 21.0744C41.2557 20.7532 41.594 20.2151 41.5031 19.6738" stroke="black" stroke-width="0.5" stroke-miterlimit="10" stroke-linecap="round" stroke-linejoin="round"/>
<path d="M40.2979 20.8296C40.495 20.7652 40.6568 20.6018 40.7199 20.4043" stroke="black" stroke-width="0.5" stroke-miterlimit="10" stroke-linecap="round" stroke-linejoin="round"/>
<path d="M39.917 20.1735C40.0098 20.1062 40.0887 20.0201 40.148 19.9219" stroke="black" stroke-width="0.5" stroke-miterlimit="10" stroke-linecap="round" stroke-linejoin="round"/>
<path d="M38.5195 19.0963C38.5418 18.8195 38.7112 18.5676 38.9355 18.4036C39.1594 18.2393 39.4336 18.1549 39.7081 18.1143" stroke="black" stroke-width="0.5" stroke-miterlimit="10" stroke-linecap="round" stroke-linejoin="round"/>
<path d="M39.2822 18.8892C39.3914 18.8064 39.512 18.7381 39.6395 18.6875" stroke="black" stroke-width="0.5" stroke-miterlimit="10" stroke-linecap="round" stroke-linejoin="round"/>
<path d="M36.2829 27.5647L36.2378 27.5827C35.9568 27.6951 34.4239 28.2886 32.1534 28.7987C30.3078 29.2146 27.9723 29.5742 25.4276 29.5742C22.9863 29.5742 20.7406 29.2436 18.9335 28.8505C16.5347 28.3289 14.9051 27.6974 14.6151 27.5827L14.5723 27.5647L14.5813 27.5176C14.6373 27.2457 14.6915 26.967 14.743 26.6748L14.7566 26.6074L14.8194 26.6345C15.2914 26.821 16.8582 27.41 19.0208 27.9091C20.8347 28.3295 23.0691 28.6869 25.4273 28.6869C27.8843 28.6869 30.2086 28.3002 32.0654 27.8553C34.1065 27.3675 35.5789 26.8146 36.0329 26.6348L36.0957 26.6077L36.1092 26.6751C36.1631 26.9673 36.2172 27.246 36.271 27.5179L36.2829 27.5647Z" fill="#E8B21A"/>
<path d="M16.9802 28.4839L14.0244 29.8461L14.0579 29.7291C14.229 29.1044 14.3885 28.4342 14.5344 27.7418L14.548 27.6768L14.6108 27.7016C14.894 27.814 15.6808 28.1107 16.8339 28.441L16.9802 28.4839Z" fill="#ED5ABC"/>
<path d="M36.0694 26.45C35.6693 24.1773 35.4086 21.6329 35.2984 18.8859L35.2962 18.8096L35.2221 18.8366C34.8693 18.9649 33.7026 19.3583 31.8906 19.7066C30.2339 20.0236 28.0356 20.3023 25.4281 20.3023C22.942 20.3023 20.8265 20.0484 19.1991 19.7494C17.2524 19.3921 16.0004 18.9694 15.6318 18.8366L15.5599 18.8096L15.5554 18.8859C15.4452 21.6329 15.1846 24.1776 14.7844 26.45L14.7754 26.4952L14.8179 26.5132C15.1124 26.6324 16.733 27.2594 19.0306 27.7923C20.8468 28.2128 23.0857 28.5746 25.4281 28.5746C27.8716 28.5746 30.2004 28.1812 32.0572 27.7385C34.231 27.2191 35.7527 26.6279 36.0359 26.5135L36.0788 26.4955L36.0694 26.45Z" fill="#FEE25A"/>
<path d="M21.51 39.1704C19.2305 38.941 17.1063 38.5096 15.1957 37.8891L15.1261 37.8643L15.1238 37.9406C15.1103 38.3453 15.2498 39.741 17.6437 40.6764C18.0999 40.8539 18.5429 40.946 18.9586 40.946C20.5344 40.946 21.3434 39.6489 21.5525 39.2532L21.5928 39.1791L21.51 39.1704Z" fill="#CC9611"/>
<path d="M38.4526 33.958C38.2977 33.7109 37.8885 32.9914 37.4029 31.6563L37.3826 31.5957L37.324 31.625C36.8588 31.8699 35.2852 32.6435 32.9003 33.2953C30.9133 33.8391 28.3641 34.3002 25.4283 34.3002C22.5982 34.3002 20.1302 33.873 18.1767 33.3562C15.6681 32.6908 14.0114 31.877 13.5304 31.6253L13.4743 31.596L13.4518 31.6566C12.9685 32.9918 12.557 33.7112 12.4021 33.9583L12.375 34.0057L12.4175 34.035C12.8402 34.3273 14.38 35.2916 17.1876 36.0536L17.2214 36.0626C19.267 36.6155 21.9847 37.0585 25.4286 37.0585C28.9892 37.0585 31.7723 36.5842 33.8401 36.0065C36.5398 35.2536 38.0212 34.3205 38.4372 34.035L38.4823 34.0057L38.4526 33.958ZM35.9415 33.9693L35.9437 33.9152V33.9693L35.9843 34.2525L35.9415 33.9693Z" fill="#FEE25A"/>
<path d="M21.0632 29.3566L18.4624 32.0765L18.3951 32.1461L17.2217 28.5518L17.3228 28.5788C17.8512 28.7206 18.3861 28.8508 18.9235 28.9655C19.6001 29.114 20.279 29.2374 20.9578 29.3408L21.0632 29.3566Z" fill="#FEE25A"/>
<path d="M37.344 31.4873L37.3011 31.5098C37.0112 31.6628 35.3973 32.4854 32.8707 33.1778C30.8879 33.7239 28.3413 34.1872 25.428 34.1872C22.6204 34.1872 20.1544 33.7555 18.2054 33.2387C15.5506 32.5328 13.8536 31.6674 13.5546 31.5101L13.5117 31.4876L13.5275 31.4425C13.6106 31.1999 13.6983 30.9411 13.784 30.6624L13.8043 30.5996L13.8648 30.6289C14.3075 30.8516 15.9465 31.6316 18.3359 32.2947L18.3449 32.2969L18.3585 32.3059C18.3765 32.3105 18.3946 32.315 18.4123 32.3195C20.0107 32.7554 21.6042 33.048 23.1665 33.1917L23.1778 33.1939L23.1801 33.1962L23.1846 33.1939C23.9466 33.2635 24.6995 33.2996 25.428 33.2996C26.1562 33.2996 26.9095 33.2635 27.6692 33.1939L27.6872 33.1917C29.2698 33.0457 30.8815 32.749 32.4776 32.3082L32.5069 32.3059C32.5607 32.2902 32.6149 32.2766 32.6664 32.2612C34.9794 31.5981 36.5553 30.8471 36.9912 30.6292L37.0498 30.5999L37.0701 30.6628C37.1578 30.9415 37.2432 31.2002 37.3285 31.4428L37.344 31.4873Z" fill="#E8B21A"/>
<path d="M25.3244 29.687L25.2226 29.686C23.9728 29.6767 22.6818 29.5813 21.3853 29.4025L21.2773 29.3877L23.1802 33.0262L25.3244 29.687Z" fill="#FEE25A"/>
<path d="M33.6325 28.5518L32.576 31.7933L32.4613 32.1461L29.791 29.3566L29.8989 29.3408C30.6542 29.2261 31.4116 29.0843 32.1649 28.9136C32.6234 28.8124 33.08 28.7 33.5317 28.5785L33.6325 28.5518Z" fill="#FEE25A"/>
<path d="M29.5773 29.3887L29.4694 29.4035C28.1729 29.5823 26.8819 29.6774 25.6321 29.687L25.5303 29.688L27.6748 33.0275L29.5773 29.3887Z" fill="#FEE25A"/>
<path d="M35.2872 18.6522V18.6928L35.2488 18.7063C34.8983 18.8391 33.7294 19.2434 31.8884 19.5988C30.2384 19.9158 28.0511 20.19 25.4281 20.19C22.9308 20.19 20.8243 19.9403 19.2036 19.6417C17.2276 19.2776 15.9711 18.8436 15.6047 18.7067L15.5664 18.6931L15.5687 18.6525C15.5912 18.0839 15.6405 17.5287 15.7101 17.0048L15.7191 16.9375L15.7842 16.9578C16.1573 17.077 17.4116 17.4501 19.3113 17.7671C20.9296 18.0391 23.0181 18.2707 25.4278 18.2707C27.9544 18.2707 30.1305 18.0146 31.7782 17.7291C33.5473 17.4189 34.714 17.0728 35.0713 16.9581L35.1341 16.9378L35.1432 17.0052C35.2131 17.5284 35.2624 18.0835 35.2872 18.6522Z" fill="#E8B21A"/>
<path d="M36.8295 29.8461L33.876 28.4839L34.02 28.441C35.1776 28.1082 35.9599 27.8118 36.2431 27.7016L36.306 27.6768L36.3195 27.7418C36.4654 28.4342 36.6252 29.1041 36.7983 29.7291L36.8295 29.8461Z" fill="#ED5ABC"/>
<path d="M37.016 30.4894L36.9734 30.512C36.6744 30.6624 35.0561 31.456 32.6754 32.1348L32.6438 32.1439L32.5742 32.1642L32.619 32.0227L33.7496 28.5498L36.8674 29.9884L36.8765 30.0132C36.9167 30.1614 36.9596 30.3054 37.0024 30.4449L37.016 30.4894Z" fill="#ED5ABC"/>
<path d="M25.4276 33.1873C26.0907 33.1873 26.7841 33.157 27.4884 33.0971L27.5812 33.0891L25.4276 29.7354L23.2744 33.0891L23.3672 33.0971C24.0715 33.157 24.7646 33.1873 25.4276 33.1873Z" fill="#FEE25A"/>
<path d="M39.4479 35.6801L39.3377 36.1273L39.3197 36.1409C39.1038 36.2801 38.0947 36.9141 36.2537 37.5704C36.2537 37.5727 36.2537 37.5727 36.2537 37.5727C33.9606 38.3911 30.3775 39.2497 25.4277 39.2497C20.6531 39.2497 17.1486 38.4516 14.8514 37.6581C12.8509 36.9702 11.7606 36.2868 11.5357 36.1409L11.5154 36.1273L11.4052 35.6801C11.2457 35.0438 11.5985 34.3943 12.2639 34.0975L12.2932 34.084L12.318 34.102C12.5429 34.2593 13.6937 35.028 15.856 35.7565C18.014 36.4846 21.1789 37.1703 25.4277 37.1703C29.4715 37.1703 32.5311 36.5475 34.6778 35.8599C37.0473 35.1024 38.3015 34.266 38.5351 34.102L38.5622 34.084L38.5915 34.0975C39.2546 34.3943 39.6077 35.0438 39.4479 35.6801Z" fill="#E8B21A"/>
<path d="M35.1079 16.7766C34.5663 13.1416 32.869 10.4374 30.2051 8.95405C29.5758 8.6035 28.9485 8.34929 28.3663 8.16726C26.9458 7.72005 25.7881 7.68848 25.5001 7.68848C25.4553 7.68848 25.4305 7.69073 25.4305 7.69073C25.4282 7.69073 25.4012 7.68848 25.3474 7.68848C25.0845 7.68848 24.0976 7.71329 22.8456 8.06158H22.8433C22.1644 8.24813 21.4115 8.53133 20.6495 8.95405C17.9856 10.4377 16.2909 13.1419 15.747 16.7766L15.7402 16.8236L15.785 16.8394C16.1559 16.9586 17.4102 17.3362 19.3211 17.6555C20.9327 17.9274 23.0144 18.1568 25.4286 18.1568C27.962 18.1568 30.1245 17.9052 31.7677 17.6175C33.5482 17.305 34.7148 16.9544 35.0699 16.8397L35.1147 16.8239L35.1079 16.7766ZM29.5555 15.9224L29.5936 15.5584C29.5936 15.5584 29.5936 15.5584 29.5958 15.5584L29.5555 15.9224Z" fill="#FEE25A"/>
<path d="M22.9731 33.0613L23.0769 33.0716L21.1646 29.415L18.4795 32.2188L18.571 32.2432C20.0392 32.6395 21.5203 32.9147 22.9731 33.0613Z" fill="#FEE25A"/>
<path d="M23.6026 6.07693L23.6477 6.05374C24.0569 5.84592 24.6555 5.74056 25.4268 5.74056C26.1981 5.74056 26.7968 5.84592 27.206 6.05374L27.2511 6.07693L27.2785 6.03408C27.3828 5.87202 27.408 5.71157 27.3497 5.58269C27.2462 5.35297 26.8287 5.0791 25.4265 5.0791C24.0243 5.0791 23.6067 5.35297 23.5033 5.58269C23.445 5.71189 23.4705 5.87202 23.5745 6.03408L23.6026 6.07693Z" fill="#FEE25A"/>
<path d="M27.6424 6.59197C27.3772 6.10868 26.6107 5.85254 25.4283 5.85254C24.2436 5.85254 23.4771 6.10868 23.2119 6.59423C22.9648 7.04594 23.1984 7.5811 23.3086 7.79021L23.3289 7.82629L23.3717 7.81727C24.3834 7.59464 25.1499 7.57659 25.3587 7.57659L25.4283 7.57885H25.4911C25.7025 7.57885 26.4712 7.59464 27.4826 7.81727L27.5254 7.82629L27.5457 7.79021C27.6559 7.57885 27.8898 7.04401 27.6424 6.59197Z" fill="#E8B21A"/>
<path d="M32.2839 32.2432L32.3754 32.2188L29.6902 29.415L27.7783 33.0716L27.8821 33.0613C29.3345 32.9147 30.8156 32.6395 32.2839 32.2432Z" fill="#FEE25A"/>
<path d="M18.2822 32.1635L18.1811 32.1342C15.7984 31.4553 14.182 30.6618 13.8807 30.5113L13.8379 30.4887L13.8514 30.444C13.894 30.3045 13.9368 30.1608 13.9797 30.0122L13.9864 29.9874L17.1043 28.5488L18.2822 32.1635Z" fill="#ED5ABC"/>
<path d="M12.318 34.1011C12.5429 34.2583 13.6938 35.027 15.856 35.7555C15.51 35.7803 14.6175 36.0071 14.8514 37.6571C12.8509 36.9692 11.7606 36.2858 11.5357 36.1399L11.5154 36.1264L11.4052 35.6791C11.2457 35.0428 11.5985 34.3933 12.2639 34.0965L12.2932 34.083L12.318 34.1011Z" fill="#CC9611"/>
<path d="M16.9802 28.4839L14.0244 29.8461L14.0579 29.7291C14.229 29.1044 14.3885 28.4342 14.5344 27.7418L14.548 27.6768L14.6108 27.7016C14.894 27.814 15.6808 28.1107 16.8339 28.441L16.9802 28.4839Z" fill="#EDCC45"/>
<path d="M13.5294 31.624C14.0104 31.8757 15.6672 32.6895 18.1758 33.3549C17.6925 35.279 17.2204 36.0613 17.2204 36.0613L17.1866 36.0523C14.379 35.2903 12.8393 34.326 12.4166 34.0337L12.374 34.0044L12.4011 33.957C12.5561 33.7099 12.9675 32.9905 13.4508 31.6553L13.4733 31.5947L13.5294 31.624Z" fill="#EDCC45"/>
<path d="M13.8807 30.5113L13.8379 30.4887L13.8514 30.444C13.894 30.3045 13.9368 30.1608 13.9797 30.0122L13.9864 29.9874L17.1043 28.5488L18.2822 32.1635L18.1811 32.1342C15.7981 31.4553 14.182 30.6618 13.8807 30.5113Z" fill="#EDCC45"/>
<path d="M18.3585 32.3046C18.3765 32.3092 18.3946 32.3137 18.4123 32.3182C18.3449 32.651 18.2753 32.9564 18.2054 33.2377C15.5506 32.5318 13.8536 31.6664 13.5546 31.5091L13.5117 31.4866L13.5275 31.4415C13.6106 31.1989 13.6983 30.9402 13.784 30.6615L13.8043 30.5986L13.8648 30.6279C14.3075 30.8506 15.9465 31.6306 18.3359 32.2937L18.3449 32.2959L18.3585 32.3046Z" fill="#CC9611"/>
<path d="M17.3215 28.5788C17.8499 28.7206 18.3848 28.8508 18.9222 28.9655C18.794 30.175 18.6322 31.2066 18.4615 32.0765L18.3941 32.1461L17.2207 28.5518L17.3215 28.5788Z" fill="#EDCC45"/>
<path d="M14.8197 26.6342C15.2917 26.8207 16.8585 27.4097 19.0211 27.9088C18.994 28.2348 18.965 28.547 18.9335 28.8505C16.5347 28.3289 14.9051 27.6974 14.6151 27.5827L14.5723 27.5647L14.5813 27.5176C14.6373 27.2457 14.6915 26.967 14.743 26.6748L14.7566 26.6074L14.8197 26.6342Z" fill="#CC9611"/>
<path d="M19.1923 21.6681C19.2371 24.0442 19.1675 26.074 19.0306 27.7913C16.7334 27.2587 15.1124 26.6314 14.8179 26.5122L14.7754 26.4942L14.7844 26.4491C15.1846 24.1763 15.4452 21.632 15.5554 18.885L15.5599 18.8086L15.6318 18.8357C16.0004 18.9681 17.2527 19.3908 19.1991 19.7484C19.1811 20.3596 19.1788 20.9982 19.1923 21.6681Z" fill="#EDCC45"/>
<path d="M15.7845 16.9565C16.1576 17.0757 17.4119 17.4488 19.3116 17.7658C19.26 18.3571 19.2217 18.9818 19.2036 19.6407C17.2276 19.2766 15.9711 18.8426 15.6047 18.7057L15.5664 18.6922L15.5687 18.6516C15.5912 18.0829 15.6405 17.5277 15.7101 17.0039L15.7191 16.9365L15.7845 16.9565Z" fill="#CC9611"/>
<path d="M22.8426 8.06152C22.3146 8.52677 19.9204 10.9793 19.3201 17.6555C17.4095 17.3362 16.1549 16.9586 15.784 16.8393L15.7393 16.8236L15.746 16.7765C16.2899 13.1415 17.9849 10.4374 20.6485 8.954C21.4108 8.53128 22.1638 8.24807 22.8426 8.06152Z" fill="#EDCC45"/>
<path d="M33.632 28.5518L32.5755 31.7933C32.4205 30.973 32.2788 30.0152 32.1641 28.9139C32.6225 28.8127 33.0791 28.7003 33.5308 28.5788L33.632 28.5518Z" fill="#FFE98D"/>
<path d="M35.0685 16.8395C34.7134 16.9542 33.5467 17.3047 31.7663 17.6172C31.1999 11.368 29.0576 8.8349 28.3652 8.16699C28.9474 8.34903 29.5747 8.60324 30.204 8.95379C32.8679 10.4375 34.5649 13.1416 35.1068 16.7763L35.1136 16.8233L35.0685 16.8395Z" fill="#FFE98D"/>
<path d="M31.8875 19.5982C31.8672 18.9419 31.8292 18.3168 31.7773 17.7278C33.5465 17.4176 34.7132 17.0715 35.0705 16.9568L35.1333 16.9365L35.1423 17.0039C35.2119 17.5277 35.2615 18.0829 35.2863 18.6516V18.6922L35.248 18.7057C34.8975 18.8384 33.7285 19.2431 31.8875 19.5982Z" fill="#FCC947"/>
<path d="M36.0357 26.5125C35.7524 26.6272 34.2307 27.2185 32.0569 27.7375C31.9222 26.0315 31.8546 24.0217 31.8997 21.6681C31.9132 20.9824 31.9087 20.3284 31.8906 19.7056C33.7023 19.3573 34.869 18.9639 35.2221 18.8357L35.2962 18.8086L35.2985 18.885C35.4087 21.632 35.6693 24.1766 36.0695 26.4491L36.0785 26.4942L36.0357 26.5125Z" fill="#FFE98D"/>
<path d="M36.2375 27.582C35.9566 27.6945 34.4236 28.288 32.1531 28.798C32.1215 28.4945 32.0925 28.1797 32.0654 27.854C34.1065 27.3662 35.5789 26.8133 36.0329 26.6335L36.0957 26.6064L36.1093 26.6738C36.1631 26.966 36.2172 27.2447 36.271 27.5166L36.2823 27.5637L36.2375 27.582Z" fill="#FCC947"/>
<path d="M36.2428 27.7016L36.3056 27.6768L36.3192 27.7418C36.4651 28.4342 36.6249 29.1041 36.7979 29.7291L36.8295 29.8461L33.876 28.4839L34.02 28.441C35.177 28.1085 35.9593 27.8118 36.2428 27.7016Z" fill="#FFE98D"/>
<path d="M32.6745 32.1342L32.643 32.1432C32.634 32.1026 32.6272 32.0623 32.6182 32.0217L33.7487 28.5488L36.8666 29.9874L36.8756 30.0122C36.9159 30.1604 36.9587 30.3045 37.0016 30.444L37.0151 30.4887L36.9726 30.5113C36.6736 30.6618 35.0552 31.4553 32.6745 32.1342Z" fill="#FFE98D"/>
<path d="M37.3011 31.5098C37.0111 31.6628 35.3972 32.4854 32.8706 33.1778C32.8033 32.8968 32.7334 32.5911 32.666 32.2608C34.979 31.5978 36.5549 30.8467 36.9908 30.6289L37.0494 30.5996L37.0697 30.6624C37.1574 30.9411 37.2428 31.1999 37.3281 31.4425L37.3439 31.4876L37.3011 31.5098Z" fill="#FCC947"/>
<path d="M38.436 34.0337C38.02 34.3192 36.5389 35.2519 33.8389 36.0052C33.7242 35.7916 33.3128 34.9623 32.8994 33.2943C35.2843 32.6425 36.8579 31.8692 37.3231 31.624L37.3818 31.5947L37.4021 31.6553C37.8876 32.9905 38.2968 33.7099 38.4518 33.957L38.4811 34.0044L38.436 34.0337Z" fill="#FFE98D"/>
<path d="M39.4478 35.6791L39.3376 36.1264L39.3196 36.1399C39.1037 36.2791 38.0946 36.9131 36.2536 37.5695C36.4875 35.625 35.1027 35.7533 35.1027 35.7533L34.6777 35.8589C37.0471 35.1015 38.3014 34.265 38.535 34.1011L38.5621 34.083L38.5914 34.0965C39.2545 34.3933 39.6076 35.0428 39.4478 35.6791Z" fill="#FCC947"/>
<path d="M25.4269 7.63471C25.4269 7.63471 15.9441 7.31284 15.5066 18.7301C15.069 30.1473 12.2969 34.0175 12.2969 34.0175C12.2969 34.0175 16.3088 37.1137 25.4269 37.1137" stroke="black" stroke-miterlimit="10" stroke-linecap="round" stroke-linejoin="round"/>
<path d="M12.2968 34.0166C11.5735 34.3082 11.1791 35.007 11.3502 35.6933L11.4669 36.1611C11.4669 36.1611 15.9163 39.3057 25.4265 39.3057" stroke="black" stroke-miterlimit="10" stroke-linecap="round" stroke-linejoin="round"/>
<path d="M13.7783 30.5215C13.7783 30.5215 18.8619 33.2427 25.4269 33.2427" stroke="black" stroke-miterlimit="10" stroke-linecap="round" stroke-linejoin="round"/>
<path d="M13.9482 29.9432L17.1367 28.4718L18.3684 32.2511L21.177 29.3188L23.1742 33.1381L25.4264 29.6304C19.2989 29.6304 14.5137 27.6006 14.5137 27.6006" stroke="black" stroke-miterlimit="10" stroke-linecap="round" stroke-linejoin="round"/>
<path d="M13.4502 31.5176C13.4502 31.5176 18.2786 34.2427 25.4271 34.2427" stroke="black" stroke-miterlimit="10" stroke-linecap="round" stroke-linejoin="round"/>
<path d="M14.7188 26.5312C14.7188 26.5312 19.7011 28.6307 25.4272 28.6307" stroke="black" stroke-miterlimit="10" stroke-linecap="round" stroke-linejoin="round"/>
<path d="M15.5059 18.7295C15.5059 18.7295 19.2807 20.2454 25.4262 20.2454" stroke="black" stroke-miterlimit="10" stroke-linecap="round" stroke-linejoin="round"/>
<path d="M15.6709 16.8613C15.6709 16.8613 19.5549 18.2139 25.4269 18.2139" stroke="black" stroke-miterlimit="10" stroke-linecap="round" stroke-linejoin="round"/>
<path d="M23.3004 7.88887C23.3004 7.88887 21.9614 5.79688 25.4262 5.79688" stroke="black" stroke-miterlimit="10" stroke-linecap="round" stroke-linejoin="round"/>
<path d="M23.5892 6.14917C23.5892 6.14917 22.5817 5.02246 25.4267 5.02246" stroke="black" stroke-miterlimit="10" stroke-linecap="round" stroke-linejoin="round"/>
<path d="M25.4268 7.63471C25.4268 7.63471 34.9095 7.31284 35.3471 18.7301C35.7846 30.1473 38.5568 34.0175 38.5568 34.0175C38.5568 34.0175 34.5448 37.1137 25.4268 37.1137" stroke="black" stroke-miterlimit="10" stroke-linecap="round" stroke-linejoin="round"/>
<path d="M38.5564 34.0166C39.2798 34.3082 39.6741 35.007 39.503 35.6933L39.3864 36.1611C39.3864 36.1611 34.9369 39.3057 25.4268 39.3057" stroke="black" stroke-miterlimit="10" stroke-linecap="round" stroke-linejoin="round"/>
<path d="M37.0753 30.5215C37.0753 30.5215 31.9918 33.2427 25.4268 33.2427" stroke="black" stroke-miterlimit="10" stroke-linecap="round" stroke-linejoin="round"/>
<path d="M36.9049 29.9432L33.7165 28.4718L32.4847 32.2511L29.6762 29.3188L27.6789 33.1381L25.4268 29.6304C31.5542 29.6304 36.3394 27.6006 36.3394 27.6006" stroke="black" stroke-miterlimit="10" stroke-linecap="round" stroke-linejoin="round"/>
<path d="M37.4036 31.5176C37.4036 31.5176 32.5752 34.2427 25.4268 34.2427" stroke="black" stroke-miterlimit="10" stroke-linecap="round" stroke-linejoin="round"/>
<path d="M36.1352 26.5312C36.1352 26.5312 31.1531 28.6307 25.4268 28.6307" stroke="black" stroke-miterlimit="10" stroke-linecap="round" stroke-linejoin="round"/>
<path d="M35.3471 18.7295C35.3471 18.7295 31.5723 20.2454 25.4268 20.2454" stroke="black" stroke-miterlimit="10" stroke-linecap="round" stroke-linejoin="round"/>
<path d="M35.1828 16.8613C35.1828 16.8613 31.2987 18.2139 25.4268 18.2139" stroke="black" stroke-miterlimit="10" stroke-linecap="round" stroke-linejoin="round"/>
<path d="M27.5526 7.88887C27.5526 7.88887 28.8916 5.79688 25.4268 5.79688" stroke="black" stroke-miterlimit="10" stroke-linecap="round" stroke-linejoin="round"/>
<path d="M27.2639 6.14917C27.2639 6.14917 28.2714 5.02246 25.4268 5.02246" stroke="black" stroke-miterlimit="10" stroke-linecap="round" stroke-linejoin="round"/>
<path d="M15.0788 37.8008C15.0788 37.8008 14.7501 39.6076 17.6222 40.7292C20.4945 41.8507 21.6741 39.1337 21.6741 39.1337" stroke="black" stroke-miterlimit="10" stroke-linecap="round" stroke-linejoin="round"/>
<path d="M16.9404 15.9247C17.3989 13.079 19.3698 10.5224 22.005 9.35449" stroke="black" stroke-width="0.5" stroke-miterlimit="10" stroke-linecap="round" stroke-linejoin="round"/>
<path d="M19.1914 13.5734C19.7085 12.3993 20.5762 11.3821 21.6542 10.6865" stroke="black" stroke-width="0.5" stroke-miterlimit="10" stroke-linecap="round" stroke-linejoin="round"/>
<path d="M21.543 12.9285C21.7453 12.7127 21.9476 12.4968 22.15 12.2812" stroke="black" stroke-width="0.5" stroke-miterlimit="10" stroke-linecap="round" stroke-linejoin="round"/>
<path d="M23 13.8592C23.0809 13.7377 23.1617 13.6163 23.2429 13.4951" stroke="black" stroke-width="0.5" stroke-miterlimit="10" stroke-linecap="round" stroke-linejoin="round"/>
<path d="M30.9756 10.5352C32.7502 11.7521 33.914 13.8177 34.0358 15.9664" stroke="black" stroke-width="0.5" stroke-miterlimit="10" stroke-linecap="round" stroke-linejoin="round"/>
<path d="M32.418 13.542C32.7907 14.0552 33.0527 14.6487 33.1803 15.2699" stroke="black" stroke-width="0.5" stroke-miterlimit="10" stroke-linecap="round" stroke-linejoin="round"/>
<path d="M31.2939 14.8301C31.4086 15.1114 31.4641 15.4165 31.4557 15.7203" stroke="black" stroke-width="0.5" stroke-miterlimit="10" stroke-linecap="round" stroke-linejoin="round"/>
<path d="M29.5953 15.5586C29.5817 15.6801 29.5682 15.8015 29.5547 15.9227" stroke="black" stroke-width="0.5" stroke-miterlimit="10" stroke-linecap="round" stroke-linejoin="round"/>
<path d="M16.0029 25.3909C16.1698 24.0622 16.262 22.7238 16.279 21.3848" stroke="black" stroke-width="0.5" stroke-miterlimit="10" stroke-linecap="round" stroke-linejoin="round"/>
<path d="M17.374 24.7023C17.4111 24.2399 17.4813 23.7802 17.5838 23.3281" stroke="black" stroke-width="0.5" stroke-miterlimit="10" stroke-linecap="round" stroke-linejoin="round"/>
<path d="M18.71 24.9053C18.8076 24.5889 18.8762 24.2635 18.9146 23.9346" stroke="black" stroke-width="0.5" stroke-miterlimit="10" stroke-linecap="round" stroke-linejoin="round"/>
<path d="M34.9422 25.6325C34.6007 24.1901 34.4341 22.706 34.447 21.2236" stroke="black" stroke-width="0.5" stroke-miterlimit="10" stroke-linecap="round" stroke-linejoin="round"/>
<path d="M33.9487 25.3962C33.7959 24.9023 33.6722 24.399 33.5791 23.8906" stroke="black" stroke-width="0.5" stroke-miterlimit="10" stroke-linecap="round" stroke-linejoin="round"/>
<path d="M32.105 25.2292C32.0799 24.9456 32.0544 24.6624 32.0293 24.3789" stroke="black" stroke-width="0.5" stroke-miterlimit="10" stroke-linecap="round" stroke-linejoin="round"/>
<path d="M30.7282 25.3502C30.6812 25.0563 30.6677 24.757 30.6876 24.46" stroke="black" stroke-width="0.5" stroke-miterlimit="10" stroke-linecap="round" stroke-linejoin="round"/>
<path d="M13.9346 33.7254C14.0412 33.5627 14.1479 33.4 14.2545 33.2373" stroke="black" stroke-width="0.5" stroke-miterlimit="10" stroke-linecap="round" stroke-linejoin="round"/>
<path d="M14.8604 34.0459C14.9132 33.9508 14.966 33.8558 15.0189 33.7607" stroke="black" stroke-width="0.5" stroke-miterlimit="10" stroke-linecap="round" stroke-linejoin="round"/>
<path d="M15.6758 34.6569C15.7567 34.5087 15.8375 34.3601 15.9187 34.2119" stroke="black" stroke-width="0.5" stroke-miterlimit="10" stroke-linecap="round" stroke-linejoin="round"/>
<path d="M36.9229 33.0371C36.9628 33.2527 37.0433 33.4605 37.1587 33.6467" stroke="black" stroke-width="0.5" stroke-miterlimit="10" stroke-linecap="round" stroke-linejoin="round"/>
<path d="M35.9434 33.9697C35.9566 34.0641 35.9698 34.1585 35.983 34.2533" stroke="black" stroke-width="0.5" stroke-miterlimit="10" stroke-linecap="round" stroke-linejoin="round"/>
<path d="M34.8953 34.1709C34.8824 34.3336 34.8963 34.4982 34.9359 34.6564" stroke="black" stroke-width="0.5" stroke-miterlimit="10" stroke-linecap="round" stroke-linejoin="round"/>
<path d="M16.3232 39.3506C16.8932 39.8555 17.5737 40.2347 18.3031 40.4538" stroke="black" stroke-width="0.5" stroke-miterlimit="10" stroke-linecap="round" stroke-linejoin="round"/>
<path d="M17.3369 39.4688C17.6169 39.6617 17.9336 39.8019 18.2652 39.8789" stroke="black" stroke-width="0.5" stroke-miterlimit="10" stroke-linecap="round" stroke-linejoin="round"/>
<path d="M19.3994 39.7156C19.508 39.6966 19.6224 39.7095 19.7239 39.7523" stroke="black" stroke-width="0.5" stroke-miterlimit="10" stroke-linecap="round" stroke-linejoin="round"/>
<path d="M23.8118 7.30345C23.729 7.08114 23.7909 6.81211 23.9626 6.64844" stroke="black" stroke-width="0.5" stroke-miterlimit="10" stroke-linecap="round" stroke-linejoin="round"/>
<path d="M24.498 7.06206C24.5316 6.93704 24.6011 6.82234 24.6968 6.73535" stroke="black" stroke-width="0.5" stroke-miterlimit="10" stroke-linecap="round" stroke-linejoin="round"/>
<path d="M25.1406 6.81624C25.1935 6.74794 25.2463 6.67963 25.2988 6.61133" stroke="black" stroke-width="0.5" stroke-miterlimit="10" stroke-linecap="round" stroke-linejoin="round"/>
<path d="M25.9131 6.89942C25.9402 6.80502 25.9669 6.71061 25.994 6.61621" stroke="black" stroke-width="0.5" stroke-miterlimit="10" stroke-linecap="round" stroke-linejoin="round"/>
<path d="M27.127 7.22327C27.1672 7.07893 27.1811 6.9275 27.1676 6.77832" stroke="black" stroke-width="0.5" stroke-miterlimit="10" stroke-linecap="round" stroke-linejoin="round"/>
<path d="M31.8571 15.9354L31.803 16.0011C31.6287 16.2154 31.2475 16.573 30.6357 16.573H30.5931C29.7036 16.5447 28.216 15.6857 26.1781 11.7695L26.1523 11.7198L26.2419 11.668L26.2844 11.6963C27.7105 13.2048 28.9557 14.3135 30.0477 15.0358C30.0525 15.0381 30.057 15.0429 30.0618 15.0478C30.4053 15.2736 30.7326 15.4621 31.0455 15.6126C31.0526 15.6197 31.0619 15.6219 31.069 15.6242C31.3113 15.7418 31.5468 15.8359 31.7749 15.909L31.8571 15.9354Z" fill="#C92C1E"/>
<path d="M19.0138 15.9083L18.9316 15.9344L18.9864 16.0014C19.1607 16.215 19.5448 16.5743 20.1566 16.5743L20.1953 16.574C21.0849 16.544 22.5731 15.6863 24.6096 11.7701L24.6261 11.7143L24.5372 11.6631L24.5053 11.6969C22.265 14.067 20.4688 15.4447 19.0138 15.9083Z" fill="#C92C1E"/>
<path d="M24.3909 11.5554C23.9486 11.1671 23.6873 10.4258 23.6167 9.35027C23.5697 8.63243 23.6473 8.03927 23.8496 7.58272L23.8638 7.55437L23.8474 7.52602C23.5107 7.01534 20.4866 2.52719 17.5633 2.30134C17.4902 2.29425 17.4151 2.29199 17.342 2.29199C17.2315 2.29199 17.1232 2.29908 17.0146 2.31068H17.0124C16.2804 2.39767 15.6166 2.77915 15.0306 3.44738C12.5242 6.30684 13.0536 7.36363 13.9338 9.117C14.0137 9.27713 14.0962 9.44177 14.181 9.6135C14.1903 9.63219 15.1578 11.5505 15.7813 12.5413C15.7977 12.5696 15.7906 12.6047 15.7626 12.6237C15.7533 12.6286 15.7439 12.6331 15.732 12.6331C15.7107 12.6331 15.692 12.6212 15.6827 12.6047C15.5039 12.3222 15.2803 11.9339 15.0167 11.4539L14.7722 11.0115L14.9088 11.4987C14.9652 11.701 15.01 11.8753 15.0454 12.0448C15.3231 13.3393 15.6763 14.2805 16.1302 14.9184L16.1515 14.9513L16.1563 14.9558C16.514 15.4452 16.9235 15.749 17.4106 15.8853C17.592 15.9346 17.7873 15.9607 17.9896 15.9607C18.7567 15.9607 19.6795 15.5982 20.7501 14.8759C20.8584 14.8027 20.9667 14.7277 21.0798 14.6474C21.082 14.6452 21.0846 14.6426 21.0868 14.6404C21.0891 14.6381 21.0891 14.6381 21.0891 14.6381C22.0753 13.9251 23.1792 12.9247 24.3958 11.6398L24.438 11.595L24.3909 11.5554Z" fill="#C92C1E"/>
<path d="M33.4032 2.08478C32.8313 1.40463 32.2098 1.05859 31.5603 1.05859C31.4849 1.05859 31.4072 1.06343 31.3296 1.07277C28.9386 1.36242 26.766 5.88826 26.3543 6.79427L26.333 6.8368L26.373 6.86515C26.4387 6.91445 26.4976 6.96149 26.5495 7.01336C26.6436 7.10518 26.7309 7.2157 26.8157 7.35231L26.8627 7.42996L26.9146 7.35231C27.4607 6.52846 30.3388 2.40761 33.2125 2.18401C33.236 2.18176 33.2573 2.18176 33.2808 2.18176H33.3207L33.4809 2.1795L33.4032 2.08478Z" fill="#A3180B"/>
<path d="M35.7541 3.44738C35.1564 2.76497 34.4785 2.38124 33.7301 2.30842C33.7278 2.30842 33.7278 2.30842 33.7278 2.30842C33.636 2.2965 33.5419 2.29199 33.4478 2.29199C33.3724 2.29199 33.2974 2.29425 33.222 2.30134C30.3013 2.52719 27.2769 7.01534 26.9405 7.52602L26.9241 7.55437L26.936 7.58272C27.1383 8.03927 27.2186 8.63468 27.1712 9.35027C27.1006 10.4258 26.8393 11.1671 26.3944 11.5554L26.3496 11.5953L26.3921 11.6401C27.6229 12.9414 28.7409 13.9512 29.7365 14.6668C29.7365 14.6668 29.7388 14.669 29.7413 14.669C30.9392 15.528 31.9583 15.961 32.796 15.961C32.7983 15.961 32.7983 15.961 32.7983 15.961C33.0006 15.961 33.1936 15.9352 33.375 15.8856C33.8644 15.749 34.2739 15.4455 34.6319 14.9561L34.6554 14.9232L34.6577 14.9184C35.1097 14.2805 35.4651 13.3416 35.7428 12.0448C35.7783 11.8776 35.8205 11.7036 35.8772 11.4987L36.0112 11.0115L35.7689 11.4539C35.5076 11.9317 35.284 12.3177 35.1052 12.6047C35.0933 12.6212 35.0746 12.6331 35.0559 12.6331C35.0443 12.6331 35.0324 12.6283 35.023 12.6238C34.9973 12.6051 34.9879 12.5696 35.0066 12.5413C35.6278 11.5505 36.5976 9.63219 36.6095 9.61125C36.692 9.44177 36.7745 9.27714 36.8544 9.11701C37.7311 7.36363 38.263 6.30684 35.7541 3.44738ZM27.5591 11.5012C27.5591 11.499 27.5591 11.499 27.5591 11.499L29.3715 12.8783L27.5591 11.5012ZM34.6528 6.60809H34.6551C34.6667 6.74695 34.688 6.88807 34.7186 7.02694C34.688 6.8884 34.6667 6.74695 34.6528 6.60809Z" fill="#C92C1E"/>
<path d="M35.2295 17.8413C35.2343 17.8271 35.2459 17.813 35.2601 17.8084L36.3333 17.359L39.4257 16.0622L39.1973 16.0386C38.4372 15.961 36.4812 15.7094 34.7539 15.0572L34.7114 15.0431L34.6856 15.0785C34.3209 15.5586 33.9043 15.8598 33.4078 15.9987C33.21 16.0528 33.0005 16.0812 32.784 16.0812C32.5724 16.0812 32.3462 16.0554 32.0968 15.9942C32.071 15.9893 32.0427 15.9823 32.0143 15.9752L31.9744 15.9658L31.9531 15.9987C31.8001 16.2059 31.3719 16.693 30.6447 16.693L30.5928 16.6908C29.2512 16.6508 27.7285 15.0079 26.0695 11.8144L26.0296 11.7744L25.9307 11.8073L25.9423 11.8592C26.0811 12.5486 27.5874 18.7032 37.1214 21.7956L37.2577 21.8404L35.2314 17.8887C35.225 17.8742 35.2224 17.8577 35.2295 17.8413ZM32.3629 18.0224V18.0201C32.4361 18.0672 32.5111 18.1142 32.5843 18.159C32.5111 18.1142 32.4361 18.0694 32.3629 18.0224Z" fill="#C92C1E"/>
<path d="M24.8386 11.8004L24.742 11.7676L24.7185 11.8124C23.0592 15.0085 21.5365 16.6514 20.1926 16.6913L20.1433 16.6936C19.4161 16.6936 18.9854 16.2064 18.8349 15.9993L18.8114 15.9664L18.7737 15.9757C18.6867 15.997 18.5994 16.0157 18.5172 16.0321H18.515C18.3313 16.065 18.1618 16.0817 18.0043 16.0817C17.7855 16.0817 17.5761 16.0534 17.3805 15.9993C16.884 15.8604 16.4652 15.5591 16.1027 15.0791L16.0769 15.0436L16.0344 15.0578C14.3045 15.7096 12.3511 15.9616 11.591 16.0392L11.3604 16.0627L14.4292 17.3502L15.526 17.809C15.5424 17.8138 15.5543 17.828 15.5588 17.8419C15.5637 17.8583 15.5637 17.8747 15.5566 17.8889L13.5303 21.8406L13.6644 21.7958C23.2032 18.7034 24.7046 12.5489 24.8461 11.8568L24.8386 11.8004Z" fill="#C92C1E"/>
<path d="M17.507 2.18145C17.529 2.18145 17.5512 2.18177 17.5737 2.18338C20.4477 2.40601 23.3255 6.52847 23.8733 7.35264L23.9242 7.42932L23.9722 7.35103C24.0563 7.21378 24.1429 7.10294 24.237 7.0124C24.2905 6.96085 24.3482 6.91285 24.4136 6.86613L24.4529 6.83778L24.4329 6.79396C24.0215 5.88924 21.8476 1.36179 19.457 1.07342C19.3803 1.06408 19.3039 1.05957 19.2282 1.05957C18.5774 1.05957 17.9571 1.40464 17.3849 2.08479L17.3066 2.17822L17.4284 2.18177L17.507 2.18145Z" fill="#A3180B"/>
<path d="M26.4717 7.09994C26.0928 6.73038 25.6385 6.69043 25.4619 6.69043C25.4194 6.69043 25.3962 6.69526 25.3914 6.69526C25.3914 6.69526 25.3679 6.69043 25.3256 6.69043C25.1491 6.69043 24.6948 6.73038 24.3159 7.09994C23.8616 7.54231 23.6641 8.29785 23.7347 9.34272C23.803 10.3924 24.0523 11.108 24.476 11.4727C24.669 11.6374 24.8997 11.7247 25.1443 11.7247C25.1726 11.7247 25.2006 11.7247 25.229 11.7224C25.2831 11.7176 25.3372 11.7153 25.3936 11.7153C25.4478 11.7153 25.5041 11.7176 25.5583 11.7224C25.584 11.7247 25.6124 11.7247 25.6408 11.7247C25.7136 11.7247 25.7867 11.7176 25.8621 11.7012C26.0245 11.6635 26.1775 11.5881 26.3116 11.4727C26.7352 11.108 26.9846 10.3924 27.0529 9.34272C27.1209 8.2956 26.9257 7.54231 26.4717 7.09994Z" fill="#C92C1E"/>
<path d="M18.0043 16.0811C18.1618 16.0811 18.3313 16.0646 18.515 16.0315C18.0984 16.295 16.672 17.0976 14.4292 17.3495L11.3604 16.0621L11.591 16.0385C12.3511 15.9609 14.3045 15.7093 16.0344 15.0571L16.0769 15.043L16.1027 15.0784C16.4652 15.5585 16.884 15.8597 17.3805 15.9986C17.5761 16.0527 17.7855 16.0811 18.0043 16.0811Z" fill="#A3180B"/>
<path d="M21.0868 14.6402C21.0846 14.6425 21.082 14.6451 21.0798 14.6473C20.9667 14.7272 20.8584 14.8026 20.7501 14.8757C19.6792 15.5984 18.7567 15.9606 17.9896 15.9606C17.7873 15.9606 17.592 15.9348 17.4106 15.8852C16.9235 15.7486 16.514 15.4451 16.1563 14.9556L16.1515 14.9511L16.1302 14.9183C15.6759 14.2803 15.3231 13.3392 15.0454 12.0446C15.01 11.8752 14.9655 11.7012 14.9088 11.4985L14.7722 11.0114L15.0167 11.4537C15.2803 11.9338 15.5039 12.322 15.6827 12.6046C15.692 12.621 15.7111 12.633 15.732 12.633C15.7439 12.633 15.7533 12.6281 15.7626 12.6236C15.791 12.6049 15.7977 12.5695 15.7813 12.5411C15.1575 11.5504 14.1903 9.63206 14.181 9.61337C14.0962 9.44164 14.0137 9.27668 13.9338 9.11687C13.0536 7.3635 12.5242 6.3067 15.0306 3.44724C15.6166 2.77869 16.2804 2.39754 17.0124 2.31055H17.0146V2.3128C17.0146 2.3128 13.4586 5.44999 15.5413 8.82496C17.6217 12.1999 16.2237 13.7249 17.65 14.4028C19.0441 15.0665 20.9998 14.6567 21.0868 14.6402Z" fill="#A3180B"/>
<path d="M30.0605 15.0479C30.404 15.2737 30.7314 15.4622 31.0442 15.6127C30.6324 15.4316 30.3032 15.2244 30.0605 15.0479Z" fill="#EDCC45"/>
<path d="M32.7959 15.9602C31.9582 15.9602 30.9391 15.5272 29.7412 14.6682C30.24 14.7552 31.8335 14.9672 33.0221 14.4024C34.4484 13.7245 33.0505 12.1996 35.1309 8.82461C37.0373 5.73671 34.2223 2.78768 33.7306 2.30762C34.4791 2.38043 35.157 2.76417 35.7546 3.44657C38.2635 6.30603 37.7316 7.36282 36.8536 9.1162C36.7737 9.27633 36.6912 9.44097 36.6088 9.61044C36.5972 9.63171 35.6274 11.5497 35.0058 12.5405C34.9872 12.5688 34.9965 12.6039 35.0223 12.6229C35.0316 12.6278 35.0435 12.6323 35.0551 12.6323C35.0738 12.6323 35.0928 12.6204 35.1044 12.6039C35.2832 12.3169 35.5068 11.9309 35.7681 11.4531L36.0104 11.0107L35.8764 11.4978C35.82 11.7028 35.7775 11.8767 35.7421 12.044C35.4643 13.3408 35.1089 14.2797 34.6569 14.9176L34.6547 14.9224L34.6311 14.9553C34.2735 15.4447 33.864 15.7485 33.3743 15.8848C33.1929 15.9341 33.0002 15.9602 32.7975 15.9602C32.7982 15.9602 32.7982 15.9602 32.7959 15.9602Z" fill="#DE5547"/>
<path d="M39.4262 16.0614L36.3338 17.3582C33.9097 17.104 32.4176 16.2025 32.0977 15.9931C32.347 16.0543 32.5729 16.0801 32.7849 16.0801C33.0014 16.0801 33.2108 16.0517 33.4087 15.9976C33.9052 15.8587 34.3217 15.5575 34.6865 15.0774L34.7122 15.042L34.7548 15.0562C36.4821 15.708 38.4381 15.9599 39.1981 16.0376L39.4262 16.0614Z" fill="#DE5547"/>
<path d="M23.9298 7.54666C23.9298 7.54666 18.6539 -0.772682 14.988 3.40874C11.3221 7.59016 14.1287 8.04831 14.988 12.058C15.8472 16.0677 17.8577 18.6775 24.5278 11.5873" stroke="black" stroke-miterlimit="10" stroke-linecap="round" stroke-linejoin="round"/>
<path d="M24.528 6.86065C24.528 6.86065 20.5798 -2.23678 17.1826 2.23751" stroke="black" stroke-miterlimit="10" stroke-linecap="round" stroke-linejoin="round"/>
<path d="M18.8389 15.8989C18.8389 15.8989 20.8294 19.2333 24.7153 11.6934" stroke="black" stroke-miterlimit="10" stroke-linecap="round" stroke-linejoin="round"/>
<path d="M14.1289 9.6416C14.1289 9.6416 15.1026 11.5709 15.7328 12.5732" stroke="black" stroke-miterlimit="10" stroke-linecap="round" stroke-linejoin="round"/>
<path d="M24.9231 11.7598C24.9231 11.7598 23.981 18.6254 13.4131 21.9382L15.5038 17.8618L11.1123 16.0224C11.1123 16.0224 13.7933 15.8606 16.0995 14.9711" stroke="black" stroke-miterlimit="10" stroke-linecap="round" stroke-linejoin="round"/>
<path d="M25.3941 6.6354C25.3941 6.6354 27.3034 6.44434 27.1123 9.34665C26.9596 11.6684 25.9515 11.815 25.5545 11.7808C25.4479 11.7718 25.3403 11.7718 25.2336 11.7808C24.8364 11.815 23.8285 11.6684 23.6755 9.34665C23.4848 6.44434 25.3941 6.6354 25.3941 6.6354Z" stroke="black" stroke-miterlimit="10" stroke-linecap="round" stroke-linejoin="round"/>
<path d="M26.8578 7.54666C26.8578 7.54666 32.1337 -0.772682 35.7996 3.40874C39.4655 7.59016 36.6589 8.04831 35.7996 12.058C34.9403 16.0677 32.9298 18.6775 26.2598 11.5873" stroke="black" stroke-miterlimit="10" stroke-linecap="round" stroke-linejoin="round"/>
<path d="M26.2598 6.86065C26.2598 6.86065 30.2079 -2.23678 33.6051 2.23751" stroke="black" stroke-miterlimit="10" stroke-linecap="round" stroke-linejoin="round"/>
<path d="M31.9478 15.8989C31.9478 15.8989 29.9573 19.2333 26.0713 11.6934" stroke="black" stroke-miterlimit="10" stroke-linecap="round" stroke-linejoin="round"/>
<path d="M36.6586 9.6416C36.6586 9.6416 35.6849 11.5709 35.0547 12.5732" stroke="black" stroke-miterlimit="10" stroke-linecap="round" stroke-linejoin="round"/>
<path d="M25.8643 11.7598C25.8643 11.7598 26.8063 18.6254 37.3743 21.9382L35.2836 17.8618L39.6751 16.0224C39.6751 16.0224 36.9941 15.8606 34.6878 14.9711" stroke="black" stroke-miterlimit="10" stroke-linecap="round" stroke-linejoin="round"/>
<path d="M15.047 4.8418C14.708 5.30672 14.3675 5.80097 14.2821 6.36996C14.1593 7.19026 14.5872 7.98318 15.0218 8.68942C15.3995 9.3032 15.7938 9.90667 16.2043 10.4992" stroke="black" stroke-width="0.5" stroke-miterlimit="10" stroke-linecap="round" stroke-linejoin="round"/>
<path d="M15.2583 6.07422C15.1855 6.34712 15.112 6.62613 15.1323 6.90773C15.151 7.16742 15.2486 7.41422 15.3514 7.65329C15.5167 8.03927 15.7 8.42172 15.9539 8.75615" stroke="black" stroke-width="0.5" stroke-miterlimit="10" stroke-linecap="round" stroke-linejoin="round"/>
<path d="M16.041 7.00293C16.0771 7.23942 16.1535 7.47011 16.2659 7.68115" stroke="black" stroke-width="0.5" stroke-miterlimit="10" stroke-linecap="round" stroke-linejoin="round"/>
<path d="M17.2559 8.10449C17.3313 8.22693 17.4063 8.34936 17.4817 8.47179" stroke="black" stroke-width="0.5" stroke-miterlimit="10" stroke-linecap="round" stroke-linejoin="round"/>
<path d="M16.8887 11.2109C16.9734 11.3334 17.0581 11.4558 17.1429 11.5782" stroke="black" stroke-width="0.5" stroke-miterlimit="10" stroke-linecap="round" stroke-linejoin="round"/>
<path d="M21.6338 6.57812C22.2134 6.90612 22.7396 7.32819 23.1851 7.82308" stroke="black" stroke-width="0.5" stroke-miterlimit="10" stroke-linecap="round" stroke-linejoin="round"/>
<path d="M21.9707 8.33398C22.2819 8.42935 22.5854 8.55017 22.877 8.69484" stroke="black" stroke-width="0.5" stroke-miterlimit="10" stroke-linecap="round" stroke-linejoin="round"/>
<path d="M22.4238 9.99688C22.5788 9.98109 22.7315 9.94307 22.8759 9.88379" stroke="black" stroke-width="0.5" stroke-miterlimit="10" stroke-linecap="round" stroke-linejoin="round"/>
<path d="M21.7549 12.5804C22.2775 12.2633 22.7807 11.9144 23.2608 11.5361" stroke="black" stroke-width="0.5" stroke-miterlimit="10" stroke-linecap="round" stroke-linejoin="round"/>
<path d="M22.3955 11.437C22.4709 11.39 22.546 11.3429 22.6214 11.2959" stroke="black" stroke-width="0.5" stroke-miterlimit="10" stroke-linecap="round" stroke-linejoin="round"/>
<path d="M27.5596 11.499C28.1637 11.9581 28.7678 12.4173 29.3719 12.8764" stroke="black" stroke-width="0.5" stroke-miterlimit="10" stroke-linecap="round" stroke-linejoin="round"/>
<path d="M28.2422 10.6748C28.451 10.7702 28.6688 10.8462 28.8917 10.9007" stroke="black" stroke-width="0.5" stroke-miterlimit="10" stroke-linecap="round" stroke-linejoin="round"/>
<path d="M28.5244 9.48828C28.7126 9.52598 28.9011 9.56367 29.0892 9.60137" stroke="black" stroke-width="0.5" stroke-miterlimit="10" stroke-linecap="round" stroke-linejoin="round"/>
<path d="M28.1572 7.90647C28.7365 7.60264 29.3023 7.27304 29.8523 6.91895" stroke="black" stroke-width="0.5" stroke-miterlimit="10" stroke-linecap="round" stroke-linejoin="round"/>
<path d="M28.835 6.38188C29.0044 6.27846 29.1739 6.17471 29.3434 6.07129" stroke="black" stroke-width="0.5" stroke-miterlimit="10" stroke-linecap="round" stroke-linejoin="round"/>
<path d="M35.1865 10.3896C36.0661 9.36114 36.5684 8.01727 36.5787 6.66406" stroke="black" stroke-width="0.5" stroke-miterlimit="10" stroke-linecap="round" stroke-linejoin="round"/>
<path d="M35.5547 8.55628C35.6742 8.1239 35.7428 7.67766 35.7583 7.22949" stroke="black" stroke-width="0.5" stroke-miterlimit="10" stroke-linecap="round" stroke-linejoin="round"/>
<path d="M34.7638 7.20122C34.7087 7.00726 34.6717 6.80815 34.6543 6.60742" stroke="black" stroke-width="0.5" stroke-miterlimit="10" stroke-linecap="round" stroke-linejoin="round"/>
<path d="M33.8311 5.73315C33.8118 5.62039 33.7924 5.5073 33.7734 5.39453" stroke="black" stroke-width="0.5" stroke-miterlimit="10" stroke-linecap="round" stroke-linejoin="round"/>
<path d="M30.7607 17.7285C31.8652 18.571 33.0438 19.316 34.2788 19.9516" stroke="black" stroke-width="0.5" stroke-miterlimit="10" stroke-linecap="round" stroke-linejoin="round"/>
<path d="M32.3633 18.0215C32.6584 18.2106 32.9609 18.3881 33.2699 18.5531" stroke="black" stroke-width="0.5" stroke-miterlimit="10" stroke-linecap="round" stroke-linejoin="round"/>
<path d="M33.0996 17.3105C33.2974 17.4046 33.4949 17.4987 33.6928 17.5928" stroke="black" stroke-width="0.5" stroke-miterlimit="10" stroke-linecap="round" stroke-linejoin="round"/>
<path d="M34.3984 17.0293C34.4548 17.048 34.5115 17.067 34.5679 17.0857" stroke="black" stroke-width="0.5" stroke-miterlimit="10" stroke-linecap="round" stroke-linejoin="round"/>
<path d="M16.4072 19.8503C17.811 19.251 19.1304 18.4546 20.3151 17.4922" stroke="black" stroke-width="0.5" stroke-miterlimit="10" stroke-linecap="round" stroke-linejoin="round"/>
<path d="M17.9893 18.2427C18.2112 18.1531 18.4146 18.0184 18.5834 17.8486" stroke="black" stroke-width="0.5" stroke-miterlimit="10" stroke-linecap="round" stroke-linejoin="round"/>
<path d="M17.4531 17.4251C17.5849 17.3497 17.7167 17.2746 17.8485 17.1992" stroke="black" stroke-width="0.5" stroke-miterlimit="10" stroke-linecap="round" stroke-linejoin="round"/>
<path d="M24.4632 7.68457C23.9931 8.61667 24.0434 9.79107 24.5914 10.6794" stroke="black" stroke-width="0.5" stroke-miterlimit="10" stroke-linecap="round" stroke-linejoin="round"/>
<path d="M24.7398 8.81055C24.7066 9.06315 24.6973 9.31865 24.7115 9.57318" stroke="black" stroke-width="0.5" stroke-miterlimit="10" stroke-linecap="round" stroke-linejoin="round"/>
<path d="M25.5058 9.26367C25.4787 9.40608 25.4955 9.55622 25.5535 9.68897" stroke="black" stroke-width="0.5" stroke-miterlimit="10" stroke-linecap="round" stroke-linejoin="round"/>
<path d="M26.5479 8.38672C26.6126 8.67347 26.6406 8.9686 26.631 9.26244" stroke="black" stroke-width="0.5" stroke-miterlimit="10" stroke-linecap="round" stroke-linejoin="round"/>
<path d="M28.5234 4.20645C28.9565 3.57946 29.4826 3.01691 30.0793 2.54297" stroke="black" stroke-width="0.5" stroke-miterlimit="10" stroke-linecap="round" stroke-linejoin="round"/>
<path d="M30.7266 2.06111C30.8206 1.99506 30.9147 1.92933 31.0091 1.86328" stroke="black" stroke-width="0.5" stroke-miterlimit="10" stroke-linecap="round" stroke-linejoin="round"/>
<path d="M20.3633 2.45508C20.7444 2.75826 21.103 3.08915 21.4352 3.44518" stroke="black" stroke-width="0.5" stroke-miterlimit="10" stroke-linecap="round" stroke-linejoin="round"/>
<path d="M21.917 4.06445C22.0681 4.21459 22.2192 4.36474 22.3703 4.51488" stroke="black" stroke-width="0.5" stroke-miterlimit="10" stroke-linecap="round" stroke-linejoin="round"/>
</svg>
