<svg width="47" height="42" viewBox="0 0 47 42" fill="none" xmlns="http://www.w3.org/2000/svg">
<path d="M6.06185 14.5215C5.84271 14.4539 5.60077 14.5029 5.34018 14.6715C5.02519 14.8754 4.67446 15.2603 4.30145 15.8149C0.767694 21.0629 5.94269 25.1834 7.61425 26.3216C7.66217 26.3548 7.7075 26.384 7.74662 26.4094L7.88417 26.4996L7.90748 26.5413L7.90929 26.4685L7.91058 26.3978C7.91188 26.2742 7.91525 26.0929 7.91758 25.8577C7.96006 21.4365 7.63186 16.6402 6.63898 15.044L6.6382 15.0427C6.46594 14.7673 6.27426 14.5876 6.06185 14.5215ZM4.54287 21.2139L5.06353 21.8615L4.54157 21.2147L4.54287 21.2139Z" fill="#018B45"/>
<path d="M10.7434 32.1683C10.6647 32.0608 10.5878 31.9541 10.5129 31.844L10.5046 31.8341L10.5038 31.8328L10.3505 31.6134L10.3466 31.6103C10.2774 31.5062 10.2091 31.4033 10.1433 31.2987C10.043 31.1523 9.94277 31.0003 9.84692 30.8493L9.76999 30.7275C9.74409 30.6876 9.71974 30.6467 9.68995 30.604C7.05531 27.752 4.89806 25.8248 3.42908 24.9855L3.4283 24.9842L3.427 24.985C2.66751 24.5485 2.09246 24.4055 1.7324 24.578C1.70598 24.5894 1.68111 24.6037 1.65857 24.6182C1.25837 24.877 1.13921 25.5821 1.30189 26.714C1.56533 28.5501 2.3502 29.9675 3.63708 30.9306C6.0057 32.7006 9.40864 32.4719 10.7629 32.2918L10.8289 32.283L10.7434 32.1683Z" fill="#018B45"/>
<path d="M15.6673 37.0522L15.5161 36.9465L15.4979 36.9506C15.4785 36.9556 15.4596 36.9584 15.4402 36.9633L15.5091 36.9413L15.3474 36.8253C15.2353 36.745 15.1257 36.6631 15.0058 36.5766C12.9825 35.9673 6.49415 34.1225 4.43275 34.8597C4.32473 34.8996 4.22914 34.9444 4.14677 34.9975C4.0416 35.0654 3.95949 35.1452 3.90017 35.2343C3.61808 35.658 3.86935 36.3497 4.64386 37.2876C5.82532 38.7147 7.23499 39.5151 8.83323 39.6656C10.9863 39.8663 13.0726 38.8527 14.4434 37.966C14.7079 37.7948 14.9439 37.629 15.1462 37.4811C15.3477 37.3319 15.5161 37.1985 15.6435 37.0954L15.6847 37.0631L15.6673 37.0522ZM12.303 38.1513L12.3017 38.152L12.2833 38.1207L12.303 38.1513Z" fill="#018B45"/>
<path d="M14.5846 35.5747C14.5429 35.5439 14.4989 35.5053 14.4559 35.4675L14.4411 35.4545C14.3414 35.3693 14.2461 35.288 14.1559 35.2064L14.0945 35.1486C13.8751 34.952 13.663 34.7513 13.4635 34.5515C13.27 34.3637 13.0693 34.1563 12.8486 33.9172C12.8082 33.8747 12.7667 33.8288 12.7263 33.7838L12.7105 33.7667C12.5489 33.5908 12.3857 33.4058 12.2121 33.2009C11.7578 32.6658 11.3192 32.0954 10.9045 31.5006C10.8918 31.4874 10.8773 31.4646 10.8631 31.4429L10.7227 31.238C10.7227 31.238 10.6035 31.0598 10.58 31.0253L10.3616 30.6875C9.57542 29.4618 8.86593 28.1163 8.25279 26.6893C8.19503 26.5528 8.13079 26.4013 8.06732 26.2461L7.99402 26.0674L7.9909 26.2606C7.9878 26.4673 7.98443 26.5839 7.98443 26.5839C7.98417 26.5917 7.98106 26.5984 7.98132 26.5989L7.96397 26.6176C7.9518 26.6243 7.93677 26.624 7.91709 26.6124L7.79974 26.5396L7.7785 26.573L7.78549 26.5305L7.67773 26.4606L7.72747 26.5792C7.77565 26.694 7.82539 26.8116 7.87694 26.9305L7.88185 26.9465C8.21963 27.7255 8.59498 28.4964 8.99752 29.2374C9.08585 29.4056 9.17599 29.5685 9.27028 29.734C9.34514 29.8648 9.42311 29.9962 9.50937 30.142L9.54356 30.1218L9.51895 30.1575C9.54615 30.2075 9.57517 30.2568 9.60495 30.3073L9.76063 30.5666C9.78602 30.6059 9.91424 30.8082 9.91424 30.8082C10.0093 30.959 10.1096 31.1103 10.2098 31.2571C10.2743 31.3608 10.3416 31.4613 10.4131 31.5667C10.4191 31.5726 10.4225 31.5784 10.4292 31.5882C10.473 31.6519 10.5178 31.7172 10.5644 31.7819C10.6445 31.8975 10.725 32.0104 10.8074 32.1226L10.9348 32.2951C10.9587 32.328 10.982 32.3606 11.0061 32.3907C11.1607 32.6005 11.3086 32.793 11.4594 32.9805C11.4685 32.9909 11.5197 33.0551 11.5197 33.0551C11.6842 33.2595 11.8399 33.4462 11.9961 33.6263L12.0057 33.6359L12.0096 33.6387C12.2494 33.9198 12.5095 34.2052 12.8046 34.5104C12.8716 34.5821 12.9395 34.6518 13.0074 34.7217L13.0289 34.744L13.22 34.9321C13.256 34.9676 13.2944 35.0038 13.3322 35.0391C13.4415 35.145 13.5532 35.2507 13.6679 35.3535C13.786 35.4646 13.9096 35.5732 14.0319 35.6794L14.0466 35.6962C14.18 35.8102 14.3209 35.9299 14.4639 36.0449C14.644 36.1946 14.8377 36.3474 15.0649 36.5194C15.2905 36.6914 15.5286 36.8629 15.7726 37.029C16.7683 37.7087 17.8288 38.2817 18.9237 38.7319C18.9504 38.7435 18.9805 38.7482 19.0196 38.7466C19.0571 38.7445 19.0944 38.7324 19.1271 38.7114C19.1667 38.6857 19.1978 38.6479 19.2144 38.6044C19.2356 38.5516 19.2351 38.4935 19.2126 38.441C19.1898 38.3871 19.147 38.3451 19.0926 38.3234C17.49 37.6664 15.9738 36.7425 14.5846 35.5747Z" fill="#018B45"/>
<path d="M6.6382 15.0427L6.63898 15.044L6.63846 15.0461C6.63846 15.0461 4.63612 15.274 4.79724 18.7358C4.94178 21.8688 7.435 25.7587 7.90929 26.4685L7.90748 26.5413L7.88417 26.4996L7.74662 26.4094C7.7075 26.3838 7.66217 26.3545 7.61425 26.3216C5.94269 25.1834 0.767694 21.0629 4.30145 15.8149C4.67446 15.2605 5.02519 14.8754 5.34018 14.6715C5.60077 14.5029 5.84271 14.4539 6.06185 14.5215C6.27426 14.5878 6.46594 14.7676 6.6382 15.0427Z" fill="#006D33"/>
<path d="M3.42883 24.9857C3.42883 24.9857 3.42883 24.9857 3.42676 24.9851L3.42805 24.9844L3.42883 24.9857Z" fill="#EDCC45"/>
<path d="M10.8289 32.283L10.7629 32.2918C9.40838 32.4721 6.00544 32.7006 3.63708 30.9306C2.35046 29.9675 1.56558 28.5501 1.30189 26.714C1.13921 25.5821 1.25837 24.8772 1.65857 24.6182C1.68111 24.6037 1.70598 24.5894 1.7324 24.578C2.0922 24.4055 2.66751 24.5485 3.427 24.985C3.35447 24.9808 1.75908 24.9021 3.40965 28.2848C4.96283 31.4704 10.036 32.1887 10.8289 32.283Z" fill="#006D33"/>
<path d="M15.6847 37.0647L15.6435 37.0971C15.5161 37.2002 15.3477 37.3336 15.1462 37.4828C14.9439 37.6307 14.7079 37.7965 14.4434 37.9677C13.0726 38.8544 10.9863 39.868 8.83322 39.6672C7.23498 39.5167 5.82532 38.7163 4.64386 37.2893C3.86935 36.3513 3.61808 35.6597 3.90017 35.2359C3.95949 35.1468 4.04186 35.067 4.14677 34.9991C4.22914 34.9458 4.32473 34.901 4.43275 34.8613C4.40503 35.1245 4.41901 36.3241 6.70344 37.3659C9.08967 38.4549 14.8229 37.2398 15.6679 37.0533L15.6847 37.0647Z" fill="#006D33"/>
<path d="M19.2513 38.6185C19.2129 38.7171 19.1189 38.7806 19.0202 38.7858C18.9829 38.7871 18.9448 38.7835 18.9094 38.7682C17.7598 38.2957 16.7091 37.7157 15.7502 37.0611C15.5043 36.8938 15.2655 36.7218 15.0339 36.5451C15.0339 36.5451 15.0339 36.5451 15.0329 36.5433C14.829 36.3897 14.6327 36.2361 14.4397 36.0755C14.2959 35.9595 14.1542 35.8393 14.0146 35.718C14.0136 35.7162 14.0081 35.7121 14.0058 35.7085C13.8833 35.6017 13.7595 35.4929 13.6421 35.3829C13.5266 35.279 13.4147 35.173 13.3057 35.0676C13.2671 35.0313 13.2282 34.9953 13.1924 34.9596C13.1298 34.8982 13.0658 34.835 13.0034 34.7736C12.9272 34.6954 12.851 34.6171 12.7767 34.5376C12.4993 34.2506 12.2319 33.9595 11.9794 33.6636L11.9776 33.6649C11.8087 33.4707 11.6476 33.2766 11.4898 33.0803C11.4675 33.0539 11.4484 33.028 11.4274 33.0034C11.2709 32.8088 11.1222 32.6143 10.9772 32.4174C10.9772 32.4174 10.9772 32.4174 10.9759 32.4156C10.9489 32.3819 10.9241 32.3472 10.899 32.3125C10.857 32.2555 10.8161 32.2003 10.7754 32.1452C10.6925 32.033 10.6117 31.9196 10.5324 31.8051C10.4835 31.7372 10.4374 31.6701 10.3915 31.603C10.3879 31.5976 10.3855 31.5939 10.3804 31.5898C10.3112 31.4867 10.2418 31.3836 10.1773 31.28C10.076 31.1313 9.97549 30.9798 9.88069 30.8293C9.82836 30.7485 9.77785 30.6663 9.72682 30.5871C9.72682 30.5871 9.72579 30.5853 9.72449 30.5835C9.68797 30.5231 9.65144 30.4625 9.61595 30.4039C9.57192 30.3278 9.52607 30.2532 9.48359 30.176L9.48229 30.1742C9.39811 30.0322 9.31521 29.8921 9.23517 29.7527C9.14062 29.5869 9.05023 29.4235 8.96345 29.258L8.96241 29.2562C8.52179 28.4449 8.14904 27.6636 7.83949 26.9484L7.84027 26.9456C7.75219 26.7425 7.66957 26.5435 7.59082 26.3547C7.81255 26.5044 7.94466 26.5821 7.94466 26.5821C7.94466 26.5821 7.95243 26.3146 7.95606 25.8584C7.97031 25.8923 7.98404 25.9294 7.99958 25.9654L7.9988 25.9682C8.08764 26.1964 8.18608 26.4311 8.28892 26.6731C8.80311 27.8703 9.49188 29.258 10.3944 30.6656L10.6117 31.0018C10.6599 31.0725 10.7065 31.1445 10.7547 31.2152C10.8018 31.2841 10.849 31.3533 10.8961 31.4222C10.9088 31.4419 10.9228 31.4637 10.9404 31.4828C11.337 32.0524 11.7709 32.6208 12.2418 33.1756C12.4024 33.365 12.5679 33.5535 12.7399 33.7408C12.785 33.7908 12.8311 33.8424 12.878 33.8913C13.0751 34.1056 13.2787 34.318 13.4916 34.5247C13.6942 34.7275 13.904 34.9259 14.1224 35.1212L14.1814 35.1772C14.2734 35.2603 14.3703 35.3432 14.4672 35.4259C14.514 35.4668 14.5622 35.5098 14.6114 35.5466C15.9022 36.6317 17.3901 37.5839 19.1067 38.2866C19.2383 38.3384 19.3041 38.4874 19.2513 38.6185Z" stroke="black" stroke-miterlimit="10" stroke-linecap="round" stroke-linejoin="round"/>
<path d="M7.95625 25.8582C7.95288 26.3141 7.94485 26.582 7.94485 26.582C7.94485 26.582 7.813 26.5042 7.59101 26.3545C6.11865 25.3513 0.671668 21.136 4.26837 15.7934C7.88294 10.4267 7.98785 22.6866 7.95625 25.8582Z" stroke="black" stroke-miterlimit="10" stroke-linecap="round" stroke-linejoin="round"/>
<path d="M10.8992 32.3126C9.29134 32.5468 2.19249 33.212 1.2623 26.7203C0.454887 21.1003 6.74918 27.3629 9.72471 30.5835C9.72601 30.5853 9.72704 30.5872 9.72704 30.5872C9.77833 30.6662 9.82884 30.7483 9.88091 30.8294C9.97571 30.9796 10.0762 31.1314 10.1775 31.2801C10.242 31.3837 10.3112 31.4868 10.3806 31.5899C10.3858 31.594 10.3881 31.5977 10.3917 31.6031C10.4376 31.6702 10.4837 31.7375 10.5326 31.8051C10.6119 31.9196 10.6927 32.0331 10.7756 32.1452C10.8163 32.2002 10.8572 32.2556 10.8992 32.3126Z" stroke="black" stroke-miterlimit="10" stroke-linecap="round" stroke-linejoin="round"/>
<path d="M15.7506 37.0607C14.4979 38.1002 8.79036 42.3631 4.61394 37.3135C0.604601 32.4667 11.6289 35.5171 15.0334 36.5429C15.0344 36.5447 15.0344 36.5447 15.0344 36.5447C15.266 36.7214 15.5048 36.8934 15.7506 37.0607Z" stroke="black" stroke-miterlimit="10" stroke-linecap="round" stroke-linejoin="round"/>
<path d="M6.07422 36.2285C9.14482 37.174 12.453 37.7542 15.5596 36.9354" stroke="black" stroke-width="0.5" stroke-miterlimit="10" stroke-linecap="round" stroke-linejoin="round"/>
<path d="M10.6158 31.8758C7.64056 30.8114 4.9409 28.9867 2.84375 26.623" stroke="black" stroke-width="0.5" stroke-miterlimit="10" stroke-linecap="round" stroke-linejoin="round"/>
<path d="M7.86362 26.4673C6.98498 24.9358 6.25061 23.3112 5.82009 21.599C5.38958 19.8867 5.26887 18.082 5.60794 16.3496" stroke="black" stroke-width="0.5" stroke-miterlimit="10" stroke-linecap="round" stroke-linejoin="round"/>
<path d="M4.71122 20.2223C4.56668 19.9967 4.44519 19.7561 4.34961 19.5059" stroke="black" stroke-width="0.5" stroke-miterlimit="10" stroke-linecap="round" stroke-linejoin="round"/>
<path d="M4.67764 18.919C4.56522 18.6556 4.48155 18.3799 4.42871 18.0986" stroke="black" stroke-width="0.5" stroke-miterlimit="10" stroke-linecap="round" stroke-linejoin="round"/>
<path d="M4.91615 17.4424C4.90838 17.2552 4.90035 17.0681 4.89258 16.8809" stroke="black" stroke-width="0.5" stroke-miterlimit="10" stroke-linecap="round" stroke-linejoin="round"/>
<path d="M5.06318 21.8609C4.88936 21.6452 4.71555 21.4296 4.54199 21.2139" stroke="black" stroke-width="0.5" stroke-miterlimit="10" stroke-linecap="round" stroke-linejoin="round"/>
<path d="M5.28896 23.0057C5.13587 22.8744 5.00869 22.713 4.91699 22.5332" stroke="black" stroke-width="0.5" stroke-miterlimit="10" stroke-linecap="round" stroke-linejoin="round"/>
<path d="M6.91504 22.6319C6.94612 22.4873 6.97695 22.3428 7.00803 22.1982" stroke="black" stroke-width="0.5" stroke-miterlimit="10" stroke-linecap="round" stroke-linejoin="round"/>
<path d="M6.52051 21.022C6.59045 20.7645 6.69224 20.5158 6.82254 20.2832" stroke="black" stroke-width="0.5" stroke-miterlimit="10" stroke-linecap="round" stroke-linejoin="round"/>
<path d="M6.36133 18.7828C6.41935 18.6097 6.47711 18.4367 6.53514 18.2637" stroke="black" stroke-width="0.5" stroke-miterlimit="10" stroke-linecap="round" stroke-linejoin="round"/>
<path d="M6.23438 17.5392C6.29732 17.3742 6.36027 17.209 6.42321 17.0439" stroke="black" stroke-width="0.5" stroke-miterlimit="10" stroke-linecap="round" stroke-linejoin="round"/>
<path d="M6.16602 16.0197C6.18285 15.941 6.19969 15.8619 6.21627 15.7832" stroke="black" stroke-width="0.5" stroke-miterlimit="10" stroke-linecap="round" stroke-linejoin="round"/>
<path d="M7.54102 31.7333C7.67131 31.6727 7.80187 31.6124 7.93216 31.5518" stroke="black" stroke-width="0.5" stroke-miterlimit="10" stroke-linecap="round" stroke-linejoin="round"/>
<path d="M6.27344 31.2945C6.36695 31.3147 6.46771 31.3005 6.5519 31.2549" stroke="black" stroke-width="0.5" stroke-miterlimit="10" stroke-linecap="round" stroke-linejoin="round"/>
<path d="M4.66602 30.3327C4.86625 30.3308 5.06622 30.3042 5.25998 30.2539" stroke="black" stroke-width="0.5" stroke-miterlimit="10" stroke-linecap="round" stroke-linejoin="round"/>
<path d="M3.33203 29.0566C3.53201 29.0857 3.73172 29.1149 3.9317 29.1439" stroke="black" stroke-width="0.5" stroke-miterlimit="10" stroke-linecap="round" stroke-linejoin="round"/>
<path d="M2.46387 27.7197C2.55582 27.7394 2.64778 27.7594 2.73974 27.779" stroke="black" stroke-width="0.5" stroke-miterlimit="10" stroke-linecap="round" stroke-linejoin="round"/>
<path d="M1.94727 26.2871C2.01824 26.3091 2.08896 26.3311 2.15994 26.3532" stroke="black" stroke-width="0.5" stroke-miterlimit="10" stroke-linecap="round" stroke-linejoin="round"/>
<path d="M7.83206 29.5072C7.76109 29.4036 7.70902 29.287 7.67871 29.165" stroke="black" stroke-width="0.5" stroke-miterlimit="10" stroke-linecap="round" stroke-linejoin="round"/>
<path d="M6.93756 28.9644C6.83939 28.8128 6.74147 28.6613 6.64355 28.5098" stroke="black" stroke-width="0.5" stroke-miterlimit="10" stroke-linecap="round" stroke-linejoin="round"/>
<path d="M5.56861 27.9498C5.51758 27.8158 5.44713 27.6894 5.36035 27.5752" stroke="black" stroke-width="0.5" stroke-miterlimit="10" stroke-linecap="round" stroke-linejoin="round"/>
<path d="M4.36729 26.826C4.30149 26.7697 4.24581 26.7016 4.2041 26.626" stroke="black" stroke-width="0.5" stroke-miterlimit="10" stroke-linecap="round" stroke-linejoin="round"/>
<path d="M3.21454 26.1461C3.1016 26.0039 2.98892 25.8617 2.87598 25.7197" stroke="black" stroke-width="0.5" stroke-miterlimit="10" stroke-linecap="round" stroke-linejoin="round"/>
<path d="M12.1191 38.3399C12.1805 38.2775 12.2419 38.215 12.3033 38.1523" stroke="black" stroke-width="0.5" stroke-miterlimit="10" stroke-linecap="round" stroke-linejoin="round"/>
<path d="M10.4395 38.6813C10.6099 38.5888 10.7588 38.4578 10.8726 38.3008" stroke="black" stroke-width="0.5" stroke-miterlimit="10" stroke-linecap="round" stroke-linejoin="round"/>
<path d="M8.64551 38.4798C8.85818 38.3536 9.07085 38.2277 9.28351 38.1016" stroke="black" stroke-width="0.5" stroke-miterlimit="10" stroke-linecap="round" stroke-linejoin="round"/>
<path d="M7.3125 37.8869C7.40886 37.8714 7.50185 37.8351 7.58345 37.7812" stroke="black" stroke-width="0.5" stroke-miterlimit="10" stroke-linecap="round" stroke-linejoin="round"/>
<path d="M5.70801 37.2972C5.79815 37.2617 5.8883 37.2262 5.97844 37.1904" stroke="black" stroke-width="0.5" stroke-miterlimit="10" stroke-linecap="round" stroke-linejoin="round"/>
<path d="M4.71094 36.1748C4.79771 36.1865 4.88449 36.1984 4.97127 36.21" stroke="black" stroke-width="0.5" stroke-miterlimit="10" stroke-linecap="round" stroke-linejoin="round"/>
<path d="M12.3657 36.6212C12.2352 36.5246 12.1049 36.4279 11.9746 36.3311" stroke="black" stroke-width="0.5" stroke-miterlimit="10" stroke-linecap="round" stroke-linejoin="round"/>
<path d="M10.6963 36.239C10.5859 36.1753 10.4756 36.1116 10.3652 36.0479" stroke="black" stroke-width="0.5" stroke-miterlimit="10" stroke-linecap="round" stroke-linejoin="round"/>
<path d="M8.85665 35.9709C8.73931 35.9103 8.62223 35.8497 8.50488 35.7891" stroke="black" stroke-width="0.5" stroke-miterlimit="10" stroke-linecap="round" stroke-linejoin="round"/>
<path d="M6.93407 35.5181C6.84133 35.4422 6.73435 35.3842 6.62012 35.3477" stroke="black" stroke-width="0.5" stroke-miterlimit="10" stroke-linecap="round" stroke-linejoin="round"/>
<path d="M5.58924 35.5398C5.54754 35.5102 5.50583 35.4807 5.46387 35.4512" stroke="black" stroke-width="0.5" stroke-miterlimit="10" stroke-linecap="round" stroke-linejoin="round"/>
<path d="M43.0461 10.3893C41.5064 10.7059 37.7261 11.3076 35.9123 10.0505L35.8577 10.0127L35.8631 10.0782C35.8994 10.5126 35.9439 12.02 34.9788 13.2146C34.7314 13.5205 34.4337 13.7889 34.0931 14.0119C33.359 14.4922 32.4042 14.7774 31.2559 14.859L31.1914 14.8636L31.2349 14.9118C31.6616 15.3778 33.0075 17.0263 32.4571 18.6391L32.4532 18.6536L32.4615 18.6663C32.5342 18.7823 32.6 18.903 32.6557 19.0274C32.7435 19.2284 32.8093 19.439 32.8497 19.6589L32.8684 19.7563L32.9091 19.6667C33.3461 18.7183 35.1497 15.3755 40.0172 12.1909C40.9682 11.5687 41.9942 10.9815 43.0674 10.4479L43.2834 10.3396L43.0461 10.3893Z" fill="#018B45"/>
<path d="M28.3546 17.784C28.2274 17.8674 28.1087 17.9614 27.9989 18.0648C27.0021 18.9978 26.776 20.6538 27.5521 21.8402C27.6409 21.9759 27.7409 22.1013 27.8479 22.2145C28.3864 22.7875 29.162 23.103 29.9753 23.0786C30.245 23.0706 30.5123 23.0248 30.7698 22.9432C30.8726 22.9121 30.9768 22.8737 31.0913 22.8261C31.2467 22.7515 31.3824 22.6764 31.5031 22.5971C31.8176 22.3914 32.086 22.1332 32.2958 21.8366C32.583 21.4353 32.7646 20.9667 32.819 20.4668C32.8879 19.8373 32.7369 19.2004 32.3921 18.6732C31.5308 17.3566 29.644 16.9403 28.3546 17.784Z" fill="#C92C1E"/>
<path d="M41.6059 18.2526C41.729 19.6529 42.9615 21.0727 43.6857 21.7944L43.8533 21.9609C43.808 21.935 43.7619 21.9081 43.7171 21.8835L43.6479 21.8446C39.2 19.3071 34.4649 20.107 33.5598 20.2938L33.4668 20.3124L33.5305 20.2422C33.7463 20.0006 33.9942 19.7871 34.2688 19.6076C35.6919 18.6766 37.4031 18.8906 37.4207 18.8927C37.4277 18.8942 37.4355 18.8922 37.4417 18.888C37.4523 18.881 37.4557 18.8727 37.4565 18.8647C37.4637 18.7518 37.4751 18.6406 37.4906 18.5313C37.5598 18.0221 37.715 17.5659 37.9528 17.1716L37.9789 17.1289L38.0053 17.1716C39.0827 18.8414 41.1599 18.343 41.5655 18.2262L41.6023 18.2156L41.6059 18.2526Z" fill="#018B45"/>
<path d="M33.3986 20.3942L33.3867 20.3945L33.3838 20.3948L33.369 20.3953C33.2116 20.4142 33.053 20.4473 32.8989 20.4896L32.8787 20.4953L32.8761 20.5165C32.8743 20.5297 32.8655 20.5852 32.8655 20.5852C32.8655 20.5852 32.8577 20.6398 32.8541 20.6572C32.8499 20.6807 32.8461 20.7046 32.8409 20.7289C32.8409 20.7289 32.8264 20.803 32.822 20.8193C32.8163 20.847 32.8075 20.8753 32.8002 20.9056L32.7955 20.9237C32.7909 20.9418 32.7862 20.96 32.7816 20.9781C32.7746 20.9993 32.7683 21.0198 32.7611 21.0411L32.7487 21.0794C32.744 21.0975 32.7375 21.1151 32.731 21.133C32.7222 21.1584 32.7124 21.1827 32.7013 21.2141C32.7013 21.2141 32.68 21.2687 32.6728 21.2853C32.664 21.306 32.6316 21.3783 32.6316 21.3783C32.6241 21.3967 32.6155 21.4159 32.6064 21.434C32.5969 21.4537 32.5873 21.4736 32.5769 21.4923L32.5585 21.5283C32.5505 21.5457 32.5414 21.562 32.5326 21.5783C32.5238 21.5946 32.514 21.6117 32.5041 21.6285C32.5041 21.6285 32.4604 21.7039 32.4518 21.7184C32.4399 21.7368 32.4277 21.7552 32.4158 21.7736C32.4158 21.7736 32.408 21.7847 32.3935 21.8062C32.3829 21.8223 32.3723 21.8381 32.3617 21.8542C32.3503 21.8692 32.3389 21.8858 32.3275 21.9005L32.3101 21.9223C32.3101 21.9223 32.2746 21.971 32.2645 21.9837C32.2508 22.0018 32.2373 22.0179 32.2228 22.035L32.2094 22.0513C32.2094 22.0513 32.1705 22.0977 32.1606 22.1101C32.1467 22.1254 32.1327 22.1407 32.1174 22.1565C32.1174 22.1565 32.0601 22.2178 32.0485 22.23C32.0335 22.2461 32.0177 22.2608 32.0019 22.2756L31.9824 22.2943C31.9824 22.2943 31.9412 22.3347 31.9311 22.3445C31.9133 22.3608 31.8946 22.3759 31.8768 22.3922L31.8371 22.4256C31.827 22.4352 31.8167 22.445 31.8058 22.4536C31.7819 22.4722 31.7571 22.4914 31.7319 22.5108L31.6737 22.5549C31.6294 22.5883 31.5838 22.6196 31.5366 22.6507C31.4126 22.7318 31.2747 22.8084 31.1167 22.8836C31.061 22.9064 31.0087 22.9273 30.9572 22.9473L30.8846 22.9722C30.8652 22.9789 30.8471 22.9861 30.8297 22.9916L30.8085 22.9981L30.8077 23.0196C30.8056 23.0509 30.8054 23.0828 30.8041 23.1195L30.8028 23.1475C30.8025 23.1747 30.8018 23.2009 30.8018 23.2263C30.802 23.2592 30.8036 23.291 30.8062 23.3226L30.8093 23.3822C30.8098 23.406 30.8113 23.4291 30.8129 23.4519C30.8157 23.4861 30.8214 23.52 30.8258 23.5545L30.8334 23.6096C30.8352 23.6309 30.8388 23.6526 30.8424 23.6741C30.8481 23.7081 30.8559 23.7405 30.8637 23.7731L30.8761 23.8311C30.8797 23.8526 30.8844 23.8736 30.8901 23.8941C30.8989 23.9303 30.9098 23.9653 30.9212 24.0013L30.9357 24.049C30.9424 24.0687 30.9476 24.0878 30.9543 24.1072C30.9673 24.1453 30.9826 24.1803 30.9976 24.2171L31.0165 24.2663C31.023 24.2831 31.0294 24.3 31.037 24.316C31.0554 24.358 31.0761 24.3987 31.0973 24.4404L31.1178 24.481C31.1232 24.494 31.1297 24.5062 31.1364 24.5186C31.1737 24.5872 31.2136 24.6528 31.2535 24.7139C31.4853 25.0683 31.7838 25.3568 32.1407 25.5739C33.051 26.1228 34.2148 26.1018 35.1046 25.5198C35.2445 25.4283 35.3758 25.3257 35.4957 25.2128C36.5254 24.2614 36.8189 22.6574 36.0928 21.5477C35.5525 20.7198 34.4974 20.2671 33.3986 20.3942Z" fill="#C92C1E"/>
<path d="M43.839 22.0273C39.9029 19.6776 35.7094 20.0105 34.0886 20.2628L33.8467 20.2993L34.0902 20.3247C34.8476 20.4013 35.5143 20.7386 35.9671 21.2745L35.9803 21.2901L35.9995 21.2849C37.7866 20.823 39.1333 22.8769 39.3859 23.2929L39.4056 23.3251L39.4325 23.2999C39.6055 23.1492 39.7902 23.0088 39.9817 22.8837C41.49 21.897 43.167 21.9967 43.8185 22.0858L43.9703 22.1066L43.839 22.0273Z" fill="#018B45"/>
<path d="M30.7017 23.0303C30.6913 23.0327 30.6423 23.0451 30.6423 23.0451C30.61 23.0529 30.5791 23.0609 30.5475 23.0679C30.5123 23.0759 30.4781 23.0834 30.4374 23.0904C30.4082 23.0961 30.3779 23.1023 30.3478 23.107C30.3134 23.1117 30.2786 23.1161 30.2312 23.1218C30.2033 23.1251 30.1753 23.1283 30.1476 23.1316C30.1162 23.1342 30.0841 23.1355 30.0437 23.1381L30.0227 23.1384C29.9968 23.1402 29.9722 23.1415 29.9473 23.1425C29.9129 23.1425 29.8784 23.1425 29.8432 23.1417L29.8243 23.1404C29.7989 23.1407 29.7735 23.1407 29.7484 23.1391C29.7194 23.1386 29.6919 23.1355 29.6634 23.1332L29.6223 23.1301C29.5982 23.1277 29.5749 23.1264 29.5502 23.1231C29.5243 23.1205 29.4974 23.1156 29.4707 23.1119L29.4143 23.1036C29.394 23.1003 29.3746 23.0982 29.3554 23.0941C29.3282 23.0894 29.3021 23.0837 29.2754 23.0772L29.2189 23.0645C29.1998 23.0604 29.1806 23.0565 29.1627 23.0518C29.1342 23.0451 29.105 23.0371 29.0767 23.0285L29.021 23.0125C29.0058 23.0075 28.9894 23.0031 28.9734 22.9972C28.9376 22.986 28.9014 22.9721 28.8654 22.9583C28.8654 22.9583 28.8003 22.9348 28.7884 22.9304C28.7291 22.9063 28.6682 22.8798 28.6099 22.8503L28.5781 22.8337C28.5294 22.8099 28.482 22.7855 28.4364 22.7596C28.4237 22.7514 28.4115 22.7444 28.4004 22.7366L28.3584 22.7115C28.3279 22.6923 28.2981 22.6744 28.2693 22.6555C28.2558 22.6464 28.189 22.597 28.189 22.597C28.1621 22.5786 28.1359 22.5597 28.1103 22.5387C28.0947 22.5263 28.0797 22.5151 28.0652 22.5022L28.0351 22.4768C28.0095 22.4561 27.9831 22.434 27.958 22.4115C27.9434 22.3986 27.9292 22.3838 27.9142 22.3695L27.8727 22.3291C27.8582 22.3162 27.8437 22.3032 27.8295 22.2882L27.8152 22.2734L27.7963 22.2812C27.6458 22.3405 27.4935 22.4177 27.3453 22.5102C27.3176 22.5252 27.2904 22.5431 27.264 22.5604C25.8274 23.5005 25.4223 25.4342 26.3628 26.8718C27.3337 28.3558 29.3484 28.8296 30.761 27.9054C31.1995 27.6184 31.5474 27.2182 31.7787 26.7454C31.779 26.7436 31.779 26.7436 31.78 26.7431C31.9453 26.4035 32.051 26.0326 32.0898 25.6347L32.0911 25.6158L32.075 25.6051C32.075 25.6051 32.0727 25.6038 32.0696 25.6013C32.0655 25.5994 32.0598 25.5956 32.0536 25.5906L32.0517 25.5901C32.0181 25.5686 31.9616 25.5305 31.9616 25.5305C31.9401 25.516 31.9191 25.4997 31.8986 25.4847L31.8367 25.4381C31.8139 25.4215 31.7932 25.4036 31.7645 25.3803C31.7645 25.3803 31.7251 25.3477 31.716 25.3383C31.6966 25.3225 31.6777 25.3049 31.6585 25.2873L31.6008 25.2334C31.5811 25.2148 31.564 25.1959 31.5453 25.1764L31.5339 25.1658C31.5339 25.1658 31.501 25.1316 31.4914 25.1215C31.4731 25.1005 31.4549 25.0793 31.4373 25.0594C31.4373 25.0594 31.3961 25.0127 31.3884 25.0029C31.3661 24.9754 31.3446 24.9475 31.3218 24.9171L31.2917 24.8783C31.2609 24.8355 31.2309 24.792 31.2013 24.7467C31.1607 24.6845 31.1202 24.618 31.0827 24.5493C31.0762 24.5371 31.07 24.5232 31.0635 24.5107L31.0425 24.4672C31.0208 24.4273 31.0003 24.3866 30.9819 24.3447C30.9744 24.3286 30.9679 24.3118 30.9615 24.2949L30.9407 24.2424C30.9257 24.2056 30.9115 24.1698 30.898 24.1336C30.892 24.1149 30.8861 24.0947 30.8793 24.0753L30.8659 24.0315C30.8547 23.9937 30.8418 23.9556 30.8325 23.9183C30.827 23.8963 30.8216 23.8743 30.8174 23.8515L30.8107 23.8227C30.8014 23.7808 30.7918 23.7388 30.7835 23.6963C30.7796 23.672 30.7755 23.6474 30.7726 23.6222L30.7687 23.5979C30.7628 23.5567 30.7573 23.5137 30.7524 23.472C30.7509 23.4445 30.7488 23.4158 30.7472 23.3883L30.7462 23.371C30.7441 23.3287 30.7402 23.2863 30.74 23.2443C30.7402 23.2127 30.7397 23.1798 30.7408 23.1402L30.7418 23.1049C30.7413 23.0904 30.7405 23.0757 30.741 23.0604L30.7439 23.0164L30.7017 23.0303Z" fill="#C92C1E"/>
<path d="M43.072 10.5182C42.0094 11.0497 40.9927 11.6307 40.0514 12.2467C34.5296 15.8595 32.9489 19.7173 32.8849 19.8792L32.8818 19.8859L32.8821 19.8931C32.8987 20.0566 32.9005 20.2221 32.8868 20.3871L32.8839 20.4309L32.9261 20.4198C33.0743 20.3799 33.2194 20.3511 33.3582 20.334L33.3712 20.333L33.3787 20.3237C33.6214 20.0265 33.9086 19.768 34.2337 19.5554C35.5232 18.7117 37.0678 18.7977 37.3647 18.8241L37.396 18.8262L37.3981 18.7948C37.4497 18.1392 37.6328 17.5629 37.9506 17.0681C37.9522 17.0611 37.9563 17.0539 37.9719 17.0407C38.211 16.6829 38.5249 16.3755 38.9057 16.1263C39.8082 15.5359 40.8163 15.438 41.1049 15.4219L41.1352 15.4201V15.3901C41.0505 12.85 42.3345 11.28 43.1078 10.57L43.272 10.4189L43.072 10.5182ZM38.9477 15.5326C38.9477 15.5326 38.9477 15.5326 38.9482 15.5307C39.0008 15.5054 39.0528 15.4818 39.1064 15.4603C39.0536 15.4828 39.0002 15.5072 38.9477 15.5326Z" fill="#018B45"/>
<path d="M31.7788 26.745C31.5475 27.2177 31.1996 27.6182 30.761 27.9049C29.3485 28.8292 27.3337 28.3554 26.3629 26.8714C25.4223 25.4338 25.8272 23.5001 27.2641 22.56C27.2905 22.5429 27.3177 22.525 27.3454 22.5098C27.3454 22.5098 26.0463 24.5372 27.691 26.4906C29.2763 28.3748 31.1967 27.2581 31.7788 26.745Z" fill="#A3180B"/>
<path d="M32.2958 21.8372C32.0857 22.1338 31.8176 22.3918 31.5031 22.5978C31.3822 22.677 31.2467 22.7521 31.0913 22.8268C30.977 22.8747 30.8726 22.9127 30.7698 22.9438C30.5123 23.0252 30.2447 23.071 29.9753 23.0793C29.1622 23.1037 28.3864 22.7882 27.8479 22.2152C27.7406 22.102 27.6407 21.9766 27.5521 21.8409C26.776 20.6545 27.0021 18.9985 27.9989 18.0654C27.9183 18.4035 27.5712 20.1986 28.7434 21.5932C29.8684 22.9296 31.7977 22.088 32.2958 21.8372Z" fill="#A3180B"/>
<path d="M35.4967 25.2117C35.3768 25.3246 35.2455 25.4269 35.1056 25.5186C34.2158 26.1007 33.052 26.1217 32.1417 25.5728C31.7848 25.3557 31.4866 25.0671 31.2545 24.7128C31.2146 24.6516 31.1748 24.5864 31.1375 24.5175C31.131 24.5053 31.1245 24.4928 31.1188 24.4799L31.0983 24.4392C31.0771 24.3975 31.0566 24.3569 31.038 24.3149C31.0305 24.2988 31.024 24.282 31.0175 24.2652L30.9986 24.2159C30.9836 24.1792 30.9683 24.1442 30.9554 24.1061C30.9486 24.0864 30.9434 24.0673 30.9367 24.0478L30.9222 24.0002C30.9105 23.9642 30.8999 23.9292 30.8911 23.8929C30.8854 23.8727 30.8807 23.8517 30.8771 23.83L30.8647 23.772C30.8569 23.7396 30.8491 23.7069 30.8434 23.673C30.8398 23.6512 30.8362 23.6297 30.8344 23.6085L30.8269 23.5533C30.8222 23.5189 30.8168 23.4849 30.8139 23.4507C30.8124 23.4277 30.8108 23.4046 30.8103 23.3811L30.8072 23.3215C30.8046 23.2901 30.8033 23.258 30.8028 23.2251C30.8025 23.1997 30.8036 23.1736 30.8038 23.1464L30.8051 23.1184C30.8064 23.0814 30.8067 23.0498 30.8087 23.0184L30.8095 22.9969L30.8308 22.9904C30.8481 22.985 30.866 22.9777 30.8857 22.971L30.9582 22.9461C31.0095 22.9259 31.0621 22.9052 31.1178 22.8824C31.276 22.8073 31.4136 22.7309 31.5377 22.6496C31.5851 22.6187 31.6307 22.5871 31.6747 22.5537C31.6749 22.5545 32.7984 26.3929 35.4967 25.2117Z" fill="#A3180B"/>
<path d="M43.2824 10.3393C40.0214 11.9277 37.384 12.0402 37.384 12.0402C37.2226 12.4777 37.0286 12.8629 36.8143 13.2014C35.3184 15.5708 32.7946 15.6918 32.7946 15.6918C33.0462 16.2736 33.0822 16.9051 33.0298 17.4633C32.9596 18.2376 32.7185 18.8701 32.6547 19.0274C32.5991 18.9033 32.5335 18.7823 32.4605 18.6663L32.4522 18.6536L32.4561 18.6391C33.0065 17.0263 31.6606 15.3776 31.2339 14.9118L31.1904 14.8636L31.2549 14.859C32.4032 14.7776 33.358 14.4924 34.0921 14.0119C34.4328 13.7889 34.7304 13.5208 34.9778 13.2146C35.9429 12.02 35.8984 10.5124 35.8621 10.0782L35.8567 10.0127L35.9113 10.0505C37.7251 11.3076 41.5052 10.7059 43.0452 10.3893L43.2824 10.3393Z" fill="#006D33"/>
<path d="M41.6062 18.2526C41.7293 19.6529 42.9618 21.0727 43.686 21.7944L43.8536 21.9609C43.8083 21.935 43.7622 21.9081 43.7174 21.8835C41.3425 20.4964 40.948 19.0903 40.948 19.0903C39.1055 19.8483 37.7054 18.7186 37.4912 18.5313C37.5604 18.0221 37.7155 17.5659 37.9533 17.1716L37.9795 17.1289L38.0059 17.1716C39.0832 18.8414 41.1604 18.343 41.5661 18.2262L41.6029 18.2156L41.6062 18.2526Z" fill="#006D33"/>
<path d="M31.2279 24.7306C31.4675 25.0968 31.7762 25.3885 32.1252 25.5991C32.0467 26.5236 31.5877 27.402 30.7782 27.9315C29.3247 28.8824 27.2877 28.342 26.3368 26.8883C25.3858 25.4349 25.7933 23.4849 27.247 22.534C27.433 22.4122 27.6249 22.312 27.8244 22.2363C28.5715 23.03 29.7275 23.3074 30.7789 22.9738C30.7326 23.5737 30.8743 24.1897 31.2279 24.7306Z" stroke="black" stroke-miterlimit="10" stroke-linecap="round" stroke-linejoin="round"/>
<path d="M32.4185 18.6571C32.7819 19.2124 32.9182 19.853 32.8503 20.4714C32.7589 21.3117 32.2975 22.1154 31.5207 22.6239C31.3847 22.7128 31.2441 22.7879 31.1026 22.8553C30.9936 22.9014 30.8884 22.9405 30.7793 22.9739C29.7277 23.3075 28.5718 23.0304 27.8248 22.2364C27.7162 22.1219 27.6155 21.9937 27.5266 21.8577C26.6723 20.5519 26.9873 18.6413 28.3374 17.758C29.6872 16.8749 31.5642 17.3513 32.4185 18.6571Z" stroke="black" stroke-miterlimit="10" stroke-linecap="round" stroke-linejoin="round"/>
<path d="M36.1204 21.529C36.9708 22.8288 36.4201 24.6954 35.1231 25.5437C34.1895 26.1546 33.0244 26.1406 32.1253 25.5981C31.7766 25.3875 31.4678 25.0959 31.228 24.7296C30.8741 24.189 30.7327 23.573 30.779 22.9731C30.8881 22.9397 30.993 22.9006 31.1023 22.8544C31.2438 22.7871 31.3847 22.712 31.5204 22.6231C32.2973 22.1149 32.7586 21.3109 32.85 20.4705C34.0432 20.1206 35.4342 20.4804 36.1204 21.529Z" stroke="black" stroke-miterlimit="10" stroke-linecap="round" stroke-linejoin="round"/>
<path d="M32.8504 19.8798C32.8504 19.8798 34.9204 14.375 43.5571 10.2432C43.5571 10.2432 37.9757 11.6166 35.8164 9.94141C35.8164 9.94141 36.5404 14.5302 31.1211 14.8359C31.1211 14.8359 33.0872 16.7768 32.4189 18.6572" stroke="black" stroke-miterlimit="10" stroke-linecap="round" stroke-linejoin="round"/>
<path d="M43.5571 10.2432C43.5571 10.2432 41.0198 11.8976 41.168 15.4513C41.168 15.4513 37.6428 15.4796 37.4255 18.8618C37.4255 18.8618 34.8677 18.5232 33.3848 20.3642" stroke="black" stroke-miterlimit="10" stroke-linecap="round" stroke-linejoin="round"/>
<path d="M33.3848 20.3638C33.3848 20.3638 38.9993 18.9264 44.1355 22.1726C44.1355 22.1726 41.743 20.1117 41.6319 18.1721C41.6319 18.1721 39.1571 19.0318 37.9811 17.0732" stroke="black" stroke-miterlimit="10" stroke-linecap="round" stroke-linejoin="round"/>
<path d="M44.135 22.1735C44.135 22.1735 41.4618 21.5114 39.3968 23.3752C39.3968 23.3752 37.9594 20.7737 35.9697 21.3247" stroke="black" stroke-miterlimit="10" stroke-linecap="round" stroke-linejoin="round"/>
<path d="M27.0361 26.6794C26.732 26.3238 26.5429 25.8713 26.5038 25.405C26.4647 24.9387 26.5755 24.4611 26.8159 24.0596" stroke="black" stroke-width="0.5" stroke-miterlimit="10" stroke-linecap="round" stroke-linejoin="round"/>
<path d="M27.0512 25.3179C26.9997 25.1383 27.0134 24.941 27.0896 24.7705" stroke="black" stroke-width="0.5" stroke-miterlimit="10" stroke-linecap="round" stroke-linejoin="round"/>
<path d="M27.96 25.019C27.9607 24.9273 27.9851 24.8356 28.0304 24.7559" stroke="black" stroke-width="0.5" stroke-miterlimit="10" stroke-linecap="round" stroke-linejoin="round"/>
<path d="M29.0802 22.4753C28.6134 22.3223 28.1982 22.0166 27.913 21.6166C27.6278 21.2167 27.4742 20.7245 27.4817 20.2334" stroke="black" stroke-width="0.5" stroke-miterlimit="10" stroke-linecap="round" stroke-linejoin="round"/>
<path d="M28.5285 21.5917C28.3343 21.4311 28.1695 21.2348 28.0449 21.0156" stroke="black" stroke-width="0.5" stroke-miterlimit="10" stroke-linecap="round" stroke-linejoin="round"/>
<path d="M29.0179 20.9737C28.9298 20.8214 28.8808 20.6468 28.877 20.4707" stroke="black" stroke-width="0.5" stroke-miterlimit="10" stroke-linecap="round" stroke-linejoin="round"/>
<path d="M32.201 21.085C32.379 20.7425 32.4458 20.3434 32.3896 19.9615C32.3334 19.5797 32.1539 19.2168 31.8848 18.9404" stroke="black" stroke-width="0.5" stroke-miterlimit="10" stroke-linecap="round" stroke-linejoin="round"/>
<path d="M31.9447 20.0338C31.9234 19.8787 31.8706 19.7282 31.79 19.5938" stroke="black" stroke-width="0.5" stroke-miterlimit="10" stroke-linecap="round" stroke-linejoin="round"/>
<path d="M31.0982 19.8567C31.0316 19.81 30.965 19.7634 30.8984 19.7168" stroke="black" stroke-width="0.5" stroke-miterlimit="10" stroke-linecap="round" stroke-linejoin="round"/>
<path d="M30.2916 19.492C30.2856 19.469 30.2794 19.4459 30.2734 19.4229" stroke="black" stroke-width="0.5" stroke-miterlimit="10" stroke-linecap="round" stroke-linejoin="round"/>
<path d="M31.2808 23.4102C31.27 23.8352 31.4179 24.2626 31.6891 24.5903C31.9603 24.9177 32.353 25.1426 32.7726 25.211" stroke="black" stroke-width="0.5" stroke-miterlimit="10" stroke-linecap="round" stroke-linejoin="round"/>
<path d="M32.0986 23.9062C32.1976 24.0658 32.3556 24.1876 32.5348 24.2425" stroke="black" stroke-width="0.5" stroke-miterlimit="10" stroke-linecap="round" stroke-linejoin="round"/>
<path d="M33.4863 23.7549C33.6091 23.8186 33.7322 23.8826 33.8549 23.9463" stroke="black" stroke-width="0.5" stroke-miterlimit="10" stroke-linecap="round" stroke-linejoin="round"/>
<path d="M33.0267 17.8272C33.0376 17.384 33.0466 16.9294 32.8985 16.5115C32.7801 16.1771 32.5669 15.8847 32.3418 15.6104" stroke="black" stroke-width="0.5" stroke-miterlimit="10" stroke-linecap="round" stroke-linejoin="round"/>
<path d="M33.3928 16.8396C33.3296 16.5327 33.2358 16.2319 33.1133 15.9434" stroke="black" stroke-width="0.5" stroke-miterlimit="10" stroke-linecap="round" stroke-linejoin="round"/>
<path d="M33.8219 16.2913C33.8191 16.111 33.7838 15.9315 33.7178 15.7637" stroke="black" stroke-width="0.5" stroke-miterlimit="10" stroke-linecap="round" stroke-linejoin="round"/>
<path d="M36.3418 10.6553C37.2142 11.121 38.2478 11.3881 39.1979 11.1143" stroke="black" stroke-width="0.5" stroke-miterlimit="10" stroke-linecap="round" stroke-linejoin="round"/>
<path d="M37.1504 11.4629C37.396 11.539 37.6516 11.582 37.9083 11.5903" stroke="black" stroke-width="0.5" stroke-miterlimit="10" stroke-linecap="round" stroke-linejoin="round"/>
<path d="M37.8965 12.2725C37.9698 12.2921 38.047 12.2976 38.1221 12.288" stroke="black" stroke-width="0.5" stroke-miterlimit="10" stroke-linecap="round" stroke-linejoin="round"/>
<path d="M36.7529 13.2104C36.94 13.1819 37.1291 13.1666 37.3181 13.165" stroke="black" stroke-width="0.5" stroke-miterlimit="10" stroke-linecap="round" stroke-linejoin="round"/>
<path d="M38.9473 15.5317C39.3674 15.3331 39.8161 15.1955 40.2753 15.124" stroke="black" stroke-width="0.5" stroke-miterlimit="10" stroke-linecap="round" stroke-linejoin="round"/>
<path d="M39.9658 14.6504C40.0578 14.6532 40.1497 14.6563 40.2419 14.6592" stroke="black" stroke-width="0.5" stroke-miterlimit="10" stroke-linecap="round" stroke-linejoin="round"/>
<path d="M40.1143 14.1748C40.1935 14.1859 40.273 14.1971 40.3523 14.2082" stroke="black" stroke-width="0.5" stroke-miterlimit="10" stroke-linecap="round" stroke-linejoin="round"/>
<path d="M40.4961 13.5209C40.5673 13.5201 40.6383 13.5193 40.7095 13.5186" stroke="black" stroke-width="0.5" stroke-miterlimit="10" stroke-linecap="round" stroke-linejoin="round"/>
<path d="M35.0303 18.4688C35.6621 18.1963 36.3791 18.1254 37.052 18.2686" stroke="black" stroke-width="0.5" stroke-miterlimit="10" stroke-linecap="round" stroke-linejoin="round"/>
<path d="M36.5254 17.7383C36.6311 17.7784 36.7445 17.7976 36.8572 17.794" stroke="black" stroke-width="0.5" stroke-miterlimit="10" stroke-linecap="round" stroke-linejoin="round"/>
<path d="M36.7744 17.251C36.8537 17.2621 36.9332 17.2733 37.0125 17.2844" stroke="black" stroke-width="0.5" stroke-miterlimit="10" stroke-linecap="round" stroke-linejoin="round"/>
<path d="M37.0488 16.7197C37.119 16.7353 37.1926 16.7355 37.2628 16.72" stroke="black" stroke-width="0.5" stroke-miterlimit="10" stroke-linecap="round" stroke-linejoin="round"/>
<path d="M39.7969 22.6172C40.2429 22.2255 40.7991 21.9608 41.3842 21.8613" stroke="black" stroke-width="0.5" stroke-miterlimit="10" stroke-linecap="round" stroke-linejoin="round"/>
<path d="M39.8701 22.0661C39.9774 21.9959 40.0846 21.9257 40.1918 21.8555" stroke="black" stroke-width="0.5" stroke-miterlimit="10" stroke-linecap="round" stroke-linejoin="round"/>
<path d="M39.5596 21.6743C39.629 21.629 39.6984 21.5834 39.7678 21.5381" stroke="black" stroke-width="0.5" stroke-miterlimit="10" stroke-linecap="round" stroke-linejoin="round"/>
<path d="M39.0215 21.5126C39.0658 21.4835 39.1098 21.4548 39.1541 21.4258" stroke="black" stroke-width="0.5" stroke-miterlimit="10" stroke-linecap="round" stroke-linejoin="round"/>
<path d="M41.7326 20.0367C41.523 19.7137 41.3704 19.3539 41.2842 18.9785" stroke="black" stroke-width="0.5" stroke-miterlimit="10" stroke-linecap="round" stroke-linejoin="round"/>
<path d="M40.93 19.2637C40.9054 19.1987 40.8811 19.1336 40.8564 19.0684" stroke="black" stroke-width="0.5" stroke-miterlimit="10" stroke-linecap="round" stroke-linejoin="round"/>
<path d="M40.484 19.2853C40.4508 19.2348 40.4179 19.1843 40.3848 19.1338" stroke="black" stroke-width="0.5" stroke-miterlimit="10" stroke-linecap="round" stroke-linejoin="round"/>
<path d="M38.2354 17.999C38.4972 18.2549 38.8329 18.4345 39.1915 18.5096" stroke="black" stroke-width="0.5" stroke-miterlimit="10" stroke-linecap="round" stroke-linejoin="round"/>
<path d="M38.5381 18.666C38.6422 18.715 38.7464 18.7639 38.8505 18.8129" stroke="black" stroke-width="0.5" stroke-miterlimit="10" stroke-linecap="round" stroke-linejoin="round"/>
<path d="M36.165 20.9469C36.502 20.9044 36.8437 20.8998 37.1817 20.9329" stroke="black" stroke-width="0.5" stroke-miterlimit="10" stroke-linecap="round" stroke-linejoin="round"/>
<path d="M28.3272 17.3522L28.2946 17.3626C27.0875 17.74 25.8337 18.0669 24.5347 18.3399C22.4917 18.7718 20.3404 19.0733 18.1031 19.2404C16.3505 19.3712 14.7634 19.402 13.4413 19.3862C11.2244 19.3593 9.75364 19.2038 9.5117 19.1774L9.47957 19.1735L9.47569 19.1422C9.42363 18.6982 9.36509 18.255 9.30525 17.8131L9.2998 17.7626L9.34954 17.7683C9.764 17.8136 11.234 17.9548 13.3185 17.9947C14.7763 18.0211 16.5354 17.9978 18.443 17.8556C20.5098 17.7014 22.4489 17.4297 24.2446 17.045C25.6198 16.7505 26.9106 16.3873 28.1109 15.9597L28.1588 15.9434L28.1625 15.9939C28.2065 16.4573 28.2604 16.9028 28.3231 17.3188L28.3272 17.3522Z" fill="#995116"/>
<path d="M27.8521 11.6816C27.684 11.7052 27.5122 11.7228 27.3415 11.7355C26.582 11.7922 25.8523 11.737 25.0092 11.6728C24.6672 11.6459 24.3064 11.6189 23.9142 11.5956C22.6879 11.5236 21.1451 11.4876 18.9203 11.6536C17.9854 11.7233 16.9721 11.8259 15.9121 11.9606C15.0643 12.0668 14.1799 12.3232 13.2412 12.5947C13.036 12.6545 12.8293 12.7128 12.6208 12.7711C12.5866 12.7817 12.554 12.7903 12.5195 12.7993C11.6627 13.0395 10.7972 13.2501 9.96649 13.312C9.5054 13.3464 9.08836 13.333 8.69152 13.2705L8.63867 13.2633L8.64723 13.3151C8.71535 13.7832 8.78529 14.251 8.85678 14.7206C8.92569 15.176 8.99303 15.6345 9.0609 16.0948L9.06634 16.1246L9.09665 16.1272C9.35257 16.1525 10.8998 16.2911 13.1319 16.309C14.4683 16.3204 16.0471 16.2885 17.7414 16.1621C20.0072 15.9932 22.0963 15.6881 23.9914 15.2516C25.4433 14.918 26.781 14.5053 27.9958 14.0178L28.022 14.0064L27.9852 13.2773C27.9609 12.782 27.9318 12.2222 27.8958 11.7184L27.8927 11.6756L27.8521 11.6816ZM10.4703 15.4482V15.4467C10.5454 15.4537 10.6205 15.4594 10.6957 15.4664C10.6205 15.4607 10.5454 15.4552 10.4703 15.4482Z" fill="#C92C1E"/>
<path d="M28.0314 14.1433C28.0662 14.7997 28.1045 15.3351 28.1496 15.832L28.1519 15.8636L28.1224 15.8737C26.9176 16.305 25.6175 16.6718 24.2314 16.9689C24.0281 17.0111 23.8234 17.0533 23.6167 17.094C21.9985 17.4116 20.2674 17.6406 18.436 17.7771C16.5334 17.919 14.7709 17.9408 13.3113 17.9131C11.0965 17.8719 9.57781 17.7136 9.31851 17.6851L9.2882 17.6825L9.28432 17.6512C9.22086 17.1844 9.15454 16.7194 9.08642 16.2545L9.07812 16.2058L9.12916 16.2099C9.53999 16.2475 11.0388 16.3739 13.1439 16.3902C14.4769 16.4003 16.0526 16.3669 17.7485 16.2405C20.0128 16.0716 22.1034 15.7664 24.0016 15.3297C25.4393 14.9987 26.7666 14.5917 27.9771 14.1091L28.0278 14.0879L28.0314 14.1433Z" fill="#E8B21A"/>
<path d="M37.2081 39.3136C33.6573 33.9164 34.6615 28.1572 35.3767 25.6316C35.5591 24.9892 35.7236 24.5564 35.7891 24.3911L35.8104 24.3373L35.7531 24.3367C34.2199 24.3225 32.6185 24.1847 31.307 23.2693C29.736 22.1717 28.7952 20.3318 28.346 17.4772L28.3393 17.4316L28.296 17.4459C27.0951 17.8212 25.8474 18.1461 24.5561 18.417C22.5069 18.8509 20.3509 19.1529 18.1103 19.32C16.3527 19.4511 14.7674 19.4819 13.4466 19.4661C11.3539 19.4428 9.92708 19.3029 9.53801 19.2604L9.48828 19.2547L9.49346 19.3034C9.67815 20.8646 9.78565 22.2207 9.82321 23.4501C9.85792 24.5305 9.83538 25.6371 9.81362 26.7059C9.80119 27.3467 9.78695 28.0749 9.78721 28.7989L9.78876 28.8416L9.82995 28.8385C10.2074 28.8136 11.4935 28.7686 13.0272 29.1939C14.1652 29.5076 15.4401 30.0795 16.5819 31.1056C18.8558 33.1527 20.0077 36.4202 20.0054 40.8199L20.0048 40.8564L20.0416 40.8601C21.6505 40.9958 23.4093 40.9901 25.421 40.8401C25.8362 40.8093 26.267 40.7722 26.7366 40.7261L27.0283 40.6982C30.3862 40.3746 33.8591 40.0381 37.182 39.3742L37.2397 39.362L37.2081 39.3136ZM19.363 33.0499C19.3645 33.0496 19.3645 33.0496 19.3645 33.0496C19.6489 33.4983 19.8808 33.9702 20.0696 34.4562C19.8795 33.9702 19.6474 33.4985 19.363 33.0499Z" fill="#C92C1E"/>
<path d="M45.6342 29.9619C45.1671 27.5101 43.285 25.3928 40.948 24.6936C39.7885 24.3465 38.5179 24.3222 37.4181 24.3266L37.388 24.3274L37.3792 24.3566C37.3212 24.5579 37.1717 25.1089 37.015 25.9033C36.4586 28.7473 35.8325 34.7053 39.1502 38.8654L39.1676 38.8864L39.194 38.8781C42.0126 37.9663 45.006 35.8614 45.6453 32.6382C45.6453 32.6367 45.6453 32.6367 45.645 32.6351C45.8074 31.8163 45.8173 30.9247 45.6342 29.9619Z" fill="white"/>
<path d="M39.0865 38.9116L39.0305 38.9284C38.6627 39.0432 38.2985 39.1385 37.9486 39.2154C37.7501 39.2587 37.5499 39.2991 37.3497 39.3411L37.3248 39.346L37.3087 39.3235C33.7082 33.8998 34.7127 28.1834 35.4504 25.642C35.6437 24.9765 35.8185 24.5302 35.8869 24.3616L35.8962 24.337L35.9232 24.3365C36.2218 24.338 36.5184 24.3349 36.815 24.3318L37.3054 24.3271L37.2901 24.3792C37.2349 24.5771 37.0909 25.1149 36.9419 25.8881C36.3954 28.7139 35.7698 34.7005 39.0497 38.8668L39.0865 38.9116Z" fill="#E8B21A"/>
<path d="M19.9267 40.8049V40.8477L19.8834 40.8446C19.1496 40.7769 18.4582 40.6824 17.7964 40.5573C17.1828 40.441 16.596 40.3021 16.028 40.1351C13.0833 39.2701 11.1151 37.194 10.3344 34.1337C9.86321 32.2858 9.79534 30.3966 9.78809 28.9572L9.78861 28.9207L9.82487 28.9181C10.2007 28.8916 11.4863 28.8419 13.0219 29.2688C14.144 29.582 15.3993 30.149 16.5295 31.1668C18.7831 33.1942 19.9267 36.4371 19.9267 40.8049Z" fill="white"/>
<path d="M29.7134 6.0842C29.7043 6.07047 29.7064 6.05312 29.7165 6.03939C29.7222 6.03265 29.73 6.02877 29.7458 6.02773L29.76 6.02669L30.2742 6.19481L30.2447 6.11762C30.0763 5.66974 29.3466 4.12512 27.0559 3.10996C27.0445 3.10452 27.0357 3.09235 27.0331 3.07991C27.0321 3.06567 27.0357 3.05271 27.0464 3.04391L27.781 2.39839L27.7097 2.38C26.2786 2.0088 24.9637 2.00673 24.111 2.07045C23.1445 2.14247 22.5425 2.30799 22.5285 2.31239C22.5223 2.31291 22.5174 2.31162 22.5109 2.30903C19.2147 1.02888 16.0203 0.948057 13.9218 1.10451C13.0108 1.17238 12.3363 1.28299 12.0153 1.34516L11.8884 1.36899L12.0065 1.42054C13.0339 1.86944 13.1269 2.39295 13.1302 2.41497C13.131 2.42455 13.1287 2.43569 13.123 2.44398C13.1157 2.45253 13.1067 2.45797 13.0958 2.4603C12.5503 2.53439 12.0361 2.62349 11.553 2.72296C11.553 2.72296 11.553 2.72296 11.5514 2.72296C7.24159 3.61119 5.31722 5.37729 4.79423 5.9451L4.7002 6.04586L4.83412 6.01038C5.05196 5.94976 5.40943 5.86739 5.87362 5.81221C5.88942 5.81092 5.90445 5.81947 5.9117 5.8332C5.91921 5.84848 5.91714 5.86609 5.90704 5.87801C5.81223 5.98991 3.61355 8.63543 6.17903 11.7182C6.83465 12.5062 7.60994 12.9787 8.5492 13.161L8.57458 13.1592L8.5852 13.1538C8.59478 13.153 8.60618 13.1587 8.61473 13.166L8.62328 13.1748L8.63623 13.1771C9.04784 13.2481 9.48768 13.2659 9.977 13.2294C10.6432 13.1797 11.331 13.0333 12.0195 12.8549C12.4228 12.7502 12.8253 12.6329 13.2248 12.5173C14.1635 12.2456 15.0512 11.9907 15.9037 11.8827C16.9671 11.7477 17.9819 11.6452 18.9199 11.5752C21.3657 11.3929 22.9883 11.4545 24.2744 11.5413C24.5332 11.5602 24.779 11.5783 25.0153 11.5957C25.8999 11.663 26.5993 11.7159 27.3367 11.6607C27.5326 11.6462 27.7198 11.6242 27.9237 11.5915L27.9271 11.5928L27.9351 11.5923C28.2788 11.5382 28.6239 11.4615 28.9925 11.3563C29.7481 11.1395 30.2535 10.7225 30.4944 10.1202C31.1251 8.53519 29.7717 6.18471 29.7134 6.0842ZM5.73633 8.36241C5.73504 8.32615 5.73737 8.28936 5.73763 8.25284L5.73918 8.25258C5.73866 8.28936 5.73659 8.32589 5.73633 8.36241Z" fill="white"/>
<path d="M8.54822 13.1597C7.60896 12.9774 6.83367 12.5049 6.17805 11.7169C3.61257 8.63415 5.81126 5.98863 5.90607 5.87672C5.91617 5.86481 5.91824 5.84719 5.91073 5.83191C5.90321 5.81818 5.88846 5.80989 5.87265 5.81093C5.40846 5.8661 5.051 5.94848 4.83315 6.00909L4.69922 6.04458L4.79325 5.94382C5.31624 5.37601 7.24061 3.60991 11.5504 2.72168C11.0339 2.99367 9.14866 4.02644 8.4845 4.96026L10.1283 4.83774C10.1283 4.83774 7.88794 5.56044 8.4832 8.83931C8.99557 11.6654 10.6935 12.844 12.0183 12.8533C11.3297 13.0318 10.642 13.1781 9.97577 13.2279C9.48619 13.2644 9.0466 13.2463 8.63499 13.1755L8.62205 13.1732L8.6135 13.1644C8.60495 13.1572 8.59355 13.1517 8.58397 13.1522L8.57335 13.1577L8.54822 13.1597Z" fill="#E2E2E2"/>
<path d="M9.96623 13.3114C10.797 13.2495 11.6624 13.0389 12.5193 12.7987C12.5537 12.7899 12.5864 12.7811 12.6206 12.7705C12.6206 12.7705 12.883 14.2449 13.1319 16.3081C10.8998 16.2903 9.35257 16.1517 9.09665 16.1263L9.06634 16.1237L9.0609 16.0939C8.99329 15.6336 8.92569 15.1751 8.85678 14.7197C8.78529 14.2504 8.71535 13.7823 8.64723 13.3142L8.63867 13.2624L8.69152 13.2697C9.08836 13.3324 9.50514 13.3458 9.96623 13.3114Z" fill="#A3180B"/>
<path d="M9.12792 16.2102C9.53875 16.2478 11.0375 16.3742 13.1427 16.3905C13.2007 16.8705 13.258 17.3823 13.3103 17.9134C11.0956 17.8722 9.57683 17.7139 9.31754 17.6854L9.28723 17.6828L9.28335 17.6515C9.21988 17.1847 9.15357 16.7197 9.08544 16.2548L9.07715 16.2061L9.12792 16.2102Z" fill="#CC9611"/>
<path d="M9.34954 17.7687C9.764 17.814 11.234 17.9552 13.3185 17.9951C13.3633 18.4473 13.4045 18.9128 13.4413 19.3863C11.2244 19.3594 9.75364 19.204 9.5117 19.1775L9.47957 19.1737L9.47569 19.1423C9.42363 18.6983 9.36509 18.2551 9.30525 17.8132L9.2998 17.7627L9.34954 17.7687Z" fill="#77380A"/>
<path d="M9.82321 23.4492C9.78565 22.2199 9.67815 20.8641 9.49346 19.3026L9.48828 19.2539L9.53801 19.2596C9.92682 19.3021 11.3536 19.4417 13.4466 19.4653C13.6049 21.5653 13.6585 23.7984 13.4316 25.5889C13.3106 26.5411 13.128 27.7995 13.027 29.1931C11.4932 28.7675 10.2074 28.8126 9.82969 28.8377L9.7885 28.8408L9.78695 28.798C9.78695 28.074 9.80094 27.3459 9.81337 26.705C9.83539 25.6363 9.85766 24.5294 9.82321 23.4492Z" fill="#A3180B"/>
<path d="M17.7964 40.5573C17.1828 40.441 16.596 40.3021 16.028 40.1351C13.0833 39.2701 11.1151 37.194 10.3344 34.1337C9.86321 32.2858 9.79534 30.3966 9.78809 28.9572L9.7886 28.9207L9.82487 28.9181C10.2007 28.8916 11.4863 28.8419 13.0219 29.2688C12.7377 33.3162 13.1615 38.4687 17.7964 40.5573Z" fill="#E2E2E2"/>
<path d="M28.1212 15.8734C26.9165 16.3047 25.6164 16.6715 24.2303 16.9686C24.1277 16.4031 24.0534 15.8514 24 15.3297C25.4376 14.9987 26.7649 14.5917 27.9754 14.1091L28.0262 14.0879L28.0303 14.1431C28.065 14.7995 28.1034 15.3349 28.1484 15.8317L28.1508 15.8633L28.1212 15.8734Z" fill="#FCC947"/>
<path d="M27.9959 14.0177C26.7811 14.5052 25.4432 14.9178 23.9915 15.2515C23.9053 14.3718 23.8781 13.5817 23.8763 12.9593C23.8726 12.229 23.9053 11.7314 23.9143 11.5957C24.3068 11.619 24.6676 11.646 25.0093 11.6729C25.8524 11.7371 26.5821 11.7923 27.3416 11.7356C27.5121 11.7229 27.6838 11.7053 27.8522 11.6817L27.8931 11.6755L27.8962 11.7182C27.9322 12.222 27.9612 12.7818 27.9856 13.2771L28.0224 14.0063L27.9959 14.0177Z" fill="#DE5547"/>
<path d="M28.2944 17.3624C27.0873 17.7398 25.8336 18.0667 24.5345 18.3397C24.4195 17.9053 24.3237 17.4709 24.2441 17.045C25.6194 16.7505 26.9101 16.3873 28.1105 15.9597L28.1584 15.9434L28.162 15.9939C28.2061 16.4573 28.26 16.9028 28.3227 17.3188L28.3268 17.3517L28.2944 17.3624Z" fill="#BF7034"/>
<path d="M22.5283 2.31135C22.5423 2.30721 23.1443 2.14168 24.1108 2.06941C24.9635 2.00595 26.2784 2.00776 27.7095 2.37896L27.7808 2.39735L27.0461 3.04287C27.0355 3.05167 27.0319 3.06462 27.0329 3.07887C27.0355 3.09131 27.0443 3.10348 27.0557 3.10892C29.3464 4.12408 30.0761 5.6687 30.2444 6.11657L30.274 6.19377L29.7598 6.02565L29.7455 6.02669C29.7297 6.02798 29.7222 6.03161 29.7163 6.03834C29.7062 6.05181 29.7044 6.06943 29.7132 6.08316C29.7715 6.18366 31.1249 8.53441 30.4934 10.1184C30.2525 10.7207 29.7468 11.138 28.9915 11.3545C28.6231 11.4597 28.2779 11.5364 27.9341 11.5905L27.9261 11.591L27.9227 11.5897C27.7189 11.6224 27.5316 11.6444 27.3357 11.6589C26.5983 11.7138 25.8989 11.6612 25.0143 11.5939C24.778 11.5765 24.5322 11.5584 24.2734 11.5395C30.0924 11.174 27.1384 5.43531 27.1384 5.43531L28.1994 5.35631C26.6053 3.9096 24.4687 3.95933 24.4687 3.95933L25.4938 3.31123C24.7037 2.41756 22.5283 2.31135 22.5283 2.31135Z" fill="white"/>
<path d="M35.7885 24.3902C35.7229 24.5554 35.5584 24.9885 35.3761 25.6307C34.2977 25.4776 33.1315 25.3613 31.8726 25.2807C27.439 24.9953 25.4405 21.7034 24.5557 18.416C25.847 18.1451 27.0947 17.8203 28.2956 17.4449L28.3389 17.4307L28.3456 17.4763C28.795 20.3308 29.7356 22.1707 31.3066 23.2683C32.6181 24.1834 34.2195 24.3213 35.7527 24.3358L35.81 24.3363L35.7885 24.3902Z" fill="#DE5547"/>
<path d="M37.2901 24.3782C37.2349 24.5761 37.0909 25.1139 36.942 25.8871C36.4654 25.7972 35.9685 25.7151 35.4502 25.641C35.6434 24.9756 35.8183 24.5293 35.8867 24.3606L35.896 24.336L35.9229 24.3355C36.2216 24.3371 36.5182 24.3339 36.8148 24.3308L37.3051 24.3262L37.2901 24.3782Z" fill="#EDCC45"/>
<path d="M45.6444 32.6344C45.3587 29.4182 42.9206 27.2581 38.015 26.1152C37.6933 26.0391 37.3594 25.9689 37.0146 25.9023C37.1714 25.1079 37.3208 24.5569 37.3789 24.3556L37.3877 24.3264L37.4177 24.3256C38.5178 24.3214 39.7881 24.3458 40.9476 24.6926C43.2846 25.3918 45.1667 27.5091 45.6338 29.9609C45.8172 30.9242 45.8073 31.8158 45.6444 32.6344Z" fill="white"/>
<path d="M27.0727 3.0734C29.842 4.30174 30.3327 6.2559 30.3327 6.2559L29.7475 6.06447C29.7475 6.06447 32.3239 10.4398 29.003 11.3926C25.6822 12.3455 24.7279 10.8087 15.908 11.9207C12.7248 12.3222 8.76645 14.8882 6.14734 11.742C3.52824 8.59576 5.87614 5.85155 5.87614 5.85155C5.07701 5.9448 4.58691 6.12664 4.58691 6.12664C4.58691 6.12664 6.59055 3.3086 13.0908 2.41985C13.0908 2.41985 12.9957 1.8207 11.7487 1.35807C11.7487 1.35807 16.9595 0.110816 22.5253 2.27194C22.5253 2.27194 24.9745 1.58421 27.8622 2.37918L27.0727 3.0734Z" stroke="black" stroke-miterlimit="10" stroke-linecap="round" stroke-linejoin="round"/>
<path d="M8.58789 13.1924C9.08291 16.5666 9.67791 20.0395 9.78412 23.4504C9.89498 27.0127 9.40412 30.6446 10.296 34.1434C11.0614 37.1461 13.0296 39.2945 16.0165 40.1727C19.4889 41.1935 23.1726 41.1104 26.7403 40.7653C30.4528 40.4063 34.3085 40.0457 37.9557 39.2531C42.3676 38.2942 46.631 34.9855 45.6726 29.9543C45.2074 27.5126 43.3405 25.3686 40.9595 24.6555C37.8091 23.7123 34.0259 25.1181 31.3293 23.2354C27.9401 20.8694 28.1994 15.2514 27.9293 11.6299" stroke="black" stroke-miterlimit="10" stroke-linecap="round" stroke-linejoin="round"/>
<path d="M35.8699 24.2969C35.8699 24.2969 32.4343 32.1073 37.3049 39.3893" stroke="black" stroke-miterlimit="10" stroke-linecap="round" stroke-linejoin="round"/>
<path d="M37.3576 24.2871C37.3576 24.2871 34.5932 33.2787 39.1527 38.9327" stroke="black" stroke-miterlimit="10" stroke-linecap="round" stroke-linejoin="round"/>
<path d="M9.74805 28.8836C9.74805 28.8836 20.0157 27.7553 19.9675 40.8969" stroke="black" stroke-miterlimit="10" stroke-linecap="round" stroke-linejoin="round"/>
<path d="M9.03125 16.1605C9.03125 16.1605 19.9382 17.3155 28.0636 14.0322" stroke="black" stroke-miterlimit="10" stroke-linecap="round" stroke-linejoin="round"/>
<path d="M9.44434 19.2093C9.44434 19.2093 18.8028 20.3807 28.3143 17.3984" stroke="black" stroke-miterlimit="10" stroke-linecap="round" stroke-linejoin="round"/>
<path d="M9.25391 17.7186C9.25391 17.7186 19.6536 18.9724 28.1938 15.8906" stroke="black" stroke-miterlimit="10" stroke-linecap="round" stroke-linejoin="round"/>
<path d="M10.707 29.8877C13.2577 29.9481 15.7238 31.4673 16.9244 33.7186" stroke="black" stroke-width="0.5" stroke-miterlimit="10" stroke-linecap="round" stroke-linejoin="round"/>
<path d="M12.1455 31.2939C12.8105 31.4004 13.4484 31.6711 13.9872 32.0752C14.5493 32.4969 14.9946 33.052 15.4332 33.6009" stroke="black" stroke-width="0.5" stroke-miterlimit="10" stroke-linecap="round" stroke-linejoin="round"/>
<path d="M15.0176 35.0352C15.1417 35.1657 15.2657 35.296 15.3898 35.4266" stroke="black" stroke-width="0.5" stroke-miterlimit="10" stroke-linecap="round" stroke-linejoin="round"/>
<path d="M21.0128 40.1158C20.8623 37.6739 20.6752 35.1144 19.3643 33.0488" stroke="black" stroke-width="0.5" stroke-miterlimit="10" stroke-linecap="round" stroke-linejoin="round"/>
<path d="M21.945 39.5494C21.9238 39.0173 21.873 38.4863 21.793 37.96" stroke="black" stroke-width="0.5" stroke-miterlimit="10" stroke-linecap="round" stroke-linejoin="round"/>
<path d="M23.5614 39.1995C23.5329 39.0956 23.55 38.9799 23.6075 38.8887" stroke="black" stroke-width="0.5" stroke-miterlimit="10" stroke-linecap="round" stroke-linejoin="round"/>
<path d="M25.2549 39.4549C25.2629 39.3907 25.2707 39.3267 25.2787 39.2627" stroke="black" stroke-width="0.5" stroke-miterlimit="10" stroke-linecap="round" stroke-linejoin="round"/>
<path d="M37.9752 32.6754C37.281 30.5044 37.3141 28.1078 38.0679 25.957" stroke="black" stroke-width="0.5" stroke-miterlimit="10" stroke-linecap="round" stroke-linejoin="round"/>
<path d="M38.5191 29.7386C38.4153 29.0817 38.4272 28.4067 38.5546 27.7539" stroke="black" stroke-width="0.5" stroke-miterlimit="10" stroke-linecap="round" stroke-linejoin="round"/>
<path d="M39.7285 29.6121C39.7614 29.3684 39.7941 29.1246 39.827 28.8809" stroke="black" stroke-width="0.5" stroke-miterlimit="10" stroke-linecap="round" stroke-linejoin="round"/>
<path d="M41.1896 30.3404C41.1831 30.2519 41.1764 30.1635 41.1699 30.0752" stroke="black" stroke-width="0.5" stroke-miterlimit="10" stroke-linecap="round" stroke-linejoin="round"/>
<path d="M43.4785 34.899C44.2797 33.6735 44.6304 32.16 44.4494 30.707" stroke="black" stroke-width="0.5" stroke-miterlimit="10" stroke-linecap="round" stroke-linejoin="round"/>
<path d="M43.7227 32.6287C43.7594 32.4272 43.7698 32.221 43.7532 32.0166" stroke="black" stroke-width="0.5" stroke-miterlimit="10" stroke-linecap="round" stroke-linejoin="round"/>
<path d="M33.8094 33.5195C33.454 31.562 33.4296 29.5447 33.7376 27.5791" stroke="black" stroke-width="0.5" stroke-miterlimit="10" stroke-linecap="round" stroke-linejoin="round"/>
<path d="M32.2576 31.1593C32.2387 30.9067 32.2198 30.6539 32.2012 30.4014" stroke="black" stroke-width="0.5" stroke-miterlimit="10" stroke-linecap="round" stroke-linejoin="round"/>
<path d="M30.5114 31.2511C30.4893 31.1257 30.4673 31.0004 30.4453 30.875" stroke="black" stroke-width="0.5" stroke-miterlimit="10" stroke-linecap="round" stroke-linejoin="round"/>
<path d="M27.8301 18.9141C27.9396 19.6793 28.1212 20.4343 28.3715 21.1656C28.6782 22.0621 29.1626 22.9972 30.0381 23.3591" stroke="black" stroke-width="0.5" stroke-miterlimit="10" stroke-linecap="round" stroke-linejoin="round"/>
<path d="M27.376 21.4248C27.4622 21.6971 27.5858 21.9574 27.742 22.1965" stroke="black" stroke-width="0.5" stroke-miterlimit="10" stroke-linecap="round" stroke-linejoin="round"/>
<path d="M26.5381 22.9736C26.6005 23.1695 26.6932 23.3554 26.8119 23.5233" stroke="black" stroke-width="0.5" stroke-miterlimit="10" stroke-linecap="round" stroke-linejoin="round"/>
<path d="M26.207 24.6367C26.2923 24.7574 26.3775 24.8781 26.4627 24.9989" stroke="black" stroke-width="0.5" stroke-miterlimit="10" stroke-linecap="round" stroke-linejoin="round"/>
<path d="M10.881 24.6742C10.8235 23.4974 10.7658 22.3204 10.708 21.1436" stroke="black" stroke-width="0.5" stroke-miterlimit="10" stroke-linecap="round" stroke-linejoin="round"/>
<path d="M12.0458 23.7872C12.008 23.5356 12.0007 23.2797 12.0243 23.0264" stroke="black" stroke-width="0.5" stroke-miterlimit="10" stroke-linecap="round" stroke-linejoin="round"/>
<path d="M13.2471 23.6211C13.2502 23.4939 13.2536 23.3664 13.2567 23.2393" stroke="black" stroke-width="0.5" stroke-miterlimit="10" stroke-linecap="round" stroke-linejoin="round"/>
<path d="M5.73859 8.25195C5.69688 9.28757 6.06005 10.3343 6.73431 11.1218C7.40832 11.9093 8.3867 12.4294 9.41636 12.5478" stroke="black" stroke-width="0.5" stroke-miterlimit="10" stroke-linecap="round" stroke-linejoin="round"/>
<path d="M7.37988 10.1455C7.64876 10.6675 8.11684 11.0837 8.66651 11.2899" stroke="black" stroke-width="0.5" stroke-miterlimit="10" stroke-linecap="round" stroke-linejoin="round"/>
<path d="M9.43945 10.3008C9.62855 10.4593 9.86376 10.5624 10.1088 10.594" stroke="black" stroke-width="0.5" stroke-miterlimit="10" stroke-linecap="round" stroke-linejoin="round"/>
<path d="M29.043 10.5236C29.5802 10.2539 29.8351 9.60063 29.8082 9.00019C29.7812 8.39975 29.5266 7.83583 29.2745 7.29004" stroke="black" stroke-width="0.5" stroke-miterlimit="10" stroke-linecap="round" stroke-linejoin="round"/>
<path d="M29.0126 9.10884C29.0133 8.78997 28.9639 8.47084 28.8662 8.16699" stroke="black" stroke-width="0.5" stroke-miterlimit="10" stroke-linecap="round" stroke-linejoin="round"/>
<path d="M27.7579 8.63027C27.6978 8.50774 27.638 8.38522 27.5781 8.2627" stroke="black" stroke-width="0.5" stroke-miterlimit="10" stroke-linecap="round" stroke-linejoin="round"/>
<path d="M26.214 8.36396C26.1948 8.27641 26.1757 8.18912 26.1562 8.10156" stroke="black" stroke-width="0.5" stroke-miterlimit="10" stroke-linecap="round" stroke-linejoin="round"/>
<path d="M16.6055 1.65137C18.2646 1.74669 19.9027 2.18679 21.3862 2.93592" stroke="black" stroke-width="0.5" stroke-miterlimit="10" stroke-linecap="round" stroke-linejoin="round"/>
<path d="M18.7568 2.89941C19.1809 3.00717 19.5909 3.16907 19.974 3.37992" stroke="black" stroke-width="0.5" stroke-miterlimit="10" stroke-linecap="round" stroke-linejoin="round"/>
<path d="M18.9424 4.37207C19.2027 4.45444 19.4628 4.53656 19.7229 4.61867" stroke="black" stroke-width="0.5" stroke-miterlimit="10" stroke-linecap="round" stroke-linejoin="round"/>
<path d="M18.1953 6.10156C18.5567 6.17591 18.9178 6.25051 19.2791 6.32485" stroke="black" stroke-width="0.5" stroke-miterlimit="10" stroke-linecap="round" stroke-linejoin="round"/>
<path d="M21.793 14.9957C23.3863 14.818 24.9599 14.4636 26.4758 13.9414" stroke="black" stroke-width="0.5" stroke-miterlimit="10" stroke-linecap="round" stroke-linejoin="round"/>
<path d="M23.7021 14.0392C24.1894 13.9793 24.6686 13.8542 25.123 13.668" stroke="black" stroke-width="0.5" stroke-miterlimit="10" stroke-linecap="round" stroke-linejoin="round"/>
<path d="M23.6992 12.9718C23.8002 12.9642 23.9013 12.9567 24.0023 12.9492" stroke="black" stroke-width="0.5" stroke-miterlimit="10" stroke-linecap="round" stroke-linejoin="round"/>
<path d="M10.4697 15.4466C11.3181 15.524 12.1747 15.5095 13.0199 15.4033" stroke="black" stroke-width="0.5" stroke-miterlimit="10" stroke-linecap="round" stroke-linejoin="round"/>
<path d="M11.5625 14.2555C11.9179 14.2495 12.2728 14.2146 12.6225 14.1514" stroke="black" stroke-width="0.5" stroke-miterlimit="10" stroke-linecap="round" stroke-linejoin="round"/>
</svg>
