<svg width="27" height="42" viewBox="0 0 27 42" fill="none" xmlns="http://www.w3.org/2000/svg">
<path d="M12.5509 4.75047C12.3319 4.20164 11.1498 1.44376 9.43091 1.06854C9.3051 1.04142 9.17607 1.02734 9.05027 1.02734C8.49398 1.02734 7.93311 1.29303 7.38343 1.81693L7.34766 1.8505L7.3953 1.86237C7.66098 1.9307 7.9343 2.01954 8.20761 2.12805L8.22168 2.13348L8.23474 2.12382C8.29764 2.07397 8.47872 1.95562 8.7856 1.95562C8.82782 1.95562 8.87122 1.95783 8.91683 1.96325C9.50907 2.02395 10.5099 2.5304 11.9219 4.60398C12.0618 4.73521 12.1573 4.83168 12.2029 4.87729L12.2149 4.89035L12.2322 4.88391C12.3299 4.84491 12.4318 4.81235 12.5326 4.78624L12.563 4.77861L12.5509 4.75047ZM9.02094 1.62602H9.01992V1.62704L8.92344 1.64552L9.01992 1.62602L9.02094 1.6011V1.62602Z" fill="#C92C1E"/>
<path d="M10.3358 7.52878C8.37193 8.68443 6.85328 8.79023 6.43466 8.79497L6.36328 8.79582L6.4172 8.84245C6.49689 8.91179 6.57522 8.96588 6.65643 9.00826C6.84565 9.10694 7.0642 9.15679 7.3058 9.15679C7.53368 9.15679 7.78614 9.11237 8.0564 9.02471C9.08759 8.69002 10.133 7.9513 10.8287 7.39026L11.004 7.24902L10.8002 7.34465C10.6612 7.40993 10.5086 7.46944 10.347 7.52115L10.3358 7.52878Z" fill="#A3180B"/>
<path d="M22.8485 3.15531C22.0342 2.2411 21.0504 1.76925 19.9258 1.75297L19.8651 1.75195C17.1398 1.75195 14.4175 4.36233 13.8992 4.88505L13.8721 4.91319L13.9067 4.92947C14.0998 5.0173 14.2581 5.12581 14.3785 5.25263L14.3938 5.26891L14.4133 5.25704C14.7342 5.0585 17.6181 3.31791 19.8999 3.31791C20.9485 3.31791 21.7241 3.68447 22.2024 4.40777C22.378 4.67786 22.4399 4.89895 22.3921 5.0824C22.3215 5.35894 22.0136 5.52493 21.6567 5.71686C21.044 6.04663 20.2817 6.45762 20.2208 7.6353C20.2122 7.80875 20.1905 7.94761 20.1525 8.07122C20.0928 8.26637 19.9769 8.54731 19.7556 8.78383C19.6471 8.8998 19.5311 8.98881 19.4021 9.05595C19.2047 9.15904 18.978 9.21109 18.7276 9.21109C18.4945 9.21109 18.2363 9.16548 17.9607 9.07664C16.5769 8.62767 15.1715 7.45744 14.6313 6.97592L14.6118 6.95863C14.5521 6.90438 14.5045 6.85996 14.4709 6.82961L14.4438 6.80468L14.4275 6.83825C14.3831 6.93252 14.3375 7.00102 14.2822 7.05307L14.2617 7.07359L14.2834 7.09309C16.2018 8.85656 17.7483 9.75128 18.8795 9.75128C19.1062 9.75128 19.3198 9.71448 19.513 9.64276C19.8655 9.51255 20.1571 9.26094 20.3805 8.89556L20.3902 8.8803L20.3912 8.87708C20.671 8.40963 20.7827 7.85555 20.8261 7.47372C20.9075 6.77857 21.6081 6.3903 22.2848 6.01509C22.9182 5.66379 23.5169 5.33181 23.6111 4.77772C23.6845 4.34385 23.4351 3.8135 22.8485 3.15531Z" fill="#C92C1E"/>
<path d="M6.13388 3.31791C8.41568 3.31791 11.2983 5.0585 11.6203 5.25704L11.6388 5.26891L11.6539 5.25263C11.7743 5.12581 11.9336 5.0173 12.1257 4.92947L12.1615 4.91319L12.1334 4.88505C11.6161 4.36233 8.89397 1.75195 6.16746 1.75195L6.10676 1.75297C4.98214 1.76925 3.99841 2.24093 3.18407 3.15531C2.59743 3.8135 2.34904 4.34385 2.4228 4.77772C2.51605 5.33198 3.11473 5.66379 3.74799 6.01509C4.42585 6.3903 5.12541 6.77857 5.20662 7.47372C5.25104 7.85538 5.36278 8.40963 5.64253 8.87708L5.65118 8.89336L5.65338 8.89556C5.87566 9.26111 6.16746 9.51255 6.51995 9.64276C6.71408 9.71431 6.9267 9.75128 7.15321 9.75128C8.28444 9.75128 9.8309 8.85656 11.7505 7.09309L11.7712 7.07359L11.7505 7.05409C11.6963 7.00102 11.6497 6.93269 11.6052 6.83825L11.589 6.80468L11.5618 6.82961C11.5293 6.86098 11.4816 6.90438 11.4187 6.96084L11.4024 6.97491C10.8624 7.45745 9.45569 8.62767 8.07302 9.07664C7.79648 9.16565 7.53843 9.21109 7.30513 9.21109C7.05471 9.21109 6.82802 9.15904 6.63066 9.05595C6.50164 8.98864 6.38668 8.8998 6.27597 8.78264C6.05691 8.54731 5.93975 8.26535 5.88007 8.07122C5.84209 7.94761 5.82039 7.80875 5.81174 7.6353C5.75206 6.45762 4.98858 6.04646 4.37583 5.71686C4.0191 5.52391 3.71103 5.35894 3.6405 5.0824C3.59387 4.89912 3.65559 4.67887 3.83022 4.40777C4.30988 3.68549 5.08522 3.31791 6.13388 3.31791Z" fill="#C92C1E"/>
<path d="M14.4417 5.41278C14.0458 4.83699 13.06 4.76103 13.0144 4.75781C12.9732 4.76103 11.9885 4.83699 11.5916 5.41278C11.4115 5.67524 11.3801 6.00281 11.5005 6.38887C11.5439 6.53095 11.5807 6.64371 11.6187 6.73916L11.6241 6.75323L11.6263 6.75544C11.7672 7.09708 11.9191 7.14591 12.4017 7.14591C12.4742 7.14591 12.5556 7.14472 12.6446 7.1437H12.6738C12.7769 7.14269 12.8907 7.1415 13.0165 7.1415C13.1433 7.1415 13.2572 7.14252 13.3591 7.1437H13.3885C13.4773 7.14472 13.5565 7.14591 13.6292 7.14591C13.8722 7.14591 14.0304 7.13404 14.1475 7.0786C14.2635 7.02332 14.3362 6.92566 14.4078 6.75425L14.4142 6.73899C14.4522 6.64455 14.489 6.53078 14.5336 6.3887C14.6531 6.00281 14.6218 5.67524 14.4417 5.41278Z" fill="#C92C1E"/>
<path d="M11.998 7.17278C11.9329 7.15972 11.8787 7.14125 11.8331 7.1153L11.8168 7.10547L11.8017 7.11852C9.8658 8.90031 8.29984 9.80367 7.1481 9.80367C6.91717 9.80367 6.69913 9.76688 6.50178 9.69312C6.14386 9.56088 5.84681 9.30808 5.61894 8.9427L5.61029 8.92761L5.59299 8.92982C5.33477 8.95796 5.02789 8.97203 4.68303 8.97203C3.46939 8.97203 2.03569 8.79638 1.47618 8.72042L1.32324 8.69974L4.35986 10.2908C4.36749 10.2952 4.37292 10.3038 4.37394 10.3135V10.3145C4.37394 10.3242 4.36953 10.3318 4.36207 10.3372C3.29272 11.0627 2.17455 11.3622 1.60317 11.4759L1.40683 11.5149L1.60639 11.5302C1.9599 11.5551 2.3146 11.5692 2.66048 11.5692C5.79476 11.5692 8.0657 10.5031 9.41904 9.60835C10.9396 8.60292 11.7897 7.5229 12.0143 7.21483L12.0392 7.18126L11.998 7.17278Z" fill="#C92C1E"/>
<path d="M19.8546 3.40817L19.8491 3.38867H19.8284C19.4977 3.39511 19.1365 3.4375 18.7549 3.51448L18.7191 3.52092L18.7364 3.55348C19.1691 4.36477 19.2255 5.66063 18.4739 6.46327C18.2104 6.74523 17.7223 7.08145 16.8937 7.08145C16.2365 7.08145 15.4665 6.86883 14.6043 6.4492L14.5762 6.43513L14.5665 6.46548C14.5317 6.57501 14.5014 6.66284 14.4732 6.73337L14.4668 6.75066L14.4799 6.76372C14.5124 6.79406 14.5775 6.85476 14.6696 6.93717C14.8149 7.05873 15.6065 7.66487 16.9795 7.66487C17.3461 7.66487 17.7267 7.62045 18.1118 7.53364C18.8708 7.36121 19.4197 6.98057 19.7418 6.40359C20.3763 5.26914 19.9468 3.70963 19.8546 3.40817Z" fill="#C92C1E"/>
<path d="M13.8017 4.88391L13.8184 4.89052L13.831 4.87763C13.8649 4.84287 13.96 4.7464 14.1146 4.59974C15.5231 2.53022 16.5245 2.02344 17.1163 1.96275C17.162 1.958 17.2054 1.95579 17.2464 1.95579C17.5533 1.95579 17.7352 2.07329 17.7991 2.12365L17.8113 2.13331L17.8259 2.12755C18.0987 2.01971 18.372 1.93036 18.638 1.86237L18.6855 1.85034L18.6501 1.81659C18.1006 1.29286 17.5399 1.02734 16.9838 1.02734C16.8571 1.02734 16.7288 1.04125 16.6028 1.06871C14.8839 1.44376 13.7018 4.20079 13.4822 4.74979L13.4707 4.77845L13.5005 4.78624C13.6024 4.81236 13.7037 4.84542 13.8017 4.88391Z" fill="#C92C1E"/>
<path d="M15.6931 7.52386L15.6866 7.52166C15.524 7.46961 15.3716 7.41009 15.2336 7.34516L15.0293 7.24902L15.2049 7.39077C15.9003 7.95146 16.9457 8.69019 17.9769 9.02488C18.2472 9.11254 18.4996 9.15713 18.7273 9.15713H18.7275C18.9693 9.15713 19.1877 9.10711 19.3769 9.0086C19.4577 8.96638 19.5361 8.9123 19.6161 8.84278L19.67 8.79616L19.5986 8.79531C19.1799 8.79039 17.661 8.68459 15.6999 7.53081L15.6931 7.52386Z" fill="#DE5547"/>
<path d="M21.6721 10.3374C21.6645 10.333 21.6603 10.3255 21.6603 10.3167V10.3135C21.6603 10.3037 21.6657 10.295 21.6743 10.2908L24.7099 8.69974L24.558 8.72043C23.9973 8.79638 22.5646 8.97203 21.35 8.97203C21.0051 8.97203 20.6993 8.95796 20.4402 8.92982L20.4239 8.92761L20.4141 8.9427C20.1864 9.30825 19.8903 9.56088 19.5324 9.69313C19.5292 9.69432 19.526 9.69533 19.5228 9.69635C19.3264 9.7679 19.1128 9.80367 18.8839 9.80367C17.7333 9.80367 16.1682 8.90032 14.2315 7.11853L14.2174 7.10547L14.2001 7.1153C14.1545 7.14023 14.1014 7.15972 14.0363 7.17278L13.9951 7.18143L14.02 7.215C14.2435 7.52307 15.0938 8.6031 16.6153 9.60852C17.9688 10.5032 20.2386 11.5694 23.3697 11.5694C23.7177 11.5694 24.0734 11.5563 24.427 11.5304L24.6265 11.5151L24.4302 11.4761C23.8585 11.3623 22.7403 11.0629 21.6721 10.3374Z" fill="#C92C1E"/>
<path d="M11.5615 6.73239C11.5321 6.66084 11.5018 6.57301 11.467 6.4645L11.4584 6.43415L11.4302 6.44823C10.5681 6.86786 9.79697 7.08048 9.1398 7.08048C8.31122 7.08048 7.82326 6.74425 7.55978 6.46229C6.80935 5.65982 6.86463 4.36379 7.29833 3.5525L7.31562 3.51995L7.27985 3.5135C6.89803 3.43652 6.53689 3.39414 6.20627 3.38871L6.18575 3.3877L6.17931 3.40719C6.08707 3.70865 5.65879 5.26816 6.29206 6.40262C6.61403 6.97959 7.16286 7.36023 7.9221 7.53266C8.30715 7.61947 8.6888 7.66389 9.05537 7.66389C10.4294 7.66389 11.221 7.05656 11.3665 6.93517C11.4565 6.85378 11.5215 6.79309 11.5552 6.76274L11.5683 6.74968L11.5615 6.73239ZM6.67575 3.90838C6.67897 3.89532 6.68219 3.88346 6.6866 3.8704C6.6866 3.8704 6.6866 3.8704 6.68779 3.8704C6.68338 3.88244 6.67897 3.89532 6.67575 3.90838Z" fill="#C92C1E"/>
<path d="M4.37394 10.315V10.314C4.37292 10.3041 4.36749 10.2955 4.35986 10.2912L1.32324 8.7002L1.47618 8.72088C2.03586 8.79683 3.46956 8.97249 4.68303 8.97249C5.02789 8.97249 5.33477 8.95842 5.59299 8.93027L5.61029 8.92807L5.61894 8.94316C5.84664 9.3087 6.14386 9.56133 6.50178 9.69358C6.50178 9.69358 5.5462 10.1164 4.37394 10.315Z" fill="#A3180B"/>
<path d="M24.7096 8.7002L21.674 10.2912C21.6654 10.2957 21.66 10.3043 21.66 10.314V10.3172C20.544 10.1317 19.6211 9.74021 19.5225 9.6968C19.5257 9.69562 19.5289 9.6946 19.5321 9.69358C19.89 9.56134 20.1861 9.30853 20.4138 8.94316L20.4236 8.92807L20.4399 8.93027C20.699 8.95842 21.0048 8.97249 21.3497 8.97249C22.5643 8.97249 23.997 8.79684 24.5577 8.72088L24.7096 8.7002Z" fill="#DE5547"/>
<path d="M13.0168 4.73145C13.0168 4.73145 10.9978 4.85996 11.4741 6.3976C11.7491 7.28536 11.8135 7.16888 13.0168 7.16888" stroke="black" stroke-miterlimit="10" stroke-linecap="round" stroke-linejoin="round"/>
<path d="M12.2089 4.92376C12.2089 4.92376 6.73519 -0.868885 3.16415 3.13756C0.654823 5.95292 4.97425 5.7086 5.17992 7.47767C5.38558 9.24675 6.68568 11.8068 11.8156 7.0711" stroke="black" stroke-miterlimit="10" stroke-linecap="round" stroke-linejoin="round"/>
<path d="M11.6438 5.30325C11.6438 5.30325 5.73515 1.58368 3.85299 4.4221C2.88622 5.92007 5.72074 5.31275 5.83926 7.63302C5.84672 7.77867 5.86401 7.92363 5.90657 8.06317C6.06052 8.56774 6.55899 9.53875 8.06442 9.05011C9.82298 8.47941 11.5987 6.75713 11.5987 6.75713" stroke="black" stroke-miterlimit="10" stroke-linecap="round" stroke-linejoin="round"/>
<path d="M12.5996 4.79928C12.5996 4.79928 10.3581 -1.17953 7.2959 1.8632" stroke="black" stroke-miterlimit="10" stroke-linecap="round" stroke-linejoin="round"/>
<path d="M6.16752 3.35547C6.16752 3.35547 4.96135 6.88853 7.91591 7.55995C10.1785 8.07419 11.4017 6.94092 11.4017 6.94092" stroke="black" stroke-miterlimit="10" stroke-linecap="round" stroke-linejoin="round"/>
<path d="M7.35836 3.49609C6.39854 5.14767 7.2958 8.46439 11.4738 6.39725" stroke="black" stroke-miterlimit="10" stroke-linecap="round" stroke-linejoin="round"/>
<path d="M8.23145 2.16178C8.23145 2.16178 9.43473 0.997991 11.8966 4.61566" stroke="black" stroke-miterlimit="10" stroke-linecap="round" stroke-linejoin="round"/>
<path d="M12.0874 7.16016C12.0874 7.16016 8.6625 12.2904 1.16895 11.5189C1.16895 11.5189 2.79441 11.3697 4.3468 10.3156L1.16895 8.64947C1.16895 8.64947 4.00635 9.08776 5.62673 8.89939" stroke="black" stroke-miterlimit="10" stroke-linecap="round" stroke-linejoin="round"/>
<path d="M6.29785 8.76628C6.29785 8.76628 7.96638 8.89192 10.3219 7.50586" stroke="black" stroke-miterlimit="10" stroke-linecap="round" stroke-linejoin="round"/>
<path d="M13.0166 4.73145C13.0166 4.73145 15.0356 4.85996 14.5593 6.3976C14.2843 7.28536 14.2199 7.16888 13.0166 7.16888" stroke="black" stroke-miterlimit="10" stroke-linecap="round" stroke-linejoin="round"/>
<path d="M13.8242 4.92376C13.8242 4.92376 19.2979 -0.868886 22.869 3.13756C25.3783 5.95292 21.0589 5.7086 20.8532 7.47767C20.6475 9.24658 19.3474 11.8068 14.2176 7.0711" stroke="black" stroke-miterlimit="10" stroke-linecap="round" stroke-linejoin="round"/>
<path d="M14.3896 5.30325C14.3896 5.30325 20.2983 1.58368 22.1804 4.4221C23.1472 5.92007 20.3127 5.31275 20.1942 7.63302C20.1867 7.77867 20.1694 7.92363 20.1268 8.06317C19.9729 8.56774 19.4744 9.53875 17.969 9.05011C16.2104 8.47941 14.4347 6.75713 14.4347 6.75713" stroke="black" stroke-miterlimit="10" stroke-linecap="round" stroke-linejoin="round"/>
<path d="M13.4336 4.79928C13.4336 4.79928 15.6752 -1.17953 18.7373 1.8632" stroke="black" stroke-miterlimit="10" stroke-linecap="round" stroke-linejoin="round"/>
<path d="M19.866 3.35547C19.866 3.35547 21.0722 6.88853 18.1176 7.55995C15.855 8.07419 14.6318 6.94092 14.6318 6.94092" stroke="black" stroke-miterlimit="10" stroke-linecap="round" stroke-linejoin="round"/>
<path d="M18.675 3.49609C19.6349 5.14767 18.7378 8.46439 14.5596 6.39725" stroke="black" stroke-miterlimit="10" stroke-linecap="round" stroke-linejoin="round"/>
<path d="M17.8019 2.16178C17.8019 2.16178 16.5986 0.997991 14.1367 4.61566" stroke="black" stroke-miterlimit="10" stroke-linecap="round" stroke-linejoin="round"/>
<path d="M13.9463 7.16016C13.9463 7.16016 17.3712 12.2904 24.8647 11.5189C24.8647 11.5189 23.2393 11.3697 21.6869 10.3156L24.8647 8.64947C24.8647 8.64947 22.0273 9.08776 20.407 8.89939" stroke="black" stroke-miterlimit="10" stroke-linecap="round" stroke-linejoin="round"/>
<path d="M19.735 8.76628C19.735 8.76628 18.0665 8.89192 15.7109 7.50586" stroke="black" stroke-miterlimit="10" stroke-linecap="round" stroke-linejoin="round"/>
<path d="M12.0033 6.79306C11.8958 6.59045 11.808 6.37275 11.7875 6.14437C11.7669 5.91582 11.8195 5.67421 11.9667 5.49805" stroke="black" stroke-width="0.5" stroke-miterlimit="10" stroke-linecap="round" stroke-linejoin="round"/>
<path d="M12.0875 6.28148C12.0421 6.07717 12.0614 5.85896 12.1421 5.66602" stroke="black" stroke-width="0.5" stroke-miterlimit="10" stroke-linecap="round" stroke-linejoin="round"/>
<path d="M12.3691 6.0086C12.3907 5.9184 12.42 5.83006 12.457 5.74512" stroke="black" stroke-width="0.5" stroke-miterlimit="10" stroke-linecap="round" stroke-linejoin="round"/>
<path d="M13.9971 6.75852C14.1481 6.64831 14.2356 6.46639 14.2636 6.28141C14.2916 6.09643 14.2658 5.90755 14.2265 5.72461" stroke="black" stroke-width="0.5" stroke-miterlimit="10" stroke-linecap="round" stroke-linejoin="round"/>
<path d="M13.9958 6.27266C14.0107 5.97171 13.9283 5.66652 13.7637 5.41406" stroke="black" stroke-width="0.5" stroke-miterlimit="10" stroke-linecap="round" stroke-linejoin="round"/>
<path d="M13.6084 5.94033C13.5921 5.90456 13.5758 5.86878 13.5596 5.83301" stroke="black" stroke-width="0.5" stroke-miterlimit="10" stroke-linecap="round" stroke-linejoin="round"/>
<path d="M13.169 5.95017C13.1505 5.88015 13.1407 5.80792 13.1396 5.73535" stroke="black" stroke-width="0.5" stroke-miterlimit="10" stroke-linecap="round" stroke-linejoin="round"/>
<path d="M12.9736 6.58484C12.9541 6.49481 12.941 6.40342 12.9346 6.31152" stroke="black" stroke-width="0.5" stroke-miterlimit="10" stroke-linecap="round" stroke-linejoin="round"/>
<path d="M9.27441 3.77441C9.98432 4.05943 10.6683 4.40904 11.3151 4.81731" stroke="black" stroke-width="0.5" stroke-miterlimit="10" stroke-linecap="round" stroke-linejoin="round"/>
<path d="M10.4756 3.98828C10.5916 4.06983 10.7123 4.14478 10.8367 4.21276" stroke="black" stroke-width="0.5" stroke-miterlimit="10" stroke-linecap="round" stroke-linejoin="round"/>
<path d="M10.7197 2.39648C10.9864 2.67488 11.2372 2.96871 11.4702 3.27594" stroke="black" stroke-width="0.5" stroke-miterlimit="10" stroke-linecap="round" stroke-linejoin="round"/>
<path d="M8.4248 3.38379C8.48008 3.41312 8.53535 3.44262 8.59045 3.47196" stroke="black" stroke-width="0.5" stroke-miterlimit="10" stroke-linecap="round" stroke-linejoin="round"/>
<path d="M6.42361 5.57951C6.24422 4.91556 6.27186 4.19701 6.50177 3.54883" stroke="black" stroke-width="0.5" stroke-miterlimit="10" stroke-linecap="round" stroke-linejoin="round"/>
<path d="M6.59082 4.3889C6.60048 4.21308 6.6327 4.03861 6.68662 3.87109" stroke="black" stroke-width="0.5" stroke-miterlimit="10" stroke-linecap="round" stroke-linejoin="round"/>
<path d="M3.05566 4.09504C3.41782 3.39785 4.02006 2.82834 4.7364 2.50586" stroke="black" stroke-width="0.5" stroke-miterlimit="10" stroke-linecap="round" stroke-linejoin="round"/>
<path d="M3.71094 3.6862C3.82776 3.57633 3.95543 3.47816 4.09174 3.39355" stroke="black" stroke-width="0.5" stroke-miterlimit="10" stroke-linecap="round" stroke-linejoin="round"/>
<path d="M8.31836 1.63662C8.41212 1.57779 8.51012 1.52557 8.61117 1.48047" stroke="black" stroke-width="0.5" stroke-miterlimit="10" stroke-linecap="round" stroke-linejoin="round"/>
<path d="M8.92383 1.64645C8.95638 1.64001 8.98894 1.6334 9.02149 1.62695" stroke="black" stroke-width="0.5" stroke-miterlimit="10" stroke-linecap="round" stroke-linejoin="round"/>
<path d="M6.65918 6.08691C6.67885 6.15846 6.72005 6.22391 6.77617 6.27257" stroke="black" stroke-width="0.5" stroke-miterlimit="10" stroke-linecap="round" stroke-linejoin="round"/>
<path d="M7.33203 6.85938C7.36458 6.88209 7.39714 6.90482 7.42969 6.92754" stroke="black" stroke-width="0.5" stroke-miterlimit="10" stroke-linecap="round" stroke-linejoin="round"/>
<path d="M3.89648 9.24695C4.36207 9.28713 4.8329 9.26357 5.29204 9.17676" stroke="black" stroke-width="0.5" stroke-miterlimit="10" stroke-linecap="round" stroke-linejoin="round"/>
<path d="M4.95117 9.59072C5.00322 9.5875 5.05528 9.58428 5.10733 9.58105" stroke="black" stroke-width="0.5" stroke-miterlimit="10" stroke-linecap="round" stroke-linejoin="round"/>
<path d="M5.37012 9.98155C5.44658 9.9824 5.52305 9.96917 5.5946 9.94238" stroke="black" stroke-width="0.5" stroke-miterlimit="10" stroke-linecap="round" stroke-linejoin="round"/>
<path d="M5.65039 10.8502C6.36792 10.7105 7.10309 10.564 7.72567 10.1807" stroke="black" stroke-width="0.5" stroke-miterlimit="10" stroke-linecap="round" stroke-linejoin="round"/>
<path d="M6.70801 10.3036C6.77311 10.2743 6.83822 10.2452 6.90316 10.2158" stroke="black" stroke-width="0.5" stroke-miterlimit="10" stroke-linecap="round" stroke-linejoin="round"/>
<path d="M18.0166 10.0664C18.6816 10.4477 19.4023 10.7321 20.1485 10.9074" stroke="black" stroke-width="0.5" stroke-miterlimit="10" stroke-linecap="round" stroke-linejoin="round"/>
<path d="M19.8164 10.333C19.9968 10.3991 20.1831 10.4483 20.3727 10.4797" stroke="black" stroke-width="0.5" stroke-miterlimit="10" stroke-linecap="round" stroke-linejoin="round"/>
<path d="M21.0166 9.28022C21.3045 9.32702 21.6015 9.3165 21.8854 9.24902" stroke="black" stroke-width="0.5" stroke-miterlimit="10" stroke-linecap="round" stroke-linejoin="round"/>
<path d="M21.4951 9.70808C21.5667 9.70486 21.6382 9.70163 21.7098 9.69824" stroke="black" stroke-width="0.5" stroke-miterlimit="10" stroke-linecap="round" stroke-linejoin="round"/>
<path d="M20.8408 10.04C20.8798 10.0433 20.9188 10.0465 20.958 10.0499" stroke="black" stroke-width="0.5" stroke-miterlimit="10" stroke-linecap="round" stroke-linejoin="round"/>
<path d="M19.0977 6.05002C19.3793 5.49118 19.4473 4.82807 19.2852 4.22363" stroke="black" stroke-width="0.5" stroke-miterlimit="10" stroke-linecap="round" stroke-linejoin="round"/>
<path d="M19.543 5.54086C19.5957 5.39929 19.6316 5.25144 19.6498 5.10156" stroke="black" stroke-width="0.5" stroke-miterlimit="10" stroke-linecap="round" stroke-linejoin="round"/>
<path d="M19.6211 5.96967C19.6472 5.90778 19.6731 5.84607 19.6991 5.78418" stroke="black" stroke-width="0.5" stroke-miterlimit="10" stroke-linecap="round" stroke-linejoin="round"/>
<path d="M19.6406 4.11514C19.6275 4.06309 19.6144 4.01104 19.6016 3.95898" stroke="black" stroke-width="0.5" stroke-miterlimit="10" stroke-linecap="round" stroke-linejoin="round"/>
<path d="M17.1201 2.86193C17.9697 2.43314 18.8987 2.16203 19.8456 2.06641" stroke="black" stroke-width="0.5" stroke-miterlimit="10" stroke-linecap="round" stroke-linejoin="round"/>
<path d="M18.4209 2.68018C18.5972 2.62491 18.7827 2.59846 18.9675 2.60185" stroke="black" stroke-width="0.5" stroke-miterlimit="10" stroke-linecap="round" stroke-linejoin="round"/>
<path d="M18.7432 2.96533C18.8537 2.95176 18.9643 2.9382 19.0748 2.9248" stroke="black" stroke-width="0.5" stroke-miterlimit="10" stroke-linecap="round" stroke-linejoin="round"/>
<path d="M17.4346 3.40336C17.5093 3.37725 17.5843 3.35131 17.6591 3.3252" stroke="black" stroke-width="0.5" stroke-miterlimit="10" stroke-linecap="round" stroke-linejoin="round"/>
<path d="M14.5771 3.16065C14.89 2.60368 15.3286 2.11792 15.8506 1.75" stroke="black" stroke-width="0.5" stroke-miterlimit="10" stroke-linecap="round" stroke-linejoin="round"/>
<path d="M15.6094 2.3975C15.6387 2.37139 15.6679 2.34545 15.6972 2.31934" stroke="black" stroke-width="0.5" stroke-miterlimit="10" stroke-linecap="round" stroke-linejoin="round"/>
<path d="M14.2236 3.90033C14.2464 3.85472 14.2692 3.80928 14.292 3.76367" stroke="black" stroke-width="0.5" stroke-miterlimit="10" stroke-linecap="round" stroke-linejoin="round"/>
<path d="M22.2646 3.91309C22.4105 4.03635 22.5598 4.16385 22.6504 4.33204C22.7413 4.50074 22.7655 4.69623 22.7852 4.88664" stroke="black" stroke-width="0.5" stroke-miterlimit="10" stroke-linecap="round" stroke-linejoin="round"/>
<path d="M23 4.27148C23.0226 4.3822 23.0451 4.49292 23.0675 4.60346" stroke="black" stroke-width="0.5" stroke-miterlimit="10" stroke-linecap="round" stroke-linejoin="round"/>
<path d="M23.3203 4.41797C23.3235 4.47985 23.3268 4.54157 23.3301 4.60345" stroke="black" stroke-width="0.5" stroke-miterlimit="10" stroke-linecap="round" stroke-linejoin="round"/>
<path d="M14.5752 4.75957C14.6522 4.67954 14.7373 4.60749 14.829 4.54492" stroke="black" stroke-width="0.5" stroke-miterlimit="10" stroke-linecap="round" stroke-linejoin="round"/>
<path d="M15.043 6.92773C15.2013 7.01302 15.3687 7.08135 15.5414 7.13102" stroke="black" stroke-width="0.5" stroke-miterlimit="10" stroke-linecap="round" stroke-linejoin="round"/>
<path d="M20.7559 6.8698C20.9415 6.55037 21.227 6.28977 21.5619 6.13379" stroke="black" stroke-width="0.5" stroke-miterlimit="10" stroke-linecap="round" stroke-linejoin="round"/>
<path d="M21.875 5.92C21.9301 5.89355 21.9852 5.8671 22.0403 5.84082" stroke="black" stroke-width="0.5" stroke-miterlimit="10" stroke-linecap="round" stroke-linejoin="round"/>
<path d="M25.0595 37.9425L24.8459 38.9164L24.833 38.9219C24.5554 39.0336 23.0663 39.6094 20.8138 40.118C18.8759 40.5561 16.3696 40.9454 13.5844 40.9454C10.7495 40.9454 8.2053 40.5421 6.25311 40.0951C4.05813 39.5909 2.61035 39.0312 2.33704 38.9217L2.32398 38.9163L2.11035 37.9424L2.15799 37.9631C2.59831 38.1463 3.98319 38.6908 5.982 39.1928C8.00354 39.7003 10.6519 40.1645 13.5844 40.1645C16.4671 40.1645 19.0753 39.7165 21.0827 39.2187C23.1378 38.7101 24.5641 38.1484 25.0118 37.9629L25.0595 37.9425Z" fill="#E8B21A"/>
<path d="M26.3408 21.6825C26.3408 25.3026 24.7563 28.7817 21.994 31.2283C21.1124 31.5645 20.1644 31.8541 19.1668 32.0949L18.7872 32.1871L19.1505 32.044C20.5919 31.4757 21.5515 30.6678 21.5603 30.6602C24.186 28.3382 25.6912 25.0337 25.6912 21.5947C25.6912 16.4694 22.4779 12.0793 17.9598 10.3355C16.6139 9.81497 15.1531 9.52962 13.6261 9.52962H13.5447C11.9647 9.52962 10.455 9.8343 9.07118 10.3896C4.62577 12.1692 1.4786 16.5213 1.4786 21.5947C1.4786 24.5174 2.56422 27.3545 4.53472 29.5832C4.87416 29.966 5.2353 30.3282 5.6117 30.6612C5.62035 30.6688 6.56931 31.4713 8.02031 32.0439L8.38366 32.187L8.00403 32.0947C7.00624 31.854 6.05846 31.5644 5.18545 31.2326C2.41451 28.7816 0.830078 25.3026 0.830078 21.6824C0.830078 15.9789 4.60627 11.14 9.79023 9.53487C10.9767 9.16729 12.238 8.96875 13.5447 8.96875H13.6261C14.8842 8.96875 16.0998 9.15203 17.2484 9.49588C22.5005 11.0576 26.3408 15.9304 26.3408 21.6825Z" fill="#D5F7EE"/>
<path d="M15.8613 29.5205C16.0833 29.5205 16.2637 29.3401 16.2637 29.1182C16.2637 28.8962 16.0833 28.7158 15.8613 28.7158C15.6394 28.7158 15.459 28.8962 15.459 29.1182C15.459 29.3401 15.6396 29.5205 15.8613 29.5205Z" fill="#E2E2E2"/>
<path d="M22.3796 29.7384C21.7224 29.308 21.0619 28.9229 20.3983 28.5845C17.9603 27.3363 15.4888 26.7061 13.029 26.7061C11.874 26.7061 10.7299 26.8471 9.62919 27.1257C8.39284 27.4392 7.35163 27.8815 6.54051 28.3078C5.47337 28.8663 4.80535 29.3934 4.61545 29.5506L4.59375 29.5679L4.61223 29.5886C4.93878 29.9551 5.28687 30.3022 5.6458 30.6199C5.65987 30.6318 7.04916 31.8129 9.05984 32.3237C9.08256 32.3291 9.10647 32.3356 9.12919 32.341C10.6551 32.6403 12.1821 32.7976 13.5442 32.7976H13.6256C14.9725 32.7976 16.4812 32.6437 17.9919 32.3508C18.0091 32.3476 18.0254 32.3444 18.0427 32.341C20.087 31.84 21.5098 30.6308 21.5241 30.6189C21.8191 30.3586 22.1087 30.0755 22.384 29.7795L22.4057 29.7556L22.3796 29.7384ZM15.8606 29.5746C15.609 29.5746 15.404 29.3697 15.404 29.1181C15.404 28.8664 15.609 28.6615 15.8606 28.6615C16.1122 28.6615 16.3172 28.8664 16.3172 29.1181C16.3172 29.3697 16.1122 29.5746 15.8606 29.5746Z" fill="white"/>
<path d="M22.1806 31.5917L22.1525 31.6048C21.9194 31.7067 20.4714 32.3172 18.1908 32.7738C16.9089 33.0309 15.3656 33.2381 13.6272 33.2815H13.5458C11.7651 33.237 10.1883 33.02 8.88901 32.7555C6.66148 32.3011 5.24829 31.7057 5.01838 31.6048L4.99023 31.5917L5.17775 31.2881L5.19827 31.2957C6.39342 31.7469 7.74693 32.1265 9.11553 32.3942L9.1708 32.4073H9.17521L9.18827 32.4083C10.6947 32.6989 12.201 32.8518 13.5447 32.8518H13.626C14.9665 32.8518 16.4675 32.6999 17.9684 32.4115H17.9695C17.975 32.4105 17.9782 32.4093 17.9836 32.4083L17.989 32.4073L17.9967 32.4083L18.0542 32.3942C19.4239 32.1263 20.7785 31.7467 21.9724 31.2957L21.9931 31.2881L22.1806 31.5917Z" fill="#995116"/>
<path d="M22.2093 31.6387L22.1876 31.6485C21.9545 31.7516 20.5067 32.3654 18.2205 32.8242C16.9331 33.0834 15.3802 33.2926 13.6265 33.336H13.5441C11.7483 33.2916 10.1616 33.0726 8.85697 32.8057C6.62401 32.3481 5.21183 31.7494 4.98209 31.6485L4.96039 31.6387L2.56348 35.5212L2.59383 35.533C2.751 35.5959 3.1903 35.7652 3.86917 35.9886C4.72048 36.2684 5.58264 36.5113 6.45463 36.7151C8.7766 37.2596 11.1647 37.5339 13.5842 37.5339C15.969 37.5339 18.3224 37.2672 20.6118 36.7389C21.5185 36.5297 22.4153 36.2791 23.3003 35.9885C23.9802 35.765 24.4185 35.5958 24.5757 35.5329L24.606 35.521L22.2093 31.6387ZM9.65605 36.187C9.7254 35.699 9.80678 35.2077 9.89901 34.7207C9.80797 35.2067 9.72658 35.698 9.65605 36.187ZM14.4604 34.0788L14.4614 34.0527V34.0788H14.4624C14.4884 34.2892 14.5167 34.4996 14.546 34.7111C14.5157 34.4996 14.4875 34.2892 14.4604 34.0788ZM16.2162 35.5429L16.2174 35.5168V35.5429H16.2184L16.3161 36.3237L16.2162 35.5429ZM18.4428 34.8596L18.4439 34.8335V34.8596L18.5416 35.3476L18.4428 34.8596Z" fill="#E8B21A"/>
<path d="M20.3447 22.6379C20.4966 22.6379 20.6202 22.5143 20.6202 22.3624C20.6202 22.2105 20.4966 22.0869 20.3447 22.0869C20.1928 22.0869 20.0693 22.2105 20.0693 22.3624C20.0693 22.5143 20.1928 22.6379 20.3447 22.6379Z" fill="white"/>
<path d="M24.6258 35.5723L24.5942 35.5841C24.4371 35.647 23.9956 35.8173 23.3177 36.0407C22.4338 36.3313 21.5391 36.5807 20.6336 36.7901C18.3367 37.3205 15.9755 37.5884 13.5842 37.5884C11.1615 37.5884 8.76903 37.3129 6.44384 36.7684C5.56965 36.5634 4.70528 36.3205 3.85177 36.0407C3.1751 35.8185 2.73377 35.647 2.57541 35.5841L2.54506 35.5723L2.10254 37.8812L2.12322 37.8898C2.39976 38.007 3.83024 38.5926 5.9786 39.1326C7.99894 39.6423 10.6549 40.1109 13.5842 40.1109C16.4701 40.1109 19.0903 39.6565 21.0988 39.1565C23.2992 38.6099 24.7655 38.008 25.0464 37.8898L25.0669 37.8812L24.6258 35.5723ZM9.87653 38.7444C9.85805 38.8485 9.84398 38.9526 9.83312 39.0567C9.84279 38.9526 9.85703 38.8485 9.87534 38.7444L9.87653 38.7194V38.7444ZM16.16 38.7444C16.159 38.7552 16.1578 38.7661 16.1578 38.7769C16.1578 38.7661 16.1578 38.7552 16.159 38.7444L16.16 38.7184V38.7444ZM17.4289 38.5882C17.4277 38.6099 17.4277 38.6304 17.4277 38.6521C17.4277 38.6304 17.4255 38.6099 17.4267 38.5882L17.4289 38.5611V38.5882Z" fill="#995116"/>
<path d="M5.21106 25.876C5.21106 26.0495 5.07016 26.1905 4.89655 26.1905C4.72293 26.1905 4.58203 26.0495 4.58203 25.876C4.58203 25.7026 4.72293 25.5615 4.89655 25.5615C5.07016 25.5615 5.21106 25.7026 5.21106 25.876Z" fill="#ED5ABC"/>
<path d="M4.69179 17.9538C4.69179 18.1739 4.51292 18.3529 4.29267 18.3529C4.07243 18.3529 3.89355 18.1741 3.89355 17.9538C3.89355 17.7336 4.07243 17.5547 4.29267 17.5547C4.51275 17.5547 4.69179 17.7337 4.69179 17.9538Z" fill="#ED5ABC"/>
<path d="M24.2314 19.581C24.2314 19.8131 24.0427 20.0029 23.8095 20.0029C23.5774 20.0029 23.3877 19.8131 23.3877 19.581C23.3877 19.3479 23.5774 19.1592 23.8095 19.1592C24.0428 19.1592 24.2314 19.3479 24.2314 19.581Z" fill="#ED5ABC"/>
<path d="M19.6468 18.2956C19.8355 18.2956 19.989 18.1422 19.989 17.9535C19.989 17.7648 19.8355 17.6113 19.6468 17.6113C19.4581 17.6113 19.3047 17.7648 19.3047 17.9535C19.3047 18.1422 19.4581 18.2956 19.6468 18.2956Z" fill="white"/>
<path d="M13.1246 15.9466C13.3118 15.9466 13.464 15.7944 13.464 15.607C13.464 15.4198 13.3118 15.2676 13.1246 15.2676C12.9374 15.2676 12.7852 15.4198 12.7852 15.607C12.7852 15.7944 12.9374 15.9466 13.1246 15.9466Z" fill="white"/>
<path d="M6.22858 21.872C6.45578 21.872 6.64075 21.687 6.64075 21.4599C6.64075 21.2327 6.45578 21.0479 6.22858 21.0479C6.00138 21.0479 5.81641 21.2327 5.81641 21.4599C5.81641 21.687 6.00121 21.872 6.22858 21.872Z" fill="white"/>
<path d="M18.0254 10.418H18.0243C16.6611 9.88002 15.1775 9.58398 13.6255 9.58398H13.5441C11.938 9.58398 10.4046 9.9007 9.00323 10.4765H9.00222C4.62412 12.2703 1.53223 16.5779 1.53223 21.5948C1.53223 24.4862 2.60039 27.2961 4.53952 29.5085L4.55681 29.528L4.5775 29.5107C4.76943 29.3524 5.44186 28.82 6.51764 28.2581C7.32995 27.8319 8.37319 27.3883 9.61073 27.075C10.7181 26.7941 11.8686 26.651 13.0302 26.651C15.4975 26.651 17.9756 27.2832 20.4222 28.5358C21.0924 28.8785 21.7604 29.2679 22.4252 29.7039L22.4447 29.7157L22.4598 29.6994C24.5085 27.4578 25.6363 24.5796 25.6363 21.595C25.6363 16.5236 22.4783 12.1771 18.0254 10.418ZM3.83894 17.9541C3.83894 17.7035 4.04274 17.5007 4.29231 17.5007C4.54274 17.5007 4.74569 17.7035 4.74569 17.9541C4.74569 18.2035 4.54291 18.4075 4.29231 18.4075C4.04274 18.4075 3.83894 18.2035 3.83894 17.9541ZM4.82589 26.936C4.77706 26.936 4.72823 26.9295 4.6816 26.9187C4.72823 26.9295 4.77706 26.9349 4.82589 26.9349H4.85725C4.84759 26.9349 4.83674 26.936 4.82589 26.936ZM4.89642 26.2452C4.69364 26.2452 4.52765 26.0792 4.52765 25.8765C4.52765 25.6725 4.69364 25.5077 4.89642 25.5077C5.0992 25.5077 5.26519 25.6725 5.26519 25.8765C5.26502 26.0792 5.09903 26.2452 4.89642 26.2452ZM6.22806 21.9256C5.97102 21.9256 5.7618 21.7164 5.7618 21.4594C5.7618 21.2023 5.97102 20.9931 6.22806 20.9931C6.48509 20.9931 6.69449 21.2023 6.69449 21.4594C6.69449 21.7162 6.48509 21.9256 6.22806 21.9256ZM9.0619 14.064C8.79944 14.064 8.5858 13.8503 8.5858 13.5879C8.5858 13.3244 8.79944 13.1118 9.0619 13.1118C9.32436 13.1118 9.53799 13.3244 9.53799 13.5879C9.53799 13.8503 9.32436 14.064 9.0619 14.064ZM13.1245 16.0009C12.9076 16.0009 12.7308 15.8241 12.7308 15.6072C12.7308 15.3904 12.9076 15.2135 13.1245 15.2135C13.3413 15.2135 13.5182 15.3904 13.5182 15.6072C13.5182 15.8241 13.3413 16.0009 13.1245 16.0009ZM17.9332 13.615C17.725 13.615 17.5548 13.4448 17.5548 13.2366C17.5548 13.0272 17.7252 12.8581 17.9332 12.8581C18.1426 12.8581 18.3116 13.0274 18.3116 13.2366C18.3116 13.4448 18.1424 13.615 17.9332 13.615ZM19.6467 18.35C19.4276 18.35 19.2508 18.1721 19.2508 17.9541C19.2508 17.7351 19.4274 17.5572 19.6467 17.5572C19.8659 17.5572 20.0436 17.7351 20.0436 17.9541C20.0436 18.1721 19.8657 18.35 19.6467 18.35ZM20.344 22.6923C20.1618 22.6923 20.0143 22.5438 20.0143 22.3627C20.0143 22.1805 20.1618 22.033 20.344 22.033C20.5261 22.033 20.6738 22.1805 20.6738 22.3627C20.6736 22.5438 20.5261 22.6923 20.344 22.6923ZM21.5304 27.6454C21.256 27.6454 21.0336 27.4253 21.0293 27.153C21.0293 27.152 21.0293 27.152 21.0293 27.152V27.1455C21.0293 27.0165 21.0792 26.9004 21.1584 26.8115C21.1584 26.8105 21.1584 26.8093 21.1596 26.8093C21.2506 26.7084 21.383 26.6445 21.5304 26.6445C21.8059 26.6445 22.0314 26.869 22.0314 27.1455C22.0315 27.4207 21.8059 27.6454 21.5304 27.6454ZM23.8091 20.057C23.5466 20.057 23.333 19.8434 23.333 19.5809C23.333 19.3185 23.5466 19.1048 23.8091 19.1048C24.0716 19.1048 24.2852 19.3185 24.2852 19.5809C24.285 19.8434 24.0714 20.057 23.8091 20.057Z" fill="#E6FFF9"/>
<path d="M21.9775 27.145C21.9775 27.3912 21.7769 27.5907 21.5307 27.5907C21.2846 27.5907 21.084 27.3912 21.084 27.145C21.084 26.8978 21.2846 26.6982 21.5307 26.6982C21.7769 26.6981 21.9775 26.8976 21.9775 27.145Z" fill="#ED5ABC"/>
<path d="M9.06246 13.166C8.82984 13.166 8.64062 13.3552 8.64062 13.5879C8.64062 13.8205 8.82984 14.0099 9.06246 14.0099C9.29508 14.0099 9.48447 13.8206 9.48447 13.5879C9.48447 13.3552 9.29525 13.166 9.06246 13.166Z" fill="white"/>
<path d="M17.9337 13.5606C18.1124 13.5606 18.2581 13.4152 18.2581 13.2365C18.2581 13.0578 18.1126 12.9121 17.9337 12.9121C17.7548 12.9121 17.6094 13.0576 17.6094 13.2365C17.6094 13.4152 17.755 13.5606 17.9337 13.5606Z" fill="white"/>
<path d="M4.69179 17.9538C4.69179 18.1739 4.51292 18.3529 4.29267 18.3529C4.07243 18.3529 3.89355 18.1741 3.89355 17.9538C3.89355 17.7336 4.07243 17.5547 4.29267 17.5547C4.51275 17.5547 4.69179 17.7337 4.69179 17.9538Z" fill="white"/>
<path d="M4.89739 25.562C4.72395 25.562 4.58288 25.7031 4.58288 25.8765C4.58288 26.05 4.72378 26.191 4.89739 26.191C5.07101 26.191 5.21191 26.05 5.21191 25.8765C5.21174 25.7031 5.07084 25.562 4.89739 25.562ZM4.89739 25.562C4.72395 25.562 4.58288 25.7031 4.58288 25.8765C4.58288 26.05 4.72378 26.191 4.89739 26.191C5.07101 26.191 5.21191 26.05 5.21191 25.8765C5.21174 25.7031 5.07084 25.562 4.89739 25.562ZM9.00319 10.4766C4.6251 12.2704 1.5332 16.578 1.5332 21.5949C1.5332 24.4862 2.60136 27.2962 4.54049 29.5086L4.55779 29.5281L4.57847 29.5108C4.7704 29.3525 5.44283 28.8201 6.51862 28.2582C2.68698 20.0971 6.85586 13.2312 9.00319 10.4766ZM3.83992 17.9542C3.83992 17.7036 4.04372 17.5008 4.29329 17.5008C4.54371 17.5008 4.74667 17.7036 4.74667 17.9542C4.74667 18.2036 4.54388 18.4076 4.29329 18.4076C4.04372 18.4076 3.83992 18.2036 3.83992 17.9542ZM5.26599 25.8765C5.26599 26.0793 5.10001 26.2453 4.89723 26.2453C4.69444 26.2453 4.52846 26.0793 4.52846 25.8765C4.52846 25.6726 4.69444 25.5078 4.89723 25.5078C5.10001 25.5078 5.26599 25.6726 5.26599 25.8765ZM4.58288 25.8765C4.58288 26.05 4.72378 26.191 4.89739 26.191C5.07101 26.191 5.21191 26.05 5.21191 25.8765C5.21191 25.7031 5.07101 25.562 4.89739 25.562C4.72378 25.562 4.58288 25.7031 4.58288 25.8765ZM4.89739 25.562C4.72395 25.562 4.58288 25.7031 4.58288 25.8765C4.58288 26.05 4.72378 26.191 4.89739 26.191C5.07101 26.191 5.21191 26.05 5.21191 25.8765C5.21174 25.7031 5.07084 25.562 4.89739 25.562Z" fill="#D5F7EE"/>
<path d="M5.98298 39.1928L6.25409 40.0951C4.05911 39.5909 2.61133 39.0312 2.33801 38.9217L2.32496 38.9163L2.11133 37.9424L2.15897 37.9631C2.59946 38.1464 3.98434 38.6908 5.98298 39.1928Z" fill="#CC9611"/>
<path d="M3.85275 36.0407C4.70626 36.3205 5.57062 36.5634 6.44482 36.7684L5.97958 39.1326C3.83122 38.5926 2.40073 38.007 2.1242 37.8898L2.10352 37.8812L2.54604 35.5723L2.57639 35.5841C2.73458 35.647 3.17591 35.8185 3.85275 36.0407Z" fill="#77380A"/>
<path d="M4.61321 29.5884L4.59473 29.5677L4.61643 29.5504C4.80616 29.3932 5.47435 28.8661 6.54149 28.3076C7.16187 29.6165 7.98706 30.9592 9.06082 32.3236C7.05014 31.8127 5.66085 30.6318 5.64678 30.6198C5.28767 30.302 4.93959 29.955 4.61321 29.5884Z" fill="#E2E2E2"/>
<path d="M4.98307 31.6483C5.21298 31.7492 6.62498 32.3479 8.85794 32.8055L6.47849 36.598L6.4556 36.7151C5.58361 36.5112 4.72146 36.2684 3.87015 35.9886C3.19128 35.7652 2.75197 35.5959 2.5948 35.533L2.56445 35.5212L4.9612 31.6387L4.98307 31.6483Z" fill="#CC9611"/>
<path d="M5.19844 31.2959C6.39359 31.7471 7.7471 32.1267 9.1157 32.3944L8.88901 32.7555C6.66148 32.3011 5.24829 31.7057 5.01838 31.6048L4.99023 31.5918L5.17775 31.2881L5.19844 31.2959Z" fill="#77380A"/>
<path d="M0.830078 21.6827C0.830078 15.9792 4.60627 11.1403 9.79023 9.53516C9.60814 9.73794 9.35975 10.0243 9.07118 10.3897C4.62577 12.1693 1.4786 16.5214 1.4786 21.5948C1.4786 24.5175 2.56422 27.3546 4.53472 29.5833C4.87416 29.9662 5.2353 30.3283 5.6117 30.6613C5.62035 30.6689 6.56931 31.4714 8.02031 32.044L8.38366 32.1871L8.00403 32.0948C7.00624 31.8541 6.05846 31.5645 5.18545 31.2327C2.41451 28.7819 0.830078 25.3027 0.830078 21.6827Z" fill="#B9EDDE"/>
<path d="M21.084 27.145C21.084 26.8978 21.2846 26.6982 21.5307 26.6982C21.7769 26.6982 21.9775 26.8978 21.9775 27.145C21.9775 27.3912 21.7769 27.5907 21.5307 27.5907C21.2847 27.5907 21.084 27.3912 21.084 27.145Z" fill="white"/>
<path d="M24.2314 19.581C24.2314 19.8131 24.0427 20.0029 23.8095 20.0029C23.5774 20.0029 23.3877 19.8131 23.3877 19.581C23.3877 19.3479 23.5774 19.1592 23.8095 19.1592C24.0428 19.1592 24.2314 19.3479 24.2314 19.581Z" fill="white"/>
<path d="M18.0264 10.418C20.0326 12.9721 23.9173 19.2338 21.1606 26.8091C21.2517 26.7082 21.3841 26.6443 21.5315 26.6443C21.807 26.6443 22.0325 26.8688 22.0325 27.1453C22.0325 27.4208 21.8068 27.6453 21.5315 27.6453C21.2571 27.6453 21.0347 27.4253 21.0304 27.153C20.8538 27.6096 20.652 28.0704 20.4231 28.5356C21.0933 28.8783 21.7614 29.2677 22.4262 29.7037L22.4457 29.7155L22.4608 29.6993C24.5094 27.4576 25.6373 24.5794 25.6373 21.5948C25.6373 16.5236 22.4792 12.177 18.0264 10.418ZM23.81 20.057C23.5476 20.057 23.3339 19.8434 23.3339 19.5809C23.3339 19.3184 23.5476 19.1048 23.81 19.1048C24.0725 19.1048 24.2861 19.3184 24.2861 19.5809C24.2859 19.8434 24.0723 20.057 23.81 20.057Z" fill="#F0FFFB"/>
<path d="M22.1527 31.6046C21.9195 31.7065 20.4716 32.3171 18.191 32.7737L17.9697 32.4115C17.9752 32.4105 17.9784 32.4093 17.9838 32.4083L17.9892 32.4073L17.9969 32.4083L18.0543 32.3942C19.4241 32.1263 20.7786 31.7467 21.9726 31.2957L21.9933 31.2881L22.1808 31.5917L22.1527 31.6046Z" fill="#BF7034"/>
<path d="M17.9922 32.3505C19.0008 31.073 19.7913 29.8139 20.3986 28.584C21.0624 28.9224 21.7228 29.3073 22.3799 29.7379L22.4059 29.7552L22.3842 29.7791C22.1087 30.0752 21.8191 30.3581 21.5242 30.6186C21.5102 30.6304 20.0873 31.8397 18.0429 32.3407C18.0259 32.3441 18.0095 32.3473 17.9922 32.3505Z" fill="white"/>
<path d="M23.3006 35.9888C22.4157 36.2794 21.5188 36.53 20.612 36.7392L18.2207 32.8242C20.5069 32.3654 21.9547 31.7516 22.1878 31.6485L22.2095 31.6387L24.6063 35.5212L24.5759 35.533C24.4187 35.5963 23.9806 35.7653 23.3006 35.9888Z" fill="#FCC947"/>
<path d="M25.0125 37.9631L25.0601 37.9424L24.8465 38.9163L24.8336 38.9217C24.5561 39.0334 23.0669 39.6092 20.8145 40.1179L21.0834 39.2188C23.1385 38.7103 24.5645 38.1486 25.0125 37.9631Z" fill="#FCC947"/>
<path d="M24.6268 35.5723L25.0681 37.8812L25.0476 37.8898C24.7667 38.008 23.3004 38.6099 21.1 39.1565L20.6348 36.7901C21.5403 36.5809 22.435 36.3313 23.3189 36.0407C23.9968 35.8173 24.4381 35.647 24.5954 35.5841L24.6268 35.5723Z" fill="#BF7034"/>
<path d="M17.9595 10.3355C17.6711 9.9732 17.4249 9.69023 17.248 9.49609C22.5003 11.0578 26.3405 15.9305 26.3405 21.6826C26.3405 25.3026 24.756 28.7818 21.9937 31.2284C21.1121 31.5646 20.1641 31.8542 19.1665 32.0949L18.7869 32.1872L19.1502 32.0441C20.5916 31.4757 21.5512 30.6678 21.56 30.6602C24.1857 28.3382 25.6909 25.0337 25.6909 21.5948C25.6909 16.4693 22.4776 12.0793 17.9595 10.3355Z" fill="#F0FFFB"/>
<path d="M4.89752 25.5615C4.72407 25.5615 4.58301 25.7026 4.58301 25.876C4.58301 26.0495 4.7239 26.1905 4.89752 26.1905C5.07114 26.1905 5.21204 26.0495 5.21204 25.876C5.21187 25.7026 5.07097 25.5615 4.89752 25.5615Z" fill="white"/>
<path d="M6.72534 21.4456C6.72534 21.7684 6.46373 22.03 6.14091 22.03C5.81825 22.03 5.55664 21.7684 5.55664 21.4456C5.55664 21.1229 5.81825 20.8613 6.14091 20.8613C6.46373 20.8613 6.72534 21.1229 6.72534 21.4456Z" fill="#E6FFF9"/>
<path d="M20.424 22.8334C20.6916 22.8334 20.9086 22.6165 20.9086 22.3488C20.9086 22.0812 20.6916 21.8643 20.424 21.8643C20.1564 21.8643 19.9395 22.0812 19.9395 22.3488C19.9395 22.6165 20.1564 22.8334 20.424 22.8334Z" fill="#E6FFF9"/>
<path d="M17.8506 32.4085C19.947 31.9114 21.3996 30.6671 21.3996 30.6671C23.8936 28.4614 25.5218 25.2137 25.5218 21.6225C25.5218 14.9738 20.132 9.58398 13.4833 9.58398H13.4018C6.75307 9.58398 1.36328 14.9738 1.36328 21.6225C1.36328 25.2137 2.99163 28.4614 5.48553 30.6671C5.48553 30.6671 6.93822 31.9114 9.03453 32.4085" stroke="black" stroke-miterlimit="10" stroke-linecap="round" stroke-linejoin="round"/>
<path d="M21.8614 31.2826C24.5009 28.9482 26.2242 25.5108 26.2242 21.71C26.2242 14.6732 20.5198 8.96875 13.483 8.96875H13.4014C6.36463 8.96875 0.660156 14.6732 0.660156 21.71C0.660156 25.5108 2.38345 28.9482 5.02299 31.2826" stroke="black" stroke-miterlimit="10" stroke-linecap="round" stroke-linejoin="round"/>
<path d="M21.8615 31.2822C19.3903 32.2203 16.2849 32.8517 13.4833 32.8517H13.4017C10.6001 32.8517 7.49444 32.2203 5.02344 31.2822" stroke="black" stroke-miterlimit="10" stroke-linecap="round" stroke-linejoin="round"/>
<path d="M21.8615 31.2822L24.5032 35.561C24.5032 35.561 24.0271 35.7585 23.1667 36.0415C16.8527 38.1178 10.0324 38.1178 3.71839 36.0415C2.85793 35.7585 2.38184 35.561 2.38184 35.561L5.02358 31.2822" stroke="black" stroke-miterlimit="10" stroke-linecap="round" stroke-linejoin="round"/>
<path d="M24.5028 35.5615L24.9544 37.9244C24.9544 37.9244 19.8788 40.1649 13.4421 40.1649C7.0053 40.1649 1.92969 37.9244 1.92969 37.9244L2.38137 35.5615" stroke="black" stroke-miterlimit="10" stroke-linecap="round" stroke-linejoin="round"/>
<path d="M22.0767 31.6318C22.0767 31.6318 18.6976 33.2092 13.4829 33.3363H13.4014C8.18673 33.209 4.80762 31.6318 4.80762 31.6318" stroke="black" stroke-miterlimit="10" stroke-linecap="round" stroke-linejoin="round"/>
<path d="M24.9548 37.9238L24.7271 38.9627C24.7271 38.9627 19.818 40.9996 13.4422 40.9996C7.06651 40.9996 2.15739 38.9627 2.15739 38.9627L1.92969 37.9238" stroke="black" stroke-miterlimit="10" stroke-linecap="round" stroke-linejoin="round"/>
<path d="M4.41211 29.5928C4.41211 29.5928 11.9472 22.9587 22.3058 29.7774" stroke="black" stroke-miterlimit="10" stroke-linecap="round" stroke-linejoin="round"/>
<path d="M5.09539 25.9032C5.09539 26.0919 4.94246 26.2448 4.75375 26.2448C4.56504 26.2448 4.41211 26.0919 4.41211 25.9032C4.41211 25.7145 4.56504 25.5615 4.75375 25.5615C4.94229 25.5614 5.09539 25.7145 5.09539 25.9032Z" stroke="black" stroke-miterlimit="10" stroke-linecap="round" stroke-linejoin="round"/>
<path d="M21.3878 27.6457C21.6494 27.6457 21.8615 27.4336 21.8615 27.172C21.8615 26.9103 21.6494 26.6982 21.3878 26.6982C21.1262 26.6982 20.9141 26.9103 20.9141 27.172C20.9141 27.4336 21.1262 27.6457 21.3878 27.6457Z" stroke="black" stroke-miterlimit="10" stroke-linecap="round" stroke-linejoin="round"/>
<path d="M17.7908 13.6147C17.9848 13.6147 18.1421 13.4574 18.1421 13.2634C18.1421 13.0694 17.9848 12.9121 17.7908 12.9121C17.5967 12.9121 17.4395 13.0694 17.4395 13.2634C17.4395 13.4574 17.5967 13.6147 17.7908 13.6147Z" stroke="black" stroke-miterlimit="10" stroke-linecap="round" stroke-linejoin="round"/>
<path d="M23.6667 20.0571C23.9147 20.0571 24.1157 19.8561 24.1157 19.6081C24.1157 19.3602 23.9147 19.1592 23.6667 19.1592C23.4188 19.1592 23.2178 19.3602 23.2178 19.6081C23.2178 19.8561 23.4188 20.0571 23.6667 20.0571Z" stroke="black" stroke-miterlimit="10" stroke-linecap="round" stroke-linejoin="round"/>
<path d="M4.57613 17.9809C4.57613 18.2163 4.38538 18.4072 4.14988 18.4072C3.91454 18.4072 3.72363 18.2164 3.72363 17.9809C3.72363 17.7456 3.91454 17.5547 4.14988 17.5547C4.38521 17.5547 4.57613 17.7454 4.57613 17.9809Z" stroke="black" stroke-miterlimit="10" stroke-linecap="round" stroke-linejoin="round"/>
<path d="M19.8733 17.9806C19.8733 18.1846 19.708 18.3499 19.504 18.3499C19.3001 18.3499 19.1348 18.1846 19.1348 17.9806C19.1348 17.7766 19.3001 17.6113 19.504 17.6113C19.708 17.6113 19.8733 17.7766 19.8733 17.9806Z" stroke="black" stroke-miterlimit="10" stroke-linecap="round" stroke-linejoin="round"/>
<path d="M16.148 29.1453C16.148 29.3825 15.9557 29.5748 15.7185 29.5748C15.4813 29.5748 15.2891 29.3825 15.2891 29.1453C15.2891 28.9081 15.4813 28.7158 15.7185 28.7158C15.9557 28.7158 16.148 28.9081 16.148 29.1453Z" stroke="black" stroke-miterlimit="10" stroke-linecap="round" stroke-linejoin="round"/>
<path d="M9.36864 13.615C9.36864 13.863 9.16755 14.064 8.91967 14.064C8.67179 14.064 8.4707 13.863 8.4707 13.615C8.4707 13.3671 8.67179 13.166 8.91967 13.166C9.16755 13.166 9.36864 13.3669 9.36864 13.615Z" stroke="black" stroke-miterlimit="10" stroke-linecap="round" stroke-linejoin="round"/>
<path d="M3.32129 35.3121C3.78772 34.4564 4.28517 33.6176 4.8123 32.7979" stroke="black" stroke-width="0.5" stroke-miterlimit="10" stroke-linecap="round" stroke-linejoin="round"/>
<path d="M4.28516 34.7496C4.41537 34.5414 4.54541 34.3332 4.67563 34.125" stroke="black" stroke-width="0.5" stroke-miterlimit="10" stroke-linecap="round" stroke-linejoin="round"/>
<path d="M5.125 34.9256C5.18349 34.7889 5.24216 34.6523 5.30065 34.5156" stroke="black" stroke-width="0.5" stroke-miterlimit="10" stroke-linecap="round" stroke-linejoin="round"/>
<path d="M8.15039 36.1752C8.29332 35.6937 8.43642 35.212 8.57935 34.7305" stroke="black" stroke-width="0.5" stroke-miterlimit="10" stroke-linecap="round" stroke-linejoin="round"/>
<path d="M9.51367 36.2137C9.60709 35.5603 9.72001 34.9095 9.85192 34.2627" stroke="black" stroke-width="0.5" stroke-miterlimit="10" stroke-linecap="round" stroke-linejoin="round"/>
<path d="M11.4492 36.5074C11.4492 36.2992 11.4492 36.091 11.4492 35.8828" stroke="black" stroke-width="0.5" stroke-miterlimit="10" stroke-linecap="round" stroke-linejoin="round"/>
<path d="M14.7239 36.6246C14.5591 35.7901 14.4241 34.9497 14.3193 34.1055" stroke="black" stroke-width="0.5" stroke-miterlimit="10" stroke-linecap="round" stroke-linejoin="round"/>
<path d="M16.1738 36.3511C16.1413 36.0908 16.1087 35.8306 16.0762 35.5703" stroke="black" stroke-width="0.5" stroke-miterlimit="10" stroke-linecap="round" stroke-linejoin="round"/>
<path d="M21.9717 32.458C22.4956 33.3186 22.9897 34.1974 23.4527 35.0923" stroke="black" stroke-width="0.5" stroke-miterlimit="10" stroke-linecap="round" stroke-linejoin="round"/>
<path d="M22.0303 33.7734C22.1539 34.0142 22.2776 34.255 22.4012 34.4957" stroke="black" stroke-width="0.5" stroke-miterlimit="10" stroke-linecap="round" stroke-linejoin="round"/>
<path d="M21.0723 34.458C21.1501 34.6403 21.2277 34.8227 21.3056 35.005" stroke="black" stroke-width="0.5" stroke-miterlimit="10" stroke-linecap="round" stroke-linejoin="round"/>
<path d="M19.1211 34.3594C19.2359 34.8428 19.4002 35.3143 19.6106 35.7644" stroke="black" stroke-width="0.5" stroke-miterlimit="10" stroke-linecap="round" stroke-linejoin="round"/>
<path d="M18.3018 34.8867C18.3343 35.0493 18.3669 35.2121 18.3994 35.3747" stroke="black" stroke-width="0.5" stroke-miterlimit="10" stroke-linecap="round" stroke-linejoin="round"/>
<path d="M13.4218 36.2526C13.4088 36.0965 13.3959 35.9403 13.3828 35.7842" stroke="black" stroke-width="0.5" stroke-miterlimit="10" stroke-linecap="round" stroke-linejoin="round"/>
<path d="M6.97949 35.1404C7.03917 35.0433 7.08529 34.9378 7.11615 34.8281" stroke="black" stroke-width="0.5" stroke-miterlimit="10" stroke-linecap="round" stroke-linejoin="round"/>
<path d="M2.77539 37.5215C2.81507 37.169 2.89679 36.8214 3.01869 36.4883" stroke="black" stroke-width="0.5" stroke-miterlimit="10" stroke-linecap="round" stroke-linejoin="round"/>
<path d="M3.5625 37.6395C3.582 37.4703 3.6015 37.301 3.62099 37.1318" stroke="black" stroke-width="0.5" stroke-miterlimit="10" stroke-linecap="round" stroke-linejoin="round"/>
<path d="M4.54126 38.2247C4.53872 38.0604 4.55568 37.8957 4.59162 37.7354" stroke="black" stroke-width="0.5" stroke-miterlimit="10" stroke-linecap="round" stroke-linejoin="round"/>
<path d="M5.5166 38.4587C5.51643 38.3188 5.54186 38.1787 5.59086 38.0479" stroke="black" stroke-width="0.5" stroke-miterlimit="10" stroke-linecap="round" stroke-linejoin="round"/>
<path d="M8.58008 39.2203C8.58737 38.978 8.61348 38.7363 8.65824 38.498" stroke="black" stroke-width="0.5" stroke-miterlimit="10" stroke-linecap="round" stroke-linejoin="round"/>
<path d="M9.67285 39.4543C9.67268 39.2254 9.6932 38.9966 9.73389 38.7715" stroke="black" stroke-width="0.5" stroke-miterlimit="10" stroke-linecap="round" stroke-linejoin="round"/>
<path d="M10.8447 39.1231C10.8447 39.0905 10.8447 39.0579 10.8447 39.0254" stroke="black" stroke-width="0.5" stroke-miterlimit="10" stroke-linecap="round" stroke-linejoin="round"/>
<path d="M13.3818 39.3374C13.3818 39.0446 13.3818 38.7518 13.3818 38.459" stroke="black" stroke-width="0.5" stroke-miterlimit="10" stroke-linecap="round" stroke-linejoin="round"/>
<path d="M14.4364 39.1814C14.4036 39.0676 14.3902 38.9483 14.3974 38.8301" stroke="black" stroke-width="0.5" stroke-miterlimit="10" stroke-linecap="round" stroke-linejoin="round"/>
<path d="M17.3446 39.2204C17.2974 39.0227 17.2776 38.8184 17.2861 38.6152" stroke="black" stroke-width="0.5" stroke-miterlimit="10" stroke-linecap="round" stroke-linejoin="round"/>
<path d="M18.1455 38.9471C18.139 38.8104 18.1324 38.6738 18.126 38.5371" stroke="black" stroke-width="0.5" stroke-miterlimit="10" stroke-linecap="round" stroke-linejoin="round"/>
<path d="M24.2715 37.4641C24.2044 37.1328 24.1142 36.8061 24.002 36.4873" stroke="black" stroke-width="0.5" stroke-miterlimit="10" stroke-linecap="round" stroke-linejoin="round"/>
<path d="M23.6076 37.6203C23.5759 37.4509 23.5444 37.2815 23.5127 37.1123" stroke="black" stroke-width="0.5" stroke-miterlimit="10" stroke-linecap="round" stroke-linejoin="round"/>
<path d="M21.7568 38.3807C21.7337 38.2147 21.6944 38.0511 21.6396 37.8926" stroke="black" stroke-width="0.5" stroke-miterlimit="10" stroke-linecap="round" stroke-linejoin="round"/>
<path d="M20.4454 38.4796C20.4082 38.3296 20.3711 38.1793 20.334 38.0293" stroke="black" stroke-width="0.5" stroke-miterlimit="10" stroke-linecap="round" stroke-linejoin="round"/>
<path d="M16.0566 39.1033C16.0215 38.9968 16.0081 38.8832 16.0176 38.7715" stroke="black" stroke-width="0.5" stroke-miterlimit="10" stroke-linecap="round" stroke-linejoin="round"/>
<path d="M5.41797 29.5971C6.68365 28.688 8.12177 28.0201 9.63296 27.6396" stroke="black" stroke-width="0.5" stroke-miterlimit="10" stroke-linecap="round" stroke-linejoin="round"/>
<path d="M6.52441 29.5107C6.95134 29.2035 7.42167 28.9565 7.91692 28.7793" stroke="black" stroke-width="0.5" stroke-miterlimit="10" stroke-linecap="round" stroke-linejoin="round"/>
<path d="M7.15527 29.9679C7.28176 29.8431 7.42689 29.7375 7.58457 29.6553" stroke="black" stroke-width="0.5" stroke-miterlimit="10" stroke-linecap="round" stroke-linejoin="round"/>
<path d="M7.91699 30.3786C8.03432 30.3335 8.15148 30.2883 8.26881 30.2432" stroke="black" stroke-width="0.5" stroke-miterlimit="10" stroke-linecap="round" stroke-linejoin="round"/>
<path d="M17.6562 27.96C18.9497 28.3465 20.1576 29.0171 21.1696 29.9106" stroke="black" stroke-width="0.5" stroke-miterlimit="10" stroke-linecap="round" stroke-linejoin="round"/>
<path d="M19.5703 29.3623C19.7826 29.4752 19.9857 29.6051 20.1771 29.7504" stroke="black" stroke-width="0.5" stroke-miterlimit="10" stroke-linecap="round" stroke-linejoin="round"/>
<path d="M19.2588 30.2207C19.4012 30.3279 19.5589 30.415 19.7254 30.4784" stroke="black" stroke-width="0.5" stroke-miterlimit="10" stroke-linecap="round" stroke-linejoin="round"/>
<path d="M18.6533 30.6309C18.7452 30.7348 18.8503 30.8269 18.9656 30.9042" stroke="black" stroke-width="0.5" stroke-miterlimit="10" stroke-linecap="round" stroke-linejoin="round"/>
<path d="M4.15039 26.1602C4.21499 26.347 4.40064 26.4852 4.598 26.4935" stroke="black" stroke-width="0.5" stroke-miterlimit="10" stroke-linecap="round" stroke-linejoin="round"/>
<path d="M4.46094 26.9219C4.54147 26.9527 4.62845 26.9665 4.71458 26.9621" stroke="black" stroke-width="0.5" stroke-miterlimit="10" stroke-linecap="round" stroke-linejoin="round"/>
<path d="M20.8213 22.9999C20.9335 22.8745 20.9832 22.6956 20.9517 22.5303" stroke="black" stroke-width="0.5" stroke-miterlimit="10" stroke-linecap="round" stroke-linejoin="round"/>
<path d="M21.5029 26.3555C21.7929 26.4362 22.056 26.6098 22.2444 26.8444" stroke="black" stroke-width="0.5" stroke-miterlimit="10" stroke-linecap="round" stroke-linejoin="round"/>
<path d="M22.4199 26.5703C22.4525 26.6485 22.485 26.7265 22.5176 26.8046" stroke="black" stroke-width="0.5" stroke-miterlimit="10" stroke-linecap="round" stroke-linejoin="round"/>
<path d="M22.79 26.0049C22.8421 26.1154 22.8941 26.2261 22.9462 26.3367" stroke="black" stroke-width="0.5" stroke-miterlimit="10" stroke-linecap="round" stroke-linejoin="round"/>
<path d="M23.085 20.1475C23.233 20.3301 23.442 20.4623 23.6704 20.5179" stroke="black" stroke-width="0.5" stroke-miterlimit="10" stroke-linecap="round" stroke-linejoin="round"/>
<path d="M23.8848 21.0457C23.9645 21.0521 24.0457 21.0387 24.1191 21.0068" stroke="black" stroke-width="0.5" stroke-miterlimit="10" stroke-linecap="round" stroke-linejoin="round"/>
<path d="M18.1055 12.6328C18.272 12.7644 18.4027 12.9409 18.4803 13.1384" stroke="black" stroke-width="0.5" stroke-miterlimit="10" stroke-linecap="round" stroke-linejoin="round"/>
<path d="M18.8457 12.8877C18.8715 12.9464 18.8972 13.005 18.923 13.0637" stroke="black" stroke-width="0.5" stroke-miterlimit="10" stroke-linecap="round" stroke-linejoin="round"/>
<path d="M3.03027 16.2605C3.56876 15.1894 4.34241 14.2374 5.28053 13.4912" stroke="black" stroke-width="0.5" stroke-miterlimit="10" stroke-linecap="round" stroke-linejoin="round"/>
<path d="M4.26562 15.2683C4.37634 15.1252 4.48689 14.982 4.59743 14.8389" stroke="black" stroke-width="0.5" stroke-miterlimit="10" stroke-linecap="round" stroke-linejoin="round"/>
<path d="M24.54 25.0519C24.7962 24.2861 24.9614 23.4901 25.0309 22.6855" stroke="black" stroke-width="0.5" stroke-miterlimit="10" stroke-linecap="round" stroke-linejoin="round"/>
<path d="M24.5674 23.8767C24.5869 23.7336 24.6064 23.5904 24.6259 23.4473" stroke="black" stroke-width="0.5" stroke-miterlimit="10" stroke-linecap="round" stroke-linejoin="round"/>
<path d="M23.9237 23.5838C23.9149 23.4405 23.9215 23.2962 23.9432 23.1543" stroke="black" stroke-width="0.5" stroke-miterlimit="10" stroke-linecap="round" stroke-linejoin="round"/>
<path d="M21.0176 12.9795C21.8141 13.5668 22.5077 14.2932 23.0579 15.1158" stroke="black" stroke-width="0.5" stroke-miterlimit="10" stroke-linecap="round" stroke-linejoin="round"/>
<path d="M21.6787 14.292C21.8601 14.4417 22.0236 14.613 22.1648 14.801" stroke="black" stroke-width="0.5" stroke-miterlimit="10" stroke-linecap="round" stroke-linejoin="round"/>
<path d="M22.0312 16.0674C22.077 16.1323 22.123 16.1971 22.1688 16.262" stroke="black" stroke-width="0.5" stroke-miterlimit="10" stroke-linecap="round" stroke-linejoin="round"/>
<path d="M11.3125 10.2907C12.153 10.0829 13.0377 10.0562 13.8891 10.2129" stroke="black" stroke-width="0.5" stroke-miterlimit="10" stroke-linecap="round" stroke-linejoin="round"/>
<path d="M12.8945 10.7178C12.9532 10.724 13.0117 10.7303 13.0704 10.7368" stroke="black" stroke-width="0.5" stroke-miterlimit="10" stroke-linecap="round" stroke-linejoin="round"/>
<path d="M12.9336 11.7147C13.0638 11.7241 13.1952 11.7183 13.3242 11.6973" stroke="black" stroke-width="0.5" stroke-miterlimit="10" stroke-linecap="round" stroke-linejoin="round"/>
<path d="M13.3493 15.6351C13.3493 15.8376 13.1852 16.0017 12.9828 16.0017C12.7803 16.0017 12.6162 15.8376 12.6162 15.6351C12.6162 15.4327 12.7803 15.2686 12.9828 15.2686C13.1852 15.2684 13.3493 15.4325 13.3493 15.6351Z" stroke="black" stroke-miterlimit="10" stroke-linecap="round" stroke-linejoin="round"/>
</svg>
