<svg width="53" height="42" viewBox="0 0 53 42" fill="none" xmlns="http://www.w3.org/2000/svg">
<path d="M47.1313 8.11235L47.1299 8.11379C45.4324 9.98185 43.8389 16.2371 42.8257 22.0868C42.7718 22.3982 42.7326 22.6385 42.7044 22.8018L42.6891 22.8955L42.6738 22.9923L42.7144 22.943L42.9178 22.8571C42.9758 22.8327 43.0426 22.8053 43.1138 22.773C45.5969 21.6739 53.4281 17.4837 50.0305 9.69749C49.6718 8.87496 49.3019 8.28147 48.9352 7.93632C48.6318 7.65081 48.3241 7.5275 48.0184 7.56381C47.722 7.59982 47.4255 7.79054 47.1313 8.11235ZM48.4076 16.7716L47.5618 17.4993L48.4062 16.7701L48.4076 16.7716Z" fill="#018B45"/>
<path d="M37.4268 29.8687L37.5118 29.8961C39.2571 30.4616 43.6962 31.5867 47.2525 29.8218C49.1848 28.8609 50.5642 27.1784 51.3565 24.8174C51.8451 23.3619 51.8581 22.402 51.3922 21.9632C51.366 21.9384 51.3366 21.9139 51.3044 21.8923C50.8708 21.5774 50.0765 21.627 48.9679 22.0199L48.9664 22.0185L48.965 22.0199C46.8218 22.7733 43.5063 24.797 39.3369 27.9263C39.2873 27.9759 39.245 28.024 39.2015 28.0704L39.0704 28.2127C38.9073 28.389 38.7382 28.5656 38.5702 28.7345C38.4582 28.8566 38.3429 28.9759 38.2262 29.0969L38.2202 29.1001L37.9646 29.353L37.9632 29.3544L37.95 29.3654C37.8243 29.4925 37.6973 29.6152 37.5671 29.7379L37.4268 29.8687Z" fill="#018B45"/>
<path d="M29.8574 35.0097L29.9041 35.0625C30.0476 35.2296 30.2374 35.4465 30.4676 35.6922C30.699 35.9366 30.9707 36.2126 31.2786 36.5027C32.8747 38.0051 35.385 39.8487 38.2772 40.1042C40.4247 40.2921 42.48 39.5759 44.3856 37.9766C45.6353 36.925 46.1343 36.0725 45.8644 35.4445C45.8076 35.3122 45.7183 35.1872 45.5959 35.072C45.4999 34.9815 45.3847 34.8994 45.2513 34.8207C42.7071 33.3483 33.6912 34.2157 30.8715 34.5312C30.6921 34.6165 30.5275 34.698 30.3602 34.7767L30.1184 34.8908L30.204 34.9363C30.1795 34.925 30.1553 34.9167 30.1308 34.9054L30.1081 34.8957L29.8825 34.9988L29.8574 35.0097ZM34.0937 37.2281L34.0617 37.265L34.0603 37.2636L34.0937 37.2281Z" fill="#018B45"/>
<path d="M31.6696 33.3075C31.7321 33.2769 31.7995 33.2366 31.8655 33.1971L31.888 33.1836C32.0401 33.0954 32.1859 33.0107 32.3248 32.9249L32.4198 32.8632C32.7572 32.6567 33.0859 32.4426 33.3976 32.2271C33.6987 32.0257 34.0142 31.8004 34.3634 31.538C34.4273 31.4916 34.493 31.4412 34.5573 31.3913L34.5823 31.3723C34.8384 31.179 35.0986 30.9741 35.3775 30.7457C36.107 30.149 36.824 29.5016 37.5161 28.816C37.5359 28.8016 37.5607 28.7751 37.5846 28.7497L37.8194 28.5129C37.8194 28.5129 38.02 28.3063 38.0594 28.2666L38.4296 27.8733C39.7644 26.4443 41.0269 24.8393 42.1819 23.1026C42.2914 22.9364 42.4127 22.7514 42.5339 22.5621L42.674 22.3438L42.6313 22.5999C42.5855 22.8736 42.5619 23.0283 42.5619 23.0283C42.5602 23.0384 42.5628 23.0482 42.5625 23.0487L42.5809 23.0773C42.5956 23.0891 42.6155 23.0922 42.644 23.0819L42.8166 23.0139L42.8367 23.0631L42.8379 23.0052L42.9969 22.939L42.9027 23.0836C42.8114 23.2236 42.7172 23.3668 42.6204 23.5111L42.61 23.5313C41.9756 24.4783 41.2931 25.4057 40.5823 26.2873C40.425 26.4881 40.2663 26.6814 40.1021 26.877C39.9716 27.0315 39.837 27.1862 39.6878 27.3582L39.6477 27.3233L39.6717 27.3766C39.6235 27.436 39.5734 27.4939 39.5218 27.5535L39.2536 27.8583C39.2104 27.9044 38.992 28.1404 38.992 28.1404C38.8301 28.3167 38.661 28.4918 38.4933 28.6618C38.383 28.7831 38.2697 28.8995 38.1496 29.0217C38.1404 29.028 38.1343 29.0346 38.1234 29.0462C38.0502 29.1196 37.9753 29.1951 37.8978 29.2694C37.7641 29.4028 37.6304 29.5325 37.4945 29.6604L37.2844 29.8575C37.2453 29.8952 37.2064 29.9324 37.1672 29.9666C36.9122 30.2063 36.6702 30.425 36.4259 30.6359C36.4115 30.6474 36.3279 30.72 36.3279 30.72C36.0614 30.9502 35.8105 31.1591 35.5604 31.3593L35.5454 31.3697L35.5394 31.3723C35.1548 31.6855 34.7419 31.9995 34.2784 32.3314C34.1724 32.4098 34.066 32.4858 33.9594 32.5616L33.9257 32.5858L33.6278 32.788C33.5717 32.8261 33.5123 32.8647 33.4538 32.9021C33.2836 33.0156 33.1107 33.1283 32.9344 33.2363C32.7514 33.3547 32.5621 33.468 32.3749 33.5789L32.3513 33.5976C32.1476 33.7157 31.9324 33.8399 31.7157 33.9572C31.442 34.1113 31.149 34.2663 30.8073 34.4386C30.4676 34.6111 30.1118 34.78 29.7494 34.9404C28.27 35.5973 26.7307 36.0978 25.1755 36.4273C25.1375 36.4363 25.0966 36.4351 25.0453 36.4239C24.996 36.4121 24.9499 36.387 24.9119 36.3513C24.8655 36.3078 24.8338 36.2502 24.8223 36.1888C24.807 36.1139 24.8217 36.0372 24.8641 35.9733C24.9073 35.9076 24.9738 35.8627 25.0507 35.8468C27.3265 35.3677 29.5523 34.5141 31.6696 33.3075Z" fill="#018B45"/>
<path d="M47.1313 8.11235L47.1299 8.11379V8.11697C47.1299 8.11697 49.7194 8.90204 48.6695 13.4353C47.7208 17.5385 43.4871 22.0729 42.6891 22.8955L42.6738 22.9923L42.7144 22.943L42.9178 22.8571C42.9758 22.8327 43.0426 22.8053 43.1138 22.773C45.5969 21.6739 53.4281 17.4837 50.0305 9.69749C49.6718 8.87496 49.3019 8.28147 48.9352 7.93632C48.6318 7.65081 48.3241 7.5275 48.0184 7.56381C47.722 7.59982 47.4255 7.79054 47.1313 8.11235Z" fill="#07A953"/>
<path d="M48.9648 22.021C48.9648 22.021 48.9648 22.021 48.9677 22.021L48.9663 22.0195L48.9648 22.021Z" fill="#EDCC45"/>
<path d="M37.4258 29.8697L37.5108 29.8971C39.2561 30.4626 43.6952 31.5876 47.2515 29.8227C49.1838 28.8619 50.5632 27.1794 51.3555 24.8184C51.8441 23.3629 51.8571 22.4029 51.3912 21.9642C51.365 21.9394 51.3356 21.9149 51.3034 21.8933C50.8698 21.5784 50.0755 21.628 48.9669 22.0209C49.0634 22.033 51.1899 22.3148 48.1916 26.3834C45.3699 30.2151 38.4955 29.9368 37.4258 29.8697Z" fill="#07A953"/>
<path d="M29.8564 35.0103L29.9031 35.063C30.0466 35.2301 30.2365 35.447 30.4666 35.6928C30.698 35.9371 30.9697 36.2131 31.2777 36.5032C32.8737 38.0057 35.384 39.8492 38.2762 40.1048C40.4237 40.2926 42.4791 39.5764 44.3846 37.9772C45.6344 36.9256 46.1334 36.0731 45.8634 35.445C45.8066 35.3128 45.7173 35.1878 45.5949 35.0725C45.499 34.9821 45.3837 34.8999 45.2503 34.8213C45.2235 35.1757 44.9147 36.7565 41.6456 37.5802C38.2304 38.4413 30.9524 35.4496 29.8815 34.999L29.8564 35.0103Z" fill="#07A953"/>
<path d="M24.7697 36.1996C24.7962 36.339 24.9051 36.4456 25.0342 36.4764C25.0832 36.4871 25.1344 36.4917 25.1849 36.4799C26.8175 36.1336 28.3456 35.6219 29.7703 34.9893C30.1356 34.8276 30.4926 34.6582 30.8409 34.481C30.8409 34.481 30.8409 34.481 30.8429 34.479C31.1494 34.3255 31.4456 34.1702 31.7398 34.0045C31.9579 33.8861 32.1736 33.7617 32.3874 33.6352C32.3894 33.6332 32.3975 33.6288 32.4012 33.6248C32.5891 33.5133 32.7787 33.3998 32.9602 33.2825C33.1379 33.1733 33.3114 33.0604 33.4808 32.9478C33.5407 32.9094 33.6003 32.8708 33.6562 32.8325C33.7539 32.7665 33.8536 32.6986 33.9512 32.6326C34.0708 32.5476 34.1901 32.4626 34.3076 32.3759C34.7435 32.0639 35.167 31.7438 35.5721 31.4145L35.5741 31.4165C35.8441 31.201 36.1039 30.9838 36.3598 30.7625C36.3955 30.7328 36.4272 30.7034 36.4609 30.6761C36.7144 30.4568 36.9582 30.2361 37.1973 30.0111C37.1973 30.0111 37.1973 30.0111 37.1993 30.0091C37.2428 29.9711 37.2843 29.9313 37.3258 29.8916C37.3949 29.8265 37.4623 29.7634 37.5295 29.7003C37.666 29.5721 37.8003 29.4421 37.9325 29.3099C38.0135 29.2321 38.0907 29.1546 38.1673 29.0771C38.1734 29.0708 38.1771 29.0667 38.1852 29.0624C38.3016 28.9429 38.418 28.8236 38.5283 28.7023C38.698 28.5303 38.8674 28.3545 39.029 28.1788C39.1178 28.0846 39.2042 27.9884 39.2909 27.8965C39.2909 27.8965 39.2929 27.8944 39.295 27.8924C39.3578 27.8216 39.4209 27.7504 39.4816 27.6815C39.5583 27.5917 39.6369 27.5041 39.7116 27.4122L39.7136 27.4101C39.8591 27.243 40.0025 27.078 40.142 26.9132C40.3068 26.717 40.4658 26.5231 40.6205 26.3252L40.6225 26.3231C41.4007 25.358 42.0821 24.4165 42.664 23.5467V23.5427C42.8294 23.2955 42.9867 23.0529 43.1365 22.8227C42.8072 22.9668 42.6142 23.0376 42.6142 23.0376C42.6142 23.0376 42.6686 22.6821 42.7744 22.0791C42.7473 22.1206 42.7202 22.1661 42.6908 22.2096L42.6911 22.2136C42.5185 22.4934 42.3318 22.7798 42.1377 23.0742C41.1688 24.5309 39.9236 26.1975 38.3912 27.838L38.0227 28.2295C37.9417 28.3113 37.8628 28.3949 37.7821 28.4767C37.7032 28.5565 37.6242 28.636 37.5453 28.7155C37.5237 28.7386 37.5001 28.7637 37.4721 28.785C36.8106 29.4416 36.1002 30.0872 35.3439 30.7058C35.0861 30.9169 34.8219 31.1264 34.5493 31.3315C34.4779 31.3865 34.4041 31.4436 34.3307 31.4969C34.0187 31.732 33.698 31.9633 33.3673 32.1849C33.0506 32.4038 32.7254 32.615 32.39 32.8204L32.2984 32.8801C32.1566 32.9676 32.0089 33.0535 31.8608 33.1394C31.7887 33.1823 31.715 33.2272 31.6409 33.2641C29.6738 34.3851 27.4782 35.2828 25.0411 35.7957C24.8541 35.8331 24.7314 36.0137 24.7697 36.1996Z" stroke="black" stroke-miterlimit="10" stroke-linecap="round" stroke-linejoin="round"/>
<path d="M42.7744 22.0786C42.6687 22.6816 42.6143 23.0371 42.6143 23.0371C42.6143 23.0371 42.8073 22.9662 43.1366 22.8222C45.3239 21.8533 53.5374 17.6035 50.0793 9.67723C46.6039 1.71495 43.5002 17.8818 42.7744 22.0786Z" stroke="black" stroke-miterlimit="10" stroke-linecap="round" stroke-linejoin="round"/>
<path d="M37.3262 29.8912C39.393 30.5892 48.6083 33.185 51.4066 24.8361C53.8321 17.6088 44.0041 24.3579 39.2953 27.8917C39.2933 27.8937 39.2913 27.8958 39.2913 27.8958C39.2046 27.988 39.1179 28.0842 39.0294 28.1781C38.8681 28.3538 38.6984 28.5296 38.5287 28.7016C38.4184 28.8229 38.3023 28.9422 38.1856 29.0617C38.1775 29.066 38.1735 29.0704 38.1677 29.0764C38.0908 29.1539 38.0139 29.2314 37.9329 29.3092C37.8007 29.4414 37.6664 29.5714 37.5299 29.6996C37.4627 29.763 37.3953 29.826 37.3262 29.8912Z" stroke="black" stroke-miterlimit="10" stroke-linecap="round" stroke-linejoin="round"/>
<path d="M29.7705 34.9898C31.1733 36.666 37.6806 43.6766 44.4182 38.0172C50.8858 32.5856 35.5876 33.948 30.8431 34.4795C30.8411 34.4816 30.8411 34.4816 30.8411 34.4816C30.4925 34.6587 30.1358 34.8281 29.7705 34.9898Z" stroke="black" stroke-miterlimit="10" stroke-linecap="round" stroke-linejoin="round"/>
<path d="M42.7514 36.2308C38.4673 36.7367 33.9577 36.7033 30.0527 34.8701" stroke="black" stroke-width="0.5" stroke-miterlimit="10" stroke-linecap="round" stroke-linejoin="round"/>
<path d="M37.8057 29.3828C41.9927 28.6969 45.9999 26.94 49.3413 24.3252" stroke="black" stroke-width="0.5" stroke-miterlimit="10" stroke-linecap="round" stroke-linejoin="round"/>
<path d="M42.749 22.9053C44.2797 21.0951 45.6427 19.1271 46.6254 16.9698C47.6084 14.8128 48.2039 12.4581 48.1754 10.0879" stroke="black" stroke-width="0.5" stroke-miterlimit="10" stroke-linecap="round" stroke-linejoin="round"/>
<path d="M48.4229 15.4194C48.6683 15.1563 48.8867 14.868 49.0737 14.5605" stroke="black" stroke-width="0.5" stroke-miterlimit="10" stroke-linecap="round" stroke-linejoin="round"/>
<path d="M48.7822 13.7069C48.9946 13.3863 49.1717 13.0426 49.3094 12.6836" stroke="black" stroke-width="0.5" stroke-miterlimit="10" stroke-linecap="round" stroke-linejoin="round"/>
<path d="M48.8242 11.698C48.8798 11.4526 48.9357 11.2074 48.9913 10.9619" stroke="black" stroke-width="0.5" stroke-miterlimit="10" stroke-linecap="round" stroke-linejoin="round"/>
<path d="M47.5615 17.4981C47.8433 17.2553 48.1248 17.0124 48.4065 16.7695" stroke="black" stroke-width="0.5" stroke-miterlimit="10" stroke-linecap="round" stroke-linejoin="round"/>
<path d="M46.9863 18.9557C47.2203 18.8192 47.4271 18.6368 47.5919 18.4219" stroke="black" stroke-width="0.5" stroke-miterlimit="10" stroke-linecap="round" stroke-linejoin="round"/>
<path d="M44.929 18.0695C44.9229 17.871 44.9169 17.6728 44.9111 17.4746" stroke="black" stroke-width="0.5" stroke-miterlimit="10" stroke-linecap="round" stroke-linejoin="round"/>
<path d="M45.8402 16.0392C45.81 15.6823 45.7359 15.3293 45.6201 14.9902" stroke="black" stroke-width="0.5" stroke-miterlimit="10" stroke-linecap="round" stroke-linejoin="round"/>
<path d="M46.5913 13.1193C46.5567 12.8768 46.5222 12.6342 46.4873 12.3916" stroke="black" stroke-width="0.5" stroke-miterlimit="10" stroke-linecap="round" stroke-linejoin="round"/>
<path d="M47.06 11.5077C47.0168 11.2743 46.9739 11.041 46.9307 10.8076" stroke="black" stroke-width="0.5" stroke-miterlimit="10" stroke-linecap="round" stroke-linejoin="round"/>
<path d="M47.518 9.51805C47.5148 9.41002 47.5117 9.30169 47.5088 9.19336" stroke="black" stroke-width="0.5" stroke-miterlimit="10" stroke-linecap="round" stroke-linejoin="round"/>
<path d="M41.9015 29.939C41.7439 29.8275 41.5863 29.716 41.4287 29.6045" stroke="black" stroke-width="0.5" stroke-miterlimit="10" stroke-linecap="round" stroke-linejoin="round"/>
<path d="M43.6813 29.6658C43.5529 29.6698 43.4235 29.6266 43.3232 29.5459" stroke="black" stroke-width="0.5" stroke-miterlimit="10" stroke-linecap="round" stroke-linejoin="round"/>
<path d="M46.037 28.7846C45.7731 28.7336 45.5152 28.6503 45.2715 28.5371" stroke="black" stroke-width="0.5" stroke-miterlimit="10" stroke-linecap="round" stroke-linejoin="round"/>
<path d="M48.108 27.4223C47.8368 27.4125 47.5657 27.4024 47.2949 27.3926" stroke="black" stroke-width="0.5" stroke-miterlimit="10" stroke-linecap="round" stroke-linejoin="round"/>
<path d="M49.5768 25.8662C49.4506 25.87 49.3244 25.874 49.1982 25.878" stroke="black" stroke-width="0.5" stroke-miterlimit="10" stroke-linecap="round" stroke-linejoin="round"/>
<path d="M50.6063 24.0977C50.5075 24.1098 50.4084 24.1216 50.3096 24.1337" stroke="black" stroke-width="0.5" stroke-miterlimit="10" stroke-linecap="round" stroke-linejoin="round"/>
<path d="M42.0557 26.9282C42.1744 26.8084 42.2714 26.6672 42.3409 26.5137" stroke="black" stroke-width="0.5" stroke-miterlimit="10" stroke-linecap="round" stroke-linejoin="round"/>
<path d="M43.3672 26.428C43.5334 26.2517 43.6994 26.075 43.8656 25.8984" stroke="black" stroke-width="0.5" stroke-miterlimit="10" stroke-linecap="round" stroke-linejoin="round"/>
<path d="M45.4219 25.4189C45.5218 25.2544 45.6454 25.1043 45.7875 24.9746" stroke="black" stroke-width="0.5" stroke-miterlimit="10" stroke-linecap="round" stroke-linejoin="round"/>
<path d="M47.2803 24.2254C47.3808 24.1672 47.4707 24.0909 47.5442 24.001" stroke="black" stroke-width="0.5" stroke-miterlimit="10" stroke-linecap="round" stroke-linejoin="round"/>
<path d="M48.9668 23.6054C49.1503 23.445 49.3336 23.2845 49.5171 23.124" stroke="black" stroke-width="0.5" stroke-miterlimit="10" stroke-linecap="round" stroke-linejoin="round"/>
<path d="M34.2575 37.5578C34.1915 37.4604 34.1255 37.363 34.0596 37.2656" stroke="black" stroke-width="0.5" stroke-miterlimit="10" stroke-linecap="round" stroke-linejoin="round"/>
<path d="M36.3931 38.4149C36.1905 38.2519 36.0252 38.0424 35.9131 37.8076" stroke="black" stroke-width="0.5" stroke-miterlimit="10" stroke-linecap="round" stroke-linejoin="round"/>
<path d="M38.8107 38.5814C38.5603 38.3636 38.3099 38.1455 38.0596 37.9277" stroke="black" stroke-width="0.5" stroke-miterlimit="10" stroke-linecap="round" stroke-linejoin="round"/>
<path d="M40.7153 38.1218C40.5917 38.078 40.4776 38.0075 40.3828 37.917" stroke="black" stroke-width="0.5" stroke-miterlimit="10" stroke-linecap="round" stroke-linejoin="round"/>
<path d="M42.9768 37.7307C42.8665 37.6618 42.7559 37.5933 42.6455 37.5244" stroke="black" stroke-width="0.5" stroke-miterlimit="10" stroke-linecap="round" stroke-linejoin="round"/>
<path d="M44.5643 36.4901C44.4467 36.4846 44.3295 36.4791 44.2119 36.4736" stroke="black" stroke-width="0.5" stroke-miterlimit="10" stroke-linecap="round" stroke-linejoin="round"/>
<path d="M34.3467 35.2278C34.5423 35.1316 34.7379 35.0357 34.9335 34.9395" stroke="black" stroke-width="0.5" stroke-miterlimit="10" stroke-linecap="round" stroke-linejoin="round"/>
<path d="M36.6436 35.1267C36.8049 35.0691 36.9659 35.0117 37.127 34.9541" stroke="black" stroke-width="0.5" stroke-miterlimit="10" stroke-linecap="round" stroke-linejoin="round"/>
<path d="M39.1387 35.2178C39.3081 35.1659 39.4778 35.1144 39.6472 35.0625" stroke="black" stroke-width="0.5" stroke-miterlimit="10" stroke-linecap="round" stroke-linejoin="round"/>
<path d="M41.7871 35.0848C41.928 35.007 42.0833 34.956 42.2429 34.9355" stroke="black" stroke-width="0.5" stroke-miterlimit="10" stroke-linecap="round" stroke-linejoin="round"/>
<path d="M43.5576 35.4373C43.6198 35.4082 43.6821 35.3794 43.7446 35.3506" stroke="black" stroke-width="0.5" stroke-miterlimit="10" stroke-linecap="round" stroke-linejoin="round"/>
<path d="M3.37589 7.6244C3.30444 7.62382 3.2281 7.61633 3.15089 7.60423L3.10335 7.59674C3.01289 7.58089 2.93653 7.56303 2.86566 7.54114C2.83109 7.52961 2.80056 7.52011 2.76339 7.50541C2.68848 7.47833 2.61271 7.44664 2.53377 7.40688C2.5211 7.40025 2.50726 7.39219 2.49344 7.38384L2.46261 7.36683C2.41536 7.33802 2.36639 7.31066 2.32115 7.2807C2.30185 7.2686 2.28399 7.25505 2.26814 7.24036L2.24365 7.22135C2.20274 7.19052 2.16327 7.16142 2.12467 7.12656C2.10306 7.10812 2.08462 7.08997 2.05207 7.05569L2.02268 7.02976C2.01086 7.01737 1.99761 7.00613 1.98436 6.99172L1.95094 6.95312L1.91032 6.98798C1.64844 7.22076 1.45541 7.51925 1.35255 7.8546C1.05437 8.83184 1.5741 9.86324 2.53089 10.2052C2.5669 10.2185 2.58966 10.2283 2.62596 10.2386C2.88785 10.3161 3.15376 10.3383 3.4119 10.3029C3.72968 10.266 4.03622 10.1453 4.29926 9.95399C4.35083 9.91654 4.39808 9.87679 4.44936 9.83155C4.50237 9.78517 4.55106 9.73647 4.59716 9.68433L4.63432 9.64141C4.64354 9.63219 4.67408 9.59127 4.67408 9.59127L4.70087 9.52703L4.63663 9.50023C4.5597 9.46681 4.48653 9.42792 4.41393 9.38614L4.37273 9.35849C4.28976 9.30577 4.22147 9.25563 4.16097 9.20493C4.10306 9.15768 4.0489 9.10525 3.99647 9.05137C3.98725 9.04215 3.97861 9.03034 3.96939 9.02112L3.94749 8.9949C3.91522 8.95773 3.88008 8.92029 3.85011 8.87909C3.84003 8.86526 3.83023 8.85171 3.82043 8.835L3.79537 8.80072C3.77204 8.765 3.74697 8.73071 3.72536 8.69384C3.71441 8.6754 3.70433 8.65408 3.69338 8.63564L3.6735 8.59761C3.65564 8.56591 3.63836 8.53135 3.62251 8.49534C3.61214 8.47402 3.60349 8.45125 3.59485 8.42849L3.58506 8.404C3.56979 8.36511 3.55451 8.32622 3.54241 8.2879C3.53435 8.26226 3.52629 8.23662 3.51476 8.19225C3.5041 8.15249 3.49258 8.11129 3.48509 8.07182C3.47846 8.03725 3.4727 8.0044 3.46722 7.97156C3.46146 7.93122 3.4557 7.8906 3.4531 7.84768C3.44936 7.81368 3.4485 7.77998 3.44763 7.74656L3.44446 7.71717C3.44331 7.70478 3.44245 7.69239 3.44245 7.68173L3.42833 7.62641L3.37589 7.6244Z" fill="#C92C1E"/>
<path d="M6.69668 6.21043C6.49587 6.03584 6.26453 5.90966 6.01013 5.83475C5.83871 5.78347 5.67104 5.75552 5.50855 5.75293L5.45957 5.75437L5.45496 5.80248C5.45121 5.82611 5.4492 5.84887 5.4443 5.87076C5.4443 5.87076 5.43019 5.97044 5.42731 5.98831C5.41434 6.06091 5.39734 6.13121 5.37803 6.19517C5.25646 6.5916 5.02511 6.93098 4.70848 7.18249C4.68601 7.19892 4.66498 7.21678 4.6428 7.2332C4.62551 7.24559 4.60534 7.25768 4.58691 7.26863L4.52612 7.30782C4.50249 7.32251 4.47887 7.33691 4.45524 7.3516C4.40684 7.37897 4.35758 7.40174 4.30658 7.42565L4.27375 7.44178C4.25704 7.45129 4.23744 7.46051 4.21756 7.46945C4.16081 7.49249 4.10001 7.51035 4.04066 7.52994L4.00523 7.54262C3.99256 7.54666 3.97786 7.55213 3.96374 7.55443C3.87155 7.5795 3.78339 7.59909 3.69811 7.6086C3.66527 7.61407 3.63416 7.61839 3.60189 7.62099L3.55176 7.63913L3.55233 7.74112C3.55348 7.77166 3.55435 7.80537 3.55867 7.83648C3.56155 7.87653 3.56616 7.91513 3.57221 7.95287C3.57768 7.98572 3.58201 8.01683 3.58921 8.04852C3.5967 8.08771 3.60592 8.12574 3.61687 8.16233L3.62263 8.18451C3.62839 8.2067 3.63502 8.23061 3.64078 8.25279C3.65461 8.28996 3.66988 8.32885 3.68399 8.36602L3.69263 8.38877C3.70157 8.40836 3.70906 8.42939 3.71943 8.45071C3.73643 8.48846 3.75487 8.52476 3.77533 8.5599L3.78541 8.58123C3.79463 8.60082 3.80529 8.61926 3.81624 8.6377C3.83525 8.67112 3.85801 8.70223 3.8874 8.74631L3.90238 8.76706C3.91189 8.78377 3.92341 8.79932 3.93465 8.81459C3.95971 8.84887 3.98938 8.88258 4.02828 8.92522C4.02828 8.92522 4.06429 8.96728 4.07178 8.97766C4.12277 9.0298 4.17464 9.07907 4.22995 9.12257C4.39993 9.2695 4.59411 9.38071 4.80961 9.45273L4.82286 9.46397L4.90123 9.48846C5.06372 9.53831 5.21526 9.56221 5.35816 9.56336C5.46475 9.57258 5.57021 9.56942 5.68573 9.55098C5.75949 9.54723 5.82603 9.53024 5.87847 9.51583C6.13402 9.4585 6.37026 9.34959 6.58 9.1969C6.91333 8.95403 7.16168 8.60514 7.28095 8.21304C7.49847 7.48875 7.26885 6.70366 6.69668 6.21043Z" fill="#C92C1E"/>
<path d="M16.647 7.98753C16.2313 7.64066 15.7133 7.48941 15.1872 7.56489C14.8694 7.60177 14.5646 7.72104 14.3033 7.91148C14.1777 8.00281 14.0619 8.11113 13.9607 8.23213C13.5416 8.74005 13.4087 9.41018 13.6067 10.0285C13.7046 10.3436 13.8861 10.6323 14.1327 10.8553C14.159 10.8835 14.1777 10.8988 14.2007 10.9161C14.3649 11.0515 14.543 11.1587 14.7271 11.227C14.7654 11.2437 14.8032 11.2558 14.8455 11.267L14.9118 11.2898C15.2549 11.3817 15.6113 11.3799 15.9504 11.2857C16.1656 11.2238 16.3652 11.1255 16.5473 10.993C16.6744 10.9005 16.7905 10.7922 16.8933 10.6701C16.9968 10.5447 17.0832 10.4108 17.1477 10.2719C17.3984 9.75274 17.3929 9.12813 17.1353 8.59745C17.012 8.35544 16.8467 8.14973 16.647 7.98753Z" fill="#C92C1E"/>
<path d="M18.6153 27.6008C18.5386 27.5501 18.4585 27.4873 18.3802 27.4262L18.3528 27.4049C18.1762 27.2703 17.999 27.1349 17.8308 26.9992L17.7193 26.905C17.3176 26.5838 16.9278 26.2536 16.5605 25.924C16.2033 25.6137 15.8328 25.2715 15.4274 24.8776C14.1647 23.6647 12.9471 22.3124 11.8037 20.852C11.778 20.8281 11.7504 20.7898 11.7239 20.7535C11.5475 20.5296 11.3721 20.2957 11.1952 20.0588L11.0534 19.8644C9.44929 17.6952 7.98861 15.2893 6.71174 12.714C6.53225 12.3492 6.32338 11.9214 6.1364 11.5103L6.12891 11.4872C5.86876 10.9294 5.61091 10.3446 5.34038 9.69983L5.32741 9.669L5.29399 9.66728C5.26864 9.66612 5.24271 9.66238 5.21678 9.65863L5.15368 9.65085C5.13755 9.64941 5.12112 9.64768 5.1047 9.6448C5.02144 9.6304 4.94452 9.61196 4.86039 9.58603L4.82409 9.57422L4.80134 9.60475C4.76878 9.64826 4.73479 9.69003 4.69359 9.73728C4.65498 9.78078 4.61436 9.82256 4.57172 9.86289L4.54492 9.88796L4.55904 9.92196C4.8434 10.6111 5.14158 11.2879 5.44495 11.9338C5.62415 12.3115 5.82669 12.7399 6.05084 13.1847L6.09837 13.1608L6.05948 13.2089C6.72586 14.5385 7.45591 15.8488 8.22975 17.1032C8.38533 17.3631 8.55675 17.6379 8.75381 17.9433C8.90478 18.1758 9.06122 18.4089 9.22457 18.6523C9.28248 18.7451 9.33865 18.8295 9.39541 18.9139L9.48386 19.0467C9.64721 19.2836 9.80971 19.5195 9.98228 19.7563C10.2859 20.1795 10.6077 20.6088 10.9264 21.0318C10.9365 21.0407 10.9425 21.049 10.9494 21.0585C11.211 21.3962 11.4464 21.6924 11.6706 21.9661C11.7936 22.1156 11.9163 22.2651 12.0437 22.4152C12.3343 22.7673 12.6101 23.0879 12.8872 23.3962C13.6821 24.2859 14.5231 25.1412 15.3859 25.9384C15.5101 26.0571 15.636 26.1729 15.7613 26.2888L16.1517 26.6339C16.2099 26.6858 16.2713 26.7376 16.3424 26.7973L16.3583 26.8102C16.5968 27.0168 16.7927 27.181 16.9745 27.3271C17.1946 27.5123 17.4245 27.6921 17.6409 27.8604L17.6579 27.8768C17.9512 28.1044 18.1969 28.2891 18.4312 28.4573C20.9362 30.2994 23.6432 31.7324 26.4764 32.716C26.5254 32.7342 26.5807 32.7399 26.6513 32.7336C26.7193 32.7261 26.7856 32.7002 26.8432 32.6584C26.9129 32.6077 26.9653 32.5357 26.9915 32.4553C27.025 32.357 27.0181 32.2513 26.9717 32.1577C26.9244 32.0623 26.8429 31.9906 26.7418 31.9566C23.8832 30.9675 21.1503 29.5025 18.6153 27.6008Z" fill="#018B45"/>
<path d="M4.69476 4.15921C4.48876 3.98837 4.25627 3.86045 4.00504 3.78295C3.49049 3.62911 2.95375 3.69393 2.49279 3.96388C2.43286 3.99701 2.37524 4.0336 2.31877 4.0748C1.98717 4.31652 1.7466 4.65446 1.62474 5.05377C1.43603 5.68299 1.57432 6.35311 1.99639 6.8426C2.14563 7.02583 2.33203 7.17679 2.54378 7.29088C2.63511 7.34015 2.72039 7.3779 2.80106 7.40584C2.83707 7.41909 2.86588 7.42975 2.89757 7.4407C3.10414 7.50063 3.30553 7.52771 3.49279 7.51762C3.56136 7.51762 3.62301 7.51215 3.68236 7.50321C4.00878 7.46 4.31734 7.33525 4.58038 7.14367L4.64232 7.09843C4.94281 6.86103 5.16091 6.53922 5.27615 6.16325C5.30467 6.06875 5.32714 5.95495 5.34357 5.81148L5.34788 5.77403C5.35163 5.75041 5.35422 5.72476 5.35537 5.69768C5.37986 5.11456 5.13238 4.54008 4.69476 4.15921Z" fill="#C92C1E"/>
<path d="M17.7 10.6477C17.5692 10.5405 17.4252 10.4506 17.267 10.3818L17.2229 10.3613L17.1993 10.4048C17.1901 10.4247 17.1783 10.4411 17.1662 10.4604L17.1109 10.5506C17.0685 10.6154 17.0242 10.6771 16.9735 10.7376C16.919 10.8036 16.8568 10.8698 16.7804 10.9387C16.7646 10.9531 16.749 10.9643 16.7349 10.9773L16.6738 11.0271C16.6528 11.0453 16.6329 11.0649 16.6104 11.081C16.5983 11.0896 16.5036 11.151 16.5036 11.151C16.4275 11.1983 16.3526 11.2398 16.2785 11.2755L16.2345 11.2945C16.14 11.3345 16.0573 11.3656 15.9781 11.3867C15.6211 11.489 15.2422 11.4887 14.8801 11.3922L14.815 11.3711L14.7994 11.4218L14.7844 11.3616L14.7352 11.3556C14.7352 11.3556 14.6992 11.4397 14.6928 11.4601C14.6804 11.4901 14.6695 11.5218 14.66 11.5523C14.6476 11.593 14.6369 11.6324 14.6245 11.6806C14.6185 11.7085 14.611 11.7379 14.6047 11.7687C14.5969 11.8088 14.592 11.8491 14.5868 11.8923L14.5833 11.913C14.5808 11.9387 14.5773 11.9623 14.5764 11.9865C14.573 12.0286 14.5724 12.0712 14.5736 12.1124L14.5733 12.1337C14.5724 12.1579 14.5718 12.1821 14.5727 12.2052C14.5756 12.2452 14.5785 12.2853 14.5857 12.3351L14.588 12.3599C14.5906 12.3815 14.5934 12.4034 14.5946 12.4233C14.6015 12.4656 14.611 12.5034 14.6248 12.559L14.63 12.584C14.6332 12.6028 14.6381 12.6203 14.6441 12.6396C14.6562 12.6886 14.6747 12.7359 14.6946 12.7846C14.6946 12.7846 14.711 12.8358 14.7162 12.8502C14.745 12.9188 14.7772 12.9848 14.8141 13.0496C14.9086 13.2228 15.0357 13.3827 15.1855 13.5235L15.2175 13.5529L15.2443 13.5754C15.3817 13.6883 15.5145 13.773 15.662 13.8419C15.7482 13.8842 15.8435 13.9177 15.9611 13.9528C16.0233 13.9733 16.0841 13.9842 16.148 13.9929C16.6557 14.0833 17.1861 13.9629 17.6018 13.6598C17.7289 13.567 17.845 13.459 17.9461 13.338C18.4255 12.7575 18.5208 11.9462 18.1881 11.2654C18.0671 11.0248 17.9032 10.818 17.7 10.6477Z" fill="#C92C1E"/>
<path d="M14.575 11.2787C14.5058 11.245 14.437 11.2084 14.3716 11.1692L14.3359 11.1453C14.2612 11.0972 14.1956 11.0502 14.1339 10.9978C14.1132 10.9839 14.0875 10.9632 14.0561 10.9309C13.9991 10.8779 13.9429 10.8189 13.8853 10.7503C13.8749 10.7393 13.8648 10.7258 13.8547 10.712L13.8348 10.6846C13.8006 10.6411 13.7677 10.5993 13.7383 10.5524C13.7245 10.5336 13.7141 10.512 13.702 10.4919L13.6862 10.4665C13.6626 10.4233 13.6372 10.3812 13.6159 10.3337C13.6029 10.3089 13.592 10.2827 13.5741 10.2404L13.5586 10.2043C13.5519 10.1882 13.5439 10.1729 13.5372 10.1568L13.5205 10.1084L13.4721 10.1251C13.2909 10.1833 13.1218 10.2723 12.9671 10.385C12.8418 10.4763 12.7256 10.5843 12.6245 10.7053C11.9697 11.4927 12.0472 12.6463 12.7954 13.3268C12.8227 13.357 12.8426 13.3737 12.8671 13.3931C13.0797 13.5694 13.3174 13.6935 13.573 13.7627C13.9478 13.8658 14.3531 13.852 14.7162 13.7218C14.7818 13.7002 14.8452 13.6751 14.906 13.6466L14.9587 13.6212C14.9703 13.6155 15.0089 13.5927 15.0089 13.5927L15.059 13.5457L15.0109 13.4939C14.9628 13.4423 14.9178 13.3882 14.876 13.3343L14.8423 13.2879C14.7985 13.2277 14.7582 13.1649 14.7147 13.0836L14.7043 13.0623C14.6738 13.0058 14.6447 12.9479 14.6205 12.8894C14.6116 12.8699 14.6055 12.8506 14.5975 12.8327L14.5756 12.7699C14.564 12.7362 14.5528 12.7025 14.5413 12.6688C14.5355 12.6466 14.5318 12.6232 14.5249 12.5993L14.5113 12.5408C14.5058 12.508 14.4972 12.4749 14.4917 12.442C14.488 12.4184 14.4857 12.3939 14.4822 12.3674L14.4773 12.321C14.4741 12.2839 14.469 12.2481 14.4687 12.2115C14.4669 12.1839 14.4664 12.158 14.4675 12.1309L14.4667 12.1078C14.4672 12.0652 14.4678 12.0228 14.4716 11.9808C14.4733 11.9505 14.4767 11.9191 14.4819 11.8759C14.4871 11.8327 14.4937 11.7909 14.5004 11.7494C14.5067 11.7186 14.5142 11.6892 14.5243 11.6451C14.5338 11.6039 14.5462 11.5633 14.5588 11.5227C14.5686 11.4893 14.5813 11.4564 14.5928 11.4216L14.6038 11.3899C14.6087 11.3784 14.6121 11.3654 14.617 11.3539L14.6225 11.3L14.575 11.2787Z" fill="#C92C1E"/>
<path d="M15.4784 13.8635L15.4242 13.8315C15.4104 13.8237 15.3962 13.8159 15.383 13.8073C15.3141 13.7626 15.2516 13.7168 15.1816 13.6586L15.1531 13.6367L15.122 13.6552C15.0773 13.6819 15.0309 13.7062 14.9765 13.7329C14.9243 13.758 14.871 13.7808 14.8163 13.8009L14.7832 13.813L14.7817 13.8482C14.752 14.5111 14.7374 15.1844 14.7374 15.8496C14.7368 16.2841 14.7417 16.7523 14.7515 17.2406L14.7497 17.2625C14.7981 19.0957 14.9431 20.9246 15.1802 22.6981C15.2326 23.098 15.2968 23.5368 15.3712 24.0012C15.4023 24.2003 15.4386 24.3999 15.4769 24.6108L15.5135 24.8122C15.5135 24.8122 15.6956 24.9882 15.7783 25.0669L16.1263 25.3922C16.1908 25.4515 16.3827 25.6252 16.3827 25.6252L16.4268 25.5933L16.3908 25.6324L16.5118 25.7436L16.4786 25.5826C16.4668 25.5253 16.4553 25.465 16.447 25.408C15.916 22.7805 15.6155 19.9836 15.5544 17.0937C15.5417 16.6794 15.5383 16.2495 15.542 15.76C15.5452 15.1441 15.5593 14.5376 15.5838 13.9577L15.5852 13.9237L15.555 13.9081C15.5288 13.8943 15.5034 13.879 15.4784 13.8635Z" fill="#018B45"/>
<path d="M2.82441 4.23161C2.56627 4.32554 2.3136 4.61306 2.17848 4.84527C2.02204 5.11465 1.97133 5.4428 2.02636 5.74819C2.10761 6.19935 2.45161 6.78708 2.92899 6.89454C3.35827 6.99105 3.70428 6.52001 3.46285 6.14778C3.36835 6.00171 3.22775 5.89108 3.12605 5.7502C2.999 5.57388 2.93964 5.35117 2.95635 5.13481C2.97508 4.89482 3.13815 4.69257 3.14334 4.45086C3.14449 4.39612 3.13584 4.33878 3.10444 4.29413C3.04797 4.21403 2.9313 4.19646 2.83824 4.227C2.83334 4.22844 2.82873 4.22989 2.82441 4.23161Z" fill="#A3180B"/>
<path d="M1.88369 7.70174C1.71515 7.91839 1.65378 8.29638 1.663 8.56489C1.67366 8.87604 1.80532 9.18115 2.0142 9.41076C2.32275 9.74957 2.92691 10.0645 3.38816 9.90139C3.80303 9.75475 3.84537 9.17192 3.44318 8.98523C3.2853 8.91205 3.10754 8.89304 2.94649 8.82764C2.74511 8.74582 2.57628 8.5888 2.47573 8.39664C2.36395 8.18344 2.39449 7.9256 2.27032 7.71816C2.24209 7.6712 2.20435 7.62741 2.15393 7.60609C2.06347 7.56835 1.95543 7.61531 1.89262 7.69079C1.88974 7.69425 1.88657 7.69799 1.88369 7.70174Z" fill="#A3180B"/>
<path d="M4.23479 7.78819C4.19158 8.01896 4.29299 8.33011 4.40535 8.53034C4.53558 8.76255 4.75482 8.94262 5.00345 9.0351C5.37078 9.17166 5.95275 9.17425 6.23941 8.86973C6.49697 8.59603 6.30107 8.13651 5.92222 8.15235C5.77355 8.15869 5.63123 8.21371 5.48314 8.22726C5.29818 8.24425 5.10832 8.19095 4.95678 8.08436C4.78824 7.96623 4.71046 7.75823 4.535 7.64933C4.49524 7.62455 4.44943 7.60611 4.40276 7.60986C4.31921 7.61649 4.25554 7.69455 4.23739 7.77637C4.23623 7.78012 4.23537 7.78416 4.23479 7.78819Z" fill="#A3180B"/>
<path d="M14.765 8.2654C14.5385 8.34779 14.3167 8.60018 14.1983 8.80387C14.0612 9.04011 14.0165 9.32821 14.0646 9.59615C14.1358 9.992 14.4377 10.508 14.8566 10.6019C15.2332 10.6866 15.5368 10.2732 15.3251 9.94676C15.2421 9.81856 15.1188 9.72147 15.0295 9.59787C14.918 9.44316 14.8658 9.24754 14.8808 9.05797C14.8972 8.84737 15.0404 8.66989 15.0447 8.45785C15.0459 8.40974 15.0381 8.35961 15.0105 8.32043C14.9609 8.25013 14.8586 8.23458 14.7768 8.26137C14.7728 8.26252 14.769 8.26396 14.765 8.2654Z" fill="#A3180B"/>
<path d="M12.7579 11.4454C12.6098 11.6356 12.5562 11.9672 12.5643 12.2029C12.5738 12.476 12.689 12.7436 12.8725 12.945C13.1433 13.2423 13.6735 13.5186 14.0782 13.3757C14.4424 13.2472 14.4796 12.7358 14.1263 12.5716C13.9881 12.5074 13.8319 12.4907 13.6904 12.4333C13.5136 12.3616 13.3658 12.2236 13.2773 12.0551C13.1791 11.8678 13.2062 11.6416 13.097 11.4595C13.0722 11.4183 13.0391 11.3797 12.995 11.3613C12.9155 11.3282 12.8207 11.3694 12.7656 11.4356C12.7631 11.4388 12.7605 11.442 12.7579 11.4454Z" fill="#A3180B"/>
<path d="M15.2511 12.4189C15.2131 12.6212 15.3024 12.8943 15.401 13.07C15.515 13.2737 15.7075 13.4319 15.9259 13.5131C16.248 13.633 16.7591 13.6353 17.0103 13.3679C17.2365 13.1276 17.0645 12.7246 16.732 12.7384C16.6018 12.7439 16.4764 12.7923 16.3468 12.8041C16.1843 12.8188 16.0181 12.7721 15.8847 12.6785C15.7369 12.5748 15.6686 12.3924 15.5145 12.2968C15.4796 12.2752 15.4393 12.2587 15.3984 12.2622C15.3252 12.2682 15.2693 12.3365 15.2535 12.4083C15.2526 12.412 15.252 12.4155 15.2511 12.4189Z" fill="#A3180B"/>
<path d="M27.0409 32.4727C26.9839 32.6484 26.8257 32.7683 26.6543 32.7867C26.5891 32.7925 26.5226 32.7902 26.4592 32.7668C23.4298 31.715 20.7522 30.2309 18.3998 28.5009C18.1377 28.3125 17.8792 28.1166 17.6237 27.9183C17.6214 27.9155 17.6119 27.9086 17.6076 27.9025C17.3834 27.7279 17.1567 27.5504 16.9415 27.3692C16.7297 27.1995 16.5243 27.0252 16.3238 26.8518C16.2529 26.7924 16.1817 26.7331 16.1161 26.6746C16.0008 26.5735 15.8833 26.4692 15.768 26.3681C15.6277 26.239 15.4874 26.1096 15.35 25.9783C14.4592 25.1554 13.624 24.3009 12.8472 23.432C12.5554 23.1076 12.2771 22.7826 12.0048 22.4533C12.0048 22.4533 12.0048 22.4533 12.0025 22.4505C11.8738 22.2989 11.7501 22.1482 11.6266 21.9976C11.3794 21.6962 11.1382 21.3905 10.9043 21.0889C10.8977 21.0797 10.8933 21.0736 10.8835 21.067C10.5626 20.6389 10.2437 20.2139 9.93828 19.7884C9.76426 19.5496 9.60091 19.3122 9.43496 19.0719C9.35084 18.9434 9.26354 18.8172 9.1823 18.6867L9.18 18.6838C9.01952 18.4444 8.86107 18.2079 8.70808 17.9722C8.52716 17.6922 8.35372 17.4159 8.18633 17.135L8.18403 17.1321C7.33672 15.759 6.61069 14.432 6.00136 13.2142L6.00223 13.209C5.78385 12.7757 5.58477 12.3562 5.39577 11.9569C5.04256 11.2052 4.73832 10.5011 4.48047 9.87421C4.60176 9.76732 4.70893 9.64777 4.80285 9.50977L4.80516 9.51264C4.83052 9.52215 4.85356 9.52821 4.8841 9.53858C5.04515 9.58784 5.20418 9.6155 5.36206 9.61636C5.59946 10.1839 5.87056 10.8103 6.18517 11.4838L6.18431 11.489C6.36149 11.8783 6.55567 12.2784 6.7585 12.6907C7.8239 14.8399 9.24972 17.3375 11.0959 19.8342L11.2301 20.0186C11.405 20.2522 11.5842 20.4919 11.7671 20.7241C11.7913 20.7573 11.8179 20.7936 11.8504 20.8256C12.923 22.1964 14.1238 23.5527 15.4638 24.84C15.8285 25.1946 16.2045 25.5455 16.5955 25.8855C16.9688 26.22 17.354 26.5455 17.7536 26.8656L17.8622 26.9578C18.0311 27.0941 18.208 27.2289 18.3849 27.364C18.4707 27.4312 18.5586 27.5012 18.6485 27.5608C21.0054 29.3292 23.6937 30.8469 26.7568 31.9068C26.9916 31.9855 27.1204 32.2387 27.0409 32.4727Z" stroke="black" stroke-miterlimit="10" stroke-linecap="round" stroke-linejoin="round"/>
<path d="M15.6405 13.8902C15.6154 14.4592 15.599 15.0913 15.5956 15.7602L15.5979 15.7631C15.5927 16.1881 15.5947 16.6355 15.6082 17.093C15.6592 19.4949 15.8863 22.3612 16.5005 25.4033C16.5106 25.4745 16.5276 25.5549 16.5431 25.6269L16.5403 25.6292C16.5593 25.7124 16.5754 25.798 16.5964 25.8844C16.2055 25.5445 15.8295 25.1936 15.4648 24.8389C15.4149 24.5606 15.3619 24.2846 15.3193 24.0101C15.2493 23.5707 15.1842 23.1319 15.128 22.7052C14.8646 20.7358 14.7399 18.8873 14.6978 17.2471L14.6987 17.242C14.6889 16.7585 14.6843 16.2944 14.6846 15.8498C14.6846 15.0999 14.7033 14.4015 14.7324 13.7741C14.8822 13.7254 15.0266 13.6571 15.1611 13.5684L15.1634 13.5712C15.1818 13.5903 15.2035 13.607 15.2271 13.6268C15.3567 13.7357 15.4933 13.8213 15.6405 13.8902Z" stroke="black" stroke-miterlimit="10" stroke-linecap="round" stroke-linejoin="round"/>
<path d="M4.79101 9.5045L4.80369 9.50911C4.70977 9.64682 4.6026 9.76667 4.48131 9.87356C4.18571 10.1352 3.81608 10.3072 3.42022 10.355C3.15488 10.391 2.87975 10.3691 2.60864 10.289C2.57292 10.2781 2.54756 10.2688 2.51472 10.2556C1.53344 9.90582 0.996127 8.84388 1.30123 7.83956C1.42194 7.4463 1.65559 7.11872 1.9581 6.87988C2.16928 7.13802 2.45076 7.34028 2.78582 7.45725C2.81838 7.4705 2.84891 7.48058 2.87974 7.49067C3.08689 7.55261 3.29375 7.58257 3.49888 7.57191C3.46632 8.18816 3.72964 8.77848 4.19637 9.16511C4.36664 9.30945 4.56773 9.42671 4.79101 9.5045Z" stroke="black" stroke-miterlimit="10" stroke-linecap="round" stroke-linejoin="round"/>
<path d="M7.33228 8.22753C7.12053 8.9279 6.55614 9.41768 5.89552 9.56548C5.83386 9.58276 5.76702 9.5989 5.69673 9.60379C5.58725 9.61877 5.47633 9.6254 5.36282 9.6156C5.20494 9.61503 5.0459 9.58708 4.88485 9.53782C4.85431 9.52773 4.83127 9.5214 4.80591 9.51189L4.80361 9.50901L4.79093 9.5044C4.56765 9.42632 4.36627 9.30907 4.19629 9.16444C3.72956 8.77781 3.46624 8.18749 3.4988 7.57123C3.56333 7.57066 3.62844 7.56489 3.69125 7.55596C4.04965 7.50785 4.39047 7.36582 4.67511 7.14023C4.97474 6.90341 5.20609 6.57295 5.32681 6.17941C5.37521 6.02383 5.39854 5.85875 5.40978 5.70232C5.61491 5.69166 5.82176 5.72162 6.02372 5.78269C6.29482 5.86279 6.53107 5.99646 6.7313 6.1699C7.30463 6.66486 7.56219 7.46319 7.33228 8.22753Z" stroke="black" stroke-miterlimit="10" stroke-linecap="round" stroke-linejoin="round"/>
<path d="M5.41007 5.70279C5.39883 5.85894 5.37549 6.02403 5.32709 6.17989C5.20638 6.57344 4.97503 6.90389 4.6754 7.14071C4.39076 7.36629 4.04993 7.50833 3.69153 7.55644C3.62873 7.56537 3.56333 7.57114 3.49908 7.57171C3.29395 7.58237 3.0871 7.55241 2.87995 7.49047C2.84941 7.48039 2.81888 7.47031 2.78604 7.45705C2.45097 7.34008 2.16949 7.13783 1.95831 6.87969C1.53941 6.39337 1.37461 5.70337 1.57542 5.03872C1.72437 4.55067 2.05166 4.15482 2.46653 3.91743C2.92058 3.65151 3.47719 3.57026 4.02171 3.73362C4.28993 3.81601 4.52589 3.9494 4.72957 4.12053C5.18189 4.51264 5.43571 5.09634 5.41007 5.70279Z" stroke="black" stroke-miterlimit="10" stroke-linecap="round" stroke-linejoin="round"/>
<path d="M14.7699 13.0759C14.8678 13.2546 14.9949 13.4165 15.1513 13.5617L15.1608 13.5686C15.0266 13.6573 14.8819 13.7256 14.7321 13.7743C14.3576 13.9083 13.9459 13.9212 13.5584 13.8146C13.2988 13.7443 13.0536 13.6176 12.8332 13.4355C12.8096 13.4156 12.786 13.396 12.7632 13.371C11.9926 12.6688 11.911 11.483 12.5846 10.6732C12.8456 10.358 13.1899 10.1442 13.5567 10.0439C13.654 10.3617 13.8376 10.6585 14.0997 10.8979C14.1225 10.923 14.1441 10.9397 14.1729 10.9601C14.3386 11.0987 14.5175 11.2044 14.7096 11.2773C14.4316 11.8552 14.4596 12.5291 14.7699 13.0759Z" stroke="black" stroke-miterlimit="10" stroke-linecap="round" stroke-linejoin="round"/>
<path d="M18.2368 11.2405C18.567 11.9164 18.4999 12.7521 17.9876 13.3704C17.5218 13.9319 16.813 14.1659 16.1464 14.0449C16.0807 14.0371 16.0159 14.0244 15.9493 14.0031C15.8442 13.9731 15.7399 13.938 15.6402 13.8901C15.493 13.8216 15.3564 13.7357 15.2265 13.6268C15.2028 13.6069 15.1812 13.5902 15.1628 13.5712L15.1605 13.5683L15.151 13.5614C14.9945 13.4162 14.8672 13.2543 14.7695 13.0757C14.4593 12.5289 14.4313 11.855 14.7093 11.2773C14.7695 11.303 14.8315 11.318 14.8926 11.3384C15.2443 11.4338 15.6111 11.4352 15.964 11.3355C16.3285 11.2321 16.6696 11.0207 16.9338 10.7035C17.0395 10.5755 17.1282 10.4367 17.1962 10.2949C17.3884 10.3678 17.5702 10.4715 17.7335 10.6069C17.949 10.7884 18.1158 11.0048 18.2368 11.2405Z" stroke="black" stroke-miterlimit="10" stroke-linecap="round" stroke-linejoin="round"/>
<path d="M17.1828 8.57321C17.4439 9.10966 17.4591 9.74664 17.1961 10.2946C17.1281 10.4366 17.0396 10.5752 16.9336 10.7031C16.6694 11.0203 16.3283 11.2321 15.9639 11.3352C15.611 11.4349 15.2442 11.4338 14.8924 11.3381C14.8313 11.3177 14.7694 11.3027 14.7092 11.277C14.517 11.2039 14.3384 11.0981 14.1725 10.9598C14.1436 10.9391 14.122 10.9224 14.0993 10.8976C13.8371 10.6582 13.6533 10.3615 13.5562 10.0437C13.3603 9.43175 13.4787 8.73022 13.9186 8.19666C14.2482 7.80397 14.7005 7.56715 15.1779 7.51097C15.6982 7.43751 16.241 7.57896 16.6789 7.94514C16.8953 8.12088 17.0621 8.33725 17.1828 8.57321Z" stroke="black" stroke-miterlimit="10" stroke-linecap="round" stroke-linejoin="round"/>
<path d="M3.39089 6.93704C2.97602 6.86963 2.5986 6.60054 2.39923 6.23033C2.20015 5.86011 2.18344 5.39714 2.35573 5.01367" stroke="black" stroke-width="0.5" stroke-miterlimit="10" stroke-linecap="round" stroke-linejoin="round"/>
<path d="M2.96093 6.11298C2.79614 6.00235 2.71172 5.78454 2.75926 5.5918" stroke="black" stroke-width="0.5" stroke-miterlimit="10" stroke-linecap="round" stroke-linejoin="round"/>
<path d="M3.55654 5.53966C3.54877 5.48521 3.55712 5.42875 3.58017 5.37891" stroke="black" stroke-width="0.5" stroke-miterlimit="10" stroke-linecap="round" stroke-linejoin="round"/>
<path d="M2.62683 9.51144C2.41104 9.37229 2.20678 9.20721 2.06331 8.9943C1.91983 8.78139 1.84204 8.5149 1.89419 8.26367" stroke="black" stroke-width="0.5" stroke-miterlimit="10" stroke-linecap="round" stroke-linejoin="round"/>
<path d="M2.47559 8.31441C2.48625 8.27494 2.49719 8.23576 2.50785 8.19629" stroke="black" stroke-width="0.5" stroke-miterlimit="10" stroke-linecap="round" stroke-linejoin="round"/>
<path d="M6.1123 8.88854C6.39637 8.76725 6.63147 8.53533 6.75708 8.25299C6.8824 7.97065 6.89681 7.64077 6.79655 7.34863" stroke="black" stroke-width="0.5" stroke-miterlimit="10" stroke-linecap="round" stroke-linejoin="round"/>
<path d="M6.31543 8.09547C6.36815 7.99867 6.38861 7.88458 6.37247 7.77539" stroke="black" stroke-width="0.5" stroke-miterlimit="10" stroke-linecap="round" stroke-linejoin="round"/>
<path d="M5.28637 7.94823C5.23509 7.86728 5.18409 7.78603 5.13281 7.70508" stroke="black" stroke-width="0.5" stroke-miterlimit="10" stroke-linecap="round" stroke-linejoin="round"/>
<path d="M12.6773 11.7412C12.6672 12.1013 12.7986 12.4635 13.0371 12.7334C13.2757 13.0034 13.6188 13.1786 13.9775 13.2128" stroke="black" stroke-width="0.5" stroke-miterlimit="10" stroke-linecap="round" stroke-linejoin="round"/>
<path d="M13.2061 12.0537C13.2539 12.2617 13.4074 12.4424 13.6048 12.5233" stroke="black" stroke-width="0.5" stroke-miterlimit="10" stroke-linecap="round" stroke-linejoin="round"/>
<path d="M13.5068 10.9805C13.5524 11.0104 13.5979 11.0404 13.6434 11.0704" stroke="black" stroke-width="0.5" stroke-miterlimit="10" stroke-linecap="round" stroke-linejoin="round"/>
<path d="M15.9561 13.4339C16.2828 13.544 16.6487 13.4515 16.9468 13.2786C17.171 13.1484 17.3721 12.9703 17.5003 12.745C17.6285 12.5198 17.6783 12.2443 17.6063 11.9951" stroke="black" stroke-width="0.5" stroke-miterlimit="10" stroke-linecap="round" stroke-linejoin="round"/>
<path d="M16.6074 12.8647C16.8111 12.8226 16.9696 12.6218 16.9632 12.4141" stroke="black" stroke-width="0.5" stroke-miterlimit="10" stroke-linecap="round" stroke-linejoin="round"/>
<path d="M16.376 12.1561C16.4417 12.1031 16.4886 12.027 16.5065 11.9443" stroke="black" stroke-width="0.5" stroke-miterlimit="10" stroke-linecap="round" stroke-linejoin="round"/>
<path d="M15.3824 10.9018C14.9615 10.8488 14.5714 10.5889 14.3605 10.221C14.1494 9.8528 14.1223 9.38521 14.2891 8.99512" stroke="black" stroke-width="0.5" stroke-miterlimit="10" stroke-linecap="round" stroke-linejoin="round"/>
<path d="M15.0884 10.0668C14.8729 9.96914 14.7257 9.73751 14.7286 9.50098" stroke="black" stroke-width="0.5" stroke-miterlimit="10" stroke-linecap="round" stroke-linejoin="round"/>
<path d="M15.6164 9.39497C15.5994 9.32841 15.5824 9.26186 15.5654 9.19531" stroke="black" stroke-width="0.5" stroke-miterlimit="10" stroke-linecap="round" stroke-linejoin="round"/>
<path d="M16.5723 10.1266C16.85 9.72157 16.8552 9.14825 16.5847 8.73828" stroke="black" stroke-width="0.5" stroke-miterlimit="10" stroke-linecap="round" stroke-linejoin="round"/>
<path d="M16.3899 9.2826C16.3632 9.19156 16.3364 9.10081 16.3096 9.00977" stroke="black" stroke-width="0.5" stroke-miterlimit="10" stroke-linecap="round" stroke-linejoin="round"/>
<path d="M15.6693 8.45848C15.5932 8.40489 15.5036 8.37061 15.4111 8.35938" stroke="black" stroke-width="0.5" stroke-miterlimit="10" stroke-linecap="round" stroke-linejoin="round"/>
<path d="M6.3806 22.2716L6.37109 22.293L7.00175 23.7346L7.05534 23.6496C7.41258 23.0832 7.81766 22.5508 8.25989 22.0671C8.4244 21.8853 8.59668 21.7073 8.77156 21.5376C9.27689 21.0475 9.83783 20.5989 10.4382 20.2045L10.5419 20.1365L8.63385 19.6914L8.61627 19.7009C7.23482 20.456 6.51168 21.9749 6.3806 22.2716Z" fill="#FEE25A"/>
<path d="M13.3911 40.4504L13.307 40.4262C13.1999 40.393 13.0938 40.3556 12.9884 40.3202L12.8965 40.2888C12.8299 40.266 12.7611 40.2435 12.6963 40.2182C12.5718 40.1732 12.4502 40.1211 12.3292 40.071L12.1941 40.0148C12.1359 39.9903 12.0754 39.9664 12.0189 39.9396C11.8806 39.8776 11.7478 39.8102 11.6153 39.7428L11.4995 39.6855C11.4525 39.6636 11.4076 39.6411 11.362 39.6166C11.1434 39.5017 10.9319 39.3792 10.7305 39.2525L10.7063 39.2372C10.5075 39.1124 10.3096 38.9811 10.1218 38.8457C10.082 38.816 10.0425 38.7883 10.0051 38.7584L9.89042 38.6705C9.77316 38.5809 9.65389 38.4919 9.53807 38.3977C9.49284 38.3602 9.44646 38.3187 9.40065 38.2792L9.28051 38.1729C9.18111 38.0868 9.08229 38.0027 8.98635 37.9116C8.9345 37.8624 8.88235 37.8111 8.83222 37.7595L8.76452 37.6935C8.68385 37.6149 8.6052 37.5359 8.52827 37.4544L8.46777 37.3916L8.55161 37.366C8.6873 37.3271 8.81983 37.2951 8.94343 37.2735C11.0103 36.9108 12.9979 38.2974 13.3733 40.364L13.3911 40.4504Z" fill="#ED5ABC"/>
<path d="M26.8169 34.5088L26.7774 34.5912C26.7411 34.6667 26.7022 34.7404 26.6636 34.8162L26.6333 34.8776C26.6045 34.9346 26.5772 34.9888 26.5481 35.0435C26.4956 35.1392 26.4409 35.2328 26.3867 35.3287L26.3303 35.425C26.3038 35.4708 26.2772 35.5163 26.2507 35.5621C26.1822 35.6756 26.1087 35.7857 26.0355 35.8977L25.9914 35.966C25.9693 36 25.9471 36.0343 25.9249 36.0663C25.8166 36.2233 25.7054 36.3768 25.5895 36.5287L25.5668 36.5586C25.4492 36.7131 25.3231 36.8669 25.194 37.017C25.1652 37.0501 25.1364 37.0833 25.1052 37.1147L25.026 37.2043C24.9485 37.2913 24.871 37.3783 24.7909 37.4636C24.7509 37.505 24.7082 37.5451 24.6679 37.5866L24.6126 37.6396C24.5247 37.7286 24.4458 37.8093 24.3645 37.8859C24.3158 37.9291 24.2695 37.9718 24.2211 38.0147L24.1669 38.0631C24.1055 38.1193 24.0436 38.1732 23.9819 38.2273L23.9105 38.2872L23.8918 38.1804C23.8529 37.9585 23.8382 37.7387 23.8474 37.5212C23.882 36.6108 24.315 35.7704 25.0041 35.2071C25.4063 34.8796 25.8967 34.6468 26.4452 34.5506C26.5435 34.5333 26.6365 34.5212 26.7258 34.5143L26.8169 34.5088Z" fill="white"/>
<path d="M27.7359 27.7536C27.7771 27.9881 27.8134 28.2321 27.8391 28.4759C27.8667 28.7193 27.8849 28.9579 27.8947 29.1979L27.8981 29.2295C27.9062 29.4482 27.9105 29.6807 27.9045 29.917L27.9039 29.9625C27.8987 30.1791 27.8846 30.4062 27.8641 30.6343L27.8595 30.6934L27.8445 30.7069C27.3447 31.1293 26.7293 31.4122 26.0655 31.5286C25.9419 31.5502 25.8195 31.5655 25.6962 31.5761C23.7558 31.7245 21.9756 30.375 21.6322 28.4191C21.3522 26.8233 22.109 25.2811 23.4156 24.4862C23.8111 24.2442 24.2577 24.0708 24.7417 23.9858C25.2862 23.8901 25.8339 23.9129 26.3677 24.0523L26.3882 24.0575L26.4003 24.0771C26.4254 24.1224 26.451 24.1696 26.4761 24.2148L26.54 24.333C26.5709 24.3857 26.5997 24.439 26.6285 24.4923C26.6576 24.5476 26.6847 24.6032 26.7117 24.6591L26.7783 24.7919C26.8016 24.8397 26.8252 24.8873 26.8486 24.9348C26.8768 24.9968 26.9053 25.061 26.9316 25.1252L26.9886 25.2534C27.0091 25.2972 27.0278 25.3416 27.0462 25.3857C27.075 25.4519 27.0995 25.5168 27.1243 25.5836L27.1793 25.7251C27.1952 25.7654 27.2104 25.8037 27.2263 25.8443C27.2522 25.9195 27.279 25.997 27.3049 26.0722C27.3049 26.0722 27.3726 26.2739 27.3836 26.3111C27.4104 26.3906 27.4337 26.4727 27.4562 26.5531L27.4908 26.6764C27.5017 26.7133 27.5121 26.7481 27.5227 26.7853C27.5498 26.8907 27.5746 26.9942 27.5997 27.0999C27.5997 27.0999 27.6342 27.2362 27.6394 27.2656C27.6766 27.4272 27.7071 27.5902 27.7359 27.7536Z" fill="white"/>
<path d="M18.2719 38.772C19.976 38.473 21.1192 36.8432 20.8202 35.1388C20.5211 33.4344 18.8913 32.2915 17.1869 32.5905C15.4828 32.8896 14.3393 34.5194 14.6383 36.2238C14.9374 37.9282 16.5675 39.0714 18.2719 38.772Z" fill="white"/>
<path d="M23.6082 20.8643L23.5681 20.9058C23.021 21.4659 22.3149 21.8338 21.5255 21.9724C21.4126 21.9923 21.3008 22.0075 21.1878 22.0165C19.4673 22.1631 17.8677 21.1294 17.2768 19.5342C17.1939 19.3198 17.1325 19.0934 17.0913 18.8586C17.0729 18.754 17.0599 18.6416 17.049 18.5186L17.0449 18.459L17.3232 18.4705L17.4869 18.4806C17.5549 18.4861 17.6252 18.493 17.6929 18.4985L17.7721 18.5062C17.8248 18.512 17.8775 18.5157 17.9282 18.5221C17.9965 18.5296 18.0651 18.5391 18.1337 18.5486L18.2244 18.5607C18.2731 18.5673 18.3218 18.5739 18.3682 18.5809C18.437 18.5924 18.5039 18.6045 18.571 18.6166C18.571 18.6166 18.7646 18.6494 18.8049 18.6575C18.881 18.6722 18.9553 18.6895 19.0314 18.7062C19.0314 18.7062 19.2019 18.7433 19.238 18.752C19.3143 18.7687 19.3912 18.7897 19.4658 18.809C19.4658 18.809 19.6355 18.8525 19.6672 18.862C19.7741 18.8929 19.879 18.9243 19.9841 18.9574L20.0913 18.9902C20.3748 19.0807 20.656 19.1827 20.9308 19.2962L21.0106 19.3319C21.1201 19.3775 21.2299 19.425 21.3376 19.4731L21.484 19.5446C21.5687 19.5837 21.6557 19.6244 21.7387 19.6681C21.7692 19.6823 21.798 19.6987 21.8289 19.7148L21.9006 19.754C21.979 19.7943 22.055 19.8347 22.1314 19.8753C22.1651 19.8952 22.3163 19.983 22.3163 19.983C22.3835 20.0208 22.4509 20.0608 22.5163 20.1012C22.5526 20.1228 22.669 20.1974 22.669 20.1974C22.7516 20.2498 22.8219 20.2936 22.8905 20.3397C22.9271 20.3636 22.9614 20.3878 22.996 20.412L23.0452 20.4466C23.1167 20.4967 23.1875 20.5446 23.257 20.595C23.2913 20.6192 23.4111 20.7105 23.4111 20.7105C23.4607 20.75 23.6082 20.8643 23.6082 20.8643Z" fill="white"/>
<path d="M27.7461 30.9206C27.2655 31.2813 26.6913 31.5268 26.084 31.6334C25.9541 31.6561 25.8233 31.6726 25.6928 31.6803C23.7032 31.831 21.88 30.4458 21.5274 28.4375C21.2399 26.7999 22.0154 25.2176 23.3551 24.3997C23.7639 24.1465 24.2249 23.9684 24.7233 23.8811C25.205 23.7967 25.6988 23.8071 26.1935 23.9079L26.3128 23.9344L26.2491 23.829C25.5819 22.733 24.7325 21.7682 23.7291 20.958L23.6913 20.9281L23.6568 20.9644C23.0904 21.5495 22.3615 21.9341 21.5447 22.0776C21.4629 22.092 21.381 22.1041 21.2984 22.1122L21.2961 22.1125C19.4562 22.3167 17.7317 21.1989 17.1399 19.4746C17.0759 19.283 17.0235 19.0828 16.9875 18.8777C16.9691 18.7731 16.9549 18.6547 16.9434 18.5034L16.9394 18.4564L16.8916 18.4541C16.1575 18.4406 15.4245 18.4959 14.7147 18.6204L14.6896 18.6247C14.2061 18.7117 13.7325 18.8293 13.2419 18.9845L13.2013 18.9981L13.2064 19.0404C13.3983 20.7356 12.2321 22.294 10.5504 22.589C10.2447 22.6426 9.9333 22.6521 9.62676 22.6152C9.18165 22.5639 8.74834 22.4196 8.3522 22.1914L8.31388 22.1701L8.28536 22.2032C7.13468 23.4824 6.28305 25.037 5.82439 26.704L5.80566 26.7699L5.87481 26.7708C6.79961 26.7639 7.6573 27.0753 8.33405 27.6106C9.07274 28.1911 9.60083 29.0353 9.77398 30.0214C9.97018 31.1396 9.66854 32.2372 9.02664 33.0817C8.45332 33.8362 7.60717 34.3908 6.60573 34.5752L6.53687 34.5893L6.56712 34.651C7.02866 35.6083 7.6354 36.4948 8.36546 37.2839L8.38735 37.3102L8.4202 37.3001C8.6017 37.2401 8.77341 37.1972 8.92639 37.1701C11.0644 36.795 13.1082 38.2321 13.4839 40.3721C13.4868 40.3888 13.5 40.4879 13.5 40.4879L13.534 40.4971C15.1799 40.9832 16.8864 41.0765 18.6035 40.7752C18.7648 40.7469 18.9209 40.7152 19.0785 40.6786L19.0808 40.6784C20.2177 40.4291 21.3067 40.0048 22.3053 39.4217C22.3073 39.4214 22.309 39.4188 22.309 39.4188C22.8322 39.1154 23.3324 38.7685 23.7979 38.3825L23.8221 38.3609L23.8144 38.3297C23.8046 38.2862 23.7951 38.2445 23.787 38.1987C23.7564 38.0249 23.7415 37.8526 23.7394 37.6824C23.7233 36.619 24.2384 35.6305 25.0708 35.0226C25.4586 34.7365 25.9198 34.5346 26.4266 34.4458C26.5649 34.4216 26.6962 34.4092 26.834 34.4067L26.8662 34.4052L26.8803 34.3747C27.3796 33.2963 27.6986 32.1502 27.8322 30.9676L27.8455 30.8466L27.7461 30.9206ZM23.146 22.8022L23.1549 22.8523L23.1529 22.8526L23.146 22.8022ZM14.2364 23.2502C16.1753 22.9099 18.0316 24.2116 18.3718 26.1508C18.7121 28.09 17.4101 29.944 15.4709 30.2842C13.5317 30.6245 11.6763 29.3248 11.3358 27.3856C10.9955 25.4464 12.2975 23.5904 14.2364 23.2502ZM18.2914 38.8763C16.5283 39.1857 14.8446 38.0048 14.5352 36.2416C14.226 34.4804 15.4067 32.7947 17.1699 32.4853C18.931 32.1762 20.617 33.3588 20.9261 35.12C21.2356 36.8832 20.0526 38.5674 18.2914 38.8763ZM24.8216 32.349C24.9538 32.3516 25.0875 32.3519 25.2223 32.3456C25.0875 32.3519 24.9538 32.3539 24.8195 32.3513C24.8195 32.3513 24.8195 32.3493 24.8216 32.349Z" fill="#C92C1E"/>
<path d="M11.4412 27.3667C11.7714 29.2486 13.5712 30.5105 15.4528 30.1804C17.3344 29.8502 18.5965 28.0507 18.2661 26.1688C17.9359 24.2872 16.1361 23.0251 14.2548 23.3552C12.373 23.6857 11.1108 25.4852 11.4412 27.3667Z" fill="white"/>
<path d="M13.1012 19.0332L13.1084 19.0989C13.2698 20.7434 12.1632 22.1983 10.5319 22.4847C10.2493 22.5342 9.95946 22.544 9.67338 22.5123C9.24526 22.4708 8.82492 22.3398 8.44433 22.1257L8.38672 22.0926L8.43224 22.0436C8.51233 21.9583 8.59473 21.8748 8.67712 21.7912L8.74453 21.7212C8.78833 21.6745 8.83385 21.6279 8.87994 21.5829C8.97242 21.4953 9.0675 21.4098 9.16084 21.3265L9.27464 21.2245C9.3193 21.1845 9.36396 21.1441 9.40919 21.1058C9.52385 21.0079 9.64169 20.9183 9.75952 20.8264L9.85603 20.7489C9.89205 20.7209 9.92778 20.6909 9.96609 20.6627C10.1571 20.5213 10.3513 20.3858 10.5432 20.2614C10.7388 20.1343 10.9439 20.0119 11.1522 19.8955C11.1539 19.8932 11.156 19.8926 11.156 19.8926C11.1949 19.8684 11.2366 19.8482 11.2781 19.8258L11.3945 19.7644C11.523 19.6964 11.6515 19.6287 11.7826 19.5648C11.8385 19.5377 11.8964 19.5123 11.9526 19.4875L12.0949 19.4259C12.2067 19.374 12.3187 19.3239 12.4337 19.2778C12.4982 19.2513 12.5651 19.2268 12.6319 19.202L12.7434 19.1608C12.8405 19.1242 12.9379 19.0879 13.0378 19.0551L13.1012 19.0332Z" fill="white"/>
<path d="M9.66831 30.0397C9.85096 31.0803 9.59369 32.0991 9.02872 32.902C9.01489 32.9216 8.99876 32.9418 8.98522 32.9614C8.42169 33.7358 7.5666 34.3005 6.55334 34.4782L6.54413 34.4258L6.54499 34.4797L6.50494 34.4866L6.47123 34.4537C6.44444 34.4001 6.33496 34.1561 6.33496 34.1561C6.3099 34.0999 6.28714 34.0435 6.26409 33.9873L6.19235 33.8121C6.16988 33.7577 6.11342 33.6079 6.11342 33.6079L6.06011 33.4638C6.04254 33.4128 6.02468 33.3598 6.00653 33.3071L5.94142 33.1092C5.92125 33.0438 5.90108 32.9781 5.88092 32.9127C5.88092 32.9127 5.84317 32.7833 5.83309 32.7505C5.8158 32.6888 5.80025 32.6246 5.78498 32.5623L5.73859 32.3849C5.71727 32.3002 5.69797 32.2149 5.67867 32.1299L5.65417 32.0155C5.62825 31.8928 5.60404 31.7675 5.58215 31.6419C5.54729 31.4431 5.51617 31.2411 5.4914 31.0383C5.48736 31.0023 5.48477 30.9639 5.48074 30.9279L5.46835 30.7963C5.45625 30.6776 5.44357 30.5566 5.4355 30.4373C5.43118 30.3883 5.42946 30.3414 5.42975 30.2938L5.42225 30.1397C5.41736 30.0391 5.41275 29.9386 5.41016 29.8375C5.41016 29.7879 5.41015 29.7381 5.41217 29.6882L5.41476 29.5064C5.41448 29.418 5.41563 29.3272 5.41937 29.2379C5.42023 29.1817 5.42542 29.1247 5.42859 29.0679L5.43983 28.9236C5.44502 28.83 5.44991 28.7361 5.45942 28.6418C5.4646 28.5848 5.47123 28.5255 5.48074 28.4675L5.50062 28.2978C5.51013 28.2163 5.51906 28.1328 5.53289 28.0504C5.54182 27.9904 5.55276 27.9302 5.56371 27.87L5.59223 27.7009C5.60635 27.6208 5.62047 27.5407 5.63632 27.46C5.64899 27.3975 5.66398 27.3344 5.67867 27.2713L5.719 27.1066C5.7334 27.0414 5.74838 26.9783 5.76481 26.9129L5.77518 26.8743L5.81408 26.874C6.74926 26.8524 7.63142 27.1812 8.32229 27.7461C8.32229 27.7461 8.32431 27.7458 8.32258 27.7482C9.01144 28.3137 9.50582 29.114 9.66831 30.0397Z" fill="white"/>
<path d="M6.72205 21.4175L6.73616 21.3953C6.79493 21.3037 6.86091 21.2078 6.93149 21.1098L6.98307 21.0378L6.89519 21.026C6.24984 20.9395 4.11183 20.5909 3.69005 19.7344C3.57135 19.4933 3.59614 19.2317 3.7641 18.9571C3.91708 18.7073 4.12221 18.5581 4.37401 18.514C4.40369 18.5088 4.43422 18.5051 4.46534 18.5028C5.53593 18.4204 7.09312 20.1164 7.39447 20.4573L7.43251 20.5002L7.47255 20.459C7.59931 20.3273 7.73098 20.204 7.86351 20.0928L7.89952 20.0626L7.87416 20.0231C6.58231 18.034 5.17724 17.0608 3.91737 17.2818C3.78686 17.3045 3.65721 17.3408 3.53189 17.3895C2.48521 17.7972 1.94646 19.0078 2.10002 19.8828C2.41895 21.6998 6.25878 21.4532 6.69583 21.4192L6.72205 21.4175Z" fill="#E8B21A"/>
<path d="M6.54499 34.4797L6.50494 34.4866L6.47123 34.4537C6.44444 34.4001 6.33496 34.1561 6.33496 34.1561C6.3099 34.0999 6.28714 34.0435 6.26409 33.9873L6.19235 33.8121C6.16988 33.7577 6.11342 33.6079 6.11342 33.6079L6.06011 33.4638C6.04254 33.4128 6.02468 33.3598 6.00653 33.3071L5.94142 33.1092C5.92125 33.0438 5.90108 32.9781 5.88092 32.9127C5.88092 32.9127 5.84317 32.7833 5.83309 32.7505C5.8158 32.6888 5.80025 32.6246 5.78498 32.5623L5.73859 32.3849C5.71727 32.3002 5.69797 32.2149 5.67867 32.1299L5.65417 32.0155C5.62825 31.8928 5.60404 31.7675 5.58215 31.6419C5.54729 31.4431 5.51617 31.2411 5.4914 31.0383C5.48736 31.0023 5.48477 30.9639 5.48074 30.9279L5.46835 30.7963C5.45625 30.6776 5.44357 30.5566 5.4355 30.4373C5.43118 30.3883 5.42946 30.3414 5.42975 30.2938L5.42225 30.1397C5.41736 30.0391 5.41275 29.9386 5.41016 29.8375C5.41016 29.7879 5.41015 29.7381 5.41217 29.6882L5.41476 29.5064C5.41448 29.418 5.41563 29.3272 5.41937 29.2379C5.42023 29.1817 5.42542 29.1247 5.42859 29.0679L5.43983 28.9236C5.44502 28.83 5.44991 28.7361 5.45942 28.6418C5.4646 28.5848 5.47123 28.5255 5.48074 28.4675L5.50062 28.2978C5.51013 28.2163 5.51906 28.1328 5.53289 28.0504C5.54182 27.9904 5.55276 27.9302 5.56371 27.87L5.59223 27.7009C5.60635 27.6208 5.62047 27.5407 5.63632 27.46C5.64899 27.3975 5.66398 27.3344 5.67867 27.2713L5.719 27.1066C5.7334 27.0414 5.74838 26.9783 5.76481 26.9129L5.77518 26.8743L5.81408 26.874C6.74926 26.8524 7.63143 27.1812 8.32229 27.7461C8.32229 27.7461 8.32431 27.7458 8.32258 27.7482C8.23702 28.9697 8.30414 30.2878 8.61875 31.6614C8.72189 32.1138 8.84347 32.5479 8.98522 32.9614C8.42169 33.7358 7.5666 34.3005 6.55334 34.4782L6.54413 34.4258L6.54499 34.4797Z" fill="#E2E2E2"/>
<path d="M5.87481 26.7706L5.80566 26.7698L5.82439 26.7038C6.28305 25.0368 7.13468 23.4819 8.28536 22.2031L8.31388 22.1699L8.3522 22.1912C8.74834 22.4194 9.18165 22.5638 9.62676 22.615C9.0497 23.9273 8.49423 25.6436 8.33405 27.6102C7.6573 27.0751 6.79961 26.7637 5.87481 26.7706Z" fill="#A3180B"/>
<path d="M13.3739 40.3656L13.3911 40.4512L13.307 40.427C13.1999 40.3939 13.0938 40.3564 12.9884 40.321L12.8965 40.2896C12.8299 40.2668 12.7611 40.2443 12.6963 40.219C12.5718 40.174 12.4502 40.1219 12.3292 40.0718L12.1941 40.0156C12.1359 39.9911 12.0754 39.9672 12.0189 39.9404C11.8806 39.8784 11.7478 39.811 11.6153 39.7436L11.4995 39.6863C11.4525 39.6644 11.4076 39.6419 11.362 39.6174C11.1434 39.5025 10.9319 39.38 10.7305 39.2533L10.7063 39.238C10.5075 39.1132 10.3096 38.9819 10.1218 38.8465C10.082 38.8168 10.0425 38.7891 10.0051 38.7592L9.89042 38.6713C9.77316 38.5817 9.65389 38.4927 9.53807 38.3985C9.49284 38.361 9.44646 38.3195 9.40065 38.2801L9.28051 38.1737C9.18111 38.0876 9.08229 38.0035 8.98635 37.9124C8.9345 37.8632 8.88235 37.8119 8.83222 37.7603L8.76452 37.6943C8.68385 37.6157 8.6052 37.5367 8.52827 37.4552L8.46777 37.3924L8.55161 37.3668C8.6873 37.3279 8.81983 37.2959 8.94343 37.2743C11.0109 36.9121 12.9982 38.2988 13.3739 40.3656Z" fill="#E2E2E2"/>
<path d="M8.44336 22.1257L8.38574 22.0926L8.43126 22.0436C8.51135 21.9583 8.59375 21.8748 8.67615 21.7912L8.74357 21.7212C8.78736 21.6745 8.83288 21.6279 8.87897 21.5829C8.97146 21.4953 9.06652 21.4098 9.15987 21.3265L9.27367 21.2245C9.31833 21.1845 9.36298 21.1441 9.40821 21.1058C9.52288 21.0079 9.64071 20.9183 9.75854 20.8264L9.85507 20.7489C9.89108 20.7209 9.9268 20.691 9.96512 20.6627C10.1561 20.5213 10.3503 20.3859 10.5422 20.2614C10.7378 20.1343 10.9429 20.0119 11.1512 19.8955C11.1025 19.9623 10.3788 20.9312 9.67212 22.5123C9.24429 22.4708 8.82394 22.3395 8.44336 22.1257Z" fill="#E2E2E2"/>
<path d="M19.0778 40.679C18.9202 40.7153 18.7638 40.747 18.6027 40.7755C16.8856 41.0769 15.1792 40.9835 13.5333 40.4975L13.4993 40.4883C13.4993 40.4883 13.486 40.3892 13.4831 40.3725C13.1075 38.2324 11.0637 36.7951 8.92565 37.1705C8.77296 37.1973 8.60125 37.2405 8.41946 37.3004L8.38661 37.3105L8.36472 37.2843C7.63467 36.4949 7.02793 35.6087 6.56639 34.6513L6.53613 34.5897L6.60499 34.5756C7.60644 34.3912 8.45259 33.8369 9.02591 33.082C10.8686 38.3768 15.5347 40.4762 19.0778 40.679Z" fill="#A3180B"/>
<path d="M16.9864 18.8777C17.0224 19.0828 17.0748 19.283 17.1388 19.4746C15.9691 18.9589 15.0469 18.7106 14.6885 18.6247L14.7135 18.6204C15.4234 18.4959 16.1564 18.4406 16.8904 18.4541L16.9383 18.4564L16.9423 18.5034C16.9538 18.6547 16.9682 18.7728 16.9864 18.8777Z" fill="#DE5547"/>
<path d="M23.739 37.6826C23.741 37.8529 23.756 38.0252 23.7866 38.1989C23.7946 38.245 23.8041 38.2865 23.8139 38.33L23.8217 38.3611L23.7975 38.3827C23.3319 38.7688 22.8318 39.1156 22.3086 39.419C22.8128 38.9223 23.3 38.3404 23.739 37.6826Z" fill="#DE5547"/>
<path d="M17.2768 19.5352C17.1939 19.3208 17.1325 19.0944 17.0913 18.8596C17.0729 18.755 17.0599 18.6426 17.049 18.5196L17.0449 18.46L17.3232 18.4715L17.4869 18.4816C17.5549 18.487 17.6252 18.494 17.6929 18.4994L17.7721 18.5072C17.8248 18.513 17.8775 18.5167 17.9282 18.5231C17.9965 18.5305 18.0651 18.5401 18.1337 18.5496L18.2244 18.5617C18.2731 18.5683 18.3218 18.5749 18.3682 18.5818C18.437 18.5934 18.5039 18.6055 18.571 18.6176C18.571 18.6176 18.7646 18.6504 18.8049 18.6585C18.881 18.6732 18.9553 18.6904 19.0314 18.7072C19.0314 18.7072 19.2019 18.7443 19.238 18.753C19.3143 18.7697 19.3912 18.7907 19.4658 18.81C19.4658 18.81 19.6355 18.8535 19.6672 18.863C19.7741 18.8938 19.879 18.9252 19.9841 18.9584L20.0913 18.9912C20.3748 19.0817 20.656 19.1837 20.9308 19.2972L21.0106 19.3329C21.1201 19.3784 21.2299 19.426 21.3376 19.4741L21.484 19.5455C21.5687 19.5847 21.6557 19.6253 21.7387 19.6691C21.7692 19.6832 21.798 19.6997 21.8289 19.7158L21.9006 19.755C21.979 19.7953 22.055 19.8356 22.1314 19.8763C22.1651 19.8961 22.3163 19.984 22.3163 19.984C22.3835 20.0218 22.4509 20.0618 22.5163 20.1021C22.5526 20.1237 22.669 20.1984 22.669 20.1984C22.7516 20.2508 22.8219 20.2946 22.8905 20.3407C22.9271 20.3646 22.9614 20.3888 22.996 20.413L23.0452 20.4476C23.1167 20.4977 23.1875 20.5455 23.257 20.596C23.2913 20.6202 23.4111 20.7115 23.4111 20.7115C23.461 20.7501 23.6085 20.8645 23.6085 20.8645L23.5684 20.9059C23.0213 21.466 22.3152 21.8339 21.5258 21.9725C21.4128 21.9924 21.3011 22.0077 21.1881 22.0166C19.8551 20.8567 18.4509 20.063 17.2768 19.5352Z" fill="white"/>
<path d="M26.725 34.5149L26.8169 34.5098L26.7774 34.5922C26.7411 34.6676 26.7022 34.7414 26.6636 34.8172L26.6333 34.8785C26.6045 34.9356 26.5772 34.9897 26.5481 35.0445C26.4956 35.1401 26.4409 35.2338 26.3867 35.3297L26.3303 35.4259C26.3038 35.4717 26.2772 35.5173 26.2507 35.5631C26.1822 35.6766 26.1087 35.7866 26.0355 35.8987L25.9914 35.967C25.9693 36.001 25.9471 36.0353 25.9249 36.0672C25.8166 36.2243 25.7054 36.3778 25.5895 36.5296L25.5668 36.5596C25.4492 36.714 25.3231 36.8679 25.194 37.018C25.1652 37.0511 25.1364 37.0842 25.1052 37.1156L25.026 37.2052C24.9485 37.2923 24.871 37.3793 24.7909 37.4645C24.7509 37.506 24.7082 37.5461 24.6679 37.5876L24.6126 37.6406C24.5247 37.7296 24.4458 37.8103 24.3645 37.8869C24.3158 37.9301 24.2695 37.9727 24.2211 38.0157L24.1669 38.0641C24.1055 38.1203 24.0436 38.1741 23.9819 38.2283L23.9105 38.2882L23.8918 38.1813C23.8529 37.9595 23.8382 37.7397 23.8474 37.5222C24.2988 36.8232 24.6959 36.0479 25.0041 35.2081C25.4063 34.8805 25.8967 34.6478 26.4452 34.5515C26.5426 34.534 26.6356 34.5219 26.725 34.5149Z" fill="white"/>
<path d="M21.5445 22.0782C22.3612 21.9348 23.0901 21.5501 23.6565 20.965L23.6911 20.9287L23.7289 20.9587C24.7323 21.7691 25.5816 22.7337 26.2489 23.8296L26.3126 23.9351L26.1933 23.9085C25.6986 23.8077 25.2045 23.7971 24.7231 23.8818C24.2247 23.9693 23.7637 24.1474 23.3549 24.4003C22.7268 23.5156 22.0221 22.7584 21.2979 22.1128C21.3808 22.1047 21.4629 22.0924 21.5445 22.0782Z" fill="#DE5547"/>
<path d="M27.7456 30.9211L27.845 30.8477L27.8318 30.9687C27.6984 32.1513 27.3792 33.2974 26.8799 34.3758L26.8658 34.4063L26.8335 34.4077C26.6958 34.4103 26.5641 34.4227 26.4261 34.4469C25.9194 34.5359 25.4584 34.7376 25.0703 35.0237C25.4333 33.9929 25.6592 32.8696 25.6923 31.6809C25.8226 31.6731 25.9536 31.6566 26.0836 31.6339C26.6906 31.527 27.2651 31.2815 27.7456 30.9211Z" fill="#DE5547"/>
<path d="M27.7361 27.7536C27.7773 27.9881 27.8136 28.2321 27.8392 28.4759C27.8669 28.7193 27.8851 28.9579 27.8949 29.1979L27.8983 29.2295C27.9064 29.4482 27.9107 29.6807 27.9046 29.917L27.9041 29.9625C27.8989 30.1791 27.8848 30.4062 27.8643 30.6343L27.8597 30.6934L27.8447 30.7069C27.3449 31.1293 26.7295 31.4122 26.0657 31.5286C25.9421 31.5502 25.8196 31.5655 25.6963 31.5761C25.7269 29.7576 25.3005 27.7838 24.1997 25.7539C23.9565 25.3044 23.6926 24.8824 23.416 24.4862C23.8116 24.2442 24.2581 24.0708 24.7421 23.9858C25.2867 23.8901 25.8343 23.9129 26.3682 24.0523L26.3887 24.0575L26.4008 24.0771C26.4258 24.1224 26.4515 24.1696 26.4765 24.2148L26.5405 24.333C26.5713 24.3857 26.6001 24.439 26.6289 24.4923C26.658 24.5476 26.6851 24.6032 26.7122 24.6591L26.7787 24.7919C26.8021 24.8397 26.8257 24.8873 26.849 24.9348C26.8773 24.9968 26.9058 25.061 26.932 25.1252L26.9891 25.2534C27.0095 25.2972 27.0282 25.3416 27.0467 25.3857C27.0755 25.4519 27.1 25.5168 27.1248 25.5836L27.1798 25.7251C27.1956 25.7654 27.2109 25.8037 27.2267 25.8443C27.2527 25.9195 27.2795 25.997 27.3054 26.0722C27.3054 26.0722 27.3731 26.2739 27.384 26.3111C27.4108 26.3906 27.4342 26.4727 27.4566 26.5531L27.4912 26.6764C27.5022 26.7133 27.5125 26.7481 27.5232 26.7853C27.5503 26.8907 27.5751 26.9942 27.6001 27.0999C27.6001 27.0999 27.6347 27.2362 27.6399 27.2656C27.6768 27.4272 27.7073 27.5902 27.7361 27.7536Z" fill="white"/>
<path d="M27.7887 27.7437C27.9656 28.7509 28.0054 29.7469 27.912 30.7192C27.7962 32.0298 27.4488 33.2931 26.9025 34.4568C26.2059 35.969 25.1748 37.3113 23.8846 38.3824C22.422 39.6069 20.6271 40.4732 18.6127 40.8267C16.8316 41.1393 15.0745 41.0194 13.4522 40.5302C11.4983 39.9581 9.73854 38.8535 8.36948 37.3695C7.59707 36.5432 6.94308 35.5904 6.45446 34.5443C6.02115 33.6466 5.71 32.6751 5.53023 31.6509C5.23867 29.9894 5.32596 28.3496 5.73276 26.8235C6.19603 25.0531 7.07993 23.4374 8.30034 22.1029C9.58729 20.6806 11.2361 19.5817 13.1445 18.9594C13.6492 18.7946 14.1655 18.663 14.7063 18.5679C15.4744 18.4331 16.2396 18.3809 16.9881 18.402C19.475 18.47 21.8135 19.3616 23.6887 20.8563C24.7789 21.7206 25.7104 22.7831 26.4246 24.0125C27.0786 25.1352 27.551 26.3896 27.7887 27.7437Z" stroke="black" stroke-miterlimit="10" stroke-linecap="round" stroke-linejoin="round"/>
<path d="M6.99282 23.8461L6.31348 22.2941C6.31348 22.2941 7.05015 20.4756 8.62694 19.6357L10.671 20.1126" stroke="black" stroke-miterlimit="10" stroke-linecap="round" stroke-linejoin="round"/>
<path d="M6.75533 21.468C6.75533 21.468 2.39807 21.8901 2.04774 19.8929C1.69712 17.8958 4.66861 14.9053 7.97141 20.0733" stroke="black" stroke-miterlimit="10" stroke-linecap="round" stroke-linejoin="round"/>
<path d="M7.43189 20.5804C7.43189 20.5804 4.76291 17.4274 3.80987 18.9849C2.85683 20.5421 7.08358 20.9956 7.08358 20.9956" stroke="black" stroke-miterlimit="10" stroke-linecap="round" stroke-linejoin="round"/>
<path d="M9.72067 30.0294C10.092 32.1461 8.68033 34.1594 6.56364 34.5307C6.52936 34.5368 6.4896 34.5437 6.45445 34.544C6.02115 33.6463 5.71001 32.6748 5.53023 31.6506C5.23867 29.9891 5.32596 28.3492 5.73276 26.8231C7.65325 26.7381 9.38013 28.0891 9.72067 30.0294Z" stroke="black" stroke-miterlimit="10" stroke-linecap="round" stroke-linejoin="round"/>
<path d="M27.7888 27.7441C27.9657 28.7513 28.0055 29.7473 27.9121 30.7197C27.4077 31.1541 26.7808 31.4578 26.0752 31.5817C23.9643 31.9522 21.951 30.5402 21.5805 28.4292C21.21 26.3183 22.622 24.3051 24.7329 23.9346C25.3132 23.8326 25.8882 23.8669 26.4241 24.0132C27.0787 25.1357 27.5511 26.3901 27.7888 27.7441Z" stroke="black" stroke-miterlimit="10" stroke-linecap="round" stroke-linejoin="round"/>
<path d="M20.8721 35.1303C21.1769 36.8661 20.0167 38.5204 18.2806 38.8252C16.5448 39.1298 14.8905 37.9696 14.5857 36.2338C14.2809 34.4979 15.4414 32.8437 17.1772 32.5389C18.9133 32.234 20.5676 33.3942 20.8721 35.1303Z" stroke="black" stroke-miterlimit="10" stroke-linecap="round" stroke-linejoin="round"/>
<path d="M18.3182 26.1604C18.6542 28.074 17.375 29.8976 15.4614 30.2333C13.5478 30.5692 11.7242 29.29 11.3885 27.3765C11.0526 25.4629 12.3318 23.6392 14.2453 23.3036C16.1589 22.9676 17.9823 24.2468 18.3182 26.1604Z" stroke="black" stroke-miterlimit="10" stroke-linecap="round" stroke-linejoin="round"/>
<path d="M23.6887 20.8567C23.1375 21.458 22.3954 21.8754 21.5363 22.0264C19.4253 22.3969 17.4121 20.9849 17.0407 18.8682C17.0136 18.7146 16.9981 18.5591 16.9883 18.4023C19.4749 18.47 21.8134 19.3617 23.6887 20.8567Z" stroke="black" stroke-miterlimit="10" stroke-linecap="round" stroke-linejoin="round"/>
<path d="M13.4324 40.3813C13.4413 40.4326 13.4494 40.4781 13.4528 40.5302C11.4989 39.958 9.73918 38.8535 8.37012 37.3694C8.55306 37.3081 8.7435 37.2571 8.93682 37.2231C11.0477 36.8526 13.0607 38.2646 13.4324 40.3813Z" stroke="black" stroke-miterlimit="10" stroke-linecap="round" stroke-linejoin="round"/>
<path d="M13.144 18.959C13.3825 20.653 12.2356 22.2387 10.5401 22.5364C9.73772 22.6772 8.94429 22.4998 8.2998 22.1025C9.58676 20.6801 11.2356 19.5816 13.144 18.959Z" stroke="black" stroke-miterlimit="10" stroke-linecap="round" stroke-linejoin="round"/>
<path d="M26.9025 34.4563C26.2059 35.9685 25.1748 37.3108 23.8846 38.382C23.8622 38.3215 23.8512 38.2589 23.8394 38.1907C23.5349 36.4551 24.6991 34.8023 26.4346 34.4975C26.594 34.4695 26.7495 34.454 26.9025 34.4563Z" stroke="black" stroke-miterlimit="10" stroke-linecap="round" stroke-linejoin="round"/>
<path d="M6.59277 25.8159C6.83507 25.2097 7.13181 24.6254 7.47811 24.0723" stroke="black" stroke-width="0.5" stroke-miterlimit="10" stroke-linecap="round" stroke-linejoin="round"/>
<path d="M7.72168 25.0373C7.78794 24.935 7.8542 24.8327 7.92046 24.7305" stroke="black" stroke-width="0.5" stroke-miterlimit="10" stroke-linecap="round" stroke-linejoin="round"/>
<path d="M8.53809 26.9346C9.05811 27.2158 9.48018 27.6574 9.79824 28.1555C10.1166 28.6537 10.3364 29.2089 10.515 29.7724" stroke="black" stroke-width="0.5" stroke-miterlimit="10" stroke-linecap="round" stroke-linejoin="round"/>
<path d="M9.90332 27.2754C10.0658 27.4367 10.2127 27.6136 10.3418 27.8026" stroke="black" stroke-width="0.5" stroke-miterlimit="10" stroke-linecap="round" stroke-linejoin="round"/>
<path d="M17.3369 30.285C18.2715 29.6123 18.8979 28.5276 19.0131 27.3818" stroke="black" stroke-width="0.5" stroke-miterlimit="10" stroke-linecap="round" stroke-linejoin="round"/>
<path d="M18.9062 29.8562C18.9895 29.63 19.1258 29.4235 19.3012 29.2578" stroke="black" stroke-width="0.5" stroke-miterlimit="10" stroke-linecap="round" stroke-linejoin="round"/>
<path d="M19.7988 30.0864C19.8919 30.03 19.9777 29.9623 20.0541 29.8848" stroke="black" stroke-width="0.5" stroke-miterlimit="10" stroke-linecap="round" stroke-linejoin="round"/>
<path d="M13.7187 36.729C13.464 35.4792 13.8768 34.113 14.7812 33.2139" stroke="black" stroke-width="0.5" stroke-miterlimit="10" stroke-linecap="round" stroke-linejoin="round"/>
<path d="M13.1621 34.9216C13.1837 34.5623 13.2929 34.2083 13.4776 33.8994" stroke="black" stroke-width="0.5" stroke-miterlimit="10" stroke-linecap="round" stroke-linejoin="round"/>
<path d="M12.3994 34.0848C12.4216 33.9436 12.4631 33.8053 12.5216 33.6748" stroke="black" stroke-width="0.5" stroke-miterlimit="10" stroke-linecap="round" stroke-linejoin="round"/>
<path d="M20.7305 38.4416C21.4576 37.4154 21.795 36.1198 21.6605 34.8691" stroke="black" stroke-width="0.5" stroke-miterlimit="10" stroke-linecap="round" stroke-linejoin="round"/>
<path d="M22.0654 37.692C22.1717 37.4731 22.2423 37.2365 22.2732 36.9951" stroke="black" stroke-width="0.5" stroke-miterlimit="10" stroke-linecap="round" stroke-linejoin="round"/>
<path d="M22.6807 37.5448C22.6942 37.3999 22.7075 37.2553 22.721 37.1104" stroke="black" stroke-width="0.5" stroke-miterlimit="10" stroke-linecap="round" stroke-linejoin="round"/>
<path d="M24.8193 32.3494C25.5053 32.367 26.1945 32.2607 26.8433 32.0371" stroke="black" stroke-width="0.5" stroke-miterlimit="10" stroke-linecap="round" stroke-linejoin="round"/>
<path d="M26.0371 33.0915C26.18 33.0448 26.3192 32.9872 26.4531 32.9189" stroke="black" stroke-width="0.5" stroke-miterlimit="10" stroke-linecap="round" stroke-linejoin="round"/>
<path d="M25.5674 33.7368C25.6982 33.7132 25.8229 33.6573 25.9272 33.5752" stroke="black" stroke-width="0.5" stroke-miterlimit="10" stroke-linecap="round" stroke-linejoin="round"/>
<path d="M21.4873 24.991C22.0468 23.9844 23.1082 23.2736 24.2522 23.1396" stroke="black" stroke-width="0.5" stroke-miterlimit="10" stroke-linecap="round" stroke-linejoin="round"/>
<path d="M22.4775 23.1076C22.6945 23.0036 22.9204 22.9186 23.1517 22.8535" stroke="black" stroke-width="0.5" stroke-miterlimit="10" stroke-linecap="round" stroke-linejoin="round"/>
<path d="M16.3691 19.3418C16.4755 20.2173 16.9347 21.0448 17.6212 21.5985" stroke="black" stroke-width="0.5" stroke-miterlimit="10" stroke-linecap="round" stroke-linejoin="round"/>
<path d="M15.8896 20.7666C16.0268 20.9882 16.1636 21.2097 16.3008 21.4315" stroke="black" stroke-width="0.5" stroke-miterlimit="10" stroke-linecap="round" stroke-linejoin="round"/>
<path d="M15.1963 21.8018C15.2905 21.9847 15.4334 22.1423 15.6065 22.2538" stroke="black" stroke-width="0.5" stroke-miterlimit="10" stroke-linecap="round" stroke-linejoin="round"/>
<path d="M7.12453 22.8107C7.05481 22.6877 6.99344 22.5601 6.94043 22.4287" stroke="black" stroke-width="0.5" stroke-miterlimit="10" stroke-linecap="round" stroke-linejoin="round"/>
<path d="M7.42737 22.3296C7.38473 22.2042 7.32913 22.0835 7.26172 21.9697" stroke="black" stroke-width="0.5" stroke-miterlimit="10" stroke-linecap="round" stroke-linejoin="round"/>
<path d="M7.85742 21.3096C7.91447 21.3643 7.97151 21.4191 8.02884 21.4738" stroke="black" stroke-width="0.5" stroke-miterlimit="10" stroke-linecap="round" stroke-linejoin="round"/>
<path d="M8.63379 20.5645C8.71936 20.584 8.80464 20.6036 8.8902 20.6232" stroke="black" stroke-width="0.5" stroke-miterlimit="10" stroke-linecap="round" stroke-linejoin="round"/>
<path d="M34.5191 9.10764L34.4113 9.04656C34.1157 8.876 33.8101 8.72043 33.498 8.57868C32.3358 8.04454 31.0786 7.70602 29.81 7.58761L29.7109 7.57695L30.7109 6.36318L30.7343 6.36116C31.0595 6.34503 32.7403 6.30469 34.0385 7.19521L34.0558 7.20731L34.4862 8.97079L34.5191 9.10764Z" fill="#FEE25A"/>
<path d="M31.652 6.28051L31.6782 6.2831C31.7866 6.29434 31.9018 6.30989 32.0208 6.32804L32.1081 6.34187L32.079 6.25832C31.8646 5.64351 31.2101 3.5781 31.7837 2.8155C31.8955 2.66655 32.0482 2.57407 32.2377 2.54094C32.321 2.52624 32.4126 2.52279 32.5103 2.53057C32.8364 2.55707 33.0793 2.69824 33.2328 2.95091C33.79 3.86966 32.9802 6.02438 32.8122 6.44703L32.7909 6.50062L32.8462 6.51761C33.0202 6.57091 33.1896 6.63285 33.3495 6.70084L33.3927 6.71928L33.4164 6.67866C34.7292 4.41706 34.8707 2.57148 33.8039 1.61527C33.2977 1.16122 32.5587 0.967033 31.8272 1.09553C31.4835 1.15574 31.1741 1.28337 30.9326 1.4643C29.4567 2.56888 31.4106 5.88379 31.6385 6.25803L31.652 6.28051Z" fill="#E8B21A"/>
<path d="M39.7158 16.3938L39.7028 16.3443L39.6524 16.3532C39.5501 16.3734 39.4501 16.3929 39.3473 16.4111C38.6708 16.5298 37.9964 16.5963 37.3242 16.6174C31.64 16.7969 26.2729 13.7306 23.4674 11.7902C22.4383 11.0795 21.7529 10.5197 21.5247 10.3267L21.4916 10.2979L21.4579 10.3275C20.8079 10.8798 20.2259 11.4998 19.7244 12.1708L19.6754 12.2356L19.6546 12.2653C18.5843 13.7309 17.8808 15.4647 17.6192 17.2829C17.6097 17.3515 17.6022 17.4197 17.5947 17.488L17.582 17.6004L17.5933 17.6156C17.729 17.8118 18.5846 19.0089 20.0629 20.422C20.8949 21.2149 21.9203 22.0755 23.1271 22.8652C25.746 24.5771 29.9897 26.4224 35.3464 25.4823C35.3464 25.4823 35.3464 25.4823 35.3484 25.482C35.4239 25.4687 35.4971 25.4558 35.5723 25.4405L35.5743 25.4402C36.4997 25.2648 37.4418 25.0109 38.3741 24.679L38.3905 24.6742L38.4006 24.6572C39.1076 23.471 39.5879 22.1737 39.8244 20.8026L39.8287 20.7781L39.8126 20.7594C39.7993 20.7444 39.7832 20.7277 39.7671 20.709L39.8304 20.7755L39.8463 20.6692C40.0771 19.24 40.0318 17.8018 39.7158 16.3938ZM27.2879 19.5615L27.2816 19.5131L27.2899 19.5612C27.2931 19.5672 27.294 19.5713 27.2965 19.575C27.294 19.5713 27.2911 19.5675 27.2879 19.5615Z" fill="white"/>
<path d="M39.6683 16.186C39.5631 15.7596 39.4251 15.3177 39.2571 14.8769L39.2035 14.8432L39.2413 14.8365L39.2177 14.7761C38.8495 13.8348 38.358 12.9518 37.7547 12.1468C36.581 10.5764 35.0612 9.38191 33.3513 8.61786C33.351 8.61585 33.351 8.61584 33.349 8.61613C32.1119 8.06067 30.7829 7.73252 29.4095 7.65618C29.4075 7.65646 29.4075 7.65646 29.4052 7.65704C28.5438 7.60748 27.6656 7.6579 26.7881 7.81203C25.2931 8.0745 23.8863 8.63226 22.608 9.46517L22.5443 9.50867L22.5135 9.52913C22.3202 9.65791 22.1609 9.77027 22.0139 9.88004C21.8803 9.97914 21.7518 10.0837 21.6233 10.1883L21.5723 10.2295L21.6227 10.2704C21.85 10.4594 22.525 11.01 23.5415 11.708C26.3288 13.63 31.6714 16.6813 37.3078 16.5122C37.9777 16.4917 38.6504 16.4254 39.3225 16.3076L39.3246 16.3073C39.4251 16.2897 39.5254 16.2699 39.6276 16.2497L39.6821 16.2402L39.6683 16.186ZM24.4588 10.785C24.2361 10.647 24.0318 10.5167 23.8419 10.3946C24.0309 10.5124 24.2375 10.6447 24.4625 10.7821C27.1122 12.4107 32.0964 15.0068 36.9696 15.0278C32.0871 15.0172 27.1142 12.4234 24.4588 10.785ZM37.4329 15.0221C37.6541 15.0157 37.8763 15.0025 38.0978 14.9852C37.8766 15.0048 37.6559 15.0152 37.4329 15.0221Z" fill="#E8B21A"/>
<path d="M38.1644 24.86C37.2563 25.1706 36.3606 25.4054 35.4903 25.5624L35.4882 25.5627C35.4468 25.5722 35.405 25.5794 35.3629 25.5869C29.9708 26.5333 25.6991 24.6756 23.0627 22.9496C21.8918 22.1815 20.8855 21.3437 20.0653 20.5681C18.7861 19.3552 17.9561 18.2921 17.6446 17.8698L17.5622 17.7568L17.5498 17.8948C17.4813 18.6474 17.4919 19.4094 17.5763 20.161L17.5766 20.176L17.5769 20.178L17.5997 20.3575C17.8489 22.2564 18.5893 24.0778 19.7478 25.6229C21.0595 27.3786 22.808 28.669 24.7703 29.408L24.7723 29.4077C26.0604 29.896 27.4378 30.1444 28.8446 30.1282L28.8466 30.1279C28.8489 30.1297 28.8512 30.1294 28.8509 30.1271C28.8555 30.1285 28.8573 30.1259 28.8573 30.1259C29.4741 30.1233 30.0944 30.0663 30.7144 29.9577C32.4565 29.652 34.0633 28.9554 35.4885 27.8894C35.8397 27.6269 36.1759 27.3414 36.5182 27.0159L36.683 26.8597L36.562 26.896C36.5969 26.8856 36.6337 26.8747 36.6683 26.8623L36.6804 26.858L36.6899 26.8499C37.2704 26.2711 37.7882 25.6295 38.2261 24.9398L38.3076 24.8133L38.1644 24.86ZM34.5312 27.4016C34.2756 27.4466 34.0232 27.4843 33.7735 27.5131C32.9604 27.6148 32.1707 27.6413 31.4073 27.6091C32.1702 27.6393 32.9616 27.6105 33.7752 27.5108C34.025 27.482 34.2774 27.4443 34.5306 27.3999C34.6542 27.3783 34.7752 27.3547 34.8985 27.331C34.7758 27.3567 34.6525 27.3803 34.5312 27.4016Z" fill="#E8B21A"/>
<path d="M24.7723 29.4077L24.7703 29.408C22.808 28.6687 21.0595 27.3783 19.7478 25.6229C18.5893 24.0778 17.8489 22.2564 17.5997 20.3575L17.5769 20.1781L17.5766 20.176L17.5763 20.161C17.4919 19.4097 17.4813 18.6474 17.5498 17.8948L17.5622 17.7568L17.6446 17.8698C17.9561 18.2921 18.7861 19.3552 20.0653 20.5681C20.1606 24.5941 22.4588 27.7502 24.7723 29.4077Z" fill="#CC9611"/>
<path d="M23.4671 11.7895C22.478 12.8935 21.5694 14.2468 20.9295 15.8892C20.3052 17.4859 20.0479 19.0077 20.0629 20.4211C18.5846 19.0077 17.729 17.8109 17.5933 17.6147L17.582 17.5994L17.5947 17.487C17.6022 17.4188 17.6097 17.3505 17.6192 17.2819C17.8808 15.4637 18.5843 13.7302 19.6546 12.2643L19.6754 12.2347L19.7244 12.1698C20.2262 11.4988 20.8079 10.8788 21.4579 10.3265L21.4916 10.2969L21.5247 10.3257C21.7523 10.519 22.4377 11.0788 23.4671 11.7895Z" fill="#E2E2E2"/>
<path d="M29.4052 7.65716C28.7097 7.92595 26.5432 8.86315 24.4625 10.7825C24.4605 10.7828 24.4605 10.7828 24.4588 10.7854C24.1485 11.0709 23.8417 11.3771 23.5415 11.7084C22.5253 11.0104 21.8503 10.4598 21.6227 10.2708L21.5723 10.2299L21.6233 10.1887C21.7518 10.0841 21.88 9.97954 22.0139 9.88043C22.1609 9.77038 22.3202 9.65831 22.5135 9.52953L22.5443 9.50907L22.608 9.46557C23.8866 8.63237 25.2931 8.0749 26.7881 7.81243C27.6656 7.65801 28.5438 7.60731 29.4052 7.65716Z" fill="#CC9611"/>
<path d="M34.4104 9.04698C34.1148 8.87642 33.8091 8.72085 33.4971 8.5791C33.8304 8.66957 34.1606 8.80584 34.4855 8.97121L34.5181 9.10806L34.4104 9.04698Z" fill="#EDCC45"/>
<path d="M38.1639 24.8592L38.3068 24.8125L38.2252 24.939C37.7873 25.629 37.2696 26.2703 36.6891 26.8491L36.6796 26.8572L36.6675 26.8615C36.6329 26.8742 36.596 26.8848 36.5612 26.8952L36.6822 26.8589L36.5174 27.015C36.1751 27.3406 35.8389 27.6264 35.4877 27.8886C34.0625 28.9545 32.4557 29.6512 30.7136 29.9569C30.0938 30.0658 29.4733 30.1228 28.8564 30.1251C30.488 29.7177 32.2601 28.8693 33.7723 27.5117C33.7746 27.5114 33.7741 27.5091 33.7741 27.5091C34.3992 26.9505 34.9804 26.3023 35.4871 25.5616L35.4891 25.5613C36.3604 25.4048 37.2558 25.1698 38.1639 24.8592Z" fill="#FCC947"/>
<path d="M36.9698 15.0275C35.9629 11.4916 33.8269 9.11215 33.3516 8.61719C35.0614 9.38123 36.5815 10.5757 37.7549 12.1461C38.3582 12.9511 38.8497 13.8341 39.2179 14.7754L39.2415 14.8359L39.2038 14.8425L39.2574 14.8762C39.4253 15.3173 39.5636 15.7592 39.6685 16.1853L39.682 16.2392L39.6276 16.2487C39.5253 16.2689 39.425 16.2885 39.3245 16.3063L39.3225 16.3066C38.6503 16.4245 37.9776 16.4907 37.3078 16.5112C37.2219 15.9958 37.107 15.502 36.9698 15.0275Z" fill="#FCC947"/>
<path d="M39.8462 20.6685L39.8304 20.7748L39.767 20.7082C39.7831 20.7269 39.7992 20.7436 39.8125 20.7586L39.8286 20.7774L39.8243 20.8018C39.5881 22.1729 39.1075 23.4705 38.4005 24.6564L38.3904 24.6734L38.374 24.6783C37.4414 25.0104 36.4996 25.2643 35.5742 25.4394C36.5719 23.941 37.274 22.0758 37.4578 19.803C37.5494 18.6774 37.4875 17.6111 37.3239 16.6169C37.996 16.5961 38.6705 16.5293 39.3469 16.4106C39.4495 16.3924 39.5497 16.3729 39.652 16.3527L39.7024 16.3438L39.7154 16.3933C40.0317 17.8018 40.077 19.24 39.8462 20.6685Z" fill="white"/>
<path d="M31.7977 29.7646C37.8062 28.079 41.3106 21.8419 39.625 15.8336C37.9395 9.82523 31.7022 6.32096 25.6938 8.00656C19.6853 9.69215 16.1809 15.9293 17.8664 21.9376C19.552 27.946 25.7892 31.4502 31.7977 29.7646Z" stroke="black" stroke-miterlimit="10" stroke-linecap="round" stroke-linejoin="round"/>
<path d="M21.4902 10.2275C21.4902 10.2275 30.5853 18.1832 39.7493 16.2809" stroke="black" stroke-miterlimit="10" stroke-linecap="round" stroke-linejoin="round"/>
<path d="M17.5254 17.6113C17.5254 17.6113 25.401 29.3573 38.4301 24.7156" stroke="black" stroke-miterlimit="10" stroke-linecap="round" stroke-linejoin="round"/>
<path d="M19.6182 12.2275C19.6182 12.2275 23.4384 12.6874 24.7648 18.2149C26.1373 23.9343 30.902 23.7263 33.976 20.7764C37.3151 17.5727 39.8784 20.8355 39.8784 20.8355" stroke="black" stroke-width="0.5" stroke-miterlimit="10" stroke-linecap="round" stroke-linejoin="round"/>
<path d="M29.6074 7.61851L30.6852 6.31139C30.6852 6.31139 32.6403 6.14717 34.1018 7.17483L34.5997 9.21402" stroke="black" stroke-miterlimit="10" stroke-linecap="round" stroke-linejoin="round"/>
<path d="M31.6209 6.33295C31.6209 6.33295 29.2763 2.63631 30.8997 1.42138C32.5232 0.206457 36.5336 1.50694 33.4146 6.78757" stroke="black" stroke-miterlimit="10" stroke-linecap="round" stroke-linejoin="round"/>
<path d="M32.7183 6.53595C32.7183 6.53595 34.3256 2.7307 32.506 2.58405C30.686 2.43712 32.1908 6.41322 32.1908 6.41322" stroke="black" stroke-miterlimit="10" stroke-linecap="round" stroke-linejoin="round"/>
<path d="M22.498 9.47363C22.498 9.47363 31.4914 16.2945 39.2976 14.8248" stroke="black" stroke-width="0.5" stroke-miterlimit="10" stroke-linecap="round" stroke-linejoin="round"/>
<path d="M17.5166 20.1025C17.5166 20.1025 25.6823 30.5655 36.7947 26.8222" stroke="black" stroke-width="0.5" stroke-miterlimit="10" stroke-linecap="round" stroke-linejoin="round"/>
<path d="M19.9336 23.5742C21.0823 24.5702 22.3692 25.4063 23.7461 26.051" stroke="black" stroke-width="0.5" stroke-miterlimit="10" stroke-linecap="round" stroke-linejoin="round"/>
<path d="M21.3594 25.4014C21.6305 25.5806 21.9013 25.7595 22.1724 25.9387" stroke="black" stroke-width="0.5" stroke-miterlimit="10" stroke-linecap="round" stroke-linejoin="round"/>
<path d="M22.8838 26.9033C23.0615 27.0358 23.2528 27.1502 23.4539 27.2441" stroke="black" stroke-width="0.5" stroke-miterlimit="10" stroke-linecap="round" stroke-linejoin="round"/>
<path d="M32.5684 25.08C34.1172 25.0492 35.6614 24.8115 37.148 24.375" stroke="black" stroke-width="0.5" stroke-miterlimit="10" stroke-linecap="round" stroke-linejoin="round"/>
<path d="M34.7002 24.1469C34.8984 24.1382 35.0958 24.1163 35.2911 24.082" stroke="black" stroke-width="0.5" stroke-miterlimit="10" stroke-linecap="round" stroke-linejoin="round"/>
<path d="M35.2637 23.1545C35.4043 23.1507 35.5446 23.1329 35.6817 23.1006" stroke="black" stroke-width="0.5" stroke-miterlimit="10" stroke-linecap="round" stroke-linejoin="round"/>
<path d="M18.2354 17.3428C19.0769 18.3929 19.9853 19.3892 20.9536 20.3241" stroke="black" stroke-width="0.5" stroke-miterlimit="10" stroke-linecap="round" stroke-linejoin="round"/>
<path d="M19.4131 17.7383C19.5338 17.8725 19.6545 18.0068 19.7752 18.1411" stroke="black" stroke-width="0.5" stroke-miterlimit="10" stroke-linecap="round" stroke-linejoin="round"/>
<path d="M19.9736 17.1738C20.037 17.2404 20.1007 17.3069 20.1641 17.3735" stroke="black" stroke-width="0.5" stroke-miterlimit="10" stroke-linecap="round" stroke-linejoin="round"/>
<path d="M20.9951 12.1953C21.5143 12.2964 21.9905 12.5603 22.4062 12.8873C22.8217 13.2143 23.1824 13.605 23.5402 13.9942" stroke="black" stroke-width="0.5" stroke-miterlimit="10" stroke-linecap="round" stroke-linejoin="round"/>
<path d="M22.5186 12.4141C22.6514 12.5074 22.7845 12.6005 22.9173 12.6938" stroke="black" stroke-width="0.5" stroke-miterlimit="10" stroke-linecap="round" stroke-linejoin="round"/>
<path d="M23.8525 13.1514C23.9375 13.2874 24.0384 13.4132 24.1525 13.5256" stroke="black" stroke-width="0.5" stroke-miterlimit="10" stroke-linecap="round" stroke-linejoin="round"/>
<path d="M28.526 22.096C27.1403 21.7811 25.9732 20.6488 25.6162 19.2734" stroke="black" stroke-width="0.5" stroke-miterlimit="10" stroke-linecap="round" stroke-linejoin="round"/>
<path d="M27.4907 20.9237C27.0986 20.7396 26.7705 20.423 26.5723 20.0381" stroke="black" stroke-width="0.5" stroke-miterlimit="10" stroke-linecap="round" stroke-linejoin="round"/>
<path d="M27.5417 19.8853C27.4397 19.7929 27.3539 19.6828 27.2891 19.5615" stroke="black" stroke-width="0.5" stroke-miterlimit="10" stroke-linecap="round" stroke-linejoin="round"/>
<path d="M36.6641 18.9555C37.6381 18.8103 38.6701 19.1149 39.4094 19.766" stroke="black" stroke-width="0.5" stroke-miterlimit="10" stroke-linecap="round" stroke-linejoin="round"/>
<path d="M38.2227 18.5342C38.4145 18.6298 38.6061 18.7255 38.798 18.8211" stroke="black" stroke-width="0.5" stroke-miterlimit="10" stroke-linecap="round" stroke-linejoin="round"/>
<path d="M38.6318 17.8809C38.7142 17.9442 38.7966 18.0073 38.8787 18.0707" stroke="black" stroke-width="0.5" stroke-miterlimit="10" stroke-linecap="round" stroke-linejoin="round"/>
<path d="M33.835 14.0244C35.1392 14.3508 36.497 14.4606 37.8367 14.3482" stroke="black" stroke-width="0.5" stroke-miterlimit="10" stroke-linecap="round" stroke-linejoin="round"/>
<path d="M35.3994 13.6309C35.6411 13.6793 35.8869 13.7075 36.1332 13.7159" stroke="black" stroke-width="0.5" stroke-miterlimit="10" stroke-linecap="round" stroke-linejoin="round"/>
<path d="M35.6191 12.5625C35.6664 12.5737 35.7136 12.5847 35.7609 12.5959" stroke="black" stroke-width="0.5" stroke-miterlimit="10" stroke-linecap="round" stroke-linejoin="round"/>
<path d="M23.8896 9.4248C24.6534 10.0336 25.4768 10.5674 26.3443 11.0166" stroke="black" stroke-width="0.5" stroke-miterlimit="10" stroke-linecap="round" stroke-linejoin="round"/>
<path d="M25.5498 9.64746C25.6299 9.69817 25.71 9.74888 25.7901 9.79958" stroke="black" stroke-width="0.5" stroke-miterlimit="10" stroke-linecap="round" stroke-linejoin="round"/>
<path d="M26.7979 9.56445C26.9108 9.65463 27.024 9.74481 27.1369 9.83499" stroke="black" stroke-width="0.5" stroke-miterlimit="10" stroke-linecap="round" stroke-linejoin="round"/>
</svg>
