<svg width="57" height="42" viewBox="0 0 57 42" fill="none" xmlns="http://www.w3.org/2000/svg">
<path d="M38.8336 10.2901L38.7336 10.3191C38.3356 10.4373 37.9251 10.5409 37.5022 10.6295C35.9412 10.967 34.2242 11.121 32.3781 11.0905C29.4526 11.0418 26.8494 10.5429 25.3145 10.1791C24.776 10.0489 24.3671 9.93738 24.1242 9.86821L24.0127 9.83572L24.1166 9.7833C24.3317 9.67475 24.5488 9.57162 24.7602 9.47759L24.773 9.4707L24.7893 9.47464C24.9047 9.50196 25.2847 9.58786 25.8563 9.70035C27.3038 9.98316 29.9894 10.4274 32.7885 10.474C34.3832 10.5005 35.8012 10.392 37.0168 10.1537C37.3961 10.0804 37.7555 9.99251 38.0954 9.89332L38.1136 9.88815L38.1299 9.89578C38.3342 10.0041 38.5404 10.1198 38.7445 10.2389L38.8336 10.2901Z" fill="white"/>
<path d="M33.8237 6.22421L33.8075 6.21855C33.2249 6.01179 32.5739 5.90153 31.8706 5.88971C30.4893 5.86682 29.3347 6.22913 29.1183 6.30322L29.0984 6.30839L28.1934 8.31342L28.2785 8.29865C29.2636 8.11971 30.2722 8.03873 31.2811 8.05571C32.5576 8.07688 33.8225 8.25533 35.0414 8.58491L35.144 8.61198L33.8237 6.22421Z" fill="#EDCA37"/>
<path d="M47.4425 10.2009L47.4639 10.206C47.5845 10.2348 47.7105 10.2683 47.8405 10.3065L47.9133 10.3276L47.8973 10.2538C47.8001 9.79696 47.5237 8.26525 48.0435 7.72596C48.1703 7.59477 48.3349 7.53004 48.5336 7.53324C48.5958 7.53422 48.6626 7.54185 48.7317 7.55613C49.0234 7.61668 49.2255 7.76879 49.332 8.00828C49.6793 8.78755 48.8949 10.285 48.7339 10.5772L48.7103 10.6203L48.7551 10.6405C48.8952 10.7027 49.0359 10.7721 49.173 10.8462L49.207 10.8647L49.2304 10.8339C50.9772 8.54338 50.5214 7.37645 50.0941 6.88491C49.751 6.48987 49.2018 6.25751 48.5877 6.24742C48.1914 6.24077 47.8122 6.32914 47.5197 6.49626C46.1645 7.26839 47.2997 9.88532 47.4336 10.1812L47.4425 10.2009Z" fill="#EDCA37"/>
<path d="M37.8995 9.77316C37.0961 9.36728 36.2499 9.03131 35.3842 8.77458H35.3825C35.3286 8.75736 35.2764 8.74209 35.2223 8.72659C33.9461 8.36181 32.6201 8.16613 31.2802 8.14374C30.2205 8.12601 29.1592 8.21881 28.1269 8.4167C27.8475 8.46987 27.5662 8.53214 27.2883 8.6018C27.2883 8.6018 27.2863 8.60352 27.2829 8.60524C26.5238 8.79526 25.7726 9.04681 25.0423 9.35473L24.9131 9.41036L25.0519 9.43989C25.2501 9.48296 25.5548 9.5477 25.9459 9.62302C27.4025 9.90583 30.0502 10.3371 32.7877 10.3826C32.7877 10.3826 32.7877 10.3826 32.7895 10.3826C34.35 10.4084 35.7406 10.307 36.9361 10.0771C37.2699 10.0139 37.5877 9.93955 37.8911 9.85611L38.0039 9.82534L37.8995 9.77316Z" fill="#FEE25A"/>
<path d="M50.108 11.6064L50.0955 11.5954C48.6447 10.2997 46.51 10.1215 46.2717 10.1048L46.2518 10.1025L44.8555 11.4231L44.9401 11.4408C46.8809 11.8619 48.7331 12.7158 50.2978 13.9083L50.3817 13.973L50.108 11.6064Z" fill="#EDCA37"/>
<path d="M44.8102 37.815L44.2244 37.9083C43.4426 38.0346 42.6461 38.0919 41.8541 38.0787C41.0404 38.0651 40.2335 37.9775 39.4385 37.8178C38.8832 37.7072 38.3341 37.5608 37.7945 37.3781L37.7173 37.3533L37.6904 37.3437L37.7889 37.2947L37.8364 37.2701C38.0697 37.1564 38.2996 37.0355 38.5224 36.9125L38.8108 36.749L38.818 36.7527L38.8323 36.7601C39.0351 36.8556 39.7442 37.1694 40.8267 37.4298C41.6481 37.6297 42.6833 37.7971 43.8749 37.817C43.9869 37.819 44.1028 37.819 44.2167 37.819L44.8102 37.815Z" fill="#E8B21A"/>
<path d="M30.3833 5.89264L30.3993 5.90766L30.4212 5.90421C30.5726 5.88058 30.7296 5.8604 30.8886 5.84391L30.9644 5.83628L30.9211 5.77327C30.6179 5.33219 29.653 3.83149 29.969 3.03352C30.0692 2.78148 30.287 2.62223 30.6164 2.56069C30.6991 2.54518 30.7793 2.53805 30.8554 2.53928C31.0823 2.54297 31.279 2.62272 31.4395 2.77557C32.1444 3.44777 31.9622 5.37206 31.9184 5.75111L31.9128 5.80009L31.962 5.80133C32.1441 5.80649 32.3302 5.81905 32.5156 5.83923L32.554 5.84341L32.5641 5.806C33.4194 2.62222 32.4297 1.5855 31.7634 1.25075C31.5017 1.11956 31.2083 1.0504 30.8911 1.04523C30.1325 1.03267 29.3025 1.40779 28.873 1.9579C27.7713 3.36826 30.1128 5.63838 30.3833 5.89264Z" fill="#EDCA37"/>
<path d="M41.6138 34.3917C40.6125 34.7875 39.5994 35.1232 38.575 35.3974H38.5733C36.0607 36.0755 33.4837 36.396 30.88 36.3527C29.2582 36.3256 27.6369 36.1577 26.0612 35.8528C24.9705 35.6411 23.9872 35.3824 23.1344 35.1168H23.1326C21.5529 34.6238 20.4165 34.1131 19.8836 33.8546L19.6611 33.7461L19.83 33.926C20.3774 34.5067 20.9671 35.0464 21.5847 35.5286C22.0489 35.8909 22.5459 36.2338 23.0686 36.5516C23.1388 36.5816 24.132 36.9998 25.8079 37.3621H25.8096C27.0637 37.638 28.7 37.8822 30.6186 37.9142C31.9475 37.9363 33.2781 37.8536 34.5999 37.6693C35.0695 37.6028 35.5392 37.524 36.0056 37.4322C36.8548 37.2656 37.6975 37.0554 38.5337 36.8016C39.3334 36.3519 40.0961 35.8291 40.7986 35.2441L40.8114 35.2352L40.8134 35.2318C41.0849 35.0066 41.3418 34.7777 41.5789 34.55L41.8233 34.31L41.6138 34.3917Z" fill="#FEE25A"/>
<path d="M50.1256 31.0688L49.0247 28.752L44.8379 30.3769L44.767 30.4048L44.7596 30.419C44.5221 30.8835 44.2521 31.3512 43.9513 31.8198L43.989 31.8368L43.9926 31.8388H43.989L43.9402 31.8343C43.8826 31.9202 43.8253 32.0061 43.7677 32.092L43.6953 32.1974L43.7588 32.1787L48.1469 30.8537C48.1632 30.854 48.1794 30.8633 48.188 30.8798L48.9516 32.5944L49.574 33.9937L49.6048 33.9924C50.1948 33.9715 50.7941 33.9272 51.3866 33.8647L51.4501 33.8585L50.1256 31.0688ZM48.9597 29.8396C48.9614 29.8396 48.9614 29.8396 48.9614 29.8396C49.0119 29.958 49.0643 30.0764 49.1147 30.1948C49.0626 30.0764 49.0101 29.958 48.9597 29.8396Z" fill="#C92C1E"/>
<path d="M42.9728 33.024L42.8529 33.1685C42.5797 33.504 42.2865 33.8336 41.9831 34.1452L41.9776 34.1523L41.9685 34.1558C40.8942 34.5973 39.8045 34.9717 38.6998 35.2732H38.6981C36.1691 35.9691 33.5736 36.2984 30.9502 36.2548C27.73 36.2012 24.9839 35.5895 22.9904 34.9631C20.8709 34.2966 19.5984 33.6098 19.498 33.5557C19.2265 33.251 18.9641 32.9266 18.7076 32.5822L18.6016 32.4375L18.7647 32.5143C19.3264 32.7786 20.4486 33.2694 21.9975 33.7691C23.1398 34.1353 24.5118 34.509 26.0622 34.8007C27.8076 35.128 29.5768 35.3094 31.3199 35.3385C34.2039 35.3865 36.988 35.0205 39.6305 34.2468C40.7118 33.932 41.7709 33.5483 42.802 33.0986L42.9728 33.024Z" fill="white"/>
<path d="M49.4764 33.9951L49.4095 33.9976C49.0368 34.0077 48.6605 34.0104 48.2898 34.0042C48.212 34.003 48.0294 33.9981 48.0294 33.9981L47.8795 33.6629L47.4401 32.6845C47.4332 32.668 47.4189 32.6569 47.4007 32.6566L44.0311 33.5393L44.022 33.5373C43.4975 33.4236 43.1357 33.3217 42.9683 33.2703L42.9412 33.2626L42.9033 33.2511L42.9644 33.176C43.0271 33.0975 43.0919 33.019 43.1546 32.9387C43.2747 32.7851 43.3894 32.6261 43.5044 32.4688L43.5046 32.458L43.5174 32.4492C43.5322 32.4295 43.547 32.4098 43.562 32.3903C43.5768 32.3706 43.5935 32.3492 43.6083 32.3278L43.6174 32.3153L43.6755 32.298L48.1197 30.9521L48.8852 32.6667L49.4764 33.9951Z" fill="white"/>
<path d="M46.1201 16.3061C45.3066 15.9772 44.693 15.7616 44.3998 15.6624L44.2861 15.624L44.3866 15.7963C44.404 15.8254 44.4213 15.8544 44.438 15.8839C44.4894 15.9748 44.5377 16.0671 44.5862 16.1596L44.6915 16.3585C44.7245 16.4195 44.7575 16.4803 44.7885 16.5424C44.8094 16.584 44.8291 16.6265 44.8488 16.6686L44.9069 16.791L46.2343 16.3523L46.1201 16.3061Z" fill="white"/>
<path d="M45.1075 17.218C45.1513 17.3172 45.1917 17.4176 45.2323 17.5183L45.3123 17.7128C45.3317 17.7593 45.3514 17.8053 45.3696 17.8523L45.3854 17.8927L47.8448 17.0526L47.7419 17.0056C47.3008 16.803 46.8422 16.6034 46.3785 16.4117L46.363 16.4053L44.9943 16.8574L44.9502 16.8825L45.0211 17.0332C45.0506 17.0945 45.0799 17.1557 45.1075 17.218Z" fill="#C92C1E"/>
<path d="M47.9301 33.9966L47.8578 33.9937C47.7438 33.99 47.6301 33.9846 47.5162 33.9789C46.4445 33.9285 45.4065 33.8064 44.4242 33.6183L44.2295 33.5807L47.3739 32.7559L47.8098 33.7271L47.9301 33.9966Z" fill="#C92C1E"/>
<path d="M51.6895 33.9194C50.9775 34.0033 50.2639 34.0584 49.5545 34.0865L49.5491 34.0828L49.54 34.0845C49.1184 34.0973 48.6987 34.1013 48.2919 34.0944C48.1978 34.0929 48.1038 34.0912 48.0115 34.088L48.0044 34.0897L48.0007 34.0877L47.9916 34.0875C47.7927 34.0823 47.5995 34.0737 47.4114 34.0634C45.9513 33.9866 44.7864 33.7899 44.0347 33.6309L44.0076 33.625H44.0039C43.4093 33.4975 43.0258 33.3825 42.8783 33.3368H42.8766C42.8729 33.3368 42.8712 33.3348 42.8695 33.3348L42.8407 33.3252L42.8222 33.3483C42.7501 33.434 42.6802 33.5177 42.6064 33.6016L42.6315 33.6218L42.6403 33.6309L42.6241 33.6289L42.5862 33.6247C42.4109 33.8261 42.2268 34.0257 42.0245 34.2339L41.9858 34.2731C41.8057 34.4564 41.6107 34.6447 41.4069 34.8313L41.3538 34.881C41.2361 34.9876 41.117 35.0942 40.9976 35.1953C40.9976 35.1971 40.9959 35.1971 40.9939 35.1988L40.9316 35.2519L41.0089 35.2768C41.4786 35.4257 42.7545 35.8013 44.3293 36.0428C45.0906 36.1604 45.9211 36.2466 46.7653 36.2606C47.6315 36.2751 48.4302 36.2107 49.156 36.0635C50.097 35.4823 50.9624 34.7858 51.7279 33.9957L51.8163 33.9048L51.6895 33.9194Z" fill="#E8B21A"/>
<path d="M45.0051 17.2149L40.8399 15.0422L40.4006 14.8126C40.3934 14.8106 40.3861 14.8086 40.3789 14.8086C40.3536 14.8136 40.3442 14.8224 40.3388 14.8333L38.1428 19.3181L33.5639 16.0388C33.5567 16.0332 33.5476 16.0315 33.5385 16.0312C33.5277 16.031 33.5169 16.0344 33.5095 16.0415L29.8157 19.2229L27.3177 15.8843C27.3105 15.8715 27.2963 15.8658 27.2837 15.8656C27.2746 15.8653 27.2655 15.867 27.2581 15.8724L23.4548 18.2489L21.8362 14.5507C21.8274 14.5342 21.8131 14.5251 21.7931 14.5246L21.6639 14.566L17.7383 15.821L17.7978 15.7189C17.9374 15.4806 18.0878 15.2409 18.2456 15.0048L18.2549 14.9905L22.1963 13.6582L22.2207 13.7165L23.7248 17.2267C23.73 17.2395 23.7406 17.2486 23.7534 17.2525L23.7642 17.2528C23.7787 17.253 23.7841 17.2513 23.7896 17.2479L27.4656 14.9091L29.8595 18.2043C29.8667 18.2152 29.8773 18.2228 29.8901 18.2231C29.8918 18.2231 29.8918 18.2231 29.8918 18.2231C29.9063 18.2233 29.9171 18.2199 29.9262 18.2127L33.4435 15.0826L37.8644 18.1945C37.8732 18.2002 37.8804 18.2039 37.8895 18.2039C37.9148 18.1989 37.9259 18.1901 37.9316 18.1775L39.9568 13.9592L40.2974 14.135L44.5815 16.344L44.5886 16.3568C44.72 16.6086 44.8424 16.8585 44.9507 17.0972L45.0051 17.2149Z" fill="white"/>
<path d="M44.438 16.0744C44.3432 15.9028 44.2448 15.733 44.1409 15.5595C43.4544 14.4213 42.6218 13.3748 41.666 12.4527L41.6463 12.4326L41.619 12.4429C40.9581 12.7013 40.2923 12.9307 39.6216 13.135C36.9331 13.9549 34.1721 14.3465 31.3859 14.3002C27.7209 14.2392 24.7466 13.4265 22.9183 12.7685C21.8144 12.3703 21.1274 12.0299 20.9588 11.9437L20.9302 11.9287L20.9081 11.9501C20.1849 12.5837 19.5241 13.2834 18.9419 14.0297C18.7756 14.2439 18.6018 14.4799 18.4108 14.7551L18.333 14.8678L22.2217 13.5562C22.2397 13.5564 22.2559 13.5675 22.2628 13.584L22.282 13.6278L23.7862 17.1416L27.4548 14.81C27.4622 14.8048 27.4694 14.8031 27.4785 14.8031C27.493 14.8033 27.5055 14.809 27.5144 14.8218L29.9031 18.1097L33.4113 14.9904C33.4204 14.9815 33.4315 14.9781 33.4423 14.9783C33.4515 14.9786 33.4603 14.9823 33.4675 14.986L37.874 18.0888L39.8956 13.8776C39.9012 13.8668 39.9103 13.8579 39.9376 13.8513C39.945 13.8513 39.9522 13.8533 39.9573 13.8569L40.2013 13.9822L44.5104 16.2044L44.438 16.0744ZM23.5981 14.8575L23.5989 14.8159L23.5998 14.8575C23.6205 14.9267 23.6427 14.9939 23.6653 15.061C23.6409 14.9939 23.6185 14.9267 23.5981 14.8575Z" fill="#FEE25A"/>
<path d="M46.2146 21.586C46.0618 20.3465 45.76 19.1296 45.3145 17.9683L45.3128 17.9557L45.311 17.9484C45.2451 17.7773 45.1705 17.5951 45.0693 17.3621L45.0622 17.3475L40.9222 15.1879L40.3986 14.9152L38.1989 19.4055C38.1933 19.418 38.1822 19.4269 38.1588 19.4301C38.1497 19.4299 38.1408 19.4279 38.1337 19.4225L33.5403 16.1321L29.8374 19.3223C29.8283 19.3294 29.8192 19.3329 29.8047 19.3326C29.8029 19.3326 29.8029 19.3326 29.8029 19.3326C29.7902 19.3324 29.7796 19.325 29.7707 19.3159L27.2709 15.9699L23.4568 18.3535C23.4514 18.3569 23.446 18.3587 23.4315 18.3584L23.4206 18.3582C23.4081 18.3542 23.3972 18.3451 23.3921 18.3323L21.7683 14.623L21.5955 14.6779L17.6682 15.9364L17.6588 15.9524C16.0469 18.8066 15.4089 22.048 15.8118 25.328C16.0205 27.0224 16.5034 28.6546 17.2465 30.1826L17.2657 30.2227L19.652 29.0959L20.9482 28.4825C20.9556 28.4808 20.961 28.4791 20.9681 28.4793C20.9807 28.4796 20.9932 28.4852 21.0021 28.4943L23.9616 31.9237L27.0711 29.7257C27.0785 29.7203 27.0876 29.7169 27.0964 29.7171C27.109 29.7174 27.1198 29.723 27.1287 29.7321L30.0508 32.8047L33.6486 30.0595C33.656 30.0543 33.6651 30.0506 33.6759 30.0509C33.685 30.0511 33.6939 30.0531 33.701 30.0585L37.0726 32.4261L39.8697 29.758C39.8788 29.7508 39.8899 29.7457 39.9024 29.7459C39.9096 29.7462 39.915 29.7479 39.9221 29.7516L41.8053 30.6945L43.895 31.7384L43.9174 31.7044C44.1997 31.2643 44.4604 30.811 44.6979 30.3428C45.055 29.6362 45.3625 28.8852 45.6106 28.1064C45.8949 27.2213 46.0962 26.3096 46.2112 25.3908C46.2094 25.3817 46.2114 25.3745 46.2171 25.3566C46.3697 24.1133 46.3689 22.8435 46.2146 21.586ZM16.7858 25.6844H16.7875C16.7981 25.8132 16.8121 25.9399 16.8281 26.0667C16.8104 25.9399 16.7981 25.8132 16.7858 25.6844ZM17.8003 18.9499C17.8668 18.7648 17.9458 18.5817 18.032 18.404C17.9458 18.5817 17.8685 18.7631 17.8003 18.9499ZM18.0248 27.7434L18.0273 27.7L18.0265 27.7434C18.03 27.7596 18.0352 27.7744 18.0384 27.7906C18.0334 27.7744 18.028 27.7596 18.0248 27.7434ZM18.8873 27.9747L18.8897 27.9331L18.889 27.9747C18.8942 27.9929 18.9011 28.0112 18.908 28.0294C18.8993 28.0112 18.8925 27.9929 18.8873 27.9747ZM44.4732 17.8728L44.4756 17.8312L44.4749 17.8728L45.0107 19.4678L44.4732 17.8728Z" fill="#FEE25A"/>
<path d="M54.3775 19.235C54.1926 18.8161 53.9827 18.4001 53.7543 18.0001C52.9388 16.5686 51.8873 15.3194 50.6313 14.2876C50.5582 14.2268 50.4851 14.1678 50.41 14.1085L50.3822 14.1441L50.3975 14.0957C48.1035 12.2905 45.2212 11.2695 42.2814 11.2205C41.9486 11.2151 41.6158 11.222 41.2825 11.2419C41.2825 11.2419 41.2825 11.2402 41.2808 11.2419C41.0546 11.2545 40.8265 11.2725 40.6017 11.2976L40.4912 11.3101L40.5786 11.3785C40.634 11.4229 40.6874 11.4689 40.7408 11.5152L40.8373 11.5947L40.9478 11.6833C40.9532 11.687 40.9586 11.6907 40.9675 11.7017L41.028 11.7514C41.0603 11.779 41.094 11.8068 41.1262 11.8344C41.1994 11.8989 41.2705 11.9634 41.3436 12.0296L41.495 12.1696C41.559 12.2267 41.6252 12.2858 41.6926 12.352C41.7603 12.4165 41.8243 12.4807 41.89 12.547L42.0483 12.7069C42.1051 12.7641 42.1622 12.8209 42.2174 12.878L42.2262 12.8871L42.2388 12.8911C42.3143 12.9122 42.7896 13.0432 43.5199 13.2814H43.5219C45.3244 13.8739 48.6925 15.1272 51.5511 17.0269C52.5637 17.6984 53.5096 18.452 54.3024 19.2845L54.4819 19.4737L54.3775 19.235ZM50.367 15.381V15.3793L51.0111 15.7969L50.367 15.381Z" fill="#C92C1E"/>
<path d="M43.8427 31.8143L43.8149 31.8571C43.7073 32.0218 43.5978 32.1845 43.4811 32.3452L43.4589 32.3775L41.4879 31.3789L40.0925 30.672C40.0871 30.67 40.08 30.668 40.0746 30.668C40.062 30.6678 40.0509 30.6712 40.0418 30.6801L37.133 33.4349L33.7516 31.004C33.7444 30.9984 33.7356 30.9964 33.7265 30.9964C33.7156 30.9961 33.7045 30.9996 33.6974 31.005L30.0457 33.8326L26.9912 30.6673C26.9823 30.6582 26.9715 30.6525 26.9589 30.6523C26.9498 30.6521 26.9407 30.6557 26.9316 30.6609L23.8428 32.9318L20.8424 29.4455C20.8353 29.4344 20.8227 29.429 20.8102 29.4287C20.8031 29.4287 20.7974 29.4305 20.7903 29.4319L19.8956 29.8403L17.6084 30.8819L17.5892 30.8455C17.4979 30.6794 17.4086 30.5152 17.3227 30.3456L17.3018 30.3055L19.679 29.1838L20.9549 28.5811L23.9182 32.0142C23.927 32.0233 23.9396 32.0289 23.9524 32.0292C23.9615 32.0294 23.9706 32.0277 23.9797 32.0206L27.0909 29.8226L30.0147 32.8971C30.0219 32.9062 30.0344 32.9101 30.0452 32.9101C30.0524 32.9104 30.0634 32.9104 30.0743 32.9015L33.6758 30.1526L37.051 32.5219C37.0582 32.5276 37.067 32.5313 37.0761 32.5313C37.0887 32.5315 37.0998 32.5264 37.1089 32.5175L39.9097 29.8457L41.7697 30.7773L43.8427 31.8143Z" fill="white"/>
<path d="M21.9669 35.9277C21.8204 35.8204 21.6737 35.713 21.5292 35.6003C20.7758 35.0108 20.0689 34.3443 19.4191 33.6083C18.9079 33.0265 18.4407 32.4055 18.0302 31.764L18.023 31.753L18.0122 31.7473C15.7778 30.5996 14.2101 26.6616 14.0386 26.2173L14.0265 26.1863L13.994 26.1876C13.7821 26.2021 13.565 26.2075 13.3482 26.2041C12.2524 26.1858 11.0844 25.9422 9.86065 25.4767C9.85351 25.4765 9.8481 25.4747 9.8444 25.4747L9.83554 25.4656L9.82299 25.46C8.05105 24.774 6.62789 23.7917 5.93846 23.2684L5.72949 23.1094L5.87225 23.3287C7.4367 25.7113 13.2167 33.6622 21.9277 36.0064L22.1635 36.0699L21.9669 35.9277ZM12.4517 27.2383H12.4537C12.4621 27.2819 12.4702 27.3254 12.4805 27.369C12.4702 27.3254 12.4601 27.2819 12.4517 27.2383ZM13.1936 27.1204L13.196 27.0788L13.1953 27.1204C13.2364 27.2514 13.2795 27.3823 13.328 27.5096C13.2778 27.3823 13.233 27.2514 13.1936 27.1204ZM13.7486 26.8024L13.7511 26.7608L13.7503 26.8024C13.757 26.8315 13.7639 26.8622 13.7705 26.8913C13.7622 26.8622 13.7553 26.8332 13.7486 26.8024Z" fill="#018B45"/>
<path d="M38.1685 37.0078L37.687 37.2438C37.6415 37.2647 37.5977 37.2876 37.5539 37.3085C36.3926 37.8552 35.1961 38.2512 33.9694 38.4932H33.9677C32.9115 38.7054 31.8339 38.8014 30.7435 38.7831C29.7292 38.7664 28.72 38.6463 27.7274 38.4272C27.7237 38.4253 27.7202 38.4253 27.7165 38.4253C27.2698 38.3256 26.8267 38.206 26.3876 38.0666L26.3758 38.0122L26.366 38.0556L26.3372 38.0497C25.5348 37.7905 24.7481 37.4626 23.9932 37.072L23.5342 36.833L24.0272 36.9896C24.4951 37.1348 25.172 37.325 26.0189 37.5C27.2356 37.7518 28.8052 37.9751 30.6204 38.0054C32.3471 38.0342 34.0787 37.8857 35.7913 37.565H35.793C36.4389 37.4437 37.0815 37.297 37.7193 37.1269L38.1685 37.0078Z" fill="white"/>
<path d="M15.5862 28.9197C14.6329 26.3212 12.6803 19.3184 15.1094 10.4045L15.1904 10.1057C15.1943 10.0932 15.1963 10.0823 15.198 10.0752L15.0267 10.3708C14.1606 11.8774 12.1592 14.662 8.48466 16.3751L8.41895 16.4066L8.47605 16.4509C9.02961 16.8814 10.8623 18.4655 11.2416 20.776C11.4912 22.2976 11.0639 23.8404 9.96985 25.3595L9.93465 25.4078L9.99052 25.4287C10.6214 25.6652 11.2424 25.8402 11.8464 25.9552C11.8481 25.9552 11.8481 25.9552 11.8481 25.9552C12.3621 26.0541 12.8602 26.1058 13.3466 26.1139C13.5834 26.1179 13.8207 26.111 14.056 26.0933C14.0759 26.0935 14.0919 26.1046 14.0988 26.1228C14.1022 26.1373 14.6287 27.5314 15.504 28.9585L15.7418 29.3423L15.5862 28.9197Z" fill="#018B45"/>
<path d="M41.4483 31.4593L40.0818 30.7674L37.1675 33.5258C37.1584 33.5347 37.1474 33.5381 37.1348 33.5379C37.1257 33.5376 37.1168 33.5357 37.1097 33.5302L33.7266 31.0974L30.0695 33.9285C30.0604 33.9356 30.0512 33.9391 30.0404 33.9388C30.0296 33.9386 30.017 33.9332 30.0099 33.9238L26.9536 30.7585L23.8629 33.0274C23.8538 33.0345 23.8447 33.0363 23.8338 33.036C23.821 33.0358 23.8105 33.0303 23.8016 33.021L20.7977 29.5293L19.9267 29.9253L17.6504 30.9618L17.675 31.0039C17.7978 31.2247 17.9317 31.446 18.0833 31.6835L18.0991 31.7091L18.1025 31.7128C18.2401 31.9267 18.3583 32.1022 18.4732 32.2668L18.4804 32.2759L18.4912 32.2816C18.5719 32.3227 19.8398 32.9641 21.8994 33.6388H21.9012C23.0669 34.0198 24.4836 34.4124 26.0848 34.7122C27.821 35.0378 29.5831 35.219 31.3188 35.2478C33.409 35.2825 35.4431 35.1011 37.4083 34.7053C38.1922 34.5465 38.9658 34.3551 39.7256 34.1289C40.8707 33.7897 41.9899 33.3725 43.0778 32.879L43.0886 32.8738L43.096 32.8649C43.1718 32.7667 43.2459 32.6648 43.3197 32.5649L43.4029 32.4504L41.4483 31.4593Z" fill="#FEE25A"/>
<path d="M17.8311 31.441C16.6994 29.5738 15.99 27.522 15.7207 25.338C15.356 22.364 15.8524 19.3791 17.1611 16.7097L17.1742 16.6809L17.1528 16.6588C15.86 15.3296 15.4879 11.6105 15.387 10.0751L15.3715 9.81445L15.2986 10.0645C12.1692 21.0646 15.8367 29.3493 15.9989 29.7047C16.5822 30.5212 17.1761 31.1242 17.7666 31.5011L17.9313 31.6069L17.8311 31.441Z" fill="#018B45"/>
<path d="M53.0329 32.4226L53.0181 32.4458C52.6774 32.9247 52.3117 33.3764 51.9287 33.7894L51.9176 33.802L51.9014 33.8034C51.7909 33.818 51.684 33.8288 51.577 33.8414L51.5442 33.8463L50.1831 30.9805L49.0875 28.6745C49.0806 28.6599 49.0644 28.6489 49.0482 28.6484L44.8998 30.2542L44.8252 30.2837L44.8757 30.1816C45.1939 29.5285 45.4656 28.8549 45.683 28.1785L45.6886 28.1605L45.7544 28.1327L49.7553 26.3691L51.2065 29.0483L53.0329 32.4226Z" fill="white"/>
<path d="M52.0395 26.3508L50.5137 23.7012L46.351 25.3953L46.2981 25.418L46.2942 25.4451C46.1861 26.2824 46.004 27.1259 45.7515 27.9517L45.7227 28.0452L45.7884 28.0155H45.7901L49.7566 26.2674C49.762 26.2657 49.7694 26.2639 49.7748 26.2642C49.791 26.2644 49.8073 26.2738 49.8142 26.2883L51.2514 28.9402L53.0937 32.3438L53.1346 32.283C53.5628 31.6607 53.9466 30.9834 54.273 30.2708L54.2843 30.2494L52.0395 26.3508ZM50.336 25.9102H50.3377C50.4918 26.2113 50.6515 26.5106 50.8147 26.8099C50.6498 26.5103 50.4901 26.2113 50.336 25.9102Z" fill="#C92C1E"/>
<path d="M52.2763 20.9744L51.4859 19.8887L46.3579 21.782L46.3252 21.794L46.3392 21.9227C46.355 22.0623 46.369 22.2016 46.3793 22.3412C46.4074 22.7197 46.4204 23.1251 46.4165 23.579L46.4172 23.6459L46.4574 23.6304L51.082 21.7667C51.0874 21.765 51.0948 21.7632 51.1002 21.7635C51.1165 21.7637 51.1308 21.7711 51.1379 21.7856L52.3546 23.7737L55.0414 28.1626L55.0685 28.0599C55.2944 27.1955 55.4359 26.3027 55.4889 25.4066L55.4891 25.3903L52.2763 20.9744ZM54.6818 25.9663C54.6818 25.9663 54.6818 25.9663 54.6835 25.9663L54.7726 26.1504L54.6818 25.9663Z" fill="#C92C1E"/>
<path d="M52.3461 23.9325L51.0802 21.8643L46.4573 23.726L46.4171 23.7435L46.4169 23.8629C46.4061 24.3022 46.3728 24.7665 46.3179 25.2413L46.3096 25.3171L46.3659 25.2944L50.5158 23.6037C50.5212 23.602 50.5286 23.6003 50.534 23.6003C50.5503 23.6005 50.5645 23.6099 50.5717 23.6227L52.0674 26.2194L54.3314 30.1509L54.3671 30.0702C54.6172 29.5029 54.8296 28.9077 55.0024 28.3012L55.0063 28.2815L52.3461 23.9325Z" fill="white"/>
<path d="M48.7084 36.234C48.101 36.3233 47.4492 36.3632 46.7676 36.3519C45.8764 36.3371 44.9935 36.2409 44.1925 36.1119C42.441 35.8313 41.0811 35.3981 40.8724 35.3297L40.8473 35.3203L40.6895 35.4515C40.4971 35.6073 40.29 35.7668 40.0739 35.9224L39.9969 35.979C39.7956 36.1222 39.5814 36.2687 39.3584 36.4114L39.2725 36.4661C39.2048 36.5101 39.1371 36.5525 39.0677 36.5948C39.0658 36.5965 39.0658 36.5965 39.064 36.5965C39.0348 36.6143 39.0055 36.6317 38.9764 36.6492L38.9033 36.6933L38.9105 36.697L38.9823 36.729C39.2659 36.855 39.9775 37.1434 40.9989 37.3775C41.788 37.5589 42.764 37.7088 43.8723 37.7273C44.3749 37.7357 44.8835 37.7169 45.3907 37.6694C46.5621 37.3706 47.6874 36.9172 48.7412 36.3164L48.8913 36.2086L48.7084 36.234ZM39.7948 36.5087V36.5069C39.8593 36.5387 39.9258 36.5707 39.9922 36.6007C39.9258 36.5707 39.8593 36.5407 39.7948 36.5087Z" fill="#C92C1E"/>
<path d="M55.1611 21.5918C55.0144 20.9582 54.8185 20.3308 54.5721 19.7138C53.7434 18.7632 52.7066 17.9103 51.587 17.1591C48.7914 15.2823 45.488 14.032 43.6552 13.4208H43.6533C43.1317 13.2492 42.7305 13.1269 42.4927 13.0577L42.3379 13.0117L42.567 13.2633C42.6185 13.3219 42.6719 13.3807 42.7233 13.4395C42.7908 13.5165 42.8545 13.5953 42.9183 13.676L43.0512 13.8375C43.1009 13.8981 43.1504 13.9586 43.1981 14.0209C43.2602 14.1014 43.3202 14.1838 43.3823 14.2663L43.5078 14.4383C43.5538 14.4989 43.5979 14.5592 43.6422 14.6215C43.7005 14.7056 43.7569 14.7915 43.8135 14.8757L43.9316 15.0549C43.974 15.1172 44.0163 15.1792 44.0552 15.2432C44.0887 15.2944 44.1204 15.3473 44.1522 15.4005L44.2137 15.5046L44.2299 15.5103C44.2964 15.5331 44.4963 15.5979 44.7983 15.7059C45.1776 15.8406 45.7188 16.0414 46.3743 16.3092C46.3814 16.3112 46.3888 16.3149 46.4048 16.3242C46.9256 16.5391 47.4482 16.7702 47.9759 17.0124C47.985 17.0144 47.9939 17.0181 48.0136 17.0329C48.464 17.2428 48.9161 17.4656 49.3698 17.6994C49.3769 17.6994 49.3897 17.7033 49.4092 17.7218C49.9076 17.9815 50.3898 18.248 50.8537 18.518C50.8626 18.52 50.87 18.5237 50.886 18.5385C51.2835 18.773 51.6702 19.0128 52.044 19.2577C52.6648 19.6641 53.2494 20.0845 53.7901 20.511L53.8133 20.5312L53.817 20.5332C54.2669 20.8898 54.693 21.2602 55.0863 21.6339L55.1948 21.737L55.1611 21.5918Z" fill="#E8B21A"/>
<path d="M55.4046 22.9438L55.4029 22.933L53.7454 20.5922C53.2241 20.1785 52.6631 19.7731 52.0655 19.3798C51.6756 19.1218 51.2692 18.869 50.8501 18.6217L50.8321 18.6123L46.1247 20.3244L46.0957 20.3348L46.1041 20.3729C46.1174 20.4418 46.1324 20.5108 46.1439 20.5797L46.1658 20.6796C46.174 20.7269 46.1843 20.7722 46.1924 20.8174C46.2353 21.0715 46.2727 21.3269 46.3027 21.5753L46.3106 21.6442L46.317 21.7023L46.346 21.692L51.5013 19.7901C51.5159 19.7903 51.5284 19.7977 51.5373 19.8088L52.2587 20.7992L55.4979 25.2499L55.5018 25.1197C55.5286 24.3945 55.4957 23.6633 55.4046 22.9438Z" fill="white"/>
<path d="M55.3793 22.7402L54.001 20.793L54.2757 21.0256C54.6198 21.3207 54.9299 21.6008 55.2198 21.8858L55.2287 21.8949L55.2321 21.9094C55.2757 22.1219 55.3156 22.3377 55.35 22.5499L55.3793 22.7402Z" fill="#ED5ABC"/>
<path d="M45.5105 18.2404L45.5785 18.4316C45.6009 18.4929 45.6233 18.5542 45.6434 18.6165C45.6653 18.6829 45.685 18.7501 45.705 18.8173L45.7525 18.9756L49.2429 17.737L49.1497 17.6893C48.7662 17.4931 48.3721 17.3004 47.9781 17.116L47.9613 17.1084L45.416 17.9775L45.4325 18.0213C45.4596 18.0934 45.4852 18.1668 45.5105 18.2404Z" fill="white"/>
<path d="M40.8293 11.7063L40.7511 11.7305C40.1493 11.9175 39.5425 12.0866 38.9324 12.2338C36.5409 12.8162 34.0874 13.0882 31.6177 13.047C28.1932 12.9899 25.4187 12.3379 23.713 11.8105C22.8097 11.5313 22.2061 11.2862 21.9654 11.1828L21.8936 11.1525L21.9576 11.1048C22.5581 10.6644 23.2069 10.261 23.8838 9.90339L23.9003 9.89453L23.9183 9.90019C24.0497 9.94031 24.5156 10.0784 25.2346 10.2512C26.7567 10.6165 29.4051 11.1309 32.3775 11.1803C34.2543 11.2116 35.9967 11.0526 37.5779 10.7063C38.0389 10.6054 38.4839 10.4899 38.9166 10.3578L38.9365 10.3526L38.9528 10.3637C39.4488 10.6649 39.9191 10.9857 40.3476 11.3147L40.4387 11.3849C40.5192 11.4477 40.5977 11.5124 40.6743 11.5769L40.8293 11.7063Z" fill="#FEE25A"/>
<path d="M15.822 37.166L15.7242 37.1716C15.4146 37.1918 14.7648 37.2209 13.8753 37.2058H13.8735C11.1577 37.1606 5.97502 36.6855 1.7747 34.0112L1.61914 33.9111L1.80325 33.9268C2.10305 33.9536 2.41761 33.9679 2.73931 33.9731C3.93627 33.993 5.71781 33.8798 7.40704 33.2224L7.47251 33.1982L7.46956 33.2669C7.44618 33.6969 7.41221 34.0962 7.36421 34.4841L7.34354 34.6482C7.34133 34.6645 7.34674 34.679 7.35904 34.6884C7.36618 34.6957 7.37701 34.6994 7.38784 34.6997C7.4095 34.6965 8.30914 34.4454 9.61095 34.4671C9.90016 34.472 10.1894 34.4892 10.4727 34.5195L10.4906 34.5217L10.5032 34.5365C10.6698 34.7309 11.6034 35.7032 13.5019 35.7349C13.6646 35.7376 13.842 35.7334 14.0284 35.7202L14.0429 35.7187L14.0554 35.7261C14.6659 36.0997 15.2371 36.5615 15.7543 37.0963L15.822 37.166Z" fill="#018B45"/>
<path d="M16.7576 38.3169C16.6729 38.1961 16.5861 38.0772 16.4977 37.9617H16.496C16.3101 37.7163 16.1152 37.4832 15.9161 37.2666L15.9018 37.2501L15.8801 37.2516C15.6827 37.2664 14.9549 37.3139 13.8773 37.2962C11.252 37.2524 6.22789 36.8054 2.06301 34.2945L1.80506 34.1402C1.79792 34.1365 1.79251 34.1328 1.78906 34.1309L2.00591 34.3642C3.00277 35.4371 5.35312 38.2017 5.62215 40.7202L5.6283 40.7871L5.68861 40.7556C6.13904 40.5245 7.77585 39.7703 9.90025 39.8058C11.3251 39.8294 12.686 40.203 13.9458 40.9166L13.9851 40.939L14.0075 40.9013C14.2084 40.5683 15.2818 38.8825 16.7352 38.3858L16.7935 38.3651L16.7576 38.3169ZM14.5355 38.9293H14.5372L14.6416 39.0629L14.5355 38.9293Z" fill="#018B45"/>
<path d="M41.5735 12.3631L41.5063 12.3892C40.8637 12.637 40.2161 12.8615 39.5655 13.0587C36.8952 13.8697 34.1505 14.2564 31.3842 14.2101C27.7392 14.1495 24.7954 13.3516 22.9742 12.6956C21.9835 12.3409 21.3251 12.0278 21.0669 11.8971L21.0059 11.8671L21.0573 11.8228C21.3106 11.6064 21.5506 11.4115 21.7905 11.2308L21.8124 11.2148L21.8358 11.2262C21.9921 11.2958 22.6277 11.5668 23.6496 11.8858C25.3625 12.4172 28.1638 13.0806 31.621 13.1379C34.1126 13.1795 36.5841 12.9021 38.9957 12.3129C39.6332 12.1571 40.2656 11.9813 40.8927 11.7819L40.9163 11.7751L40.9341 11.7915C41.1391 11.9631 41.3353 12.1401 41.5221 12.3151L41.5735 12.3631Z" fill="white"/>
<path d="M25.3033 37.7756C25.1325 37.7077 24.9602 37.6324 24.7896 37.5556C24.7879 37.5536 24.7842 37.5519 24.7805 37.5519C23.951 37.1837 23.1464 36.7362 22.372 36.2151C13.6556 34.1006 7.66267 26.1262 6.033 23.7316L5.87941 23.5103C5.87227 23.5012 5.8671 23.4921 5.86169 23.483C5.85455 23.4739 5.8511 23.4665 5.84569 23.4591C5.82994 23.4352 5.82107 23.4224 5.81738 23.417L5.95251 23.7736C6.63185 25.5557 7.74414 29.1389 7.56717 33.1382C7.54477 33.6171 7.50612 34.0848 7.45001 34.5288L7.44164 34.5938L7.50514 34.5785C7.79189 34.5128 8.57584 34.3595 9.6138 34.3767C9.89587 34.3814 10.1794 34.3989 10.4576 34.4286L10.4704 34.4289L10.4812 34.4237C10.4886 34.4203 10.4957 34.4203 10.5011 34.4205C10.5102 34.4208 10.5191 34.4227 10.5282 34.4282L10.5371 34.4373L10.5496 34.4375C11.8258 34.5854 13.0056 34.983 14.0603 35.6209L14.0711 35.6266L14.0802 35.6268C14.0982 35.6291 14.1124 35.6382 14.1196 35.651L14.125 35.662L14.1358 35.6677C14.7856 36.0709 15.3921 36.5713 15.9484 37.1647C15.9572 37.1704 15.9644 37.1777 15.9767 37.1977C16.3001 37.5484 16.6083 37.9354 16.8908 38.3506L16.9049 38.3708L16.9085 38.3727C16.9563 38.4422 17.0021 38.5118 17.0479 38.5829L17.0513 38.5884C17.3723 39.0821 17.6689 39.6204 17.9325 40.191L17.9623 40.2547L18.0083 40.203C18.3804 39.7861 20.4226 37.7129 24.1039 37.7741C24.4891 37.7805 24.8846 37.8106 25.2816 37.8625L25.637 37.9083L25.3033 37.7756ZM19.7275 37.3227L19.7283 37.2794L19.7293 37.3227L19.8747 37.7141L19.7275 37.3227Z" fill="#018B45"/>
<path d="M45.8615 19.3375C45.8937 19.4546 45.9223 19.573 45.9509 19.6914L46.0043 19.9068C46.018 19.9617 46.0323 20.0163 46.0446 20.0714C46.0493 20.0926 46.0798 20.2437 46.0798 20.2437L50.7298 18.5518L50.6459 18.5033C50.2302 18.2628 49.8014 18.0273 49.3712 17.8031L49.3537 17.7939L45.7793 19.0623L45.8214 19.2021C45.8352 19.2471 45.8489 19.2919 45.8615 19.3375Z" fill="#C92C1E"/>
<path d="M16.7581 38.3167L16.7936 38.3642L16.7352 38.3848C15.2818 38.8816 14.2084 40.5673 14.0075 40.9004L13.9851 40.938L13.9458 40.9156C12.6863 40.2021 11.3251 39.8284 9.90025 39.8048C7.77584 39.7694 6.13904 40.5235 5.68861 40.7547L5.6283 40.7862L5.62215 40.7192C5.35287 38.2007 3.00276 35.4361 2.00591 34.3632L1.78906 34.1299C1.79275 34.1319 1.79792 34.1355 1.80506 34.1392C2.04111 34.2987 4.60905 36.0596 6.20648 38.8552C6.20648 38.8552 9.62088 37.1251 13.5571 39.2616C13.5571 39.2616 14.6682 37.7031 16.496 37.9612H16.4977C16.5866 38.0769 16.6734 38.1961 16.7581 38.3167Z" fill="#006D33"/>
<path d="M17.0519 38.5881L17.0371 38.6095C17.0088 38.5657 16.9807 38.5199 16.9473 38.4707L17.0484 38.5827L17.0519 38.5881Z" fill="#EDCC45"/>
<path d="M25.637 37.9083L25.2816 37.8625C24.8846 37.8108 24.4891 37.7805 24.1039 37.7741C20.4226 37.7129 18.3804 39.7858 18.0083 40.203L17.9623 40.2547L17.9325 40.191C17.6689 39.6204 17.3723 39.0821 17.0513 38.5884L17.0365 38.6098C17.0082 38.566 16.9802 38.5202 16.9467 38.471L17.0479 38.5829C17.0021 38.5116 16.956 38.4422 16.9085 38.3727L16.9049 38.3708L16.8908 38.3506C16.6085 37.9354 16.3001 37.5487 15.9767 37.1977C15.9644 37.1775 15.9572 37.1704 15.9484 37.1647C15.3921 36.5713 14.7856 36.0711 14.1358 35.6677L14.125 35.662L14.1196 35.651C14.1127 35.6382 14.0982 35.6288 14.0802 35.6268L14.0711 35.6266L14.0603 35.6209C13.0056 34.983 11.8258 34.5854 10.5496 34.4375L10.537 34.4373L10.5282 34.4282C10.5193 34.4225 10.5102 34.4205 10.5011 34.4205C10.4957 34.4205 10.4886 34.4203 10.4812 34.4237L10.4703 34.4289L10.4575 34.4287C10.1797 34.3986 9.89587 34.3814 9.6138 34.3767C8.57584 34.3595 7.79214 34.5128 7.50514 34.5785L7.44164 34.5938L7.45001 34.5288C7.50612 34.0848 7.54477 33.6171 7.56717 33.1382C7.74414 29.1387 6.63185 25.5554 5.95251 23.7736L5.81738 23.417C5.82083 23.4224 5.82969 23.4352 5.84569 23.4591C5.8511 23.4665 5.85455 23.4736 5.86169 23.483C5.86686 23.4921 5.87227 23.5012 5.87941 23.5103C6.27766 24.1409 8.49215 27.7859 9.21702 32.162C9.21702 32.162 15.4327 32.1913 18.3755 37.2809C18.3755 37.2809 21.8601 36.5486 24.7807 37.5521C24.7844 37.5521 24.7879 37.5541 24.7898 37.5558C25.079 37.655 25.3626 37.7719 25.637 37.9083Z" fill="#006D33"/>
<path d="M15.1911 10.106C15.0649 10.5234 13.9897 13.9437 11.6222 16.7782C11.6222 16.7782 14.8313 21.409 11.8491 25.9552C11.8491 25.9552 11.8491 25.9552 11.8474 25.9552C11.2434 25.8402 10.6223 25.6652 9.9915 25.4287L9.93563 25.4078L9.97083 25.3595C11.0649 23.8404 11.4922 22.2976 11.2426 20.776C10.8633 18.4655 9.03034 16.8814 8.47702 16.4509L8.41992 16.4066L8.48564 16.3751C12.1602 14.662 14.1618 11.8777 15.0277 10.3708L15.199 10.0752C15.1968 10.0826 15.1948 10.0934 15.1911 10.106Z" fill="#006D33"/>
<path d="M19.8956 29.84L17.6084 30.8817L17.5892 30.8453C17.4979 30.6791 17.4086 30.5149 17.3227 30.3454L17.3018 30.3052L19.679 29.1836C19.7471 29.4071 19.8195 29.6254 19.8956 29.84Z" fill="#E2E2E2"/>
<path d="M21.8994 33.6392C19.8398 32.9648 18.5719 32.3234 18.4912 32.282L18.4804 32.2764L18.4732 32.2673C18.3583 32.1026 18.2401 31.9271 18.1025 31.7132L18.0991 31.7095L18.0833 31.6839C17.9317 31.4464 17.7981 31.2251 17.675 31.0044L17.6504 30.9623L19.9267 29.9258C20.4524 31.3743 21.1445 32.603 21.8994 33.6392Z" fill="#EDCC45"/>
<path d="M19.651 29.0967L17.2648 30.2235L17.2456 30.1833C16.5022 28.6553 16.0195 27.0232 15.8108 25.3288C15.4079 22.0485 16.0459 18.8074 17.6578 15.9532L17.6672 15.9372L21.5945 14.6787C20.0385 17.2265 18.8073 20.5592 18.9419 24.6416C18.9976 26.3025 19.255 27.7825 19.651 29.0967Z" fill="#EDCC45"/>
<path d="M21.6639 14.565L17.7383 15.82L17.7978 15.7179C17.9374 15.4796 18.0878 15.2399 18.2456 15.0038L18.2549 14.9896L22.1963 13.6572L22.2207 13.7156C22.0316 13.9868 21.8461 14.2713 21.6639 14.565Z" fill="#E2E2E2"/>
<path d="M22.2217 13.5562L18.333 14.8678L18.4108 14.7551C18.6015 14.4797 18.7756 14.2439 18.9419 14.0297C19.5241 13.2834 20.1849 12.5837 20.9081 11.9501L20.9302 11.9287L20.9588 11.9437C21.1274 12.0296 21.8144 12.3703 22.9183 12.7685C22.7039 13.0417 22.4912 13.3275 22.2818 13.6278L22.2626 13.584C22.2559 13.5675 22.2397 13.5564 22.2217 13.5562Z" fill="#EDCC45"/>
<path d="M21.0659 11.8971L21.0049 11.8671L21.0563 11.8228C21.3096 11.6064 21.5496 11.4115 21.7896 11.2308L21.8115 11.2148L21.8349 11.2262C21.9912 11.2958 22.6267 11.5668 23.6486 11.8858C23.4237 12.1406 23.1987 12.4118 22.9732 12.6956C21.9825 12.3409 21.3241 12.0281 21.0659 11.8971Z" fill="#E2E2E2"/>
<path d="M22.9904 34.9631C20.8709 34.2966 19.5984 33.6098 19.498 33.5557C19.2265 33.251 18.9641 32.9266 18.7076 32.5822L18.6016 32.4375L18.7647 32.5143C19.3264 32.7786 20.4486 33.2694 21.9975 33.7691C22.3212 34.2013 22.6547 34.5993 22.9904 34.9631Z" fill="#E2E2E2"/>
<path d="M21.9664 11.1828L21.8945 11.1525L21.9585 11.1048C22.5591 10.6644 23.2079 10.261 23.8848 9.90339L23.9013 9.89453L23.9193 9.90019C24.0507 9.94031 24.5166 10.0784 25.2356 10.2512C24.7655 10.6846 24.2466 11.2059 23.714 11.8102C22.8107 11.5313 22.2069 11.2862 21.9664 11.1828Z" fill="#EDCC45"/>
<path d="M25.8079 37.3631C24.132 37.0005 23.1388 36.5826 23.0686 36.5525C22.5459 36.2345 22.0487 35.8917 21.5847 35.5296C20.9669 35.0472 20.3774 34.5076 19.83 33.927L19.6611 33.7471L19.8836 33.8556C20.4165 34.1141 21.5527 34.6248 23.1326 35.1178H23.1344C24.0672 36.1041 25.0156 36.8381 25.8079 37.3631Z" fill="#EDCC45"/>
<path d="M24.1242 9.86821L24.0127 9.83572L24.1166 9.7833C24.3317 9.67475 24.5488 9.57162 24.7602 9.47759L24.773 9.4707L24.7893 9.47464C24.9047 9.50196 25.2847 9.58786 25.8563 9.70035C25.6857 9.84581 25.504 10.0056 25.3148 10.1796C24.7757 10.0489 24.3671 9.93713 24.1242 9.86821Z" fill="#E2E2E2"/>
<path d="M25.0519 9.44012L24.9131 9.41058L25.0423 9.35495C25.7726 9.04704 26.5238 8.79549 27.2829 8.60547C27.2226 8.64436 26.7015 8.98649 25.9456 9.62324C25.5545 9.54793 25.25 9.48319 25.0519 9.44012Z" fill="#EDCC45"/>
<path d="M27.7581 38.4314C27.751 38.4314 27.7419 38.4295 27.7274 38.4272C27.7237 38.4253 27.7202 38.4253 27.7165 38.4253C27.2698 38.3256 26.8267 38.206 26.3876 38.0666L26.3758 38.0122L26.366 38.0556L26.3372 38.0497C25.5348 37.7905 24.7481 37.4626 23.9932 37.072L23.5342 36.833L24.0272 36.9896C24.4951 37.1348 25.172 37.325 26.0189 37.5C26.9855 38.1166 27.6808 38.3994 27.7581 38.4314Z" fill="#E2E2E2"/>
<path d="M36.9357 10.0772C36.1539 9.34447 35.5645 8.90585 35.3838 8.77441C36.2495 9.03113 37.0957 9.36711 37.8991 9.77299L38.0032 9.82542L37.8904 9.85618C37.5874 9.93987 37.2697 10.0142 36.9357 10.0772Z" fill="#FFE98D"/>
<path d="M37.7191 37.1269L38.1678 37.0078L37.6864 37.2439C37.6409 37.2648 37.597 37.2877 37.5532 37.3086C36.392 37.8553 35.1955 38.2513 33.9688 38.4932C34.2255 38.3926 34.9068 38.1039 35.7909 37.5651H35.7926C36.4387 37.4437 37.0814 37.297 37.7191 37.1269Z" fill="white"/>
<path d="M37.0156 10.1533C37.3949 10.0799 37.7543 9.99206 38.0942 9.89287L38.1124 9.8877L38.1286 9.89533C38.3329 10.0036 38.5392 10.1193 38.7433 10.2384L38.8329 10.2906L38.7329 10.3197C38.3349 10.4378 37.9244 10.5414 37.5015 10.63C37.3341 10.4605 37.1704 10.3005 37.0156 10.1533Z" fill="white"/>
<path d="M37.5781 10.7062C38.0391 10.6053 38.4842 10.4899 38.9169 10.3577L38.9368 10.3525L38.953 10.3636C39.449 10.6649 39.9194 10.9856 40.3479 11.3147L40.439 11.3848C40.5195 11.4476 40.598 11.5123 40.6745 11.5768L40.8298 11.706L40.7516 11.7302C40.1498 11.9172 39.543 12.0863 38.9329 12.2335C38.4667 11.6544 38.0066 11.1458 37.5781 10.7062Z" fill="#FFE98D"/>
<path d="M38.9951 12.3132C39.6326 12.1574 40.2649 11.9817 40.8921 11.7823L40.9157 11.7754L40.9334 11.7919C41.1385 11.9634 41.3346 12.1404 41.5215 12.3154L41.5732 12.3634L41.506 12.3895C40.8633 12.6374 40.2157 12.8618 39.5652 13.059C39.3756 12.7988 39.1864 12.5495 38.9951 12.3132Z" fill="white"/>
<path d="M41.6133 34.392L41.8226 34.3105L41.5781 34.5505C41.3411 34.7782 41.0842 35.0071 40.8127 35.2323L40.8107 35.2358L40.7979 35.2446C40.0954 35.8297 39.3326 36.3525 38.533 36.8022C37.6968 37.056 36.8541 37.2662 36.0049 37.4328C36.7743 36.9464 37.6752 36.2796 38.5726 35.3975H38.5743C39.599 35.1235 40.6121 34.7878 41.6133 34.392Z" fill="#FFE98D"/>
<path d="M42.8018 33.0992L42.9731 33.0244L42.8533 33.1689C42.5801 33.5044 42.2869 33.834 41.9834 34.1456L41.978 34.1527L41.9689 34.1562C40.8945 34.5977 39.8049 34.9721 38.7002 35.2736C39.0128 34.9588 39.3244 34.6167 39.6306 34.2472C40.7116 33.9327 41.7705 33.5487 42.8018 33.0992Z" fill="white"/>
<path d="M41.449 31.459L43.4038 32.4499L43.3206 32.5644C43.2466 32.6643 43.1725 32.7662 43.0969 32.8644L43.0895 32.8733L43.0787 32.8785C41.9908 33.3722 40.8716 33.7894 39.7266 34.1283C40.3468 33.3614 40.9383 32.4758 41.449 31.459Z" fill="#FFE98D"/>
<path d="M41.7696 30.7773L43.8431 31.8138L43.8153 31.8567C43.7077 32.0213 43.5982 32.184 43.4815 32.3447L43.4593 32.377L41.4883 31.3784C41.5855 31.183 41.6813 30.9821 41.7696 30.7773Z" fill="white"/>
<path d="M39.6211 13.1351C40.2918 12.931 40.9576 12.7016 41.6185 12.443L41.6458 12.4326L41.6655 12.4528C42.6213 13.3748 43.4539 14.4214 44.1404 15.5595C44.2443 15.7331 44.3427 15.9029 44.4375 16.0745L44.5096 16.2042L40.2005 13.982C40.0097 13.6879 39.8155 13.4061 39.6211 13.1351Z" fill="#FFE98D"/>
<path d="M40.2979 14.1338L44.5819 16.3429L44.589 16.3557C44.7204 16.6075 44.8428 16.8573 44.9511 17.096L45.0052 17.2144L40.8401 15.0418C40.6641 14.7277 40.4829 14.4245 40.2979 14.1338Z" fill="white"/>
<path d="M46.2168 25.3574C46.2111 25.3753 46.2091 25.3825 46.2109 25.3916C46.0962 26.3102 45.8946 27.2221 45.6103 28.1072C45.3622 28.8862 45.055 29.6369 44.6976 30.3436C44.4601 30.8117 44.1994 31.2649 43.9171 31.7052L43.8947 31.7392L41.805 30.6953C42.4952 29.1134 42.9875 27.2425 43.1344 25.044C43.3978 21.0677 42.3386 17.7604 40.9219 15.1885L45.0619 17.3481L45.069 17.3626C45.1699 17.5957 45.2448 17.7778 45.3107 17.9489L45.3125 17.9563L45.3142 17.9688C45.7597 19.1301 46.0615 20.3468 46.2143 21.5866C46.3689 22.8441 46.3696 24.1139 46.2168 25.3574Z" fill="#FFE98D"/>
<path d="M44.217 37.8191L44.8102 37.8144L44.2244 37.9077C43.4426 38.034 42.6461 38.0913 41.8541 38.078C41.0403 38.0645 40.2335 37.9769 39.4385 37.8171C39.918 37.6985 40.3812 37.5688 40.8267 37.4297C41.648 37.6296 42.6833 37.7969 43.8748 37.8169C43.9873 37.8191 44.103 37.8191 44.217 37.8191Z" fill="#FCC947"/>
<path d="M47.8582 33.9934C47.7443 33.9897 47.6306 33.9843 47.5166 33.9786C47.6155 33.8952 47.7147 33.812 47.8102 33.7266L47.9306 33.9963L47.8582 33.9934Z" fill="#DE5547"/>
<path d="M48.7083 36.2337L48.8914 36.2078L48.7413 36.3156C47.6878 36.9167 46.5625 37.3698 45.3908 37.6686C44.8836 37.7161 44.3753 37.7348 43.8724 37.7265C42.7641 37.708 41.7881 37.5579 40.999 37.3767C42.1753 37.0075 43.2366 36.5839 44.1922 36.1113C44.9931 36.2403 45.8757 36.3365 46.7672 36.3513C47.4493 36.3626 48.1008 36.323 48.7083 36.2337Z" fill="#DE5547"/>
<path d="M48.0298 33.9983L47.8799 33.6631C48.2415 33.3417 48.5762 33.0091 48.8858 32.667L49.4768 33.9954L49.4099 33.9979C49.0372 34.0079 48.6609 34.0106 48.2902 34.0045C48.2124 34.0033 48.0298 33.9983 48.0298 33.9983Z" fill="white"/>
<path d="M49.5746 33.9925L48.9521 32.5932C49.2396 32.2725 49.5037 31.9458 49.7479 31.6136C49.8793 31.4331 50.0054 31.2507 50.126 31.0684L51.4504 33.8576L51.3869 33.8637C50.7945 33.9262 50.1951 33.9706 49.6052 33.9915L49.5746 33.9925Z" fill="#DE5547"/>
<path d="M51.6893 33.9195L51.8161 33.9053L51.7277 33.9961C50.9622 34.7864 50.0971 35.4828 49.1558 36.0639C48.43 36.2108 47.6313 36.2753 46.7651 36.261C45.9209 36.247 45.0902 36.1609 44.3291 36.0432C45.5128 35.4498 46.5347 34.7832 47.4112 34.0635C47.5993 34.0739 47.7925 34.0825 47.9914 34.0877L48.0005 34.0879L48.0042 34.0899L48.0113 34.0882C48.1036 34.0916 48.1976 34.0931 48.2917 34.0946C48.6985 34.1012 49.1182 34.0975 49.5398 34.0847L49.5489 34.083L49.5543 34.0867C50.2637 34.0586 50.9773 34.0035 51.6893 33.9195Z" fill="#FCC947"/>
<path d="M51.2068 29.0479L53.0334 32.4224L53.0186 32.4455C52.6779 32.9245 52.3122 33.3762 51.9292 33.7892L51.9181 33.8017L51.9019 33.8032C51.7914 33.8177 51.6845 33.8286 51.5775 33.8411L51.5447 33.846L50.1836 30.9803C50.5882 30.3507 50.9282 29.7053 51.2068 29.0479Z" fill="white"/>
<path d="M52.0401 26.3506L54.2848 30.2494L54.2735 30.2708C53.9471 30.9834 53.5632 31.6605 53.1351 32.283L53.0943 32.3438L51.252 28.9402C51.6079 28.0868 51.8648 27.2177 52.0401 26.3506Z" fill="#DE5547"/>
<path d="M51.5509 17.0271C51.1133 15.3974 50.6587 14.3501 50.6309 14.2881C51.8869 15.3199 52.9386 16.569 53.7538 18.0006C53.9823 18.4005 54.1925 18.8163 54.3771 19.2354L54.4817 19.4742L54.3022 19.2849C53.5094 18.4525 52.5635 17.6988 51.5509 17.0271Z" fill="#DE5547"/>
<path d="M52.3458 23.9326L55.0062 28.2814L55.0023 28.301C54.8295 28.9078 54.6169 29.5027 54.367 30.07L54.3313 30.1508L52.0674 26.2192C52.2175 25.4515 52.3061 24.6843 52.3458 23.9326Z" fill="white"/>
<path d="M54.5721 19.7146C54.8187 20.3319 55.0144 20.959 55.1611 21.5926L55.1948 21.7378L55.0862 21.6347C54.6927 21.261 54.2666 20.8904 53.8169 20.534L53.8132 20.532L53.7901 20.5118C53.2491 20.085 52.6647 19.6648 52.044 19.2585C51.9121 18.4913 51.7521 17.7851 51.5869 17.1602C52.7066 17.9111 53.7433 18.764 54.5721 19.7146Z" fill="#FCC947"/>
<path d="M54.2757 21.0256C54.6198 21.3207 54.9299 21.6008 55.2198 21.8858L55.2287 21.8949L55.2321 21.9094C55.2757 22.1219 55.3156 22.3377 55.35 22.5499L55.3793 22.7402L54.001 20.793L54.2757 21.0256Z" fill="#DE5547"/>
<path d="M52.2754 20.9746L55.488 25.3903L55.4877 25.4065C55.4348 26.3027 55.2933 27.1957 55.0673 28.0599L55.0402 28.1625L52.3534 23.7737C52.3967 22.8071 52.3601 21.8659 52.2754 20.9746Z" fill="#DE5547"/>
<path d="M55.502 25.1186L55.4981 25.2488L52.2589 20.7981C52.2075 20.3071 52.1412 19.8323 52.0654 19.3789C52.663 19.7722 53.224 20.1776 53.7453 20.5914L55.4028 22.9321L55.4045 22.943C55.4953 23.6627 55.5283 24.3939 55.502 25.1186Z" fill="white"/>
<path d="M48.7572 36.36C45.2121 38.3815 41.1373 38.6166 37.5723 37.35C39.6777 36.3598 41.5897 34.8714 43.119 32.9117C48.3425 26.2256 47.1536 16.5714 40.4676 11.3501C40.437 11.3269 40.4068 11.3036 40.3763 11.2804C43.9588 10.8241 47.6001 11.8318 50.4381 14.0711L50.4378 14.0733C51.7608 15.1145 52.9088 16.4254 53.7941 17.979C57.4793 24.4458 55.224 32.6751 48.7572 36.36Z" stroke="black" stroke-miterlimit="10" stroke-linecap="round" stroke-linejoin="round"/>
<path d="M44.7656 11.4448L46.2348 10.0576C46.2348 10.0576 48.5729 10.1526 50.1506 11.5851L50.4381 14.0721" stroke="black" stroke-miterlimit="10" stroke-linecap="round" stroke-linejoin="round"/>
<path d="M47.4095 10.2361C47.4095 10.2361 46.0073 7.30513 47.4974 6.45596C48.9875 5.60679 52.3933 6.81655 49.2208 10.9211" stroke="black" stroke-miterlimit="10" stroke-linecap="round" stroke-linejoin="round"/>
<path d="M48.6476 10.6395C48.6476 10.6395 50.2351 7.91479 48.7231 7.60048C47.2111 7.28616 47.9754 10.3909 47.9754 10.3909" stroke="black" stroke-miterlimit="10" stroke-linecap="round" stroke-linejoin="round"/>
<path d="M43.1187 32.9109C41.5892 34.8709 39.6774 36.359 37.572 37.3492C32.4934 39.7421 26.2854 39.2565 21.5568 35.5645C14.8708 30.3432 13.6842 20.689 18.9055 14.0027C21.2888 10.9503 24.5922 9.04546 28.1184 8.37228C30.4616 7.92111 32.9035 8.01686 35.2342 8.68241C37.0465 9.19954 38.7918 10.0615 40.376 11.2792C40.4065 11.3023 40.4368 11.3257 40.4673 11.3488C47.1533 16.5706 48.3422 26.2248 43.1187 32.9109Z" stroke="black" stroke-miterlimit="10" stroke-linecap="round" stroke-linejoin="round"/>
<path d="M28.1182 8.37213L29.0663 6.27308C29.0663 6.27308 31.5724 5.3604 33.8564 6.18742L35.2367 8.68497" stroke="black" stroke-miterlimit="10" stroke-linecap="round" stroke-linejoin="round"/>
<path d="M30.3818 5.95335C30.3818 5.95335 27.6337 3.47057 28.837 1.93C30.0401 0.389183 34.1548 0.18932 32.5884 5.89107" stroke="black" stroke-miterlimit="10" stroke-linecap="round" stroke-linejoin="round"/>
<path d="M31.8613 5.84148C31.8613 5.84148 32.3548 2.28112 30.6244 2.60479C28.8943 2.92846 31.0448 5.87077 31.0448 5.87077" stroke="black" stroke-miterlimit="10" stroke-linecap="round" stroke-linejoin="round"/>
<path d="M21.8008 11.1602C21.8008 11.1602 30.2248 15.1343 40.9273 11.7245" stroke="black" stroke-miterlimit="10" stroke-linecap="round" stroke-linejoin="round"/>
<path d="M23.8887 9.84473C23.8887 9.84473 32.0232 12.4385 38.9468 10.3035" stroke="black" stroke-miterlimit="10" stroke-linecap="round" stroke-linejoin="round"/>
<path d="M20.9209 11.873C20.9209 11.873 30.0976 16.9166 41.6581 12.3806" stroke="black" stroke-miterlimit="10" stroke-linecap="round" stroke-linejoin="round"/>
<path d="M18.458 32.3164C18.458 32.3164 30.5362 38.6234 43.1187 32.9113" stroke="black" stroke-miterlimit="10" stroke-linecap="round" stroke-linejoin="round"/>
<path d="M19.459 33.5869C19.459 33.5869 29.5688 39.3084 42.0012 34.1909" stroke="black" stroke-miterlimit="10" stroke-linecap="round" stroke-linejoin="round"/>
<path d="M17.5908 30.9399L20.8091 29.4746L23.8356 32.9926L26.9588 30.6989L30.0419 33.894L33.7248 31.0415L37.1365 33.4943L40.0729 30.7132L43.4741 32.4361" stroke="black" stroke-miterlimit="10" stroke-linecap="round" stroke-linejoin="round"/>
<path d="M17.2461 30.2816L20.9674 28.5244L23.9533 31.9841L27.0962 29.7632L30.0467 32.8655L33.675 30.0958L37.0773 32.4855L39.9013 29.7915L43.9123 31.798" stroke="black" stroke-miterlimit="10" stroke-linecap="round" stroke-linejoin="round"/>
<path d="M18.2188 14.9553L22.2212 13.6025L23.7662 17.2089L27.4782 14.8487L29.896 18.178L33.4413 15.0245L37.8917 18.158L39.9364 13.8974L44.6147 16.3103" stroke="black" stroke-miterlimit="10" stroke-linecap="round" stroke-linejoin="round"/>
<path d="M17.6367 15.899L21.7932 14.5684L23.4327 18.3151L27.2813 15.9098L29.8072 19.2883L33.5376 16.0755L38.1584 19.3855L40.3783 14.8529L45.0947 17.3133" stroke="black" stroke-miterlimit="10" stroke-linecap="round" stroke-linejoin="round"/>
<path d="M24.7627 9.42188C24.7627 9.42188 32.9005 11.3966 38.122 9.8376" stroke="black" stroke-miterlimit="10" stroke-linecap="round" stroke-linejoin="round"/>
<path d="M23.0391 36.5889C23.0391 36.5889 29.7022 39.5199 38.5452 36.8471" stroke="black" stroke-miterlimit="10" stroke-linecap="round" stroke-linejoin="round"/>
<path d="M42.2021 12.9287C42.2021 12.9287 50.6862 15.1649 54.6207 19.7014" stroke="black" stroke-miterlimit="10" stroke-linecap="round" stroke-linejoin="round"/>
<path d="M44.1826 15.543C44.1826 15.543 51.0082 17.6657 55.276 21.8778" stroke="black" stroke-miterlimit="10" stroke-linecap="round" stroke-linejoin="round"/>
<path d="M42.8271 33.2734C42.8271 33.2734 46.4995 34.5462 51.9431 33.8445" stroke="black" stroke-miterlimit="10" stroke-linecap="round" stroke-linejoin="round"/>
<path d="M40.8369 35.2695C40.8369 35.2695 45.4623 36.8598 49.1753 36.1113" stroke="black" stroke-miterlimit="10" stroke-linecap="round" stroke-linejoin="round"/>
<path d="M38.8076 36.6973C38.8076 36.6973 41.5255 38.0823 45.4184 37.7123" stroke="black" stroke-miterlimit="10" stroke-linecap="round" stroke-linejoin="round"/>
<path d="M46.373 23.7125L51.0996 21.8086L55.0622 28.284" stroke="black" stroke-miterlimit="10" stroke-linecap="round" stroke-linejoin="round"/>
<path d="M46.2539 25.3882L50.5332 23.6455L54.3405 30.2575" stroke="black" stroke-miterlimit="10" stroke-linecap="round" stroke-linejoin="round"/>
<path d="M53.0904 32.4334L49.7747 26.3105L45.6504 28.1278" stroke="black" stroke-miterlimit="10" stroke-linecap="round" stroke-linejoin="round"/>
<path d="M46.2803 21.7634L51.5016 19.835L55.5431 25.3881" stroke="black" stroke-miterlimit="10" stroke-linecap="round" stroke-linejoin="round"/>
<path d="M44.7334 30.369L49.0472 28.6953L51.5179 33.8957" stroke="black" stroke-miterlimit="10" stroke-linecap="round" stroke-linejoin="round"/>
<path d="M43.5898 32.2763L48.1463 30.8984L49.5463 34.0406" stroke="black" stroke-miterlimit="10" stroke-linecap="round" stroke-linejoin="round"/>
<path d="M46.0469 20.3037L50.8409 18.5596" stroke="black" stroke-miterlimit="10" stroke-linecap="round" stroke-linejoin="round"/>
<path d="M53.7773 20.5566L55.4538 22.9252" stroke="black" stroke-miterlimit="10" stroke-linecap="round" stroke-linejoin="round"/>
<path d="M45.7246 19.0344L49.3633 17.7432" stroke="black" stroke-miterlimit="10" stroke-linecap="round" stroke-linejoin="round"/>
<path d="M45.3555 17.9508L47.9714 17.0576" stroke="black" stroke-miterlimit="10" stroke-linecap="round" stroke-linejoin="round"/>
<path d="M44.8828 16.8465L46.3702 16.3555" stroke="black" stroke-miterlimit="10" stroke-linecap="round" stroke-linejoin="round"/>
<path d="M44.0273 33.587L47.3997 32.7021L48.0017 34.0458" stroke="black" stroke-miterlimit="10" stroke-linecap="round" stroke-linejoin="round"/>
<path d="M22.393 36.1728C11.93 33.6416 5.54395 22.8965 5.54395 22.8965C5.54395 22.8965 8.20345 28.5478 7.388 34.6544C7.388 34.6544 14.459 32.6061 17.9509 40.3385C17.9509 40.3385 20.6698 36.799 26.3553 38.0996" stroke="black" stroke-miterlimit="10" stroke-linecap="round" stroke-linejoin="round"/>
<path d="M5.54395 22.8965C5.54395 22.8965 9.6532 26.4706 14.0561 26.1388C14.0561 26.1388 15.6919 30.5316 18.0585 31.7227" stroke="black" stroke-miterlimit="10" stroke-linecap="round" stroke-linejoin="round"/>
<path d="M15.9283 37.2028C15.9283 37.2028 7.58798 37.9737 1.43555 33.8428C1.43555 33.8428 5.33755 37.6047 5.58935 40.8596C5.58935 40.8596 9.6447 38.4795 14.0008 40.9997C14.0008 40.9997 15.2052 38.8736 16.8661 38.3869" stroke="black" stroke-miterlimit="10" stroke-linecap="round" stroke-linejoin="round"/>
<path d="M1.43555 33.8427C1.43555 33.8427 4.63064 34.3072 7.52349 33.1299" stroke="black" stroke-miterlimit="10" stroke-linecap="round" stroke-linejoin="round"/>
<path d="M10.501 34.4639C10.501 34.4639 11.5818 35.8713 14.0803 35.6719" stroke="black" stroke-miterlimit="10" stroke-linecap="round" stroke-linejoin="round"/>
<path d="M15.9623 29.735C15.9623 29.735 11.9037 21.1562 15.4038 9.54395C15.4038 9.54395 13.5186 14.0433 8.3291 16.3976C8.3291 16.3976 13.748 20.1778 9.86253 25.4338" stroke="black" stroke-miterlimit="10" stroke-linecap="round" stroke-linejoin="round"/>
<path d="M15.4043 9.54395C15.4043 9.54395 15.6012 15.097 17.2279 16.6728" stroke="black" stroke-miterlimit="10" stroke-linecap="round" stroke-linejoin="round"/>
<path d="M7.57031 27.7695C8.02763 29.2569 8.2339 30.8211 8.17753 32.3762" stroke="black" stroke-width="0.5" stroke-miterlimit="10" stroke-linecap="round" stroke-linejoin="round"/>
<path d="M8.47266 29.2988C8.58489 29.8307 8.66932 30.3688 8.72544 30.9095" stroke="black" stroke-width="0.5" stroke-miterlimit="10" stroke-linecap="round" stroke-linejoin="round"/>
<path d="M9.4707 30.5098C9.53519 30.7468 9.5886 30.9868 9.63069 31.229" stroke="black" stroke-width="0.5" stroke-miterlimit="10" stroke-linecap="round" stroke-linejoin="round"/>
<path d="M10.3672 31.4365C10.4088 31.5384 10.4506 31.6406 10.4922 31.7425" stroke="black" stroke-width="0.5" stroke-miterlimit="10" stroke-linecap="round" stroke-linejoin="round"/>
<path d="M15.7012 35.9668C16.7716 36.8578 17.6479 37.9809 18.2524 39.2357" stroke="black" stroke-width="0.5" stroke-miterlimit="10" stroke-linecap="round" stroke-linejoin="round"/>
<path d="M17.5908 36.9375C17.9128 37.3062 18.2106 37.6961 18.4811 38.1039" stroke="black" stroke-width="0.5" stroke-miterlimit="10" stroke-linecap="round" stroke-linejoin="round"/>
<path d="M18.9756 37.3721C19.0548 37.5473 19.1668 37.7076 19.3044 37.8419" stroke="black" stroke-width="0.5" stroke-miterlimit="10" stroke-linecap="round" stroke-linejoin="round"/>
<path d="M19.7285 37.3223C19.777 37.4532 19.8257 37.5842 19.8742 37.7151" stroke="black" stroke-width="0.5" stroke-miterlimit="10" stroke-linecap="round" stroke-linejoin="round"/>
<path d="M4.75391 36.6543C5.30378 37.5278 5.70498 38.4947 5.93561 39.5009" stroke="black" stroke-width="0.5" stroke-miterlimit="10" stroke-linecap="round" stroke-linejoin="round"/>
<path d="M6.3457 38.3145C6.40699 38.5471 6.46828 38.7794 6.52932 39.012" stroke="black" stroke-width="0.5" stroke-miterlimit="10" stroke-linecap="round" stroke-linejoin="round"/>
<path d="M6.98828 38.6299C7.04366 38.7685 7.09904 38.9068 7.15442 39.0454" stroke="black" stroke-width="0.5" stroke-miterlimit="10" stroke-linecap="round" stroke-linejoin="round"/>
<path d="M11.4258 39.3027C12.2334 39.4937 13.0774 39.7034 13.6954 40.257" stroke="black" stroke-width="0.5" stroke-miterlimit="10" stroke-linecap="round" stroke-linejoin="round"/>
<path d="M13.21 39.3174C13.4554 39.4555 13.6855 39.6201 13.8952 39.8077" stroke="black" stroke-width="0.5" stroke-miterlimit="10" stroke-linecap="round" stroke-linejoin="round"/>
<path d="M14.168 39.1377C14.2103 39.1978 14.2694 39.2455 14.3368 39.2745" stroke="black" stroke-width="0.5" stroke-miterlimit="10" stroke-linecap="round" stroke-linejoin="round"/>
<path d="M14.5371 38.9297C14.5723 38.974 14.6073 39.0183 14.6425 39.0626" stroke="black" stroke-width="0.5" stroke-miterlimit="10" stroke-linecap="round" stroke-linejoin="round"/>
<path d="M13.749 26.8027C13.9489 27.7184 14.3759 28.5835 14.9812 29.2993" stroke="black" stroke-width="0.5" stroke-miterlimit="10" stroke-linecap="round" stroke-linejoin="round"/>
<path d="M13.1953 27.1211C13.3127 27.5058 13.4666 27.8797 13.6541 28.2356" stroke="black" stroke-width="0.5" stroke-miterlimit="10" stroke-linecap="round" stroke-linejoin="round"/>
<path d="M12.4521 27.2393C12.5014 27.5061 12.5939 27.7648 12.7251 28.0023" stroke="black" stroke-width="0.5" stroke-miterlimit="10" stroke-linecap="round" stroke-linejoin="round"/>
<path d="M9.74805 16.748C10.895 17.6583 11.7176 18.9689 12.0381 20.3978" stroke="black" stroke-width="0.5" stroke-miterlimit="10" stroke-linecap="round" stroke-linejoin="round"/>
<path d="M11.2314 17.4072C11.4786 17.7516 11.7257 18.0959 11.9728 18.4405" stroke="black" stroke-width="0.5" stroke-miterlimit="10" stroke-linecap="round" stroke-linejoin="round"/>
<path d="M12 16.834C12.1775 16.9876 12.3035 17.1995 12.3542 17.4286" stroke="black" stroke-width="0.5" stroke-miterlimit="10" stroke-linecap="round" stroke-linejoin="round"/>
<path d="M12.6816 16.2178C12.7013 16.3411 12.721 16.4644 12.7407 16.5877" stroke="black" stroke-width="0.5" stroke-miterlimit="10" stroke-linecap="round" stroke-linejoin="round"/>
<path d="M15.3477 14.1768C15.5542 14.9794 15.8663 15.755 16.2731 16.4769" stroke="black" stroke-width="0.5" stroke-miterlimit="10" stroke-linecap="round" stroke-linejoin="round"/>
<path d="M15.4385 16.2197C15.5726 16.4245 15.7065 16.6293 15.8407 16.8341" stroke="black" stroke-width="0.5" stroke-miterlimit="10" stroke-linecap="round" stroke-linejoin="round"/>
<path d="M15.6094 17.7842C15.6584 17.8792 15.7076 17.974 15.7566 18.0687" stroke="black" stroke-width="0.5" stroke-miterlimit="10" stroke-linecap="round" stroke-linejoin="round"/>
<path d="M11.1934 24.8312C11.3497 24.5733 11.5057 24.3156 11.662 24.0576" stroke="black" stroke-width="0.5" stroke-miterlimit="10" stroke-linecap="round" stroke-linejoin="round"/>
<path d="M12.1445 25.0194C12.1763 24.9165 12.2304 24.8207 12.3018 24.7402" stroke="black" stroke-width="0.5" stroke-miterlimit="10" stroke-linecap="round" stroke-linejoin="round"/>
<path d="M16.4375 22.0293C16.6095 20.087 17.2623 18.1891 18.3212 16.5518" stroke="black" stroke-width="0.5" stroke-miterlimit="10" stroke-linecap="round" stroke-linejoin="round"/>
<path d="M17.7998 18.9494C17.946 18.5507 18.1355 18.1677 18.364 17.8096" stroke="black" stroke-width="0.5" stroke-miterlimit="10" stroke-linecap="round" stroke-linejoin="round"/>
<path d="M18.5312 19.4837C18.5852 19.303 18.6607 19.129 18.7555 18.9658" stroke="black" stroke-width="0.5" stroke-miterlimit="10" stroke-linecap="round" stroke-linejoin="round"/>
<path d="M16.7871 25.6846C16.8939 26.8791 17.2053 28.0551 17.7037 29.146" stroke="black" stroke-width="0.5" stroke-miterlimit="10" stroke-linecap="round" stroke-linejoin="round"/>
<path d="M18.0264 27.7432C18.0793 27.9952 18.1681 28.2399 18.2892 28.4671" stroke="black" stroke-width="0.5" stroke-miterlimit="10" stroke-linecap="round" stroke-linejoin="round"/>
<path d="M18.8887 27.9756C18.918 28.0726 18.9684 28.1629 19.0351 28.2392" stroke="black" stroke-width="0.5" stroke-miterlimit="10" stroke-linecap="round" stroke-linejoin="round"/>
<path d="M18.9795 31.6445C19.0216 31.7176 19.0639 31.7907 19.106 31.8636" stroke="black" stroke-width="0.5" stroke-miterlimit="10" stroke-linecap="round" stroke-linejoin="round"/>
<path d="M19.6963 31.6348C19.7428 31.7465 19.8073 31.8506 19.8866 31.9417" stroke="black" stroke-width="0.5" stroke-miterlimit="10" stroke-linecap="round" stroke-linejoin="round"/>
<path d="M43.8311 30.5202C44.853 28.7517 45.4277 26.7273 45.4873 24.6855" stroke="black" stroke-width="0.5" stroke-miterlimit="10" stroke-linecap="round" stroke-linejoin="round"/>
<path d="M43.9893 28.3704C44.262 27.6931 44.4439 26.9793 44.5283 26.2539" stroke="black" stroke-width="0.5" stroke-miterlimit="10" stroke-linecap="round" stroke-linejoin="round"/>
<path d="M43.5479 26.5408C43.5717 26.411 43.5954 26.2811 43.6192 26.1514" stroke="black" stroke-width="0.5" stroke-miterlimit="10" stroke-linecap="round" stroke-linejoin="round"/>
<path d="M44.4736 17.874C44.6526 18.4052 44.8315 18.9363 45.0105 19.4675" stroke="black" stroke-width="0.5" stroke-miterlimit="10" stroke-linecap="round" stroke-linejoin="round"/>
<path d="M45.1084 20.6396C45.1532 20.8437 45.1977 21.0475 45.2425 21.2513" stroke="black" stroke-width="0.5" stroke-miterlimit="10" stroke-linecap="round" stroke-linejoin="round"/>
<path d="M41.5557 13.1377C41.8577 13.3757 42.1301 13.6514 42.3647 13.9561" stroke="black" stroke-width="0.5" stroke-miterlimit="10" stroke-linecap="round" stroke-linejoin="round"/>
<path d="M42.6836 14.502C42.7264 14.5531 42.7692 14.6041 42.8121 14.6553" stroke="black" stroke-width="0.5" stroke-miterlimit="10" stroke-linecap="round" stroke-linejoin="round"/>
<path d="M33.418 6.57812C33.6486 7.01034 33.8349 7.46594 33.9735 7.93581" stroke="black" stroke-width="0.5" stroke-miterlimit="10" stroke-linecap="round" stroke-linejoin="round"/>
<path d="M32.998 6.98438C33.1054 7.16209 33.1893 7.35407 33.2469 7.55344" stroke="black" stroke-width="0.5" stroke-miterlimit="10" stroke-linecap="round" stroke-linejoin="round"/>
<path d="M32.4541 7.01953C32.5004 7.07836 32.5373 7.14457 32.5634 7.21496" stroke="black" stroke-width="0.5" stroke-miterlimit="10" stroke-linecap="round" stroke-linejoin="round"/>
<path d="M31.8482 6.92188C31.827 6.99325 31.8334 7.07226 31.8662 7.13921" stroke="black" stroke-width="0.5" stroke-miterlimit="10" stroke-linecap="round" stroke-linejoin="round"/>
<path d="M31.3069 6.87012C31.2826 6.96168 31.2737 7.05718 31.2806 7.15194" stroke="black" stroke-width="0.5" stroke-miterlimit="10" stroke-linecap="round" stroke-linejoin="round"/>
<path d="M30.0195 7.23902C30.0862 7.09528 30.1337 6.94243 30.1603 6.78613" stroke="black" stroke-width="0.5" stroke-miterlimit="10" stroke-linecap="round" stroke-linejoin="round"/>
<path d="M29.2578 7.4436C29.3262 7.29321 29.3947 7.14258 29.4631 6.99219" stroke="black" stroke-width="0.5" stroke-miterlimit="10" stroke-linecap="round" stroke-linejoin="round"/>
<path d="M23.6016 10.8211C23.638 10.7999 23.6747 10.779 23.7111 10.7578" stroke="black" stroke-width="0.5" stroke-miterlimit="10" stroke-linecap="round" stroke-linejoin="round"/>
<path d="M24.1387 11.1782C24.232 11.0709 24.3543 10.9894 24.4892 10.9443" stroke="black" stroke-width="0.5" stroke-miterlimit="10" stroke-linecap="round" stroke-linejoin="round"/>
<path d="M20.3721 13.1546C20.4779 12.9708 20.613 12.8039 20.7708 12.6621" stroke="black" stroke-width="0.5" stroke-miterlimit="10" stroke-linecap="round" stroke-linejoin="round"/>
<path d="M21.1592 12.8208C21.203 12.7999 21.2466 12.7787 21.2904 12.7578" stroke="black" stroke-width="0.5" stroke-miterlimit="10" stroke-linecap="round" stroke-linejoin="round"/>
<path d="M28.583 15.3965C28.9724 15.9638 29.3458 16.5422 29.7029 17.1305" stroke="black" stroke-width="0.5" stroke-miterlimit="10" stroke-linecap="round" stroke-linejoin="round"/>
<path d="M29.7881 16.1104C29.8799 16.2563 29.9719 16.4025 30.0638 16.5485" stroke="black" stroke-width="0.5" stroke-miterlimit="10" stroke-linecap="round" stroke-linejoin="round"/>
<path d="M23.5986 14.8584C23.6902 15.1629 23.8175 15.4565 23.9767 15.7317" stroke="black" stroke-width="0.5" stroke-miterlimit="10" stroke-linecap="round" stroke-linejoin="round"/>
<path d="M24.5078 15.0039C24.5693 15.1572 24.6306 15.3108 24.6922 15.4642" stroke="black" stroke-width="0.5" stroke-miterlimit="10" stroke-linecap="round" stroke-linejoin="round"/>
<path d="M35.6748 15.6885C36.3217 16.0542 36.9387 16.4724 37.5184 16.9371" stroke="black" stroke-width="0.5" stroke-miterlimit="10" stroke-linecap="round" stroke-linejoin="round"/>
<path d="M37.4277 16.0205C37.5331 16.135 37.6557 16.2332 37.7903 16.3107" stroke="black" stroke-width="0.5" stroke-miterlimit="10" stroke-linecap="round" stroke-linejoin="round"/>
<path d="M38.04 15.5771C38.0967 15.6365 38.153 15.6955 38.2096 15.7546" stroke="black" stroke-width="0.5" stroke-miterlimit="10" stroke-linecap="round" stroke-linejoin="round"/>
<path d="M34.4189 8.96094C34.8869 9.09754 35.3479 9.25778 35.7998 9.44041" stroke="black" stroke-width="0.5" stroke-miterlimit="10" stroke-linecap="round" stroke-linejoin="round"/>
<path d="M34.9297 9.57812C35.0372 9.63055 35.1451 9.68298 35.2526 9.73541" stroke="black" stroke-width="0.5" stroke-miterlimit="10" stroke-linecap="round" stroke-linejoin="round"/>
<path d="M38.4141 33.2482C38.9588 32.7579 39.4887 32.2513 40.0031 31.7295" stroke="black" stroke-width="0.5" stroke-miterlimit="10" stroke-linecap="round" stroke-linejoin="round"/>
<path d="M40.0332 32.7704C40.1265 32.6958 40.22 32.6212 40.3133 32.5469" stroke="black" stroke-width="0.5" stroke-miterlimit="10" stroke-linecap="round" stroke-linejoin="round"/>
<path d="M31.6172 33.9004C32.1902 33.3651 32.7841 32.8524 33.3972 32.3633" stroke="black" stroke-width="0.5" stroke-miterlimit="10" stroke-linecap="round" stroke-linejoin="round"/>
<path d="M33.2637 33.5511C33.4463 33.3869 33.6289 33.2228 33.8118 33.0586" stroke="black" stroke-width="0.5" stroke-miterlimit="10" stroke-linecap="round" stroke-linejoin="round"/>
<path d="M25.0869 33.1752C25.4807 32.8052 25.9048 32.4678 26.3538 32.167" stroke="black" stroke-width="0.5" stroke-miterlimit="10" stroke-linecap="round" stroke-linejoin="round"/>
<path d="M26.627 33.4597C26.7476 33.3802 26.8684 33.3009 26.989 33.2217" stroke="black" stroke-width="0.5" stroke-miterlimit="10" stroke-linecap="round" stroke-linejoin="round"/>
<path d="M27.8389 33.9514C27.894 33.9034 27.9489 33.8556 28.004 33.8076" stroke="black" stroke-width="0.5" stroke-miterlimit="10" stroke-linecap="round" stroke-linejoin="round"/>
<path d="M22.6035 35.6221C22.7534 35.7439 22.9033 35.8657 23.0532 35.9878" stroke="black" stroke-width="0.5" stroke-miterlimit="10" stroke-linecap="round" stroke-linejoin="round"/>
<path d="M23.8467 36.1641C23.9739 36.263 24.1086 36.3524 24.2491 36.4311" stroke="black" stroke-width="0.5" stroke-miterlimit="10" stroke-linecap="round" stroke-linejoin="round"/>
<path d="M25.1572 36.5938C25.2055 36.6218 25.2537 36.6501 25.302 36.6782" stroke="black" stroke-width="0.5" stroke-miterlimit="10" stroke-linecap="round" stroke-linejoin="round"/>
<path d="M47.6875 34.5594C48.518 34.6997 49.3755 34.6775 50.1974 34.4941" stroke="black" stroke-width="0.5" stroke-miterlimit="10" stroke-linecap="round" stroke-linejoin="round"/>
<path d="M48.3115 35.2034C48.4533 35.2007 48.5953 35.215 48.7336 35.246" stroke="black" stroke-width="0.5" stroke-miterlimit="10" stroke-linecap="round" stroke-linejoin="round"/>
<path d="M47.5723 35.5986C47.7187 35.6011 47.8652 35.6036 48.0116 35.606" stroke="black" stroke-width="0.5" stroke-miterlimit="10" stroke-linecap="round" stroke-linejoin="round"/>
<path d="M41.8359 35.0322C42.1874 35.1245 42.5458 35.1907 42.9071 35.2299" stroke="black" stroke-width="0.5" stroke-miterlimit="10" stroke-linecap="round" stroke-linejoin="round"/>
<path d="M42.3633 34.6484C42.4834 34.6927 42.6087 34.7228 42.7359 34.7375" stroke="black" stroke-width="0.5" stroke-miterlimit="10" stroke-linecap="round" stroke-linejoin="round"/>
<path d="M39.7949 36.5078C40.2104 36.7119 40.6507 36.8647 41.1034 36.9619" stroke="black" stroke-width="0.5" stroke-miterlimit="10" stroke-linecap="round" stroke-linejoin="round"/>
<path d="M40.4463 36.3584C40.5918 36.415 40.7375 36.4716 40.8829 36.5285" stroke="black" stroke-width="0.5" stroke-miterlimit="10" stroke-linecap="round" stroke-linejoin="round"/>
<path d="M48.9609 29.8398C49.2757 30.5736 49.6014 31.3026 49.9374 32.0268" stroke="black" stroke-width="0.5" stroke-miterlimit="10" stroke-linecap="round" stroke-linejoin="round"/>
<path d="M50.0977 32.5957C50.1681 32.6978 50.2259 32.8089 50.2695 32.925" stroke="black" stroke-width="0.5" stroke-miterlimit="10" stroke-linecap="round" stroke-linejoin="round"/>
<path d="M50.3379 25.9111C50.6488 26.5164 50.9759 27.1133 51.319 27.7008" stroke="black" stroke-width="0.5" stroke-miterlimit="10" stroke-linecap="round" stroke-linejoin="round"/>
<path d="M51.7295 28.2627C51.8075 28.3949 51.8853 28.5273 51.9633 28.6595" stroke="black" stroke-width="0.5" stroke-miterlimit="10" stroke-linecap="round" stroke-linejoin="round"/>
<path d="M52.3389 22.4561C52.7494 23.099 53.16 23.7419 53.5703 24.385" stroke="black" stroke-width="0.5" stroke-miterlimit="10" stroke-linecap="round" stroke-linejoin="round"/>
<path d="M54.1123 25.0615C54.1431 25.1519 54.1916 25.2363 54.2546 25.3082" stroke="black" stroke-width="0.5" stroke-miterlimit="10" stroke-linecap="round" stroke-linejoin="round"/>
<path d="M54.6826 25.9668C54.7124 26.0278 54.7422 26.0889 54.772 26.1499" stroke="black" stroke-width="0.5" stroke-miterlimit="10" stroke-linecap="round" stroke-linejoin="round"/>
<path d="M52.9971 20.6807C53.0918 20.8315 53.1984 20.975 53.3153 21.1094" stroke="black" stroke-width="0.5" stroke-miterlimit="10" stroke-linecap="round" stroke-linejoin="round"/>
<path d="M53.8242 21.8174C53.8771 21.905 53.9298 21.9929 53.9825 22.0805" stroke="black" stroke-width="0.5" stroke-miterlimit="10" stroke-linecap="round" stroke-linejoin="round"/>
<path d="M47.543 20.6349C48.212 20.3836 48.8746 20.1156 49.53 19.8311" stroke="black" stroke-width="0.5" stroke-miterlimit="10" stroke-linecap="round" stroke-linejoin="round"/>
<path d="M49.8867 19.7317C49.9741 19.7005 50.0612 19.669 50.1484 19.6377" stroke="black" stroke-width="0.5" stroke-miterlimit="10" stroke-linecap="round" stroke-linejoin="round"/>
<path d="M48.1377 22.0934C48.3528 22.024 48.5625 21.9378 48.7644 21.8359" stroke="black" stroke-width="0.5" stroke-miterlimit="10" stroke-linecap="round" stroke-linejoin="round"/>
<path d="M49.5332 21.5216C49.6253 21.4883 49.7171 21.4551 49.8091 21.4219" stroke="black" stroke-width="0.5" stroke-miterlimit="10" stroke-linecap="round" stroke-linejoin="round"/>
<path d="M47.6992 24.0937C47.8033 24.0469 47.9072 23.9999 48.0113 23.9531" stroke="black" stroke-width="0.5" stroke-miterlimit="10" stroke-linecap="round" stroke-linejoin="round"/>
<path d="M47.0098 26.3756C47.1752 26.3185 47.3349 26.2449 47.4858 26.1562" stroke="black" stroke-width="0.5" stroke-miterlimit="10" stroke-linecap="round" stroke-linejoin="round"/>
<path d="M46.3467 18.2742C46.5049 18.2225 46.663 18.1708 46.8212 18.1191" stroke="black" stroke-width="0.5" stroke-miterlimit="10" stroke-linecap="round" stroke-linejoin="round"/>
<path d="M49.1543 15.1387C49.9626 15.481 50.7219 15.9386 51.402 16.4934" stroke="black" stroke-width="0.5" stroke-miterlimit="10" stroke-linecap="round" stroke-linejoin="round"/>
<path d="M50.3662 15.3799C50.5808 15.5192 50.7957 15.6583 51.0104 15.7976" stroke="black" stroke-width="0.5" stroke-miterlimit="10" stroke-linecap="round" stroke-linejoin="round"/>
<path d="M50.7803 14.9961C50.8928 15.0901 51.005 15.1844 51.1175 15.2784" stroke="black" stroke-width="0.5" stroke-miterlimit="10" stroke-linecap="round" stroke-linejoin="round"/>
<path d="M50.5742 17.5654C50.9181 17.7717 51.2622 17.978 51.606 18.184" stroke="black" stroke-width="0.5" stroke-miterlimit="10" stroke-linecap="round" stroke-linejoin="round"/>
<path d="M52.5098 18.6865C52.6223 18.7869 52.7397 18.882 52.8615 18.9711" stroke="black" stroke-width="0.5" stroke-miterlimit="10" stroke-linecap="round" stroke-linejoin="round"/>
<path d="M42.541 12.1602C43.0188 12.3046 43.5453 12.2734 43.9996 12.4799" stroke="black" stroke-width="0.5" stroke-miterlimit="10" stroke-linecap="round" stroke-linejoin="round"/>
<path d="M45.9932 11.1396C46.1253 11.0224 46.2575 10.9052 46.3897 10.7881" stroke="black" stroke-width="0.5" stroke-miterlimit="10" stroke-linecap="round" stroke-linejoin="round"/>
<path d="M46.71 11.1513C46.7489 11.1031 46.7875 11.0548 46.8264 11.0068" stroke="black" stroke-width="0.5" stroke-miterlimit="10" stroke-linecap="round" stroke-linejoin="round"/>
<path d="M47.2939 11.2751C47.3274 11.216 47.3609 11.157 47.3946 11.0977" stroke="black" stroke-width="0.5" stroke-miterlimit="10" stroke-linecap="round" stroke-linejoin="round"/>
<path d="M49.6387 12.1611C49.6667 12.3721 49.6849 12.5842 49.6931 12.7969" stroke="black" stroke-width="0.5" stroke-miterlimit="10" stroke-linecap="round" stroke-linejoin="round"/>
<path d="M49.0705 12.1191C49.0636 12.2058 49.0567 12.2924 49.0498 12.3793" stroke="black" stroke-width="0.5" stroke-miterlimit="10" stroke-linecap="round" stroke-linejoin="round"/>
</svg>
