<svg width="61" height="42" viewBox="0 0 61 42" fill="none" xmlns="http://www.w3.org/2000/svg">
<path d="M33.6782 31.016C34.0048 28.3158 36.0473 26.6388 36.4541 26.3297L36.4778 26.3119L36.4629 26.2848C34.4192 22.5133 37.916 19.4542 38.3214 19.1178L38.3485 19.0946L38.3264 19.0667C38.0162 18.7014 37.7396 18.3209 37.5039 17.9364C36.0386 15.5492 36.4007 13.4536 36.6246 12.6632L36.6712 12.4941C36.67 12.495 36.6695 12.497 36.6678 12.4995L36.5622 12.6319C36.1114 13.2012 34.9699 14.7947 34.0796 17.2655C33.0473 20.1278 32.1285 24.8364 33.6085 31.0189L33.6548 31.2102L33.6782 31.016ZM34.6752 25.2062C34.676 25.2073 34.676 25.2073 34.676 25.2073L34.4629 25.6358L34.6752 25.2062Z" fill="#018B45"/>
<path d="M33.4524 30.6622C32.0892 24.6328 33.0055 20.0331 34.0155 17.2343C34.7068 15.3171 35.5437 13.9306 36.1233 13.1052L36.2452 12.9293C36.2559 12.9146 36.2661 12.9017 36.2729 12.8909C36.2875 12.872 36.296 12.8585 36.3005 12.8525L36.0719 13.0592C34.7951 14.2114 32.2058 16.1529 29.1934 16.2116L29.1313 16.213L29.1637 16.2658C29.6981 17.1446 32.1621 21.7081 28.1557 25.0929L28.1182 25.1259L28.1613 25.1508C28.65 25.4297 31.1687 26.9636 32.8426 29.6906C33.0425 30.0161 33.2246 30.3506 33.3852 30.6851L33.5198 30.9663L33.4524 30.6622Z" fill="#018B45"/>
<path d="M33.5198 30.9656L33.3852 30.6844C33.2246 30.3499 33.0422 30.0154 32.8426 29.69C31.1687 26.9629 28.65 25.429 28.1613 25.1501L28.1182 25.1253L28.1557 25.0922C32.1621 21.7072 29.6983 17.1439 29.1637 16.2651L29.1313 16.2124L29.1931 16.2107C32.2058 16.1519 34.7951 14.2104 36.0716 13.0582L36.3002 12.8516C36.2957 12.8578 36.2875 12.871 36.2726 12.89C36.2661 12.9007 36.2556 12.9137 36.2449 12.9283C35.8718 13.4302 33.7609 16.1593 30.994 17.3186C30.994 17.3186 33.5523 21.8257 30.2045 24.7106C30.2045 24.7106 32.1793 26.4813 33.5198 30.9656Z" fill="#006D33"/>
<path d="M33.6555 31.2102C33.4709 28.0087 35.4922 26.0144 35.4922 26.0144C33.1152 20.2105 37.0414 18.9927 37.0414 18.9927C35.3277 15.075 36.5869 12.6471 36.6682 12.4995C36.6699 12.4967 36.6705 12.495 36.6716 12.4941L36.625 12.6632C36.4012 13.4536 36.039 15.5492 37.5043 17.9364C37.7403 18.3206 38.0169 18.7014 38.3269 19.0667L38.3489 19.0946L38.3218 19.1178C37.9164 19.454 34.4196 22.5133 36.4633 26.2848L36.4782 26.3119L36.4545 26.3297C36.0475 26.639 34.0052 28.3158 33.6786 31.016L33.6555 31.2102Z" fill="#07A953"/>
<path d="M33.6755 31.4423C30.5349 19.0857 36.7769 12.3184 36.7769 12.3184C36.7769 12.3184 33.3475 16.1692 29.0673 16.1776C29.0673 16.1776 32.5882 21.3967 28.0557 25.1312C28.0557 25.1312 32.0499 27.2423 33.6755 31.4423Z" stroke="black" stroke-miterlimit="10" stroke-linecap="round" stroke-linejoin="round"/>
<path d="M36.7772 12.3184C36.7772 12.3184 35.3424 15.54 38.4 19.0992C38.4 19.0992 34.2737 22.2669 36.524 26.3213C36.524 26.3213 33.8344 28.21 33.6758 31.4423" stroke="black" stroke-miterlimit="10" stroke-linecap="round" stroke-linejoin="round"/>
<path d="M30.5732 18C31.0565 19.3761 31.1708 20.8798 30.9015 22.3132" stroke="black" stroke-width="0.5" stroke-miterlimit="10" stroke-linecap="round" stroke-linejoin="round"/>
<path d="M31.6064 19.623C31.6321 20.0851 31.6372 20.5481 31.6217 21.0104" stroke="black" stroke-width="0.5" stroke-miterlimit="10" stroke-linecap="round" stroke-linejoin="round"/>
<path d="M32.1557 20.4746C32.1611 20.7222 32.1351 20.9706 32.0781 21.2116" stroke="black" stroke-width="0.5" stroke-miterlimit="10" stroke-linecap="round" stroke-linejoin="round"/>
<path d="M30.6137 23.1475C30.5686 23.2841 30.5237 23.421 30.4785 23.5576" stroke="black" stroke-width="0.5" stroke-miterlimit="10" stroke-linecap="round" stroke-linejoin="round"/>
<path d="M30.151 24.623C30.0742 24.6919 30.0138 24.7791 29.9766 24.8754" stroke="black" stroke-width="0.5" stroke-miterlimit="10" stroke-linecap="round" stroke-linejoin="round"/>
<path d="M34.0332 28.3349C34.3364 27.6691 34.7256 27.0424 35.1886 26.4756" stroke="black" stroke-width="0.5" stroke-miterlimit="10" stroke-linecap="round" stroke-linejoin="round"/>
<path d="M34.3721 26.7022C34.4709 26.4849 34.5954 26.2791 34.7421 26.0908" stroke="black" stroke-width="0.5" stroke-miterlimit="10" stroke-linecap="round" stroke-linejoin="round"/>
<path d="M34.4629 25.6355C34.534 25.4927 34.6049 25.3499 34.676 25.207" stroke="black" stroke-width="0.5" stroke-miterlimit="10" stroke-linecap="round" stroke-linejoin="round"/>
<path d="M34.5693 24.3535C34.6238 24.2807 34.6783 24.2076 34.7328 24.1348" stroke="black" stroke-width="0.5" stroke-miterlimit="10" stroke-linecap="round" stroke-linejoin="round"/>
<path d="M35.6914 21.6715C36.0917 20.7024 36.7646 19.8477 37.6129 19.2314" stroke="black" stroke-width="0.5" stroke-miterlimit="10" stroke-linecap="round" stroke-linejoin="round"/>
<path d="M36.2627 19.8892C36.4436 19.5976 36.6565 19.3261 36.8967 19.0811" stroke="black" stroke-width="0.5" stroke-miterlimit="10" stroke-linecap="round" stroke-linejoin="round"/>
<path d="M35.9043 18.9182C35.9963 18.7866 36.0999 18.663 36.2137 18.5498" stroke="black" stroke-width="0.5" stroke-miterlimit="10" stroke-linecap="round" stroke-linejoin="round"/>
<path d="M35.5183 15.3779C35.3873 15.6681 35.293 15.9747 35.2383 16.288" stroke="black" stroke-width="0.5" stroke-miterlimit="10" stroke-linecap="round" stroke-linejoin="round"/>
<path d="M32.0202 28.4999C33.3752 26.8452 35.438 26.5931 35.8386 26.5592L35.862 26.5572L35.8634 26.533C36.0966 23.1679 39.7075 22.6113 40.1182 22.5591L40.1459 22.5551L40.143 22.5275C40.0911 22.1543 40.068 21.7851 40.0733 21.4305C40.1069 19.2282 41.2307 17.9899 41.7125 17.5594L41.8147 17.4668C41.8136 17.4668 41.8124 17.4679 41.8102 17.4691L41.6843 17.5125C41.1451 17.7005 39.7157 18.2769 38.083 19.5418C36.1912 21.0066 33.5962 23.7449 31.9728 28.4728L31.9229 28.6193L32.0202 28.4999ZM35.1309 25.0634C35.1309 25.0646 35.1309 25.0646 35.1309 25.0646L34.8089 25.2591L35.1309 25.0634Z" fill="#018B45"/>
<path d="M32.0204 28.1696C33.657 23.5927 36.2043 20.9255 38.0546 19.4935C39.3217 18.5123 40.4619 17.9447 41.1944 17.6412L41.3493 17.576C41.3626 17.5706 41.375 17.5664 41.3838 17.5622C41.4016 17.5557 41.4128 17.5503 41.4182 17.5483L41.1794 17.589C39.8462 17.8157 37.3088 18.013 35.2843 16.782L35.2426 16.7568L35.2417 16.8057C35.2259 17.6144 34.9377 21.6823 30.8515 22.2403L30.8125 22.2466L30.8308 22.2813C31.0378 22.6722 32.063 24.7523 32.0246 27.2683C32.0201 27.5686 32 27.8673 31.9656 28.1572L31.9365 28.4005L32.0204 28.1696Z" fill="#018B45"/>
<path d="M31.9375 28.3995L31.9666 28.1562C32.001 27.8663 32.0211 27.5674 32.0256 27.2673C32.064 24.7514 31.0387 22.6713 30.8318 22.2803L30.8135 22.2456L30.8524 22.2394C34.9387 21.6813 35.2269 17.6134 35.2427 16.8047L35.2435 16.7559L35.2853 16.781C37.3098 18.012 39.8472 17.8147 41.1804 17.588L41.4192 17.5474C41.4135 17.5493 41.4025 17.555 41.3847 17.5612C41.3757 17.5654 41.3636 17.5697 41.3503 17.575C40.891 17.7509 38.3395 18.6725 36.0141 18.2759C36.0141 18.2759 35.8123 22.3461 32.3739 22.8499C32.3739 22.8499 32.9379 24.8578 31.9375 28.3995Z" fill="#006D33"/>
<path d="M31.9238 28.6186C33.1509 26.4157 35.3334 25.9437 35.3334 25.9437C36.202 21.0891 39.3217 21.9357 39.3217 21.9357C39.8358 18.6127 41.6948 17.5319 41.8111 17.4681C41.8134 17.4669 41.8145 17.4658 41.8157 17.4658L41.7135 17.5584C41.2316 17.9889 40.1079 19.2269 40.0743 21.4296C40.0689 21.7841 40.0921 22.1533 40.144 22.5265L40.1468 22.5541L40.1192 22.5581C39.7085 22.6106 36.0976 23.167 35.8644 26.532L35.863 26.5563L35.8396 26.5582C35.439 26.5921 33.3764 26.8442 32.0212 28.4989L31.9238 28.6186Z" fill="#07A953"/>
<path d="M31.8396 28.7816C34.9639 19.2553 41.9598 17.3943 41.9598 17.3943C41.9598 17.3943 38.0602 18.5047 35.2154 16.7061C35.2154 16.7061 35.3526 21.6547 30.7695 22.2229C30.7695 22.2229 32.5309 25.3082 31.8396 28.7816Z" stroke="black" stroke-miterlimit="10" stroke-linecap="round" stroke-linejoin="round"/>
<path d="M41.96 17.3945C41.96 17.3945 39.6496 18.9284 40.1789 22.58C40.1789 22.58 36.1045 22.9433 35.8891 26.5832C35.8891 26.5832 33.3077 26.7035 31.8398 28.7819" stroke="black" stroke-miterlimit="10" stroke-linecap="round" stroke-linejoin="round"/>
<path d="M35.4469 18.5508C35.1875 19.668 34.6297 20.7144 33.8467 21.5522" stroke="black" stroke-width="0.5" stroke-miterlimit="10" stroke-linecap="round" stroke-linejoin="round"/>
<path d="M35.4487 20.0635C35.2712 20.381 35.0792 20.6904 34.874 20.9908" stroke="black" stroke-width="0.5" stroke-miterlimit="10" stroke-linecap="round" stroke-linejoin="round"/>
<path d="M35.4549 20.8604C35.3542 21.0269 35.2322 21.1807 35.0928 21.3171" stroke="black" stroke-width="0.5" stroke-miterlimit="10" stroke-linecap="round" stroke-linejoin="round"/>
<path d="M33.3045 21.9844C33.217 22.0561 33.1295 22.1281 33.042 22.1998" stroke="black" stroke-width="0.5" stroke-miterlimit="10" stroke-linecap="round" stroke-linejoin="round"/>
<path d="M32.3745 22.7695C32.2943 22.7828 32.2175 22.8153 32.1523 22.8635" stroke="black" stroke-width="0.5" stroke-miterlimit="10" stroke-linecap="round" stroke-linejoin="round"/>
<path d="M33.3867 26.8693C33.8686 26.5548 34.3913 26.303 34.9373 26.1221" stroke="black" stroke-width="0.5" stroke-miterlimit="10" stroke-linecap="round" stroke-linejoin="round"/>
<path d="M34.2998 25.9278C34.457 25.8251 34.6264 25.741 34.8031 25.6777" stroke="black" stroke-width="0.5" stroke-miterlimit="10" stroke-linecap="round" stroke-linejoin="round"/>
<path d="M34.8096 25.2589C34.9168 25.194 35.0244 25.1294 35.1316 25.0645" stroke="black" stroke-width="0.5" stroke-miterlimit="10" stroke-linecap="round" stroke-linejoin="round"/>
<path d="M35.4219 24.4525C35.4888 24.4271 35.5557 24.4014 35.6226 24.376" stroke="black" stroke-width="0.5" stroke-miterlimit="10" stroke-linecap="round" stroke-linejoin="round"/>
<path d="M37.2969 23.1448C37.971 22.6703 38.778 22.3866 39.6008 22.335" stroke="black" stroke-width="0.5" stroke-miterlimit="10" stroke-linecap="round" stroke-linejoin="round"/>
<path d="M38.4268 22.2039C38.6698 22.0867 38.9255 21.9961 39.1883 21.9346" stroke="black" stroke-width="0.5" stroke-miterlimit="10" stroke-linecap="round" stroke-linejoin="round"/>
<path d="M38.5986 21.407C38.7152 21.3585 38.836 21.3201 38.9594 21.293" stroke="black" stroke-width="0.5" stroke-miterlimit="10" stroke-linecap="round" stroke-linejoin="round"/>
<path d="M39.8353 18.8955C39.6261 19.033 39.4344 19.1967 39.2656 19.3816" stroke="black" stroke-width="0.5" stroke-miterlimit="10" stroke-linecap="round" stroke-linejoin="round"/>
<path d="M22.5874 34.2877C19.427 32.4284 18.456 29.0007 18.2931 28.3308L18.2838 28.2919L18.2423 28.2958C12.4802 28.7881 10.5856 22.8177 10.3885 22.1354L10.3744 22.0894L10.3281 22.1016C9.70965 22.2879 9.09005 22.4245 8.48796 22.5089C4.74807 23.0325 2.35408 21.4554 1.49822 20.7523L1.31445 20.6035C1.31474 20.6055 1.31699 20.6069 1.31925 20.6106L1.42623 20.8124C1.88663 21.6762 3.24014 23.9457 5.81338 26.3783C8.79366 29.1969 14.1166 32.871 22.5538 34.375L22.8152 34.4207L22.5874 34.2877ZM15.946 29.9235C15.948 29.9232 15.948 29.9232 15.948 29.9232L16.3624 30.4174L15.946 29.9235Z" fill="#018B45"/>
<path d="M22.0279 34.3754C13.8427 32.809 8.65308 29.197 5.73913 26.4403C3.74287 24.5524 2.48053 22.7707 1.77342 21.6097L1.62213 21.3644C1.60942 21.3432 1.59926 21.3235 1.58938 21.3096C1.57386 21.2811 1.56172 21.2636 1.55664 21.2549L1.68846 21.6487C2.42407 23.8473 3.42701 28.0936 1.87533 31.8479L1.84399 31.9252L1.9267 31.9137C3.30082 31.7271 10.268 31.143 12.2905 37.9183L12.3111 37.9826L12.365 37.9425C12.973 37.4892 16.2263 35.2039 20.4985 34.6057C21.0083 34.5343 21.5201 34.4897 22.02 34.4714L22.4401 34.4567L22.0279 34.3754Z" fill="#018B45"/>
<path d="M22.4401 34.4557L22.02 34.4704C21.5201 34.4885 21.0083 34.5333 20.4985 34.6048C16.2263 35.2029 12.973 37.4882 12.365 37.9416L12.3111 37.9816L12.2905 37.9173C10.2677 31.1421 3.30054 31.7261 1.9267 31.9127L1.84399 31.9243L1.87533 31.8469C3.42701 28.0926 2.42407 23.8466 1.68846 21.6477L1.55664 21.2539C1.56172 21.2627 1.57386 21.2802 1.58938 21.3087C1.59898 21.3228 1.60942 21.3423 1.62213 21.3634C2.04103 22.0951 4.27525 26.1746 4.21597 30.2185C4.21597 30.2185 11.1645 29.4874 12.9242 35.1795C12.9242 35.18 16.1763 33.6944 22.4401 34.4557Z" fill="#006D33"/>
<path d="M22.8152 34.42C18.7597 32.9219 17.385 29.3492 17.385 29.3492C8.93198 29.1572 9.54367 23.6492 9.54367 23.6492C3.77873 23.6545 1.45757 20.7897 1.31925 20.6096C1.31671 20.6062 1.31474 20.6045 1.31445 20.6025L1.49822 20.7513C2.35436 21.4544 4.74835 23.0315 8.48796 22.5079C9.09005 22.4238 9.70965 22.2869 10.3281 22.1006L10.3744 22.0884L10.3885 22.1345C10.5856 22.8164 12.4802 28.7869 18.2423 28.2949L18.2838 28.2909L18.2931 28.3299C18.456 28.9994 19.4268 32.4274 22.5874 34.2868L22.8152 34.42Z" fill="#07A953"/>
<path d="M23.1129 34.5203C6.15117 31.739 1.1543 20.3779 1.1543 20.3779C1.1543 20.3779 4.06373 26.6916 1.76656 31.9849C1.76656 31.9849 10.1138 30.4479 12.2845 38.062C12.2845 38.062 17.0465 34.2648 23.1129 34.5203Z" stroke="black" stroke-miterlimit="10" stroke-linecap="round" stroke-linejoin="round"/>
<path d="M1.1543 20.3779C1.1543 20.3779 4.36181 23.8878 10.4082 22.0287C10.4082 22.0287 12.0976 28.8352 18.321 28.2402C18.321 28.2402 19.2051 32.5816 23.1132 34.5203" stroke="black" stroke-miterlimit="10" stroke-linecap="round" stroke-linejoin="round"/>
<path d="M4.83008 31.1064C6.79106 31.2513 8.71082 31.9205 10.3367 33.0259" stroke="black" stroke-width="0.5" stroke-miterlimit="10" stroke-linecap="round" stroke-linejoin="round"/>
<path d="M7.39258 30.7041C7.97717 30.9212 8.55218 31.1648 9.11504 31.4335" stroke="black" stroke-width="0.5" stroke-miterlimit="10" stroke-linecap="round" stroke-linejoin="round"/>
<path d="M8.74121 30.4844C9.05002 30.6111 9.34303 30.7774 9.61034 30.9775" stroke="black" stroke-width="0.5" stroke-miterlimit="10" stroke-linecap="round" stroke-linejoin="round"/>
<path d="M11.2129 33.8311C11.3577 33.9603 11.5022 34.0896 11.647 34.2192" stroke="black" stroke-width="0.5" stroke-miterlimit="10" stroke-linecap="round" stroke-linejoin="round"/>
<path d="M12.7871 35.1992C12.8306 35.3313 12.9059 35.453 13.0047 35.5509" stroke="black" stroke-width="0.5" stroke-miterlimit="10" stroke-linecap="round" stroke-linejoin="round"/>
<path d="M19.4658 32.4038C18.8061 31.6701 18.2418 30.8512 17.791 29.9736" stroke="black" stroke-width="0.5" stroke-miterlimit="10" stroke-linecap="round" stroke-linejoin="round"/>
<path d="M17.6303 31.1041C17.4149 30.865 17.2278 30.6002 17.0742 30.3174" stroke="black" stroke-width="0.5" stroke-miterlimit="10" stroke-linecap="round" stroke-linejoin="round"/>
<path d="M16.3626 30.4171C16.2243 30.2523 16.0863 30.0874 15.9482 29.9229" stroke="black" stroke-width="0.5" stroke-miterlimit="10" stroke-linecap="round" stroke-linejoin="round"/>
<path d="M14.8357 29.5933C14.775 29.4866 14.714 29.3799 14.6533 29.2734" stroke="black" stroke-width="0.5" stroke-miterlimit="10" stroke-linecap="round" stroke-linejoin="round"/>
<path d="M12.1265 26.7609C11.1447 25.7439 10.4515 24.4516 10.1475 23.0713" stroke="black" stroke-width="0.5" stroke-miterlimit="10" stroke-linecap="round" stroke-linejoin="round"/>
<path d="M10.233 25.0949C9.97023 24.7143 9.74949 24.3048 9.57617 23.876" stroke="black" stroke-width="0.5" stroke-miterlimit="10" stroke-linecap="round" stroke-linejoin="round"/>
<path d="M8.83927 25.0148C8.72608 24.8302 8.62954 24.6354 8.55078 24.4336" stroke="black" stroke-width="0.5" stroke-miterlimit="10" stroke-linecap="round" stroke-linejoin="round"/>
<path d="M4.25684 23.582C4.54476 23.9002 4.87277 24.1819 5.23041 24.4187" stroke="black" stroke-width="0.5" stroke-miterlimit="10" stroke-linecap="round" stroke-linejoin="round"/>
<path d="M18.5853 34.9782C17.271 32.4118 18.0716 29.727 18.2457 29.2138L18.2559 29.1842L18.2266 29.1692C14.1942 27.0671 15.4532 22.3051 15.6098 21.7694L15.6197 21.7329L15.5839 21.7216C15.0947 21.5847 14.6258 21.4143 14.1908 21.2164C11.4875 19.9876 10.5633 17.9315 10.2915 17.1039L10.2322 16.9277C10.2316 16.9291 10.2322 16.9311 10.2325 16.9345L10.2184 17.1135C10.1599 17.881 10.1015 19.958 10.7843 22.6574C11.5744 25.7845 13.5591 30.4674 18.5258 35.0223L18.6799 35.1631L18.5853 34.9782ZM16.0163 29.2816C16.0177 29.2822 16.0177 29.2821 16.0177 29.2821L16.0844 29.7852L16.0163 29.2816Z" fill="#018B45"/>
<path d="M18.1769 34.8004C13.4039 30.3105 11.4816 25.7249 10.7093 22.6664C10.18 20.5716 10.0931 18.8568 10.1131 17.7881L10.116 17.5614C10.1165 17.5419 10.1179 17.5247 10.1174 17.5112C10.1191 17.4858 10.1185 17.4691 10.1188 17.4609L10.0403 17.7779C9.60165 19.5475 8.47763 22.7889 5.86487 24.6268L5.81152 24.6649L5.87136 24.692C6.86215 25.1473 11.7331 27.6966 10.2198 33.0469L10.2063 33.0982L10.2591 33.0943C10.8538 33.0497 13.9767 32.904 17.0648 34.3078C17.4334 34.4755 17.7919 34.6612 18.1312 34.8599L18.416 35.0273L18.1769 34.8004Z" fill="#018B45"/>
<path d="M18.416 35.0283L18.1312 34.8609C17.7916 34.6622 17.4331 34.4764 17.0648 34.3088C13.9767 32.905 10.8538 33.0504 10.2591 33.0953L10.2063 33.0992L10.2198 33.0478C11.7331 27.6976 6.86216 25.1486 5.87137 24.693L5.81152 24.6659L5.86487 24.6278C8.47735 22.7899 9.60165 19.5482 10.0403 17.7789L10.1188 17.4619C10.1185 17.4698 10.1191 17.4865 10.1174 17.5122C10.1179 17.5254 10.1165 17.5429 10.116 17.5624C10.0858 18.2246 9.84893 21.8745 8.10502 24.5338C8.10502 24.5338 13.0257 26.9775 11.7944 31.4979C11.7944 31.4979 14.5791 31.8826 18.416 35.0283Z" fill="#006D33"/>
<path d="M18.68 35.1624C16.6193 32.4585 17.2127 29.5073 17.2127 29.5073C11.6823 25.8168 14.4102 22.4182 14.4102 22.4182C10.5811 19.9917 10.2481 17.1114 10.232 16.9335C10.2317 16.9302 10.2311 16.9282 10.2317 16.9268L10.291 17.1029C10.5628 17.9305 11.4873 19.9866 14.1903 21.2154C14.6256 21.4133 15.0945 21.5838 15.5834 21.7207L15.6192 21.732L15.6094 21.7684C15.4527 22.3041 14.1934 27.0661 18.2261 29.1683L18.2554 29.1832L18.2452 29.2129C18.0711 29.726 17.2705 32.4108 18.5848 34.9772L18.68 35.1624Z" fill="#07A953"/>
<path d="M18.8354 35.3544C8.74852 26.3582 10.2206 16.71 10.2206 16.71C10.2206 16.71 9.49035 22.1274 5.73438 24.6727C5.73438 24.6727 11.923 27.1711 10.1545 33.1404C10.1545 33.1404 14.9163 32.6278 18.8354 35.3544Z" stroke="black" stroke-miterlimit="10" stroke-linecap="round" stroke-linejoin="round"/>
<path d="M10.2207 16.71C10.2207 16.71 10.8702 20.392 15.6675 21.7066C15.6675 21.7066 13.9197 26.9371 18.3017 29.1654C18.3017 29.1654 17.0586 32.4201 18.8355 35.3544" stroke="black" stroke-miterlimit="10" stroke-linecap="round" stroke-linejoin="round"/>
<path d="M8.1377 25.3809C9.3783 26.3036 10.3705 27.5569 10.9839 28.9762" stroke="black" stroke-width="0.5" stroke-miterlimit="10" stroke-linecap="round" stroke-linejoin="round"/>
<path d="M10.0088 26.1943C10.3055 26.585 10.5843 26.989 10.8449 27.4045" stroke="black" stroke-width="0.5" stroke-miterlimit="10" stroke-linecap="round" stroke-linejoin="round"/>
<path d="M10.9961 26.6172C11.1477 26.8314 11.2722 27.0652 11.365 27.3107" stroke="black" stroke-width="0.5" stroke-miterlimit="10" stroke-linecap="round" stroke-linejoin="round"/>
<path d="M11.2266 29.8809C11.2681 30.0276 11.3096 30.1747 11.351 30.3215" stroke="black" stroke-width="0.5" stroke-miterlimit="10" stroke-linecap="round" stroke-linejoin="round"/>
<path d="M11.695 31.4521C11.6682 31.5583 11.6667 31.6706 11.6913 31.7773" stroke="black" stroke-width="0.5" stroke-miterlimit="10" stroke-linecap="round" stroke-linejoin="round"/>
<path d="M17.3075 32.4117C17.1788 31.6467 17.1495 30.8651 17.22 30.0928" stroke="black" stroke-width="0.5" stroke-miterlimit="10" stroke-linecap="round" stroke-linejoin="round"/>
<path d="M16.6368 30.7753C16.5947 30.5258 16.582 30.2712 16.5992 30.0186" stroke="black" stroke-width="0.5" stroke-miterlimit="10" stroke-linecap="round" stroke-linejoin="round"/>
<path d="M16.0842 29.7852C16.0619 29.6176 16.0396 29.4499 16.0176 29.2822" stroke="black" stroke-width="0.5" stroke-miterlimit="10" stroke-linecap="round" stroke-linejoin="round"/>
<path d="M15.418 28.595C15.4225 28.4987 15.4273 28.4022 15.4318 28.3057" stroke="black" stroke-width="0.5" stroke-miterlimit="10" stroke-linecap="round" stroke-linejoin="round"/>
<path d="M14.8132 25.5715C14.5902 24.4828 14.6749 23.3325 15.0548 22.2881" stroke="black" stroke-width="0.5" stroke-miterlimit="10" stroke-linecap="round" stroke-linejoin="round"/>
<path d="M14.2586 23.6682C14.2445 23.3047 14.2707 22.94 14.3365 22.582" stroke="black" stroke-width="0.5" stroke-miterlimit="10" stroke-linecap="round" stroke-linejoin="round"/>
<path d="M13.3672 23.0278C13.37 22.8575 13.3878 22.6876 13.4205 22.5205" stroke="black" stroke-width="0.5" stroke-miterlimit="10" stroke-linecap="round" stroke-linejoin="round"/>
<path d="M10.9297 20.1455C10.9867 20.478 11.0855 20.8032 11.2233 21.1112" stroke="black" stroke-width="0.5" stroke-miterlimit="10" stroke-linecap="round" stroke-linejoin="round"/>
<path d="M40.3138 23.5049L40.2548 23.5997C40.1238 23.8202 39.9358 24.1657 39.7306 24.6427C38.9555 26.4454 37.9545 30.104 39.0201 35.7057L39.0314 35.7704L38.965 35.7608C38.6252 35.7114 38.2831 35.6544 37.9203 35.5861L37.8882 35.5804L37.8825 35.5463C36.9708 29.4982 37.7705 26.3449 38.4409 24.8765C38.7449 24.2134 39.0221 23.8961 39.1039 23.8089L39.1135 23.7976L39.1268 23.7956C39.4726 23.7064 39.841 23.6133 40.204 23.5297L40.3138 23.5049Z" fill="#E8B21A"/>
<path d="M32.3164 3.18335L32.1835 3.03149C31.6991 2.47879 31.2412 1.95629 30.979 1.20402L30.9448 1.10523L30.8934 1.1964C30.7529 1.44142 30.6806 1.71494 30.6236 1.97351C30.6199 1.98875 30.6083 2.00004 30.5951 2.00569C30.5894 2.00936 30.5838 2.00936 30.5762 2.00936C30.5685 2.00936 30.5592 2.00738 30.5516 2.00371C30.2403 1.81571 29.9266 1.72059 29.619 1.72059C28.9124 1.72059 28.4851 2.22022 28.4811 2.22587C28.4715 2.23913 28.4582 2.24477 28.443 2.24477C28.4334 2.24477 28.4241 2.2428 28.4182 2.23913C28.2892 2.14598 27.1228 1.33302 26.1975 1.16196C26.1176 1.14869 26.0397 1.14107 25.9657 1.14107C25.2363 1.14107 25.0825 1.85354 25.0766 1.88374C25.0729 1.90068 25.0596 1.91592 25.0311 1.92157C25.0159 1.92157 25.0006 1.91395 24.9837 1.89306C24.9399 1.85693 24.4615 1.52272 21.3234 1.13713C21.2342 1.12583 21.1447 1.11623 21.0555 1.10861C20.8277 1.08772 20.5977 1.07812 20.3735 1.07812C17.5604 1.07812 15.7671 2.60525 15.6911 2.66989C15.6855 2.67553 15.6759 2.67948 15.659 2.67948H15.6477C15.6324 2.67581 15.6211 2.66424 15.6152 2.64928C15.6132 2.64364 15.4557 2.14203 15.0586 2.04323C15.0111 2.03194 14.9637 2.02601 14.9143 2.02601C14.6332 2.02601 14.3006 2.21796 13.9303 2.59395C12.6234 3.91614 13.0888 7.02006 13.0925 7.05026C13.0962 7.07115 13.0849 7.09204 13.066 7.10164C13.0603 7.10362 13.0527 7.10558 13.0471 7.10558C13.0318 7.10558 13.0205 7.09994 13.0109 7.09035C12.859 6.91929 12.5494 6.87751 12.3764 6.86622L12.2832 6.86226L12.3346 6.94017C12.6575 7.44347 12.631 8.24316 12.6044 9.01632C12.5796 9.69633 12.559 10.3385 12.7679 10.743C13.125 11.4326 14.0006 11.5085 14.3616 11.5085C14.4813 11.5085 14.5612 11.4989 14.5725 11.4989C14.5838 11.4989 14.5934 11.5029 14.603 11.5085C14.6162 11.5198 15.9003 12.4982 17.5872 12.6216C17.5892 12.6235 17.5909 12.6235 17.5928 12.6216C17.7049 12.6312 17.8189 12.6348 17.9347 12.6348C18.4078 12.6348 18.873 12.5626 19.3156 12.4203C19.7164 12.2893 20.1153 12.2267 20.535 12.2267C21.3347 12.2267 22.1191 12.4641 22.9493 12.7167C23.9144 13.0091 25.0085 13.3417 26.34 13.3417C26.6745 13.3417 27.0164 13.3188 27.3562 13.277C29.0146 13.0718 30.2606 12.6693 31.292 12.0025C31.5257 11.8524 31.7499 11.6852 31.9624 11.5066C32.7356 10.8551 33.6321 9.67544 33.8526 8.68013C34.2463 6.90065 33.629 4.69156 32.3164 3.18335ZM22.5908 1.92383C22.8359 1.94274 23.0809 1.97718 23.3242 2.02827C23.0828 1.97887 22.8375 1.94472 22.5908 1.92383Z" fill="white"/>
<path d="M31.0647 17.4483C31.0703 17.319 31.0153 17.1977 30.9145 17.1178C30.8442 17.0608 30.7587 17.0303 30.6714 17.0303C30.6373 17.0303 30.6031 17.0359 30.569 17.0435C29.8698 17.2298 29.1215 17.3512 28.394 17.4272C27.4975 17.5203 26.6352 17.5468 25.9456 17.5468C25.4231 17.5468 24.9881 17.5316 24.6976 17.5183C24.4944 17.5183 24.3253 17.6702 24.3024 17.8717C24.2169 18.5992 24.1029 20.4532 24.8495 21.9331C24.9085 22.0472 25.0222 22.1251 25.1572 22.14C25.6681 22.1971 26.6902 22.2919 27.8089 22.2919C27.9362 22.2919 28.0615 22.2899 28.1832 22.2883C28.7398 22.277 29.2411 22.2408 29.6801 22.1782C30.2158 22.1022 30.6641 21.9882 31.0192 21.838C31.175 21.7714 31.2682 21.6102 31.2529 21.4372C31.1804 20.6378 31.0169 18.6508 31.0647 17.4483ZM24.7256 18.3279C24.7047 18.4058 24.6858 18.4837 24.6685 18.5616C24.6838 18.4837 24.7027 18.4058 24.7236 18.3279L24.7256 18.2841V18.3279ZM25.3316 20.0148L25.3336 19.9693V20.0148L25.3564 20.2426L25.3316 20.0148ZM30.1413 20.7727C29.6682 20.9189 28.9995 20.9949 28.3254 21.033C27.8639 21.0595 27.3984 21.0691 26.9956 21.0691C26.7867 21.0691 26.6044 21.0671 26.4599 21.0634C26.2964 21.0615 26.1542 20.9457 26.1121 20.7843C25.9393 20.1003 25.9394 19.4604 25.9715 19.0423C25.9848 18.8504 26.1482 18.7042 26.3495 18.7042V18.6568L26.3515 18.7042C26.551 18.7138 26.8683 18.7251 27.25 18.7251C27.4018 18.7251 27.5692 18.7231 27.7456 18.7194C27.9223 18.7138 28.1067 18.7062 28.2983 18.6949C28.8056 18.6664 29.3507 18.6113 29.8523 18.5125C29.8768 18.5069 29.9017 18.5049 29.9262 18.5049C30.0098 18.5049 30.0897 18.5334 30.156 18.5865C30.2396 18.6531 30.289 18.7555 30.2926 18.8637C30.3039 19.4031 30.3592 20.0509 30.3914 20.3891C30.4092 20.5618 30.3028 20.7233 30.1413 20.7727Z" fill="#E8B21A"/>
<path d="M47.3245 35.9751C47.2864 36.1783 47.0832 36.3 46.9827 36.3474L46.9846 36.355L46.9409 36.3663C45.9552 36.6057 45.0206 36.79 44.1257 36.917C43.1036 37.0613 42.1332 37.1335 41.1985 37.1335C38.6532 37.1335 36.7535 36.5978 34.9187 36.0792C33.1881 35.5909 31.5528 35.1313 29.4744 35.1313C28.1582 35.1313 26.7866 35.3173 25.2804 35.7012C24.2755 35.9559 23.0693 36.0888 21.6921 36.0945H21.6046C18.3677 36.0945 15.165 35.3936 14.8099 35.3137L14.7814 35.308L14.7737 35.2795C14.5231 34.2842 14.92 33.8794 15.0473 33.7789L15.0718 33.7617L15.0964 33.773C15.4933 33.965 17.6476 34.9185 21.232 34.9185C21.5131 34.9185 21.7942 34.9128 22.0791 34.9013C23.2985 34.8499 24.5504 34.6884 25.8136 34.4245C26.9021 34.1967 27.9524 34.0863 29.02 34.0863C31.2082 34.0863 33.104 34.5518 35.1098 35.0475C37.1272 35.5432 39.2127 36.0561 41.6575 36.0561C42.2977 36.0561 42.9379 36.0219 43.5855 35.9496H43.5874C44.6703 35.8319 45.772 35.6115 46.9115 35.2886L46.9381 35.2829L46.957 35.3001C47.2333 35.5516 47.3587 35.7851 47.3245 35.9751Z" fill="#77380A"/>
<path d="M47.0953 36.7706C47.025 37.1715 45.9896 37.5381 45.1577 37.8345L44.9014 37.9257C44.6564 38.0149 44.3865 38.0872 44.0901 38.1442C43.566 38.2449 42.9639 38.296 42.2912 38.296C40.2718 38.296 37.81 37.8365 35.3596 37.0007C32.7022 36.0946 30.5137 35.9046 29.1481 35.9046C27.8733 35.9046 27.1366 36.068 27.129 36.07C27.1137 36.0737 27.1005 36.0852 27.0948 36.1005L26.692 37.2914L26.6674 37.299C25.3529 37.6581 23.8049 37.8404 22.0666 37.8404C21.4665 37.8404 20.8777 37.8196 20.3094 37.7814C17.5417 37.6087 15.2663 37.0842 14.7647 36.9628L14.7266 36.9532L14.7892 35.4069L14.8443 35.4202C15.3383 35.5286 17.6176 36.0071 20.2087 36.1496C20.6682 36.1742 21.1357 36.1894 21.6068 36.1894C23.0275 36.1894 24.2718 36.0564 25.3032 35.7925C26.7981 35.4126 28.1621 35.2266 29.4707 35.2266C31.5449 35.2266 33.1711 35.6864 34.8919 36.1725C36.7363 36.691 38.6416 37.2285 41.1945 37.2285C42.1235 37.2285 43.0883 37.1582 44.1085 37.0139C44.9994 36.8906 45.9303 36.7082 46.914 36.4689L46.9386 36.4632L46.9558 36.4801C47.1198 36.6281 47.1009 36.7365 47.0953 36.7706Z" fill="#281B13"/>
<path d="M30.2992 20.3986C30.3105 20.5259 30.2329 20.6456 30.1149 20.6817C29.5052 20.8697 28.5344 20.9383 27.7367 20.9628C27.4499 20.9724 27.1857 20.9741 26.9692 20.9741C26.7563 20.9741 26.5816 20.9721 26.4619 20.9685C26.3422 20.9665 26.2358 20.881 26.2053 20.7613C26.025 20.0548 26.0402 19.386 26.0667 19.0498C26.0763 18.9073 26.1921 18.7992 26.3366 18.7992C26.5494 18.8088 26.8684 18.8181 27.2464 18.8181C27.3982 18.8181 27.5637 18.8161 27.7404 18.8124C28.3882 18.7972 29.1746 18.7441 29.8716 18.6053C29.8905 18.6016 29.9077 18.5996 29.9266 18.5996C29.9873 18.5996 30.0483 18.6205 30.0957 18.6603C30.1583 18.7097 30.1965 18.7856 30.1984 18.8655C30.2097 19.4089 30.2648 20.0587 30.2992 20.3986Z" fill="#995116"/>
<path d="M47.7524 27.1515C47.3231 25.6814 46.4379 24.4769 45.3229 23.8443C44.5839 23.4246 43.6532 23.2041 42.6274 23.2041C42.4338 23.2041 42.2322 23.2117 42.0327 23.227C41.5596 23.2651 41.0619 23.3427 40.4655 23.47L40.4465 23.4737L40.4353 23.4909C40.3573 23.6066 40.1199 23.9829 39.8408 24.6211C39.0829 26.3611 38.0286 30.0521 39.1246 35.7488L39.1303 35.7829L39.1644 35.7886C40.0248 35.9043 40.8417 35.9596 41.6603 35.9596C41.9643 35.9596 42.27 35.952 42.576 35.9351H42.578C43.9857 35.8628 45.4064 35.6198 46.8957 35.1961L46.9186 35.1904L46.9262 35.1676C46.964 35.0611 47.0535 34.8619 47.2378 34.4514L47.2644 34.3944C47.3234 34.2634 47.3668 34.1627 47.3745 34.1437C48.2331 31.8243 48.3718 29.2753 47.7524 27.1515Z" fill="#995116"/>
<path d="M38.8093 23.8753C37.6847 24.1641 36.581 24.4224 35.4491 24.4224C35.4073 24.4224 35.3672 24.4224 35.3254 24.4204C33.9578 24.3995 32.5978 24.1392 31.3933 23.6664L31.3764 23.7119V23.6585C31.0117 23.516 30.6924 23.3698 30.4 23.2103C30.3771 23.199 30.3678 23.1705 30.3791 23.1476C30.3887 23.1324 30.4036 23.1211 30.4228 23.1211C30.4305 23.1211 30.4381 23.123 30.4437 23.1267C30.6755 23.2521 30.9301 23.3717 31.2491 23.5027L31.3382 23.5408L31.3117 23.4477C31.2491 23.2199 31.1274 22.7315 31.0097 22.0021L31.0001 21.9451L30.945 21.966C30.282 22.2206 29.34 22.3612 28.1412 22.3838C28.0291 22.3857 27.9151 22.3874 27.7993 22.3874C26.6804 22.3874 25.6566 22.2906 25.1457 22.2356C24.9802 22.2167 24.838 22.1198 24.7657 21.9753C24.0078 20.4727 24.1218 18.5979 24.2071 17.8608C24.2356 17.6158 24.4465 17.4239 24.6895 17.4239C24.6991 17.4239 24.7104 17.4239 24.72 17.4258C24.9915 17.4371 25.4245 17.4524 25.947 17.4524C26.4695 17.4524 27.0905 17.4371 27.7516 17.3877C28.6614 17.3231 29.6454 17.1921 30.5439 16.9528C30.5801 16.9432 30.6199 16.9375 30.6597 16.9375C30.6842 16.9375 30.7091 16.9395 30.7336 16.9432L30.785 16.9508L30.787 16.8977C30.8287 15.8245 30.9219 14.1718 31.2352 12.2438L31.2505 12.143L31.163 12.1964C30.3328 12.6977 29.3623 13.0398 28.1502 13.2544C27.8996 13.2998 27.6393 13.3379 27.3675 13.3721C27.0237 13.4138 26.6759 13.4367 26.336 13.4367C24.9949 13.4367 23.8952 13.1025 22.9224 12.8081C22.0999 12.5574 21.325 12.3217 20.5327 12.3217C20.1223 12.3217 19.733 12.3844 19.3435 12.5097C19.1876 12.5611 19.0282 12.6029 18.8667 12.635C18.8667 12.635 18.8647 12.635 18.8591 12.637C18.8421 12.6407 18.7925 12.6503 18.7165 12.6616C18.4599 12.707 18.2 12.7299 17.9357 12.7299C17.6128 12.7299 17.3032 12.6977 17.0107 12.6444C15.7266 12.4089 14.7824 11.7591 14.5735 11.6053L14.5583 11.5957H14.5411C14.5013 11.5997 14.4327 11.6033 14.3435 11.6033C14.3037 11.6033 14.2599 11.6033 14.2142 11.6013L14.1515 11.5977L14.1668 11.6603C14.3435 12.4106 15.1982 16.4797 14.4897 22.9305C14.0985 26.4923 16.3798 27.611 16.4027 27.6206C16.4273 27.6319 16.4369 27.6604 16.4256 27.6852C16.4179 27.7024 16.401 27.7117 16.3838 27.7117C16.3762 27.7117 16.3705 27.7098 16.3629 27.7081C16.3553 27.7041 15.6637 27.3662 15.0901 26.4771L15.0444 26.4048L15.0082 26.4807C14.617 27.2861 12.7783 31.4118 15.1031 33.6706C15.1962 33.718 17.4262 34.8237 21.2291 34.8237C21.5861 34.8237 21.9472 34.8141 22.3099 34.7952C22.3119 34.7952 22.3119 34.7952 22.3119 34.7952C23.4497 34.7345 24.6161 34.5807 25.7938 34.3337C26.8918 34.1019 27.9478 33.9899 29.021 33.9899C31.2149 33.9899 33.1166 34.459 35.1318 34.955C35.9676 35.1602 36.8319 35.3727 37.7208 35.5475L37.7872 35.5607L37.7776 35.4941C36.8887 29.5333 37.6579 26.3819 38.317 24.8966C38.5259 24.4274 38.7254 24.1234 38.8564 23.9507L38.938 23.8426L38.8093 23.8753ZM15.2321 20.4505C15.2626 20.0592 15.2871 19.668 15.312 19.2841H15.314C15.2891 19.6677 15.2626 20.0592 15.2321 20.4505ZM15.6101 22.0366C15.6253 21.9321 15.6422 21.8277 15.6595 21.7232C15.6595 21.7232 15.6595 21.7232 15.6614 21.7232C15.6442 21.8277 15.6273 21.9321 15.6101 22.0366ZM15.9177 13.5189L15.9197 13.4714V13.5189L15.9671 14.1116L15.9177 13.5189ZM16.5732 22.6121C16.5695 22.65 16.5656 22.6861 16.5636 22.7222C16.5636 22.6861 16.5673 22.6483 16.5712 22.6121L16.5732 22.5664V22.6121ZM16.7194 14.613L16.7403 14.1591C16.7423 14.1571 16.7423 14.1571 16.7423 14.1571L16.7194 14.613ZM17.7452 15.1829L17.8118 14.6813H17.8138L17.7452 15.1829Z" fill="#995116"/>
<path d="M27.7461 18.7182L28.2988 18.6953C28.1068 18.7066 27.9225 18.7142 27.7461 18.7199C27.7461 18.7182 27.7461 18.7182 27.7461 18.7182Z" fill="#BF7034"/>
<path d="M30.1154 20.6817C29.5057 20.8697 28.5349 20.9383 27.7372 20.9628C27.6573 20.5355 27.722 19.1811 27.7409 18.8124C28.3887 18.7972 29.1751 18.7441 29.8721 18.6053C29.891 18.6016 29.9082 18.5996 29.9271 18.5996C29.9878 18.5996 30.0488 18.6205 30.0962 18.6603C30.1589 18.7097 30.197 18.7856 30.1989 18.8655C30.2102 19.4089 30.2653 20.0584 30.2997 20.3986C30.311 20.5259 30.2331 20.6456 30.1154 20.6817Z" fill="#BF7034"/>
<path d="M31.2534 21.4376C31.2686 21.6104 31.1755 21.7718 31.0196 21.8384C30.6645 21.9886 30.2163 22.1024 29.6805 22.1786C29.2416 22.2412 28.7402 22.2774 28.1836 22.2887C28.3563 22.038 28.3374 21.2552 28.3261 21.0331C29.0005 20.995 29.6692 20.9191 30.142 20.7728C30.3035 20.7234 30.4099 20.562 30.3927 20.3892C30.3605 20.051 30.3055 19.4032 30.2939 18.8638C30.2902 18.7554 30.2408 18.6529 30.1573 18.5866C30.0907 18.5335 30.0111 18.505 29.9275 18.505C29.9027 18.505 29.8781 18.507 29.8535 18.5126C29.3519 18.6114 28.8069 18.6665 28.2996 18.695C28.4896 18.4878 28.4153 17.637 28.3945 17.4281C29.1219 17.3522 29.8705 17.2305 30.5694 17.0445C30.6036 17.0369 30.6377 17.0312 30.6719 17.0312C30.7594 17.0312 30.8449 17.0617 30.9149 17.1188C31.0157 17.1986 31.0707 17.32 31.0651 17.4493C31.0177 18.651 31.1811 20.6379 31.2534 21.4376Z" fill="#FCC947"/>
<path d="M20.3094 37.7817C17.5417 37.609 15.2663 37.0845 14.7647 36.9631L14.7266 36.9535L14.7892 35.4072L14.8443 35.4205C15.3383 35.5289 17.6176 36.0073 20.2087 36.1499C20.2087 36.1499 20.0568 36.9479 20.3094 37.7817Z" fill="#160C07"/>
<path d="M14.3616 11.5095C14.0006 11.5095 13.125 11.4336 12.7679 10.744C12.559 10.3395 12.5799 9.69729 12.6044 9.01729C12.631 8.24413 12.6575 7.44445 12.3346 6.94115L12.2832 6.86324L12.3764 6.86719C12.5491 6.87848 12.8588 6.92025 13.0109 7.09131C13.0205 7.10091 13.0318 7.10656 13.047 7.10656C13.0527 7.10656 13.0603 7.10458 13.066 7.10261C13.0849 7.09301 13.0964 7.07212 13.0925 7.05123C13.0885 7.02074 12.6233 3.91683 13.9303 2.59493C14.3006 2.21893 14.6332 2.02699 14.9143 2.02699C14.9637 2.02699 15.0111 2.03264 15.0586 2.04421C15.4557 2.14301 15.6132 2.6446 15.6152 2.65025C15.6209 2.66549 15.6324 2.67679 15.6477 2.68046H15.659C15.6762 2.68046 15.6855 2.67679 15.6911 2.67086C15.7671 2.60622 17.5604 1.0791 20.3735 1.0791C20.5977 1.0791 20.8274 1.0887 21.0555 1.10959C21.0555 1.10959 18.8179 1.33767 17.1993 3.34353C17.1993 3.34353 15.7177 2.72224 15.6948 5.99721C15.6948 5.99721 15.1915 5.64013 14.5987 5.54133C14.5987 5.54133 15.6719 6.92224 15.5125 8.67743C15.3775 10.1535 15.6511 12.2485 17.5869 12.6228C15.9 12.4992 14.6159 11.5211 14.6027 11.5098C14.5931 11.5042 14.5838 11.5002 14.5722 11.5002C14.5612 11.4999 14.4813 11.5095 14.3616 11.5095Z" fill="#E2E2E2"/>
<path d="M21.2325 34.9197C21.5137 34.9197 21.7948 34.9141 22.0796 34.9025C21.7206 35.0318 21.4053 35.3451 21.6921 36.0954H21.6046C18.3677 36.0954 15.165 35.3945 14.8099 35.3147L14.7814 35.309L14.7737 35.2805C14.5231 34.2852 14.92 33.8804 15.0473 33.7799L15.0718 33.7627L15.0964 33.774C15.4941 33.9659 17.6482 34.9197 21.2325 34.9197Z" fill="#602904"/>
<path d="M22.3121 34.7962C21.9493 34.8151 21.5883 34.8247 21.2312 34.8247C17.4284 34.8247 15.1981 33.7193 15.1052 33.6716C12.7801 31.4131 14.6189 27.287 15.0104 26.4817L15.0465 26.4058L15.0923 26.478C15.6658 27.3669 16.3574 27.7051 16.3651 27.709C16.3727 27.711 16.3783 27.7127 16.3859 27.7127C16.4032 27.7127 16.4201 27.7031 16.4277 27.6862C16.439 27.6616 16.4297 27.6331 16.4048 27.6215C16.382 27.6119 14.1006 26.4933 14.4919 22.9315C15.2004 16.4806 14.3456 12.4116 14.1689 11.6613L14.1537 11.5987L14.2164 11.6023C14.2618 11.6043 14.3056 11.6043 14.3456 11.6043C14.4348 11.6043 14.5034 11.6006 14.5432 11.5967H14.5605L14.5757 11.6063C14.7846 11.7601 15.7288 12.4099 17.0129 12.6453C17.0338 12.7614 17.7386 16.9173 17.1326 20.975C16.5172 25.0895 17.3719 24.4188 19.4577 26.5655C21.5434 28.714 16.8249 30.0418 19.2183 32.8493C20.4696 34.3383 21.6834 34.709 22.3121 34.7962Z" fill="#77380A"/>
<path d="M22.7581 34.8169C22.7581 34.8169 22.6746 34.8265 22.5264 34.8169C22.663 34.8092 22.7581 34.8169 22.7581 34.8169Z" fill="#EDCC45"/>
<path d="M28.1515 13.2549C29.3633 13.0403 30.3341 12.6982 31.1643 12.1969L31.2518 12.1436L31.2365 12.2443C30.9232 14.1723 30.83 15.825 30.7883 16.8982L30.7863 16.9513L30.7349 16.9437C30.7104 16.9397 30.6855 16.938 30.6609 16.938C30.6211 16.938 30.5811 16.9437 30.5452 16.9533C29.6467 17.1926 28.6627 17.3236 27.7529 17.3883L28.1515 13.2549Z" fill="#BF7034"/>
<path d="M31.2923 12.0028C30.2609 12.6695 29.0146 13.072 27.3565 13.2773C27.0164 13.319 26.6746 13.3419 26.3403 13.3419C34.1797 11.6132 31.1043 3.50228 31.1043 3.50228C31.1272 4.11765 30.3521 4.29999 30.3521 4.29999C29.919 2.49935 27.9132 3.22876 27.9132 3.22876C25.9756 1.04055 25.0771 1.88399 25.0771 1.88399C25.0828 1.8535 25.2366 1.14131 25.9663 1.14131C26.0403 1.14131 26.1182 1.14894 26.1981 1.1622C27.1231 1.33326 28.2895 2.14622 28.4187 2.23937C28.4244 2.24304 28.434 2.24502 28.4436 2.24502C28.4588 2.24502 28.4721 2.23938 28.4817 2.22611C28.4854 2.22046 28.9127 1.72083 29.6196 1.72083C29.9272 1.72083 30.2408 1.81567 30.5522 2.00395C30.5598 2.00762 30.5694 2.0096 30.5768 2.0096C30.5844 2.0096 30.59 2.0096 30.5957 2.00593C30.6089 2.00029 30.6205 1.98871 30.6242 1.97375C30.6812 1.71547 30.7535 1.44194 30.894 1.19664L30.9454 1.10547L30.9796 1.20427C31.2418 1.95654 31.6996 2.47903 32.184 3.03173L32.317 3.18359C33.6296 4.6918 34.2469 6.9009 33.8537 8.68094C33.6332 9.67625 32.7367 10.8559 31.9636 11.5074C31.7502 11.6855 31.5261 11.8529 31.2923 12.0028Z" fill="white"/>
<path d="M38.8588 23.9512C38.7278 24.1242 38.5283 24.4279 38.3194 24.8971C37.0867 25.106 35.6392 25.294 33.9029 25.3092C28.4304 25.353 28.1529 22.7713 28.1416 22.384C29.3401 22.3611 30.2824 22.2205 30.9455 21.9662L31.0005 21.9453L31.0101 22.0023C31.1278 22.7317 31.2495 23.2201 31.3121 23.4479L31.3387 23.541L31.2495 23.5029C30.9305 23.3719 30.6759 23.2523 30.4441 23.1269C30.4385 23.123 30.4309 23.1213 30.4232 23.1213C30.4043 23.1213 30.3891 23.1326 30.3795 23.1478C30.3682 23.1707 30.3775 23.1992 30.4004 23.2105C30.6928 23.37 31.0121 23.5162 31.3768 23.6587V23.7121L31.3937 23.6666C32.5979 24.1397 33.9582 24.4 35.3258 24.4206C35.3676 24.4226 35.4077 24.4226 35.4495 24.4226C36.5817 24.4226 37.6854 24.1643 38.8097 23.8755L38.9407 23.8433L38.8588 23.9512Z" fill="#BF7034"/>
<path d="M40.2543 23.5997C40.1234 23.8202 39.9354 24.1657 39.7302 24.6427C39.3273 24.7187 38.9 24.7986 38.4404 24.8765C38.7444 24.2134 39.0216 23.8961 39.1035 23.8089L39.1131 23.7976L39.1264 23.7956C39.4721 23.7064 39.8405 23.6133 40.2035 23.5297L40.3136 23.5049L40.2543 23.5997Z" fill="#FCC947"/>
<path d="M46.9564 36.4805C47.1198 36.6287 47.1006 36.7371 47.095 36.7713C47.0247 37.1721 45.9893 37.5388 45.1574 37.8352L44.9011 37.9263C44.6561 38.0155 44.3862 38.0878 44.0898 38.1448C44.3481 37.6319 44.1734 37.1571 44.1088 37.0146C44.9996 36.8912 45.9306 36.7089 46.9143 36.4695L46.9389 36.4639L46.9564 36.4805Z" fill="#443127"/>
<path d="M47.3254 35.9758C47.2873 36.179 47.084 36.3007 46.9835 36.3481L46.9855 36.3557L46.9418 36.367C45.956 36.6064 45.0214 36.7907 44.1266 36.9177C44.4323 36.4847 43.7354 36.0401 43.5889 35.9509C44.6717 35.8332 45.7734 35.6128 46.913 35.2898L46.9395 35.2842L46.9584 35.3014C47.2342 35.5523 47.3595 35.7858 47.3254 35.9758Z" fill="#995116"/>
<path d="M47.3745 34.1447C47.3669 34.1636 47.3231 34.2644 47.2644 34.3954L47.2379 34.4524C47.0536 34.8628 46.9644 35.0621 46.9263 35.1685L46.9186 35.1914L46.8958 35.1971C45.4065 35.6207 43.9858 35.8638 42.5781 35.936C45.8928 34.7736 46.7628 27.1163 44.5763 25.1579C43.3151 24.0276 41.9246 24.2345 39.8408 24.6221C40.12 23.9839 40.3574 23.6079 40.4353 23.4919L40.4466 23.4746L40.4655 23.471C41.062 23.3437 41.5596 23.2658 42.0327 23.2279C42.2323 23.2127 42.4335 23.2051 42.6275 23.2051C43.6533 23.2051 44.5839 23.4255 45.3229 23.8453C46.4379 24.4779 47.3231 25.6821 47.7525 27.1524C48.3718 29.2763 48.2332 31.8253 47.3745 34.1447Z" fill="#BF7034"/>
<path d="M14.0889 11.5439C14.0889 11.5439 15.2366 15.7115 14.4431 22.9262C14.0434 26.5602 16.3843 27.6659 16.3843 27.6659" stroke="black" stroke-miterlimit="10" stroke-linecap="round" stroke-linejoin="round"/>
<path d="M15.0404 26.3164C15.0404 26.3164 12.4361 31.1637 15.0698 33.7078C15.0698 33.7078 19.0126 35.8049 25.8053 34.3802C33.7661 32.7105 37.6017 37.9033 46.953 35.231" stroke="black" stroke-miterlimit="10" stroke-linecap="round" stroke-linejoin="round"/>
<path d="M15.0697 33.7072C15.0697 33.7072 14.4021 34.0832 14.7439 35.3484C14.7439 35.3484 21.0251 36.834 25.2926 35.7472C34.4217 33.4221 35.6762 39.1687 46.9528 36.412C46.9528 36.412 47.91 36.0665 46.9528 35.2307C46.939 35.2185 47.3957 34.2246 47.4197 34.1605C48.233 31.9647 48.4591 29.407 47.7977 27.1389C47.4017 25.7806 46.5768 24.501 45.3461 23.8027C44.3528 23.2393 43.1672 23.0908 42.0288 23.1805C39.7528 23.3598 37.6357 24.4096 35.3261 24.3732C33.6666 24.3469 31.9092 23.9712 30.4224 23.1695" stroke="black" stroke-miterlimit="10" stroke-linecap="round" stroke-linejoin="round"/>
<path d="M30.8301 17.0143C30.884 15.5908 31.0006 13.9123 31.3153 12.0439" stroke="black" stroke-miterlimit="10" stroke-linecap="round" stroke-linejoin="round"/>
<path d="M31.4152 23.6283C31.4152 23.6283 31.2165 23.0259 31.0381 21.8818" stroke="black" stroke-miterlimit="10" stroke-linecap="round" stroke-linejoin="round"/>
<path d="M14.7436 35.3486L14.6787 36.9906C14.6787 36.9906 21.5654 38.7679 26.7283 37.3316L27.1398 36.1159C27.1398 36.1159 30.4097 35.3644 35.3448 37.0465C38.7733 38.2152 42.6809 38.7783 44.9185 37.971C46.0177 37.5744 47.7218 37.0414 46.9526 36.412" stroke="black" stroke-miterlimit="10" stroke-linecap="round" stroke-linejoin="round"/>
<path d="M14.5738 11.5467C14.5738 11.5467 13.2107 11.702 12.726 10.7659C12.2413 9.8299 12.9631 7.66569 12.1826 6.82027C12.1826 6.82027 12.7954 6.77566 13.0467 7.05851C13.0467 7.05851 12.5643 3.90858 13.8963 2.56042C15.2284 1.21227 15.6614 2.63495 15.6614 2.63495C15.6614 2.63495 17.8925 0.667195 21.3301 1.09005C24.7679 1.51318 25.031 1.87392 25.031 1.87392C25.031 1.87392 25.2218 0.934508 26.2073 1.11629C27.1918 1.29808 28.4404 2.19629 28.4429 2.19798C28.5403 2.06813 29.3866 1.24755 30.5769 1.96284C30.6543 1.61592 30.748 1.29075 30.9653 1C31.2301 1.92022 31.7805 2.49606 32.3524 3.15264C33.6089 4.59536 34.3205 6.78978 33.8999 8.69148C33.6749 9.70909 32.7586 10.898 31.9937 11.5433C30.6763 12.6544 29.0856 13.1117 27.3629 13.3253C23.6987 13.7801 21.8653 11.6447 19.3299 12.4652C16.7947 13.2858 14.5738 11.5467 14.5738 11.5467Z" stroke="black" stroke-miterlimit="10" stroke-linecap="round" stroke-linejoin="round"/>
<path d="M39.0892 23.7559C39.0892 23.7559 36.4138 26.2266 37.845 35.6202" stroke="black" stroke-miterlimit="10" stroke-linecap="round" stroke-linejoin="round"/>
<path d="M40.4187 23.4326C40.4187 23.4326 37.4667 27.4966 39.0898 35.828" stroke="black" stroke-miterlimit="10" stroke-linecap="round" stroke-linejoin="round"/>
<path d="M29.8627 18.559C28.5735 18.815 26.9959 18.7808 26.35 18.7523C26.1776 18.7447 26.0316 18.874 26.0186 19.0462C25.9907 19.416 25.9808 20.0728 26.1592 20.7734C26.1948 20.9135 26.3173 21.0139 26.4618 21.0168C27.1393 21.03 29.1118 21.0393 30.128 20.7274C30.2706 20.6837 30.3598 20.5431 30.3457 20.3946C30.3126 20.0494 30.2567 19.4004 30.2452 18.8652C30.2404 18.666 30.0586 18.5203 29.8627 18.559Z" stroke="black" stroke-miterlimit="10" stroke-linecap="round" stroke-linejoin="round"/>
<path d="M30.5573 16.9994C28.3863 17.5784 25.7188 17.5211 24.7184 17.4734C24.4835 17.4621 24.2808 17.6334 24.254 17.8671C24.1614 18.6711 24.0652 20.485 24.8076 21.9556C24.8739 22.0872 25.0049 22.1721 25.1511 22.1885C26.0552 22.289 29.3627 22.5933 31.0377 21.8822C31.2136 21.8077 31.3172 21.6245 31.2999 21.4343C31.2308 20.6732 31.0645 18.6623 31.1125 17.4505C31.1241 17.1518 30.8458 16.9224 30.5573 16.9994Z" stroke="black" stroke-miterlimit="10" stroke-linecap="round" stroke-linejoin="round"/>
<path d="M16.1622 26.5655C15.3967 25.9228 14.9168 24.9512 14.8711 23.9525C14.8448 23.3741 14.9569 22.7994 15.0416 22.2266C15.1855 21.2519 15.2502 20.2674 15.3148 19.2842" stroke="black" stroke-width="0.5" stroke-miterlimit="10" stroke-linecap="round" stroke-linejoin="round"/>
<path d="M15.7276 24.7395C15.3459 23.7939 15.4938 22.7274 15.6604 21.7217" stroke="black" stroke-width="0.5" stroke-miterlimit="10" stroke-linecap="round" stroke-linejoin="round"/>
<path d="M16.6085 23.2511C16.5588 23.0425 16.5467 22.8251 16.5735 22.6123" stroke="black" stroke-width="0.5" stroke-miterlimit="10" stroke-linecap="round" stroke-linejoin="round"/>
<path d="M17.4717 23.4792C17.4717 23.3956 17.4717 23.3121 17.4717 23.2285" stroke="black" stroke-width="0.5" stroke-miterlimit="10" stroke-linecap="round" stroke-linejoin="round"/>
<path d="M15.1774 32.4221C14.5169 30.9339 14.581 29.1431 15.3465 27.7061" stroke="black" stroke-width="0.5" stroke-miterlimit="10" stroke-linecap="round" stroke-linejoin="round"/>
<path d="M15.7168 30.5004C15.7168 30.2422 15.7168 29.9839 15.7168 29.7256" stroke="black" stroke-width="0.5" stroke-miterlimit="10" stroke-linecap="round" stroke-linejoin="round"/>
<path d="M16.4238 30.7741C16.4314 30.607 16.4391 30.4399 16.4467 30.2725" stroke="black" stroke-width="0.5" stroke-miterlimit="10" stroke-linecap="round" stroke-linejoin="round"/>
<path d="M17.6289 31.8452C17.6453 31.7314 17.6616 31.6177 17.678 31.5039" stroke="black" stroke-width="0.5" stroke-miterlimit="10" stroke-linecap="round" stroke-linejoin="round"/>
<path d="M24.7371 20.2675C24.5556 19.6389 24.5511 18.96 24.7247 18.3291" stroke="black" stroke-width="0.5" stroke-miterlimit="10" stroke-linecap="round" stroke-linejoin="round"/>
<path d="M25.0176 19.3309C25.0176 19.2016 25.0176 19.0726 25.0176 18.9434" stroke="black" stroke-width="0.5" stroke-miterlimit="10" stroke-linecap="round" stroke-linejoin="round"/>
<path d="M25.358 20.2424C25.3501 20.1665 25.3419 20.0906 25.334 20.0146" stroke="black" stroke-width="0.5" stroke-miterlimit="10" stroke-linecap="round" stroke-linejoin="round"/>
<path d="M25.8377 21.4739C25.7826 21.4084 25.7431 21.3294 25.7236 21.2461" stroke="black" stroke-width="0.5" stroke-miterlimit="10" stroke-linecap="round" stroke-linejoin="round"/>
<path d="M30.248 16.1162C30.3192 15.1669 30.4552 14.2227 30.6548 13.292" stroke="black" stroke-width="0.5" stroke-miterlimit="10" stroke-linecap="round" stroke-linejoin="round"/>
<path d="M29.7812 14.9313C29.7945 14.6236 29.8405 14.3176 29.9179 14.0195" stroke="black" stroke-width="0.5" stroke-miterlimit="10" stroke-linecap="round" stroke-linejoin="round"/>
<path d="M29.143 15.1136C29.1354 14.9769 29.1277 14.84 29.1201 14.7031" stroke="black" stroke-width="0.5" stroke-miterlimit="10" stroke-linecap="round" stroke-linejoin="round"/>
<path d="M28.2998 15.4328C28.2998 15.2734 28.2998 15.1139 28.2998 14.9541" stroke="black" stroke-width="0.5" stroke-miterlimit="10" stroke-linecap="round" stroke-linejoin="round"/>
<path d="M15.2977 15.365C15.3273 14.4784 15.2426 13.5878 15.0459 12.7227" stroke="black" stroke-width="0.5" stroke-miterlimit="10" stroke-linecap="round" stroke-linejoin="round"/>
<path d="M15.9664 14.1111C15.9506 13.9135 15.9348 13.7161 15.9189 13.5186" stroke="black" stroke-width="0.5" stroke-miterlimit="10" stroke-linecap="round" stroke-linejoin="round"/>
<path d="M16.7197 14.6121C16.7273 14.4603 16.735 14.3081 16.7426 14.1562" stroke="black" stroke-width="0.5" stroke-miterlimit="10" stroke-linecap="round" stroke-linejoin="round"/>
<path d="M17.7441 15.1823C17.767 15.0152 17.7899 14.8481 17.8127 14.6807" stroke="black" stroke-width="0.5" stroke-miterlimit="10" stroke-linecap="round" stroke-linejoin="round"/>
<path d="M31.7217 24.5439C33.0069 25.082 34.407 25.3431 35.7997 25.3047" stroke="black" stroke-width="0.5" stroke-miterlimit="10" stroke-linecap="round" stroke-linejoin="round"/>
<path d="M33.5645 25.9229C33.9845 26.0064 34.4135 26.0425 34.8418 26.0307" stroke="black" stroke-width="0.5" stroke-miterlimit="10" stroke-linecap="round" stroke-linejoin="round"/>
<path d="M34.2266 27.1499C34.5311 27.1522 34.8357 27.1372 35.1383 27.1045" stroke="black" stroke-width="0.5" stroke-miterlimit="10" stroke-linecap="round" stroke-linejoin="round"/>
<path d="M34.5459 28.2207C34.7113 28.2486 34.8815 28.2492 35.0475 28.2221" stroke="black" stroke-width="0.5" stroke-miterlimit="10" stroke-linecap="round" stroke-linejoin="round"/>
<path d="M46.5303 34.7461C47.2933 32.577 47.479 30.2079 47.0632 27.9463" stroke="black" stroke-width="0.5" stroke-miterlimit="10" stroke-linecap="round" stroke-linejoin="round"/>
<path d="M46.3008 32.8471C46.4738 31.8475 46.5195 30.8263 46.4366 29.8154" stroke="black" stroke-width="0.5" stroke-miterlimit="10" stroke-linecap="round" stroke-linejoin="round"/>
<path d="M45.2086 31.7776C45.1852 31.444 45.1795 31.1089 45.192 30.7744" stroke="black" stroke-width="0.5" stroke-miterlimit="10" stroke-linecap="round" stroke-linejoin="round"/>
<path d="M43.96 31.2524C43.96 31.0167 43.96 30.7813 43.96 30.5459" stroke="black" stroke-width="0.5" stroke-miterlimit="10" stroke-linecap="round" stroke-linejoin="round"/>
<path d="M46.2383 25.9189C46.3673 26.0702 46.4618 26.2503 46.5135 26.4423" stroke="black" stroke-width="0.5" stroke-miterlimit="10" stroke-linecap="round" stroke-linejoin="round"/>
<path d="M39.7215 35.4238C39.4791 34.4798 39.3628 33.5037 39.376 32.5293" stroke="black" stroke-width="0.5" stroke-miterlimit="10" stroke-linecap="round" stroke-linejoin="round"/>
<path d="M40.6318 35.2416C40.6318 35.0745 40.6318 34.9073 40.6318 34.7402" stroke="black" stroke-width="0.5" stroke-miterlimit="10" stroke-linecap="round" stroke-linejoin="round"/>
<path d="M41.749 34.7624C41.7566 34.7017 41.7643 34.6408 41.7719 34.5801" stroke="black" stroke-width="0.5" stroke-miterlimit="10" stroke-linecap="round" stroke-linejoin="round"/>
<path d="M27.8441 31.9133C27.8179 31.7323 27.8103 31.5486 27.8213 31.3662" stroke="black" stroke-width="0.5" stroke-miterlimit="10" stroke-linecap="round" stroke-linejoin="round"/>
<path d="M28.4674 32.5069C28.4974 31.8069 28.4626 31.104 28.3633 30.4102" stroke="black" stroke-width="0.5" stroke-miterlimit="10" stroke-linecap="round" stroke-linejoin="round"/>
<path d="M29.9873 32.3694C29.9949 32.2692 30.0344 32.1718 30.0994 32.0947" stroke="black" stroke-width="0.5" stroke-miterlimit="10" stroke-linecap="round" stroke-linejoin="round"/>
<path d="M31.3994 32.8481C31.3994 32.8404 31.3994 32.8328 31.3994 32.8252" stroke="black" stroke-width="0.5" stroke-miterlimit="10" stroke-linecap="round" stroke-linejoin="round"/>
<path d="M26.5674 23.0204C27.0947 23.0526 27.6265 23.0108 28.1422 22.8965" stroke="black" stroke-width="0.5" stroke-miterlimit="10" stroke-linecap="round" stroke-linejoin="round"/>
<path d="M27.5244 23.5907C27.7522 23.567 27.98 23.5432 28.2081 23.5195" stroke="black" stroke-width="0.5" stroke-miterlimit="10" stroke-linecap="round" stroke-linejoin="round"/>
<path d="M28.459 24.3681C28.5806 24.3789 28.7043 24.3718 28.824 24.3467" stroke="black" stroke-width="0.5" stroke-miterlimit="10" stroke-linecap="round" stroke-linejoin="round"/>
<path d="M30.4814 11.4922C31.3523 11.2037 32.1181 10.6078 32.6118 9.83436C33.1055 9.06093 33.3237 8.11557 33.2193 7.2041" stroke="black" stroke-width="0.5" stroke-miterlimit="10" stroke-linecap="round" stroke-linejoin="round"/>
<path d="M31.6553 9.99005C32.0589 9.58724 32.276 9.00434 32.2339 8.43555" stroke="black" stroke-width="0.5" stroke-miterlimit="10" stroke-linecap="round" stroke-linejoin="round"/>
<path d="M30.9434 8.45787C30.951 8.32859 30.9586 8.1996 30.9662 8.07031" stroke="black" stroke-width="0.5" stroke-miterlimit="10" stroke-linecap="round" stroke-linejoin="round"/>
<path d="M29.9411 7.38619C29.9196 7.26594 29.9117 7.14343 29.9182 7.02148" stroke="black" stroke-width="0.5" stroke-miterlimit="10" stroke-linecap="round" stroke-linejoin="round"/>
<path d="M32.1064 4.55957C32.2826 4.77833 32.4356 5.01573 32.5623 5.26611" stroke="black" stroke-width="0.5" stroke-miterlimit="10" stroke-linecap="round" stroke-linejoin="round"/>
<path d="M30.6035 4.42188C30.7252 4.5585 30.8468 4.6954 30.9685 4.83202" stroke="black" stroke-width="0.5" stroke-miterlimit="10" stroke-linecap="round" stroke-linejoin="round"/>
<path d="M14.0751 10.9381C13.7073 10.8542 13.3959 10.5807 13.2313 10.2411C13.0668 9.90156 13.0422 9.50355 13.126 9.13574" stroke="black" stroke-width="0.5" stroke-miterlimit="10" stroke-linecap="round" stroke-linejoin="round"/>
<path d="M13.915 10.1002C13.8233 9.91699 13.7773 9.71149 13.7815 9.50684" stroke="black" stroke-width="0.5" stroke-miterlimit="10" stroke-linecap="round" stroke-linejoin="round"/>
<path d="M13.78 6.58847C13.5976 5.63155 13.7605 4.61252 14.2322 3.75977" stroke="black" stroke-width="0.5" stroke-miterlimit="10" stroke-linecap="round" stroke-linejoin="round"/>
<path d="M14.5996 5.17503C14.623 5.01244 14.6614 4.85211 14.7137 4.69629" stroke="black" stroke-width="0.5" stroke-miterlimit="10" stroke-linecap="round" stroke-linejoin="round"/>
<path d="M15.2383 5.54043C15.2688 5.39619 15.299 5.25167 15.3295 5.10742" stroke="black" stroke-width="0.5" stroke-miterlimit="10" stroke-linecap="round" stroke-linejoin="round"/>
<path d="M16.3555 6.13232C16.3936 6.03353 16.4314 5.93473 16.4695 5.83594" stroke="black" stroke-width="0.5" stroke-miterlimit="10" stroke-linecap="round" stroke-linejoin="round"/>
<path d="M19.0898 11.6237C20.3787 11.2299 21.8161 11.3454 23.0256 11.9396" stroke="black" stroke-width="0.5" stroke-miterlimit="10" stroke-linecap="round" stroke-linejoin="round"/>
<path d="M21.7119 10.873C22.0766 10.9795 22.4413 11.0859 22.806 11.192" stroke="black" stroke-width="0.5" stroke-miterlimit="10" stroke-linecap="round" stroke-linejoin="round"/>
<path d="M22.7842 10.165C22.9225 10.2277 23.067 10.276 23.2152 10.309" stroke="black" stroke-width="0.5" stroke-miterlimit="10" stroke-linecap="round" stroke-linejoin="round"/>
<path d="M23.3984 9.20996C23.4591 9.26303 23.5201 9.31638 23.5808 9.36945" stroke="black" stroke-width="0.5" stroke-miterlimit="10" stroke-linecap="round" stroke-linejoin="round"/>
<path d="M21.9404 1.90011C22.9947 1.88459 24.0519 2.12763 24.9932 2.60214" stroke="black" stroke-width="0.5" stroke-miterlimit="10" stroke-linecap="round" stroke-linejoin="round"/>
<path d="M23.7402 2.78223C23.9683 2.88102 24.1961 2.97982 24.4242 3.07861" stroke="black" stroke-width="0.5" stroke-miterlimit="10" stroke-linecap="round" stroke-linejoin="round"/>
<path d="M24.0156 3.62305C24.1754 3.6987 24.3352 3.77434 24.4946 3.84999" stroke="black" stroke-width="0.5" stroke-miterlimit="10" stroke-linecap="round" stroke-linejoin="round"/>
<path d="M25.5645 5.83691C25.7005 5.87051 25.8315 5.9247 25.952 5.9964" stroke="black" stroke-width="0.5" stroke-miterlimit="10" stroke-linecap="round" stroke-linejoin="round"/>
<path d="M26.8398 9.07422C26.9677 9.22044 27.1139 9.35056 27.2743 9.46037" stroke="black" stroke-width="0.5" stroke-miterlimit="10" stroke-linecap="round" stroke-linejoin="round"/>
<path d="M47.6483 35.9917C47.5191 35.7543 47.3635 35.5321 47.1868 35.3346C47.1241 35.2643 47.0578 35.196 46.9892 35.1293C46.6454 34.8025 46.2426 34.5558 45.7943 34.3999C45.6159 34.3373 45.4296 34.2898 45.2397 34.2574C45.1505 34.2421 45.061 34.2308 44.9718 34.2232C44.9529 34.2213 44.934 34.2196 44.9131 34.2196L44.8865 34.2176C44.8258 34.2136 44.7649 34.21 44.6909 34.21H44.6206C44.5371 34.2119 44.4535 34.2156 44.3717 34.2232L44.2994 34.2309C44.195 34.2421 44.0922 34.2574 43.9954 34.2783L43.9403 34.2896C43.8568 34.3085 43.7732 34.3313 43.6857 34.3579C43.6612 34.3655 43.6344 34.3731 43.6098 34.3807C43.5415 34.4036 43.4805 34.4262 43.4255 34.449C43.3874 34.4623 43.3532 34.4776 43.319 34.4928C42.2763 34.9507 41.539 35.8926 41.3493 37.0135C41.036 38.8447 42.2726 40.5903 44.1038 40.9039C44.2918 40.9361 44.4837 40.9533 44.6737 40.9533C45.1468 40.9533 45.6044 40.8545 46.0224 40.6701C46.1915 40.5979 46.3549 40.5107 46.5088 40.4099C47.0443 40.0621 47.4812 39.5628 47.7511 38.9567C47.8386 38.7611 47.9069 38.5579 47.9543 38.3527C47.9715 38.2843 47.9848 38.216 47.9961 38.1474C48.1231 37.4051 48.0034 36.6604 47.6483 35.9917ZM43.4102 35.4808C43.0588 35.6992 42.9467 36.0013 42.9106 36.1608L42.8993 36.2178L42.9829 36.2198C43.5054 36.2198 44.2139 36.0052 44.628 34.9831C44.6356 34.9679 44.6489 34.9566 44.6774 34.9566C44.681 34.9566 44.685 34.9586 44.6906 34.9586C44.7019 34.9622 44.7115 34.9718 44.7172 34.9834C44.7208 34.9947 44.7208 35.008 44.7172 35.0195C44.2842 36.0851 43.5299 36.3076 42.9733 36.3076C42.9335 36.3076 42.8954 36.3076 42.8592 36.3056L42.8556 36.3076H42.8499L42.8347 36.3513L42.831 36.3039C42.5744 36.285 42.4016 36.228 42.4016 36.226C42.3771 36.2184 42.3635 36.1918 42.3712 36.167C42.3788 36.1481 42.394 36.1365 42.4225 36.1365H42.4321C42.4474 36.1422 42.5727 36.1839 42.7607 36.2068L42.8045 36.2124L42.8121 36.1687C42.8482 35.9863 42.9659 35.6465 43.3591 35.4012C43.3687 35.3955 43.3761 35.3935 43.3857 35.3935C43.4029 35.3935 43.4181 35.4012 43.4255 35.4164C43.4387 35.437 43.4331 35.4675 43.4102 35.4808Z" fill="#C92C1E"/>
<path d="M59.614 28.3403C57.5551 26.7161 57.2928 23.8174 57.3194 22.2353L57.327 21.8818L57.2262 22.22C55.2697 28.9083 51.026 32.5005 50.1941 33.152L50.0857 33.2376C50.0821 33.2395 50.0801 33.2412 50.0801 33.2412L50.2263 33.2376C50.2681 33.2356 50.3099 33.2336 50.3516 33.2336C50.5492 33.2336 50.7429 33.2508 50.9272 33.281L50.9879 33.2943L51.0011 33.2887C51.6318 33.0436 52.2872 32.9183 52.9463 32.9183C54.2191 32.9183 55.1839 33.3798 55.5393 33.5774L55.6172 33.6212L55.6116 33.5337C55.5052 31.978 55.8566 30.7355 56.6583 29.8429C57.6499 28.7392 59.0384 28.4829 59.5894 28.4259L59.7052 28.4126L59.614 28.3403ZM57.8077 27.7724H57.8057L57.8077 27.7286V27.7724Z" fill="#018B45"/>
<path d="M56.9066 22.6297C56.5741 23.1559 56.1583 23.5776 55.67 23.8853C55.0639 24.2652 54.3534 24.4589 53.5597 24.4589C53.1701 24.4589 52.7543 24.4134 52.323 24.3203L52.2471 24.305L52.2679 24.379C52.382 24.7968 52.699 26.2558 51.9583 27.4792C51.4206 28.3681 50.4461 28.9417 49.0616 29.1831L48.9854 29.1966L49.0328 29.2593C49.3215 29.6372 50.2296 30.9916 49.7661 32.5492C49.7774 32.6802 49.7814 32.8114 49.7757 32.9424C49.7757 33.0373 49.7681 33.1304 49.7585 33.2236L49.7509 33.2843L49.9313 33.2577L49.9426 33.2332C49.9462 33.2236 49.9522 33.216 49.9578 33.2123C50.0052 33.1781 54.7466 29.7835 56.9919 22.6678L57.1019 22.3184L56.9066 22.6297ZM50.9667 30.2015L50.9686 30.1578V30.2015C50.9799 30.2585 50.9915 30.3136 50.9971 30.3706C50.9895 30.3136 50.9799 30.2585 50.9667 30.2015Z" fill="#018B45"/>
<path d="M51.9566 33.7383C51.6393 33.5636 51.2879 33.4382 50.9119 33.3736C50.7219 33.3431 50.53 33.3262 50.34 33.3262C50.1292 33.3262 49.9163 33.3471 49.7094 33.3852C49.6411 33.3984 49.5745 33.4137 49.5098 33.4306L49.4568 33.4459C49.4094 33.4591 49.3619 33.4704 49.3142 33.4857L49.2174 33.5198C49.1869 33.5311 49.1547 33.5407 49.1243 33.554C49.1053 33.5616 49.0142 33.5994 49.0142 33.5994C48.9893 33.6107 48.9648 33.6203 48.9402 33.6319C48.9213 33.6415 48.7864 33.7078 48.7615 33.7191C48.7426 33.7304 48.678 33.7665 48.678 33.7665C48.678 33.7665 48.6077 33.8063 48.5888 33.8179C48.5679 33.8312 48.549 33.8444 48.5281 33.8577L48.4863 33.8842C48.4654 33.8995 48.4426 33.9127 48.4217 33.928C48.4047 33.9393 48.3209 34.0002 48.3209 34.0002C48.302 34.0155 48.2811 34.0307 48.2619 34.0457C48.241 34.0629 48.2201 34.0799 48.1877 34.1064L48.1668 34.1236C48.1479 34.1408 48.1287 34.1558 48.1098 34.173C48.0908 34.1902 48.0719 34.2072 48.0527 34.2244L48.0262 34.2509C48.0053 34.2698 47.9844 34.289 47.9635 34.3099L47.8969 34.3782C47.8969 34.3782 47.8455 34.4333 47.8266 34.4542C47.8114 34.4711 47.7544 34.5397 47.7544 34.5397C47.7355 34.5625 47.7165 34.5851 47.6973 34.608L47.6347 34.6915C47.6158 34.7181 47.5966 34.7429 47.5796 34.7695C47.5644 34.7903 47.5492 34.8112 47.5263 34.8474C47.5263 34.8474 47.4825 34.9137 47.4693 34.9366C47.456 34.9574 47.4103 35.039 47.4103 35.039C47.395 35.0636 47.3818 35.0884 47.3685 35.1133C47.3552 35.1361 47.3439 35.1607 47.3267 35.1968L47.2793 35.2956L47.3002 35.3185C47.3343 35.3583 47.3668 35.402 47.399 35.4458L47.4351 35.4952L47.4693 35.5389C47.4865 35.5618 47.5054 35.5827 47.5223 35.6073C47.5983 35.7173 47.6686 35.8334 47.7312 35.9474C48.0959 36.633 48.2193 37.3986 48.0903 38.1621C48.077 38.2304 48.0637 38.2988 48.0485 38.3674L48.0256 38.4529C48.0143 38.4927 48.0047 38.5308 47.9935 38.5706L47.9613 38.6674C47.9497 38.7016 47.9404 38.7357 47.9271 38.7699L47.8492 38.9655L47.8701 38.9884C47.9573 39.0832 48.0485 39.1727 48.1456 39.2562C48.6054 39.6531 49.1638 39.9173 49.7774 40.0218C49.9654 40.054 50.1574 40.0712 50.3474 40.0712C51.9925 40.0712 53.3903 38.8915 53.6678 37.2673C53.917 35.8105 53.1876 34.4087 51.9566 33.7383ZM50.1083 34.0821C50.1179 34.0765 50.1252 34.0725 50.1348 34.0725C50.152 34.0725 50.1653 34.0801 50.1746 34.0934C50.1803 34.101 50.222 34.16 50.3039 34.2396L50.3304 34.2642L50.3609 34.2489C50.4541 34.1976 50.661 34.1123 51.02 34.1123C51.0333 34.1123 51.0446 34.118 51.0542 34.1276C51.0638 34.1352 51.0674 34.1484 51.0674 34.1597C51.0674 34.1863 51.0466 34.2072 51.0068 34.2072C50.8055 34.2072 50.6268 34.2376 50.4806 34.2983L50.4027 34.3288L50.469 34.3802C50.6836 34.538 51.0502 34.728 51.5784 34.728C51.6828 34.728 51.7912 34.7203 51.9033 34.7051C51.9242 34.7051 51.949 34.722 51.9527 34.7469C51.9563 34.7734 51.9374 34.7963 51.9109 34.7999C51.7988 34.8152 51.6868 34.8228 51.5784 34.8228C50.5735 34.8228 50.1156 34.175 50.0967 34.1484C50.0817 34.1259 50.0874 34.0974 50.1083 34.0821Z" fill="#C92C1E"/>
<path d="M46.8847 29.5162C46.6967 29.484 46.5048 29.4668 46.3168 29.4668C45.9484 29.4668 45.593 29.5258 45.2588 29.6359C45.2588 29.6359 45.2568 29.6359 45.2568 29.6379C44.0981 30.0178 43.2092 31.0094 42.9944 32.2726C42.8708 32.9868 42.9772 33.7049 43.3021 34.3488L43.321 34.3886L43.3608 34.3714L43.4141 34.3525C43.4844 34.3239 43.5567 34.2994 43.6287 34.2765C43.6287 34.2765 43.6894 34.2576 43.7086 34.252C43.815 34.2198 43.9118 34.1969 44.0106 34.178C44.1054 34.1591 44.2025 34.1458 44.2994 34.1342C44.3259 34.1323 44.3524 34.1306 44.3905 34.1266C44.4645 34.121 44.5368 34.117 44.611 34.117C44.611 34.117 44.6395 34.1151 44.6567 34.1134H44.666C44.6717 34.1134 44.7058 34.1153 44.7058 34.1153C44.7665 34.1153 44.8275 34.119 44.8882 34.123L44.9243 34.1249C44.9432 34.1269 44.9624 34.1269 44.9813 34.1286C45.0725 34.1362 45.1637 34.1475 45.2549 34.1628C45.3497 34.18 45.4448 34.2009 45.536 34.2235C45.5549 34.2274 45.6309 34.252 45.6309 34.252C45.6916 34.2692 45.7506 34.2861 45.8096 34.305C45.8344 34.3127 45.857 34.3222 45.8818 34.3316L45.9292 34.3505C45.9767 34.3694 46.0261 34.3886 46.0735 34.4075C46.098 34.4188 46.1229 34.4321 46.1474 34.4436L46.1929 34.4665C46.2366 34.4874 46.2821 34.5083 46.3258 34.5311C46.3507 34.5464 46.3752 34.5616 46.4018 34.5766L46.4303 34.5938C46.4757 34.6203 46.5215 34.6469 46.5652 34.6754C46.5937 34.6943 46.6222 34.7152 46.6507 34.7344L46.6677 34.7476C46.7114 34.7781 46.7532 34.8083 46.795 34.8388C46.8274 34.8653 46.8596 34.8919 46.8938 34.9204C46.9319 34.9526 46.9717 34.987 47.0098 35.0229C47.042 35.0514 47.0725 35.0819 47.1029 35.1121L47.1314 35.1386C47.1427 35.1482 47.1523 35.1575 47.1619 35.1691L47.2266 35.1843L47.2571 35.1236C47.2703 35.0971 47.2856 35.0703 47.3008 35.0437C47.318 35.0096 47.3369 34.9771 47.3542 34.945C47.3711 34.9184 47.3864 34.8919 47.4036 34.867C47.4225 34.8349 47.4417 34.8044 47.4626 34.7722C47.4795 34.7474 47.4967 34.7228 47.5156 34.6963C47.5365 34.6678 47.5574 34.6373 47.5803 34.6071C47.5992 34.5842 47.6181 34.5596 47.6353 34.5348C47.6599 34.5063 47.6827 34.4778 47.7076 34.4512C47.7265 34.4264 47.7457 34.4038 47.7666 34.381C47.7911 34.3544 47.816 34.3279 47.8425 34.3011C47.8425 34.3011 47.8879 34.2517 47.9052 34.2364C47.9317 34.2099 47.9582 34.1831 47.9944 34.1509C48.0133 34.134 48.0305 34.1168 48.0514 34.0995C48.0799 34.073 48.1104 34.0482 48.1406 34.0236C48.1406 34.0236 48.188 33.9838 48.2033 33.9705C48.2354 33.9477 48.2659 33.9251 48.3057 33.8946L48.3647 33.8528C48.4045 33.8243 48.4463 33.7978 48.4881 33.7712L48.5318 33.7427C48.6476 33.6724 48.7672 33.6078 48.8889 33.5508L48.9423 33.5279C48.986 33.509 49.0298 33.4898 49.0732 33.4729L49.1511 33.4444C49.1892 33.4291 49.2271 33.4159 49.2652 33.4046L49.3431 33.3797C49.3829 33.3684 49.421 33.3569 49.4608 33.3456C49.4837 33.3399 49.5082 33.3343 49.5463 33.3267C49.5463 33.3267 49.609 33.3094 49.6242 33.3058L49.6584 33.3001L49.6623 33.266C49.8879 31.4995 48.6419 29.8165 46.8847 29.5162ZM47.7547 30.6464C47.2286 31.0111 46.6626 31.1955 46.0718 31.1955C45.6709 31.1955 45.3348 31.108 45.1239 31.034L45.1067 31.0794L45.103 31.0281C44.8902 30.9502 44.7648 30.8779 44.7629 30.8762C44.74 30.8629 44.7324 30.8344 44.7476 30.8116C44.7552 30.7963 44.7705 30.7887 44.7874 30.7887C44.7967 30.7887 44.8044 30.7907 44.812 30.7943C44.8157 30.798 44.8975 30.8457 45.0381 30.9044L45.0875 30.9253L45.1027 30.874C45.1597 30.6727 45.3859 30.3213 46.2595 30.2185C46.2784 30.2185 46.3013 30.2357 46.3049 30.2603C46.3069 30.2716 46.303 30.2851 46.2953 30.2944C46.2877 30.304 46.2764 30.3117 46.2632 30.3134C45.4008 30.4141 45.2241 30.7673 45.188 30.9154L45.1767 30.9572L45.2185 30.9705C45.492 31.0617 45.7768 31.1071 46.0619 31.1071C46.6318 31.1071 47.1845 30.9248 47.7011 30.5677C47.7087 30.562 47.7183 30.5601 47.7276 30.5601C47.7429 30.5601 47.7581 30.5677 47.7674 30.581C47.7815 30.603 47.7756 30.6332 47.7547 30.6464ZM48.8491 32.2534L48.8511 32.2097V32.2534C48.8643 32.2915 48.8739 32.3333 48.8796 32.3731C48.8717 32.3333 48.8624 32.2915 48.8491 32.2534Z" fill="#C92C1E"/>
<path d="M46.0224 40.6703C45.6044 40.8546 45.1468 40.9535 44.6737 40.9535C44.4837 40.9535 44.2918 40.9362 44.1038 40.904C42.2727 40.5907 41.036 38.8448 41.3493 37.0137C41.5393 35.8931 42.2763 34.9508 43.3191 34.493C43.3532 34.4777 43.3874 34.4625 43.4255 34.4492C43.4255 34.4492 41.7519 35.7409 42.1033 38.1344C42.4457 40.4654 45.0652 40.7369 46.0224 40.6703Z" fill="#A3180B"/>
<path d="M53.6677 37.2676C53.3902 38.8918 51.9924 40.0714 50.3473 40.0714C50.1573 40.0714 49.9653 40.0542 49.7774 40.0221C49.1637 39.9176 48.6053 39.6534 48.1455 39.2565C48.6906 39.361 50.9056 39.6365 52.2335 37.5544C53.2327 35.9872 52.2069 34.1428 51.9562 33.7383C53.1873 34.4087 53.9167 35.8105 53.6677 37.2676Z" fill="#DE5547"/>
<path d="M44.6566 34.1122C44.6394 34.1142 44.6109 34.1159 44.6109 34.1159C44.5369 34.1159 44.4647 34.1198 44.3904 34.1255C44.3526 34.1292 44.3258 34.1311 44.2992 34.1331C44.2024 34.1444 44.1053 34.1577 44.0105 34.1769C43.9117 34.1958 43.8149 34.2186 43.7084 34.2508C43.6895 34.2565 43.6286 34.2754 43.6286 34.2754C43.5563 34.2982 43.484 34.3228 43.414 34.3513L43.3607 34.3702L43.3209 34.3874L43.302 34.3476C42.9771 33.7038 42.8709 32.9857 42.9943 32.2715C43.2088 31.0083 44.098 30.0167 45.2567 29.6367C45.1791 29.6997 43.5701 31.0484 44.6566 34.1122Z" fill="#A3180B"/>
<path d="M57.1022 22.3184C55.9073 25.2741 53.7818 25.4717 53.7818 25.4717C53.6887 28.8909 50.353 29.871 50.353 29.871C50.7253 31.1816 49.9578 32.6254 49.7754 32.9424C49.7811 32.8114 49.7774 32.6802 49.7659 32.5492C50.2294 30.9916 49.3213 29.6372 49.0325 29.2593L48.9854 29.1966L49.0613 29.1833C50.4461 28.942 51.4206 28.3684 51.958 27.4795C52.6987 26.2561 52.3817 24.7973 52.2677 24.3793L52.2468 24.3053L52.3227 24.3206C52.754 24.4137 53.1698 24.4592 53.5594 24.4592C54.3534 24.4592 55.0639 24.2655 55.6697 23.8856C56.1577 23.5779 56.5738 23.1562 56.9063 22.63L57.1022 22.3184Z" fill="#006D33"/>
<path d="M59.7052 28.4123L59.5894 28.4256C59.0387 28.4826 57.6499 28.7389 56.6583 29.8426C55.8566 30.7355 55.5052 31.9778 55.6116 33.5334L55.6172 33.6209L55.5393 33.5771C55.1839 33.3795 54.2191 32.918 52.9463 32.918C52.2872 32.918 51.6318 33.0433 51.0011 33.2884L50.9879 33.294L50.9272 33.2807C50.7429 33.2503 50.5492 33.2333 50.3516 33.2333C50.3099 33.2333 50.2681 33.2353 50.2263 33.2373L50.0801 33.2409C50.0801 33.2409 50.0821 33.239 50.0857 33.2373C50.2094 33.1594 52.5096 31.7519 54.5934 32.1621C54.5934 32.1621 54.8195 28.3782 57.8074 27.7286C57.8074 27.7286 56.6393 25.4264 57.3267 21.8818L57.3191 22.2353C57.2925 23.8177 57.5545 26.7164 59.6137 28.3403L59.7052 28.4123Z" fill="#07A953"/>
<path d="M53.7156 37.2752C53.3963 39.1348 51.6298 40.3867 49.7702 40.0695C48.9742 39.9328 48.2905 39.5337 47.7945 38.9753C47.9086 38.7188 47.9938 38.4435 48.0432 38.1548C48.1762 37.3777 48.0336 36.6161 47.6901 35.9702C47.5608 35.7309 47.4053 35.5067 47.2227 35.3035C47.6785 34.2797 48.6112 33.5483 49.6996 33.3394C50.0909 33.2652 50.5033 33.2578 50.9191 33.3278C52.781 33.6471 54.0329 35.4136 53.7156 37.2752Z" stroke="black" stroke-miterlimit="10" stroke-linecap="round" stroke-linejoin="round"/>
<path d="M48.0435 38.1542C47.9941 38.443 47.9086 38.7185 47.7948 38.9748C47.1735 40.3673 45.6693 41.2181 44.0964 40.9505C42.2348 40.6315 40.9849 38.8647 41.3021 37.0051C41.5034 35.8274 42.2842 34.8948 43.3004 34.4482C43.8912 34.188 44.5636 34.0931 45.2475 34.2088C46.0436 34.3457 46.7272 34.7446 47.2232 35.3029C47.4055 35.5062 47.5614 35.7303 47.6906 35.9697C48.0339 36.6158 48.1764 37.3774 48.0435 38.1542Z" stroke="black" stroke-miterlimit="10" stroke-linecap="round" stroke-linejoin="round"/>
<path d="M49.7 33.3395C48.6115 33.5483 47.6789 34.2797 47.223 35.3035C46.7273 34.7452 46.0434 34.3461 45.2474 34.2094C44.5634 34.0937 43.891 34.1886 43.3002 34.4488C42.9547 33.803 42.8138 33.0411 42.9471 32.2643C43.2644 30.4026 45.0309 29.151 46.8925 29.468C48.7295 29.7836 49.9718 31.5066 49.7 33.3395Z" stroke="black" stroke-miterlimit="10" stroke-linecap="round" stroke-linejoin="round"/>
<path d="M49.9853 33.251C49.9853 33.251 55.3762 29.4567 57.4238 21.3203C57.4238 21.3203 56.5547 25.2722 52.1769 24.2393C52.1769 24.2393 53.6269 28.441 48.8945 29.1625C48.8945 29.1625 50.2647 30.7187 49.723 32.5228" stroke="black" stroke-miterlimit="10" stroke-linecap="round" stroke-linejoin="round"/>
<path d="M57.4233 21.3203C57.4233 21.3203 56.7475 26.2664 59.8455 28.4537C59.8455 28.4537 55.2068 28.535 55.6723 33.7114C55.6723 33.7114 53.6092 32.3057 50.9941 33.3414" stroke="black" stroke-miterlimit="10" stroke-linecap="round" stroke-linejoin="round"/>
<path d="M42.417 36.1806C42.417 36.1806 43.9709 36.7277 44.6727 35.001" stroke="black" stroke-miterlimit="10" stroke-linecap="round" stroke-linejoin="round"/>
<path d="M42.8477 36.2587C42.8477 36.2587 42.8725 35.7594 43.3854 35.4404" stroke="black" stroke-miterlimit="10" stroke-linecap="round" stroke-linejoin="round"/>
<path d="M44.7881 30.8352C44.7881 30.8352 46.1786 31.6787 47.7286 30.6074" stroke="black" stroke-miterlimit="10" stroke-linecap="round" stroke-linejoin="round"/>
<path d="M45.1309 30.9888C45.1309 30.9888 45.1066 30.4022 46.2578 30.2656" stroke="black" stroke-miterlimit="10" stroke-linecap="round" stroke-linejoin="round"/>
<path d="M50.1357 34.1211C50.1357 34.1211 50.6828 34.916 51.9051 34.7537" stroke="black" stroke-miterlimit="10" stroke-linecap="round" stroke-linejoin="round"/>
<path d="M50.3271 34.3242C50.3271 34.3242 50.5375 34.1571 51.0204 34.1602" stroke="black" stroke-miterlimit="10" stroke-linecap="round" stroke-linejoin="round"/>
<path d="M42.1035 38.4121C42.4637 39.2575 43.3173 39.8706 44.2333 39.9415" stroke="black" stroke-width="0.5" stroke-miterlimit="10" stroke-linecap="round" stroke-linejoin="round"/>
<path d="M43.2422 38.7832C43.4093 38.9763 43.6213 39.1301 43.8567 39.2292" stroke="black" stroke-width="0.5" stroke-miterlimit="10" stroke-linecap="round" stroke-linejoin="round"/>
<path d="M44.2666 38.2363C44.3806 38.3388 44.4944 38.4415 44.6084 38.544" stroke="black" stroke-width="0.5" stroke-miterlimit="10" stroke-linecap="round" stroke-linejoin="round"/>
<path d="M45.0879 37.792C45.2019 37.906 45.3157 38.0201 45.4297 38.1338" stroke="black" stroke-width="0.5" stroke-miterlimit="10" stroke-linecap="round" stroke-linejoin="round"/>
<path d="M46.4961 35.9072C46.8487 36.3998 47.1019 36.9635 47.2357 37.5546" stroke="black" stroke-width="0.5" stroke-miterlimit="10" stroke-linecap="round" stroke-linejoin="round"/>
<path d="M48.8447 38.9268C49.5513 39.3477 50.5079 39.3006 51.1696 38.8125" stroke="black" stroke-width="0.5" stroke-miterlimit="10" stroke-linecap="round" stroke-linejoin="round"/>
<path d="M49.8418 38.6423C50.0741 38.7337 50.3603 38.6643 50.5252 38.4766" stroke="black" stroke-width="0.5" stroke-miterlimit="10" stroke-linecap="round" stroke-linejoin="round"/>
<path d="M50.4219 37.005C50.5325 36.9813 50.6381 36.9353 50.7304 36.8701" stroke="black" stroke-width="0.5" stroke-miterlimit="10" stroke-linecap="round" stroke-linejoin="round"/>
<path d="M50.5928 36.1204C50.6727 36.1091 50.7523 36.0975 50.8321 36.0859" stroke="black" stroke-width="0.5" stroke-miterlimit="10" stroke-linecap="round" stroke-linejoin="round"/>
<path d="M43.7471 33.5218C43.5433 33.0489 43.5195 32.501 43.6821 32.0127" stroke="black" stroke-width="0.5" stroke-miterlimit="10" stroke-linecap="round" stroke-linejoin="round"/>
<path d="M44.3008 32.4923C44.3236 32.4124 44.3465 32.3328 44.3691 32.2529" stroke="black" stroke-width="0.5" stroke-miterlimit="10" stroke-linecap="round" stroke-linejoin="round"/>
<path d="M45.1533 32.5938C45.1762 32.5027 45.1991 32.4115 45.2216 32.3203" stroke="black" stroke-width="0.5" stroke-miterlimit="10" stroke-linecap="round" stroke-linejoin="round"/>
<path d="M48.8824 32.5951C48.8976 32.4804 48.8863 32.3625 48.8496 32.2529" stroke="black" stroke-width="0.5" stroke-miterlimit="10" stroke-linecap="round" stroke-linejoin="round"/>
<path d="M48.2295 33.0067C48.1609 32.8018 48.092 32.5965 48.0234 32.3916" stroke="black" stroke-width="0.5" stroke-miterlimit="10" stroke-linecap="round" stroke-linejoin="round"/>
<path d="M46.7998 33.2428C46.7431 33.1514 46.6866 33.0599 46.6299 32.9688" stroke="black" stroke-width="0.5" stroke-miterlimit="10" stroke-linecap="round" stroke-linejoin="round"/>
<path d="M53.0625 29.0525C53.7781 28.171 54.4217 27.2307 54.984 26.2441" stroke="black" stroke-width="0.5" stroke-miterlimit="10" stroke-linecap="round" stroke-linejoin="round"/>
<path d="M53.5039 27.126C53.5968 26.8988 53.6896 26.6716 53.7825 26.4443" stroke="black" stroke-width="0.5" stroke-miterlimit="10" stroke-linecap="round" stroke-linejoin="round"/>
<path d="M53.1221 26.8163C53.1492 26.5823 53.2082 26.352 53.2968 26.1338" stroke="black" stroke-width="0.5" stroke-miterlimit="10" stroke-linecap="round" stroke-linejoin="round"/>
<path d="M51.6875 32.3566C52.3681 31.739 53.0278 31.0985 53.6651 30.4365" stroke="black" stroke-width="0.5" stroke-miterlimit="10" stroke-linecap="round" stroke-linejoin="round"/>
<path d="M53.4307 31.5353C53.4877 31.467 53.5447 31.3987 53.6017 31.3301" stroke="black" stroke-width="0.5" stroke-miterlimit="10" stroke-linecap="round" stroke-linejoin="round"/>
<path d="M54.2852 31.7745C54.3876 31.672 54.4904 31.5693 54.5928 31.4668" stroke="black" stroke-width="0.5" stroke-miterlimit="10" stroke-linecap="round" stroke-linejoin="round"/>
<path d="M56.3027 29.2445C56.8049 28.7686 57.4381 28.4321 58.1138 28.2822" stroke="black" stroke-width="0.5" stroke-miterlimit="10" stroke-linecap="round" stroke-linejoin="round"/>
<path d="M57.2607 28.0155C57.4326 27.9144 57.6161 27.8329 57.8061 27.7725" stroke="black" stroke-width="0.5" stroke-miterlimit="10" stroke-linecap="round" stroke-linejoin="round"/>
<path d="M50.2168 30.167C50.3023 30.4671 50.3483 30.7781 50.3534 31.09" stroke="black" stroke-width="0.5" stroke-miterlimit="10" stroke-linecap="round" stroke-linejoin="round"/>
<path d="M50.9688 30.2012C51.0012 30.3468 51.0128 30.497 51.0029 30.6458" stroke="black" stroke-width="0.5" stroke-miterlimit="10" stroke-linecap="round" stroke-linejoin="round"/>
</svg>
