<svg width="41" height="40" viewBox="0 0 41 40" fill="none" xmlns="http://www.w3.org/2000/svg">
<path d="M36.8127 26.9541H34.9494C34.9603 26.938 34.9707 26.9216 34.9813 26.9053C34.9861 26.8984 34.9908 26.8912 34.9947 26.8849C35.058 26.7833 35.1174 26.6736 35.1755 26.5507L35.2121 26.4701C35.2579 26.3658 35.2984 26.2616 35.3311 26.1573C35.3344 26.1478 35.3376 26.1383 35.34 26.1305C35.3751 26.0149 35.4011 25.8996 35.4224 25.7811L35.4334 25.7137C35.4507 25.6031 35.4629 25.493 35.4661 25.4124C35.4672 25.4022 35.4683 25.3866 35.4687 25.3766C35.4737 25.2626 35.472 25.1504 35.4657 25.0413L35.4616 24.9828C35.4536 24.876 35.4419 24.77 35.4245 24.6657C35.3387 24.1492 35.1397 23.6239 34.8322 23.1009C35.1144 21.9578 35.2574 20.785 35.2574 19.6096C35.2574 11.5959 28.7377 5.07617 20.724 5.07617C17.1944 5.07617 13.7957 6.35689 11.1432 8.68467C8.1431 10.2441 6.16058 12.8992 4.97523 14.9996C4.27972 14.9517 3.61779 15.0824 2.99228 15.3767C2.6507 15.5375 2.33405 15.7445 2.05098 15.992C2.04882 15.994 2.04665 15.9957 2.0447 15.9977C1.90729 16.1184 1.77811 16.2484 1.65132 16.3937C1.53059 16.5337 1.41962 16.6808 1.32187 16.831C1.32079 16.8326 1.30497 16.859 1.3041 16.8603C1.21957 16.9927 1.14003 17.136 1.06135 17.2996L1.02819 17.369C0.951247 17.5393 0.89056 17.6993 0.842877 17.8566C0.836592 17.8777 0.83074 17.8991 0.829006 17.9093C0.787826 18.0521 0.753364 18.206 0.726705 18.3662C0.719336 18.4102 0.7124 18.4538 0.706115 18.5006C0.680106 18.6991 0.667969 18.8677 0.667969 19.0314C0.667969 21.2599 2.481 23.0727 4.70929 23.0727C4.84562 23.0727 4.98065 23.0655 5.11286 23.0523C5.15058 23.0486 5.18764 23.043 5.2247 23.0369L5.27542 23.0294C5.35279 23.0192 5.43017 23.0085 5.50689 22.9929C5.55002 22.9843 5.59207 22.9736 5.63434 22.9626L5.71605 22.9422C5.77305 22.9286 5.82984 22.9143 5.88554 22.8974C5.93452 22.8824 5.98242 22.8653 6.0301 22.8477L6.10228 22.8219C6.15104 22.805 6.19959 22.7875 6.24793 22.7677C6.30146 22.7456 6.35348 22.7209 6.4055 22.6962L6.47247 22.6644C6.48591 22.6581 6.49913 22.652 6.51257 22.6457C6.83572 24.1579 7.40293 25.6177 8.18558 26.9539H6.43584C6.06717 26.9539 5.76828 27.2527 5.76828 27.6214V34.7706C5.76828 35.1392 6.06717 35.4381 6.43584 35.4381H25.2542V37.413C25.2542 37.7295 25.4764 38.0026 25.7863 38.0667L35.0496 39.9862C35.0946 39.9955 35.1399 40 35.185 40C35.3645 40 35.5387 39.9274 35.666 39.7954C35.8248 39.6303 35.8881 39.3949 35.8333 39.1723L35.0231 35.8915L36.9699 35.4193C37.2694 35.3467 37.4801 35.0783 37.4801 34.7703V27.6212C37.4803 27.253 37.1814 26.9541 36.8127 26.9541ZM36.1452 34.2458L34.0571 34.7526C33.8846 34.7944 33.7359 34.9032 33.6438 35.0549C33.5517 35.2069 33.5239 35.3891 33.5664 35.5612L34.2834 38.464L26.59 36.8699V34.7708C26.59 34.4021 26.2911 34.1032 25.9225 34.1032H7.10383V28.2894H9.41102C9.6607 28.2894 9.88958 28.15 10.0042 27.9281C10.1189 27.7064 10.1 27.4389 9.95547 27.2354C8.73523 25.5158 7.93914 23.5053 7.65283 21.4216C7.61902 21.1749 7.46037 20.9591 7.22607 20.8752C6.99178 20.7913 6.73971 20.8364 6.55721 21.0057C6.54854 21.0126 6.53034 21.0282 6.5221 21.0358C6.47832 21.0757 6.4341 21.1147 6.38816 21.1511L6.34763 21.1816C6.34611 21.1827 6.32097 21.2012 6.31967 21.2022C6.27567 21.2352 6.23145 21.2679 6.18594 21.2976L6.08754 21.357C6.04853 21.3804 6.00951 21.4045 5.96898 21.4257L5.8307 21.4916C5.80014 21.5061 5.77002 21.5208 5.73946 21.5336C5.7141 21.544 5.68809 21.5527 5.6623 21.5618L5.57127 21.5943C5.54656 21.6034 5.52228 21.6127 5.49714 21.6203C5.46658 21.6296 5.43515 21.6368 5.40394 21.6442L5.24507 21.6841C5.19761 21.6936 5.14927 21.6994 5.0771 21.709L4.98195 21.7235C4.89287 21.7324 4.80227 21.7374 4.71038 21.7374C3.21834 21.7374 2.00438 20.5234 2.00438 19.0312C2.00438 18.9269 2.01284 18.8131 2.03083 18.6761L2.04491 18.5847C2.0629 18.475 2.08588 18.3723 2.11232 18.2804L2.12121 18.245C2.15242 18.1421 2.19316 18.0352 2.24453 17.9219L2.27314 17.8631C2.32169 17.7617 2.37436 17.6663 2.44198 17.5593C2.50722 17.4591 2.58156 17.3605 2.66891 17.2595C2.74845 17.1681 2.83623 17.0799 2.93008 16.9977C2.93138 16.9966 2.93268 16.9953 2.93398 16.9942C3.12276 16.8295 3.33386 16.6917 3.56187 16.5844C4.0801 16.3401 4.61783 16.2612 5.21863 16.3748C5.50538 16.4281 5.79364 16.2909 5.93127 16.0339C7.00305 14.0321 8.89562 11.3317 11.8277 9.83425C11.8779 9.80846 11.925 9.77638 11.9675 9.73889C14.3843 7.59273 17.4945 6.41085 20.7253 6.41085C28.0029 6.41085 33.9236 12.3315 33.9236 19.6092C33.9236 20.7651 33.7715 21.9183 33.4711 23.0374C33.4216 23.2212 33.4533 23.4177 33.5577 23.5766C33.8499 24.0214 34.0404 24.4735 34.1087 24.8849C34.1195 24.9497 34.1265 25.0158 34.1315 25.0823C34.1315 25.0827 34.1336 25.1155 34.1336 25.1161C34.1375 25.1822 34.139 25.2488 34.138 25.2856C34.1369 25.2951 34.1358 25.3103 34.1356 25.3199C34.1325 25.3818 34.125 25.4445 34.1154 25.506L34.1087 25.5479C34.0979 25.6079 34.0849 25.6684 34.0669 25.7304C34.0645 25.7371 34.0625 25.7436 34.0606 25.7492C34.0417 25.8103 34.0175 25.8712 33.9897 25.9347L33.9691 25.98C33.9396 26.0425 33.9076 26.1051 33.8692 26.1675C33.8657 26.1725 33.8625 26.1777 33.8597 26.1823C33.8187 26.2473 33.7706 26.3119 33.7203 26.3749L33.6772 26.4276C33.6189 26.497 33.5573 26.5661 33.4867 26.6344L33.4862 26.6346C33.3397 26.7761 33.1438 26.9047 32.9041 27.0169C32.6208 27.1494 32.4673 27.461 32.5354 27.7666C32.6032 28.072 32.8741 28.2894 33.1871 28.2894H36.1463V34.2458H36.1452Z" fill="white"/>
<path d="M30.528 29.414C35.9429 23.999 35.9429 15.2197 30.528 9.80479C25.1131 4.38987 16.3338 4.38987 10.9188 9.80479C5.50392 15.2197 5.50392 23.999 10.9188 29.414C16.3338 34.8289 25.1131 34.8289 30.528 29.414Z" fill="#65A348"/>
<path opacity="0.2" d="M24.4815 20.4099C26.5162 18.8513 30.5636 17.5348 34.2194 16.4303C33.8921 15.0363 33.3565 13.7233 32.6441 12.5266C28.9231 12.4746 26.0567 12.3188 28.7692 10.9963C29.419 10.6794 30.1171 10.3926 30.8391 10.1304C30.0261 9.2632 29.1032 8.50093 28.0921 7.86523C26.7332 8.16694 25.1516 8.45802 23.3148 8.7116C14.4469 9.93683 6.9206 11.3127 12.5799 12.2583C18.2392 13.204 24.3651 14.0373 17.5389 15.2834C13.4518 16.0294 9.81971 15.9477 7.24029 16.3805C6.99299 17.4169 6.8584 18.4972 6.8584 19.6095C6.8584 19.8941 6.86967 20.176 6.88658 20.4565C8.02337 20.5243 9.39078 20.6401 10.9331 20.9537C16.4307 22.0719 18.4726 21.2617 20.4562 24.0297C22.4398 26.7976 19.8144 24.1047 14.7386 25.5096C12.97 25.9992 10.7588 26.3579 8.83246 26.7413C9.74494 28.2595 10.9403 29.5879 12.3449 30.6552C16.3046 29.8675 20.9703 28.2062 26.0765 29.4009C27.3505 29.6989 28.6602 29.8786 29.947 29.9599C31.7327 28.3677 33.1016 26.3206 33.8761 24.0002C27.9998 23.0548 21.0824 23.0134 24.4815 20.4099Z" fill="#65A348"/>
<path d="M27.8423 35.6607L25.9229 37.4132L35.1861 39.3324L34.0595 34.7705L27.8423 35.6607Z" fill="#51403B"/>
<path d="M32.891 31.6553L36.8134 34.7709L25.9229 37.4136V33.7832L32.891 31.6553Z" fill="#42322E"/>
<path d="M36.813 27.6221H6.43652V34.771H36.813V27.6221Z" fill="#51403B"/>
<path d="M31.5173 19.8658C31.5173 19.8658 29.0651 10.2005 18.7063 8.28563C8.34742 6.37074 4.39062 17.8003 4.39062 17.8003L5.48473 18.8172C5.48473 18.8172 8.49372 15.3067 10.1806 15.6257C11.8675 15.945 12.8706 23.5129 12.8706 23.5129C12.8706 23.5129 28.098 26.2941 31.5173 19.8658Z" fill="#E53030"/>
<path opacity="0.3" d="M21.3466 23.7821C19.2882 18.33 15.0599 16.3828 15.0599 16.3828C17.4522 16.1602 20.067 17.7736 20.067 17.7736C20.067 17.7736 17.5565 12.5858 11.3809 13.2952C7.84007 13.702 6.0097 16.5699 4.75781 18.1412L5.48476 18.817C5.48476 18.817 8.49375 15.3065 10.1806 15.6258C11.8675 15.9448 12.8706 23.5129 12.8706 23.5129C12.8706 23.5129 17.0233 24.2706 21.4784 24.0799C21.4294 23.9808 21.3843 23.8816 21.3466 23.7821Z" fill="#891F1F"/>
<path d="M31.1116 18.6703C31.1116 18.6703 23.7229 21.8949 18.5589 21.9082C13.3949 21.9214 12.1937 22.5811 11.4152 23.8224C10.6366 25.0637 11.4152 26.0013 11.4152 26.0013C11.4152 26.0013 10.2719 27.9853 11.8675 28.9635C13.4631 29.9418 16.3644 28.4678 20.5557 28.0887C24.747 27.7096 31.8216 29.1665 33.9489 27.1151C36.0762 25.0634 33.5688 22.5105 33.5688 22.5105C33.5688 22.5105 34.0751 18.3968 31.1116 18.6703Z" fill="#F2F0F1"/>
<path d="M4.7097 22.4048C6.57298 22.4048 8.08347 20.8943 8.08347 19.031C8.08347 17.1677 6.57298 15.6572 4.7097 15.6572C2.84642 15.6572 1.33594 17.1677 1.33594 19.031C1.33594 20.8943 2.84642 22.4048 4.7097 22.4048Z" fill="#F2F0F1"/>
<path opacity="0.3" d="M5.7028 20.4849C4.09763 20.4849 2.79633 19.1836 2.79633 17.5784C2.79633 16.9873 2.97384 16.4383 3.27684 15.9795C2.13116 16.5187 1.33594 17.6802 1.33594 19.0305C1.33594 20.8938 2.8464 22.4043 4.7097 22.4043C6.49607 22.4043 7.95429 21.015 8.07198 19.2583C7.54531 19.9996 6.6816 20.4849 5.7028 20.4849Z" fill="#939B9E"/>
<path opacity="0.3" d="M20.9849 26.8704C19.9835 26.314 21.4784 24.6729 21.4784 24.6729L18.8082 24.9677C18.4449 25.0078 18.0725 24.9805 17.7314 24.8493C17.2626 24.6692 16.7821 24.2865 17.035 23.4769C17.4522 22.1416 20.4274 21.7948 20.4274 21.7948L20.4276 21.7939C19.7935 21.8646 19.1662 21.9066 18.5589 21.9082C13.3949 21.9214 12.1937 22.5811 11.4152 23.8224C10.6366 25.0637 11.4152 26.0013 11.4152 26.0013C11.4152 26.0013 10.2719 27.9853 11.8675 28.9635C13.4631 29.9418 16.3644 28.4678 20.5557 28.0887C24.747 27.7096 31.8216 29.1666 33.9489 27.1151C34.7402 26.352 34.8898 25.5195 34.766 24.7748C32.8 28.9355 21.9801 27.4233 20.9849 26.8704Z" fill="#939B9E"/>
<g opacity="0.35">
<path d="M5.14981 16.5818C5.03883 16.5901 5.02583 16.762 5.142 16.7589C6.21335 16.7325 6.88957 17.6629 6.75454 18.6677C6.71575 18.9569 7.16353 18.9718 7.20536 18.6877C7.38721 17.4503 6.33754 16.4934 5.14981 16.5818Z" fill="white"/>
<path d="M28.723 15.5812C26.1863 11.2764 21.6597 8.85993 16.7035 8.92105C16.6066 8.92214 16.5988 9.07125 16.6968 9.07212C21.4412 9.11352 25.8083 11.7946 28.1397 15.8788C28.3489 16.2449 28.9367 15.9436 28.723 15.5812Z" fill="white"/>
<path d="M29.848 17.8883C29.6445 17.4827 29.4375 16.9955 29.1072 16.6765C28.9719 16.5458 28.7853 16.6607 28.8007 16.8347C28.841 17.2907 29.0944 17.7662 29.2806 18.178C29.449 18.5511 30.0324 18.2559 29.848 17.8883Z" fill="white"/>
<path d="M31.7936 19.3155C31.6642 19.2737 31.6087 19.4653 31.7318 19.5147C32.7074 19.907 32.3888 21.2159 32.2514 21.9777C32.1846 22.3472 32.734 22.5391 32.8242 22.1554C33.086 21.0433 33.0483 19.7221 31.7936 19.3155Z" fill="white"/>
<path d="M33.6995 23.7316C33.6527 23.3291 33.3306 22.6884 32.8397 22.7938C32.7996 22.8024 32.7898 22.8482 32.8128 22.8778C33.108 23.2602 33.3906 23.5053 33.2244 24.0467C33.1074 24.4284 32.7593 24.6794 32.7044 25.0673C32.688 25.1844 32.8284 25.3071 32.9426 25.2687C33.4773 25.0884 33.7608 24.2593 33.6995 23.7316Z" fill="white"/>
</g>
<g opacity="0.6">
<path d="M25.6779 9.50811C25.898 9.50811 26.0765 9.32965 26.0765 9.10952C26.0765 8.88939 25.898 8.71094 25.6779 8.71094C25.4577 8.71094 25.2793 8.88939 25.2793 9.10952C25.2793 9.32965 25.4577 9.50811 25.6779 9.50811Z" fill="white"/>
<path d="M28.9255 11.6917C28.9255 11.7695 28.8625 11.8328 28.7847 11.8328C28.7068 11.8328 28.6436 11.7697 28.6436 11.6917C28.6436 11.6139 28.7066 11.5508 28.7847 11.5508C28.8625 11.5508 28.9255 11.6139 28.9255 11.6917Z" fill="white"/>
<path d="M32.4507 16.2317C32.4507 16.3095 32.3876 16.3728 32.3098 16.3728C32.232 16.3728 32.1689 16.3097 32.1689 16.2317C32.1689 16.1539 32.232 16.0908 32.3098 16.0908C32.3876 16.0908 32.4507 16.1539 32.4507 16.2317Z" fill="white"/>
<path d="M31.1622 11.4869C31.1622 11.6776 31.0077 11.8321 30.8169 11.8321C30.6262 11.8321 30.4717 11.6776 30.4717 11.4869C30.4717 11.2961 30.6262 11.1416 30.8169 11.1416C31.0075 11.1416 31.1622 11.2961 31.1622 11.4869Z" fill="white"/>
<path d="M34.0538 18.9146C34.0538 19.1053 33.8993 19.2599 33.7085 19.2599C33.5178 19.2599 33.3633 19.1053 33.3633 18.9146C33.3633 18.7239 33.5178 18.5693 33.7085 18.5693C33.8993 18.5696 34.0538 18.7241 34.0538 18.9146Z" fill="white"/>
<path d="M30.8514 13.8939C30.8514 14.1033 30.6817 14.2732 30.4721 14.2732C30.2627 14.2732 30.0928 14.1035 30.0928 13.8939C30.0928 13.6846 30.2625 13.5146 30.4721 13.5146C30.6817 13.5146 30.8514 13.6844 30.8514 13.8939Z" fill="white"/>
<path d="M22.9122 7.0191C22.9122 7.15868 22.7991 7.2716 22.6597 7.2716C22.5201 7.2716 22.4072 7.15847 22.4072 7.0191C22.4072 6.87952 22.5204 6.7666 22.6597 6.7666C22.7993 6.7666 22.9122 6.87952 22.9122 7.0191Z" fill="white"/>
<path d="M19.2601 7.56854C19.2601 7.67864 19.1708 7.76794 19.0607 7.76794C18.9506 7.76794 18.8613 7.67864 18.8613 7.56854C18.8613 7.45844 18.9506 7.36914 19.0607 7.36914C19.1708 7.36914 19.2601 7.45844 19.2601 7.56854Z" fill="white"/>
<path d="M16.5961 7.27127C16.6659 7.27127 16.7224 7.2147 16.7224 7.14491C16.7224 7.07513 16.6659 7.01855 16.5961 7.01855C16.5263 7.01855 16.4697 7.07513 16.4697 7.14491C16.4697 7.2147 16.5263 7.27127 16.5961 7.27127Z" fill="white"/>
<path d="M9.69841 16.6205C9.815 16.6205 9.90951 16.5259 9.90951 16.4093C9.90951 16.2928 9.815 16.1982 9.69841 16.1982C9.58182 16.1982 9.4873 16.2928 9.4873 16.4093C9.4873 16.5259 9.58182 16.6205 9.69841 16.6205Z" fill="white"/>
<path d="M8.88525 20.9529C8.88525 21.1087 8.7591 21.2349 8.60327 21.2349C8.44743 21.2349 8.32129 21.1087 8.32129 20.9529C8.32129 20.7973 8.44743 20.6709 8.60327 20.6709C8.7591 20.6711 8.88525 20.7973 8.88525 20.9529Z" fill="white"/>
<path d="M11.1724 19.8489C11.1724 19.9811 11.0651 20.0884 10.9329 20.0884C10.8006 20.0884 10.6934 19.9811 10.6934 19.8489C10.6934 19.7167 10.8006 19.6094 10.9329 19.6094C11.0653 19.6094 11.1724 19.7167 11.1724 19.8489Z" fill="white"/>
<path d="M10.2244 22.8513C10.2244 22.938 10.1542 23.0084 10.0673 23.0084C9.98038 23.0084 9.91016 22.9382 9.91016 22.8513C9.91016 22.7646 9.98038 22.6943 10.0673 22.6943C10.1542 22.6943 10.2244 22.7646 10.2244 22.8513Z" fill="white"/>
<path d="M9.4686 25.0571C9.4686 25.2558 9.30756 25.4168 9.10881 25.4168C8.91006 25.4168 8.74902 25.2558 8.74902 25.0571C8.74902 24.8583 8.91006 24.6973 9.10881 24.6973C9.30756 24.6973 9.4686 24.8583 9.4686 25.0571Z" fill="white"/>
<path d="M10.8107 26.0675C10.8107 26.1802 10.7192 26.2716 10.6065 26.2716C10.4938 26.2716 10.4023 26.1802 10.4023 26.0675C10.4023 25.9547 10.4938 25.8633 10.6065 25.8633C10.7192 25.8633 10.8107 25.9545 10.8107 26.0675Z" fill="white"/>
</g>
</svg>
