<svg width="39" height="40" viewBox="0 0 39 40" fill="none" xmlns="http://www.w3.org/2000/svg">
<path d="M38.2102 26.3813L38.2054 26.319C38.1999 26.2548 38.1937 26.1906 38.1841 26.1258L38.1665 26.0245C38.1659 26.0217 38.1604 25.9912 38.1598 25.9887C38.1337 25.8551 38.0981 25.7203 38.0486 25.5713C38.0106 25.459 37.9658 25.3466 37.9081 25.2178L37.8833 25.162C37.8588 25.1108 37.8327 25.0593 37.7978 24.9929L37.7603 24.9222C37.7359 24.8781 37.71 24.8338 37.6838 24.7895C37.6822 24.7872 37.6811 24.7847 37.6797 24.7822C37.6761 24.7763 37.6728 24.7705 37.6692 24.7648L37.6186 24.6827C37.59 24.6371 37.5607 24.5915 37.5308 24.5474L37.4612 24.4462C37.4311 24.4034 37.4006 24.3605 37.3684 24.3173L37.2961 24.2228L36.7879 24.6187L37.2739 24.1946L37.1136 23.9979C37.1061 23.9887 37.0948 23.9753 37.0919 23.9722L36.9988 23.8635C36.9351 23.7916 36.8692 23.7201 36.8011 23.6488L36.7131 23.5593C36.6694 23.5146 36.6253 23.4701 36.5801 23.426L36.4783 23.329C36.4336 23.2867 36.3891 23.2443 36.3437 23.2033L36.2375 23.108C36.1907 23.0664 36.1435 23.0248 36.0958 22.9838L35.7198 22.6745C35.6654 22.6314 35.6094 22.5884 35.5446 22.539L35.4455 22.4634C35.3813 22.4155 35.3159 22.3676 35.2492 22.3195L35.1596 22.2545C35.0621 22.1849 34.9629 22.1157 34.8613 22.047C34.2461 21.6297 33.7624 21.117 33.4216 20.5206C33.4852 19.9721 33.5172 19.4322 33.5172 18.9127C33.5172 17.7597 33.3755 16.611 33.096 15.4958C33.2072 15.0391 33.3487 14.5627 33.5163 14.0813L33.537 14.0219C33.6131 13.8054 33.6923 13.5913 33.7747 13.3817C33.8364 13.2855 33.8926 13.1841 33.9455 13.0733C33.9647 13.0349 33.9835 12.996 34.0034 12.9488C34.0228 12.9009 34.041 12.8524 34.0544 12.8127C34.1004 12.6825 34.1317 12.569 34.1535 12.4548C34.356 11.3743 33.8617 10.2579 32.7617 9.31095C31.7586 8.44722 30.3428 7.80946 28.7746 7.51514C28.6093 7.4842 28.4423 7.45724 28.2752 7.43445C28.5654 5.78434 28.4981 5.49922 28.46 5.33743C28.3053 4.68232 27.5106 4.17018 26.8415 4.02072C26.1699 3.87043 25.5785 4.04664 25.2167 4.50276C24.974 4.80836 24.8799 5.27576 24.9311 5.99087C22.544 4.98834 19.9055 4.65326 17.2696 5.07614C16.7324 4.96242 16.1906 4.90285 15.6511 4.89804C15.7733 3.70299 15.7014 3.29245 15.6082 3.0575C15.4236 2.59261 14.942 2.30477 14.3197 2.28783C13.6017 2.26902 12.6953 2.61623 12.3705 3.32004C12.2359 3.61102 12.1334 4.12796 12.4554 5.54395C12.2616 5.62694 12.0728 5.71703 11.8897 5.8134C11.7413 5.89179 11.6316 6.01574 11.5697 6.15935C9.8926 6.92713 8.68251 8.0973 8.33739 9.35798C8.25817 9.64729 8.22556 9.93826 8.24019 10.2228C8.24521 10.3237 8.25649 10.4249 8.27384 10.5244C6.44689 12.9619 5.48324 15.8554 5.48324 18.9127C5.48324 21.0722 5.96361 23.1444 6.91116 25.0752C6.9099 25.1273 6.9099 25.1802 6.91052 25.2349C6.9099 25.2602 6.9099 25.2857 6.91116 25.3096C6.91575 25.4189 6.92599 25.5278 6.94313 25.6359C6.95944 25.7402 6.98202 25.8413 7.01107 25.9423C7.01567 25.959 7.0211 25.9753 7.02842 25.9962H3.88894C3.53338 25.9962 3.24512 26.2845 3.24512 26.6401V33.535C3.24512 33.8906 3.53338 34.1789 3.88894 34.1789H12.1069L11.3099 37.1509C11.2618 37.3298 11.2931 37.5209 11.396 37.6747C11.4988 37.829 11.6629 37.9312 11.8464 37.9559L27.1187 39.9948C27.1473 39.9986 27.1755 40.0004 27.2039 40.0004C27.3923 40.0004 27.5731 39.9177 27.6962 39.7716C27.8379 39.6033 27.8839 39.3744 27.8185 39.1645L26.6278 35.3561L33.2981 34.169C33.6054 34.1143 33.8291 33.8471 33.8291 33.535V30.1832C33.8485 30.1815 33.8677 30.18 33.8872 30.1784C33.9434 30.1731 33.9984 30.1673 34.055 30.1606C34.1823 30.1458 34.3075 30.1265 34.453 30.1002C34.5053 30.0908 34.5571 30.0812 34.6102 30.0699C34.734 30.0429 34.8542 30.0101 34.9733 29.9752L35.0136 29.9639C35.0523 29.9532 35.091 29.9424 35.1315 29.929C35.3136 29.8677 35.4735 29.8044 35.6198 29.735C35.7931 29.6531 35.9524 29.5686 36.1274 29.4706L36.2083 29.4248C36.3575 29.3381 36.4988 29.2498 36.6289 29.16L36.6805 29.1225C36.8007 29.0375 36.9121 28.9509 37.0358 28.8475L37.0856 28.8054C37.1406 28.7578 37.1918 28.7095 37.247 28.6562L37.295 28.6089C37.332 28.5722 37.3686 28.5352 37.3998 28.5013L37.4734 28.4183C37.5237 28.3602 37.5724 28.3019 37.6174 28.2429C37.6186 28.2417 37.6441 28.2066 37.6454 28.2053L37.6928 28.1403C37.6989 28.1323 37.7185 28.1052 37.724 28.0968C37.8001 27.9854 37.868 27.8694 37.9324 27.7392L37.9629 27.6752C38.0471 27.4937 38.1113 27.3052 38.1512 27.1219C38.1529 27.1158 38.1579 27.093 38.1592 27.087C38.1728 27.0238 38.1828 26.9605 38.1899 26.9062L38.1993 26.8301C38.2062 26.7651 38.2106 26.6996 38.2125 26.6388L38.2142 26.574C38.2152 26.5098 38.214 26.4461 38.2102 26.3813ZM36.9246 26.4567C36.9269 26.4902 36.9276 26.5234 36.9269 26.5567C36.9269 26.5594 36.9263 26.5893 36.9263 26.592C36.9255 26.6244 36.9232 26.6564 36.9194 26.6932C36.9192 26.6965 36.9186 26.7007 36.9182 26.7053C36.9169 26.7141 36.915 26.7264 36.9144 26.7316C36.9106 26.7607 36.9062 26.7897 36.8952 26.8393C36.8738 26.9371 36.8404 27.0353 36.7973 27.1273C36.7971 27.1284 36.7787 27.167 36.7785 27.1681C36.7417 27.2419 36.7035 27.3079 36.6644 27.3652C36.6608 27.3696 36.647 27.3884 36.6439 27.393L36.609 27.4404C36.6065 27.4438 36.5977 27.4559 36.5923 27.4632C36.564 27.4998 36.5325 27.5372 36.4844 27.5926C36.4838 27.5937 36.4558 27.6248 36.4551 27.6259C36.4332 27.6497 36.4096 27.6731 36.3724 27.7101L36.8276 28.1654L36.3456 27.7356C36.312 27.7682 36.2777 27.8006 36.2409 27.8328C36.2403 27.8332 36.2154 27.8541 36.2148 27.8548C36.2137 27.8556 36.1905 27.8748 36.1897 27.8754C36.1111 27.9415 36.027 28.0067 35.9382 28.0696L35.8981 28.0989C35.794 28.1708 35.6805 28.241 35.5611 28.3109L35.4769 28.3583C35.3485 28.4302 35.2149 28.5013 35.0697 28.5701C34.9697 28.6173 34.8565 28.662 34.7264 28.7057L34.6102 28.739C34.521 28.7653 34.4304 28.7902 34.3387 28.8102C34.3017 28.8182 34.2636 28.8249 34.2009 28.8362C34.1044 28.8537 34.0063 28.8688 33.9072 28.8805L33.7714 28.8949C33.6558 28.9054 33.5381 28.9116 33.4191 28.9148L33.1928 28.92C33.0098 28.9223 32.8554 28.9854 32.7331 29.1062C32.611 29.2271 32.5422 29.3918 32.5422 29.5638V32.9947L25.683 34.2154C25.5009 34.248 25.3417 34.357 25.2457 34.5152C25.1496 34.6732 25.1261 34.8649 25.1813 35.0415L26.289 38.584L12.7442 36.7759L13.5689 33.701C13.6207 33.5077 13.58 33.3011 13.4579 33.1423C13.3358 32.9834 13.1473 32.8904 12.947 32.8904H4.5334V27.2833H8.16222C8.42226 27.2833 8.65136 27.1213 8.75107 26.8811C8.85099 26.6411 8.79141 26.3587 8.60809 26.1743C8.5899 26.1561 8.57193 26.1382 8.5552 26.1198C8.53451 26.097 8.5157 26.0734 8.47849 26.0272L8.45215 25.9937C8.43668 25.9726 8.42288 25.9505 8.40344 25.9199C8.40219 25.9181 8.38526 25.8915 8.38401 25.8896L8.36603 25.8614C8.35411 25.8401 8.34408 25.8177 8.3261 25.7803C8.32485 25.7774 8.30186 25.7318 8.30039 25.7287C8.28869 25.7011 8.2797 25.672 8.26862 25.639L8.24981 25.5861C8.23559 25.537 8.2243 25.4868 8.21615 25.4339C8.20633 25.3731 8.20131 25.3123 8.1988 25.2556C8.19901 25.2489 8.19901 25.2172 8.19901 25.2105C8.19838 25.1611 8.19796 25.1118 8.20173 25.0598L8.20611 25.0163C8.22033 24.8913 8.19755 24.765 8.14069 24.6528C7.23202 22.8588 6.77152 20.9272 6.77152 18.9117C6.77152 16.0397 7.70799 13.3273 9.47976 11.0675C9.61145 10.8992 9.65138 10.6764 9.58574 10.473C9.57529 10.4399 9.56504 10.4071 9.55689 10.3718C9.54059 10.3011 9.53056 10.2282 9.52679 10.1554C9.51927 10.0081 9.53725 9.8536 9.57989 9.69704C9.89616 8.54317 11.4911 7.37091 13.4589 6.84665C13.6255 6.80213 13.7677 6.6928 13.8527 6.54293C13.938 6.39305 13.9596 6.21495 13.9127 6.04919L13.8996 6.00257C13.8889 5.96432 13.8751 5.92774 13.8584 5.89325C13.8557 5.85416 13.8492 5.81465 13.839 5.77556C13.4341 4.23185 13.5407 3.86144 13.54 3.85893C13.5643 3.80688 13.6866 3.69819 13.9129 3.62837C14.1333 3.56022 14.3245 3.56649 14.4188 3.58949C14.437 3.75295 14.4514 4.23394 14.2846 5.48522C14.2589 5.67941 14.3226 5.87485 14.4581 6.01616C14.5936 6.15768 14.7867 6.22854 14.9813 6.21182C15.6849 6.14764 16.4017 6.19698 17.1095 6.35835C17.1923 6.37737 17.2773 6.3803 17.3603 6.36546C18.0763 6.24422 18.7962 6.18276 19.5006 6.18276C21.5653 6.18276 23.6182 6.69092 25.4374 7.65206C25.6563 7.76786 25.9228 7.7478 26.1222 7.5998C26.3212 7.4518 26.4178 7.20285 26.3703 6.95932C26.1351 5.75654 26.215 5.3692 26.2395 5.28872C26.2923 5.24817 26.404 5.25361 26.4514 5.25862C26.774 5.29019 27.1199 5.51929 27.2056 5.64345C27.2104 5.76051 27.197 6.24589 26.8831 7.88241C26.8482 8.06406 26.8929 8.25178 27.006 8.3981C27.1191 8.54421 27.2896 8.63473 27.474 8.64664C27.8287 8.66922 28.1864 8.71416 28.5374 8.78C29.8858 9.03294 31.0878 9.56765 31.9218 10.2859C32.3487 10.6536 33.0422 11.3933 32.8882 12.2159C32.8771 12.2732 32.8596 12.3284 32.8372 12.3923C32.829 12.4161 32.8203 12.4396 32.814 12.455L32.778 12.5294C32.7469 12.5951 32.7101 12.659 32.6687 12.7197C32.642 12.7588 32.6196 12.801 32.602 12.8449C32.5052 13.0897 32.4118 13.3403 32.3221 13.5955L32.301 13.6553C32.1131 14.1959 31.9553 14.7297 31.8326 15.2417L31.8064 15.3587C31.7828 15.4607 31.7845 15.5669 31.8108 15.6683C32.0888 16.7247 32.2295 17.8161 32.2295 18.9121C32.2295 19.4422 32.1923 19.9976 32.1192 20.563C32.1024 20.6924 32.1254 20.8239 32.1848 20.9399C32.6277 21.803 33.2851 22.534 34.1388 23.1124C34.2316 23.1755 34.3222 23.2387 34.4116 23.3024L34.4959 23.3635C34.5557 23.4067 34.6148 23.4498 34.6725 23.4933L34.7731 23.5702C34.823 23.608 34.8721 23.6459 34.9196 23.6835L35.4764 24.1549C35.516 24.191 35.5544 24.2274 35.5918 24.2629L35.6792 24.3459C35.7179 24.3837 35.7549 24.4214 35.7933 24.4605L35.8701 24.5382C35.9273 24.598 35.9823 24.6578 36.0358 24.7178L36.1194 24.816C36.1257 24.824 36.1324 24.8315 36.1389 24.839L36.2557 24.9828C36.2561 24.9833 36.2796 25.0136 36.28 25.0142L36.3354 25.0861C36.3602 25.1193 36.3839 25.153 36.4066 25.1858L36.462 25.2661C36.4846 25.2995 36.5064 25.3332 36.5287 25.3691L36.563 25.4247C36.5657 25.4291 36.5684 25.4337 36.5709 25.4381C36.5916 25.473 36.6121 25.5075 36.6307 25.5412L36.6659 25.6085C36.6847 25.6442 36.7033 25.68 36.7263 25.7299C36.7275 25.7328 36.7394 25.7596 36.7407 25.7623C36.7739 25.8365 36.8036 25.9103 36.8207 25.9605C36.823 25.967 36.8293 25.986 36.8314 25.9925C36.8584 26.0746 36.8801 26.1559 36.8993 26.2554L36.9104 26.3186C36.9159 26.3539 36.919 26.389 36.9217 26.4241L37.5634 26.3712L36.9246 26.4567Z" fill="white"/>
<path d="M28.9559 28.3681C34.1783 23.1457 34.1783 14.6785 28.9559 9.45611C23.7335 4.2337 15.2663 4.2337 10.0439 9.45611C4.82149 14.6785 4.82149 23.1457 10.0439 28.3681C15.2663 33.5905 23.7335 33.5905 28.9559 28.3681Z" fill="#65A348"/>
<path opacity="0.2" d="M26.5054 20.6929C15.7899 18.2171 36.2644 18.2733 30.0448 15.3456C23.8252 12.4179 19.4965 14.5598 15.7331 12.2343C12.4395 10.1992 22.6623 11.0077 29.971 10.5974C29.3734 9.84593 28.6986 9.15904 27.9553 8.55159C26.023 8.53675 23.9053 8.62099 21.8565 8.84612C17.5276 9.32209 14.3234 8.66426 11.7487 8.01855C9.09856 9.90801 7.16793 12.7383 6.44446 16.0235C7.45723 16.1719 8.5003 16.3682 9.55446 16.6268C15.4749 18.0787 11.242 19.2453 6.1748 19.9849C6.23877 20.7893 6.3713 21.5742 6.57134 22.3323C8.01723 22.5073 9.4721 22.6085 10.5164 22.5813C14.3662 22.4816 9.53711 18.9489 18.421 20.1306C27.3048 21.3123 23.0415 23.0564 17.0937 23.5723C11.7286 24.0376 21.8429 26.3109 30.7244 26.179C31.5097 24.9687 32.1063 23.6248 32.4683 22.1869C30.7614 21.7107 28.7442 21.21 26.5054 20.6929Z" fill="#65A348"/>
<path d="M16.5362 30.9442L11.9326 37.317L27.2048 39.3561L24.307 30.0869L16.5362 30.9442Z" fill="#3F5B35"/>
<path d="M27.8769 31.3075L33.1863 33.5343L11.9326 37.317L13.8716 30.0869L27.8769 31.3075Z" fill="#324929"/>
<path d="M33.1861 26.6396H3.88965V33.5344H33.1861V26.6396Z" fill="#3F5B35"/>
<path d="M26.2504 9.12786C26.2504 9.12786 25.1649 5.60188 25.7211 4.90182C26.2773 4.20156 27.6992 4.91583 27.8334 5.48419C27.9676 6.05255 27.2163 9.4598 27.2163 9.4598L26.2504 9.12786Z" fill="#F2F0F1"/>
<path d="M24.7615 9.2373L22.5737 10.6913C22.5737 10.6913 20.7775 17.4277 21.7432 21.8947C22.709 26.3616 31.47 30.9896 35.3451 29.1517C38.982 27.427 37.783 24.8045 34.4999 22.5789C31.2169 20.3533 31.9407 16.2613 33.2002 13.0819L24.7615 9.2373Z" fill="#D84141"/>
<path d="M21.5519 16.7334C21.4068 18.4734 21.4043 20.324 21.7438 21.8944C21.9898 23.0324 22.7434 24.1802 23.7915 25.2294C25.159 21.2117 22.6531 17.9249 21.5519 16.7334Z" fill="#F2F0F1"/>
<path d="M22.5743 10.6913C22.5743 10.6913 22.1769 12.182 21.8564 14.2253C23.2327 16.1802 27.1162 18.3533 32.2864 16.2257C32.4701 15.1452 32.8096 14.0695 33.2007 13.0819L24.7618 9.2373L22.5743 10.6913Z" fill="#D6C143"/>
<path d="M32.8219 25.7203C34.1207 24.5152 35.2768 24.0113 36.0396 23.7993C35.9236 23.6894 35.803 23.5796 35.6759 23.4707C33.4885 24.0058 31.1309 25.4475 30.0449 28.9942C30.2527 29.0617 30.4596 29.1226 30.6658 29.179C30.9764 28.1867 31.5934 26.8602 32.8219 25.7203Z" fill="#F2F0F1"/>
<path d="M36.3109 24.0674C35.6031 24.2365 34.3995 24.6962 33.0412 25.9564C31.8804 27.0336 31.288 28.3074 30.9854 29.2619C32.6461 29.6707 34.2074 29.6919 35.3462 29.1517C38.1958 27.8005 38.0752 25.8983 36.3109 24.0674Z" fill="#F2F0F1"/>
<path d="M23.5071 13.4235C23.5071 13.6735 23.3043 13.8762 23.0543 13.8762C22.8043 13.8762 22.6016 13.6735 22.6016 13.4235C22.6016 13.1735 22.8043 12.9707 23.0543 12.9707C23.3043 12.9707 23.5071 13.1735 23.5071 13.4235Z" fill="#618248"/>
<path d="M24.6442 14.9632C24.8942 14.9632 25.0969 14.7604 25.0969 14.5104C25.0969 14.2603 24.8942 14.0576 24.6442 14.0576C24.3941 14.0576 24.1914 14.2603 24.1914 14.5104C24.1914 14.7604 24.3941 14.9632 24.6442 14.9632Z" fill="#618248"/>
<path d="M26.9576 15.7981C27.2077 15.7981 27.4104 15.5954 27.4104 15.3453C27.4104 15.0953 27.2077 14.8926 26.9576 14.8926C26.7076 14.8926 26.5049 15.0953 26.5049 15.3453C26.5049 15.5954 26.7076 15.7981 26.9576 15.7981Z" fill="#618248"/>
<path d="M29.969 15.6071C29.969 15.8571 29.7662 16.0598 29.5162 16.0598C29.2662 16.0598 29.0635 15.8571 29.0635 15.6071C29.0635 15.3571 29.2662 15.1543 29.5162 15.1543C29.7662 15.1543 29.969 15.3569 29.969 15.6071Z" fill="#618248"/>
<path d="M31.9671 15.1549C31.9671 15.4049 31.7643 15.6077 31.5143 15.6077C31.2643 15.6077 31.0615 15.4049 31.0615 15.1549C31.0615 14.9049 31.2643 14.7021 31.5143 14.7021C31.7643 14.7021 31.9671 14.9049 31.9671 15.1549Z" fill="#618248"/>
<path opacity="0.3" d="M34.5005 22.5792C31.2174 20.3536 31.9413 16.2615 33.2007 13.0821L25.7256 9.67676C24.9223 11.7715 24.2469 14.7588 24.6949 18.4208C25.475 24.7993 32.0613 27.9574 36.4361 28.5038C38.6673 26.8117 37.395 24.5414 34.5005 22.5792Z" fill="#962020"/>
<path d="M33.5242 12.3321C33.852 10.5845 31.674 8.7093 28.6594 8.14373C25.6448 7.57817 22.9352 8.53638 22.6073 10.284C22.2795 12.0315 24.4575 13.9067 27.4721 14.4723C30.4867 15.0379 33.1963 14.0796 33.5242 12.3321Z" fill="#962020"/>
<path d="M28.656 10.4255C30.7875 10.8253 32.4957 11.8808 33.2006 13.0819C33.3569 12.8526 33.47 12.6044 33.5206 12.335C33.8484 10.5875 31.6704 8.71244 28.656 8.14679C25.6415 7.58135 22.932 8.53956 22.6042 10.2871C22.5083 10.799 22.6322 11.321 22.9243 11.8187C23.7811 10.5615 26.1066 9.9472 28.656 10.4255Z" fill="#C42727"/>
<g opacity="0.35">
<path d="M22.8301 17.2733C22.8556 16.1104 23.0912 14.9631 23.1152 13.8048C23.1159 13.7728 23.0659 13.7507 23.0502 13.7845C22.0546 15.9403 22.2385 18.825 22.638 21.1022C22.6955 21.4297 23.2003 21.3198 23.1422 20.9937C22.9227 19.7631 22.8025 18.5237 22.8301 17.2733Z" fill="white"/>
<path d="M28.7485 27.5693C27.691 27.0676 26.7109 26.4957 25.8461 25.6955C25.0242 24.9352 24.4328 24.055 23.7715 23.1637C23.71 23.0809 23.5587 23.1595 23.5902 23.2573C24.2934 25.4394 26.4218 27.2823 28.5036 28.1019C28.8106 28.2227 29.0529 27.7137 28.7485 27.5693Z" fill="white"/>
<path d="M31.1037 9.20408C30.05 8.6562 28.9039 8.44424 27.7235 8.5381C27.6106 8.54709 27.5953 8.71306 27.7153 8.71891C28.7285 8.76887 29.7275 9.00215 30.6372 9.45785C31.0097 9.6443 31.3644 9.86713 31.689 10.1282C32.0383 10.4096 32.1941 10.7357 32.4476 11.0822C32.5176 11.178 32.6895 11.132 32.7158 11.0223C32.9202 10.1727 31.7141 9.52139 31.1037 9.20408Z" fill="white"/>
</g>
<path d="M13.5303 7.02284C13.5303 7.02284 12.6325 4.28638 12.9545 3.58883C13.2764 2.89129 14.7639 2.67578 15.0093 3.29368C15.2545 3.91158 14.6984 7.02284 14.6984 7.02284H13.5303Z" fill="#F2F0F1"/>
<path d="M10.4387 9.03483L9.15192 11.0677C9.15192 11.0677 12.3727 15.6353 11.8574 17.9854C11.3422 20.3356 7.17487 22.9592 7.57936 25.5345C7.98384 28.1098 13.3102 28.4842 16.1401 26.486C18.97 24.4879 22.6904 19.7403 22.0777 15.2527C21.465 10.7652 19.7556 8.03711 19.7556 8.03711L10.4387 9.03483Z" fill="#D84141"/>
<path d="M22.0782 15.2532C21.9914 14.6171 21.8809 14.0207 21.7579 13.458C20.8436 14.3663 19.0689 16.8575 20.543 21.5591C21.6672 19.6189 22.3721 17.4064 22.0782 15.2532Z" fill="#F2F0F1"/>
<path d="M21.2247 11.4573C20.5311 9.27856 19.7562 8.03711 19.7562 8.03711L10.4392 9.03483L9.15234 11.0677C9.15234 11.0677 10.3741 12.8016 11.1925 14.6825C13.915 15.4808 18.2658 15.8238 21.2247 11.4573Z" fill="#D6C143"/>
<path d="M15.8431 26.6818C15.9449 26.6193 16.0448 26.5545 16.1412 26.4866C16.3007 26.3739 16.4635 26.2512 16.6278 26.1216C14.0323 23.0986 11.119 22.3826 8.71759 22.5039C8.56583 22.707 8.42578 22.9106 8.29492 23.1145C10.0884 23.2046 14.0139 23.748 15.8431 26.6818Z" fill="#F2F0F1"/>
<path d="M8.10489 23.4277C7.70313 24.1295 7.46984 24.8339 7.58001 25.535C7.95836 27.9443 12.6441 28.427 15.5638 26.8431C13.7455 23.9397 9.74037 23.4875 8.10489 23.4277Z" fill="#F2F0F1"/>
<path d="M11.7604 13.9544C12.0104 13.9544 12.2132 13.7517 12.2132 13.5016C12.2132 13.2515 12.0104 13.0488 11.7604 13.0488C11.5103 13.0488 11.3076 13.2515 11.3076 13.5016C11.3076 13.7517 11.5103 13.9544 11.7604 13.9544Z" fill="#618248"/>
<path d="M13.9837 13.693C13.9837 13.943 13.7809 14.1458 13.5309 14.1458C13.2809 14.1458 13.0781 13.943 13.0781 13.693C13.0781 13.443 13.2809 13.2402 13.5309 13.2402C13.7809 13.2402 13.9837 13.443 13.9837 13.693Z" fill="#618248"/>
<path d="M15.4625 13.9544C15.7126 13.9544 15.9153 13.7517 15.9153 13.5016C15.9153 13.2515 15.7126 13.0488 15.4625 13.0488C15.2125 13.0488 15.0098 13.2515 15.0098 13.5016C15.0098 13.7517 15.2125 13.9544 15.4625 13.9544Z" fill="#618248"/>
<path d="M17.4245 13.1399C17.6745 13.1399 17.8772 12.9372 17.8772 12.6871C17.8772 12.4371 17.6745 12.2344 17.4245 12.2344C17.1744 12.2344 16.9717 12.4371 16.9717 12.6871C16.9717 12.9372 17.1744 13.1399 17.4245 13.1399Z" fill="#618248"/>
<path d="M18.8727 12.134C19.1227 12.134 19.3255 11.9313 19.3255 11.6813C19.3255 11.4312 19.1227 11.2285 18.8727 11.2285C18.6226 11.2285 18.4199 11.4312 18.4199 11.6813C18.4199 11.9313 18.6226 12.134 18.8727 12.134Z" fill="#618248"/>
<path d="M20.4924 10.4635C20.4924 10.7135 20.2897 10.9163 20.0397 10.9163C19.7897 10.9163 19.5869 10.7135 19.5869 10.4635C19.5869 10.2135 19.7897 10.0107 20.0397 10.0107C20.2899 10.011 20.4924 10.2135 20.4924 10.4635Z" fill="#618248"/>
<path opacity="0.3" d="M22.078 15.2527C21.4653 10.7652 19.7558 8.03711 19.7558 8.03711L14.3912 8.61153C16.205 11.6854 18.3398 16.138 17.7631 19.3101C17.172 22.561 12.9854 25.629 9.82422 27.522C11.7268 28.0437 14.4033 27.7128 16.1404 26.4862C18.9703 24.4879 22.6907 19.7405 22.078 15.2527Z" fill="#962020"/>
<path d="M15.0609 12.4163C18.0506 11.7321 20.1527 9.77236 19.7561 8.03918C19.3594 6.306 16.6142 5.45568 13.6244 6.13994C10.6346 6.8242 8.5325 8.78393 8.92917 10.5171C9.32584 12.2503 12.0711 13.1006 15.0609 12.4163Z" fill="#962020"/>
<path d="M14.5379 8.19034C16.6534 7.70601 18.6421 7.99301 19.7673 8.81452C19.8125 8.55364 19.8144 8.29277 19.7558 8.03712C19.3591 6.30402 16.6139 5.45367 13.624 6.13805C10.6342 6.82243 8.5322 8.78233 8.92894 10.5154C9.04496 11.0221 9.36624 11.4509 9.83134 11.7903C10.0922 10.2838 11.9896 8.77376 14.5379 8.19034Z" fill="#C42727"/>
<g opacity="0.35">
<path d="M11.345 13.2056C11.2656 13.1389 11.159 13.2304 11.2244 13.3159C12.0587 14.406 12.5999 15.7393 12.5405 17.1297C12.5112 17.8152 12.3382 18.4956 12.0382 19.1133C11.8292 19.5439 11.4803 19.876 11.4136 20.3533C11.3937 20.4952 11.5549 20.5529 11.6621 20.5132C12.2102 20.311 12.4738 19.6409 12.6879 19.1256C12.9793 18.4241 13.1294 17.6548 13.1099 16.8948C13.0731 15.4504 12.4515 14.1345 11.345 13.2056Z" fill="white"/>
<path d="M10.4628 21.4165C9.88583 21.8598 9.46986 22.54 9.12829 23.1717C8.86449 23.6594 8.3904 24.3574 8.54342 24.919C8.57477 25.0338 8.69768 25.0664 8.78861 24.9972C9.23908 24.6546 9.3737 23.8494 9.63018 23.3525C9.94353 22.7457 10.3622 22.1903 10.6522 21.5743C10.7117 21.4485 10.579 21.3272 10.4628 21.4165Z" fill="white"/>
<path d="M18.3736 7.08393C16.3418 6.30591 14.1599 6.38952 12.2272 7.40668C12.1526 7.44598 12.2101 7.55008 12.2855 7.52102C14.2036 6.77833 16.3201 6.78104 18.2154 7.59335C18.5271 7.72692 18.6966 7.20768 18.3736 7.08393Z" fill="white"/>
</g>
<g opacity="0.3">
<path d="M8.86726 15.2491C8.86726 15.4071 8.73912 15.5352 8.58109 15.5352C8.42306 15.5352 8.29492 15.4071 8.29492 15.2491C8.29492 15.091 8.42306 14.9629 8.58109 14.9629C8.73933 14.9631 8.86726 15.091 8.86726 15.2491Z" fill="white"/>
<path d="M7.43172 18.2638C7.53262 18.2638 7.61441 18.182 7.61441 18.0811C7.61441 17.9802 7.53262 17.8984 7.43172 17.8984C7.33082 17.8984 7.24902 17.9802 7.24902 18.0811C7.24902 18.182 7.33082 18.2638 7.43172 18.2638Z" fill="white"/>
<path d="M10.2606 17.3881C10.2606 17.4686 10.1951 17.534 10.1147 17.534C10.0342 17.534 9.96875 17.4688 9.96875 17.3881C9.96875 17.3076 10.034 17.2422 10.1147 17.2422C10.1951 17.2422 10.2606 17.3076 10.2606 17.3881Z" fill="white"/>
<path d="M8.58088 20.6684C8.58088 20.7474 8.51691 20.8113 8.4379 20.8113C8.35888 20.8113 8.29492 20.7474 8.29492 20.6684C8.29492 20.5894 8.35888 20.5254 8.4379 20.5254C8.5167 20.5254 8.58088 20.5894 8.58088 20.6684Z" fill="white"/>
<path d="M20.1715 25.5858C20.1715 25.7469 20.0409 25.8776 19.8797 25.8776C19.7185 25.8776 19.5879 25.7469 19.5879 25.5858C19.5879 25.4246 19.7185 25.2939 19.8797 25.2939C20.0409 25.2939 20.1715 25.4246 20.1715 25.5858Z" fill="white"/>
<path d="M22.1453 23.8403C22.1453 23.9159 22.0839 23.9774 22.0082 23.9774C21.9326 23.9774 21.8711 23.9159 21.8711 23.8403C21.8711 23.7646 21.9326 23.7031 22.0082 23.7031C22.0839 23.7031 22.1453 23.7646 22.1453 23.8403Z" fill="white"/>
<path d="M20.6116 23.2784C20.6116 23.3609 20.5447 23.4278 20.462 23.4278C20.3794 23.4278 20.3125 23.3609 20.3125 23.2784C20.3125 23.1958 20.3794 23.1289 20.462 23.1289C20.5447 23.1287 20.6116 23.1958 20.6116 23.2784Z" fill="white"/>
<path d="M22.4281 25.7946C22.4281 25.9104 22.3343 26.0043 22.2184 26.0043C22.1026 26.0043 22.0088 25.9104 22.0088 25.7946C22.0088 25.6788 22.1026 25.585 22.2184 25.585C22.3343 25.585 22.4281 25.6788 22.4281 25.7946Z" fill="white"/>
<path d="M18.5382 26.1587C18.5382 26.2438 18.4692 26.3126 18.3843 26.3126C18.2992 26.3126 18.2305 26.2436 18.2305 26.1587C18.2305 26.0739 18.2994 26.0049 18.3843 26.0049C18.4694 26.0049 18.5382 26.0737 18.5382 26.1587Z" fill="white"/>
<path d="M10.2608 19.1289C10.2608 19.2491 10.1634 19.3468 10.043 19.3468C9.92281 19.3468 9.8252 19.2493 9.8252 19.1289C9.8252 19.0088 9.9226 18.9111 10.043 18.9111C10.1632 18.9111 10.2608 19.0088 10.2608 19.1289Z" fill="white"/>
<path d="M9.63065 13.2987C9.63065 13.3865 9.55937 13.4578 9.47157 13.4578C9.38378 13.4578 9.3125 13.3865 9.3125 13.2987C9.3125 13.2109 9.38378 13.1396 9.47157 13.1396C9.55937 13.1396 9.63065 13.2109 9.63065 13.2987Z" fill="white"/>
<path d="M19.3915 6.1196C19.3915 6.24 19.2939 6.33783 19.1733 6.33783C19.0529 6.33783 18.9551 6.24021 18.9551 6.1196C18.9551 5.9992 19.0527 5.90137 19.1733 5.90137C19.2937 5.90158 19.3915 5.9992 19.3915 6.1196Z" fill="white"/>
<path d="M21.4093 6.66826C21.5108 6.66826 21.5931 6.586 21.5931 6.48452C21.5931 6.38305 21.5108 6.30078 21.4093 6.30078C21.3078 6.30078 21.2256 6.38305 21.2256 6.48452C21.2256 6.586 21.3078 6.66826 21.4093 6.66826Z" fill="white"/>
<path d="M20.8654 8.28558C21.0052 8.28558 21.1186 8.17224 21.1186 8.03244C21.1186 7.89263 21.0052 7.7793 20.8654 7.7793C20.7256 7.7793 20.6123 7.89263 20.6123 8.03244C20.6123 8.17224 20.7256 8.28558 20.8654 8.28558Z" fill="white"/>
<path d="M22.2312 10.1444C22.2312 10.3206 22.0882 10.4636 21.912 10.4636C21.7357 10.4636 21.5928 10.3206 21.5928 10.1444C21.5928 9.96817 21.7357 9.8252 21.912 9.8252C22.0884 9.8252 22.2312 9.96817 22.2312 10.1444Z" fill="white"/>
<path d="M22.9341 8.01867C23.0455 8.01867 23.1359 7.92836 23.1359 7.81695C23.1359 7.70555 23.0455 7.61523 22.9341 7.61523C22.8227 7.61523 22.7324 7.70555 22.7324 7.81695C22.7324 7.92836 22.8227 8.01867 22.9341 8.01867Z" fill="white"/>
<path d="M24.8013 7.21366C24.8013 7.28264 24.7455 7.33845 24.6766 7.33845C24.6076 7.33845 24.5518 7.28264 24.5518 7.21366C24.5518 7.14468 24.6076 7.08887 24.6766 7.08887C24.7455 7.08887 24.8013 7.14468 24.8013 7.21366Z" fill="white"/>
</g>
</svg>
