<svg width="35" height="40" viewBox="0 0 35 40" fill="none" xmlns="http://www.w3.org/2000/svg">
<path d="M19.6 31.6814C26.7097 31.6814 32.4734 25.9178 32.4734 18.808C32.4734 11.6982 26.7097 5.93457 19.6 5.93457C12.4902 5.93457 6.72656 11.6982 6.72656 18.808C6.72656 25.9178 12.4902 31.6814 19.6 31.6814Z" fill="#D6C143"/>
<g opacity="0.2">
<path d="M25.8227 19.2127C22.5005 18.3271 22.4283 18.0762 29.5935 16.4378C30.4914 16.2326 31.341 16.0295 32.1225 15.8299C31.8271 14.5835 31.3512 13.408 30.723 12.331C22.7818 11.6128 19.9284 11.8277 23.3328 9.66357C25.9509 7.99923 17.5993 9.06734 10.8671 9.35188C10.0581 10.0992 9.34701 10.9496 8.75098 11.8813C10.4026 11.9843 12.235 12.0906 14.1404 12.1602C23.1746 12.4904 15.5675 16.0539 15.7255 18.9C15.8836 21.7462 13.6174 27.6093 25.1728 28.2405C26.3463 28.3047 27.3669 28.3361 28.2523 28.3395C29.2108 27.4688 30.035 26.454 30.6962 25.3318C30.0155 24.9978 29.2275 24.6605 28.3813 24.3343C25.3314 23.1592 28.1284 23.4125 31.6207 23.4143C32.0308 22.3448 32.303 21.2077 32.4141 20.0229C29.8151 19.7653 27.1295 19.561 25.8227 19.2127Z" fill="#9E8A26"/>
<path d="M9.39499 22.0796C8.33191 21.3539 7.47087 20.808 6.82715 20.3955C7.25173 23.8447 9.03902 26.8701 11.6358 28.9184C13.4139 27.4261 12.5234 24.2154 9.39499 22.0796Z" fill="#9E8A26"/>
<path d="M26.2512 7.78444C24.31 6.61069 22.034 5.93457 19.5999 5.93457C19.083 5.93457 18.5743 5.96858 18.0732 6.02774C19.6704 6.91776 21.5536 7.65847 23.5794 7.84078C24.5646 7.92952 25.4637 7.90296 26.2512 7.78444Z" fill="#9E8A26"/>
<path d="M7.49625 14.415C6.99862 15.7858 6.72656 17.2648 6.72656 18.8076C6.72656 18.8943 6.73139 18.98 6.7332 19.0664C7.79185 19.0233 9.51937 19.0008 11.991 18.8076C18.5218 18.2973 12.9702 16.3466 7.49625 14.415Z" fill="#9E8A26"/>
</g>
<path d="M32.4298 8.03708C32.1928 7.93908 31.9205 8.05076 31.8221 8.2876C31.341 9.44405 30.6476 10.2017 29.9195 10.3659C29.868 10.3773 29.8163 10.3846 29.7648 10.3902C30.0634 9.66338 30.3256 8.87438 30.5339 8.01374C30.5943 7.76442 30.4407 7.51288 30.1914 7.45272C29.9409 7.39275 29.6906 7.54588 29.6302 7.7954C29.4215 8.65846 29.1539 9.44747 28.8462 10.1685C28.7398 10.1037 28.6353 10.0266 28.5335 9.93503C27.6612 9.15025 28.6237 7.2521 28.6337 7.23298C28.7534 7.0064 28.6669 6.72509 28.4401 6.60536C28.2134 6.48422 27.9318 6.57176 27.8117 6.79854C27.7572 6.90197 26.4872 9.34484 27.9115 10.6264C28.0832 10.781 28.2643 10.9084 28.4508 11.0126C26.2574 15.3396 22.6678 16.857 22.6239 16.8749C22.3863 16.9715 22.272 17.2423 22.368 17.48C22.4412 17.6609 22.6153 17.7706 22.7992 17.7706C22.8573 17.7706 22.9163 17.7597 22.9732 17.7368C23.169 17.6577 27.0328 16.038 29.3499 11.3116C29.4396 11.3223 29.5296 11.3295 29.6197 11.3295C29.7875 11.3295 29.9562 11.3108 30.124 11.273C31.1653 11.0382 32.0731 10.1047 32.6804 8.64498C32.779 8.40774 32.6667 8.13568 32.4298 8.03708Z" fill="#664A29"/>
<path d="M10.414 1.80269C10.414 2.45526 9.88495 2.98429 9.23238 2.98429C8.5798 2.98429 8.05078 2.45526 8.05078 1.80269C8.05078 1.15011 8.5798 0.621094 9.23238 0.621094C9.88515 0.621094 10.414 1.15011 10.414 1.80269Z" fill="#F2F0F1"/>
<path opacity="0.3" d="M9.63925 2.13188C8.98668 2.13188 8.45766 1.60286 8.45766 0.950285C8.45766 0.937809 8.46088 0.926337 8.46128 0.914062C8.21176 1.13058 8.05078 1.4463 8.05078 1.80267C8.05078 2.45525 8.5798 2.98427 9.23238 2.98427C9.87248 2.98427 10.3906 2.47436 10.4104 1.8391C10.2031 2.01899 9.93546 2.13188 9.63925 2.13188Z" fill="#939B9E"/>
<path d="M17.2148 31.5076C22.422 31.5076 26.6434 27.2863 26.6434 22.079C26.6434 16.8717 22.422 12.6504 17.2148 12.6504C12.0075 12.6504 7.78613 16.8717 7.78613 22.079C7.78613 27.2863 12.0075 31.5076 17.2148 31.5076Z" fill="#F2F0F1"/>
<path opacity="0.3" d="M19.0745 27.0149C14.8942 27.0149 11.5054 23.6261 11.5054 19.4459C11.5054 16.5983 13.0786 14.1192 15.4027 12.8271C11.0627 13.6723 7.78613 17.4928 7.78613 22.0799C7.78613 27.2872 12.0074 31.5085 17.2148 31.5085C22.4221 31.5085 26.6434 27.2872 26.6434 22.0799C26.6434 21.6066 26.6076 21.142 26.5403 20.6874C25.9477 24.2769 22.8318 27.0149 19.0745 27.0149Z" fill="#939B9E"/>
<path d="M16.058 17.9198C19.7808 17.9198 22.7987 14.9019 22.7987 11.1791C22.7987 7.45637 19.7808 4.43848 16.058 4.43848C12.3353 4.43848 9.31738 7.45637 9.31738 11.1791C9.31738 14.9019 12.3353 17.9198 16.058 17.9198Z" fill="#F2F0F1"/>
<path opacity="0.3" d="M21.9602 7.92228C22.0626 8.33962 22.123 8.77366 22.123 9.2226C22.123 12.2287 19.6861 14.6655 16.68 14.6655C13.6741 14.6655 11.2371 12.2287 11.2371 9.2226C11.2371 7.57858 11.9689 6.10843 13.1211 5.11035C10.8698 6.2018 9.31738 8.50885 9.31738 11.1789C9.31738 14.9016 12.3352 17.9196 16.058 17.9196C19.7807 17.9196 22.7987 14.9018 22.7987 11.1789C22.7989 9.99771 22.4942 8.88776 21.9602 7.92228Z" fill="#939B9E"/>
<path d="M18.4079 8.54724L20.9785 7.74999L22.6781 8.11602L25.3948 7.28516L23.2753 9.03884L21.4192 9.36683L19.1601 10.5064C18.3733 10.9032 17.4599 10.2172 17.6467 9.35596C17.6499 9.34148 17.6531 9.32719 17.6567 9.3125C17.7471 8.94305 18.0449 8.65973 18.4079 8.54724Z" fill="#E53030"/>
<path d="M15.7259 8.89125C15.7259 9.51626 15.2192 10.0227 14.5944 10.0227C13.9696 10.0227 13.4629 9.51626 13.4629 8.89125C13.4629 8.26645 13.9696 7.75977 14.5944 7.75977C15.2192 7.75977 15.7259 8.26645 15.7259 8.89125Z" fill="#42322E"/>
<path d="M18.4684 7.84111C19.0933 7.84111 19.5999 7.33452 19.5999 6.70961C19.5999 6.08471 19.0933 5.57812 18.4684 5.57812C17.8435 5.57812 17.3369 6.08471 17.3369 6.70961C17.3369 7.33452 17.8435 7.84111 18.4684 7.84111Z" fill="#42322E"/>
<path d="M14.8251 8.75757C15.0283 8.75757 15.1931 8.59279 15.1931 8.38953C15.1931 8.18626 15.0283 8.02148 14.8251 8.02148C14.6218 8.02148 14.457 8.18626 14.457 8.38953C14.457 8.59279 14.6218 8.75757 14.8251 8.75757Z" fill="#F2F0F1"/>
<path d="M18.6346 6.60132C18.8379 6.60132 19.0027 6.43654 19.0027 6.23328C19.0027 6.03001 18.8379 5.86523 18.6346 5.86523C18.4314 5.86523 18.2666 6.03001 18.2666 6.23328C18.2666 6.43654 18.4314 6.60132 18.6346 6.60132Z" fill="#F2F0F1"/>
<path opacity="0.3" d="M22.9927 8.54442H21.1332L17.7715 10.1075C18.0405 10.5476 18.6283 10.7744 19.1595 10.5064L21.4187 9.36683L23.2748 9.03884L25.3943 7.28516L22.9927 8.54442Z" fill="#962020"/>
<path d="M15.5939 12.3536C15.5939 12.3536 16.8594 12.7539 18.6348 12.289C20.4103 11.8242 20.6557 10.7911 21.1077 10.8169C21.5597 10.8426 21.4951 13.335 19.6872 14.51C17.8794 15.6851 16.0587 15.0056 15.116 13.7224C14.3819 12.7229 15.2705 12.2796 15.5939 12.3536Z" fill="#42322E"/>
<path d="M17.414 13.1543C16.5141 13.1543 15.6672 13.2374 14.916 13.3815C14.9613 13.4869 15.0261 13.6004 15.1156 13.7224C16.0584 15.0056 17.8791 15.6851 19.6869 14.51C20.0956 14.2443 20.4111 13.9099 20.6558 13.5533C19.7438 13.3034 18.6262 13.1543 17.414 13.1543Z" fill="#E53030"/>
<path d="M18.2666 4.80831C18.2666 4.80831 13.8117 0.990259 10.7512 1.45529C7.69079 1.92032 8.15985 6.84089 9.47485 9.72647C9.47485 9.72647 11.5905 4.85138 18.2666 4.80831Z" fill="#E53030"/>
<path d="M16.3832 3.41504C11.9522 3.41504 9.69224 5.47076 8.7998 7.76191C8.97487 8.46439 9.20668 9.13769 9.47492 9.72607C9.47492 9.72607 11.5906 4.85098 18.2667 4.80792C18.2667 4.80792 17.4988 4.15072 16.3832 3.41504Z" fill="#518C33"/>
<path d="M10.654 3.0628C11.7679 2.40983 13.0932 2.20941 14.2026 2.18345C13.0471 1.6502 11.8148 1.29363 10.7507 1.45521C9.09244 1.70715 8.47166 3.26805 8.45898 5.10383C8.9707 4.3929 9.68425 3.63147 10.654 3.0628Z" fill="#518C33"/>
<path d="M14.141 2.8791C14.141 3.06624 13.9893 3.21817 13.802 3.21817C13.6148 3.21817 13.4629 3.06644 13.4629 2.8791C13.4629 2.69196 13.6146 2.54004 13.802 2.54004C13.9893 2.54004 14.141 2.69196 14.141 2.8791Z" fill="#F2F0F1"/>
<path d="M12.6684 3.21797C12.6684 3.40511 12.5166 3.55704 12.3293 3.55704C12.1422 3.55704 11.9902 3.40531 11.9902 3.21797C11.9902 3.03083 12.142 2.87891 12.3293 2.87891C12.5166 2.87891 12.6684 3.03063 12.6684 3.21797Z" fill="#F2F0F1"/>
<path d="M10.6543 4.43847C10.8414 4.43847 10.9932 4.28675 10.9932 4.0996C10.9932 3.91245 10.8414 3.76074 10.6543 3.76074C10.4671 3.76074 10.3154 3.91245 10.3154 4.0996C10.3154 4.28675 10.4671 4.43847 10.6543 4.43847Z" fill="#F2F0F1"/>
<path d="M9.73457 5.2998C9.73457 5.48694 9.58284 5.63886 9.39571 5.63886C9.20857 5.63886 9.05664 5.48714 9.05664 5.2998C9.05664 5.11266 9.20836 4.96094 9.39571 4.96094C9.58284 4.96094 9.73457 5.11266 9.73457 5.2998Z" fill="#F2F0F1"/>
<path d="M10.4187 6.98828H9.73438V7.67265H10.4187V6.98828Z" fill="#D6C143"/>
<path d="M11.8585 5.57521L11.1816 5.47461L11.081 6.15152L11.7579 6.25212L11.8585 5.57521Z" fill="#D6C143"/>
<path d="M13.9048 4.473L13.2402 4.30957L13.0768 4.97416L13.7414 5.13759L13.9048 4.473Z" fill="#D6C143"/>
<path d="M16.1719 3.98517L15.5371 3.72949L15.2814 4.36431L15.9162 4.61999L16.1719 3.98517Z" fill="#D6C143"/>
<path d="M9.91788 19.7426C9.88931 19.745 7.09409 19.8679 4.67153 16.8803C3.82116 15.8315 3.46016 14.6393 3.33982 13.5595C4.30973 13.2049 5.13898 12.1489 5.53801 10.7335C5.60764 10.4862 5.46376 10.2296 5.21665 10.16C4.97096 10.0898 4.71299 10.2341 4.64316 10.4812C4.32784 11.6 3.7801 12.2523 3.29032 12.5526C3.30401 11.2595 3.5986 10.3081 3.60464 10.2896C3.68332 10.0453 3.5491 9.7833 3.30461 9.70463C3.06093 9.62655 2.79812 9.75996 2.71965 10.0047C2.69107 10.0932 2.34416 11.2068 2.3502 12.6962C2.25522 12.6562 2.16044 12.5954 2.0717 12.5005C1.46963 11.8551 1.68193 10.3278 1.81454 9.79357C1.87631 9.54445 1.72479 9.29232 1.47587 9.22994C1.22696 9.16736 0.975022 9.31868 0.912441 9.568C0.850665 9.8143 0.339753 12.0075 1.39196 13.1347C1.67066 13.4331 2.0224 13.6134 2.40614 13.6682C2.54378 14.8888 2.96092 16.2469 3.94934 17.4657C6.40912 20.4996 9.23714 20.6734 9.85289 20.6734C9.91768 20.6734 9.95813 20.6716 9.97081 20.671C10.2272 20.6561 10.4232 20.4364 10.4085 20.18C10.3938 19.9239 10.1757 19.7351 9.91788 19.7426Z" fill="#664A29"/>
<path opacity="0.3" d="M11.6809 6.91732C8.83714 5.21032 9.31586 2.47788 9.38749 2.14062C7.89581 3.68865 8.40551 7.38014 9.47482 9.72623C9.47482 9.72623 10.1045 8.28142 11.7533 6.95796C11.7298 6.94428 11.7036 6.9308 11.6809 6.91732Z" fill="#939B9E"/>
<g opacity="0.35">
<path d="M15.9711 3.59222C14.5927 2.55893 12.77 1.79729 11.022 1.91299C10.9894 1.9152 10.9733 1.96571 11.0113 1.97457C12.7556 2.38165 14.281 2.88692 15.7136 4.00252C15.9577 4.19247 16.2209 3.77936 15.9711 3.59222Z" fill="white"/>
<path d="M20.3309 6.29785C20.2123 6.19583 19.9715 6.31395 20.0785 6.47291C20.1765 6.6182 20.2807 6.75463 20.363 6.91038C20.4453 7.06593 20.4902 7.23898 20.5731 7.39252C20.6766 7.58388 20.9555 7.47623 20.9237 7.26776C20.8717 6.92588 20.5888 6.52 20.3309 6.29785Z" fill="white"/>
<path d="M28.571 10.4228C28.2742 9.95611 27.9409 9.66011 27.9112 9.05241C27.884 8.49763 28.088 7.9676 28.1514 7.42329C28.1555 7.38888 28.1057 7.376 28.0888 7.40377C27.7345 7.9831 27.5129 8.73307 27.6339 9.41462C27.7158 9.87583 27.9824 10.4717 28.4885 10.5513C28.5519 10.5612 28.605 10.4759 28.571 10.4228Z" fill="white"/>
<path d="M30.0696 8.15752C29.9249 8.65032 29.6977 9.20127 29.7525 9.71903C29.7601 9.79107 29.864 9.79952 29.8984 9.74478C30.1734 9.30551 30.2068 8.70163 30.292 8.19635C30.3137 8.06757 30.1052 8.03557 30.0696 8.15752Z" fill="white"/>
<path d="M32.0176 9.05199C31.9413 9.16448 31.8647 9.27656 31.789 9.38945C31.7234 9.48745 31.653 9.58101 31.6514 9.70296C31.6504 9.77882 31.7248 9.82269 31.7922 9.79351C31.9047 9.74481 31.9645 9.63957 32.0301 9.54077C32.1051 9.42768 32.179 9.31379 32.2534 9.2003C32.3518 9.05018 32.118 8.90369 32.0176 9.05199Z" fill="white"/>
<path d="M28.2201 12.37C27.9452 12.9256 27.5995 13.4293 27.1931 13.8973C26.8707 14.2686 26.3302 14.5878 26.1105 15.0188C26.0829 15.0729 26.1223 15.1454 26.1885 15.1303C26.6805 15.0182 27.0981 14.4469 27.4023 14.0718C27.8032 13.5776 28.1114 13.0182 28.3751 12.4413C28.4149 12.3535 28.2634 12.2825 28.2201 12.37Z" fill="white"/>
<path d="M5.14218 10.6549C5.1285 10.5627 4.97295 10.5508 4.95504 10.6466C4.91037 10.8827 4.85745 11.0865 4.72444 11.291C4.6188 11.4533 4.38316 11.5739 4.33668 11.7608C4.31998 11.8282 4.36203 11.8789 4.42703 11.8894C4.6683 11.9284 4.88824 11.6 4.98925 11.4181C5.11361 11.194 5.18022 10.9104 5.14218 10.6549Z" fill="white"/>
<path d="M3.09049 10.331C3.08627 10.2155 2.90818 10.205 2.90899 10.3229C2.911 10.5658 2.89812 10.8054 2.85586 11.0447C2.82165 11.2379 2.75123 11.4258 2.77396 11.6224C2.78242 11.6963 2.88122 11.6981 2.91764 11.6478C3.03576 11.4838 3.04864 11.2648 3.06836 11.0682C3.0925 10.8232 3.09955 10.5769 3.09049 10.331Z" fill="white"/>
<path d="M1.79163 12.752C1.38153 11.7984 1.33927 11.0444 1.40849 10.0212C1.4097 10.0027 1.38193 9.9926 1.37268 10.0099C0.927162 10.8561 1.06742 12.0713 1.56726 12.8663C1.65338 13.0031 1.85622 12.9023 1.79163 12.752Z" fill="white"/>
<path d="M7.19167 19.4528C6.28354 18.8708 5.42491 18.279 4.73772 17.4311C4.05496 16.5885 3.61528 15.6347 3.21283 14.6377C3.18647 14.5725 3.08707 14.6127 3.09974 14.6779C3.49837 16.7248 5.1448 18.8169 7.03712 19.6989C7.20132 19.7756 7.35426 19.557 7.19167 19.4528Z" fill="white"/>
<path d="M18.73 13.5991C18.4008 13.4514 17.9691 13.5276 17.6102 13.5266C17.1832 13.5256 16.7604 13.5481 16.3342 13.5703C16.2231 13.5761 16.2132 13.7329 16.3265 13.7443C16.7805 13.7906 17.2304 13.8345 17.6866 13.855C18.0464 13.8711 18.4104 13.9574 18.7495 13.8246C18.8612 13.781 18.8151 13.6371 18.73 13.5991Z" fill="white"/>
<path d="M19.8059 13.8605C19.6974 13.8066 19.5445 13.8243 19.4692 13.714C19.3714 13.5705 19.1307 13.6806 19.2211 13.8406C19.3213 14.0178 19.5881 14.2354 19.7956 14.0913C19.8682 14.0408 19.9081 13.9112 19.8059 13.8605Z" fill="white"/>
<path d="M20.3759 8.25607C20.0783 8.18383 19.7573 8.33656 19.4758 8.43596C19.0727 8.57843 18.6685 8.74485 18.3089 8.97787C18.1966 9.05071 18.2789 9.22215 18.4047 9.16561C18.7882 8.99276 19.1585 8.8032 19.5575 8.66576C19.8376 8.56937 20.1672 8.54684 20.3982 8.35668C20.432 8.32891 20.4187 8.26653 20.3759 8.25607Z" fill="white"/>
<path d="M22.3682 8.35319C22.3462 8.28497 22.3036 8.25237 22.235 8.2407C21.9788 8.19663 21.7116 8.13164 21.4514 8.126C21.3462 8.12379 21.3317 8.26042 21.4212 8.29865C21.6613 8.40128 21.9337 8.4536 22.1863 8.5194C22.232 8.53127 22.2909 8.52584 22.3249 8.48841C22.3664 8.44273 22.3881 8.41577 22.3682 8.35319Z" fill="white"/>
</g>
<path d="M16.0579 33.2858L18.0871 37.5214L8.05078 39.3809L10.0761 32.2012L16.0579 33.2858Z" fill="#3F5B35"/>
<path d="M9.73403 30.084L6.06348 34.1902L18.0873 37.5219V30.7941L9.73403 30.084Z" fill="#324929"/>
<path d="M34.2656 27.5527H6.06348V34.1902H34.2656V27.5527Z" fill="#3F5B35"/>
<g opacity="0.3">
<path d="M23.8833 11.7879C23.8833 11.8952 23.7964 11.9821 23.6893 11.9821C23.5823 11.9821 23.4951 11.8952 23.4951 11.7879C23.4951 11.6807 23.582 11.5938 23.6893 11.5938C23.7966 11.5938 23.8833 11.6807 23.8833 11.7879Z" fill="white"/>
<path d="M25.3088 10.2896C25.5706 10.2896 25.7827 10.0774 25.7827 9.81569C25.7827 9.55397 25.5706 9.3418 25.3088 9.3418C25.0471 9.3418 24.835 9.55397 24.835 9.81569C24.835 10.0774 25.0471 10.2896 25.3088 10.2896Z" fill="white"/>
<path d="M25.3029 13.4425C25.3029 13.6016 25.1739 13.7306 25.0147 13.7306C24.8555 13.7306 24.7266 13.6016 24.7266 13.4425C24.7266 13.2833 24.8555 13.1543 25.0147 13.1543C25.1739 13.1543 25.3029 13.2833 25.3029 13.4425Z" fill="white"/>
<path d="M27.1717 17.5749C27.3674 17.5749 27.5261 17.4163 27.5261 17.2206C27.5261 17.0249 27.3674 16.8662 27.1717 16.8662C26.976 16.8662 26.8174 17.0249 26.8174 17.2206C26.8174 17.4163 26.976 17.5749 27.1717 17.5749Z" fill="white"/>
<path d="M29.0103 14.6231C29.1449 14.6231 29.254 14.514 29.254 14.3794C29.254 14.2448 29.1449 14.1357 29.0103 14.1357C28.8757 14.1357 28.7666 14.2448 28.7666 14.3794C28.7666 14.514 28.8757 14.6231 29.0103 14.6231Z" fill="white"/>
<path d="M30.3915 18.0946C30.5112 18.0946 30.6082 17.9975 30.6082 17.8779C30.6082 17.7582 30.5112 17.6611 30.3915 17.6611C30.2718 17.6611 30.1748 17.7582 30.1748 17.8779C30.1748 17.9975 30.2718 18.0946 30.3915 18.0946Z" fill="white"/>
<path d="M28.0915 20.7083C28.0915 20.8061 28.0122 20.8854 27.9144 20.8854C27.8166 20.8854 27.7373 20.8061 27.7373 20.7083C27.7373 20.6105 27.8166 20.5313 27.9144 20.5313C28.0122 20.531 28.0915 20.6105 28.0915 20.7083Z" fill="white"/>
<path d="M29.9223 19.864C29.9223 19.9765 29.8312 20.0678 29.7185 20.0678C29.606 20.0678 29.5146 19.9767 29.5146 19.864C29.5146 19.7515 29.6058 19.6602 29.7185 19.6602C29.8312 19.6602 29.9223 19.7513 29.9223 19.864Z" fill="white"/>
<path d="M31.3032 21.6423C31.3032 21.7548 31.212 21.8462 31.0993 21.8462C30.9869 21.8462 30.8955 21.755 30.8955 21.6423C30.8955 21.5298 30.9867 21.4385 31.0993 21.4385C31.212 21.4385 31.3032 21.5296 31.3032 21.6423Z" fill="white"/>
<path d="M30.3282 22.7793C30.3282 23.0037 30.1463 23.1856 29.9219 23.1856C29.6975 23.1856 29.5156 23.0037 29.5156 22.7793C29.5156 22.555 29.6975 22.373 29.9219 22.373C30.1463 22.373 30.3282 22.5547 30.3282 22.7793Z" fill="white"/>
<path d="M28.8068 25.2801C28.8068 25.4317 28.6838 25.5546 28.5323 25.5546C28.3808 25.5546 28.2578 25.4319 28.2578 25.2801C28.2578 25.1286 28.3808 25.0059 28.5323 25.0059C28.6838 25.0057 28.8068 25.1286 28.8068 25.2801Z" fill="white"/>
<path d="M26.5959 26.3901C26.6731 26.3901 26.7358 26.3274 26.7358 26.2502C26.7358 26.173 26.6731 26.1104 26.5959 26.1104C26.5187 26.1104 26.4561 26.173 26.4561 26.2502C26.4561 26.3274 26.5187 26.3901 26.5959 26.3901Z" fill="white"/>
<path d="M7.53659 20.8103C7.53659 20.8861 7.47502 20.9477 7.39916 20.9477C7.3233 20.9477 7.26172 20.8861 7.26172 20.8103C7.26172 20.7344 7.3233 20.6729 7.39916 20.6729C7.47502 20.6729 7.53659 20.7344 7.53659 20.8103Z" fill="white"/>
<path d="M7.71226 17.9957C7.71226 18.12 7.61145 18.221 7.48689 18.221C7.36253 18.221 7.26172 18.1202 7.26172 17.9957C7.26172 17.8713 7.36253 17.7705 7.48689 17.7705C7.61145 17.7703 7.71226 17.8713 7.71226 17.9957Z" fill="white"/>
<path d="M9.15883 15.9681C9.15883 16.0804 9.06788 16.1715 8.95539 16.1715C8.84311 16.1715 8.75195 16.0804 8.75195 15.9681C8.75195 15.8558 8.84291 15.7646 8.95539 15.7646C9.06788 15.7646 9.15883 15.8558 9.15883 15.9681Z" fill="white"/>
<path d="M9.02463 13.6099C9.02463 13.766 8.89806 13.8928 8.74171 13.8928C8.58555 13.8928 8.45898 13.7662 8.45898 13.6099C8.45898 13.4537 8.58555 13.3271 8.74171 13.3271C8.89806 13.3269 9.02463 13.4537 9.02463 13.6099Z" fill="white"/>
<path d="M22.8984 7.1831C22.8984 7.33181 22.7779 7.45214 22.6294 7.45214C22.4807 7.45214 22.3604 7.33161 22.3604 7.1831C22.3604 7.0344 22.4809 6.91406 22.6294 6.91406C22.7779 6.91386 22.8984 7.0344 22.8984 7.1831Z" fill="white"/>
<path d="M27.1606 11.1786C27.2606 11.1786 27.3417 11.0975 27.3417 10.9975C27.3417 10.8975 27.2606 10.8164 27.1606 10.8164C27.0606 10.8164 26.9795 10.8975 26.9795 10.9975C26.9795 11.0975 27.0606 11.1786 27.1606 11.1786Z" fill="white"/>
<path d="M31.1859 15.4216C31.2956 15.4216 31.3845 15.3327 31.3845 15.223C31.3845 15.1133 31.2956 15.0244 31.1859 15.0244C31.0762 15.0244 30.9873 15.1133 30.9873 15.223C30.9873 15.3327 31.0762 15.4216 31.1859 15.4216Z" fill="white"/>
</g>
</svg>
