<svg width="27" height="40" viewBox="0 0 27 40" fill="none" xmlns="http://www.w3.org/2000/svg">
<path d="M25.5725 28.2144H23.46C23.9005 27.435 24.247 26.6099 24.4949 25.7492C24.9089 25.6079 25.2495 25.415 25.5096 25.1739C25.6208 25.0711 25.6824 24.926 25.6799 24.7746C25.6771 24.6235 25.6099 24.4805 25.4952 24.382C25.4945 24.3814 25.2566 24.1768 24.8717 23.8415C24.9215 23.4034 24.9466 22.9677 24.9466 22.543C24.9466 19.0667 23.4209 15.8412 20.7469 13.6354C20.7238 13.5362 20.6728 13.4447 20.5978 13.3727C18.3781 11.2424 16.4465 8.6676 15.2414 6.9234C15.3883 6.95734 15.5468 6.92754 15.6731 6.83588C15.8364 6.71718 15.9183 6.51578 15.8843 6.31679L15.5666 4.46594L16.9115 3.15486C17.056 3.01393 17.1082 2.80289 17.0457 2.61096C16.9833 2.41904 16.8171 2.2788 16.6174 2.24968L14.759 1.97971L13.9277 0.295984C13.8383 0.114914 13.6541 0 13.452 0C13.2499 0 13.0658 0.114741 12.9763 0.295984L12.1451 1.97971L10.2866 2.24968C10.0868 2.27863 9.92071 2.41886 9.85834 2.61096C9.79597 2.80306 9.84801 3.01393 9.99255 3.15486L11.3371 4.46594L11.0197 6.31679C10.9858 6.51578 11.0676 6.71718 11.2309 6.83588C11.3574 6.92788 11.5166 6.95734 11.6634 6.9234C10.4579 8.66777 8.5259 11.2429 6.30688 13.3727C6.26795 13.4101 6.23556 13.4523 6.21023 13.4983C3.43112 15.7057 1.84197 18.9893 1.84197 22.5428C1.84197 23.0023 1.87057 23.4688 1.92674 23.9338C1.60508 24.2136 1.41006 24.3811 1.4092 24.3818C1.29463 24.4803 1.22727 24.623 1.22451 24.7744C1.22175 24.9255 1.2836 25.0709 1.39456 25.1738C1.62645 25.3883 1.92312 25.565 2.27975 25.7011C2.52853 26.5787 2.87981 27.4202 3.32861 28.2144H1.42712C1.13406 28.2144 0.896484 28.452 0.896484 28.745V34.4278C0.896484 34.6895 1.0872 34.9121 1.34597 34.9523L9.46605 36.2092L8.52435 39.3153C8.47043 39.4928 8.5135 39.6856 8.63737 39.8238C8.73884 39.9369 8.88305 40 9.03224 40C9.06481 40 9.09771 39.9969 9.13061 39.9907L20.3795 37.868C20.6643 37.8144 20.8535 37.5417 20.8041 37.2562L20.4066 34.9586H25.573C25.8661 34.9586 26.1037 34.7211 26.1037 34.428V28.7452C26.1032 28.452 25.8656 28.2144 25.5725 28.2144ZM11.5026 3.14556L12.5734 2.99016C12.7462 2.96501 12.8955 2.85647 12.9727 2.69969L13.4515 1.72973L13.9304 2.69969C14.0076 2.85647 14.1568 2.96501 14.3298 2.99016L15.4005 3.14556L14.6258 3.90085C14.5009 4.02266 14.4438 4.19839 14.4731 4.37033L14.6561 5.43642L13.9236 5.05136C13.7735 4.9728 13.5991 4.97177 13.4527 5.03999C13.3061 4.97159 13.1309 4.97211 12.9808 5.05084L12.2472 5.43676L12.4302 4.3705C12.4595 4.19839 12.4025 4.02283 12.2776 3.90102L11.5026 3.14556ZM25.0417 33.8972H19.7757C19.6193 33.8972 19.4704 33.9664 19.3696 34.086C19.2688 34.2057 19.2261 34.3641 19.2528 34.5183L19.6687 36.9221L9.79357 38.7854L10.6584 35.9322C10.7031 35.7851 10.6815 35.6259 10.5999 35.4958C10.518 35.3654 10.3838 35.2774 10.2317 35.2538L1.95723 33.973V29.2757H4.28289C4.47964 29.2757 4.66019 29.1668 4.75219 28.993C4.84385 28.8191 4.83231 28.6084 4.72136 28.446C4.03394 27.4383 3.53277 26.3319 3.23162 25.1577C3.18527 24.9772 3.04745 24.834 2.86879 24.781C2.79281 24.7584 2.7208 24.7341 2.65326 24.7081C2.71132 24.6576 2.77317 24.6033 2.83881 24.5463C2.97457 24.4276 3.0409 24.2483 3.01506 24.0698C2.94063 23.5603 2.9029 23.0466 2.9029 22.5428C2.9029 19.2476 4.4078 16.2081 7.03168 14.2031C7.1068 14.1459 7.164 14.0704 7.19966 13.9855C10.1125 11.1462 12.5113 7.61581 13.452 6.15622C14.3818 7.59875 16.7371 11.0663 19.6062 13.8892C19.6236 14.0284 19.6952 14.1566 19.8081 14.2439C22.3992 16.2495 23.8853 19.2744 23.8853 22.543C23.8853 23.012 23.8514 23.4966 23.7842 23.9829C23.7599 24.1602 23.8263 24.3373 23.9606 24.455C24.0656 24.5468 24.1631 24.6314 24.2514 24.7084C24.1512 24.747 24.0426 24.782 23.9265 24.8123C23.7408 24.8611 23.5959 25.0061 23.5475 25.1919C23.2451 26.3543 22.7471 27.4491 22.0671 28.446C21.9561 28.6084 21.9446 28.8191 22.0362 28.993C22.1282 29.1668 22.3088 29.2757 22.5055 29.2757H25.0421V33.8972H25.0417Z" fill="white"/>
<path d="M13.3939 33.5642C19.4811 33.5642 24.4158 28.6296 24.4158 22.5424C24.4158 16.4552 19.4811 11.5205 13.3939 11.5205C7.30673 11.5205 2.37207 16.4552 2.37207 22.5424C2.37207 28.6296 7.30673 33.5642 13.3939 33.5642Z" fill="#D6C143"/>
<g opacity="0.2">
<path d="M21.1274 30.3928C21.5648 29.962 21.9654 29.4942 22.3263 28.9956C18.1235 28.7306 12.7298 28.536 8.63079 28.419C6.80579 28.367 5.25489 28.287 3.91504 28.165C4.49391 29.1388 5.21819 30.0155 6.05859 30.7657C6.21744 30.6811 6.4054 30.5758 6.61938 30.4445C8.31258 29.4048 15.2685 30.1246 21.1274 30.3928Z" fill="#9E8A26"/>
<path d="M22.4613 16.2778C22.3047 16.0516 22.1404 15.8316 21.9677 15.6182C13.1034 14.6618 6.82141 14.9525 11.4202 13.431C12.9728 12.9174 14.8104 12.4282 16.6075 11.9975C15.7738 11.7437 14.8984 11.5855 13.9938 11.5371C11.2513 12.3999 8.15696 13.7284 5.83629 14.524C5.27 15.0581 4.75969 15.6504 4.31641 16.2932C4.54055 16.2747 4.76899 16.2558 5.00571 16.2362C9.93992 15.8258 17.5576 16.0944 22.4613 16.2778Z" fill="#9E8A26"/>
<path d="M4.15917 19.8812C6.37474 20.0576 4.19604 20.7027 2.43634 21.3575C2.39481 21.7467 2.37207 22.1416 2.37207 22.5418C2.37207 22.6648 2.37741 22.7866 2.38138 22.9086C4.87191 23.2781 8.86304 23.3278 6.67366 24.3549C3.92573 25.6441 4.18123 27.1468 5.24784 27.138C6.31444 27.1292 6.08255 27.1468 12.8535 27.0532C16.1131 27.0083 19.8027 26.9742 23.5495 26.8322C23.8299 26.1694 24.0469 25.4734 24.1939 24.7519C19.0419 24.5928 13.9749 24.4283 12.7608 24.1273C9.74634 23.3805 21.2011 24.3641 22.9634 22.5416C24.7257 20.7192 14.2912 22.0453 8.6308 20.6046C4.17468 19.4707 15.1281 20.4973 24.2447 20.616C24.1711 20.1987 24.075 19.7894 23.956 19.3897C20.1452 19.1668 15.5669 18.8544 10.9094 18.3662C7.86844 18.0473 5.42253 17.8037 3.5374 17.6104C3.18784 18.3076 2.90839 19.046 2.71199 19.818C3.24056 19.8251 3.73139 19.8471 4.15917 19.8812Z" fill="#9E8A26"/>
<path d="M16.5407 31.5854C10.7938 30.8123 7.69198 30.9098 6.33887 31.0084C8.25053 32.6032 10.7099 33.5635 13.3941 33.5635C15.5524 33.5635 17.5644 32.9407 19.2643 31.8684C18.3026 31.7942 17.3885 31.6994 16.5407 31.5854Z" fill="#9E8A26"/>
</g>
<path d="M13.452 24.71H11.4199V30.2489H13.452V24.71Z" fill="#664A29"/>
<path d="M15.4559 24.71H13.4238V30.2489H15.4559V24.71Z" fill="#543D1F"/>
<path d="M18.6199 18.6655C17.5073 17.2014 15.5748 20.598 15.5748 20.598L13.4521 17.7529L11.3294 20.598C11.3294 20.598 9.39688 17.2016 8.28427 18.6655C7.17166 20.1294 1.75488 24.785 1.75488 24.785C2.54549 25.5171 4.12654 25.4878 4.12654 25.4878C5.15129 26.2491 7.3181 26.132 7.3181 26.132C8.57715 27.1274 10.9195 26.0734 10.9195 26.0734C12.3612 26.8623 13.3227 26.1862 13.4521 26.0861C13.5815 26.1862 14.543 26.8621 15.9847 26.0734C15.9847 26.0734 18.327 27.1274 19.5861 26.132C19.5861 26.132 21.7527 26.2491 22.7776 25.4878C22.7776 25.4878 24.3587 25.5171 25.1493 24.785C25.1493 24.785 19.7325 20.1294 18.6199 18.6655Z" fill="#417224"/>
<path opacity="0.3" d="M13.4241 20.4739C13.4241 20.4739 14.28 23.0281 16.1377 26.1351C16.6708 26.345 18.517 26.9767 19.5865 26.131C19.5865 26.131 21.7532 26.2481 22.7781 25.4868C22.7781 25.4868 24.3591 25.5161 25.1497 24.7841C25.1497 24.7841 19.733 20.1286 18.6203 18.6645C17.5077 17.2005 15.5752 20.597 15.5752 20.597L13.4525 17.752L12.3828 19.1859L13.4241 20.4739Z" fill="#354C2C"/>
<path d="M16.5994 12.116C15.1647 9.45149 15.3404 13.1408 15.3404 13.1408L13.452 14.5923L11.5636 13.1408C11.5636 13.1408 11.7393 9.45149 10.3045 12.116C8.86976 14.7806 3.56152 19.3189 3.56152 19.3189C4.65346 20.6951 6.67383 20.596 6.67383 20.596C8.04573 21.7572 10.0711 20.625 10.0711 20.625C11.5403 22.2155 13.273 20.6205 13.4522 20.4473C13.6313 20.6205 15.364 22.2155 16.8331 20.625C16.8331 20.625 18.8583 21.7572 20.2303 20.596C20.2303 20.596 22.2507 20.6951 23.3426 19.3189C23.3426 19.3189 18.0342 14.7804 16.5994 12.116Z" fill="#518C33"/>
<path opacity="0.3" d="M16.5999 12.116C15.1651 9.45149 15.3409 13.1408 15.3409 13.1408L13.4525 14.5923C13.4525 14.5923 13.3679 17.9704 15.9566 21.2252C16.25 21.1232 16.5467 20.9354 16.8335 20.625C16.8335 20.625 18.8587 21.7572 20.2308 20.596C20.2308 20.596 22.2512 20.6951 23.3431 19.3189C23.3431 19.3189 18.0347 14.7806 16.5999 12.116Z" fill="#354C2C"/>
<path d="M13.4523 5.15809V5.15723L13.4522 5.15774L13.4518 5.15723V5.15809C13.4405 5.17704 10.4918 10.0909 6.67383 13.7554C6.67383 13.7554 8.40132 15.073 10.0117 14.3263C10.0117 14.3263 11.2936 15.6514 13.452 14.612C15.6102 15.6514 16.8923 14.3263 16.8923 14.3263C18.5027 15.073 20.2302 13.7554 20.2302 13.7554C16.4123 10.0909 13.4637 5.17704 13.4523 5.15809Z" fill="#65A348"/>
<path opacity="0.3" d="M13.4527 5.15826V5.1574L13.4525 5.15774L13.4521 5.15723C13.4521 5.15723 13.4639 10.2282 15.5597 14.9645C16.4165 14.8141 16.8927 14.3263 16.8927 14.3263C18.503 15.073 20.2305 13.7554 20.2305 13.7554C16.4127 10.0911 13.464 5.17721 13.4527 5.15826Z" fill="#354C2C"/>
<path d="M13.4523 0.530273L14.407 2.46451L16.5416 2.77461L14.9969 4.28021L15.3616 6.40601L13.4523 5.40246L11.5433 6.40601L11.9078 4.28021L10.3633 2.77461L12.4979 2.46451L13.4523 0.530273Z" fill="#E53030"/>
<path opacity="0.3" d="M16.5411 2.77478L14.5092 2.47949C14.06 3.34935 13.2222 4.49952 11.691 5.54339L11.543 6.40618L13.4521 5.40246L15.3613 6.40618L14.9967 4.28038L16.5411 2.77478Z" fill="#891F1F"/>
<path d="M10.0604 15.5886C10.6283 15.5886 11.0886 15.1283 11.0886 14.5604C11.0886 13.9926 10.6283 13.5322 10.0604 13.5322C9.49256 13.5322 9.03223 13.9926 9.03223 14.5604C9.03223 15.1283 9.49256 15.5886 10.0604 15.5886Z" fill="#E53030"/>
<path opacity="0.3" d="M10.7173 13.7754C10.7406 13.8569 10.757 13.9411 10.757 14.0302C10.757 14.5462 10.3387 14.9647 9.82249 14.9647C9.49067 14.9647 9.20106 14.7905 9.03532 14.5298C9.03498 14.5402 9.03223 14.55 9.03223 14.5605C9.03223 15.1283 9.49257 15.5887 10.0604 15.5887C10.6283 15.5887 11.0886 15.1283 11.0886 14.5605C11.0886 14.2437 10.9423 13.964 10.7173 13.7754Z" fill="#891F1F"/>
<path d="M18.285 21.9802C18.8529 21.9802 19.3132 21.5199 19.3132 20.952C19.3132 20.3842 18.8529 19.9238 18.285 19.9238C17.7172 19.9238 17.2568 20.3842 17.2568 20.952C17.2568 21.5199 17.7172 21.9802 18.285 21.9802Z" fill="#E53030"/>
<path opacity="0.3" d="M18.9419 20.167C18.9652 20.2485 18.9816 20.3327 18.9816 20.4218C18.9816 20.9378 18.5633 21.3563 18.0473 21.3563C17.7155 21.3563 17.4258 21.1821 17.2599 20.9214C17.2596 20.9318 17.2568 20.9416 17.2568 20.9521C17.2568 21.5199 17.7172 21.9803 18.285 21.9803C18.8529 21.9803 19.3132 21.5199 19.3132 20.9521C19.3132 20.6353 19.1671 20.3555 18.9419 20.167Z" fill="#891F1F"/>
<path d="M8.00377 24.3552C8.57163 24.3552 9.03197 23.8949 9.03197 23.327C9.03197 22.7592 8.57163 22.2988 8.00377 22.2988C7.43592 22.2988 6.97559 22.7592 6.97559 23.327C6.97559 23.8949 7.43592 24.3552 8.00377 24.3552Z" fill="#E53030"/>
<path opacity="0.3" d="M8.66052 22.542C8.68378 22.6235 8.70015 22.7079 8.70015 22.7968C8.70015 23.3128 8.28184 23.7313 7.76585 23.7313C7.43403 23.7313 7.14443 23.5571 6.97869 23.2964C6.97834 23.3068 6.97559 23.3166 6.97559 23.3271C6.97559 23.8949 7.43593 24.3553 8.00378 24.3553C8.57163 24.3553 9.03197 23.8949 9.03197 23.3271C9.03179 23.0103 8.88552 22.7305 8.66052 22.542Z" fill="#891F1F"/>
<path d="M11.5428 20.0847C12.1107 20.0847 12.571 19.6244 12.571 19.0565C12.571 18.4887 12.1107 18.0283 11.5428 18.0283C10.975 18.0283 10.5146 18.4887 10.5146 19.0565C10.5146 19.6244 10.975 20.0847 11.5428 20.0847Z" fill="#D6C143"/>
<path opacity="0.3" d="M12.1998 18.2715C12.223 18.353 12.2394 18.4372 12.2394 18.5263C12.2394 19.0423 11.8211 19.4608 11.3049 19.4608C10.9731 19.4608 10.6835 19.2866 10.5178 19.0259C10.5174 19.0364 10.5146 19.0461 10.5146 19.0566C10.5146 19.6244 10.975 20.0848 11.5428 20.0848C12.1107 20.0848 12.571 19.6244 12.571 19.0566C12.571 18.7398 12.4248 18.4601 12.1998 18.2715Z" fill="#891F1F"/>
<path d="M15.2997 12.8669C15.8675 12.8669 16.3279 12.4066 16.3279 11.8387C16.3279 11.2709 15.8675 10.8105 15.2997 10.8105C14.7318 10.8105 14.2715 11.2709 14.2715 11.8387C14.2715 12.4066 14.7318 12.8669 15.2997 12.8669Z" fill="#D6C143"/>
<path opacity="0.3" d="M15.9566 11.0537C15.9798 11.1352 15.9962 11.2194 15.9962 11.3085C15.9962 11.8245 15.5779 12.2428 15.0619 12.2428C14.7301 12.2428 14.4405 12.0686 14.2746 11.808C14.2742 11.8183 14.2715 11.8281 14.2715 11.8386C14.2715 12.4065 14.7318 12.8668 15.2997 12.8668C15.8675 12.8668 16.3279 12.4065 16.3279 11.8386C16.3279 11.522 16.1816 11.2424 15.9566 11.0537Z" fill="#891F1F"/>
<g opacity="0.35">
<path d="M13.2438 1.53757C13.0884 1.91367 12.8901 2.2653 12.7426 2.64708C12.6017 2.6476 12.4604 2.67843 12.3169 2.69325C12.0419 2.72185 11.7668 2.75062 11.4908 2.76647C11.3843 2.77267 11.3796 2.91291 11.4835 2.93014C11.7502 2.97407 12.0178 3.00612 12.2886 2.9994C12.5029 2.99406 12.7536 3.00319 12.9404 2.89138C12.9657 2.87622 12.9814 2.85175 12.9917 2.82522C13.012 2.80834 13.03 2.78749 13.041 2.75717C13.1817 2.37004 13.2608 1.97155 13.3902 1.58305C13.4219 1.48795 13.281 1.44764 13.2438 1.53757Z" fill="white"/>
<path d="M12.3598 7.50734C11.9558 8.21284 11.5442 8.91386 11.0892 9.58801C10.6448 10.2466 10.0393 10.8767 9.6791 11.5794C9.59158 11.75 9.78471 11.9218 9.93942 11.7965C10.5536 11.2996 11.0212 10.4698 11.4224 9.79716C11.8459 9.08735 12.218 8.35067 12.5244 7.5828C12.5624 7.48684 12.411 7.41792 12.3598 7.50734Z" fill="white"/>
<path d="M9.13976 12.4368C8.85859 12.6854 8.61499 12.9662 8.3731 13.2522C8.31246 13.3239 8.28747 13.4056 8.32934 13.4945C8.35587 13.5508 8.38809 13.5847 8.45011 13.5961C8.54538 13.6137 8.62446 13.5906 8.68235 13.5101C8.90252 13.2043 9.11702 12.898 9.2912 12.5631C9.3415 12.4666 9.22762 12.3591 9.13976 12.4368Z" fill="white"/>
<path d="M8.42536 15.3516C7.64233 16.3281 6.64739 17.2467 6.00426 18.3193C5.90037 18.4925 6.12244 18.678 6.2756 18.5457C7.2242 17.726 7.91868 16.4997 8.61143 15.4684C8.69206 15.3485 8.51167 15.2439 8.42536 15.3516Z" fill="white"/>
<path d="M5.25023 18.9391C5.04436 19.0593 4.89947 19.2147 4.73666 19.3836C4.49115 19.638 4.9863 19.8965 5.06469 19.5917C5.10638 19.4299 5.24627 19.2875 5.38324 19.1994C5.53881 19.0995 5.41477 18.8431 5.25023 18.9391Z" fill="white"/>
<path d="M6.43995 21.2478C6.04525 21.643 5.65037 22.0377 5.25756 22.435C4.94814 22.7479 4.4468 23.0811 4.31724 23.5101C4.28692 23.6103 4.38185 23.7389 4.49366 23.7028C4.94642 23.5569 5.28048 23.0175 5.58284 22.6662C5.93998 22.2514 6.2768 21.8229 6.60103 21.3822C6.67133 21.2862 6.52385 21.1637 6.43995 21.2478Z" fill="white"/>
<path d="M3.55738 24.1444C3.27001 24.2886 2.95852 24.5505 2.91459 24.8904C2.89081 25.0742 3.15561 25.138 3.24641 24.994C3.27725 24.9449 3.30343 24.8992 3.3167 24.8494C3.34599 24.7827 3.37545 24.7162 3.41697 24.6544C3.48485 24.5538 3.57685 24.4487 3.67798 24.3808C3.81615 24.2883 3.71416 24.0659 3.55738 24.1444Z" fill="white"/>
<path d="M11.3111 18.4998C11.2029 18.415 11.0953 18.4843 10.9871 18.5349C10.8384 18.6045 10.9244 18.8397 11.0829 18.8042C11.2026 18.7775 11.3253 18.7651 11.359 18.629C11.3723 18.5756 11.3532 18.5325 11.3111 18.4998Z" fill="white"/>
<path d="M9.99403 13.8193C9.80435 13.7964 9.61432 13.9789 9.53025 14.1322C9.45289 14.2731 9.65085 14.3998 9.74267 14.2657C9.82589 14.1443 9.93305 14.1351 10.0469 14.063C10.1567 13.9934 10.126 13.8352 9.99403 13.8193Z" fill="white"/>
<path d="M15.515 11.2349C15.418 11.0418 15.0784 11.2875 14.9688 11.3443C14.8001 11.4317 14.9321 11.6887 15.1027 11.6066C15.2143 11.5528 15.6125 11.4291 15.515 11.2349Z" fill="white"/>
<path d="M17.8434 20.3416C17.7828 20.4334 17.727 20.5275 17.6682 20.6203C17.585 20.752 17.7716 20.9198 17.8844 20.8007C17.9595 20.7215 18.0362 20.6446 18.1098 20.5638C18.2821 20.3747 17.9831 20.1297 17.8434 20.3416Z" fill="white"/>
<path d="M7.79134 23.1694C7.67987 23.0168 7.47365 23.0416 7.34133 23.1476C7.21867 23.2458 7.33737 23.4256 7.47347 23.4036C7.58787 23.385 7.69296 23.3398 7.78669 23.2719C7.82097 23.2471 7.81218 23.198 7.79134 23.1694Z" fill="white"/>
<path d="M12.0831 27.8195C12.0725 27.6016 12.0725 27.3814 12.0546 27.1642C12.0453 27.0518 11.8839 27.0017 11.846 27.1278C11.7814 27.343 11.75 27.5804 11.7352 27.804C11.7221 27.9996 11.6808 28.2291 11.8269 28.3783C11.8899 28.4427 11.9802 28.4274 12.0322 28.3596C12.1492 28.2072 12.0918 28.0018 12.0831 27.8195Z" fill="white"/>
</g>
<path d="M15.2103 33.798L20.2812 37.347L9.03223 39.4697L11.0564 32.792L15.2103 33.798Z" fill="#51403B"/>
<path d="M7.57953 32.1984L1.42676 34.4281L20.2808 37.3469L19.0529 30.249L8.00369 32.1984" fill="#42322E"/>
<path d="M25.5727 28.7451H1.42676V34.4279H25.5727V28.7451Z" fill="#51403B"/>
<g opacity="0.3">
<path d="M21.9363 16.9179C21.9363 17.0224 21.8515 17.1072 21.747 17.1072C21.6424 17.1072 21.5576 17.0224 21.5576 16.9179C21.5576 16.8133 21.6424 16.7285 21.747 16.7285C21.8515 16.7285 21.9363 16.8133 21.9363 16.9179Z" fill="white"/>
<path d="M22.7244 21.1415C22.7244 21.2461 22.6396 21.3308 22.535 21.3308C22.4305 21.3308 22.3457 21.2461 22.3457 21.1415C22.3457 21.0369 22.4305 20.9521 22.535 20.9521C22.6396 20.9521 22.7244 21.0369 22.7244 21.1415Z" fill="white"/>
<path d="M20.6781 15.1877C20.6781 15.3114 20.5778 15.4115 20.4543 15.4115C20.3306 15.4115 20.2305 15.3112 20.2305 15.1877C20.2305 15.064 20.3307 14.9639 20.4543 14.9639C20.5778 14.9639 20.6781 15.0641 20.6781 15.1877Z" fill="white"/>
<path d="M24.1466 22.3931C24.1466 22.5661 24.0063 22.7062 23.8335 22.7062C23.6607 22.7062 23.5205 22.5659 23.5205 22.3931C23.5205 22.2203 23.6607 22.0801 23.8335 22.0801C24.0065 22.0801 24.1466 22.2203 24.1466 22.3931Z" fill="white"/>
<path d="M22.9043 26.3359C23.0035 26.3359 23.084 26.2555 23.084 26.1563C23.084 26.057 23.0035 25.9766 22.9043 25.9766C22.8051 25.9766 22.7246 26.057 22.7246 26.1563C22.7246 26.2555 22.8051 26.3359 22.9043 26.3359Z" fill="white"/>
<path d="M21.9465 27.8219C21.9465 28.0116 21.7928 28.1652 21.6031 28.1652C21.4134 28.1652 21.2598 28.0116 21.2598 27.8219C21.2598 27.6322 21.4134 27.4785 21.6031 27.4785C21.7928 27.4785 21.9465 27.6322 21.9465 27.8219Z" fill="white"/>
<path d="M20.5092 26.9338C20.5092 27.0467 20.4178 27.1382 20.3049 27.1382C20.1921 27.1382 20.1006 27.0467 20.1006 26.9338C20.1006 26.821 20.1921 26.7295 20.3049 26.7295C20.4178 26.7295 20.5092 26.821 20.5092 26.9338Z" fill="white"/>
<path d="M18.9266 28.2416C18.9266 28.34 18.8468 28.4198 18.7485 28.4198C18.6501 28.4198 18.5703 28.34 18.5703 28.2416C18.5703 28.1432 18.6501 28.0635 18.7485 28.0635C18.8468 28.0635 18.9266 28.1432 18.9266 28.2416Z" fill="white"/>
<path d="M16.9093 27.5295C17.0549 27.5295 17.173 27.4114 17.173 27.2657C17.173 27.12 17.0549 27.002 16.9093 27.002C16.7636 27.002 16.6455 27.12 16.6455 27.2657C16.6455 27.4114 16.7636 27.5295 16.9093 27.5295Z" fill="white"/>
<path d="M10.729 26.8967C10.729 27.0015 10.644 27.0864 10.5393 27.0864C10.4345 27.0864 10.3496 27.0015 10.3496 26.8967C10.3496 26.792 10.4345 26.707 10.5393 26.707C10.644 26.707 10.729 26.792 10.729 26.8967Z" fill="white"/>
<path d="M8.94417 28.2416C8.94417 28.34 8.86441 28.4198 8.76603 28.4198C8.66766 28.4198 8.58789 28.34 8.58789 28.2416C8.58789 28.1432 8.66766 28.0635 8.76603 28.0635C8.86441 28.0635 8.94417 28.1432 8.94417 28.2416Z" fill="white"/>
<path d="M7.27063 27.2307C7.36293 27.2307 7.43775 27.1559 7.43775 27.0636C7.43775 26.9713 7.36293 26.8965 7.27063 26.8965C7.17834 26.8965 7.10352 26.9713 7.10352 27.0636C7.10352 27.1559 7.17834 27.2307 7.27063 27.2307Z" fill="white"/>
<path d="M5.36436 28.0162C5.36436 28.0866 5.30733 28.1437 5.23686 28.1437C5.1664 28.1437 5.10938 28.0866 5.10938 28.0162C5.10938 27.9457 5.1664 27.8887 5.23686 27.8887C5.30733 27.8887 5.36436 27.9459 5.36436 28.0162Z" fill="white"/>
<path d="M4.73125 26.5581C4.73125 26.7449 4.57981 26.8965 4.39305 26.8965C4.20612 26.8965 4.05469 26.745 4.05469 26.5581C4.05469 26.3712 4.20612 26.2197 4.39305 26.2197C4.57981 26.2199 4.73125 26.3713 4.73125 26.5581Z" fill="white"/>
<path d="M3.20767 22.6561C3.20767 22.7617 3.12204 22.8473 3.01643 22.8473C2.91082 22.8473 2.8252 22.7617 2.8252 22.6561C2.8252 22.5505 2.91082 22.4648 3.01643 22.4648C3.12204 22.4647 3.20767 22.5505 3.20767 22.6561Z" fill="white"/>
<path d="M4.77395 21.0733C4.88965 21.0733 4.98345 20.9795 4.98345 20.8638C4.98345 20.7481 4.88965 20.6543 4.77395 20.6543C4.65825 20.6543 4.56445 20.7481 4.56445 20.8638C4.56445 20.9795 4.65825 21.0733 4.77395 21.0733Z" fill="white"/>
<path d="M4.18138 17.6634C4.18138 17.7467 4.11384 17.8142 4.03063 17.8142C3.94742 17.8142 3.87988 17.7467 3.87988 17.6634C3.87988 17.5802 3.94742 17.5127 4.03063 17.5127C4.11384 17.5127 4.18138 17.5802 4.18138 17.6634Z" fill="white"/>
<path d="M5.71796 16.6293C5.81082 16.6293 5.8861 16.554 5.8861 16.4611C5.8861 16.3683 5.81082 16.293 5.71796 16.293C5.62509 16.293 5.5498 16.3683 5.5498 16.4611C5.5498 16.554 5.62509 16.6293 5.71796 16.6293Z" fill="white"/>
<path d="M6.92515 14.449C6.92515 14.5491 6.84401 14.6302 6.74374 14.6302C6.64347 14.6302 6.5625 14.5491 6.5625 14.449C6.5625 14.3489 6.64365 14.2676 6.74374 14.2676C6.84384 14.2676 6.92515 14.3487 6.92515 14.449Z" fill="white"/>
<path d="M19.5941 14.8229C19.5941 14.901 19.5308 14.9642 19.4528 14.9642C19.3748 14.9642 19.3115 14.901 19.3115 14.8229C19.3115 14.7449 19.3748 14.6816 19.4528 14.6816C19.5308 14.6816 19.5941 14.7449 19.5941 14.8229Z" fill="white"/>
</g>
</svg>
