<svg width="65" height="42" viewBox="0 0 65 42" fill="none" xmlns="http://www.w3.org/2000/svg">
<path d="M16.5243 4.63205C15.8493 6.14092 14.0426 9.73835 11.8559 10.5153L11.79 10.5389L11.8493 10.5746C12.2425 10.8104 13.5569 11.6976 13.9847 13.255C14.0943 13.654 14.1407 14.0729 14.1216 14.5007C14.0811 15.4226 13.7385 16.4128 13.103 17.4432L13.0673 17.5011L13.1353 17.4935C13.795 17.4155 16.0289 17.2782 17.068 18.7381L17.078 18.7503L17.094 18.751C17.2378 18.76 17.381 18.778 17.5214 18.8068C17.7468 18.855 17.9673 18.9285 18.1798 19.029L18.2745 19.0727L18.2228 18.9833C17.6813 18.0281 15.9342 14.4359 16.2029 8.32482C16.2553 7.13111 16.3839 5.89441 16.5867 4.65043L16.6269 4.39941L16.5243 4.63205Z" fill="#018B45"/>
<path d="M13.8199 21.7169C13.813 21.8767 13.8203 22.0359 13.8414 22.1929C14.0262 23.6165 15.3014 24.8265 16.7909 24.8921C16.9611 24.8997 17.1296 24.891 17.2918 24.8692C18.1115 24.761 18.8572 24.2926 19.3357 23.5832C19.4941 23.3482 19.6193 23.0916 19.7077 22.8215C19.7441 22.7147 19.7756 22.6021 19.8051 22.4752C19.8367 22.2966 19.8557 22.1347 19.8623 21.9828C19.8797 21.5879 19.8238 21.2007 19.6997 20.8394C19.5336 20.3478 19.2448 19.905 18.8513 19.5517C18.3562 19.1066 17.7197 18.8445 17.0578 18.8153C15.4047 18.7422 13.891 20.0978 13.8199 21.7169Z" fill="#C92C1E"/>
<path d="M22.3545 10.6891C23.6259 11.4436 25.5945 11.2629 26.6554 11.0871L26.9005 11.0462C26.8506 11.0691 26.7993 11.092 26.7507 11.1149L26.6752 11.1499C21.7783 13.39 19.5545 17.9242 19.1582 18.8114L19.1173 18.9022L19.0965 18.8048C19.0227 18.472 18.9925 18.1294 19.0078 17.7848C19.0865 15.9982 20.3197 14.6686 20.3322 14.6547C20.3377 14.6495 20.3408 14.6419 20.3412 14.6339C20.3419 14.6208 20.3367 14.6124 20.3304 14.6069C20.2386 14.5313 20.1505 14.4533 20.0669 14.3729C19.6745 14.0012 19.3805 13.5886 19.1898 13.1435L19.1693 13.0949L19.222 13.0984C21.3092 13.2034 22.1586 11.1239 22.3081 10.7058L22.3216 10.668L22.3545 10.6891Z" fill="#018B45"/>
<path d="M19.1454 19.0112L19.1384 19.0216L19.1371 19.024L19.1287 19.0368C19.0483 19.1828 18.9793 19.3385 18.9207 19.4962L18.9131 19.517L18.9297 19.5323C18.9398 19.542 18.9817 19.5836 18.9817 19.5836C18.9817 19.5836 19.0237 19.6238 19.0362 19.6377C19.0538 19.6557 19.0715 19.6737 19.0892 19.6928C19.0892 19.6928 19.1436 19.7507 19.1547 19.7646C19.1748 19.7864 19.1936 19.8114 19.2151 19.836L19.2275 19.8513C19.24 19.8665 19.2529 19.8814 19.2653 19.8967C19.2789 19.9157 19.2927 19.9338 19.3066 19.9528L19.3316 19.9872C19.344 20.0024 19.3555 20.0187 19.3666 20.035C19.3829 20.0582 19.3978 20.0815 19.4175 20.1099C19.4175 20.1099 19.4508 20.1616 19.4609 20.1778C19.4734 20.1983 19.515 20.2701 19.515 20.2701C19.5261 20.2878 19.5372 20.3068 19.5469 20.3259C19.558 20.3463 19.5687 20.3665 19.5784 20.3869L19.5978 20.4247C19.6075 20.4424 19.6162 20.4597 19.6245 20.4774C19.6332 20.4951 19.6415 20.5138 19.6498 20.5329C19.6498 20.5329 19.6873 20.6164 19.6942 20.6327C19.7025 20.6542 19.7109 20.6757 19.7192 20.6972C19.7192 20.6972 19.724 20.7107 19.7334 20.7364C19.7407 20.7551 19.7476 20.7742 19.7549 20.7929C19.7608 20.8116 19.7677 20.8317 19.7736 20.8508L19.7816 20.8789C19.7816 20.8789 19.8013 20.9392 19.8059 20.9552C19.8128 20.978 19.8183 20.9995 19.8242 21.0221L19.8298 21.0436C19.8298 21.0436 19.8457 21.1049 19.8502 21.1212C19.8547 21.1427 19.8589 21.1639 19.8634 21.1864C19.8634 21.1864 19.8807 21.2731 19.8839 21.2904C19.888 21.313 19.8911 21.3358 19.8943 21.3584L19.8984 21.3865C19.8984 21.3865 19.9078 21.4464 19.9099 21.461C19.9126 21.4863 19.9144 21.5116 19.9171 21.5366L19.9213 21.591C19.9234 21.6056 19.9251 21.6205 19.9262 21.6351C19.9276 21.667 19.9286 21.6999 19.9296 21.7332L19.9317 21.8098C19.9331 21.868 19.9317 21.9263 19.9293 21.9856C19.9223 22.1416 19.9033 22.3059 19.8703 22.4869C19.8558 22.5483 19.8412 22.6062 19.827 22.6623L19.8038 22.7393C19.7975 22.7601 19.7927 22.7799 19.7868 22.7979L19.7792 22.8201L19.7972 22.8343C19.8228 22.8551 19.8495 22.8749 19.8804 22.8988L19.9033 22.9172C19.9265 22.9342 19.948 22.9508 19.9698 22.9664C19.9979 22.9862 20.0264 23.0045 20.0548 23.0219L20.1075 23.0559C20.1279 23.0701 20.1487 23.0829 20.1692 23.0957C20.2001 23.1145 20.2327 23.1304 20.2649 23.1474L20.3166 23.1748C20.336 23.1862 20.3568 23.1963 20.3772 23.2067C20.4095 23.2226 20.4421 23.2358 20.4747 23.2493L20.5319 23.2743C20.5527 23.2843 20.5735 23.2934 20.5943 23.301C20.6307 23.3159 20.6671 23.328 20.7049 23.3402L20.7544 23.3568C20.7752 23.363 20.795 23.3703 20.8158 23.3766C20.8564 23.389 20.8956 23.3974 20.9361 23.4071L20.9899 23.4213C21.0082 23.4261 21.0266 23.431 21.045 23.4345C21.0921 23.4445 21.1396 23.4518 21.1882 23.4594L21.2353 23.4667C21.2499 23.4698 21.2641 23.4719 21.2787 23.474C21.3601 23.484 21.4406 23.4903 21.5172 23.4937C21.9624 23.5132 22.3916 23.4355 22.7962 23.2642C23.8238 22.8239 24.52 21.8174 24.5693 20.7003C24.5769 20.5246 24.5703 20.3498 24.5474 20.1782C24.3671 18.7151 23.1776 17.4798 21.7845 17.4184C20.7458 17.3723 19.7116 17.995 19.1454 19.0112Z" fill="#C92C1E"/>
<path d="M26.948 11.0999C22.5254 13.0183 20.2354 16.8032 19.4561 18.3419L19.3389 18.5708L19.5101 18.3787C20.0406 17.7789 20.7378 17.4166 21.4732 17.359L21.4943 17.3573L21.502 17.3379C22.2047 15.5284 24.7849 15.6394 25.2953 15.6789L25.3348 15.682L25.33 15.6435C25.3074 15.4032 25.3008 15.1595 25.3116 14.9189C25.3948 13.0252 26.5094 11.6547 26.9855 11.153L27.0964 11.0361L26.948 11.0999Z" fill="#018B45"/>
<path d="M19.7397 22.9324C19.7352 22.9428 19.7158 22.9924 19.7158 22.9924C19.7026 23.025 19.6905 23.0562 19.6773 23.0874C19.6624 23.1224 19.6478 23.156 19.6288 23.1952C19.6156 23.2237 19.6024 23.2535 19.5879 23.2819C19.5705 23.3141 19.5532 23.3464 19.5289 23.3904C19.5147 23.4164 19.5001 23.4421 19.4859 23.4677C19.4689 23.4962 19.4502 23.5242 19.4277 23.5603L19.4148 23.5783C19.4006 23.6016 19.3864 23.6234 19.3722 23.6452C19.3511 23.6747 19.3299 23.7042 19.3074 23.7337L19.2949 23.7489C19.2793 23.7708 19.2637 23.7926 19.247 23.8131C19.2287 23.8373 19.2092 23.8588 19.1898 23.8821L19.1618 23.9153C19.1451 23.9344 19.1295 23.9535 19.1115 23.9725C19.0935 23.993 19.0726 24.0131 19.0532 24.0336L19.0116 24.0766C18.9964 24.0918 18.9825 24.1071 18.9672 24.1209C18.9464 24.141 18.926 24.1601 18.9038 24.1788L18.8584 24.2194C18.8431 24.2333 18.8279 24.2471 18.813 24.2596C18.7897 24.2797 18.7648 24.2998 18.7402 24.3186L18.6923 24.3563C18.6784 24.3664 18.6649 24.3775 18.65 24.3875C18.6185 24.4111 18.5845 24.4337 18.5505 24.4558C18.5505 24.4558 18.4905 24.4968 18.4794 24.5044C18.4222 24.5401 18.3626 24.5762 18.3016 24.6077L18.2676 24.6247C18.2173 24.6517 18.1674 24.677 18.1175 24.6999C18.1026 24.7058 18.089 24.7121 18.0759 24.7166L18.0287 24.737C17.9937 24.7512 17.9601 24.7658 17.9264 24.7786C17.9101 24.7845 17.8269 24.8112 17.8269 24.8112C17.7947 24.823 17.7624 24.8334 17.7288 24.8428C17.7087 24.8483 17.69 24.8542 17.6699 24.8587L17.6297 24.8688C17.596 24.8778 17.5614 24.8872 17.5267 24.8948C17.5066 24.8993 17.4854 24.9021 17.4639 24.9066L17.4039 24.9173C17.3838 24.9218 17.3637 24.926 17.3426 24.9291L17.3211 24.9322L17.3162 24.9534C17.2746 25.1181 17.2469 25.2956 17.2348 25.479C17.2306 25.5119 17.2292 25.5462 17.2278 25.5792C17.1484 27.3831 18.5509 28.9159 20.3558 28.9953C22.219 29.0771 23.8603 27.6476 23.9383 25.8742C23.9626 25.3237 23.8343 24.7807 23.5725 24.2929C23.5712 24.2915 23.5712 24.2915 23.5715 24.2901C23.3832 23.9406 23.1312 23.6224 22.8153 23.3453L22.8001 23.3329L22.7814 23.3401C22.7814 23.3401 22.7786 23.3415 22.7748 23.3426C22.7706 23.345 22.764 23.3474 22.7561 23.3499L22.7547 23.3512C22.7155 23.3668 22.6482 23.3915 22.6482 23.3915C22.6226 23.4008 22.5959 23.4091 22.5702 23.4171L22.4926 23.4414C22.4645 23.4507 22.4364 23.4573 22.3989 23.4677C22.3989 23.4677 22.3466 23.4813 22.3334 23.4833C22.3081 23.4903 22.2814 23.4955 22.2547 23.501L22.1732 23.5173C22.1452 23.5229 22.1185 23.5256 22.0907 23.5294L22.0748 23.5326C22.0748 23.5326 22.0255 23.5399 22.011 23.5416C21.9819 23.5444 21.9524 23.5471 21.9247 23.5496C21.9247 23.5496 21.8595 23.5558 21.8463 23.5568C21.8092 23.5593 21.7721 23.5603 21.7322 23.561L21.6806 23.5627C21.6251 23.5627 21.5696 23.5617 21.5128 23.5593C21.4348 23.5558 21.3533 23.5496 21.2715 23.5395C21.2569 23.5374 21.2413 23.5343 21.2267 23.5322L21.1768 23.5236C21.1293 23.5177 21.0822 23.51 21.035 23.5C21.0166 23.4965 20.9983 23.4917 20.9799 23.4872L20.9223 23.4726C20.8818 23.4629 20.8426 23.4532 20.8034 23.4421C20.784 23.4358 20.7628 23.4282 20.742 23.4223L20.6963 23.4071C20.6571 23.3935 20.6165 23.3811 20.5791 23.3661C20.5569 23.3571 20.5351 23.3481 20.5129 23.3381L20.4841 23.3263C20.4425 23.3086 20.4009 23.2909 20.3596 23.2718C20.3364 23.2601 20.3132 23.2486 20.2899 23.2358L20.2667 23.224C20.2279 23.2039 20.1877 23.182 20.1492 23.1606C20.1249 23.145 20.0989 23.1293 20.0746 23.1137L20.059 23.1037C20.0216 23.0794 19.9831 23.0565 19.947 23.0312C19.92 23.0115 19.8919 22.9917 19.8586 22.9664L19.8292 22.9439C19.8163 22.9355 19.8035 22.9269 19.7907 22.9172L19.755 22.8877L19.7397 22.9324Z" fill="#C92C1E"/>
<path d="M16.6499 4.68961C16.4516 5.92319 16.3237 7.1481 16.2717 8.32968C15.9669 15.2621 18.2905 18.9802 18.3897 19.1337L18.3935 19.1407L18.4001 19.1448C18.5499 19.2308 18.6924 19.331 18.8248 19.444L18.8605 19.4735L18.8768 19.4305C18.9337 19.2797 18.9982 19.1383 19.0686 19.0089L19.0758 18.9975L19.0724 18.9854C18.9677 18.5957 18.9233 18.1917 18.9413 17.7837C19.0124 16.1649 20.0341 14.8987 20.239 14.6616L20.2602 14.6359L20.2345 14.6148C19.7065 14.1682 19.3268 13.6582 19.0994 13.083C19.0942 13.0775 19.0907 13.0695 19.089 13.048C18.9302 12.6243 18.8605 12.1674 18.8817 11.6893C18.9316 10.5566 19.4669 9.63538 19.6302 9.37916L19.6472 9.35211L19.6215 9.33374C17.4009 7.84671 16.8486 5.78659 16.7168 4.69065L16.6888 4.45801L16.6499 4.68961ZM18.3998 11.2892C18.3998 11.2892 18.3998 11.2892 18.3984 11.2878C18.4091 11.2274 18.4209 11.1685 18.4355 11.1096C18.4223 11.1685 18.4105 11.2285 18.3998 11.2892Z" fill="#018B45"/>
<path d="M23.5745 24.292C23.8363 24.7798 23.9645 25.3227 23.9403 25.8733C23.8623 27.6467 22.221 29.0762 20.3578 28.9944C18.5528 28.915 17.1504 27.3822 17.2298 25.5783C17.2312 25.5453 17.2325 25.511 17.2367 25.4781C17.2367 25.4781 18.1704 27.8315 20.848 27.6266C23.4299 27.4293 23.6553 25.104 23.5745 24.292Z" fill="#A3180B"/>
<path d="M19.7001 20.8389C19.8246 21.2001 19.88 21.5878 19.8627 21.9823C19.8561 22.1342 19.837 22.2961 19.8055 22.4746C19.776 22.6015 19.7448 22.7139 19.7081 22.821C19.6193 23.0911 19.4945 23.3473 19.3361 23.5827C18.8576 24.2921 18.1122 24.7605 17.2922 24.8686C17.13 24.8905 16.9615 24.8991 16.7912 24.8915C15.3018 24.826 14.0266 23.6163 13.8418 22.1924C14.081 22.4687 15.4006 23.867 17.3109 23.7221C19.1429 23.582 19.6086 21.4182 19.7001 20.8389Z" fill="#A3180B"/>
<path d="M24.5466 20.1768C24.5695 20.3484 24.5764 20.5235 24.5684 20.6989C24.5192 21.816 23.8226 22.8225 22.7954 23.2628C22.3908 23.4341 21.9615 23.5117 21.5164 23.4923C21.4397 23.4888 21.3593 23.4826 21.2778 23.4726C21.2633 23.4705 21.249 23.4684 21.2345 23.4653L21.1873 23.458C21.1388 23.4507 21.0913 23.4431 21.0441 23.433C21.0258 23.4296 21.0074 23.4247 20.989 23.4199L20.9353 23.4056C20.8947 23.3959 20.8555 23.3876 20.815 23.3751C20.7942 23.3689 20.7744 23.3613 20.7536 23.3554L20.704 23.3387C20.6662 23.3266 20.6298 23.3145 20.5934 23.2995C20.5726 23.2919 20.5518 23.2832 20.531 23.2728L20.4738 23.2479C20.4412 23.2344 20.409 23.2212 20.3764 23.2052C20.3556 23.1952 20.3351 23.1848 20.3157 23.1733L20.2641 23.146C20.2318 23.1286 20.1992 23.1127 20.1684 23.0943C20.1479 23.0815 20.1271 23.0686 20.1067 23.0544L20.054 23.0204C20.0255 23.0035 19.9974 22.9847 19.969 22.965C19.9472 22.9494 19.9253 22.9327 19.9024 22.9157L19.8796 22.8974C19.8487 22.8734 19.822 22.8537 19.7963 22.8329L19.7783 22.8187L19.7859 22.7965C19.7922 22.7784 19.797 22.7587 19.8029 22.7379L19.8262 22.6609C19.8404 22.6047 19.8549 22.5472 19.8695 22.4855C19.9028 22.3045 19.9219 22.1398 19.9284 21.9841C19.9312 21.9249 19.9323 21.8666 19.9309 21.8084C19.9316 21.8087 23.8986 23.2059 24.5466 20.1768Z" fill="#A3180B"/>
<path d="M16.6273 4.40039C15.9817 8.15973 14.4586 10.4806 14.4586 10.4806C14.7332 10.8869 14.943 11.2891 15.1004 11.6798C16.2053 14.4115 14.7592 16.6405 14.7592 16.6405C15.4103 16.783 15.9717 17.1398 16.4161 17.527C17.0343 18.0624 17.4261 18.6563 17.5214 18.8074C17.381 18.7787 17.2378 18.7606 17.094 18.7516L17.078 18.7509L17.068 18.7388C16.0289 17.2788 13.7947 17.4161 13.1353 17.4941L13.0673 17.5017L13.103 17.4438C13.7385 16.4134 14.0811 15.4229 14.1216 14.5013C14.1404 14.0735 14.0939 13.6547 13.9847 13.2556C13.5572 11.6982 12.2428 10.811 11.8493 10.5752L11.79 10.5395L11.8559 10.5159C14.0426 9.73898 15.8493 6.1419 16.5243 4.63268L16.6273 4.40039Z" fill="#006D33"/>
<path d="M22.3555 10.6888C23.6268 11.4432 25.5954 11.2626 26.6564 11.0868L26.9015 11.0459C26.8516 11.0688 26.8002 11.0916 26.7517 11.1145C24.1094 12.2909 22.6668 11.7646 22.6668 11.7646C22.1828 13.8032 20.3588 14.3049 20.0675 14.3729C19.6751 14.0012 19.3811 13.5886 19.1904 13.1435L19.1699 13.0949L19.2226 13.0984C21.3098 13.2034 22.1592 11.1239 22.3087 10.7058L22.3222 10.668L22.3555 10.6888Z" fill="#006D33"/>
<path d="M21.5155 23.5262C21.9753 23.5463 22.4139 23.4617 22.8077 23.2932C23.549 23.9277 24.017 24.8589 23.9727 25.8751C23.8926 27.7002 22.1805 29.1075 20.3558 29.027C18.5311 28.947 17.1162 27.4017 17.1966 25.577C17.207 25.3433 17.2389 25.1179 17.2968 24.9012C18.433 24.7504 19.3795 23.9336 19.7401 22.8311C20.2241 23.2391 20.837 23.4964 21.5155 23.5262Z" stroke="black" stroke-miterlimit="10" stroke-linecap="round" stroke-linejoin="round"/>
<path d="M17.0605 18.7821C17.7577 18.8126 18.3884 19.0897 18.8745 19.5272C19.536 20.1211 19.9392 21.0083 19.8962 21.984C19.8886 22.1545 19.8664 22.321 19.8373 22.4832C19.8095 22.6046 19.7787 22.7183 19.7402 22.832C19.3796 23.9349 18.4331 24.7514 17.2969 24.9022C17.1326 24.9247 16.9613 24.932 16.7908 24.9244C15.1515 24.8523 13.7134 23.4103 13.7879 21.7153C13.8621 20.0202 15.4213 18.71 17.0605 18.7821Z" stroke="black" stroke-miterlimit="10" stroke-linecap="round" stroke-linejoin="round"/>
<path d="M21.7853 17.3843C23.4173 17.4561 24.6727 19.0721 24.6013 20.7002C24.5496 21.8724 23.8226 22.8585 22.8074 23.2932C22.4135 23.4617 21.975 23.5463 21.5152 23.5262C20.8364 23.4964 20.2234 23.2391 19.7397 22.8314C19.7782 22.718 19.8091 22.604 19.8368 22.4826C19.8663 22.3204 19.8885 22.1539 19.8958 21.9834C19.9388 21.0081 19.5355 20.1205 18.874 19.5266C19.3074 18.2937 20.4685 17.3264 21.7853 17.3843Z" stroke="black" stroke-miterlimit="10" stroke-linecap="round" stroke-linejoin="round"/>
<path d="M18.3695 19.1639C18.3695 19.1639 14.9399 14.0174 16.7137 4.10645C16.7137 4.10645 14.4604 9.71511 11.7041 10.5306C11.7041 10.5306 16.0667 12.729 13.0011 17.5441C13.0011 17.5441 15.8653 17.057 17.0604 18.7818" stroke="black" stroke-miterlimit="10" stroke-linecap="round" stroke-linejoin="round"/>
<path d="M16.7139 4.10645C16.7139 4.10645 16.569 7.28852 19.6942 9.34344C19.6942 9.34344 17.5544 12.3709 20.3089 14.6325C20.3089 14.6325 18.4495 16.6087 19.1114 19.0048" stroke="black" stroke-miterlimit="10" stroke-linecap="round" stroke-linejoin="round"/>
<path d="M19.1113 19.0057C19.1113 19.0057 21.3306 13.3294 27.2551 10.9364C27.2551 10.9364 24.0269 11.7141 22.3024 10.6182C22.3024 10.6182 21.5175 13.2594 19.1231 13.0611" stroke="black" stroke-miterlimit="10" stroke-linecap="round" stroke-linejoin="round"/>
<path d="M27.2549 10.9355C27.2549 10.9355 25.0484 12.8116 25.3723 15.7191C25.3723 15.7191 22.2689 15.3495 21.5176 17.3867" stroke="black" stroke-miterlimit="10" stroke-linecap="round" stroke-linejoin="round"/>
<path d="M20.6062 28.3019C20.116 28.3432 19.6136 28.2271 19.1913 27.9743C18.769 27.7216 18.4292 27.3336 18.2344 26.8818" stroke="black" stroke-width="0.5" stroke-miterlimit="10" stroke-linecap="round" stroke-linejoin="round"/>
<path d="M19.4526 27.4539C19.2678 27.388 19.1076 27.2548 19.0088 27.085" stroke="black" stroke-width="0.5" stroke-miterlimit="10" stroke-linecap="round" stroke-linejoin="round"/>
<path d="M19.7559 26.494C19.6779 26.4371 19.6148 26.3598 19.5742 26.2725" stroke="black" stroke-width="0.5" stroke-miterlimit="10" stroke-linecap="round" stroke-linejoin="round"/>
<path d="M18.2713 23.9763C17.8539 24.2807 17.3383 24.4478 16.8217 24.4457C16.3051 24.4436 15.7906 24.2727 15.376 23.9648" stroke="black" stroke-width="0.5" stroke-miterlimit="10" stroke-linecap="round" stroke-linejoin="round"/>
<path d="M17.1794 23.9053C16.9228 23.9725 16.6541 23.993 16.3906 23.9646" stroke="black" stroke-width="0.5" stroke-miterlimit="10" stroke-linecap="round" stroke-linejoin="round"/>
<path d="M16.9514 23.1082C16.7673 23.0898 16.5881 23.0243 16.4355 22.9199" stroke="black" stroke-width="0.5" stroke-miterlimit="10" stroke-linecap="round" stroke-linejoin="round"/>
<path d="M19.001 20.458C18.8176 20.0957 18.5181 19.7937 18.1575 19.6075C17.7969 19.4213 17.3771 19.3516 16.9756 19.4116" stroke="black" stroke-width="0.5" stroke-miterlimit="10" stroke-linecap="round" stroke-linejoin="round"/>
<path d="M17.9445 20.0315C17.7988 19.9542 17.638 19.9071 17.4736 19.8936" stroke="black" stroke-width="0.5" stroke-miterlimit="10" stroke-linecap="round" stroke-linejoin="round"/>
<path d="M17.2742 20.6455C17.1938 20.6736 17.113 20.702 17.0322 20.7301" stroke="black" stroke-width="0.5" stroke-miterlimit="10" stroke-linecap="round" stroke-linejoin="round"/>
<path d="M16.4678 21.1101C16.4443 21.101 16.421 21.092 16.3975 21.083" stroke="black" stroke-width="0.5" stroke-miterlimit="10" stroke-linecap="round" stroke-linejoin="round"/>
<path d="M20.4209 22.6705C20.7773 22.9409 21.2329 23.0768 21.6791 23.0463C22.1253 23.0158 22.5583 22.8185 22.8742 22.502" stroke="black" stroke-width="0.5" stroke-miterlimit="10" stroke-linecap="round" stroke-linejoin="round"/>
<path d="M21.3467 22.2774C21.5436 22.2909 21.7444 22.2306 21.9014 22.1113" stroke="black" stroke-width="0.5" stroke-miterlimit="10" stroke-linecap="round" stroke-linejoin="round"/>
<path d="M22.0693 20.999C22.1994 20.9332 22.329 20.8676 22.459 20.8018" stroke="black" stroke-width="0.5" stroke-miterlimit="10" stroke-linecap="round" stroke-linejoin="round"/>
<path d="M14.9717 10.185C15.0334 10.1347 15.0854 10.072 15.1235 10.002" stroke="black" stroke-width="0.5" stroke-miterlimit="10" stroke-linecap="round" stroke-linejoin="round"/>
<path d="M15.0703 11.7379C15.1608 11.5607 15.2638 11.3898 15.3785 11.2275" stroke="black" stroke-width="0.5" stroke-miterlimit="10" stroke-linecap="round" stroke-linejoin="round"/>
<path d="M17.6338 8.73161C17.6768 8.67024 17.7198 8.60922 17.7628 8.54785" stroke="black" stroke-width="0.5" stroke-miterlimit="10" stroke-linecap="round" stroke-linejoin="round"/>
<path d="M18.7969 14.7109C18.896 14.6453 18.982 14.56 19.0482 14.4619" stroke="black" stroke-width="0.5" stroke-miterlimit="10" stroke-linecap="round" stroke-linejoin="round"/>
<path d="M18.249 13.6388C18.3055 13.5885 18.3506 13.5257 18.3804 13.4561" stroke="black" stroke-width="0.5" stroke-miterlimit="10" stroke-linecap="round" stroke-linejoin="round"/>
<path d="M24.9718 14.9133C24.9111 14.292 25.0266 13.6544 25.3008 13.0938" stroke="black" stroke-width="0.5" stroke-miterlimit="10" stroke-linecap="round" stroke-linejoin="round"/>
<path d="M24.5459 14.5123C24.5518 14.3778 24.5577 14.2429 24.5636 14.1084" stroke="black" stroke-width="0.5" stroke-miterlimit="10" stroke-linecap="round" stroke-linejoin="round"/>
<path d="M24.0205 14.5368C24.0243 14.4498 24.0281 14.3624 24.0319 14.2754" stroke="black" stroke-width="0.5" stroke-miterlimit="10" stroke-linecap="round" stroke-linejoin="round"/>
<path d="M23.5518 14.8969C23.5542 14.8414 23.5566 14.7859 23.559 14.7305" stroke="black" stroke-width="0.5" stroke-miterlimit="10" stroke-linecap="round" stroke-linejoin="round"/>
<path d="M21.3154 16.9891C21.486 16.6754 21.6916 16.3807 21.9277 16.1123" stroke="black" stroke-width="0.5" stroke-miterlimit="10" stroke-linecap="round" stroke-linejoin="round"/>
<path d="M8.77744 17.4712L8.79651 17.4788L8.81419 17.468C8.9033 17.414 9.00072 17.3595 9.103 17.3051L9.16471 17.2725L9.10681 17.2337C8.62246 16.9112 7.04218 15.7928 7.04148 14.9399C7.04114 14.7027 7.16283 14.5051 7.40275 14.3532C7.55287 14.2582 7.70473 14.21 7.85486 14.21C7.94847 14.21 8.04277 14.2288 8.13569 14.2659C9.02464 14.6209 9.60087 16.5916 9.70731 16.983L9.7191 17.0267L9.76174 17.0111C9.92088 16.9532 10.0811 16.9043 10.2381 16.8662L10.2738 16.8575L10.2693 16.8211C9.99334 14.5023 9.10369 13.1099 7.82885 13.0007C7.77719 12.9962 7.72553 12.9941 7.67457 12.9941C6.71454 12.9941 5.90324 13.7413 5.70181 14.4337C5.24138 16.0185 8.41409 17.3273 8.77744 17.4712Z" fill="#E8B21A"/>
<path d="M23.3677 29.5342C23.4925 28.7534 23.5227 27.9591 23.461 27.1749L23.4509 27.0566L23.3843 27.1548C22.442 28.5468 21.4012 29.6625 20.3188 30.5532C17.3797 32.9725 14.1245 33.7401 11.6137 33.9051C11.2208 33.9318 10.8176 33.945 10.4147 33.945C9.78686 33.945 9.18914 33.9135 8.63649 33.8618C6.82842 33.6954 5.47626 33.3258 5.02658 33.1909L4.92188 33.1594L4.97839 33.2526C5.51301 34.1135 6.1721 34.8877 6.93971 35.552L6.94803 35.5586L6.95947 35.562L6.9463 35.5603L7.06937 35.6619C8.13515 36.5543 9.35209 37.2037 10.6876 37.5917C11.3321 37.7799 11.9912 37.9013 12.6572 37.9547C12.9287 37.9779 13.2033 37.9897 13.4765 37.9897C15.4912 37.9897 17.4095 37.3736 19.0162 36.3012C20.9394 35.0226 22.4195 33.0876 23.0924 30.773C23.1891 30.4384 23.2706 30.0851 23.3355 29.7239L23.3687 29.5391L23.3653 29.5425L23.3677 29.5342Z" fill="#C92C1E"/>
<path d="M23.4373 26.9117C23.2958 25.5946 22.8978 24.3326 22.2519 23.1586C22.0355 22.7641 21.7838 22.3726 21.5058 21.9982L21.4024 21.8602L21.3958 21.8536C21.0412 21.3925 20.6414 20.9595 20.2087 20.5649L20.1321 20.4966V20.4949L20.1189 20.4831C20.0791 20.4463 20.0375 20.4117 19.9941 20.3766L19.9043 20.3018L19.8776 20.3319C19.3849 20.8863 18.8285 21.4043 18.2176 21.8803C17.943 22.0967 17.6566 22.3033 17.3602 22.4999L17.3002 22.5415L17.2801 22.5547C16.819 22.8577 16.3228 23.1441 15.8083 23.4072L15.7882 23.4173V23.419L15.7182 23.454C14.5727 24.0285 13.2937 24.508 11.9152 24.8759L11.8368 24.896V24.8977L11.8167 24.9026C11.046 25.104 10.2298 25.2756 9.39218 25.4105L9.37068 25.4153L7.79871 28.8269L9.36895 25.4153L9.29233 25.4271C8.19327 25.6001 7.18262 25.692 6.35017 25.7385C5.90535 25.7634 5.51114 25.7752 5.18108 25.7801L5.09128 25.7818H5.07118C4.96786 25.7835 4.86974 25.7853 4.77647 25.7853C4.26855 25.7853 3.92046 25.7704 3.7575 25.7603L3.72249 25.7586L3.7159 25.7936C3.64274 26.1167 3.58623 26.4447 3.54601 26.7661L3.54428 26.7845V26.7862L3.53423 26.876C3.44755 27.6485 3.45102 28.4261 3.54428 29.1854L3.54601 29.1986L3.54775 29.2003L3.56612 29.3317C3.74745 30.644 4.17875 31.8911 4.85171 33.0384L4.86003 33.0515L4.87494 33.0564C5.05973 33.1164 6.06206 33.4312 7.5373 33.6475L7.65206 33.6659V33.6642L7.66697 33.6659C7.96999 33.7092 8.27301 33.7443 8.57603 33.7723C8.72269 33.7872 8.869 33.799 9.01566 33.8105L9.04547 33.8122L9.10372 33.8157C9.54681 33.8458 9.98955 33.8621 10.4226 33.8621C10.8223 33.8621 11.2235 33.849 11.6146 33.8223C13.4112 33.704 15.1212 33.3078 16.6966 32.6466L16.7666 32.6164L16.7881 32.6064C17.1979 32.4316 17.6057 32.2333 18.0019 32.017L18.022 32.0069L18.0921 31.967C18.8798 31.5309 19.6273 31.0195 20.3283 30.4353C21.1161 29.7811 21.8434 29.0367 22.5077 28.2056L22.541 28.164L22.5611 28.1391C22.8707 27.7476 23.1623 27.343 23.4303 26.9384L23.4386 26.9266L23.4373 26.9117Z" fill="white"/>
<path d="M11.0019 16.8379L10.9853 16.8396C9.57834 16.8996 8.40266 17.8319 8.18111 18.0202L8.1662 18.0319L8.10449 19.4371L8.17106 19.3955C8.32083 19.304 8.47235 19.2156 8.619 19.1359C9.7562 18.5097 10.9801 18.1152 12.2587 17.9588L12.3555 17.947L11.0019 16.8379Z" fill="#E8B21A"/>
<path d="M19.8086 20.2205C18.7678 19.3714 17.579 18.7487 16.2788 18.3705L16.2538 18.3639H16.2521L16.189 18.3455C15.3032 18.0959 14.3924 17.9707 13.485 17.9707C11.3805 17.9707 9.3641 18.6301 7.69401 19.8141C6.73329 20.4951 5.88732 21.3494 5.20466 22.3534L5.16306 22.4134L5.14988 22.4335C4.58544 23.2812 4.15414 24.2083 3.86949 25.1874C3.82615 25.3341 3.78975 25.4804 3.753 25.627L3.74121 25.6769L3.79114 25.6787C3.9527 25.687 4.29386 25.7019 4.78029 25.7019C5.21991 25.7019 5.75107 25.6901 6.35365 25.6586C9.47054 25.487 14.4628 24.7263 18.1708 21.8157C18.7536 21.3594 19.3049 20.8501 19.8124 20.2805L19.8423 20.2472L19.8086 20.2205ZM13.6026 19.0067L13.6043 19.0049L14.2322 19.0347L13.6026 19.0067Z" fill="#C92C1E"/>
<path d="M3.79016 25.678L3.74023 25.6763L3.75202 25.6264C3.78877 25.4797 3.82518 25.3334 3.86852 25.1867C4.15316 24.2076 4.58447 23.2802 5.1489 22.4328L5.16208 22.4127L5.20368 22.3528C5.88635 21.3487 6.73231 20.4944 7.69303 19.8135C7.43509 20.3779 6.46916 22.669 6.35267 25.6579C5.75009 25.6895 5.21894 25.7012 4.77931 25.7012C4.29289 25.7016 3.95173 25.6867 3.79016 25.678Z" fill="#A3180B"/>
<path d="M7.5373 33.6473C6.06206 33.431 5.05973 33.1162 4.87494 33.0562L4.86003 33.0514L4.85171 33.0382C4.1791 31.8909 3.7478 30.6438 3.56612 29.3315L3.54775 29.2001L3.54601 29.1984L3.54428 29.1852C3.45102 28.4259 3.44755 27.6483 3.53423 26.8758L3.54428 26.786V26.7843L3.54601 26.7659C3.58588 26.4445 3.64274 26.1165 3.7159 25.7934L3.72249 25.7584L3.7575 25.7601C3.9208 25.7702 4.2689 25.7851 4.77647 25.7851C4.86974 25.7851 4.96786 25.7834 5.07118 25.7816H5.09128L5.18108 25.7799C5.5108 25.775 5.90535 25.7632 6.35017 25.7383C6.27009 28.1493 6.74299 31.0034 8.57638 33.7722C8.27335 33.7437 7.97033 33.7087 7.66731 33.6657L7.65241 33.664V33.6657L7.5373 33.6473Z" fill="#E2E2E2"/>
<path d="M12.6572 37.9545C11.9912 37.9011 11.3318 37.7797 10.6876 37.5915C9.35209 37.2035 8.13515 36.5541 7.06937 35.6617L6.94629 35.5601L6.95947 35.5619L6.94803 35.5584L6.93971 35.5518C6.1721 34.8875 5.51266 34.113 4.97839 33.2524L4.92188 33.1592L5.02658 33.1907C5.47626 33.3256 6.82807 33.6952 8.63649 33.8616C9.58508 35.272 10.8904 36.6592 12.6572 37.9545Z" fill="#A3180B"/>
<path d="M18.1701 21.8144C17.9437 21.4964 17.7073 21.2 17.4673 20.9268C15.5858 18.772 13.4844 17.9697 13.4844 17.9697C14.3921 17.9697 15.3025 18.0945 16.1883 18.3445L16.2514 18.3629H16.2532L16.2781 18.3695C17.5786 18.7474 18.7675 19.3701 19.808 20.2195L19.8412 20.2462L19.8114 20.2795C19.3042 20.8488 18.7529 21.3584 18.1701 21.8144Z" fill="#DE5547"/>
<path d="M19.6487 24.6585C19.2673 23.5844 18.7677 22.6636 18.2168 21.8793C18.828 21.403 19.3842 20.8853 19.8768 20.3309L19.9035 20.3008L19.9933 20.3757C20.0367 20.4107 20.0783 20.4457 20.1181 20.4821L20.1313 20.4939V20.4956L20.2079 20.5639C20.641 20.9585 21.0404 21.3915 21.3951 21.8526L21.4016 21.8592L21.505 21.9972C21.783 22.372 22.0344 22.7631 22.2511 23.1576C22.897 24.3316 23.295 25.5936 23.4365 26.9107L23.4382 26.9256L23.4299 26.9374C23.1619 27.342 22.8703 27.7466 22.5607 28.1381L22.5406 28.163L22.5073 28.2046C21.843 29.0354 21.1153 29.7797 20.3279 30.4343C20.4212 29.242 20.383 28.153 20.2481 27.1607C20.1733 26.6063 20.0668 26.0835 19.9351 25.5887C19.8501 25.2663 19.7534 24.9567 19.6487 24.6585Z" fill="white"/>
<path d="M23.3647 29.5425L23.3682 29.5391L23.3349 29.7239C23.2701 30.0851 23.1882 30.4381 23.0919 30.773C22.4192 33.0876 20.9388 35.0222 19.0156 36.3012C19.7697 34.1631 20.1747 32.2534 20.3179 30.5532C21.4003 29.6625 22.4407 28.5468 23.3834 27.1548L23.45 27.0566L23.4601 27.1749C23.5218 27.9591 23.4916 28.7534 23.3668 29.5342L23.3647 29.5425Z" fill="#DE5547"/>
<path d="M16.6152 37.5275C21.8892 35.7961 24.7611 30.1172 23.0298 24.8431C21.2984 19.5691 15.6194 16.6972 10.3454 18.4286C5.07134 20.1599 2.19945 25.8389 3.93081 31.1129C5.66218 36.387 11.3412 39.2589 16.6152 37.5275Z" stroke="black" stroke-miterlimit="10" stroke-linecap="round" stroke-linejoin="round"/>
<path d="M3.68848 25.7148C3.68848 25.7148 14.4083 26.5001 19.9012 20.2441" stroke="black" stroke-miterlimit="10" stroke-linecap="round" stroke-linejoin="round"/>
<path d="M4.82324 33.0828C4.82324 33.0828 16.7049 37.2138 23.4781 26.9434" stroke="black" stroke-miterlimit="10" stroke-linecap="round" stroke-linejoin="round"/>
<path d="M8.05957 19.5171L8.12579 18.0117C8.12579 18.0117 9.42698 16.8489 11.0152 16.7969L12.4603 17.9791" stroke="black" stroke-miterlimit="10" stroke-linecap="round" stroke-linejoin="round"/>
<path d="M8.80183 17.5256C8.80183 17.5256 5.1576 16.1537 5.66102 14.4219C6.16444 12.6901 9.70951 11.4676 10.3197 16.889" stroke="black" stroke-miterlimit="10" stroke-linecap="round" stroke-linejoin="round"/>
<path d="M9.68974 17.0829C9.68974 17.0829 8.79558 13.5191 7.42401 14.3886C6.05244 15.2582 9.24942 17.2781 9.24942 17.2781" stroke="black" stroke-miterlimit="10" stroke-linecap="round" stroke-linejoin="round"/>
<path d="M5.11133 22.4082C5.11133 22.4082 12.0711 23.0811 16.2846 18.3281" stroke="black" stroke-width="0.5" stroke-miterlimit="10" stroke-linecap="round" stroke-linejoin="round"/>
<path d="M3.50488 26.7422L8.25892 31.8825L10.5957 26.4933L16.3531 30.6559L17.1779 24.3933L22.1962 26.5699L21.388 21.7764" stroke="black" stroke-width="0.5" stroke-miterlimit="10" stroke-linecap="round" stroke-linejoin="round"/>
<path d="M3.49414 29.1416L7.69865 33.7147" stroke="black" stroke-width="0.5" stroke-miterlimit="10" stroke-linecap="round" stroke-linejoin="round"/>
<path d="M9.02637 33.8537L11.2248 28.7471L16.8169 32.6513" stroke="black" stroke-width="0.5" stroke-miterlimit="10" stroke-linecap="round" stroke-linejoin="round"/>
<path d="M18.0146 32.072L18.6197 26.4502L22.5829 28.1823" stroke="black" stroke-width="0.5" stroke-miterlimit="10" stroke-linecap="round" stroke-linejoin="round"/>
<path d="M5.05762 25.7458L7.79798 28.8276L9.38278 25.3838" stroke="black" stroke-width="0.5" stroke-miterlimit="10" stroke-linecap="round" stroke-linejoin="round"/>
<path d="M11.8096 24.8752L15.287 27.697L15.7911 23.3809" stroke="black" stroke-width="0.5" stroke-miterlimit="10" stroke-linecap="round" stroke-linejoin="round"/>
<path d="M17.2627 22.5235L20.3404 23.98L20.1289 20.4395" stroke="black" stroke-width="0.5" stroke-miterlimit="10" stroke-linecap="round" stroke-linejoin="round"/>
<path d="M6.85254 35.5396C6.85254 35.5396 17.6247 38.0663 23.4209 29.4639" stroke="black" stroke-width="0.5" stroke-miterlimit="10" stroke-linecap="round" stroke-linejoin="round"/>
<path d="M4.45703 24.6375C4.62276 24.1975 4.83494 23.7748 5.08873 23.3789" stroke="black" stroke-width="0.5" stroke-miterlimit="10" stroke-linecap="round" stroke-linejoin="round"/>
<path d="M5.27051 24.0099C5.33049 23.91 5.39047 23.8102 5.45045 23.71" stroke="black" stroke-width="0.5" stroke-miterlimit="10" stroke-linecap="round" stroke-linejoin="round"/>
<path d="M5.87012 24.3091C5.96997 24.1593 6.06982 24.0095 6.17002 23.8594" stroke="black" stroke-width="0.5" stroke-miterlimit="10" stroke-linecap="round" stroke-linejoin="round"/>
<path d="M6.23242 34.168C6.50008 34.5251 6.80969 34.8506 7.15327 35.136" stroke="black" stroke-width="0.5" stroke-miterlimit="10" stroke-linecap="round" stroke-linejoin="round"/>
<path d="M7.48828 34.6191C7.6183 34.719 7.74796 34.8188 7.87798 34.9187" stroke="black" stroke-width="0.5" stroke-miterlimit="10" stroke-linecap="round" stroke-linejoin="round"/>
<path d="M8.65723 34.8291C8.71617 34.8925 8.78794 34.9439 8.86699 34.9789" stroke="black" stroke-width="0.5" stroke-miterlimit="10" stroke-linecap="round" stroke-linejoin="round"/>
<path d="M10.334 37.0527C11.4743 37.4085 12.6871 37.5284 13.8752 37.4039" stroke="black" stroke-width="0.5" stroke-miterlimit="10" stroke-linecap="round" stroke-linejoin="round"/>
<path d="M11.7148 36.8955C12.0778 36.9811 12.4603 36.9832 12.8243 36.9011" stroke="black" stroke-width="0.5" stroke-miterlimit="10" stroke-linecap="round" stroke-linejoin="round"/>
<path d="M20.1953 34.6784C20.6845 34.2013 21.1179 33.6674 21.4847 33.0908" stroke="black" stroke-width="0.5" stroke-miterlimit="10" stroke-linecap="round" stroke-linejoin="round"/>
<path d="M22.9834 29.1643C22.9834 28.9445 22.9834 28.7247 22.9834 28.5049" stroke="black" stroke-width="0.5" stroke-miterlimit="10" stroke-linecap="round" stroke-linejoin="round"/>
<path d="M20.6758 33.4802C20.7358 33.4004 20.7957 33.3203 20.8557 33.2402" stroke="black" stroke-width="0.5" stroke-miterlimit="10" stroke-linecap="round" stroke-linejoin="round"/>
<path d="M22.4444 29.7939C22.4357 29.6338 22.4458 29.4722 22.4746 29.3145" stroke="black" stroke-width="0.5" stroke-miterlimit="10" stroke-linecap="round" stroke-linejoin="round"/>
<path d="M21.9951 30.3035C21.9951 30.2036 21.9951 30.1038 21.9951 30.0039" stroke="black" stroke-width="0.5" stroke-miterlimit="10" stroke-linecap="round" stroke-linejoin="round"/>
<path d="M21.4854 30.7531C21.4854 30.6331 21.4854 30.5132 21.4854 30.3936" stroke="black" stroke-width="0.5" stroke-miterlimit="10" stroke-linecap="round" stroke-linejoin="round"/>
<path d="M16.665 18.8691C17.503 19.1593 18.2866 19.6049 18.9647 20.1762" stroke="black" stroke-width="0.5" stroke-miterlimit="10" stroke-linecap="round" stroke-linejoin="round"/>
<path d="M17.71 20.0518C17.9156 20.2036 18.1364 20.3354 18.3673 20.4446" stroke="black" stroke-width="0.5" stroke-miterlimit="10" stroke-linecap="round" stroke-linejoin="round"/>
<path d="M17.1396 20.7725C17.3095 20.8526 17.4794 20.9323 17.6493 21.0124" stroke="black" stroke-width="0.5" stroke-miterlimit="10" stroke-linecap="round" stroke-linejoin="round"/>
<path d="M12.3154 18.5342C13.1565 18.3518 14.0462 18.3983 14.8637 18.6673" stroke="black" stroke-width="0.5" stroke-miterlimit="10" stroke-linecap="round" stroke-linejoin="round"/>
<path d="M13.6025 19.0039C13.8123 19.014 14.0221 19.024 14.2318 19.0337" stroke="black" stroke-width="0.5" stroke-miterlimit="10" stroke-linecap="round" stroke-linejoin="round"/>
<path d="M13.1533 19.7539C13.2858 19.8156 13.4279 19.8562 13.5728 19.8739" stroke="black" stroke-width="0.5" stroke-miterlimit="10" stroke-linecap="round" stroke-linejoin="round"/>
<path d="M8.62695 18.6751C8.66162 18.4875 8.67168 18.2958 8.65712 18.1055" stroke="black" stroke-width="0.5" stroke-miterlimit="10" stroke-linecap="round" stroke-linejoin="round"/>
<path d="M9.10449 18.1047C9.12425 18.0448 9.14436 17.9848 9.16447 17.9248" stroke="black" stroke-width="0.5" stroke-miterlimit="10" stroke-linecap="round" stroke-linejoin="round"/>
<path d="M9.70857 18.0146C9.68951 17.9244 9.67044 17.8343 9.65137 17.7441" stroke="black" stroke-width="0.5" stroke-miterlimit="10" stroke-linecap="round" stroke-linejoin="round"/>
<path d="M10.9346 17.4463C11.0441 17.5163 11.154 17.5867 11.2639 17.6567" stroke="black" stroke-width="0.5" stroke-miterlimit="10" stroke-linecap="round" stroke-linejoin="round"/>
<path d="M10.5459 17.7158C10.566 17.7359 10.5858 17.7557 10.6059 17.7758" stroke="black" stroke-width="0.5" stroke-miterlimit="10" stroke-linecap="round" stroke-linejoin="round"/>
<path d="M6.56055 21.5828C7.15029 20.8665 7.87456 20.2608 8.68412 19.8076" stroke="black" stroke-width="0.5" stroke-miterlimit="10" stroke-linecap="round" stroke-linejoin="round"/>
<path d="M8.08789 21.132C8.22553 20.9978 8.37635 20.8772 8.53757 20.7725" stroke="black" stroke-width="0.5" stroke-miterlimit="10" stroke-linecap="round" stroke-linejoin="round"/>
<path d="M11.1748 23.4404C11.1876 23.5736 11.2181 23.7046 11.2646 23.8301" stroke="black" stroke-width="0.5" stroke-miterlimit="10" stroke-linecap="round" stroke-linejoin="round"/>
<path d="M11.9561 22.9297C12.0108 23.1537 12.1239 23.3634 12.2806 23.5326" stroke="black" stroke-width="0.5" stroke-miterlimit="10" stroke-linecap="round" stroke-linejoin="round"/>
<path d="M14.4121 21.5518C14.6118 21.7615 14.8119 21.9713 15.0116 22.181" stroke="black" stroke-width="0.5" stroke-miterlimit="10" stroke-linecap="round" stroke-linejoin="round"/>
<path d="M10.0029 32.9095C10.4928 31.9419 10.9158 30.9406 11.2681 29.915" stroke="black" stroke-width="0.5" stroke-miterlimit="10" stroke-linecap="round" stroke-linejoin="round"/>
<path d="M11.5049 31.9218C11.5468 31.7463 11.6072 31.5751 11.6848 31.4121" stroke="black" stroke-width="0.5" stroke-miterlimit="10" stroke-linecap="round" stroke-linejoin="round"/>
<path d="M12.2539 32.3412C12.3239 32.1314 12.3936 31.9217 12.4637 31.7119" stroke="black" stroke-width="0.5" stroke-miterlimit="10" stroke-linecap="round" stroke-linejoin="round"/>
<path d="M18.7002 30.4242C18.8774 29.3643 18.9731 28.2912 18.9866 27.2168" stroke="black" stroke-width="0.5" stroke-miterlimit="10" stroke-linecap="round" stroke-linejoin="round"/>
<path d="M19.7168 29.2241C19.7168 28.9443 19.7168 28.6646 19.7168 28.3848" stroke="black" stroke-width="0.5" stroke-miterlimit="10" stroke-linecap="round" stroke-linejoin="round"/>
<path d="M20.4629 28.9846C20.4924 28.8147 20.5215 28.6448 20.551 28.4746" stroke="black" stroke-width="0.5" stroke-miterlimit="10" stroke-linecap="round" stroke-linejoin="round"/>
<path d="M21.2158 28.5955C21.2158 28.5255 21.2158 28.4558 21.2158 28.3857" stroke="black" stroke-width="0.5" stroke-miterlimit="10" stroke-linecap="round" stroke-linejoin="round"/>
<path d="M15.042 26.2879C15.094 25.77 15.1235 25.2499 15.1304 24.7295" stroke="black" stroke-width="0.5" stroke-miterlimit="10" stroke-linecap="round" stroke-linejoin="round"/>
<path d="M14.5918 25.5976C14.5918 25.4076 14.5918 25.218 14.5918 25.0283" stroke="black" stroke-width="0.5" stroke-miterlimit="10" stroke-linecap="round" stroke-linejoin="round"/>
<path d="M7.78906 27.5468C7.93884 27.0957 8.11878 26.6547 8.3275 26.2275" stroke="black" stroke-width="0.5" stroke-miterlimit="10" stroke-linecap="round" stroke-linejoin="round"/>
<path d="M7.54785 26.7072C7.57767 26.5803 7.62863 26.4583 7.69763 26.3477" stroke="black" stroke-width="0.5" stroke-miterlimit="10" stroke-linecap="round" stroke-linejoin="round"/>
<path d="M4.6416 31.4121C4.95121 31.6617 5.26117 31.9117 5.57077 32.1613" stroke="black" stroke-width="0.5" stroke-miterlimit="10" stroke-linecap="round" stroke-linejoin="round"/>
<path d="M5.12012 32.4912C5.20991 32.571 5.30006 32.651 5.38985 32.7308" stroke="black" stroke-width="0.5" stroke-miterlimit="10" stroke-linecap="round" stroke-linejoin="round"/>
<path d="M17.7969 24.0156C18.8516 24.3138 19.8768 24.7156 20.8531 25.2135" stroke="black" stroke-width="0.5" stroke-miterlimit="10" stroke-linecap="round" stroke-linejoin="round"/>
<path d="M18.3379 22.4209C18.6967 22.5114 19.0476 22.6324 19.386 22.7825" stroke="black" stroke-width="0.5" stroke-miterlimit="10" stroke-linecap="round" stroke-linejoin="round"/>
<path d="M19.0889 22.0889C19.2615 22.1683 19.4418 22.231 19.6263 22.2754" stroke="black" stroke-width="0.5" stroke-miterlimit="10" stroke-linecap="round" stroke-linejoin="round"/>
<path d="M11.2334 26.2588C11.9941 26.8163 12.7547 27.3738 13.5154 27.9316" stroke="black" stroke-width="0.5" stroke-miterlimit="10" stroke-linecap="round" stroke-linejoin="round"/>
<path d="M14.502 28.625C14.5619 28.6749 14.6219 28.7249 14.6819 28.7748" stroke="black" stroke-width="0.5" stroke-miterlimit="10" stroke-linecap="round" stroke-linejoin="round"/>
<path d="M4.65137 26.8789C5.38534 27.7869 6.15989 28.6624 6.97118 29.5021" stroke="black" stroke-width="0.5" stroke-miterlimit="10" stroke-linecap="round" stroke-linejoin="round"/>
<path d="M5.06055 29.5244C5.24673 29.7279 5.44713 29.9183 5.66 30.0941" stroke="black" stroke-width="0.5" stroke-miterlimit="10" stroke-linecap="round" stroke-linejoin="round"/>
<path d="M14.5908 30.3359C15.0991 30.7073 15.6302 31.0474 16.1801 31.3539" stroke="black" stroke-width="0.5" stroke-miterlimit="10" stroke-linecap="round" stroke-linejoin="round"/>
<path d="M19.5361 26.1104C19.7657 26.2105 19.9955 26.3111 20.225 26.4113" stroke="black" stroke-width="0.5" stroke-miterlimit="10" stroke-linecap="round" stroke-linejoin="round"/>
<path d="M21.7852 27.0967C21.875 27.1466 21.9651 27.1965 22.0549 27.2465" stroke="black" stroke-width="0.5" stroke-miterlimit="10" stroke-linecap="round" stroke-linejoin="round"/>
<path d="M14.7119 31.9219C14.7518 31.9517 14.7917 31.9819 14.8319 32.0117" stroke="black" stroke-width="0.5" stroke-miterlimit="10" stroke-linecap="round" stroke-linejoin="round"/>
<path d="M64.0172 16.4007C63.769 15.613 63.2063 15.0104 62.3405 14.6058C62.3024 14.5874 62.0476 14.4661 61.6697 14.3995C61.5133 14.3697 61.3368 14.3496 61.1468 14.3496C60.3841 14.3496 59.3152 14.6727 58.5542 16.2128C58.1062 17.1153 58.0313 17.9144 58.3278 18.5871C58.5743 19.1449 59.0371 19.5162 59.4299 19.7475C59.8047 19.9673 60.1161 20.0588 60.1209 20.0606C60.1476 20.0706 60.3955 20.1573 60.7502 20.1573C61.2599 20.1573 61.999 19.9808 62.63 19.1383C62.6366 19.1283 62.6484 19.1234 62.6633 19.1217C62.6699 19.1217 62.6817 19.1234 62.6918 19.1317C62.6966 19.1352 63.1931 19.553 63.3793 20.0876L63.4108 20.1791L63.4559 20.0925C63.7738 19.4562 64.4648 17.8243 64.0172 16.4007Z" fill="white"/>
<path d="M53.8897 32.4972L53.888 32.4573C53.878 32.1293 53.8679 31.7948 53.8596 31.455C53.8246 29.9929 53.4664 28.9424 52.7973 28.3346C52.2994 27.8832 51.7665 27.8166 51.5602 27.8083L51.512 27.8066L51.5186 27.8565C51.6053 28.5059 51.6136 28.974 51.6136 29.1452V29.1917L52.2464 29.1216C52.2679 29.1216 52.2862 29.1383 52.288 29.1598C52.2914 29.1813 52.2748 29.2031 52.2512 29.2049C52.1063 29.2215 51.9631 29.2364 51.8182 29.253L51.5751 29.2797L51.5717 29.278L51.5616 29.2797C50.0163 29.4479 48.4978 29.5977 47.0076 29.7277C41.8341 30.1822 36.9937 30.4104 32.5663 30.4104C28.8014 30.4104 25.7642 30.2471 23.3865 30.0259C22.439 29.9392 21.5965 29.8428 20.8556 29.7443C19.0638 29.5079 17.8583 29.2596 17.1791 29.0998L17.1673 29.0963H17.1624C16.7363 28.9948 16.5346 28.9313 16.5332 28.9313C16.5214 28.9278 16.5131 28.9195 16.5082 28.9098C16.5034 28.8998 16.5016 28.8897 16.5051 28.8783C16.5099 28.8633 16.5252 28.8516 16.5515 28.8516H16.5581C16.5831 28.8599 16.7429 28.9067 17.0175 28.9746L17.0959 28.9948L17.0674 28.9199C16.9957 28.7399 16.856 28.3603 16.7079 27.8326L16.7031 27.8125L16.6847 27.8042C16.6133 27.7757 16.4666 27.7275 16.2835 27.7275C16.0852 27.7275 15.9004 27.7841 15.7357 27.8957C15.258 28.2171 14.7268 29.1778 14.9147 31.9168C14.983 32.9125 14.9997 33.7866 15.0163 34.5594C15.0846 37.8895 15.1131 39.2666 18.776 39.7527C19.0142 39.7843 19.2888 39.8227 19.5984 39.8661C20.3442 39.9694 21.2619 40.0977 22.3356 40.2291C25.2379 40.582 29.2708 40.9634 34.0678 40.9634C38.7883 40.9634 43.3825 40.5872 47.7749 39.8446C49.0553 39.6282 50.319 39.38 51.563 39.1002C54.0797 38.5378 53.9965 35.872 53.8897 32.4972ZM16.0076 31.4515L16.0093 31.4116V31.4515C16.0211 31.5264 16.0325 31.6013 16.0426 31.6762C16.0308 31.6013 16.019 31.5264 16.0076 31.4515ZM16.0939 34.9897C16.1171 34.783 16.1355 34.575 16.1504 34.367C16.1372 34.575 16.1189 34.783 16.0939 34.9897ZM47.7523 32.96H47.7541L47.8338 33.5595L47.7523 32.96Z" fill="white"/>
<path d="M58.5589 16.0229H58.4923C54.3963 15.9629 52.8278 13.2388 51.0111 10.0834C49.1846 6.91141 47.1148 3.31642 41.9381 1.77461C41.234 1.56486 40.5759 1.40329 39.9602 1.28333C39.9602 1.28333 39.9584 1.28333 39.9536 1.28333C39.1277 1.12523 38.3733 1.04688 37.6774 1.04688C34.1306 1.04688 32.3208 3.09487 29.8148 5.93058C27.9981 7.98863 25.7372 10.548 22.1506 13.1088C17.4367 16.4722 16.3443 20.6216 16.2562 23.5107C16.1695 26.3863 17.0186 28.5875 17.1902 28.9987L17.1968 29.0188L17.2183 29.0237C18.1707 29.2483 20.1622 29.6446 23.3557 29.941C25.7351 30.1609 28.7806 30.3273 32.5604 30.3273C37.001 30.3273 41.8532 30.0974 47.0333 29.6429C48.4954 29.5146 49.9821 29.3683 51.4941 29.205L51.5305 29.2001V29.1634C51.5339 28.6704 51.459 24.2547 48.097 21.2644C47.7839 20.988 47.4958 20.6767 47.2296 20.3321C47.2247 20.3272 47.2195 20.322 47.2129 20.3071C46.2356 19.0167 45.8857 17.5713 45.7859 16.4226C45.6777 15.2071 45.8507 14.323 45.8542 14.3063C45.8576 14.2879 45.8743 14.2748 45.901 14.2748H45.9027C45.9259 14.2796 45.9391 14.3015 45.936 14.323C45.9325 14.3396 45.7578 15.2403 45.8743 16.4694C45.979 17.5966 46.3288 19.0038 47.2795 20.2575L47.2861 20.2676L47.2979 20.2724C47.4726 20.3324 49.0629 20.867 51.2839 20.867C52.5595 20.867 53.7899 20.6989 54.967 20.3626C56.1441 20.0263 57.2681 19.5232 58.3287 18.8575L58.362 18.8374L58.3419 18.8024C58.3086 18.7442 58.2788 18.6842 58.2503 18.6211C58.1553 18.4065 58.0988 18.1797 58.0773 17.9415C58.0274 17.4086 58.1623 16.8175 58.4785 16.1765C58.4888 16.1577 58.5589 16.0229 58.5589 16.0229ZM36.6547 14.5043C36.6505 14.653 36.6498 14.8014 36.6522 14.9501C36.6495 14.8011 36.6505 14.6523 36.6547 14.5043ZM36.6547 14.5008C36.6581 14.4058 36.6613 14.3108 36.6665 14.2179C36.6665 14.2179 36.6665 14.2179 36.6682 14.2179C36.663 14.3126 36.6578 14.4076 36.6547 14.5008ZM31.2048 21.531H31.2065C31.3296 21.7941 31.4728 22.0455 31.6326 22.2854C31.4711 22.0455 31.3279 21.7941 31.2048 21.531ZM47.3894 19.501H47.3877L47.3894 19.4611V19.501Z" fill="#C92C1E"/>
<path d="M20.6968 33.8794C21.1046 36.6701 21.1146 39.1411 22.3367 40.2301C21.2627 40.0987 20.3453 39.9704 19.5995 39.8671C19.2899 39.8237 19.015 39.7856 18.7771 39.7537C15.1138 39.2676 15.0857 37.8905 15.0174 34.5604C15.0008 33.7876 14.9841 32.9135 14.9158 31.9178C14.7276 29.1788 15.2587 28.2181 15.7368 27.8967C15.9015 27.785 16.0863 27.7285 16.2846 27.7285C16.4677 27.7285 16.6144 27.7767 16.6858 27.8051L16.7042 27.8135L16.709 27.8336C16.8574 28.3613 16.9971 28.7409 17.0685 28.9208L17.097 28.9957L17.0186 28.9756C16.744 28.9073 16.5842 28.8609 16.5592 28.8525H16.5526C16.526 28.8525 16.511 28.8643 16.5062 28.8792C16.5027 28.891 16.5045 28.9011 16.5093 28.9108C16.5145 28.9208 16.5225 28.9292 16.5343 28.9323C16.536 28.9323 16.7374 28.9954 17.1635 29.0973H17.1684L17.1802 29.1008C17.8597 29.2606 19.0649 29.5089 20.8567 29.7453C20.8567 29.7453 20.1771 30.3212 20.6968 33.8794Z" fill="#E2E2E2"/>
<path d="M39.9532 1.28396C39.7466 1.2642 34.8615 0.882819 32.0456 6.90546C29.1682 13.0595 27.3567 12.7814 23.3873 16.1982C19.6276 19.432 22.9892 28.9428 23.3557 29.942C20.1622 29.6456 18.1707 29.2493 17.2183 29.0246L17.1968 29.0198L17.1902 28.9997C17.0186 28.5885 16.1695 26.3872 16.2562 23.5117C16.3443 20.6225 17.4367 16.4732 22.1506 13.1098C25.7372 10.549 27.9984 7.98961 29.8148 5.93156C32.3208 3.09585 34.1306 1.04785 37.6774 1.04785C38.3729 1.04751 39.1274 1.12586 39.9532 1.28396Z" fill="#A3180B"/>
<path d="M47.0066 22.2739C45.4613 19.7596 45.7709 16.5678 45.7862 16.4229C45.886 17.5718 46.2358 19.0169 47.2132 20.3073C47.2198 20.3223 47.2246 20.3275 47.2298 20.3323C47.4965 20.6769 47.7842 20.9883 48.0973 21.2646C51.4593 24.2549 51.5342 28.6709 51.5307 29.1636V29.2004L51.4943 29.2052C49.9823 29.3685 48.4953 29.5148 47.0336 29.6431C47.1851 29.1452 47.891 26.6625 47.6663 24.4446C47.6032 23.8084 47.4632 23.194 47.2101 22.6546C47.1498 22.5235 47.0815 22.3952 47.0066 22.2739Z" fill="#DE5547"/>
<path d="M53.89 32.4975C53.9964 35.8727 54.08 38.5385 51.5639 39.1012C50.32 39.381 49.0562 39.6289 47.7758 39.8456C48.7151 38.0972 48.7983 34.3358 48.68 32.2212C48.5303 29.5238 47.0068 29.7336 47.0068 29.7336C47.0068 29.7336 47.0068 29.7318 47.0086 29.7287C48.4987 29.5987 50.0173 29.4489 51.5626 29.2808L51.5726 29.279L51.5761 29.2808L51.8191 29.2541C51.964 29.2374 52.1072 29.2225 52.2522 29.2059C52.2754 29.2041 52.292 29.1827 52.2889 29.1608C52.2872 29.1393 52.2688 29.1227 52.2473 29.1227L51.6146 29.1927V29.1463C51.6146 28.9746 51.6062 28.5069 51.5196 27.8575L51.513 27.8076L51.5612 27.8093C51.7675 27.8177 52.3004 27.8842 52.7982 28.3357C53.4674 28.9434 53.8255 29.9939 53.8605 31.456C53.8689 31.7958 53.8789 32.1304 53.889 32.4583L53.89 32.4975Z" fill="white"/>
<path d="M58.3426 18.8017L58.3627 18.8368L58.3294 18.8569C57.2688 19.5229 56.1448 20.0256 54.9677 20.3619C53.7907 20.6982 52.5602 20.8664 51.2847 20.8664C49.0637 20.8664 47.4733 20.3318 47.2986 20.2718L47.2868 20.2669L47.2802 20.2569C46.3295 19.0032 45.9797 17.5959 45.875 16.4688C47.5617 17.461 51.5697 19.2261 53.9408 19.093C56.1718 18.9682 57.8423 18.074 58.0784 17.9409C58.0999 18.1791 58.1567 18.4055 58.2514 18.6204C58.2795 18.6835 58.3093 18.7435 58.3426 18.8017Z" fill="#DE5547"/>
<path d="M63.4556 20.0927L63.4106 20.1794L63.379 20.0878C63.1925 19.5532 62.6964 19.1354 62.6915 19.132C62.6814 19.1236 62.67 19.1219 62.6631 19.1219C62.6482 19.1236 62.6364 19.1285 62.6298 19.1385C61.9988 19.981 61.2593 20.1575 60.7499 20.1575C60.3953 20.1575 60.147 20.0708 60.1207 20.0608C60.1155 20.0591 59.8045 19.9675 59.4297 19.7477C60.0024 19.6146 62.6066 18.8934 62.4218 16.8954C62.3136 15.7332 61.9721 14.9174 61.6691 14.3994C62.047 14.466 62.3018 14.5877 62.3399 14.6057C63.2057 15.0103 63.7687 15.6132 64.0166 16.4006C64.4646 17.8249 63.7736 19.4568 63.4556 20.0927Z" fill="white"/>
<path d="M17.1688 29.0582C17.1688 29.0582 12.9705 19.6097 22.126 13.0743C32.3649 5.76506 31.6178 -1.33965 41.9503 1.73564C52.2829 4.81058 50.2411 15.9839 58.6276 15.9839" stroke="black" stroke-miterlimit="10" stroke-linecap="round" stroke-linejoin="round"/>
<path d="M51.5711 29.2391C51.5711 29.2391 51.7576 24.466 48.1234 21.2343C45.0394 18.4919 45.8937 14.3154 45.8937 14.3154" stroke="black" stroke-miterlimit="10" stroke-linecap="round" stroke-linejoin="round"/>
<path d="M47.2559 20.3008C47.2559 20.3008 52.8378 22.4046 58.4195 18.8516" stroke="black" stroke-miterlimit="10" stroke-linecap="round" stroke-linejoin="round"/>
<path d="M16.5459 28.8926C16.5459 28.8926 26.4537 32.0462 52.2476 29.1647" stroke="black" stroke-miterlimit="10" stroke-linecap="round" stroke-linejoin="round"/>
<path d="M51.4702 27.7674C51.4702 27.7674 53.8087 27.5871 53.902 31.4543C53.9952 35.3215 54.3794 38.5129 51.5738 39.1418C36.2862 42.569 22.6082 40.3029 18.7716 39.794C14.2055 39.1883 15.2307 37.1382 14.8739 31.9199C14.5165 26.693 16.7368 27.7816 16.7368 27.7816" stroke="black" stroke-miterlimit="10" stroke-linecap="round" stroke-linejoin="round"/>
<path d="M62.359 14.5686C62.359 14.5686 59.9147 13.3683 58.5164 16.1947C57.0224 19.2138 60.1119 20.1027 60.1119 20.1027C60.1119 20.1027 61.5601 20.6346 62.664 19.1632C62.664 19.1632 63.2847 19.685 63.3925 20.3007C63.3925 20.3007 65.7841 16.169 62.359 14.5686Z" stroke="black" stroke-miterlimit="10" stroke-linecap="round" stroke-linejoin="round"/>
<path d="M17.9255 26.2581C17.8302 25.8521 17.7348 25.4461 17.6624 25.0356C17.2553 22.7307 17.5927 20.3003 18.6117 18.1933C19.631 16.0864 21.3271 14.3133 23.3868 13.2021" stroke="black" stroke-width="0.5" stroke-miterlimit="10" stroke-linecap="round" stroke-linejoin="round"/>
<path d="M18.8647 23.1692C18.6126 20.5973 19.6427 17.9315 21.5583 16.1973" stroke="black" stroke-width="0.5" stroke-miterlimit="10" stroke-linecap="round" stroke-linejoin="round"/>
<path d="M20.9766 20.0528C21.0376 19.8524 21.1326 19.6624 21.2564 19.4932" stroke="black" stroke-width="0.5" stroke-miterlimit="10" stroke-linecap="round" stroke-linejoin="round"/>
<path d="M22.7744 21.1312C22.9342 20.8382 23.0941 20.5449 23.2539 20.252" stroke="black" stroke-width="0.5" stroke-miterlimit="10" stroke-linecap="round" stroke-linejoin="round"/>
<path d="M18.2559 27.4453C18.2645 27.689 18.3512 27.9297 18.5003 28.1231" stroke="black" stroke-width="0.5" stroke-miterlimit="10" stroke-linecap="round" stroke-linejoin="round"/>
<path d="M44.8643 18.3057C45.281 19.7175 45.7321 21.1896 46.7618 22.2415C47.1192 22.6066 47.5356 22.9085 47.9066 23.2601C49.1461 24.4344 49.826 26.1756 49.7105 27.8789" stroke="black" stroke-width="0.5" stroke-miterlimit="10" stroke-linecap="round" stroke-linejoin="round"/>
<path d="M47.0947 23.7373C47.6387 24.2615 47.9976 24.9542 48.2285 25.6737C48.4594 26.3931 48.57 27.1447 48.6799 27.8922" stroke="black" stroke-width="0.5" stroke-miterlimit="10" stroke-linecap="round" stroke-linejoin="round"/>
<path d="M47.1963 26.5254C47.2233 26.7785 47.25 27.0316 47.2771 27.2847" stroke="black" stroke-width="0.5" stroke-miterlimit="10" stroke-linecap="round" stroke-linejoin="round"/>
<path d="M44.9541 26.4062C44.9929 26.7107 45.0061 27.0185 44.994 27.3254" stroke="black" stroke-width="0.5" stroke-miterlimit="10" stroke-linecap="round" stroke-linejoin="round"/>
<path d="M47.3896 19.501C48.627 19.7454 49.8866 19.8765 51.1476 19.8914" stroke="black" stroke-width="0.5" stroke-miterlimit="10" stroke-linecap="round" stroke-linejoin="round"/>
<path d="M47.5508 18.6543C47.9699 18.751 48.3995 18.8048 48.8294 18.8141" stroke="black" stroke-width="0.5" stroke-miterlimit="10" stroke-linecap="round" stroke-linejoin="round"/>
<path d="M47.5098 17.6211C47.7629 17.662 48.0156 17.7029 48.2687 17.7442" stroke="black" stroke-width="0.5" stroke-miterlimit="10" stroke-linecap="round" stroke-linejoin="round"/>
<path d="M47.5107 16.8555C47.6307 16.8686 47.7507 16.8822 47.8703 16.8953" stroke="black" stroke-width="0.5" stroke-miterlimit="10" stroke-linecap="round" stroke-linejoin="round"/>
<path d="M52.0293 13.6963C53.3485 15.1375 55.1999 16.0799 57.1415 16.2983" stroke="black" stroke-width="0.5" stroke-miterlimit="10" stroke-linecap="round" stroke-linejoin="round"/>
<path d="M54.9844 16.9756C55.2375 17.0553 55.4906 17.1354 55.7437 17.2155" stroke="black" stroke-width="0.5" stroke-miterlimit="10" stroke-linecap="round" stroke-linejoin="round"/>
<path d="M55.624 18.1318C55.8106 18.1582 55.9971 18.1849 56.1836 18.2112" stroke="black" stroke-width="0.5" stroke-miterlimit="10" stroke-linecap="round" stroke-linejoin="round"/>
<path d="M59.0361 17.8506C59.0732 18.3329 59.3912 18.7697 59.8124 19.0075C60.2333 19.2454 60.7437 19.297 61.2197 19.2111" stroke="black" stroke-width="0.5" stroke-miterlimit="10" stroke-linecap="round" stroke-linejoin="round"/>
<path d="M60.0205 18.1719C60.2528 18.3643 60.5569 18.4676 60.8582 18.4562" stroke="black" stroke-width="0.5" stroke-miterlimit="10" stroke-linecap="round" stroke-linejoin="round"/>
<path d="M61.1377 17.3379C61.2705 17.366 61.4036 17.3941 61.5364 17.4218" stroke="black" stroke-width="0.5" stroke-miterlimit="10" stroke-linecap="round" stroke-linejoin="round"/>
<path d="M62.0596 15.2939C62.4701 15.5744 62.8033 15.9669 63.0134 16.4176" stroke="black" stroke-width="0.5" stroke-miterlimit="10" stroke-linecap="round" stroke-linejoin="round"/>
<path d="M39.96 2.39551C41.965 2.51824 43.9266 3.27406 45.4962 4.52775" stroke="black" stroke-width="0.5" stroke-miterlimit="10" stroke-linecap="round" stroke-linejoin="round"/>
<path d="M42.5156 3.90918C43.0294 4.12414 43.5148 4.40566 43.9565 4.74474" stroke="black" stroke-width="0.5" stroke-miterlimit="10" stroke-linecap="round" stroke-linejoin="round"/>
<path d="M43.1963 5.74414C43.4248 5.88733 43.6532 6.03087 43.8817 6.17406" stroke="black" stroke-width="0.5" stroke-miterlimit="10" stroke-linecap="round" stroke-linejoin="round"/>
<path d="M42.2354 7.74707C42.5685 7.88021 42.9014 8.01334 43.2346 8.14648" stroke="black" stroke-width="0.5" stroke-miterlimit="10" stroke-linecap="round" stroke-linejoin="round"/>
<path d="M35.8818 15.417C35.8818 15.6302 35.8818 15.8431 35.8818 16.0563" stroke="black" stroke-width="0.5" stroke-miterlimit="10" stroke-linecap="round" stroke-linejoin="round"/>
<path d="M36.6676 14.2168C36.5758 15.813 36.8743 17.4308 37.5295 18.889" stroke="black" stroke-width="0.5" stroke-miterlimit="10" stroke-linecap="round" stroke-linejoin="round"/>
<path d="M38.7568 16.7764C38.8903 17.2292 39.0238 17.682 39.1569 18.1348" stroke="black" stroke-width="0.5" stroke-miterlimit="10" stroke-linecap="round" stroke-linejoin="round"/>
<path d="M41.0771 18.8135C41.2238 18.9601 41.3701 19.1064 41.5168 19.2531" stroke="black" stroke-width="0.5" stroke-miterlimit="10" stroke-linecap="round" stroke-linejoin="round"/>
<path d="M31.2061 21.5312C31.4522 22.0548 31.7767 22.5412 32.1661 22.9694" stroke="black" stroke-width="0.5" stroke-miterlimit="10" stroke-linecap="round" stroke-linejoin="round"/>
<path d="M16.3335 37.1271C15.8751 36.6351 15.9836 35.8644 16.0703 35.1977C16.2319 33.9547 16.2114 32.6882 16.0097 31.4512" stroke="black" stroke-width="0.5" stroke-miterlimit="10" stroke-linecap="round" stroke-linejoin="round"/>
<path d="M17.06 35.1976C17.0191 34.7462 17.006 34.292 17.0202 33.8389" stroke="black" stroke-width="0.5" stroke-miterlimit="10" stroke-linecap="round" stroke-linejoin="round"/>
<path d="M19.3476 36.1171C19.3327 35.5946 19.2703 35.0735 19.1621 34.5625" stroke="black" stroke-width="0.5" stroke-miterlimit="10" stroke-linecap="round" stroke-linejoin="round"/>
<path d="M23.8605 38.7479C23.5006 36.4662 23.372 34.1485 23.4767 31.8408" stroke="black" stroke-width="0.5" stroke-miterlimit="10" stroke-linecap="round" stroke-linejoin="round"/>
<path d="M24.961 36.5197C24.7235 35.472 24.6206 34.3941 24.6549 33.3203" stroke="black" stroke-width="0.5" stroke-miterlimit="10" stroke-linecap="round" stroke-linejoin="round"/>
<path d="M26.291 36.2769C26.291 35.8639 26.291 35.451 26.291 35.0381" stroke="black" stroke-width="0.5" stroke-miterlimit="10" stroke-linecap="round" stroke-linejoin="round"/>
<path d="M28.1698 36.7964C28.1566 36.7298 28.1431 36.6632 28.1299 36.5967" stroke="black" stroke-width="0.5" stroke-miterlimit="10" stroke-linecap="round" stroke-linejoin="round"/>
<path d="M38.3992 37.7962C38.3798 37.0487 38.4204 36.2995 38.5206 35.5586" stroke="black" stroke-width="0.5" stroke-miterlimit="10" stroke-linecap="round" stroke-linejoin="round"/>
<path d="M40.2451 38.8352C40.4819 36.9127 40.6116 34.9767 40.6338 33.04" stroke="black" stroke-width="0.5" stroke-miterlimit="10" stroke-linecap="round" stroke-linejoin="round"/>
<path d="M42.8359 36.8361C42.8359 36.3435 42.8359 35.8504 42.8359 35.3574" stroke="black" stroke-width="0.5" stroke-miterlimit="10" stroke-linecap="round" stroke-linejoin="round"/>
<path d="M44.2344 35.6771C44.2344 35.5973 44.2344 35.5172 44.2344 35.4375" stroke="black" stroke-width="0.5" stroke-miterlimit="10" stroke-linecap="round" stroke-linejoin="round"/>
<path d="M51.9043 37.7771C52.3734 37.6048 52.5031 37.013 52.5471 36.5155C52.6865 34.9341 52.674 33.3396 52.5093 31.7607" stroke="black" stroke-width="0.5" stroke-miterlimit="10" stroke-linecap="round" stroke-linejoin="round"/>
<path d="M51.7471 34.9186C51.7471 34.5456 51.7471 34.1725 51.7471 33.7998" stroke="black" stroke-width="0.5" stroke-miterlimit="10" stroke-linecap="round" stroke-linejoin="round"/>
<path d="M49.6257 34.8796C49.5342 34.5135 49.4839 34.137 49.4756 33.7598" stroke="black" stroke-width="0.5" stroke-miterlimit="10" stroke-linecap="round" stroke-linejoin="round"/>
<path d="M47.834 33.5594C47.8073 33.3597 47.7806 33.1597 47.7539 32.96" stroke="black" stroke-width="0.5" stroke-miterlimit="10" stroke-linecap="round" stroke-linejoin="round"/>
<path d="M33.8854 34.9582C33.8656 34.5983 33.877 34.2367 33.92 33.8789" stroke="black" stroke-width="0.5" stroke-miterlimit="10" stroke-linecap="round" stroke-linejoin="round"/>
<path d="M35.1191 36.9966C35.1375 36.316 35.1795 35.6364 35.2453 34.959" stroke="black" stroke-width="0.5" stroke-miterlimit="10" stroke-linecap="round" stroke-linejoin="round"/>
</svg>
