<svg width="24" height="24" viewBox="0 0 24 24" fill="none" xmlns="http://www.w3.org/2000/svg">
<path d="M7.65362 7.05444L7.62505 4.86816C7.62066 4.53418 7.89092 4.26172 8.22491 4.26172H15.7747C16.1065 4.26172 16.3746 4.52979 16.3746 4.86157V7.04565H14.8365V5.7998H9.17632L9.1917 7.03687L7.65362 7.05444Z" fill="#8E6620"/>
<path d="M9.47095 7.86768H7.32422C7.28687 7.86768 7.25391 7.83691 7.25391 7.79736V7.08984C7.25391 7.05249 7.28467 7.01953 7.32422 7.01953H9.47095C9.5083 7.01953 9.54126 7.05029 9.54126 7.08984V7.79736C9.54126 7.83691 9.5083 7.86768 9.47095 7.86768ZM16.6736 7.86768H14.5378C14.4961 7.86768 14.4631 7.83472 14.4631 7.79297V7.09863C14.4631 7.05688 14.4961 7.02393 14.5378 7.02393H16.6736C16.7153 7.02393 16.7483 7.05688 16.7483 7.09863V7.79297C16.7505 7.83472 16.7153 7.86768 16.6736 7.86768Z" fill="#FFB000"/>
<path d="M20.2241 21.8477H3.81934C2.91187 21.8477 2.17578 21.1116 2.17578 20.2041V9.42871C2.17578 8.52124 2.91187 7.78516 3.81934 7.78516H20.2219C21.1294 7.78516 21.8655 8.52124 21.8655 9.42871V20.2041C21.8677 21.1116 21.1316 21.8477 20.2241 21.8477Z" fill="#8E6620"/>
<path d="M5.49805 7.7863L7.25586 7.78125L7.29633 21.8284L5.53852 21.8334L5.49805 7.7863ZM16.7503 7.7863L18.5081 7.78125L18.5486 21.8284L16.7908 21.8334L16.7503 7.7863Z" fill="#FFB000"/>
</svg>
