<svg width="24" height="24" viewBox="0 0 24 24" fill="none" xmlns="http://www.w3.org/2000/svg">
<path d="M22.4173 1.05469L21.3623 21.8899L23.9997 20.835V1.05469H22.4173Z" fill="#E26142"/>
<path d="M0 1.05469V20.835L22.4176 22.4174V1.05469H0Z" fill="#F1866D"/>
<path d="M1.58203 2.63672V4.21913L20.8348 19.2521H22.4172V2.63672H1.58203Z" fill="#164370"/>
<path d="M20.8348 4.21875H1.58203V19.2517H20.8348V4.21875Z" fill="#276AAD"/>
<path d="M22.4173 20.8359L21.3623 21.8909L22.4173 22.9458H23.9997V20.8359H22.4173Z" fill="#95341D"/>
<path d="M22.4176 20.8359H0V22.9458H22.4176V20.8359Z" fill="#E26142"/>
<path d="M19.6486 13.4507C19.1776 13.4507 18.7684 13.356 18.4028 13.1917V8.69867C18.7684 8.53437 19.1776 8.43969 19.6486 8.43969C19.8671 8.43969 20.0442 8.26259 20.0442 8.04406C20.0442 7.82553 19.8671 7.64844 19.6486 7.64844C17.691 7.64844 16.6321 8.90047 15.6925 10.2469C14.753 8.90042 13.6941 7.64844 11.7364 7.64844C11.5179 7.64844 11.3408 7.82553 11.3408 8.04406C11.3408 8.26259 11.5179 8.43969 11.7364 8.43969C12.2074 8.43969 12.6166 8.53437 12.9822 8.69867V13.1917C12.6166 13.356 12.2074 13.4507 11.7364 13.4507C11.5179 13.4507 11.3408 13.6278 11.3408 13.8463C11.3408 14.0648 11.5179 14.2419 11.7364 14.2419C13.694 14.2419 14.7529 12.9899 15.6925 11.6435C16.632 12.9899 17.6909 14.2419 19.6486 14.2419C19.8671 14.2419 20.0442 14.0648 20.0442 13.8463C20.0441 13.6278 19.8671 13.4507 19.6486 13.4507ZM13.7734 12.6838V9.20661C14.3163 9.66758 14.7645 10.2903 15.2134 10.9452C14.7645 11.6001 14.3163 12.2228 13.7734 12.6838ZM16.1716 10.9452C16.6205 10.2902 17.0688 9.66758 17.6116 9.20661V12.6838C17.0688 12.2228 16.6205 11.6001 16.1716 10.9452Z" fill="white"/>
<path d="M9.62643 9.23266H4.35168C4.13315 9.23266 3.95605 9.05556 3.95605 8.83703C3.95605 8.6185 4.13315 8.44141 4.35168 8.44141H9.62638C9.84491 8.44141 10.022 8.6185 10.022 8.83703C10.022 9.05556 9.84496 9.23266 9.62643 9.23266Z" fill="white"/>
<path d="M9.62643 11.342H4.35168C4.13315 11.342 3.95605 11.1649 3.95605 10.9464C3.95605 10.7279 4.13315 10.5508 4.35168 10.5508H9.62638C9.84491 10.5508 10.022 10.7279 10.022 10.9464C10.022 11.1649 9.84496 11.342 9.62643 11.342Z" fill="white"/>
<path d="M9.62643 13.4514H4.35168C4.13315 13.4514 3.95605 13.2743 3.95605 13.0558C3.95605 12.8373 4.13315 12.6602 4.35168 12.6602H9.62638C9.84491 12.6602 10.022 12.8373 10.022 13.0558C10.022 13.2744 9.84496 13.4514 9.62643 13.4514Z" fill="white"/>
</svg>
