<svg width="24" height="24" viewBox="0 0 24 24" fill="none" xmlns="http://www.w3.org/2000/svg">
<path d="M11.2356 7.50469L2.48399 7.5C2.38321 7.5 2.30586 7.58672 2.31758 7.6875L3.86446 20.6484C3.98868 21.6984 4.88164 22.4906 5.93868 22.4906H12.9512C14.0106 22.4906 14.9035 21.6961 15.0254 20.6437L16.5207 7.78125C16.5371 7.63125 16.4199 7.5 16.2699 7.5L11.2356 7.50469Z" fill="#EF0303"/>
<path d="M2.4867 7.49834C2.4867 7.49834 1.8656 6.19287 3.02341 6.01709C3.17341 5.99365 3.2906 5.87412 3.30466 5.72412C3.33748 5.38428 3.50154 4.83115 4.19295 4.67881C4.36638 4.64131 4.47654 4.4749 4.44841 4.30381C4.35935 3.76709 4.38279 2.78974 5.79607 2.96084C5.94138 2.97724 6.08201 2.8999 6.14295 2.76865C6.42654 2.14521 7.39216 0.588964 9.51326 2.17568C9.61638 2.25303 9.75232 2.26475 9.86717 2.2085C10.3172 1.98818 11.4398 1.53818 12.0469 2.80146C12.1008 2.91631 12.2203 2.98896 12.3492 2.98896C12.8062 2.99131 13.8117 3.15068 13.657 4.49365C13.657 4.5874 15.1547 4.25928 15.1875 5.7124C15.1922 5.86709 15.3023 5.99834 15.457 6.02881C15.8367 6.10381 16.4695 6.34756 16.4859 7.16318C16.4906 7.34834 16.3383 7.49834 16.1508 7.49834L2.60623 7.50303M18.0023 20.989C18.0023 20.989 16.6711 20.8718 17.0062 19.4913C17.0062 19.4913 16.3406 17.9936 18.0023 17.9936C18.0023 17.9936 18.2109 16.4046 19.5023 17.3819C19.5679 17.3819 21.2484 16.7022 21.0023 18.4132C21.0023 18.3827 22.2023 18.2421 21.7476 19.4936C21.7476 19.4304 22.4765 20.9913 20.9883 20.9913C20.9883 20.9913 21 22.2101 19.5 21.7577C19.5047 21.7554 18.157 22.2405 18.0023 20.989Z" fill="#F4EA29"/>
<path d="M8.72324 22.418L8.68105 7.57734C8.68105 7.5375 8.71387 7.50469 8.75137 7.50469L10.0146 7.5C10.0545 7.5 10.0873 7.53281 10.0873 7.57031L10.1295 22.4109C10.1295 22.4508 10.0967 22.4836 10.0592 22.4836L8.7959 22.4883C8.75605 22.4906 8.72324 22.4578 8.72324 22.418ZM5.7209 22.4391L5.67871 7.55859C5.67871 7.53047 5.70215 7.50703 5.73027 7.50703L7.03105 7.50234C7.05918 7.50234 7.08262 7.52578 7.08262 7.55391L7.1248 22.4344C7.1248 22.4625 7.10137 22.4859 7.07324 22.4859L5.77246 22.4906C5.74434 22.4906 5.7209 22.4672 5.7209 22.4391ZM11.6881 22.4133L11.6459 7.58438C11.6459 7.54219 11.6811 7.50703 11.7232 7.50703L12.9748 7.50234C13.017 7.50234 13.0521 7.5375 13.0521 7.57969L13.0943 22.4086C13.0943 22.4508 13.0592 22.4859 13.017 22.4859L11.7654 22.4906C11.7232 22.4906 11.6881 22.4555 11.6881 22.4133Z" fill="white"/>
</svg>
