<svg width="24" height="24" viewBox="0 0 24 24" fill="none" xmlns="http://www.w3.org/2000/svg">
<g clip-path="url(#clip0_1442_11489)">
<path d="M18.2067 24.0004V7.44878C18.2067 7.44878 18.3101 4.5179 19.448 4.13845C19.448 4.13845 19.6206 3.24179 15.7239 2.0695L14.4826 0.828125H14.4838L12.0011 6.2074L9.51837 0.828172L8.27699 2.06955C4.38031 3.24179 4.5529 4.1385 4.5529 4.1385C5.69083 4.51795 5.79428 7.44883 5.79428 7.44883V24.0004H18.2067Z" fill="#C03A2B"/>
<path d="M12.4136 7.85912C12.4136 8.08754 12.2282 8.27293 11.9997 8.27293C11.7713 8.27293 11.5859 8.08754 11.5859 7.85912C11.5859 7.6307 11.7713 7.44531 11.9997 7.44531C12.2282 7.44531 12.4136 7.6307 12.4136 7.85912Z" fill="#9E2A21"/>
<path d="M12.4136 9.51537C12.4136 9.74379 12.2282 9.92918 11.9997 9.92918C11.7713 9.92918 11.5859 9.74379 11.5859 9.51537C11.5859 9.28695 11.7713 9.10156 11.9997 9.10156C12.2282 9.10156 12.4136 9.28695 12.4136 9.51537Z" fill="#9E2A21"/>
<path d="M5.7943 7.44705C5.7943 7.44705 5.69127 4.55878 4.57486 4.1475L4.55171 4.13672L0 9.9298L2.89652 11.9988L5.7943 10.481V7.44705Z" fill="#9E2A21"/>
<path d="M18.2061 7.44705C18.2061 7.44705 18.3091 4.55878 19.4255 4.1475L19.4487 4.13672L24.0004 9.92976L21.1038 11.9987L18.2061 10.4809V7.44705H18.2061Z" fill="#9E2A21"/>
<path d="M9.64849 0.567276L9.51855 0.82757L12.0013 6.20685L14.4832 0.82757L14.3524 0.566479C14.1791 0.219326 13.824 0 13.4359 0H10.5655C10.1769 0 9.82188 0.219701 9.64849 0.567276Z" fill="#721F1C"/>
<path d="M11.2251 4.52578L9.51746 5.37983L8.27734 2.0695L9.51868 0.828125L11.2251 4.52578Z" fill="#9E2A21"/>
<path d="M12.7764 4.52578L14.4841 5.37983L15.7242 2.0695L14.4828 0.828125L12.7764 4.52578Z" fill="#9E2A21"/>
</g>
<defs>
<clipPath id="clip0_1442_11489">
<rect width="24" height="24" fill="white"/>
</clipPath>
</defs>
</svg>
