<svg width="24" height="24" viewBox="0 0 24 24" fill="none" xmlns="http://www.w3.org/2000/svg">
<path d="M13.7921 6.8577C15.2123 6.8577 16.3636 5.70643 16.3636 4.28627C16.3636 2.86611 15.2123 1.71484 13.7921 1.71484C12.372 1.71484 11.2207 2.86611 11.2207 4.28627C11.2207 5.70643 12.372 6.8577 13.7921 6.8577Z" fill="#FF9800"/>
<path d="M14.3064 13.6987L9.57498 11.5901C9.0607 11.333 8.80355 12.1044 8.54641 12.6187C8.28927 13.133 6.43784 16.3216 6.59213 16.8873C6.74641 17.3501 7.15784 17.6073 7.56927 17.6073C7.67212 17.6073 7.77498 17.6073 7.87784 17.5559L14.2036 15.6016C14.615 15.4987 14.9236 15.0873 14.9236 14.6759C14.9236 14.2644 14.6664 13.853 14.3064 13.6987Z" fill="#00796B"/>
<path d="M13.1748 7.47421L12.0433 6.95993C11.3748 6.65136 10.5519 6.95993 10.2433 7.6285L4.12334 20.7942C3.8662 21.3085 4.12334 21.9256 4.63762 22.1828C4.79191 22.2342 4.9462 22.2856 5.10048 22.2856C5.51191 22.2856 5.87191 22.0799 6.0262 21.7199C6.0262 21.7199 10.9633 14.8799 11.3748 14.0571C11.7862 13.2342 13.8948 9.27421 13.8948 9.27421C14.1519 8.60564 13.8948 7.78278 13.1748 7.47421Z" fill="#009688"/>
<path d="M20.2202 7.73366C19.8602 7.32223 19.1917 7.21937 18.7802 7.57937L16.2088 9.73938L12.9174 7.93938C12.3517 7.6308 11.5802 7.73366 11.2202 8.40223C10.8088 9.0708 11.0145 9.89366 11.6317 10.1508L15.9002 11.8994C16.0545 11.9508 16.2088 12.0022 16.3631 12.0022C16.6202 12.0022 16.8259 11.8994 17.0317 11.7451L20.1174 9.17366C20.5288 8.81366 20.5802 8.19652 20.2202 7.73366ZM5.4088 11.5394L7.15737 8.91652L9.52309 9.22509L10.2945 7.6308C10.5002 7.16795 10.9117 6.9108 11.3745 6.85938H6.64309C6.28309 6.85938 5.97451 7.01366 5.7688 7.32223L3.71166 10.4079C3.40309 10.8708 3.50594 11.5394 4.02023 11.8479C4.12309 11.9508 4.3288 12.0022 4.53451 12.0022C4.84309 12.0022 5.20309 11.8479 5.4088 11.5394Z" fill="#FF9800"/>
</svg>
