<svg width="24" height="24" viewBox="0 0 24 24" fill="none" xmlns="http://www.w3.org/2000/svg">
<path d="M13.589 6.78571L12.6046 2.82009L9.11709 3.36852C8.8874 3.40368 8.67412 3.24899 8.63662 3.0193L8.58506 2.69118C8.5499 2.46149 8.70459 2.24821 8.93428 2.21071L13.0312 1.56852C13.2843 1.52868 13.528 1.6904 13.589 1.93884L14.7233 6.50446C14.7796 6.72946 14.6413 6.9568 14.4163 7.01305L14.0952 7.09274C13.8726 7.14899 13.6429 7.01071 13.589 6.78571Z" fill="#656666"/>
<path d="M1.50488 17.5742C1.50488 18.6713 1.94071 19.7235 2.7165 20.4993C3.49229 21.2751 4.54448 21.7109 5.6416 21.7109C6.73873 21.7109 7.79092 21.2751 8.5667 20.4993C9.34249 19.7235 9.77832 18.6713 9.77832 17.5742C9.77832 16.4771 9.34249 15.4249 8.5667 14.6491C7.79092 13.8733 6.73873 13.4375 5.6416 13.4375C4.54448 13.4375 3.49229 13.8733 2.7165 14.6491C1.94071 15.4249 1.50488 16.4771 1.50488 17.5742Z" fill="#FF9D00"/>
<path d="M3.84805 14.0927C4.51836 14.4302 5.23789 14.5685 5.93633 14.531C5.84023 13.1224 5.02461 11.7982 3.67227 11.1161C3.00195 10.7786 2.28242 10.6403 1.58398 10.6778C1.68008 12.0888 2.4957 13.4107 3.84805 14.0927Z" fill="#02BA4D"/>
<path d="M20.1655 21.7242H12.717C12.2952 21.7242 11.9459 21.4359 11.9084 21.0609L10.5022 6.95859C10.4858 6.78516 10.6381 6.63281 10.835 6.63281H22.0662C22.2631 6.63281 22.4155 6.78516 22.3967 6.95859L20.9108 21.1148C20.8756 21.4594 20.5522 21.7242 20.1655 21.7242Z" fill="#00AAFF"/>
</svg>
