<svg width="24" height="24" viewBox="0 0 24 24" fill="none" xmlns="http://www.w3.org/2000/svg">
<path d="M19.304 3.12942V5.73811H15.1302V3.12942C15.1302 2.55309 15.5973 2.08594 16.1736 2.08594H18.2606C18.8369 2.08594 19.304 2.55309 19.304 3.12942ZM7.82577 2.08594H5.7388C5.16247 2.08594 4.69531 2.55309 4.69531 3.12942V5.73811H8.8692V3.12942C8.86925 2.55309 8.40209 2.08594 7.82577 2.08594Z" fill="#9B9B9B"/>
<path d="M4.69531 3.12891H8.8692V4.69411H4.69531V3.12891ZM15.1301 3.12891V4.69411H19.304V3.12891H15.1301Z" fill="#666666"/>
<path d="M7.56775 19.3462L6.50884 20.6032C5.80825 21.4349 4.77606 21.9149 3.68837 21.9149C1.37964 21.9149 -0.361205 19.8181 0.0642791 17.5497L2.00879 7.18253C2.33584 5.43916 3.85858 4.17578 5.63289 4.17578H18.367C20.1414 4.17578 21.6641 5.43911 21.9911 7.18244L23.9356 17.5496C24.3611 19.818 22.6203 21.9149 20.3116 21.9149C19.2239 21.9149 18.1917 21.4348 17.4911 20.6032L16.4322 19.3461C15.7316 18.5145 14.6994 18.0344 13.6118 18.0344H10.3882C9.30048 18.0345 8.26834 18.5145 7.56775 19.3462Z" fill="#C1C1C1"/>
<path d="M23.9357 17.5495C24.3612 19.8179 22.6203 21.9147 20.3116 21.9147C19.2239 21.9147 18.1918 21.4347 17.4912 20.603L16.4323 19.346C15.7317 18.5143 14.6995 18.0343 13.6119 18.0343H10.3882C9.30053 18.0343 8.26839 18.5143 7.56779 19.346L6.50889 20.603C5.8082 21.4347 4.77601 21.9147 3.68837 21.9147C1.37964 21.9147 -0.361205 19.8179 0.0642791 17.5495L0.704966 14.1336C1.36947 15.0471 2.4467 15.6539 3.68837 15.6539C4.77606 15.6539 5.8082 15.1738 6.50879 14.3422L7.5677 13.0851C8.26829 12.2535 9.30048 11.7734 10.3881 11.7734H13.6117C14.6994 11.7734 15.7315 12.2535 16.4321 13.0851L17.491 14.3422C18.1917 15.1738 19.2239 15.6539 20.3116 15.6539C21.5533 15.6539 22.6305 15.0471 23.295 14.1336L23.9357 17.5495Z" fill="#9B9B9B"/>
<path d="M12.7824 7.82697H11.2172C10.785 7.82697 10.4346 7.47658 10.4346 7.04434C10.4346 6.61216 10.785 6.26172 11.2172 6.26172H12.7824C13.2146 6.26172 13.565 6.61211 13.565 7.04434C13.565 7.47658 13.2146 7.82697 12.7824 7.82697Z" fill="#9B9B9B"/>
<path d="M7.82623 9.39114V14.6085C7.82623 15.1848 7.35907 15.652 6.78274 15.652C6.20641 15.652 5.73926 15.1848 5.73926 14.6085V9.39114C5.73926 8.81481 6.20641 8.34766 6.78274 8.34766C7.35907 8.34766 7.82623 8.81481 7.82623 9.39114ZM13.5654 13.0433C13.5654 13.6196 14.0325 14.0868 14.6089 14.0868C15.1852 14.0868 15.6523 13.6196 15.6523 13.0433V11.9998H13.5654V13.0433ZM18.7828 11.9998V13.0433C18.7828 13.6196 19.2499 14.0868 19.8263 14.0868C20.4026 14.0868 20.8698 13.6196 20.8698 13.0433V11.9998H18.7828ZM16.1741 15.652C16.1741 16.2283 16.6412 16.6955 17.2175 16.6955C17.7939 16.6955 18.261 16.2283 18.261 15.652V14.6085H16.1741V15.652ZM16.1741 10.4346C16.1741 11.011 16.6412 11.4781 17.2175 11.4781C17.7939 11.4781 18.261 11.011 18.261 10.4346V9.39114H16.1741V10.4346Z" fill="#666666"/>
<path d="M10.4352 12.0005C10.4352 12.5768 9.96809 13.044 9.39177 13.044H4.17434C3.59802 13.044 3.13086 12.5768 3.13086 12.0005C3.13086 11.4242 3.59802 10.957 4.17434 10.957H9.39172C9.96805 10.957 10.4352 11.4242 10.4352 12.0005Z" fill="#828282"/>
<path d="M17.2173 8.34766C17.7936 8.34766 18.2608 8.81481 18.2608 9.39114C18.2608 9.96747 17.7936 10.4346 17.2173 10.4346C16.641 10.4346 16.1738 9.96747 16.1738 9.39114C16.1738 8.81481 16.641 8.34766 17.2173 8.34766Z" fill="#FFE954"/>
<path d="M17.2173 13.5664C17.7936 13.5664 18.2608 14.0336 18.2608 14.6099C18.2608 15.1862 17.7936 15.6534 17.2173 15.6534C16.641 15.6534 16.1738 15.1862 16.1738 14.6099C16.1738 14.0336 16.641 13.5664 17.2173 13.5664Z" fill="#91F18B"/>
<path d="M13.5654 12.0005C13.5654 11.4242 14.0326 10.957 14.6089 10.957C15.1852 10.957 15.6524 11.4242 15.6524 12.0005C15.6524 12.5768 15.1852 13.044 14.6089 13.044C14.0326 13.044 13.5654 12.5768 13.5654 12.0005Z" fill="#82CEAD"/>
<path d="M18.7822 12.0005C18.7822 11.4242 19.2494 10.957 19.8257 10.957C20.402 10.957 20.8692 11.4242 20.8692 12.0005C20.8692 12.5768 20.402 13.044 19.8257 13.044C19.2494 13.044 18.7822 12.5768 18.7822 12.0005Z" fill="#FF8355"/>
</svg>
