<svg width="24" height="24" viewBox="0 0 24 24" fill="none" xmlns="http://www.w3.org/2000/svg">
<path d="M16.498 20.2956L15.562 19.9287L19.0469 11.0209C19.2073 10.61 18.9897 10.1464 18.5701 10.0102L12.4749 8.01947C12.0837 7.89203 11.6619 8.09418 11.5168 8.4787L8.48022 16.5119L7.04102 15.9692L11.3037 4.69281C11.4465 4.31269 11.8618 4.11054 12.2507 4.22919L21.3694 7.04608C21.7957 7.17792 22.022 7.64374 21.8594 8.06122L17.1924 19.9924C17.0825 20.267 16.7727 20.4033 16.498 20.2956Z" fill="#360682"/>
<path d="M2.61719 15.4268C2.61719 16.231 2.93665 17.0022 3.50531 17.5709C4.07396 18.1395 4.84522 18.459 5.64941 18.459C6.45361 18.459 7.22487 18.1395 7.79352 17.5709C8.36217 17.0022 8.68164 16.231 8.68164 15.4268C8.68164 14.6226 8.36217 13.8513 7.79352 13.2826C7.22487 12.714 6.45361 12.3945 5.64941 12.3945C4.84522 12.3945 4.07396 12.714 3.50531 13.2826C2.93665 13.8513 2.61719 14.6226 2.61719 15.4268Z" fill="#360682"/>
<path d="M11.3672 18.8174C11.3672 19.6216 11.6867 20.3928 12.2553 20.9615C12.824 21.5301 13.5952 21.8496 14.3994 21.8496C15.2036 21.8496 15.9749 21.5301 16.5435 20.9615C17.1122 20.3928 17.4316 19.6216 17.4316 18.8174C17.4316 18.0132 17.1122 17.2419 16.5435 16.6733C15.9749 16.1046 15.2036 15.7852 14.3994 15.7852C13.5952 15.7852 12.824 16.1046 12.2553 16.6733C11.6867 17.2419 11.3672 18.0132 11.3672 18.8174Z" fill="#360682"/>
<path d="M5.77771 8.89188L3.33786 2.78172C3.17849 2.38563 3.39411 1.93797 3.80193 1.81376L6.33083 1.04266C6.66833 0.939537 7.02693 1.10126 7.17458 1.42235L7.48396 2.09735C7.65974 2.47938 7.46286 2.92704 7.06443 3.05829L5.33708 3.62782C5.17536 3.68172 5.09099 3.85985 5.15427 4.01688L6.80427 8.22626C6.85349 8.35282 6.79255 8.49344 6.66599 8.54501L5.77771 8.89188Z" fill="#E51C5A"/>
<path d="M2.9707 8.88984C2.9707 9.15085 3.02211 9.40929 3.12199 9.65043C3.22187 9.89156 3.36827 10.1107 3.55283 10.2952C3.73738 10.4798 3.95649 10.6262 4.19762 10.7261C4.43875 10.8259 4.6972 10.8773 4.9582 10.8773C5.21921 10.8773 5.47765 10.8259 5.71879 10.7261C5.95992 10.6262 6.17902 10.4798 6.36358 10.2952C6.54813 10.1107 6.69453 9.89156 6.79441 9.65043C6.89429 9.40929 6.9457 9.15085 6.9457 8.88984C6.9457 8.36273 6.73631 7.8572 6.36358 7.48447C5.99085 7.11174 5.48532 6.90234 4.9582 6.90234C4.43109 6.90234 3.92556 7.11174 3.55283 7.48447C3.1801 7.8572 2.9707 8.36273 2.9707 8.88984Z" fill="#E51C5A"/>
</svg>
