<svg width="24" height="24" viewBox="0 0 24 24" fill="none" xmlns="http://www.w3.org/2000/svg">
<path d="M20.102 13.6652C19.945 13.3886 19.5911 13.2949 19.3169 13.4543C19.0403 13.6113 18.9466 13.9652 19.1036 14.2394C20.6645 16.9558 21.0583 19.2222 20.1302 20.1504C18.356 21.9269 12.827 18.873 8.97392 15.0199C8.00127 14.0472 7.12705 13.0347 6.36533 12.0222C7.14814 10.9652 8.03642 9.93161 8.97392 8.99411C12.8247 5.14333 18.3536 2.09177 20.1302 3.86598C20.8544 4.5902 20.7794 6.15349 19.9216 8.15505C18.9817 10.3488 17.2333 12.7886 14.9997 15.0222C14.477 15.5449 13.9356 16.0488 13.3895 16.5175C13.1481 16.7238 13.1224 17.0894 13.3286 17.3285C13.5372 17.5699 13.9005 17.5957 14.1395 17.3894C14.7067 16.9019 15.2692 16.3769 15.813 15.8355C18.1474 13.5011 19.9825 10.9347 20.9786 8.60974C22.0474 6.11833 22.0333 4.14489 20.9435 3.05505C18.7966 0.908172 13.181 3.16286 8.16064 8.18552C7.22549 9.12067 6.38642 10.0769 5.65283 11.0261C4.99424 10.0488 4.44814 9.08083 4.05205 8.15739C3.19424 6.15817 3.11924 4.59489 3.84345 3.86833C4.77158 2.9402 7.0333 3.33161 9.7497 4.8902C10.0239 5.04723 10.3778 4.95349 10.5349 4.67692C10.6919 4.40036 10.5981 4.0488 10.3216 3.89177C7.04033 2.00973 4.38252 1.7027 3.03017 3.05505C1.93799 4.14723 1.92627 6.11833 2.99502 8.60974C3.46377 9.70661 4.1247 10.855 4.93095 12.0082C2.28486 15.8004 1.42236 19.3558 3.03017 20.9636C3.58799 21.5215 4.36611 21.7957 5.31767 21.7957C6.69345 21.7957 8.43252 21.2191 10.3919 20.0847C10.6661 19.9254 10.7599 19.5738 10.6005 19.2972C10.4411 19.023 10.0895 18.9293 9.81299 19.0886C7.06845 20.6824 4.78095 21.0879 3.84345 20.1504C2.63408 18.941 3.66767 15.9879 5.66689 13.009C6.40752 13.9675 7.24424 14.9191 8.1583 15.8332C10.4927 18.1675 13.0591 20.0004 15.3864 20.9988C16.6169 21.5261 17.7231 21.791 18.6583 21.791C19.6145 21.791 20.3903 21.5144 20.9435 20.9636C22.2958 19.6113 21.9888 16.9511 20.102 13.6652ZM11.988 10.0886C10.9286 10.0886 10.0685 10.9488 10.0685 12.0082C10.0685 13.0675 10.9286 13.9277 11.988 13.9277C13.0474 13.9277 13.9075 13.0675 13.9075 12.0082C13.9052 10.9488 13.0474 10.0886 11.988 10.0886Z" fill="#5F9BEB"/>
</svg>
