<svg width="24" height="24" viewBox="0 0 24 24" fill="none" xmlns="http://www.w3.org/2000/svg">
<g clip-path="url(#clip0_1442_11449)">
<path d="M12 24C18.6274 24 24 18.6274 24 12C24 5.37258 18.6274 0 12 0C5.37258 0 0 5.37258 0 12C0 18.6274 5.37258 24 12 24Z" fill="#F5F8FA"/>
<path d="M11.9999 7.33425C11.8231 7.33425 11.6535 7.26401 11.5285 7.13899C11.4034 7.01397 11.3332 6.8444 11.3332 6.66758V2.00092C11.3332 1.82411 11.4034 1.65454 11.5285 1.52951C11.6535 1.40449 11.8231 1.33425 11.9999 1.33425C12.1767 1.33425 12.3462 1.40449 12.4713 1.52951C12.5963 1.65454 12.6665 1.82411 12.6665 2.00092V6.66758C12.6665 6.8444 12.5963 7.01397 12.4713 7.13899C12.3462 7.26401 12.1767 7.33425 11.9999 7.33425ZM7.6112 10.3343C7.54287 10.3343 7.47495 10.3237 7.40987 10.3029L2.0492 8.60825C1.88061 8.55494 1.7401 8.43685 1.65859 8.27994C1.57707 8.12303 1.56122 7.94017 1.61453 7.77158C1.66784 7.603 1.78594 7.46249 1.94284 7.38097C2.09975 7.29946 2.28261 7.28361 2.4512 7.33692L7.81253 9.03158C7.96462 9.07938 8.09454 9.18009 8.17874 9.31545C8.26295 9.45081 8.29586 9.61187 8.27151 9.76941C8.24716 9.92696 8.16716 10.0706 8.04602 10.1742C7.92488 10.2778 7.77061 10.3346 7.6112 10.3343ZM16.6945 10.1403C16.5344 10.1394 16.3799 10.0809 16.2593 9.97563C16.1387 9.87032 16.0599 9.72514 16.0375 9.5666C16.015 9.40805 16.0503 9.24671 16.1369 9.11202C16.2235 8.97733 16.3556 8.87827 16.5092 8.83292L21.0092 7.52759C21.1783 7.48093 21.3589 7.50277 21.5119 7.58837C21.665 7.67397 21.7782 7.81643 21.8269 7.98488C21.8757 8.15334 21.8561 8.33422 21.7724 8.48834C21.6887 8.64246 21.5477 8.7574 21.3799 8.80825L16.8799 10.1136C16.8197 10.1312 16.7573 10.1402 16.6945 10.1403ZM18.0285 20.1122C17.9245 20.1123 17.8219 20.0881 17.729 20.0414C17.636 19.9948 17.5553 19.927 17.4932 19.8436L13.8539 14.9549C13.7995 14.8849 13.7597 14.8047 13.7368 14.719C13.7138 14.6334 13.7082 14.5441 13.7202 14.4562C13.7321 14.3684 13.7615 14.2838 13.8066 14.2075C13.8517 14.1311 13.9115 14.0646 13.9826 14.0116C14.0537 13.9587 14.1347 13.9205 14.2208 13.8992C14.3068 13.8779 14.3963 13.874 14.4838 13.8878C14.5714 13.9015 14.6554 13.9325 14.7308 13.9791C14.8063 14.0256 14.8717 14.0868 14.9232 14.1589L18.5625 19.0476C18.6363 19.1467 18.681 19.2643 18.6918 19.3874C18.7026 19.5104 18.679 19.6341 18.6236 19.7445C18.5682 19.8549 18.4833 19.9477 18.3782 20.0127C18.2731 20.0776 18.1521 20.1121 18.0285 20.1122ZM5.83253 20.0569C5.7108 20.0568 5.59143 20.0234 5.48736 19.9602C5.38329 19.8971 5.29849 19.8066 5.24216 19.6987C5.18584 19.5908 5.16013 19.4695 5.16784 19.3481C5.17554 19.2266 5.21636 19.1095 5.28587 19.0096L8.70253 14.0929C8.75157 14.0189 8.81491 13.9554 8.88881 13.9062C8.96272 13.857 9.04571 13.8231 9.13291 13.8064C9.22012 13.7897 9.30978 13.7906 9.39664 13.809C9.48349 13.8274 9.56579 13.863 9.6387 13.9137C9.71161 13.9643 9.77367 14.0291 9.82123 14.104C9.86879 14.179 9.9009 14.2627 9.91566 14.3503C9.93042 14.4378 9.92755 14.5275 9.90721 14.6139C9.88687 14.7003 9.84946 14.7818 9.7972 14.8536L6.38053 19.7703C6.3193 19.8589 6.23742 19.9313 6.14194 19.9813C6.04647 20.0312 5.94028 20.0572 5.83253 20.0569ZM2.3332 18.0422C2.03987 18.0422 1.77053 17.8469 1.68987 17.5502L0.231199 12.1756C0.208305 12.0911 0.202284 12.0028 0.21348 11.916C0.224677 11.8291 0.25287 11.7453 0.296452 11.6694C0.340034 11.5934 0.39815 11.5268 0.467482 11.4733C0.536814 11.4198 0.616004 11.3805 0.700532 11.3576C0.78506 11.3347 0.873269 11.3287 0.960123 11.3399C1.04698 11.3511 1.13078 11.3793 1.20673 11.4228C1.28269 11.4664 1.34932 11.5245 1.40282 11.5939C1.45632 11.6632 1.49564 11.7424 1.51853 11.8269L2.9772 17.2016C3.00421 17.3005 3.00801 17.4043 2.9883 17.5049C2.96859 17.6055 2.92589 17.7001 2.86355 17.7815C2.80121 17.8629 2.72091 17.9288 2.62891 17.974C2.53691 18.0192 2.43571 18.0426 2.3332 18.0422ZM14.6665 22.6676H8.66653C8.48972 22.6676 8.32015 22.5973 8.19513 22.4723C8.0701 22.3473 7.99987 22.1777 7.99987 22.0009C7.99987 21.8241 8.0701 21.6545 8.19513 21.5295C8.32015 21.4045 8.48972 21.3342 8.66653 21.3342H14.6665C14.8433 21.3342 15.0129 21.4045 15.1379 21.5295C15.263 21.6545 15.3332 21.8241 15.3332 22.0009C15.3332 22.1777 15.263 22.3473 15.1379 22.4723C15.0129 22.5973 14.8433 22.6676 14.6665 22.6676ZM21.4172 18.0842C21.3161 18.0844 21.2162 18.0615 21.1252 18.0172C21.0343 17.973 20.9546 17.9087 20.8922 17.8291C20.8298 17.7495 20.7863 17.6567 20.7651 17.5578C20.7439 17.4589 20.7456 17.3564 20.7699 17.2582L22.1865 11.5083C22.2055 11.4212 22.2417 11.3388 22.293 11.266C22.3443 11.1931 22.4097 11.1313 22.4854 11.0842C22.561 11.0371 22.6453 11.0056 22.7333 10.9916C22.8213 10.9776 22.9112 10.9814 22.9977 11.0027C23.0842 11.0241 23.1656 11.0625 23.2369 11.1159C23.3083 11.1692 23.3683 11.2363 23.4133 11.3132C23.4583 11.3901 23.4875 11.4752 23.499 11.5636C23.5106 11.6519 23.5043 11.7417 23.4805 11.8276L22.0639 17.5776C21.9885 17.8809 21.7165 18.0842 21.4172 18.0842ZM20.2079 5.12625C20.0908 5.12631 19.9759 5.09549 19.8745 5.03692L14.8332 2.12025C14.7574 2.07637 14.691 2.01797 14.6378 1.94842C14.5846 1.87886 14.5456 1.7995 14.523 1.71486C14.5005 1.63023 14.4949 1.54199 14.5064 1.45518C14.518 1.36836 14.5466 1.28468 14.5905 1.20892C14.6342 1.13303 14.6925 1.06651 14.762 1.01319C14.8314 0.959861 14.9107 0.920773 14.9953 0.898166C15.0799 0.875559 15.1682 0.869877 15.255 0.881447C15.3418 0.893016 15.4255 0.921609 15.5012 0.965585L20.5425 3.88225C20.6697 3.95569 20.7691 4.06907 20.8252 4.20479C20.8814 4.3405 20.8911 4.49096 20.8529 4.63278C20.8148 4.7746 20.7309 4.89986 20.6142 4.98909C20.4976 5.07832 20.3547 5.12654 20.2079 5.12625ZM3.6672 5.12625C3.52593 5.1265 3.38823 5.08186 3.27397 4.99877C3.15971 4.91569 3.0748 4.79846 3.03148 4.66399C2.98817 4.52952 2.98869 4.38477 3.03297 4.25061C3.07726 4.11646 3.16301 3.99984 3.27787 3.91758L7.4032 0.958918C7.54711 0.863434 7.72245 0.827465 7.89233 0.858572C8.06222 0.88968 8.21343 0.985441 8.31418 1.12573C8.41492 1.26601 8.45736 1.43989 8.43256 1.61081C8.40776 1.78173 8.31766 1.93638 8.1812 2.04225L4.0552 5.00092C3.94213 5.08219 3.80645 5.12602 3.6672 5.12625Z" fill="#CCD6DD"/>
<path d="M16.9953 9.01067L12.19 5.622C12.0765 5.54223 11.9411 5.49976 11.8024 5.50047C11.6637 5.50119 11.5286 5.54506 11.416 5.626L6.638 9.07067C6.52631 9.15123 6.44231 9.26441 6.39754 9.39465C6.35278 9.52489 6.34944 9.66579 6.388 9.798L8.05467 15.52C8.09506 15.6585 8.17927 15.7801 8.29467 15.8667C8.41006 15.9532 8.55042 16 8.69467 16H14.6667C14.8063 16 14.9424 15.9562 15.0558 15.8748C15.1692 15.7933 15.2541 15.6783 15.2987 15.546L17.2433 9.768C17.2891 9.63189 17.2896 9.48466 17.2449 9.3482C17.2003 9.21174 17.1127 9.09336 16.9953 9.01067ZM0.861333 13.028C0.97969 13.028 1.09592 12.9966 1.19809 12.9368C1.30025 12.8771 1.38467 12.7912 1.44267 12.688L3.69267 8.688C3.72662 8.62747 3.75091 8.56202 3.76467 8.494L4.65333 4.13333C4.67323 4.03645 4.67131 3.93635 4.64769 3.8403C4.62407 3.74425 4.57935 3.65467 4.51679 3.57806C4.45423 3.50146 4.37539 3.43975 4.286 3.39741C4.19661 3.35508 4.09891 3.33319 4 3.33333H3.71467C1.43 5.518 0 8.58933 0 12C0 12.1773 0.0186667 12.35 0.0266667 12.5253L0.428 12.868C0.549333 12.972 0.703333 13.028 0.861333 13.028ZM7.078 1.99667C7.11291 2.06867 7.16463 2.13121 7.22879 2.17902C7.29296 2.22683 7.36769 2.25849 7.44667 2.27133L11.6967 2.966C11.7504 2.97402 11.805 2.97402 11.8587 2.966L15.9147 2.29933C15.9811 2.28857 16.0446 2.2645 16.1014 2.22855C16.1583 2.19261 16.2072 2.14553 16.2454 2.09017C16.2836 2.0348 16.3102 1.97229 16.3236 1.90638C16.337 1.84047 16.3369 1.77254 16.3233 1.70667L16.1287 0.744667C14.8072 0.254745 13.4094 0.00263254 12 0C10.3833 0 8.844 0.324 7.43667 0.904L7.08933 1.53733C7.05097 1.60745 7.02992 1.68572 7.02795 1.76563C7.02598 1.84553 7.04314 1.92474 7.078 1.99667ZM20.756 3.81267L19.7533 3.74933C19.6775 3.74472 19.6017 3.75725 19.5314 3.78599C19.4611 3.81473 19.3982 3.85894 19.3473 3.91533C19.2971 3.97175 19.2604 4.03896 19.2402 4.11177C19.2199 4.18458 19.2167 4.26107 19.2307 4.33533L20.0087 8.46733C20.02 8.52049 20.041 8.5711 20.0707 8.61667C21.0653 10.286 22.172 12.1507 22.3247 12.4713C22.3407 12.5273 22.366 12.524 22.4007 12.572C22.494 12.702 22.6487 12.6667 22.8087 12.6667H22.8133C22.9453 12.6667 23.0287 12.7293 23.992 12.1647C23.9927 12.1093 24 12.0553 24 12C24 8.83133 22.7627 5.95733 20.756 3.81267ZM9.694 22.2507C9.7012 22.1177 9.65542 21.9873 9.56667 21.888L6.56667 18.5547C6.52668 18.5103 6.47903 18.4735 6.426 18.446C2.50267 16.4 2.43 16.376 2.382 16.3593C2.32988 16.3424 2.27546 16.3337 2.22067 16.3333C1.86267 16.3333 1.75733 16.3767 1.43067 17.6827C2.9376 20.4774 5.48832 22.5629 8.52667 23.4847L9.52667 22.596C9.62598 22.5076 9.68616 22.3834 9.694 22.2507ZM21.5827 16.5393C21.5201 16.513 21.4529 16.4997 21.385 16.5002C21.3171 16.5008 21.2501 16.5152 21.188 16.5427L17.1327 18.3207C17.0619 18.3513 16.9993 18.3981 16.95 18.4573L14.1167 21.846C14.0744 21.8968 14.0425 21.9554 14.023 22.0186C14.0034 22.0817 13.9965 22.1481 14.0027 22.2139C14.0089 22.2797 14.0281 22.3436 14.0591 22.402C14.0901 22.4603 14.1323 22.512 14.1833 22.554C14.6387 22.9267 15.024 23.2407 15.3613 23.514C18.29 22.655 20.7819 20.7133 22.3307 18.0833L21.856 16.824C21.8322 16.7605 21.7956 16.7025 21.7486 16.6535C21.7017 16.6046 21.6452 16.5657 21.5827 16.5393Z" fill="#31373D"/>
</g>
<defs>
<clipPath id="clip0_1442_11449">
<rect width="24" height="24" fill="white"/>
</clipPath>
</defs>
</svg>
