<svg width="24" height="24" viewBox="0 0 24 24" fill="none" xmlns="http://www.w3.org/2000/svg">
<g clip-path="url(#clip0_1442_11503)">
<path d="M5.67578 13.2184L12.7478 6.14844L14.1618 7.56244L7.08978 14.6331L5.67578 13.2184Z" fill="#99AAB5"/>
<path d="M5.6763 19.8193C5.42626 20.0692 5.08719 20.2097 4.73363 20.2097C4.38008 20.2097 4.041 20.0692 3.79097 19.8193L0.490968 16.5199C0.241006 16.2699 0.100586 15.9308 0.100586 15.5773C0.100586 15.2237 0.241006 14.8846 0.490968 14.6346L3.79097 11.3339C4.041 11.084 4.38008 10.9436 4.73363 10.9436C5.08719 10.9436 5.42626 11.084 5.6763 11.3339L8.9763 14.6339C9.22626 14.884 9.36668 15.2231 9.36668 15.5766C9.36668 15.9302 9.22626 16.2692 8.9763 16.5193L5.6763 19.8193ZM16.5176 8.97728C16.3939 9.1011 16.247 9.19934 16.0853 9.26636C15.9236 9.33338 15.7503 9.36788 15.5753 9.36788C15.4003 9.36788 15.227 9.33338 15.0653 9.26636C14.9036 9.19934 14.7567 9.1011 14.633 8.97728L11.333 5.67728C11.083 5.42724 10.9426 5.08816 10.9426 4.73461C10.9426 4.38106 11.083 4.04198 11.333 3.79194L14.6336 0.491944C14.8837 0.241983 15.2227 0.101563 15.5763 0.101562C15.9299 0.101562 16.2689 0.241983 16.519 0.491944L19.8183 3.79194C20.0684 4.04189 20.2089 4.38092 20.209 4.73447C20.2091 5.08802 20.0688 5.42715 19.819 5.67728L16.5176 8.97728Z" fill="#55ACEE"/>
<path d="M8.26978 6.85363L7.32712 4.02496C7.02845 3.13029 6.38378 3.08163 5.91245 3.55296L4.02712 5.43896C3.55512 5.91029 3.60378 6.55496 4.49845 6.85363L7.32712 7.79629L8.26978 6.85363Z" fill="#99AAB5"/>
<path d="M11.8052 14.6345C11.555 14.8844 11.2159 15.0248 10.8623 15.025C10.5087 15.0251 10.1695 14.8849 9.91917 14.6351L5.20517 9.92112C5.0813 9.7973 4.98304 9.65029 4.916 9.48849C4.84896 9.32669 4.81445 9.15326 4.81445 8.97812C4.81445 8.80298 4.84896 8.62955 4.916 8.46775C4.98304 8.30595 5.0813 8.15894 5.20517 8.03512L8.03317 5.20712C8.15699 5.08325 8.304 4.98499 8.4658 4.91795C8.6276 4.85091 8.80103 4.81641 8.97617 4.81641C9.15131 4.81641 9.32473 4.85091 9.48654 4.91795C9.64834 4.98499 9.79535 5.08325 9.91917 5.20712L14.6332 9.92112C15.1532 10.4418 15.1532 11.2858 14.6325 11.8071L11.8052 14.6345Z" fill="#CCD6DD"/>
<path d="M14.0102 14.0353C12.7089 15.3373 10.8089 15.548 9.76752 14.5073C8.72619 13.466 10.3515 12.9806 11.6535 11.6786C12.9555 10.3766 13.4409 8.75198 14.4822 9.79265C15.5229 10.834 15.3122 12.7333 14.0102 14.0353Z" fill="#CCD6DD"/>
<path d="M18.6399 13.4562C17.2266 12.0415 15.2279 12.1555 13.9259 13.4562C12.6246 14.7589 12.5119 16.7562 13.9259 18.1702L18.6399 13.4562ZM16.7546 15.3422L18.1686 17.6989L15.8119 16.2849L16.7546 15.3422Z" fill="#99AAB5"/>
<path d="M18.5422 18.0715C18.4803 18.1334 18.4068 18.1825 18.3259 18.216C18.2451 18.2495 18.1584 18.2667 18.0709 18.2667C17.9833 18.2667 17.8966 18.2495 17.8158 18.216C17.7349 18.1825 17.6614 18.1334 17.5995 18.0715C17.5376 18.0096 17.4885 17.9361 17.455 17.8552C17.4215 17.7744 17.4043 17.6877 17.4043 17.6002C17.4043 17.5126 17.4215 17.4259 17.455 17.3451C17.4885 17.2642 17.5376 17.1907 17.5995 17.1288C17.7245 17.0038 17.8941 16.9336 18.0709 16.9336C18.2476 16.9336 18.4172 17.0038 18.5422 17.1288C18.6672 17.2538 18.7374 17.4234 18.7374 17.6002C18.7374 17.7769 18.6672 17.9465 18.5422 18.0715Z" fill="#99AAB5"/>
<path d="M2.8469 12.2782L3.7909 11.3342L8.9769 16.5189L8.03423 17.4622L2.8469 12.2782ZM11.3336 3.79152L12.2762 2.84885L17.4616 8.03419L16.5189 8.97685L11.3336 3.79152ZM0.490234 14.6355L1.4329 13.6922L6.61957 18.8762L5.6769 19.8189L0.490234 14.6355ZM13.6889 1.43552L14.6309 0.492188L19.8182 5.67552L18.8762 6.61819L13.6889 1.43552Z" fill="#88C9F9"/>
<path d="M5.53778 5.06882C5.4758 5.13072 5.40223 5.1798 5.32128 5.21327C5.24033 5.24673 5.15358 5.26392 5.06598 5.26386C4.97838 5.2638 4.89166 5.24648 4.81075 5.2129C4.72985 5.17933 4.65635 5.13014 4.59445 5.06816C4.53256 5.00617 4.48347 4.9326 4.45001 4.85165C4.41654 4.7707 4.39935 4.68395 4.39941 4.59635C4.39948 4.50875 4.41679 4.42203 4.45037 4.34112C4.48395 4.26022 4.53313 4.18672 4.59512 4.12482C4.72021 3.99982 4.88984 3.92963 5.06669 3.92969C5.24353 3.92975 5.41311 4.00006 5.53812 4.12516C5.66312 4.25025 5.73332 4.41988 5.73325 4.59673C5.73319 4.77357 5.66288 4.94382 5.53778 5.06882Z" fill="#99AAB5"/>
<path d="M15.7881 20.2892L15.7894 20.2552C15.7938 20.1677 15.8153 20.0819 15.8528 20.0028C15.8903 19.9237 15.9431 19.8527 16.008 19.7939C16.073 19.7352 16.1488 19.6898 16.2313 19.6604C16.3138 19.631 16.4013 19.6181 16.4888 19.6225C16.4994 19.6232 17.9261 19.6645 19.0221 18.5692C20.1134 17.4772 20.0741 16.0545 20.0754 16.0352C20.069 15.9466 20.0803 15.8576 20.1088 15.7735C20.1372 15.6894 20.1822 15.6118 20.241 15.5453C20.2998 15.4788 20.3714 15.4247 20.4514 15.3862C20.5314 15.3477 20.6183 15.3256 20.707 15.3211C20.7957 15.3167 20.8844 15.33 20.9678 15.3603C21.0513 15.3906 21.1279 15.4373 21.1931 15.4976C21.2583 15.5579 21.3107 15.6306 21.3474 15.7115C21.3841 15.7924 21.4043 15.8797 21.4068 15.9685C21.4148 16.0498 21.4888 17.9872 19.9648 19.5112C18.4394 21.0358 16.5041 20.9578 16.4221 20.9538C16.2513 20.9455 16.0903 20.8718 15.9723 20.7481C15.8544 20.6244 15.7884 20.4601 15.7881 20.2892Z" fill="#FFAC33"/>
<path d="M16.1582 22.6594C16.158 22.5529 16.1834 22.4479 16.2322 22.3532C16.281 22.2586 16.3518 22.177 16.4387 22.1154C16.5256 22.0538 16.626 22.0139 16.7315 21.9992C16.837 21.9845 16.9444 21.9953 17.0449 22.0307C17.1162 22.0534 18.9629 22.626 21.0209 20.5674C23.1055 18.4834 22.6302 16.4834 22.6089 16.3994C22.5654 16.2286 22.5912 16.0476 22.6806 15.8958C22.77 15.7439 22.9158 15.6336 23.0862 15.5887C23.2557 15.5436 23.4362 15.5675 23.5883 15.655C23.7403 15.7426 23.8515 15.8868 23.8975 16.056C23.9282 16.1694 24.6155 18.8594 21.9642 21.51C19.2882 24.1874 16.7135 23.3274 16.6055 23.2887C16.4749 23.2432 16.3616 23.1582 16.2815 23.0454C16.2013 22.9326 16.1582 22.7977 16.1582 22.6594Z" fill="#FFAC33"/>
</g>
<defs>
<clipPath id="clip0_1442_11503">
<rect width="24" height="24" fill="white"/>
</clipPath>
</defs>
</svg>
