<svg width="24" height="24" viewBox="0 0 24 24" fill="none" xmlns="http://www.w3.org/2000/svg">
<g clip-path="url(#clip0_1442_11529)">
<path d="M20.7598 21.5933H18.2623L18.2548 20.9658C18.2573 20.9483 18.2523 19.3658 18.0798 16.9458C17.8698 14.0008 17.5698 11.2408 14.1523 9.09828L14.7273 8.48828C16.5723 9.58828 18.1548 11.1133 18.9198 12.4108C19.9123 14.0983 20.2523 14.9958 20.5498 16.5558C21.0573 19.1958 20.7723 21.5083 20.7598 21.5933Z" fill="#755E49"/>
<path d="M13.2571 20.9406C13.2571 21.2906 13.2246 21.6306 13.1621 21.9606H3.02957C2.96707 21.6306 2.93457 21.2881 2.93457 20.9406C2.93457 20.3356 3.03457 19.7531 3.21457 19.2106C3.91207 17.1331 5.83457 15.6406 8.09457 15.6406C10.3546 15.6406 12.2771 17.1331 12.9746 19.2106C13.1596 19.7531 13.2571 20.3356 13.2571 20.9406Z" fill="#FF9D00"/>
<path d="M23.1822 21.7188C23.1822 22.0988 23.0272 22.4413 22.7797 22.6913C22.5322 22.9413 22.1872 23.0938 21.8072 23.0938H2.15723C1.39723 23.0938 0.782227 22.4788 0.782227 21.7188C0.782227 21.3388 0.937227 20.9963 1.18473 20.7463C1.43473 20.4988 1.77723 20.3438 2.15723 20.3438H21.8072C22.5672 20.3438 23.1822 20.9588 23.1822 21.7188Z" fill="#00B7FF"/>
<path d="M23.0121 9.36362C23.2571 9.36362 23.3521 8.96112 23.1496 8.79112C22.4196 8.17612 20.9996 7.28612 18.9071 7.27362C16.7996 7.25862 15.3846 8.17612 14.6671 8.80362C14.4671 8.97862 14.5646 9.37362 14.8071 9.37362L23.0121 9.36362Z" fill="#02C652"/>
<path d="M20.6897 3.71837C20.8622 3.54587 20.6472 3.19337 20.3822 3.21587C19.4297 3.29837 17.7972 3.67337 16.3097 5.14337C14.8097 6.62337 14.4572 8.27087 14.3922 9.22337C14.3747 9.48837 14.7222 9.70087 14.8947 9.52837L20.6897 3.71837Z" fill="#02C652"/>
<path d="M15.1878 9.18322C15.3603 9.01072 15.1453 8.65822 14.8803 8.68072C13.9278 8.76322 12.2953 9.13822 10.8078 10.6082C9.30779 12.0882 8.95529 13.7357 8.89029 14.6882C8.87279 14.9532 9.22029 15.1657 9.39279 14.9932L15.1878 9.18322Z" fill="#02C652"/>
<path d="M15.4203 1.04836C15.4203 0.803364 15.0178 0.708364 14.8478 0.910864C14.2328 1.64086 13.3428 3.06086 13.3303 5.15336C13.3153 7.26086 14.2328 8.67587 14.8603 9.39336C15.0353 9.59336 15.4303 9.49586 15.4303 9.25337L15.4203 1.04836Z" fill="#02C652"/>
<path d="M15.4203 8.73196C15.4203 8.48696 15.0178 8.39196 14.8478 8.59446C14.2328 9.32446 13.3428 10.7445 13.3303 12.837C13.3153 14.9445 14.2328 16.3595 14.8603 17.077C15.0353 17.277 15.4303 17.1795 15.4303 16.937L15.4203 8.73196Z" fill="#02C652"/>
<path d="M15.0629 9.42612C15.3079 9.42612 15.4029 9.02362 15.2004 8.85362C14.4704 8.23862 13.0504 7.34862 10.9579 7.33612C8.85039 7.32112 7.43539 8.23862 6.71789 8.86612C6.51789 9.04112 6.61539 9.43612 6.85789 9.43612L15.0629 9.42612Z" fill="#02C652"/>
</g>
<defs>
<clipPath id="clip0_1442_11529">
<rect width="24" height="24" fill="white"/>
</clipPath>
</defs>
</svg>
